G04 #@! TF.GenerationSoftware,KiCad,Pcbnew,(5.1.12)-1*
G04 #@! TF.CreationDate,2022-05-09T15:03:32+08:00*
G04 #@! TF.ProjectId,Printhead-Controller,5072696e-7468-4656-9164-2d436f6e7472,0.5*
G04 #@! TF.SameCoordinates,Original*
G04 #@! TF.FileFunction,Legend,Top*
G04 #@! TF.FilePolarity,Positive*
%FSLAX46Y46*%
G04 Gerber Fmt 4.6, Leading zero omitted, Abs format (unit mm)*
G04 Created by KiCad (PCBNEW (5.1.12)-1) date 2022-05-09 15:03:32*
%MOMM*%
%LPD*%
G01*
G04 APERTURE LIST*
%ADD10C,0.120000*%
%ADD11C,0.200000*%
%ADD12C,0.130000*%
%ADD13C,0.150000*%
G04 APERTURE END LIST*
D10*
X126365000Y-63563500D02*
X126365000Y-64604900D01*
D11*
X128765395Y-63673100D02*
X128670157Y-63625480D01*
X128527300Y-63625480D01*
X128384442Y-63673100D01*
X128289204Y-63768338D01*
X128241585Y-63863576D01*
X128193966Y-64054052D01*
X128193966Y-64196909D01*
X128241585Y-64387385D01*
X128289204Y-64482623D01*
X128384442Y-64577861D01*
X128527300Y-64625480D01*
X128622538Y-64625480D01*
X128765395Y-64577861D01*
X128813014Y-64530242D01*
X128813014Y-64196909D01*
X128622538Y-64196909D01*
X129241585Y-64625480D02*
X129241585Y-63625480D01*
X129813014Y-64625480D01*
X129813014Y-63625480D01*
X130289204Y-64625480D02*
X130289204Y-63625480D01*
X130527300Y-63625480D01*
X130670157Y-63673100D01*
X130765395Y-63768338D01*
X130813014Y-63863576D01*
X130860633Y-64054052D01*
X130860633Y-64196909D01*
X130813014Y-64387385D01*
X130765395Y-64482623D01*
X130670157Y-64577861D01*
X130527300Y-64625480D01*
X130289204Y-64625480D01*
X124412619Y-64981200D02*
X124317380Y-64933580D01*
X124174523Y-64933580D01*
X124031666Y-64981200D01*
X123936428Y-65076438D01*
X123888809Y-65171676D01*
X123841190Y-65362152D01*
X123841190Y-65505009D01*
X123888809Y-65695485D01*
X123936428Y-65790723D01*
X124031666Y-65885961D01*
X124174523Y-65933580D01*
X124269761Y-65933580D01*
X124412619Y-65885961D01*
X124460238Y-65838342D01*
X124460238Y-65505009D01*
X124269761Y-65505009D01*
X124888809Y-65933580D02*
X124888809Y-64933580D01*
X125269761Y-64933580D01*
X125365000Y-64981200D01*
X125412619Y-65028819D01*
X125460238Y-65124057D01*
X125460238Y-65266914D01*
X125412619Y-65362152D01*
X125365000Y-65409771D01*
X125269761Y-65457390D01*
X124888809Y-65457390D01*
X125888809Y-65933580D02*
X125888809Y-64933580D01*
X126555476Y-64933580D02*
X126745952Y-64933580D01*
X126841190Y-64981200D01*
X126936428Y-65076438D01*
X126984047Y-65266914D01*
X126984047Y-65600247D01*
X126936428Y-65790723D01*
X126841190Y-65885961D01*
X126745952Y-65933580D01*
X126555476Y-65933580D01*
X126460238Y-65885961D01*
X126365000Y-65790723D01*
X126317380Y-65600247D01*
X126317380Y-65266914D01*
X126365000Y-65076438D01*
X126460238Y-64981200D01*
X126555476Y-64933580D01*
X127365000Y-65028819D02*
X127412619Y-64981200D01*
X127507857Y-64933580D01*
X127745952Y-64933580D01*
X127841190Y-64981200D01*
X127888809Y-65028819D01*
X127936428Y-65124057D01*
X127936428Y-65219295D01*
X127888809Y-65362152D01*
X127317380Y-65933580D01*
X127936428Y-65933580D01*
X128793571Y-64933580D02*
X128603095Y-64933580D01*
X128507857Y-64981200D01*
X128460238Y-65028819D01*
X128365000Y-65171676D01*
X128317380Y-65362152D01*
X128317380Y-65743104D01*
X128365000Y-65838342D01*
X128412619Y-65885961D01*
X128507857Y-65933580D01*
X128698333Y-65933580D01*
X128793571Y-65885961D01*
X128841190Y-65838342D01*
X128888809Y-65743104D01*
X128888809Y-65505009D01*
X128841190Y-65409771D01*
X128793571Y-65362152D01*
X128698333Y-65314533D01*
X128507857Y-65314533D01*
X128412619Y-65362152D01*
X128365000Y-65409771D01*
X128317380Y-65505009D01*
X121205809Y-63473080D02*
X121824857Y-63473080D01*
X121491523Y-63854033D01*
X121634380Y-63854033D01*
X121729619Y-63901652D01*
X121777238Y-63949271D01*
X121824857Y-64044509D01*
X121824857Y-64282604D01*
X121777238Y-64377842D01*
X121729619Y-64425461D01*
X121634380Y-64473080D01*
X121348666Y-64473080D01*
X121253428Y-64425461D01*
X121205809Y-64377842D01*
X122253428Y-64377842D02*
X122301047Y-64425461D01*
X122253428Y-64473080D01*
X122205809Y-64425461D01*
X122253428Y-64377842D01*
X122253428Y-64473080D01*
X122634380Y-63473080D02*
X123253428Y-63473080D01*
X122920095Y-63854033D01*
X123062952Y-63854033D01*
X123158190Y-63901652D01*
X123205809Y-63949271D01*
X123253428Y-64044509D01*
X123253428Y-64282604D01*
X123205809Y-64377842D01*
X123158190Y-64425461D01*
X123062952Y-64473080D01*
X122777238Y-64473080D01*
X122682000Y-64425461D01*
X122634380Y-64377842D01*
X123539142Y-63473080D02*
X123872476Y-64473080D01*
X124205809Y-63473080D01*
D12*
X128701866Y-58311300D02*
X128635200Y-58277966D01*
X128535200Y-58277966D01*
X128435200Y-58311300D01*
X128368533Y-58377966D01*
X128335200Y-58444633D01*
X128301866Y-58577966D01*
X128301866Y-58677966D01*
X128335200Y-58811300D01*
X128368533Y-58877966D01*
X128435200Y-58944633D01*
X128535200Y-58977966D01*
X128601866Y-58977966D01*
X128701866Y-58944633D01*
X128735200Y-58911300D01*
X128735200Y-58677966D01*
X128601866Y-58677966D01*
X129035200Y-58977966D02*
X129035200Y-58277966D01*
X129435200Y-58977966D01*
X129435200Y-58277966D01*
X129768533Y-58977966D02*
X129768533Y-58277966D01*
X129935200Y-58277966D01*
X130035200Y-58311300D01*
X130101866Y-58377966D01*
X130135200Y-58444633D01*
X130168533Y-58577966D01*
X130168533Y-58677966D01*
X130135200Y-58811300D01*
X130101866Y-58877966D01*
X130035200Y-58944633D01*
X129935200Y-58977966D01*
X129768533Y-58977966D01*
D11*
X123520247Y-58580328D02*
X124282152Y-58580328D01*
X123901200Y-58961280D02*
X123901200Y-58199376D01*
X110640833Y-103900242D02*
X110593214Y-103947861D01*
X110450357Y-103995480D01*
X110355119Y-103995480D01*
X110212261Y-103947861D01*
X110117023Y-103852623D01*
X110069404Y-103757385D01*
X110021785Y-103566909D01*
X110021785Y-103424052D01*
X110069404Y-103233576D01*
X110117023Y-103138338D01*
X110212261Y-103043100D01*
X110355119Y-102995480D01*
X110450357Y-102995480D01*
X110593214Y-103043100D01*
X110640833Y-103090719D01*
X111021785Y-103947861D02*
X111164642Y-103995480D01*
X111402738Y-103995480D01*
X111497976Y-103947861D01*
X111545595Y-103900242D01*
X111593214Y-103805004D01*
X111593214Y-103709766D01*
X111545595Y-103614528D01*
X111497976Y-103566909D01*
X111402738Y-103519290D01*
X111212261Y-103471671D01*
X111117023Y-103424052D01*
X111069404Y-103376433D01*
X111021785Y-103281195D01*
X111021785Y-103185957D01*
X111069404Y-103090719D01*
X111117023Y-103043100D01*
X111212261Y-102995480D01*
X111450357Y-102995480D01*
X111593214Y-103043100D01*
X109985371Y-101493580D02*
X109985371Y-100493580D01*
X110318704Y-101207866D01*
X110652038Y-100493580D01*
X110652038Y-101493580D01*
X111318704Y-100493580D02*
X111509180Y-100493580D01*
X111604419Y-100541200D01*
X111699657Y-100636438D01*
X111747276Y-100826914D01*
X111747276Y-101160247D01*
X111699657Y-101350723D01*
X111604419Y-101445961D01*
X111509180Y-101493580D01*
X111318704Y-101493580D01*
X111223466Y-101445961D01*
X111128228Y-101350723D01*
X111080609Y-101160247D01*
X111080609Y-100826914D01*
X111128228Y-100636438D01*
X111223466Y-100541200D01*
X111318704Y-100493580D01*
X112128228Y-101445961D02*
X112271085Y-101493580D01*
X112509180Y-101493580D01*
X112604419Y-101445961D01*
X112652038Y-101398342D01*
X112699657Y-101303104D01*
X112699657Y-101207866D01*
X112652038Y-101112628D01*
X112604419Y-101065009D01*
X112509180Y-101017390D01*
X112318704Y-100969771D01*
X112223466Y-100922152D01*
X112175847Y-100874533D01*
X112128228Y-100779295D01*
X112128228Y-100684057D01*
X112175847Y-100588819D01*
X112223466Y-100541200D01*
X112318704Y-100493580D01*
X112556800Y-100493580D01*
X112699657Y-100541200D01*
X113128228Y-101493580D02*
X113128228Y-100493580D01*
X168378619Y-90343880D02*
X168378619Y-89343880D01*
X168711952Y-90058166D01*
X169045285Y-89343880D01*
X169045285Y-90343880D01*
X169426238Y-89343880D02*
X170045285Y-89343880D01*
X169711952Y-89724833D01*
X169854809Y-89724833D01*
X169950047Y-89772452D01*
X169997666Y-89820071D01*
X170045285Y-89915309D01*
X170045285Y-90153404D01*
X169997666Y-90248642D01*
X169950047Y-90296261D01*
X169854809Y-90343880D01*
X169569095Y-90343880D01*
X169473857Y-90296261D01*
X169426238Y-90248642D01*
X171426238Y-89343880D02*
X171616714Y-89343880D01*
X171711952Y-89391500D01*
X171807190Y-89486738D01*
X171854809Y-89677214D01*
X171854809Y-90010547D01*
X171807190Y-90201023D01*
X171711952Y-90296261D01*
X171616714Y-90343880D01*
X171426238Y-90343880D01*
X171331000Y-90296261D01*
X171235761Y-90201023D01*
X171188142Y-90010547D01*
X171188142Y-89677214D01*
X171235761Y-89486738D01*
X171331000Y-89391500D01*
X171426238Y-89343880D01*
X172759571Y-90343880D02*
X172283380Y-90343880D01*
X172283380Y-89343880D01*
X173092904Y-89820071D02*
X173426238Y-89820071D01*
X173569095Y-90343880D02*
X173092904Y-90343880D01*
X173092904Y-89343880D01*
X173569095Y-89343880D01*
X173997666Y-90343880D02*
X173997666Y-89343880D01*
X174235761Y-89343880D01*
X174378619Y-89391500D01*
X174473857Y-89486738D01*
X174521476Y-89581976D01*
X174569095Y-89772452D01*
X174569095Y-89915309D01*
X174521476Y-90105785D01*
X174473857Y-90201023D01*
X174378619Y-90296261D01*
X174235761Y-90343880D01*
X173997666Y-90343880D01*
X169854809Y-92043880D02*
X169854809Y-91043880D01*
X170188142Y-91758166D01*
X170521476Y-91043880D01*
X170521476Y-92043880D01*
X171140523Y-92043880D02*
X171045285Y-91996261D01*
X170997666Y-91948642D01*
X170950047Y-91853404D01*
X170950047Y-91567690D01*
X170997666Y-91472452D01*
X171045285Y-91424833D01*
X171140523Y-91377214D01*
X171283380Y-91377214D01*
X171378619Y-91424833D01*
X171426238Y-91472452D01*
X171473857Y-91567690D01*
X171473857Y-91853404D01*
X171426238Y-91948642D01*
X171378619Y-91996261D01*
X171283380Y-92043880D01*
X171140523Y-92043880D01*
X172331000Y-91377214D02*
X172331000Y-92043880D01*
X171902428Y-91377214D02*
X171902428Y-91901023D01*
X171950047Y-91996261D01*
X172045285Y-92043880D01*
X172188142Y-92043880D01*
X172283380Y-91996261D01*
X172331000Y-91948642D01*
X172807190Y-91377214D02*
X172807190Y-92043880D01*
X172807190Y-91472452D02*
X172854809Y-91424833D01*
X172950047Y-91377214D01*
X173092904Y-91377214D01*
X173188142Y-91424833D01*
X173235761Y-91520071D01*
X173235761Y-92043880D01*
X173569095Y-91377214D02*
X173950047Y-91377214D01*
X173711952Y-91043880D02*
X173711952Y-91901023D01*
X173759571Y-91996261D01*
X173854809Y-92043880D01*
X173950047Y-92043880D01*
X167733623Y-58935880D02*
X167400290Y-58459690D01*
X167162195Y-58935880D02*
X167162195Y-57935880D01*
X167543147Y-57935880D01*
X167638385Y-57983500D01*
X167686004Y-58031119D01*
X167733623Y-58126357D01*
X167733623Y-58269214D01*
X167686004Y-58364452D01*
X167638385Y-58412071D01*
X167543147Y-58459690D01*
X167162195Y-58459690D01*
X168624285Y-57935880D02*
X169195714Y-57935880D01*
X168910000Y-58935880D02*
X168910000Y-57935880D01*
X170568904Y-57983500D02*
X170473666Y-57935880D01*
X170330809Y-57935880D01*
X170187952Y-57983500D01*
X170092714Y-58078738D01*
X170045095Y-58173976D01*
X169997476Y-58364452D01*
X169997476Y-58507309D01*
X170045095Y-58697785D01*
X170092714Y-58793023D01*
X170187952Y-58888261D01*
X170330809Y-58935880D01*
X170426047Y-58935880D01*
X170568904Y-58888261D01*
X170616523Y-58840642D01*
X170616523Y-58507309D01*
X170426047Y-58507309D01*
X103352647Y-85593228D02*
X104114552Y-85593228D01*
X103733600Y-85974180D02*
X103733600Y-85212276D01*
X103314547Y-90812928D02*
X104076452Y-90812928D01*
X103695500Y-91193880D02*
X103695500Y-90431976D01*
X109891723Y-96264361D02*
X110034580Y-96311980D01*
X110272676Y-96311980D01*
X110367914Y-96264361D01*
X110415533Y-96216742D01*
X110463152Y-96121504D01*
X110463152Y-96026266D01*
X110415533Y-95931028D01*
X110367914Y-95883409D01*
X110272676Y-95835790D01*
X110082200Y-95788171D01*
X109986961Y-95740552D01*
X109939342Y-95692933D01*
X109891723Y-95597695D01*
X109891723Y-95502457D01*
X109939342Y-95407219D01*
X109986961Y-95359600D01*
X110082200Y-95311980D01*
X110320295Y-95311980D01*
X110463152Y-95359600D01*
X111463152Y-96216742D02*
X111415533Y-96264361D01*
X111272676Y-96311980D01*
X111177438Y-96311980D01*
X111034580Y-96264361D01*
X110939342Y-96169123D01*
X110891723Y-96073885D01*
X110844104Y-95883409D01*
X110844104Y-95740552D01*
X110891723Y-95550076D01*
X110939342Y-95454838D01*
X111034580Y-95359600D01*
X111177438Y-95311980D01*
X111272676Y-95311980D01*
X111415533Y-95359600D01*
X111463152Y-95407219D01*
X112367914Y-96311980D02*
X111891723Y-96311980D01*
X111891723Y-95311980D01*
X112701247Y-96311980D02*
X112701247Y-95311980D01*
X113272676Y-96311980D02*
X112844104Y-95740552D01*
X113272676Y-95311980D02*
X112701247Y-95883409D01*
X109959971Y-98928180D02*
X109959971Y-97928180D01*
X110293304Y-98642466D01*
X110626638Y-97928180D01*
X110626638Y-98928180D01*
X111102828Y-98928180D02*
X111102828Y-97928180D01*
X111531400Y-98880561D02*
X111674257Y-98928180D01*
X111912352Y-98928180D01*
X112007590Y-98880561D01*
X112055209Y-98832942D01*
X112102828Y-98737704D01*
X112102828Y-98642466D01*
X112055209Y-98547228D01*
X112007590Y-98499609D01*
X111912352Y-98451990D01*
X111721876Y-98404371D01*
X111626638Y-98356752D01*
X111579019Y-98309133D01*
X111531400Y-98213895D01*
X111531400Y-98118657D01*
X111579019Y-98023419D01*
X111626638Y-97975800D01*
X111721876Y-97928180D01*
X111959971Y-97928180D01*
X112102828Y-97975800D01*
X112721876Y-97928180D02*
X112912352Y-97928180D01*
X113007590Y-97975800D01*
X113102828Y-98071038D01*
X113150447Y-98261514D01*
X113150447Y-98594847D01*
X113102828Y-98785323D01*
X113007590Y-98880561D01*
X112912352Y-98928180D01*
X112721876Y-98928180D01*
X112626638Y-98880561D01*
X112531400Y-98785323D01*
X112483780Y-98594847D01*
X112483780Y-98261514D01*
X112531400Y-98071038D01*
X112626638Y-97975800D01*
X112721876Y-97928180D01*
X109855095Y-93797380D02*
X109855095Y-92797380D01*
X110426523Y-93797380D01*
X110426523Y-92797380D01*
X110807476Y-92797380D02*
X111474142Y-92797380D01*
X111045571Y-93797380D01*
X109918595Y-91257380D02*
X109918595Y-90257380D01*
X110490023Y-91257380D01*
X110490023Y-90257380D01*
X111394785Y-90257380D02*
X111204309Y-90257380D01*
X111109071Y-90305000D01*
X111061452Y-90352619D01*
X110966214Y-90495476D01*
X110918595Y-90685952D01*
X110918595Y-91066904D01*
X110966214Y-91162142D01*
X111013833Y-91209761D01*
X111109071Y-91257380D01*
X111299547Y-91257380D01*
X111394785Y-91209761D01*
X111442404Y-91162142D01*
X111490023Y-91066904D01*
X111490023Y-90828809D01*
X111442404Y-90733571D01*
X111394785Y-90685952D01*
X111299547Y-90638333D01*
X111109071Y-90638333D01*
X111013833Y-90685952D01*
X110966214Y-90733571D01*
X110918595Y-90828809D01*
X109918595Y-88717380D02*
X109918595Y-87717380D01*
X110490023Y-88717380D01*
X110490023Y-87717380D01*
X111442404Y-87717380D02*
X110966214Y-87717380D01*
X110918595Y-88193571D01*
X110966214Y-88145952D01*
X111061452Y-88098333D01*
X111299547Y-88098333D01*
X111394785Y-88145952D01*
X111442404Y-88193571D01*
X111490023Y-88288809D01*
X111490023Y-88526904D01*
X111442404Y-88622142D01*
X111394785Y-88669761D01*
X111299547Y-88717380D01*
X111061452Y-88717380D01*
X110966214Y-88669761D01*
X110918595Y-88622142D01*
X109982095Y-86113880D02*
X109982095Y-85113880D01*
X110553523Y-86113880D01*
X110553523Y-85113880D01*
X111458285Y-85447214D02*
X111458285Y-86113880D01*
X111220190Y-85066261D02*
X110982095Y-85780547D01*
X111601142Y-85780547D01*
X109982095Y-83637380D02*
X109982095Y-82637380D01*
X110553523Y-83637380D01*
X110553523Y-82637380D01*
X110934476Y-82637380D02*
X111553523Y-82637380D01*
X111220190Y-83018333D01*
X111363047Y-83018333D01*
X111458285Y-83065952D01*
X111505904Y-83113571D01*
X111553523Y-83208809D01*
X111553523Y-83446904D01*
X111505904Y-83542142D01*
X111458285Y-83589761D01*
X111363047Y-83637380D01*
X111077333Y-83637380D01*
X110982095Y-83589761D01*
X110934476Y-83542142D01*
X109982095Y-81033880D02*
X109982095Y-80033880D01*
X110553523Y-81033880D01*
X110553523Y-80033880D01*
X110982095Y-80129119D02*
X111029714Y-80081500D01*
X111124952Y-80033880D01*
X111363047Y-80033880D01*
X111458285Y-80081500D01*
X111505904Y-80129119D01*
X111553523Y-80224357D01*
X111553523Y-80319595D01*
X111505904Y-80462452D01*
X110934476Y-81033880D01*
X111553523Y-81033880D01*
X110045595Y-78557380D02*
X110045595Y-77557380D01*
X110617023Y-78557380D01*
X110617023Y-77557380D01*
X111617023Y-78557380D02*
X111045595Y-78557380D01*
X111331309Y-78557380D02*
X111331309Y-77557380D01*
X111236071Y-77700238D01*
X111140833Y-77795476D01*
X111045595Y-77843095D01*
X110045595Y-76017380D02*
X110045595Y-75017380D01*
X110617023Y-76017380D01*
X110617023Y-75017380D01*
X111283690Y-75017380D02*
X111378928Y-75017380D01*
X111474166Y-75065000D01*
X111521785Y-75112619D01*
X111569404Y-75207857D01*
X111617023Y-75398333D01*
X111617023Y-75636428D01*
X111569404Y-75826904D01*
X111521785Y-75922142D01*
X111474166Y-75969761D01*
X111378928Y-76017380D01*
X111283690Y-76017380D01*
X111188452Y-75969761D01*
X111140833Y-75922142D01*
X111093214Y-75826904D01*
X111045595Y-75636428D01*
X111045595Y-75398333D01*
X111093214Y-75207857D01*
X111140833Y-75112619D01*
X111188452Y-75065000D01*
X111283690Y-75017380D01*
X163068214Y-120229380D02*
X163068214Y-121038904D01*
X163115833Y-121134142D01*
X163163452Y-121181761D01*
X163258690Y-121229380D01*
X163449166Y-121229380D01*
X163544404Y-121181761D01*
X163592023Y-121134142D01*
X163639642Y-121038904D01*
X163639642Y-120229380D01*
X164068214Y-121181761D02*
X164211071Y-121229380D01*
X164449166Y-121229380D01*
X164544404Y-121181761D01*
X164592023Y-121134142D01*
X164639642Y-121038904D01*
X164639642Y-120943666D01*
X164592023Y-120848428D01*
X164544404Y-120800809D01*
X164449166Y-120753190D01*
X164258690Y-120705571D01*
X164163452Y-120657952D01*
X164115833Y-120610333D01*
X164068214Y-120515095D01*
X164068214Y-120419857D01*
X164115833Y-120324619D01*
X164163452Y-120277000D01*
X164258690Y-120229380D01*
X164496785Y-120229380D01*
X164639642Y-120277000D01*
X165068214Y-120705571D02*
X165401547Y-120705571D01*
X165544404Y-121229380D02*
X165068214Y-121229380D01*
X165068214Y-120229380D01*
X165544404Y-120229380D01*
X166544404Y-121229380D02*
X166211071Y-120753190D01*
X165972976Y-121229380D02*
X165972976Y-120229380D01*
X166353928Y-120229380D01*
X166449166Y-120277000D01*
X166496785Y-120324619D01*
X166544404Y-120419857D01*
X166544404Y-120562714D01*
X166496785Y-120657952D01*
X166449166Y-120705571D01*
X166353928Y-120753190D01*
X165972976Y-120753190D01*
X181094214Y-66762261D02*
X181237071Y-66809880D01*
X181475166Y-66809880D01*
X181570404Y-66762261D01*
X181618023Y-66714642D01*
X181665642Y-66619404D01*
X181665642Y-66524166D01*
X181618023Y-66428928D01*
X181570404Y-66381309D01*
X181475166Y-66333690D01*
X181284690Y-66286071D01*
X181189452Y-66238452D01*
X181141833Y-66190833D01*
X181094214Y-66095595D01*
X181094214Y-66000357D01*
X181141833Y-65905119D01*
X181189452Y-65857500D01*
X181284690Y-65809880D01*
X181522785Y-65809880D01*
X181665642Y-65857500D01*
X182094214Y-66809880D02*
X182094214Y-65809880D01*
X182332309Y-65809880D01*
X182475166Y-65857500D01*
X182570404Y-65952738D01*
X182618023Y-66047976D01*
X182665642Y-66238452D01*
X182665642Y-66381309D01*
X182618023Y-66571785D01*
X182570404Y-66667023D01*
X182475166Y-66762261D01*
X182332309Y-66809880D01*
X182094214Y-66809880D01*
X183046595Y-66524166D02*
X183522785Y-66524166D01*
X182951357Y-66809880D02*
X183284690Y-65809880D01*
X183618023Y-66809880D01*
X177435023Y-66762261D02*
X177577880Y-66809880D01*
X177815976Y-66809880D01*
X177911214Y-66762261D01*
X177958833Y-66714642D01*
X178006452Y-66619404D01*
X178006452Y-66524166D01*
X177958833Y-66428928D01*
X177911214Y-66381309D01*
X177815976Y-66333690D01*
X177625500Y-66286071D01*
X177530261Y-66238452D01*
X177482642Y-66190833D01*
X177435023Y-66095595D01*
X177435023Y-66000357D01*
X177482642Y-65905119D01*
X177530261Y-65857500D01*
X177625500Y-65809880D01*
X177863595Y-65809880D01*
X178006452Y-65857500D01*
X179006452Y-66714642D02*
X178958833Y-66762261D01*
X178815976Y-66809880D01*
X178720738Y-66809880D01*
X178577880Y-66762261D01*
X178482642Y-66667023D01*
X178435023Y-66571785D01*
X178387404Y-66381309D01*
X178387404Y-66238452D01*
X178435023Y-66047976D01*
X178482642Y-65952738D01*
X178577880Y-65857500D01*
X178720738Y-65809880D01*
X178815976Y-65809880D01*
X178958833Y-65857500D01*
X179006452Y-65905119D01*
X179911214Y-66809880D02*
X179435023Y-66809880D01*
X179435023Y-65809880D01*
X174180666Y-65809880D02*
X174514000Y-66809880D01*
X174847333Y-65809880D01*
X175752095Y-66714642D02*
X175704476Y-66762261D01*
X175561619Y-66809880D01*
X175466380Y-66809880D01*
X175323523Y-66762261D01*
X175228285Y-66667023D01*
X175180666Y-66571785D01*
X175133047Y-66381309D01*
X175133047Y-66238452D01*
X175180666Y-66047976D01*
X175228285Y-65952738D01*
X175323523Y-65857500D01*
X175466380Y-65809880D01*
X175561619Y-65809880D01*
X175704476Y-65857500D01*
X175752095Y-65905119D01*
X176752095Y-66714642D02*
X176704476Y-66762261D01*
X176561619Y-66809880D01*
X176466380Y-66809880D01*
X176323523Y-66762261D01*
X176228285Y-66667023D01*
X176180666Y-66571785D01*
X176133047Y-66381309D01*
X176133047Y-66238452D01*
X176180666Y-66047976D01*
X176228285Y-65952738D01*
X176323523Y-65857500D01*
X176466380Y-65809880D01*
X176561619Y-65809880D01*
X176704476Y-65857500D01*
X176752095Y-65905119D01*
X170878595Y-65857500D02*
X170783357Y-65809880D01*
X170640500Y-65809880D01*
X170497642Y-65857500D01*
X170402404Y-65952738D01*
X170354785Y-66047976D01*
X170307166Y-66238452D01*
X170307166Y-66381309D01*
X170354785Y-66571785D01*
X170402404Y-66667023D01*
X170497642Y-66762261D01*
X170640500Y-66809880D01*
X170735738Y-66809880D01*
X170878595Y-66762261D01*
X170926214Y-66714642D01*
X170926214Y-66381309D01*
X170735738Y-66381309D01*
X171354785Y-66809880D02*
X171354785Y-65809880D01*
X171926214Y-66809880D01*
X171926214Y-65809880D01*
X172402404Y-66809880D02*
X172402404Y-65809880D01*
X172640500Y-65809880D01*
X172783357Y-65857500D01*
X172878595Y-65952738D01*
X172926214Y-66047976D01*
X172973833Y-66238452D01*
X172973833Y-66381309D01*
X172926214Y-66571785D01*
X172878595Y-66667023D01*
X172783357Y-66762261D01*
X172640500Y-66809880D01*
X172402404Y-66809880D01*
X111347523Y-65222380D02*
X111014190Y-64746190D01*
X110776095Y-65222380D02*
X110776095Y-64222380D01*
X111157047Y-64222380D01*
X111252285Y-64270000D01*
X111299904Y-64317619D01*
X111347523Y-64412857D01*
X111347523Y-64555714D01*
X111299904Y-64650952D01*
X111252285Y-64698571D01*
X111157047Y-64746190D01*
X110776095Y-64746190D01*
X112204666Y-64555714D02*
X112204666Y-65222380D01*
X111776095Y-64555714D02*
X111776095Y-65079523D01*
X111823714Y-65174761D01*
X111918952Y-65222380D01*
X112061809Y-65222380D01*
X112157047Y-65174761D01*
X112204666Y-65127142D01*
X112680857Y-64555714D02*
X112680857Y-65222380D01*
X112680857Y-64650952D02*
X112728476Y-64603333D01*
X112823714Y-64555714D01*
X112966571Y-64555714D01*
X113061809Y-64603333D01*
X113109428Y-64698571D01*
X113109428Y-65222380D01*
X113585619Y-64555714D02*
X113585619Y-65222380D01*
X113585619Y-64650952D02*
X113633238Y-64603333D01*
X113728476Y-64555714D01*
X113871333Y-64555714D01*
X113966571Y-64603333D01*
X114014190Y-64698571D01*
X114014190Y-65222380D01*
X114490380Y-65222380D02*
X114490380Y-64555714D01*
X114490380Y-64222380D02*
X114442761Y-64270000D01*
X114490380Y-64317619D01*
X114538000Y-64270000D01*
X114490380Y-64222380D01*
X114490380Y-64317619D01*
X114966571Y-64555714D02*
X114966571Y-65222380D01*
X114966571Y-64650952D02*
X115014190Y-64603333D01*
X115109428Y-64555714D01*
X115252285Y-64555714D01*
X115347523Y-64603333D01*
X115395142Y-64698571D01*
X115395142Y-65222380D01*
X116299904Y-64555714D02*
X116299904Y-65365238D01*
X116252285Y-65460476D01*
X116204666Y-65508095D01*
X116109428Y-65555714D01*
X115966571Y-65555714D01*
X115871333Y-65508095D01*
X116299904Y-65174761D02*
X116204666Y-65222380D01*
X116014190Y-65222380D01*
X115918952Y-65174761D01*
X115871333Y-65127142D01*
X115823714Y-65031904D01*
X115823714Y-64746190D01*
X115871333Y-64650952D01*
X115918952Y-64603333D01*
X116014190Y-64555714D01*
X116204666Y-64555714D01*
X116299904Y-64603333D01*
D10*
X103822500Y-100139500D02*
X104140000Y-100139500D01*
X103886000Y-99822000D02*
X103886000Y-100139500D01*
X110109000Y-100139500D02*
X109664500Y-100139500D01*
X110109000Y-99695000D02*
X110109000Y-100203000D01*
X103886000Y-73660000D02*
X103886000Y-73850500D01*
X104076500Y-73660000D02*
X103886000Y-73660000D01*
D13*
X107569095Y-105237019D02*
X107616714Y-105189400D01*
X107711952Y-105141780D01*
X107950047Y-105141780D01*
X108045285Y-105189400D01*
X108092904Y-105237019D01*
X108140523Y-105332257D01*
X108140523Y-105427495D01*
X108092904Y-105570352D01*
X107521476Y-106141780D01*
X108140523Y-106141780D01*
X108997666Y-105475114D02*
X108997666Y-106141780D01*
X108759571Y-105094161D02*
X108521476Y-105808447D01*
X109140523Y-105808447D01*
X105016395Y-105224319D02*
X105064014Y-105176700D01*
X105159252Y-105129080D01*
X105397347Y-105129080D01*
X105492585Y-105176700D01*
X105540204Y-105224319D01*
X105587823Y-105319557D01*
X105587823Y-105414795D01*
X105540204Y-105557652D01*
X104968776Y-106129080D01*
X105587823Y-106129080D01*
X105921157Y-105129080D02*
X106540204Y-105129080D01*
X106206871Y-105510033D01*
X106349728Y-105510033D01*
X106444966Y-105557652D01*
X106492585Y-105605271D01*
X106540204Y-105700509D01*
X106540204Y-105938604D01*
X106492585Y-106033842D01*
X106444966Y-106081461D01*
X106349728Y-106129080D01*
X106064014Y-106129080D01*
X105968776Y-106081461D01*
X105921157Y-106033842D01*
X108108785Y-72382119D02*
X108156404Y-72334500D01*
X108251642Y-72286880D01*
X108489738Y-72286880D01*
X108584976Y-72334500D01*
X108632595Y-72382119D01*
X108680214Y-72477357D01*
X108680214Y-72572595D01*
X108632595Y-72715452D01*
X108061166Y-73286880D01*
X108680214Y-73286880D01*
X106140214Y-73350380D02*
X105568785Y-73350380D01*
X105854500Y-73350380D02*
X105854500Y-72350380D01*
X105759261Y-72493238D01*
X105664023Y-72588476D01*
X105568785Y-72636095D01*
X109066580Y-120645680D02*
X109066580Y-119645680D01*
X109399914Y-120359966D01*
X109733247Y-119645680D01*
X109733247Y-120645680D01*
X110114200Y-119645680D02*
X110733247Y-119645680D01*
X110399914Y-120026633D01*
X110542771Y-120026633D01*
X110638009Y-120074252D01*
X110685628Y-120121871D01*
X110733247Y-120217109D01*
X110733247Y-120455204D01*
X110685628Y-120550442D01*
X110638009Y-120598061D01*
X110542771Y-120645680D01*
X110257057Y-120645680D01*
X110161819Y-120598061D01*
X110114200Y-120550442D01*
X111923723Y-120645680D02*
X111923723Y-119645680D01*
X112257057Y-120359966D01*
X112590390Y-119645680D01*
X112590390Y-120645680D01*
X113209438Y-120645680D02*
X113114200Y-120598061D01*
X113066580Y-120550442D01*
X113018961Y-120455204D01*
X113018961Y-120169490D01*
X113066580Y-120074252D01*
X113114200Y-120026633D01*
X113209438Y-119979014D01*
X113352295Y-119979014D01*
X113447533Y-120026633D01*
X113495152Y-120074252D01*
X113542771Y-120169490D01*
X113542771Y-120455204D01*
X113495152Y-120550442D01*
X113447533Y-120598061D01*
X113352295Y-120645680D01*
X113209438Y-120645680D01*
X114399914Y-119979014D02*
X114399914Y-120645680D01*
X113971342Y-119979014D02*
X113971342Y-120502823D01*
X114018961Y-120598061D01*
X114114200Y-120645680D01*
X114257057Y-120645680D01*
X114352295Y-120598061D01*
X114399914Y-120550442D01*
X114876104Y-119979014D02*
X114876104Y-120645680D01*
X114876104Y-120074252D02*
X114923723Y-120026633D01*
X115018961Y-119979014D01*
X115161819Y-119979014D01*
X115257057Y-120026633D01*
X115304676Y-120121871D01*
X115304676Y-120645680D01*
X115638009Y-119979014D02*
X116018961Y-119979014D01*
X115780866Y-119645680D02*
X115780866Y-120502823D01*
X115828485Y-120598061D01*
X115923723Y-120645680D01*
X116018961Y-120645680D01*
X116352295Y-120645680D02*
X116352295Y-119979014D01*
X116352295Y-119645680D02*
X116304676Y-119693300D01*
X116352295Y-119740919D01*
X116399914Y-119693300D01*
X116352295Y-119645680D01*
X116352295Y-119740919D01*
X116828485Y-119979014D02*
X116828485Y-120645680D01*
X116828485Y-120074252D02*
X116876104Y-120026633D01*
X116971342Y-119979014D01*
X117114200Y-119979014D01*
X117209438Y-120026633D01*
X117257057Y-120121871D01*
X117257057Y-120645680D01*
X118161819Y-119979014D02*
X118161819Y-120788538D01*
X118114200Y-120883776D01*
X118066580Y-120931395D01*
X117971342Y-120979014D01*
X117828485Y-120979014D01*
X117733247Y-120931395D01*
X118161819Y-120598061D02*
X118066580Y-120645680D01*
X117876104Y-120645680D01*
X117780866Y-120598061D01*
X117733247Y-120550442D01*
X117685628Y-120455204D01*
X117685628Y-120169490D01*
X117733247Y-120074252D01*
X117780866Y-120026633D01*
X117876104Y-119979014D01*
X118066580Y-119979014D01*
X118161819Y-120026633D01*
X112185628Y-122295680D02*
X112185628Y-121295680D01*
X112185628Y-121771871D02*
X112757057Y-121771871D01*
X112757057Y-122295680D02*
X112757057Y-121295680D01*
X113376104Y-122295680D02*
X113280866Y-122248061D01*
X113233247Y-122200442D01*
X113185628Y-122105204D01*
X113185628Y-121819490D01*
X113233247Y-121724252D01*
X113280866Y-121676633D01*
X113376104Y-121629014D01*
X113518961Y-121629014D01*
X113614200Y-121676633D01*
X113661819Y-121724252D01*
X113709438Y-121819490D01*
X113709438Y-122105204D01*
X113661819Y-122200442D01*
X113614200Y-122248061D01*
X113518961Y-122295680D01*
X113376104Y-122295680D01*
X114280866Y-122295680D02*
X114185628Y-122248061D01*
X114138009Y-122152823D01*
X114138009Y-121295680D01*
X115042771Y-122248061D02*
X114947533Y-122295680D01*
X114757057Y-122295680D01*
X114661819Y-122248061D01*
X114614200Y-122152823D01*
X114614200Y-121771871D01*
X114661819Y-121676633D01*
X114757057Y-121629014D01*
X114947533Y-121629014D01*
X115042771Y-121676633D01*
X115090390Y-121771871D01*
X115090390Y-121867109D01*
X114614200Y-121962347D01*
D11*
X183681857Y-56964271D02*
X183824714Y-57011890D01*
X183872333Y-57059509D01*
X183919952Y-57154747D01*
X183919952Y-57297604D01*
X183872333Y-57392842D01*
X183824714Y-57440461D01*
X183729476Y-57488080D01*
X183348523Y-57488080D01*
X183348523Y-56488080D01*
X183681857Y-56488080D01*
X183777095Y-56535700D01*
X183824714Y-56583319D01*
X183872333Y-56678557D01*
X183872333Y-56773795D01*
X183824714Y-56869033D01*
X183777095Y-56916652D01*
X183681857Y-56964271D01*
X183348523Y-56964271D01*
X184539000Y-56488080D02*
X184729476Y-56488080D01*
X184824714Y-56535700D01*
X184919952Y-56630938D01*
X184967571Y-56821414D01*
X184967571Y-57154747D01*
X184919952Y-57345223D01*
X184824714Y-57440461D01*
X184729476Y-57488080D01*
X184539000Y-57488080D01*
X184443761Y-57440461D01*
X184348523Y-57345223D01*
X184300904Y-57154747D01*
X184300904Y-56821414D01*
X184348523Y-56630938D01*
X184443761Y-56535700D01*
X184539000Y-56488080D01*
X185586619Y-56488080D02*
X185777095Y-56488080D01*
X185872333Y-56535700D01*
X185967571Y-56630938D01*
X186015190Y-56821414D01*
X186015190Y-57154747D01*
X185967571Y-57345223D01*
X185872333Y-57440461D01*
X185777095Y-57488080D01*
X185586619Y-57488080D01*
X185491380Y-57440461D01*
X185396142Y-57345223D01*
X185348523Y-57154747D01*
X185348523Y-56821414D01*
X185396142Y-56630938D01*
X185491380Y-56535700D01*
X185586619Y-56488080D01*
X186300904Y-56488080D02*
X186872333Y-56488080D01*
X186586619Y-57488080D02*
X186586619Y-56488080D01*
X109647219Y-57754780D02*
X109313885Y-57278590D01*
X109075790Y-57754780D02*
X109075790Y-56754780D01*
X109456742Y-56754780D01*
X109551980Y-56802400D01*
X109599600Y-56850019D01*
X109647219Y-56945257D01*
X109647219Y-57088114D01*
X109599600Y-57183352D01*
X109551980Y-57230971D01*
X109456742Y-57278590D01*
X109075790Y-57278590D01*
X110075790Y-57230971D02*
X110409123Y-57230971D01*
X110551980Y-57754780D02*
X110075790Y-57754780D01*
X110075790Y-56754780D01*
X110551980Y-56754780D01*
X110932933Y-57707161D02*
X111075790Y-57754780D01*
X111313885Y-57754780D01*
X111409123Y-57707161D01*
X111456742Y-57659542D01*
X111504361Y-57564304D01*
X111504361Y-57469066D01*
X111456742Y-57373828D01*
X111409123Y-57326209D01*
X111313885Y-57278590D01*
X111123409Y-57230971D01*
X111028171Y-57183352D01*
X110980552Y-57135733D01*
X110932933Y-57040495D01*
X110932933Y-56945257D01*
X110980552Y-56850019D01*
X111028171Y-56802400D01*
X111123409Y-56754780D01*
X111361504Y-56754780D01*
X111504361Y-56802400D01*
X111932933Y-57230971D02*
X112266266Y-57230971D01*
X112409123Y-57754780D02*
X111932933Y-57754780D01*
X111932933Y-56754780D01*
X112409123Y-56754780D01*
X112694838Y-56754780D02*
X113266266Y-56754780D01*
X112980552Y-57754780D02*
X112980552Y-56754780D01*
D10*
X104410200Y-104796900D02*
X109610200Y-104796900D01*
X104410200Y-76796900D02*
X104410200Y-104796900D01*
X109610200Y-74196900D02*
X109610200Y-104796900D01*
X104410200Y-76796900D02*
X107010200Y-76796900D01*
X107010200Y-76796900D02*
X107010200Y-74196900D01*
X107010200Y-74196900D02*
X109610200Y-74196900D01*
X104410200Y-75526900D02*
X104410200Y-74196900D01*
X104410200Y-74196900D02*
X105740200Y-74196900D01*
X131142700Y-60581500D02*
X133042700Y-60581500D01*
X133042700Y-60581500D02*
X133042700Y-62481500D01*
X133042700Y-62481500D02*
X131142700Y-62481500D01*
X131142700Y-62481500D02*
X131142700Y-60581500D01*
X172925000Y-112703842D02*
X172925000Y-113178358D01*
X171880000Y-112703842D02*
X171880000Y-113178358D01*
X176286900Y-113216458D02*
X176286900Y-112741942D01*
X177331900Y-113216458D02*
X177331900Y-112741942D01*
X186440042Y-112075700D02*
X186914558Y-112075700D01*
X186440042Y-113120700D02*
X186914558Y-113120700D01*
X186602900Y-114659642D02*
X186602900Y-115134158D01*
X185557900Y-114659642D02*
X185557900Y-115134158D01*
X122507700Y-60569800D02*
X122507700Y-63229800D01*
X127647700Y-60569800D02*
X122507700Y-60569800D01*
X127647700Y-63229800D02*
X122507700Y-63229800D01*
X127647700Y-60569800D02*
X127647700Y-63229800D01*
X128917700Y-60569800D02*
X130247700Y-60569800D01*
X130247700Y-60569800D02*
X130247700Y-61899800D01*
X128169000Y-57743500D02*
X129859000Y-57743500D01*
X129859000Y-57743500D02*
X129859000Y-57303500D01*
X124449000Y-57743500D02*
X122759000Y-57743500D01*
X122759000Y-57743500D02*
X122759000Y-57303500D01*
X129859000Y-54583500D02*
X129859000Y-54143500D01*
X129859000Y-54143500D02*
X122759000Y-54143500D01*
X122759000Y-54143500D02*
X122759000Y-54583500D01*
X128169000Y-57743500D02*
X128169000Y-59543500D01*
X173876580Y-72328500D02*
X173595420Y-72328500D01*
X173876580Y-71308500D02*
X173595420Y-71308500D01*
X133988436Y-89879500D02*
X134442564Y-89879500D01*
X133988436Y-91349500D02*
X134442564Y-91349500D01*
X131628000Y-92618500D02*
G75*
G03*
X131628000Y-92618500I-4120000J0D01*
G01*
X131588000Y-92618500D02*
X123428000Y-92618500D01*
X131588000Y-92658500D02*
X123428000Y-92658500D01*
X131588000Y-92698500D02*
X123428000Y-92698500D01*
X131587000Y-92738500D02*
X123429000Y-92738500D01*
X131585000Y-92778500D02*
X123431000Y-92778500D01*
X131584000Y-92818500D02*
X123432000Y-92818500D01*
X131582000Y-92858500D02*
X123434000Y-92858500D01*
X131579000Y-92898500D02*
X123437000Y-92898500D01*
X131576000Y-92938500D02*
X123440000Y-92938500D01*
X131573000Y-92978500D02*
X123443000Y-92978500D01*
X131569000Y-93018500D02*
X123447000Y-93018500D01*
X131565000Y-93058500D02*
X123451000Y-93058500D01*
X131560000Y-93098500D02*
X123456000Y-93098500D01*
X131556000Y-93138500D02*
X123460000Y-93138500D01*
X131550000Y-93178500D02*
X123466000Y-93178500D01*
X131545000Y-93218500D02*
X123471000Y-93218500D01*
X131538000Y-93258500D02*
X123478000Y-93258500D01*
X131532000Y-93298500D02*
X123484000Y-93298500D01*
X131525000Y-93339500D02*
X128548000Y-93339500D01*
X126468000Y-93339500D02*
X123491000Y-93339500D01*
X131518000Y-93379500D02*
X128548000Y-93379500D01*
X126468000Y-93379500D02*
X123498000Y-93379500D01*
X131510000Y-93419500D02*
X128548000Y-93419500D01*
X126468000Y-93419500D02*
X123506000Y-93419500D01*
X131502000Y-93459500D02*
X128548000Y-93459500D01*
X126468000Y-93459500D02*
X123514000Y-93459500D01*
X131493000Y-93499500D02*
X128548000Y-93499500D01*
X126468000Y-93499500D02*
X123523000Y-93499500D01*
X131484000Y-93539500D02*
X128548000Y-93539500D01*
X126468000Y-93539500D02*
X123532000Y-93539500D01*
X131475000Y-93579500D02*
X128548000Y-93579500D01*
X126468000Y-93579500D02*
X123541000Y-93579500D01*
X131465000Y-93619500D02*
X128548000Y-93619500D01*
X126468000Y-93619500D02*
X123551000Y-93619500D01*
X131455000Y-93659500D02*
X128548000Y-93659500D01*
X126468000Y-93659500D02*
X123561000Y-93659500D01*
X131444000Y-93699500D02*
X128548000Y-93699500D01*
X126468000Y-93699500D02*
X123572000Y-93699500D01*
X131433000Y-93739500D02*
X128548000Y-93739500D01*
X126468000Y-93739500D02*
X123583000Y-93739500D01*
X131422000Y-93779500D02*
X128548000Y-93779500D01*
X126468000Y-93779500D02*
X123594000Y-93779500D01*
X131410000Y-93819500D02*
X128548000Y-93819500D01*
X126468000Y-93819500D02*
X123606000Y-93819500D01*
X131397000Y-93859500D02*
X128548000Y-93859500D01*
X126468000Y-93859500D02*
X123619000Y-93859500D01*
X131385000Y-93899500D02*
X128548000Y-93899500D01*
X126468000Y-93899500D02*
X123631000Y-93899500D01*
X131371000Y-93939500D02*
X128548000Y-93939500D01*
X126468000Y-93939500D02*
X123645000Y-93939500D01*
X131358000Y-93979500D02*
X128548000Y-93979500D01*
X126468000Y-93979500D02*
X123658000Y-93979500D01*
X131343000Y-94019500D02*
X128548000Y-94019500D01*
X126468000Y-94019500D02*
X123673000Y-94019500D01*
X131329000Y-94059500D02*
X128548000Y-94059500D01*
X126468000Y-94059500D02*
X123687000Y-94059500D01*
X131313000Y-94099500D02*
X128548000Y-94099500D01*
X126468000Y-94099500D02*
X123703000Y-94099500D01*
X131298000Y-94139500D02*
X128548000Y-94139500D01*
X126468000Y-94139500D02*
X123718000Y-94139500D01*
X131282000Y-94179500D02*
X128548000Y-94179500D01*
X126468000Y-94179500D02*
X123734000Y-94179500D01*
X131265000Y-94219500D02*
X128548000Y-94219500D01*
X126468000Y-94219500D02*
X123751000Y-94219500D01*
X131248000Y-94259500D02*
X128548000Y-94259500D01*
X126468000Y-94259500D02*
X123768000Y-94259500D01*
X131230000Y-94299500D02*
X128548000Y-94299500D01*
X126468000Y-94299500D02*
X123786000Y-94299500D01*
X131212000Y-94339500D02*
X128548000Y-94339500D01*
X126468000Y-94339500D02*
X123804000Y-94339500D01*
X131194000Y-94379500D02*
X128548000Y-94379500D01*
X126468000Y-94379500D02*
X123822000Y-94379500D01*
X131174000Y-94419500D02*
X128548000Y-94419500D01*
X126468000Y-94419500D02*
X123842000Y-94419500D01*
X131155000Y-94459500D02*
X128548000Y-94459500D01*
X126468000Y-94459500D02*
X123861000Y-94459500D01*
X131135000Y-94499500D02*
X128548000Y-94499500D01*
X126468000Y-94499500D02*
X123881000Y-94499500D01*
X131114000Y-94539500D02*
X128548000Y-94539500D01*
X126468000Y-94539500D02*
X123902000Y-94539500D01*
X131092000Y-94579500D02*
X128548000Y-94579500D01*
X126468000Y-94579500D02*
X123924000Y-94579500D01*
X131070000Y-94619500D02*
X128548000Y-94619500D01*
X126468000Y-94619500D02*
X123946000Y-94619500D01*
X131048000Y-94659500D02*
X128548000Y-94659500D01*
X126468000Y-94659500D02*
X123968000Y-94659500D01*
X131025000Y-94699500D02*
X128548000Y-94699500D01*
X126468000Y-94699500D02*
X123991000Y-94699500D01*
X131001000Y-94739500D02*
X128548000Y-94739500D01*
X126468000Y-94739500D02*
X124015000Y-94739500D01*
X130977000Y-94779500D02*
X128548000Y-94779500D01*
X126468000Y-94779500D02*
X124039000Y-94779500D01*
X130952000Y-94819500D02*
X128548000Y-94819500D01*
X126468000Y-94819500D02*
X124064000Y-94819500D01*
X130926000Y-94859500D02*
X128548000Y-94859500D01*
X126468000Y-94859500D02*
X124090000Y-94859500D01*
X130900000Y-94899500D02*
X128548000Y-94899500D01*
X126468000Y-94899500D02*
X124116000Y-94899500D01*
X130873000Y-94939500D02*
X128548000Y-94939500D01*
X126468000Y-94939500D02*
X124143000Y-94939500D01*
X130846000Y-94979500D02*
X128548000Y-94979500D01*
X126468000Y-94979500D02*
X124170000Y-94979500D01*
X130817000Y-95019500D02*
X128548000Y-95019500D01*
X126468000Y-95019500D02*
X124199000Y-95019500D01*
X130788000Y-95059500D02*
X128548000Y-95059500D01*
X126468000Y-95059500D02*
X124228000Y-95059500D01*
X130758000Y-95099500D02*
X128548000Y-95099500D01*
X126468000Y-95099500D02*
X124258000Y-95099500D01*
X130728000Y-95139500D02*
X128548000Y-95139500D01*
X126468000Y-95139500D02*
X124288000Y-95139500D01*
X130697000Y-95179500D02*
X128548000Y-95179500D01*
X126468000Y-95179500D02*
X124319000Y-95179500D01*
X130664000Y-95219500D02*
X128548000Y-95219500D01*
X126468000Y-95219500D02*
X124352000Y-95219500D01*
X130632000Y-95259500D02*
X128548000Y-95259500D01*
X126468000Y-95259500D02*
X124384000Y-95259500D01*
X130598000Y-95299500D02*
X128548000Y-95299500D01*
X126468000Y-95299500D02*
X124418000Y-95299500D01*
X130563000Y-95339500D02*
X128548000Y-95339500D01*
X126468000Y-95339500D02*
X124453000Y-95339500D01*
X130527000Y-95379500D02*
X128548000Y-95379500D01*
X126468000Y-95379500D02*
X124489000Y-95379500D01*
X130491000Y-95419500D02*
X124525000Y-95419500D01*
X130453000Y-95459500D02*
X124563000Y-95459500D01*
X130415000Y-95499500D02*
X124601000Y-95499500D01*
X130375000Y-95539500D02*
X124641000Y-95539500D01*
X130334000Y-95579500D02*
X124682000Y-95579500D01*
X130292000Y-95619500D02*
X124724000Y-95619500D01*
X130249000Y-95659500D02*
X124767000Y-95659500D01*
X130205000Y-95699500D02*
X124811000Y-95699500D01*
X130159000Y-95739500D02*
X124857000Y-95739500D01*
X130112000Y-95779500D02*
X124904000Y-95779500D01*
X130064000Y-95819500D02*
X124952000Y-95819500D01*
X130013000Y-95859500D02*
X125003000Y-95859500D01*
X129962000Y-95899500D02*
X125054000Y-95899500D01*
X129908000Y-95939500D02*
X125108000Y-95939500D01*
X129853000Y-95979500D02*
X125163000Y-95979500D01*
X129795000Y-96019500D02*
X125221000Y-96019500D01*
X129736000Y-96059500D02*
X125280000Y-96059500D01*
X129674000Y-96099500D02*
X125342000Y-96099500D01*
X129610000Y-96139500D02*
X125406000Y-96139500D01*
X129542000Y-96179500D02*
X125474000Y-96179500D01*
X129472000Y-96219500D02*
X125544000Y-96219500D01*
X129398000Y-96259500D02*
X125618000Y-96259500D01*
X129321000Y-96299500D02*
X125695000Y-96299500D01*
X129239000Y-96339500D02*
X125777000Y-96339500D01*
X129153000Y-96379500D02*
X125863000Y-96379500D01*
X129060000Y-96419500D02*
X125956000Y-96419500D01*
X128961000Y-96459500D02*
X126055000Y-96459500D01*
X128854000Y-96499500D02*
X126162000Y-96499500D01*
X128737000Y-96539500D02*
X126279000Y-96539500D01*
X128606000Y-96579500D02*
X126410000Y-96579500D01*
X128456000Y-96619500D02*
X126560000Y-96619500D01*
X128276000Y-96659500D02*
X126740000Y-96659500D01*
X128041000Y-96699500D02*
X126975000Y-96699500D01*
X129823000Y-88208802D02*
X129823000Y-89008802D01*
X130223000Y-88608802D02*
X129423000Y-88608802D01*
X132395500Y-93435080D02*
X132395500Y-93153920D01*
X133415500Y-93435080D02*
X133415500Y-93153920D01*
X135955500Y-93127920D02*
X135955500Y-93409080D01*
X134935500Y-93127920D02*
X134935500Y-93409080D01*
X136650000Y-93371580D02*
X136650000Y-93090420D01*
X137670000Y-93371580D02*
X137670000Y-93090420D01*
X162383499Y-119376000D02*
X161893499Y-118886000D01*
X162383499Y-122276000D02*
X162383499Y-119376000D01*
X162383499Y-122276000D02*
X161893499Y-122766000D01*
X156943499Y-122276000D02*
X156943499Y-119376000D01*
X156943499Y-122276000D02*
X157433499Y-122766000D01*
X160703499Y-118106000D02*
X158623499Y-118106000D01*
X156943499Y-119376000D02*
X157433499Y-118886000D01*
X160703499Y-123546000D02*
X158623499Y-123546000D01*
X155052500Y-119905242D02*
X155052500Y-120379758D01*
X156097500Y-119905242D02*
X156097500Y-120379758D01*
X156085000Y-123534080D02*
X156085000Y-123252920D01*
X155065000Y-123534080D02*
X155065000Y-123252920D01*
X179595242Y-72341000D02*
X180069758Y-72341000D01*
X179595242Y-71296000D02*
X180069758Y-71296000D01*
X176958258Y-71296000D02*
X176483742Y-71296000D01*
X176958258Y-72341000D02*
X176483742Y-72341000D01*
X138630204Y-56560179D02*
X138630204Y-56279019D01*
X137610204Y-56560179D02*
X137610204Y-56279019D01*
X136022703Y-56253019D02*
X136022703Y-56534179D01*
X137042703Y-56253019D02*
X137042703Y-56534179D01*
X173446401Y-112274203D02*
X173446401Y-113674203D01*
X175766401Y-113674203D02*
X175766401Y-111774203D01*
X176946795Y-109017401D02*
X177671795Y-109017401D01*
X172451795Y-103797401D02*
X172451795Y-104522401D01*
X173176795Y-103797401D02*
X172451795Y-103797401D01*
X177671795Y-103797401D02*
X177671795Y-104522401D01*
X176946795Y-103797401D02*
X177671795Y-103797401D01*
X172451795Y-109017401D02*
X172451795Y-108292401D01*
X173176795Y-109017401D02*
X172451795Y-109017401D01*
X140089000Y-54492500D02*
X139709000Y-54492500D01*
X140089000Y-48072500D02*
X140089000Y-54492500D01*
X158329000Y-48072500D02*
X158329000Y-54492500D01*
X140089000Y-48072500D02*
X158329000Y-48072500D01*
X158329000Y-73817500D02*
X157329000Y-73817500D01*
X158329000Y-73037500D02*
X158329000Y-73817500D01*
X140089000Y-73817500D02*
X141089000Y-73817500D01*
X140089000Y-73037500D02*
X140089000Y-73817500D01*
X118991684Y-55852644D02*
X118991684Y-55652644D01*
X118991684Y-55652644D02*
X113991684Y-55652644D01*
X113991684Y-55652644D02*
X113991684Y-55852644D01*
X113991684Y-58452644D02*
X113991684Y-58652644D01*
X113991684Y-58652644D02*
X118991684Y-58652644D01*
X118991684Y-58652644D02*
X118991684Y-58452644D01*
X177058204Y-58288099D02*
X177058204Y-58488099D01*
X177058204Y-58488099D02*
X182058204Y-58488099D01*
X182058204Y-58488099D02*
X182058204Y-58288099D01*
X182058204Y-55688099D02*
X182058204Y-55488099D01*
X182058204Y-55488099D02*
X177058204Y-55488099D01*
X177058204Y-55488099D02*
X177058204Y-55688099D01*
X143827204Y-116167099D02*
G75*
G03*
X143827204Y-116167099I-3000000J0D01*
G01*
X146727204Y-118167099D02*
X146727204Y-122267099D01*
X134927204Y-122267099D02*
X134927204Y-118167099D01*
X134927204Y-114167099D02*
X134927204Y-110067099D01*
X146727204Y-114167099D02*
X146727204Y-110067099D01*
X146727204Y-110067099D02*
X134927204Y-110067099D01*
X144627204Y-108667099D02*
X144927204Y-108367099D01*
X144927204Y-108367099D02*
X144927204Y-108967099D01*
X144927204Y-108967099D02*
X144627204Y-108667099D01*
X146727204Y-122267099D02*
X144327204Y-122267099D01*
X142127204Y-122267099D02*
X139527204Y-122267099D01*
X137327204Y-122267099D02*
X134927204Y-122267099D01*
X141327204Y-116167099D02*
X140327204Y-116167099D01*
X140827204Y-115667099D02*
X140827204Y-116667099D01*
X191309258Y-105586000D02*
X190834742Y-105586000D01*
X191309258Y-106631000D02*
X190834742Y-106631000D01*
X110927705Y-107033340D02*
X110927705Y-107507856D01*
X111972705Y-107033340D02*
X111972705Y-107507856D01*
X117052705Y-107633856D02*
X117052705Y-107159340D01*
X116007705Y-107633856D02*
X116007705Y-107159340D01*
X119276800Y-111544464D02*
X119276800Y-111090336D01*
X117806800Y-111544464D02*
X117806800Y-111090336D01*
X118252943Y-59233644D02*
X117778427Y-59233644D01*
X118252943Y-60278644D02*
X117778427Y-60278644D01*
X108703462Y-64139099D02*
X108228946Y-64139099D01*
X108703462Y-65184099D02*
X108228946Y-65184099D01*
X177824445Y-60040599D02*
X178298961Y-60040599D01*
X177824445Y-58995599D02*
X178298961Y-58995599D01*
X149210500Y-117809742D02*
X149210500Y-118284258D01*
X150255500Y-117809742D02*
X150255500Y-118284258D01*
X142454947Y-106522599D02*
X142929463Y-106522599D01*
X142454947Y-105477599D02*
X142929463Y-105477599D01*
X139500462Y-105477599D02*
X139025946Y-105477599D01*
X139500462Y-106522599D02*
X139025946Y-106522599D01*
X114750204Y-108786599D02*
X113290204Y-108786599D01*
X114750204Y-105626599D02*
X112590204Y-105626599D01*
X114750204Y-105626599D02*
X114750204Y-106556599D01*
X114750204Y-108786599D02*
X114750204Y-107856599D01*
X190449295Y-112850401D02*
X189999295Y-113250401D01*
X189999295Y-113250401D02*
X189999295Y-112450401D01*
X189999295Y-112450401D02*
X190449295Y-112850401D01*
X196049295Y-107700401D02*
X193249295Y-107700401D01*
X193249295Y-107700401D02*
X193249295Y-107400401D01*
X193249295Y-107400401D02*
X191699295Y-107400401D01*
X196049295Y-115400401D02*
X193249295Y-115400401D01*
X193249295Y-115700401D02*
X193249295Y-115400401D01*
X193249295Y-115700401D02*
X191699295Y-115700401D01*
X171707500Y-70246099D02*
X171707500Y-68916099D01*
X173037500Y-70246099D02*
X171707500Y-70246099D01*
X174307500Y-70246099D02*
X174307500Y-67586099D01*
X174307500Y-67586099D02*
X181987500Y-67586099D01*
X174307500Y-70246099D02*
X181987500Y-70246099D01*
X181987500Y-70246099D02*
X181987500Y-67586099D01*
X171003500Y-55151000D02*
X171003500Y-56261000D01*
X170243500Y-55151000D02*
X171003500Y-55151000D01*
X169483500Y-56824471D02*
X169483500Y-57371000D01*
X169483500Y-55151000D02*
X169483500Y-55697529D01*
X169483500Y-57371000D02*
X167008500Y-57371000D01*
X169483500Y-55151000D02*
X167008500Y-55151000D01*
X167008500Y-56568530D02*
X167008500Y-57371000D01*
X167008500Y-55151000D02*
X167008500Y-55953470D01*
X188326044Y-115143400D02*
X188848548Y-115143400D01*
X188326044Y-113673400D02*
X188848548Y-113673400D01*
X184961500Y-110640500D02*
X187911500Y-110640500D01*
X187361500Y-107540500D02*
X184961500Y-107540500D01*
X117581800Y-113023699D02*
X117581800Y-115708699D01*
X119501800Y-113023699D02*
X117581800Y-113023699D01*
X119501800Y-115708699D02*
X119501800Y-113023699D01*
X103932704Y-65396599D02*
X106217704Y-65396599D01*
X103932704Y-63926599D02*
X103932704Y-65396599D01*
X106217704Y-63926599D02*
X103932704Y-63926599D01*
X111004200Y-71736600D02*
X111004200Y-70586600D01*
X103704200Y-71736600D02*
X111004200Y-71736600D01*
X103704200Y-66236600D02*
X111004200Y-66236600D01*
X194247080Y-105598500D02*
X193965920Y-105598500D01*
X194247080Y-106618500D02*
X193965920Y-106618500D01*
X175569217Y-100821401D02*
X175850377Y-100821401D01*
X175569217Y-99801401D02*
X175850377Y-99801401D01*
X180774795Y-106063321D02*
X180774795Y-106344481D01*
X181794795Y-106063321D02*
X181794795Y-106344481D01*
X175556216Y-102345401D02*
X175837376Y-102345401D01*
X175556216Y-101325401D02*
X175837376Y-101325401D01*
X179250797Y-106076322D02*
X179250797Y-106357482D01*
X180270797Y-106076322D02*
X180270797Y-106357482D01*
X135789580Y-62799500D02*
X135508420Y-62799500D01*
X135789580Y-63819500D02*
X135508420Y-63819500D01*
X114827103Y-60266144D02*
X115108263Y-60266144D01*
X114827103Y-59246144D02*
X115108263Y-59246144D01*
X181250283Y-59008098D02*
X180969123Y-59008098D01*
X181250283Y-60028098D02*
X180969123Y-60028098D01*
X135726080Y-58926000D02*
X135444920Y-58926000D01*
X135726080Y-59946000D02*
X135444920Y-59946000D01*
X135482420Y-61470000D02*
X135763580Y-61470000D01*
X135482420Y-60450000D02*
X135763580Y-60450000D01*
X116787000Y-110191000D02*
X112317000Y-110191000D01*
X116787000Y-115591000D02*
X116787000Y-110191000D01*
X111357000Y-115591000D02*
X116787000Y-115591000D01*
X111357000Y-111151000D02*
X111357000Y-115591000D01*
X111357000Y-111151000D02*
X112317000Y-110191000D01*
D13*
X114097000Y-116001000D02*
X114667000Y-116001000D01*
X114387000Y-116311000D02*
X114387000Y-115701000D01*
X114477000Y-109981000D02*
X114477000Y-109511000D01*
X103120866Y-103732080D02*
X103120866Y-104446366D01*
X103073247Y-104589223D01*
X102978009Y-104684461D01*
X102835152Y-104732080D01*
X102739914Y-104732080D01*
X104073247Y-103732080D02*
X103597057Y-103732080D01*
X103549438Y-104208271D01*
X103597057Y-104160652D01*
X103692295Y-104113033D01*
X103930390Y-104113033D01*
X104025628Y-104160652D01*
X104073247Y-104208271D01*
X104120866Y-104303509D01*
X104120866Y-104541604D01*
X104073247Y-104636842D01*
X104025628Y-104684461D01*
X103930390Y-104732080D01*
X103692295Y-104732080D01*
X103597057Y-104684461D01*
X103549438Y-104636842D01*
X130360895Y-59358280D02*
X130932323Y-59358280D01*
X130646609Y-60358280D02*
X130646609Y-59358280D01*
X131265657Y-60358280D02*
X131265657Y-59358280D01*
X131646609Y-59358280D01*
X131741847Y-59405900D01*
X131789466Y-59453519D01*
X131837085Y-59548757D01*
X131837085Y-59691614D01*
X131789466Y-59786852D01*
X131741847Y-59834471D01*
X131646609Y-59882090D01*
X131265657Y-59882090D01*
X132789466Y-60358280D02*
X132218038Y-60358280D01*
X132503752Y-60358280D02*
X132503752Y-59358280D01*
X132408514Y-59501138D01*
X132313276Y-59596376D01*
X132218038Y-59643995D01*
X169575242Y-114168180D02*
X169241909Y-113691990D01*
X169003814Y-114168180D02*
X169003814Y-113168180D01*
X169384766Y-113168180D01*
X169480004Y-113215800D01*
X169527623Y-113263419D01*
X169575242Y-113358657D01*
X169575242Y-113501514D01*
X169527623Y-113596752D01*
X169480004Y-113644371D01*
X169384766Y-113691990D01*
X169003814Y-113691990D01*
X170527623Y-114168180D02*
X169956195Y-114168180D01*
X170241909Y-114168180D02*
X170241909Y-113168180D01*
X170146671Y-113311038D01*
X170051433Y-113406276D01*
X169956195Y-113453895D01*
X170860957Y-113168180D02*
X171527623Y-113168180D01*
X171099052Y-114168180D01*
X178287442Y-114485680D02*
X177954109Y-114009490D01*
X177716014Y-114485680D02*
X177716014Y-113485680D01*
X178096966Y-113485680D01*
X178192204Y-113533300D01*
X178239823Y-113580919D01*
X178287442Y-113676157D01*
X178287442Y-113819014D01*
X178239823Y-113914252D01*
X178192204Y-113961871D01*
X178096966Y-114009490D01*
X177716014Y-114009490D01*
X179239823Y-114485680D02*
X178668395Y-114485680D01*
X178954109Y-114485680D02*
X178954109Y-113485680D01*
X178858871Y-113628538D01*
X178763633Y-113723776D01*
X178668395Y-113771395D01*
X180144585Y-113485680D02*
X179668395Y-113485680D01*
X179620776Y-113961871D01*
X179668395Y-113914252D01*
X179763633Y-113866633D01*
X180001728Y-113866633D01*
X180096966Y-113914252D01*
X180144585Y-113961871D01*
X180192204Y-114057109D01*
X180192204Y-114295204D01*
X180144585Y-114390442D01*
X180096966Y-114438061D01*
X180001728Y-114485680D01*
X179763633Y-114485680D01*
X179668395Y-114438061D01*
X179620776Y-114390442D01*
X183088042Y-113088680D02*
X182754709Y-112612490D01*
X182516614Y-113088680D02*
X182516614Y-112088680D01*
X182897566Y-112088680D01*
X182992804Y-112136300D01*
X183040423Y-112183919D01*
X183088042Y-112279157D01*
X183088042Y-112422014D01*
X183040423Y-112517252D01*
X182992804Y-112564871D01*
X182897566Y-112612490D01*
X182516614Y-112612490D01*
X184040423Y-113088680D02*
X183468995Y-113088680D01*
X183754709Y-113088680D02*
X183754709Y-112088680D01*
X183659471Y-112231538D01*
X183564233Y-112326776D01*
X183468995Y-112374395D01*
X184897566Y-112422014D02*
X184897566Y-113088680D01*
X184659471Y-112041061D02*
X184421376Y-112755347D01*
X185040423Y-112755347D01*
X183291242Y-115285780D02*
X182957909Y-114809590D01*
X182719814Y-115285780D02*
X182719814Y-114285780D01*
X183100766Y-114285780D01*
X183196004Y-114333400D01*
X183243623Y-114381019D01*
X183291242Y-114476257D01*
X183291242Y-114619114D01*
X183243623Y-114714352D01*
X183196004Y-114761971D01*
X183100766Y-114809590D01*
X182719814Y-114809590D01*
X184243623Y-115285780D02*
X183672195Y-115285780D01*
X183957909Y-115285780D02*
X183957909Y-114285780D01*
X183862671Y-114428638D01*
X183767433Y-114523876D01*
X183672195Y-114571495D01*
X184576957Y-114285780D02*
X185196004Y-114285780D01*
X184862671Y-114666733D01*
X185005528Y-114666733D01*
X185100766Y-114714352D01*
X185148385Y-114761971D01*
X185196004Y-114857209D01*
X185196004Y-115095304D01*
X185148385Y-115190542D01*
X185100766Y-115238161D01*
X185005528Y-115285780D01*
X184719814Y-115285780D01*
X184624576Y-115238161D01*
X184576957Y-115190542D01*
X121142166Y-61072780D02*
X121142166Y-61787066D01*
X121094547Y-61929923D01*
X120999309Y-62025161D01*
X120856452Y-62072780D01*
X120761214Y-62072780D01*
X121523119Y-61072780D02*
X122142166Y-61072780D01*
X121808833Y-61453733D01*
X121951690Y-61453733D01*
X122046928Y-61501352D01*
X122094547Y-61548971D01*
X122142166Y-61644209D01*
X122142166Y-61882304D01*
X122094547Y-61977542D01*
X122046928Y-62025161D01*
X121951690Y-62072780D01*
X121665976Y-62072780D01*
X121570738Y-62025161D01*
X121523119Y-61977542D01*
X131619666Y-55624480D02*
X131619666Y-56338766D01*
X131572047Y-56481623D01*
X131476809Y-56576861D01*
X131333952Y-56624480D01*
X131238714Y-56624480D01*
X132048238Y-55719719D02*
X132095857Y-55672100D01*
X132191095Y-55624480D01*
X132429190Y-55624480D01*
X132524428Y-55672100D01*
X132572047Y-55719719D01*
X132619666Y-55814957D01*
X132619666Y-55910195D01*
X132572047Y-56053052D01*
X132000619Y-56624480D01*
X132619666Y-56624480D01*
X172489833Y-73636142D02*
X172442214Y-73683761D01*
X172299357Y-73731380D01*
X172204119Y-73731380D01*
X172061261Y-73683761D01*
X171966023Y-73588523D01*
X171918404Y-73493285D01*
X171870785Y-73302809D01*
X171870785Y-73159952D01*
X171918404Y-72969476D01*
X171966023Y-72874238D01*
X172061261Y-72779000D01*
X172204119Y-72731380D01*
X172299357Y-72731380D01*
X172442214Y-72779000D01*
X172489833Y-72826619D01*
X172823166Y-72731380D02*
X173442214Y-72731380D01*
X173108880Y-73112333D01*
X173251738Y-73112333D01*
X173346976Y-73159952D01*
X173394595Y-73207571D01*
X173442214Y-73302809D01*
X173442214Y-73540904D01*
X173394595Y-73636142D01*
X173346976Y-73683761D01*
X173251738Y-73731380D01*
X172966023Y-73731380D01*
X172870785Y-73683761D01*
X172823166Y-73636142D01*
X133382166Y-88893071D02*
X133048833Y-88893071D01*
X133048833Y-89416880D02*
X133048833Y-88416880D01*
X133525023Y-88416880D01*
X134239309Y-88893071D02*
X134382166Y-88940690D01*
X134429785Y-88988309D01*
X134477404Y-89083547D01*
X134477404Y-89226404D01*
X134429785Y-89321642D01*
X134382166Y-89369261D01*
X134286928Y-89416880D01*
X133905976Y-89416880D01*
X133905976Y-88416880D01*
X134239309Y-88416880D01*
X134334547Y-88464500D01*
X134382166Y-88512119D01*
X134429785Y-88607357D01*
X134429785Y-88702595D01*
X134382166Y-88797833D01*
X134334547Y-88845452D01*
X134239309Y-88893071D01*
X133905976Y-88893071D01*
X135429785Y-89416880D02*
X134858357Y-89416880D01*
X135144071Y-89416880D02*
X135144071Y-88416880D01*
X135048833Y-88559738D01*
X134953595Y-88654976D01*
X134858357Y-88702595D01*
X126992142Y-98027642D02*
X126944523Y-98075261D01*
X126801666Y-98122880D01*
X126706428Y-98122880D01*
X126563571Y-98075261D01*
X126468333Y-97980023D01*
X126420714Y-97884785D01*
X126373095Y-97694309D01*
X126373095Y-97551452D01*
X126420714Y-97360976D01*
X126468333Y-97265738D01*
X126563571Y-97170500D01*
X126706428Y-97122880D01*
X126801666Y-97122880D01*
X126944523Y-97170500D01*
X126992142Y-97218119D01*
X127944523Y-98122880D02*
X127373095Y-98122880D01*
X127658809Y-98122880D02*
X127658809Y-97122880D01*
X127563571Y-97265738D01*
X127468333Y-97360976D01*
X127373095Y-97408595D01*
X128277857Y-97122880D02*
X128896904Y-97122880D01*
X128563571Y-97503833D01*
X128706428Y-97503833D01*
X128801666Y-97551452D01*
X128849285Y-97599071D01*
X128896904Y-97694309D01*
X128896904Y-97932404D01*
X128849285Y-98027642D01*
X128801666Y-98075261D01*
X128706428Y-98122880D01*
X128420714Y-98122880D01*
X128325476Y-98075261D01*
X128277857Y-98027642D01*
X131691142Y-95924642D02*
X131643523Y-95972261D01*
X131500666Y-96019880D01*
X131405428Y-96019880D01*
X131262571Y-95972261D01*
X131167333Y-95877023D01*
X131119714Y-95781785D01*
X131072095Y-95591309D01*
X131072095Y-95448452D01*
X131119714Y-95257976D01*
X131167333Y-95162738D01*
X131262571Y-95067500D01*
X131405428Y-95019880D01*
X131500666Y-95019880D01*
X131643523Y-95067500D01*
X131691142Y-95115119D01*
X132643523Y-96019880D02*
X132072095Y-96019880D01*
X132357809Y-96019880D02*
X132357809Y-95019880D01*
X132262571Y-95162738D01*
X132167333Y-95257976D01*
X132072095Y-95305595D01*
X133024476Y-95115119D02*
X133072095Y-95067500D01*
X133167333Y-95019880D01*
X133405428Y-95019880D01*
X133500666Y-95067500D01*
X133548285Y-95115119D01*
X133595904Y-95210357D01*
X133595904Y-95305595D01*
X133548285Y-95448452D01*
X132976857Y-96019880D01*
X133595904Y-96019880D01*
X135120142Y-95861142D02*
X135072523Y-95908761D01*
X134929666Y-95956380D01*
X134834428Y-95956380D01*
X134691571Y-95908761D01*
X134596333Y-95813523D01*
X134548714Y-95718285D01*
X134501095Y-95527809D01*
X134501095Y-95384952D01*
X134548714Y-95194476D01*
X134596333Y-95099238D01*
X134691571Y-95004000D01*
X134834428Y-94956380D01*
X134929666Y-94956380D01*
X135072523Y-95004000D01*
X135120142Y-95051619D01*
X136072523Y-95956380D02*
X135501095Y-95956380D01*
X135786809Y-95956380D02*
X135786809Y-94956380D01*
X135691571Y-95099238D01*
X135596333Y-95194476D01*
X135501095Y-95242095D01*
X137024904Y-95956380D02*
X136453476Y-95956380D01*
X136739190Y-95956380D02*
X136739190Y-94956380D01*
X136643952Y-95099238D01*
X136548714Y-95194476D01*
X136453476Y-95242095D01*
X136898142Y-91352642D02*
X136850523Y-91400261D01*
X136707666Y-91447880D01*
X136612428Y-91447880D01*
X136469571Y-91400261D01*
X136374333Y-91305023D01*
X136326714Y-91209785D01*
X136279095Y-91019309D01*
X136279095Y-90876452D01*
X136326714Y-90685976D01*
X136374333Y-90590738D01*
X136469571Y-90495500D01*
X136612428Y-90447880D01*
X136707666Y-90447880D01*
X136850523Y-90495500D01*
X136898142Y-90543119D01*
X137850523Y-91447880D02*
X137279095Y-91447880D01*
X137564809Y-91447880D02*
X137564809Y-90447880D01*
X137469571Y-90590738D01*
X137374333Y-90685976D01*
X137279095Y-90733595D01*
X138469571Y-90447880D02*
X138564809Y-90447880D01*
X138660047Y-90495500D01*
X138707666Y-90543119D01*
X138755285Y-90638357D01*
X138802904Y-90828833D01*
X138802904Y-91066928D01*
X138755285Y-91257404D01*
X138707666Y-91352642D01*
X138660047Y-91400261D01*
X138564809Y-91447880D01*
X138469571Y-91447880D01*
X138374333Y-91400261D01*
X138326714Y-91352642D01*
X138279095Y-91257404D01*
X138231476Y-91066928D01*
X138231476Y-90828833D01*
X138279095Y-90638357D01*
X138326714Y-90543119D01*
X138374333Y-90495500D01*
X138469571Y-90447880D01*
X155408333Y-118435880D02*
X155075000Y-117959690D01*
X154836904Y-118435880D02*
X154836904Y-117435880D01*
X155217857Y-117435880D01*
X155313095Y-117483500D01*
X155360714Y-117531119D01*
X155408333Y-117626357D01*
X155408333Y-117769214D01*
X155360714Y-117864452D01*
X155313095Y-117912071D01*
X155217857Y-117959690D01*
X154836904Y-117959690D01*
X156265476Y-117769214D02*
X156265476Y-118435880D01*
X156027380Y-117388261D02*
X155789285Y-118102547D01*
X156408333Y-118102547D01*
X153630333Y-124817142D02*
X153582714Y-124864761D01*
X153439857Y-124912380D01*
X153344619Y-124912380D01*
X153201761Y-124864761D01*
X153106523Y-124769523D01*
X153058904Y-124674285D01*
X153011285Y-124483809D01*
X153011285Y-124340952D01*
X153058904Y-124150476D01*
X153106523Y-124055238D01*
X153201761Y-123960000D01*
X153344619Y-123912380D01*
X153439857Y-123912380D01*
X153582714Y-123960000D01*
X153630333Y-124007619D01*
X154487476Y-123912380D02*
X154297000Y-123912380D01*
X154201761Y-123960000D01*
X154154142Y-124007619D01*
X154058904Y-124150476D01*
X154011285Y-124340952D01*
X154011285Y-124721904D01*
X154058904Y-124817142D01*
X154106523Y-124864761D01*
X154201761Y-124912380D01*
X154392238Y-124912380D01*
X154487476Y-124864761D01*
X154535095Y-124817142D01*
X154582714Y-124721904D01*
X154582714Y-124483809D01*
X154535095Y-124388571D01*
X154487476Y-124340952D01*
X154392238Y-124293333D01*
X154201761Y-124293333D01*
X154106523Y-124340952D01*
X154058904Y-124388571D01*
X154011285Y-124483809D01*
X181783642Y-72491380D02*
X181450309Y-72015190D01*
X181212214Y-72491380D02*
X181212214Y-71491380D01*
X181593166Y-71491380D01*
X181688404Y-71539000D01*
X181736023Y-71586619D01*
X181783642Y-71681857D01*
X181783642Y-71824714D01*
X181736023Y-71919952D01*
X181688404Y-71967571D01*
X181593166Y-72015190D01*
X181212214Y-72015190D01*
X182736023Y-72491380D02*
X182164595Y-72491380D01*
X182450309Y-72491380D02*
X182450309Y-71491380D01*
X182355071Y-71634238D01*
X182259833Y-71729476D01*
X182164595Y-71777095D01*
X183355071Y-71491380D02*
X183450309Y-71491380D01*
X183545547Y-71539000D01*
X183593166Y-71586619D01*
X183640785Y-71681857D01*
X183688404Y-71872333D01*
X183688404Y-72110428D01*
X183640785Y-72300904D01*
X183593166Y-72396142D01*
X183545547Y-72443761D01*
X183450309Y-72491380D01*
X183355071Y-72491380D01*
X183259833Y-72443761D01*
X183212214Y-72396142D01*
X183164595Y-72300904D01*
X183116976Y-72110428D01*
X183116976Y-71872333D01*
X183164595Y-71681857D01*
X183212214Y-71586619D01*
X183259833Y-71539000D01*
X183355071Y-71491380D01*
X176807833Y-74366380D02*
X176474500Y-73890190D01*
X176236404Y-74366380D02*
X176236404Y-73366380D01*
X176617357Y-73366380D01*
X176712595Y-73414000D01*
X176760214Y-73461619D01*
X176807833Y-73556857D01*
X176807833Y-73699714D01*
X176760214Y-73794952D01*
X176712595Y-73842571D01*
X176617357Y-73890190D01*
X176236404Y-73890190D01*
X177284023Y-74366380D02*
X177474500Y-74366380D01*
X177569738Y-74318761D01*
X177617357Y-74271142D01*
X177712595Y-74128285D01*
X177760214Y-73937809D01*
X177760214Y-73556857D01*
X177712595Y-73461619D01*
X177664976Y-73414000D01*
X177569738Y-73366380D01*
X177379261Y-73366380D01*
X177284023Y-73414000D01*
X177236404Y-73461619D01*
X177188785Y-73556857D01*
X177188785Y-73794952D01*
X177236404Y-73890190D01*
X177284023Y-73937809D01*
X177379261Y-73985428D01*
X177569738Y-73985428D01*
X177664976Y-73937809D01*
X177712595Y-73890190D01*
X177760214Y-73794952D01*
X138009333Y-58904142D02*
X137961714Y-58951761D01*
X137818857Y-58999380D01*
X137723619Y-58999380D01*
X137580761Y-58951761D01*
X137485523Y-58856523D01*
X137437904Y-58761285D01*
X137390285Y-58570809D01*
X137390285Y-58427952D01*
X137437904Y-58237476D01*
X137485523Y-58142238D01*
X137580761Y-58047000D01*
X137723619Y-57999380D01*
X137818857Y-57999380D01*
X137961714Y-58047000D01*
X138009333Y-58094619D01*
X138390285Y-58094619D02*
X138437904Y-58047000D01*
X138533142Y-57999380D01*
X138771238Y-57999380D01*
X138866476Y-58047000D01*
X138914095Y-58094619D01*
X138961714Y-58189857D01*
X138961714Y-58285095D01*
X138914095Y-58427952D01*
X138342666Y-58999380D01*
X138961714Y-58999380D01*
X134783533Y-55754542D02*
X134735914Y-55802161D01*
X134593057Y-55849780D01*
X134497819Y-55849780D01*
X134354961Y-55802161D01*
X134259723Y-55706923D01*
X134212104Y-55611685D01*
X134164485Y-55421209D01*
X134164485Y-55278352D01*
X134212104Y-55087876D01*
X134259723Y-54992638D01*
X134354961Y-54897400D01*
X134497819Y-54849780D01*
X134593057Y-54849780D01*
X134735914Y-54897400D01*
X134783533Y-54945019D01*
X135735914Y-55849780D02*
X135164485Y-55849780D01*
X135450200Y-55849780D02*
X135450200Y-54849780D01*
X135354961Y-54992638D01*
X135259723Y-55087876D01*
X135164485Y-55135495D01*
X174244095Y-114831880D02*
X174244095Y-115641404D01*
X174291714Y-115736642D01*
X174339333Y-115784261D01*
X174434571Y-115831880D01*
X174625047Y-115831880D01*
X174720285Y-115784261D01*
X174767904Y-115736642D01*
X174815523Y-115641404D01*
X174815523Y-114831880D01*
X175196476Y-114831880D02*
X175815523Y-114831880D01*
X175482190Y-115212833D01*
X175625047Y-115212833D01*
X175720285Y-115260452D01*
X175767904Y-115308071D01*
X175815523Y-115403309D01*
X175815523Y-115641404D01*
X175767904Y-115736642D01*
X175720285Y-115784261D01*
X175625047Y-115831880D01*
X175339333Y-115831880D01*
X175244095Y-115784261D01*
X175196476Y-115736642D01*
X170243595Y-107910380D02*
X170243595Y-108719904D01*
X170291214Y-108815142D01*
X170338833Y-108862761D01*
X170434071Y-108910380D01*
X170624547Y-108910380D01*
X170719785Y-108862761D01*
X170767404Y-108815142D01*
X170815023Y-108719904D01*
X170815023Y-107910380D01*
X171243595Y-108005619D02*
X171291214Y-107958000D01*
X171386452Y-107910380D01*
X171624547Y-107910380D01*
X171719785Y-107958000D01*
X171767404Y-108005619D01*
X171815023Y-108100857D01*
X171815023Y-108196095D01*
X171767404Y-108338952D01*
X171195976Y-108910380D01*
X171815023Y-108910380D01*
X152971595Y-74953880D02*
X152971595Y-75763404D01*
X153019214Y-75858642D01*
X153066833Y-75906261D01*
X153162071Y-75953880D01*
X153352547Y-75953880D01*
X153447785Y-75906261D01*
X153495404Y-75858642D01*
X153543023Y-75763404D01*
X153543023Y-74953880D01*
X154543023Y-75953880D02*
X153971595Y-75953880D01*
X154257309Y-75953880D02*
X154257309Y-74953880D01*
X154162071Y-75096738D01*
X154066833Y-75191976D01*
X153971595Y-75239595D01*
X131064166Y-113180761D02*
X131207023Y-113228380D01*
X131445119Y-113228380D01*
X131540357Y-113180761D01*
X131587976Y-113133142D01*
X131635595Y-113037904D01*
X131635595Y-112942666D01*
X131587976Y-112847428D01*
X131540357Y-112799809D01*
X131445119Y-112752190D01*
X131254642Y-112704571D01*
X131159404Y-112656952D01*
X131111785Y-112609333D01*
X131064166Y-112514095D01*
X131064166Y-112418857D01*
X131111785Y-112323619D01*
X131159404Y-112276000D01*
X131254642Y-112228380D01*
X131492738Y-112228380D01*
X131635595Y-112276000D01*
X131968928Y-112228380D02*
X132207023Y-113228380D01*
X132397500Y-112514095D01*
X132587976Y-113228380D01*
X132826071Y-112228380D01*
X133730833Y-113228380D02*
X133159404Y-113228380D01*
X133445119Y-113228380D02*
X133445119Y-112228380D01*
X133349880Y-112371238D01*
X133254642Y-112466476D01*
X133159404Y-112514095D01*
X190309846Y-105055479D02*
X189976513Y-104579289D01*
X189738418Y-105055479D02*
X189738418Y-104055479D01*
X190119370Y-104055479D01*
X190214608Y-104103099D01*
X190262227Y-104150718D01*
X190309846Y-104245956D01*
X190309846Y-104388813D01*
X190262227Y-104484051D01*
X190214608Y-104531670D01*
X190119370Y-104579289D01*
X189738418Y-104579289D01*
X191262227Y-105055479D02*
X190690799Y-105055479D01*
X190976513Y-105055479D02*
X190976513Y-104055479D01*
X190881275Y-104198337D01*
X190786037Y-104293575D01*
X190690799Y-104341194D01*
X192119370Y-104055479D02*
X191928894Y-104055479D01*
X191833656Y-104103099D01*
X191786037Y-104150718D01*
X191690799Y-104293575D01*
X191643180Y-104484051D01*
X191643180Y-104865003D01*
X191690799Y-104960241D01*
X191738418Y-105007860D01*
X191833656Y-105055479D01*
X192024132Y-105055479D01*
X192119370Y-105007860D01*
X192166989Y-104960241D01*
X192214608Y-104865003D01*
X192214608Y-104626908D01*
X192166989Y-104531670D01*
X192119370Y-104484051D01*
X192024132Y-104436432D01*
X191833656Y-104436432D01*
X191738418Y-104484051D01*
X191690799Y-104531670D01*
X191643180Y-104626908D01*
X108577142Y-108465880D02*
X108243809Y-107989690D01*
X108005714Y-108465880D02*
X108005714Y-107465880D01*
X108386666Y-107465880D01*
X108481904Y-107513500D01*
X108529523Y-107561119D01*
X108577142Y-107656357D01*
X108577142Y-107799214D01*
X108529523Y-107894452D01*
X108481904Y-107942071D01*
X108386666Y-107989690D01*
X108005714Y-107989690D01*
X109529523Y-108465880D02*
X108958095Y-108465880D01*
X109243809Y-108465880D02*
X109243809Y-107465880D01*
X109148571Y-107608738D01*
X109053333Y-107703976D01*
X108958095Y-107751595D01*
X109910476Y-107561119D02*
X109958095Y-107513500D01*
X110053333Y-107465880D01*
X110291428Y-107465880D01*
X110386666Y-107513500D01*
X110434285Y-107561119D01*
X110481904Y-107656357D01*
X110481904Y-107751595D01*
X110434285Y-107894452D01*
X109862857Y-108465880D01*
X110481904Y-108465880D01*
X118165642Y-108719880D02*
X117832309Y-108243690D01*
X117594214Y-108719880D02*
X117594214Y-107719880D01*
X117975166Y-107719880D01*
X118070404Y-107767500D01*
X118118023Y-107815119D01*
X118165642Y-107910357D01*
X118165642Y-108053214D01*
X118118023Y-108148452D01*
X118070404Y-108196071D01*
X117975166Y-108243690D01*
X117594214Y-108243690D01*
X119118023Y-108719880D02*
X118546595Y-108719880D01*
X118832309Y-108719880D02*
X118832309Y-107719880D01*
X118737071Y-107862738D01*
X118641833Y-107957976D01*
X118546595Y-108005595D01*
X120070404Y-108719880D02*
X119498976Y-108719880D01*
X119784690Y-108719880D02*
X119784690Y-107719880D01*
X119689452Y-107862738D01*
X119594214Y-107957976D01*
X119498976Y-108005595D01*
X120267433Y-111031280D02*
X119934100Y-110555090D01*
X119696004Y-111031280D02*
X119696004Y-110031280D01*
X120076957Y-110031280D01*
X120172195Y-110078900D01*
X120219814Y-110126519D01*
X120267433Y-110221757D01*
X120267433Y-110364614D01*
X120219814Y-110459852D01*
X120172195Y-110507471D01*
X120076957Y-110555090D01*
X119696004Y-110555090D01*
X120838861Y-110459852D02*
X120743623Y-110412233D01*
X120696004Y-110364614D01*
X120648385Y-110269376D01*
X120648385Y-110221757D01*
X120696004Y-110126519D01*
X120743623Y-110078900D01*
X120838861Y-110031280D01*
X121029338Y-110031280D01*
X121124576Y-110078900D01*
X121172195Y-110126519D01*
X121219814Y-110221757D01*
X121219814Y-110269376D01*
X121172195Y-110364614D01*
X121124576Y-110412233D01*
X121029338Y-110459852D01*
X120838861Y-110459852D01*
X120743623Y-110507471D01*
X120696004Y-110555090D01*
X120648385Y-110650328D01*
X120648385Y-110840804D01*
X120696004Y-110936042D01*
X120743623Y-110983661D01*
X120838861Y-111031280D01*
X121029338Y-111031280D01*
X121124576Y-110983661D01*
X121172195Y-110936042D01*
X121219814Y-110840804D01*
X121219814Y-110650328D01*
X121172195Y-110555090D01*
X121124576Y-110507471D01*
X121029338Y-110459852D01*
X117849018Y-61638524D02*
X117515685Y-61162334D01*
X117277589Y-61638524D02*
X117277589Y-60638524D01*
X117658542Y-60638524D01*
X117753780Y-60686144D01*
X117801399Y-60733763D01*
X117849018Y-60829001D01*
X117849018Y-60971858D01*
X117801399Y-61067096D01*
X117753780Y-61114715D01*
X117658542Y-61162334D01*
X117277589Y-61162334D01*
X118182351Y-60638524D02*
X118849018Y-60638524D01*
X118420446Y-61638524D01*
X108291333Y-63698380D02*
X107958000Y-63222190D01*
X107719904Y-63698380D02*
X107719904Y-62698380D01*
X108100857Y-62698380D01*
X108196095Y-62746000D01*
X108243714Y-62793619D01*
X108291333Y-62888857D01*
X108291333Y-63031714D01*
X108243714Y-63126952D01*
X108196095Y-63174571D01*
X108100857Y-63222190D01*
X107719904Y-63222190D01*
X109148476Y-62698380D02*
X108958000Y-62698380D01*
X108862761Y-62746000D01*
X108815142Y-62793619D01*
X108719904Y-62936476D01*
X108672285Y-63126952D01*
X108672285Y-63507904D01*
X108719904Y-63603142D01*
X108767523Y-63650761D01*
X108862761Y-63698380D01*
X109053238Y-63698380D01*
X109148476Y-63650761D01*
X109196095Y-63603142D01*
X109243714Y-63507904D01*
X109243714Y-63269809D01*
X109196095Y-63174571D01*
X109148476Y-63126952D01*
X109053238Y-63079333D01*
X108862761Y-63079333D01*
X108767523Y-63126952D01*
X108719904Y-63174571D01*
X108672285Y-63269809D01*
X177958536Y-61494479D02*
X177625203Y-61018289D01*
X177387107Y-61494479D02*
X177387107Y-60494479D01*
X177768060Y-60494479D01*
X177863298Y-60542099D01*
X177910917Y-60589718D01*
X177958536Y-60684956D01*
X177958536Y-60827813D01*
X177910917Y-60923051D01*
X177863298Y-60970670D01*
X177768060Y-61018289D01*
X177387107Y-61018289D01*
X178863298Y-60494479D02*
X178387107Y-60494479D01*
X178339488Y-60970670D01*
X178387107Y-60923051D01*
X178482345Y-60875432D01*
X178720441Y-60875432D01*
X178815679Y-60923051D01*
X178863298Y-60970670D01*
X178910917Y-61065908D01*
X178910917Y-61304003D01*
X178863298Y-61399241D01*
X178815679Y-61446860D01*
X178720441Y-61494479D01*
X178482345Y-61494479D01*
X178387107Y-61446860D01*
X178339488Y-61399241D01*
X149566333Y-116339880D02*
X149233000Y-115863690D01*
X148994904Y-116339880D02*
X148994904Y-115339880D01*
X149375857Y-115339880D01*
X149471095Y-115387500D01*
X149518714Y-115435119D01*
X149566333Y-115530357D01*
X149566333Y-115673214D01*
X149518714Y-115768452D01*
X149471095Y-115816071D01*
X149375857Y-115863690D01*
X148994904Y-115863690D01*
X149899666Y-115339880D02*
X150518714Y-115339880D01*
X150185380Y-115720833D01*
X150328238Y-115720833D01*
X150423476Y-115768452D01*
X150471095Y-115816071D01*
X150518714Y-115911309D01*
X150518714Y-116149404D01*
X150471095Y-116244642D01*
X150423476Y-116292261D01*
X150328238Y-116339880D01*
X150042523Y-116339880D01*
X149947285Y-116292261D01*
X149899666Y-116244642D01*
X142525538Y-105022479D02*
X142192205Y-104546289D01*
X141954109Y-105022479D02*
X141954109Y-104022479D01*
X142335062Y-104022479D01*
X142430300Y-104070099D01*
X142477919Y-104117718D01*
X142525538Y-104212956D01*
X142525538Y-104355813D01*
X142477919Y-104451051D01*
X142430300Y-104498670D01*
X142335062Y-104546289D01*
X141954109Y-104546289D01*
X142906490Y-104117718D02*
X142954109Y-104070099D01*
X143049347Y-104022479D01*
X143287443Y-104022479D01*
X143382681Y-104070099D01*
X143430300Y-104117718D01*
X143477919Y-104212956D01*
X143477919Y-104308194D01*
X143430300Y-104451051D01*
X142858871Y-105022479D01*
X143477919Y-105022479D01*
X139160037Y-104928479D02*
X138826704Y-104452289D01*
X138588608Y-104928479D02*
X138588608Y-103928479D01*
X138969561Y-103928479D01*
X139064799Y-103976099D01*
X139112418Y-104023718D01*
X139160037Y-104118956D01*
X139160037Y-104261813D01*
X139112418Y-104357051D01*
X139064799Y-104404670D01*
X138969561Y-104452289D01*
X138588608Y-104452289D01*
X140112418Y-104928479D02*
X139540989Y-104928479D01*
X139826704Y-104928479D02*
X139826704Y-103928479D01*
X139731465Y-104071337D01*
X139636227Y-104166575D01*
X139540989Y-104214194D01*
X113894965Y-105254218D02*
X113799727Y-105206599D01*
X113704489Y-105111360D01*
X113561632Y-104968503D01*
X113466394Y-104920884D01*
X113371156Y-104920884D01*
X113418775Y-105158979D02*
X113323537Y-105111360D01*
X113228299Y-105016122D01*
X113180680Y-104825646D01*
X113180680Y-104492313D01*
X113228299Y-104301837D01*
X113323537Y-104206599D01*
X113418775Y-104158979D01*
X113609251Y-104158979D01*
X113704489Y-104206599D01*
X113799727Y-104301837D01*
X113847346Y-104492313D01*
X113847346Y-104825646D01*
X113799727Y-105016122D01*
X113704489Y-105111360D01*
X113609251Y-105158979D01*
X113418775Y-105158979D01*
X114799727Y-105158979D02*
X114228299Y-105158979D01*
X114514013Y-105158979D02*
X114514013Y-104158979D01*
X114418775Y-104301837D01*
X114323537Y-104397075D01*
X114228299Y-104444694D01*
X192643166Y-116101880D02*
X192643166Y-116816166D01*
X192595547Y-116959023D01*
X192500309Y-117054261D01*
X192357452Y-117101880D01*
X192262214Y-117101880D01*
X193547928Y-116101880D02*
X193357452Y-116101880D01*
X193262214Y-116149500D01*
X193214595Y-116197119D01*
X193119357Y-116339976D01*
X193071738Y-116530452D01*
X193071738Y-116911404D01*
X193119357Y-117006642D01*
X193166976Y-117054261D01*
X193262214Y-117101880D01*
X193452690Y-117101880D01*
X193547928Y-117054261D01*
X193595547Y-117006642D01*
X193643166Y-116911404D01*
X193643166Y-116673309D01*
X193595547Y-116578071D01*
X193547928Y-116530452D01*
X193452690Y-116482833D01*
X193262214Y-116482833D01*
X193166976Y-116530452D01*
X193119357Y-116578071D01*
X193071738Y-116673309D01*
X169584963Y-68286380D02*
X169584963Y-69000666D01*
X169537344Y-69143523D01*
X169442106Y-69238761D01*
X169299249Y-69286380D01*
X169204011Y-69286380D01*
X170489725Y-68619714D02*
X170489725Y-69286380D01*
X170251630Y-68238761D02*
X170013535Y-68953047D01*
X170632582Y-68953047D01*
X165338166Y-55840380D02*
X165338166Y-56554666D01*
X165290547Y-56697523D01*
X165195309Y-56792761D01*
X165052452Y-56840380D01*
X164957214Y-56840380D01*
X166338166Y-56840380D02*
X165766738Y-56840380D01*
X166052452Y-56840380D02*
X166052452Y-55840380D01*
X165957214Y-55983238D01*
X165861976Y-56078476D01*
X165766738Y-56126095D01*
X189023666Y-116133571D02*
X188690333Y-116133571D01*
X188690333Y-116657380D02*
X188690333Y-115657380D01*
X189166523Y-115657380D01*
X190071285Y-116657380D02*
X189499857Y-116657380D01*
X189785571Y-116657380D02*
X189785571Y-115657380D01*
X189690333Y-115800238D01*
X189595095Y-115895476D01*
X189499857Y-115943095D01*
X185380404Y-107005380D02*
X185380404Y-106005380D01*
X185618500Y-106005380D01*
X185761357Y-106053000D01*
X185856595Y-106148238D01*
X185904214Y-106243476D01*
X185951833Y-106433952D01*
X185951833Y-106576809D01*
X185904214Y-106767285D01*
X185856595Y-106862523D01*
X185761357Y-106957761D01*
X185618500Y-107005380D01*
X185380404Y-107005380D01*
X186808976Y-106338714D02*
X186808976Y-107005380D01*
X186570880Y-105957761D02*
X186332785Y-106672047D01*
X186951833Y-106672047D01*
X119823004Y-116301780D02*
X119823004Y-115301780D01*
X120061100Y-115301780D01*
X120203957Y-115349400D01*
X120299195Y-115444638D01*
X120346814Y-115539876D01*
X120394433Y-115730352D01*
X120394433Y-115873209D01*
X120346814Y-116063685D01*
X120299195Y-116158923D01*
X120203957Y-116254161D01*
X120061100Y-116301780D01*
X119823004Y-116301780D01*
X120727766Y-115301780D02*
X121346814Y-115301780D01*
X121013480Y-115682733D01*
X121156338Y-115682733D01*
X121251576Y-115730352D01*
X121299195Y-115777971D01*
X121346814Y-115873209D01*
X121346814Y-116111304D01*
X121299195Y-116206542D01*
X121251576Y-116254161D01*
X121156338Y-116301780D01*
X120870623Y-116301780D01*
X120775385Y-116254161D01*
X120727766Y-116206542D01*
X104679608Y-63683979D02*
X104679608Y-62683979D01*
X104917704Y-62683979D01*
X105060561Y-62731599D01*
X105155799Y-62826837D01*
X105203418Y-62922075D01*
X105251037Y-63112551D01*
X105251037Y-63255408D01*
X105203418Y-63445884D01*
X105155799Y-63541122D01*
X105060561Y-63636360D01*
X104917704Y-63683979D01*
X104679608Y-63683979D01*
X105631989Y-62779218D02*
X105679608Y-62731599D01*
X105774846Y-62683979D01*
X106012942Y-62683979D01*
X106108180Y-62731599D01*
X106155799Y-62779218D01*
X106203418Y-62874456D01*
X106203418Y-62969694D01*
X106155799Y-63112551D01*
X105584370Y-63683979D01*
X106203418Y-63683979D01*
X111214604Y-70378980D02*
X111214604Y-69378980D01*
X111452700Y-69378980D01*
X111595557Y-69426600D01*
X111690795Y-69521838D01*
X111738414Y-69617076D01*
X111786033Y-69807552D01*
X111786033Y-69950409D01*
X111738414Y-70140885D01*
X111690795Y-70236123D01*
X111595557Y-70331361D01*
X111452700Y-70378980D01*
X111214604Y-70378980D01*
X112738414Y-70378980D02*
X112166985Y-70378980D01*
X112452700Y-70378980D02*
X112452700Y-69378980D01*
X112357461Y-69521838D01*
X112262223Y-69617076D01*
X112166985Y-69664695D01*
X103489914Y-67838980D02*
X102918485Y-67838980D01*
X103204200Y-67838980D02*
X103204200Y-66838980D01*
X103108961Y-66981838D01*
X103013723Y-67077076D01*
X102918485Y-67124695D01*
X193463642Y-105023740D02*
X193416023Y-105071359D01*
X193273166Y-105118978D01*
X193177928Y-105118978D01*
X193035071Y-105071359D01*
X192939833Y-104976121D01*
X192892214Y-104880883D01*
X192844595Y-104690407D01*
X192844595Y-104547550D01*
X192892214Y-104357074D01*
X192939833Y-104261836D01*
X193035071Y-104166598D01*
X193177928Y-104118978D01*
X193273166Y-104118978D01*
X193416023Y-104166598D01*
X193463642Y-104214217D01*
X194416023Y-105118978D02*
X193844595Y-105118978D01*
X194130309Y-105118978D02*
X194130309Y-104118978D01*
X194035071Y-104261836D01*
X193939833Y-104357074D01*
X193844595Y-104404693D01*
X194987452Y-104547550D02*
X194892214Y-104499931D01*
X194844595Y-104452312D01*
X194796976Y-104357074D01*
X194796976Y-104309455D01*
X194844595Y-104214217D01*
X194892214Y-104166598D01*
X194987452Y-104118978D01*
X195177928Y-104118978D01*
X195273166Y-104166598D01*
X195320785Y-104214217D01*
X195368404Y-104309455D01*
X195368404Y-104357074D01*
X195320785Y-104452312D01*
X195273166Y-104499931D01*
X195177928Y-104547550D01*
X194987452Y-104547550D01*
X194892214Y-104595169D01*
X194844595Y-104642788D01*
X194796976Y-104738026D01*
X194796976Y-104928502D01*
X194844595Y-105023740D01*
X194892214Y-105071359D01*
X194987452Y-105118978D01*
X195177928Y-105118978D01*
X195273166Y-105071359D01*
X195320785Y-105023740D01*
X195368404Y-104928502D01*
X195368404Y-104738026D01*
X195320785Y-104642788D01*
X195273166Y-104595169D01*
X195177928Y-104547550D01*
X175066939Y-99238543D02*
X175019320Y-99286162D01*
X174876463Y-99333781D01*
X174781225Y-99333781D01*
X174638368Y-99286162D01*
X174543130Y-99190924D01*
X174495511Y-99095686D01*
X174447892Y-98905210D01*
X174447892Y-98762353D01*
X174495511Y-98571877D01*
X174543130Y-98476639D01*
X174638368Y-98381401D01*
X174781225Y-98333781D01*
X174876463Y-98333781D01*
X175019320Y-98381401D01*
X175066939Y-98429020D01*
X176019320Y-99333781D02*
X175447892Y-99333781D01*
X175733606Y-99333781D02*
X175733606Y-98333781D01*
X175638368Y-98476639D01*
X175543130Y-98571877D01*
X175447892Y-98619496D01*
X176352654Y-98333781D02*
X177019320Y-98333781D01*
X176590749Y-99333781D01*
X182935642Y-105894142D02*
X182888023Y-105941761D01*
X182745166Y-105989380D01*
X182649928Y-105989380D01*
X182507071Y-105941761D01*
X182411833Y-105846523D01*
X182364214Y-105751285D01*
X182316595Y-105560809D01*
X182316595Y-105417952D01*
X182364214Y-105227476D01*
X182411833Y-105132238D01*
X182507071Y-105037000D01*
X182649928Y-104989380D01*
X182745166Y-104989380D01*
X182888023Y-105037000D01*
X182935642Y-105084619D01*
X183888023Y-105989380D02*
X183316595Y-105989380D01*
X183602309Y-105989380D02*
X183602309Y-104989380D01*
X183507071Y-105132238D01*
X183411833Y-105227476D01*
X183316595Y-105275095D01*
X184745166Y-104989380D02*
X184554690Y-104989380D01*
X184459452Y-105037000D01*
X184411833Y-105084619D01*
X184316595Y-105227476D01*
X184268976Y-105417952D01*
X184268976Y-105798904D01*
X184316595Y-105894142D01*
X184364214Y-105941761D01*
X184459452Y-105989380D01*
X184649928Y-105989380D01*
X184745166Y-105941761D01*
X184792785Y-105894142D01*
X184840404Y-105798904D01*
X184840404Y-105560809D01*
X184792785Y-105465571D01*
X184745166Y-105417952D01*
X184649928Y-105370333D01*
X184459452Y-105370333D01*
X184364214Y-105417952D01*
X184316595Y-105465571D01*
X184268976Y-105560809D01*
X171886642Y-102338142D02*
X171839023Y-102385761D01*
X171696166Y-102433380D01*
X171600928Y-102433380D01*
X171458071Y-102385761D01*
X171362833Y-102290523D01*
X171315214Y-102195285D01*
X171267595Y-102004809D01*
X171267595Y-101861952D01*
X171315214Y-101671476D01*
X171362833Y-101576238D01*
X171458071Y-101481000D01*
X171600928Y-101433380D01*
X171696166Y-101433380D01*
X171839023Y-101481000D01*
X171886642Y-101528619D01*
X172839023Y-102433380D02*
X172267595Y-102433380D01*
X172553309Y-102433380D02*
X172553309Y-101433380D01*
X172458071Y-101576238D01*
X172362833Y-101671476D01*
X172267595Y-101719095D01*
X173743785Y-101433380D02*
X173267595Y-101433380D01*
X173219976Y-101909571D01*
X173267595Y-101861952D01*
X173362833Y-101814333D01*
X173600928Y-101814333D01*
X173696166Y-101861952D01*
X173743785Y-101909571D01*
X173791404Y-102004809D01*
X173791404Y-102242904D01*
X173743785Y-102338142D01*
X173696166Y-102385761D01*
X173600928Y-102433380D01*
X173362833Y-102433380D01*
X173267595Y-102385761D01*
X173219976Y-102338142D01*
X179062142Y-104624142D02*
X179014523Y-104671761D01*
X178871666Y-104719380D01*
X178776428Y-104719380D01*
X178633571Y-104671761D01*
X178538333Y-104576523D01*
X178490714Y-104481285D01*
X178443095Y-104290809D01*
X178443095Y-104147952D01*
X178490714Y-103957476D01*
X178538333Y-103862238D01*
X178633571Y-103767000D01*
X178776428Y-103719380D01*
X178871666Y-103719380D01*
X179014523Y-103767000D01*
X179062142Y-103814619D01*
X180014523Y-104719380D02*
X179443095Y-104719380D01*
X179728809Y-104719380D02*
X179728809Y-103719380D01*
X179633571Y-103862238D01*
X179538333Y-103957476D01*
X179443095Y-104005095D01*
X180871666Y-104052714D02*
X180871666Y-104719380D01*
X180633571Y-103671761D02*
X180395476Y-104386047D01*
X181014523Y-104386047D01*
X132929333Y-63603142D02*
X132881714Y-63650761D01*
X132738857Y-63698380D01*
X132643619Y-63698380D01*
X132500761Y-63650761D01*
X132405523Y-63555523D01*
X132357904Y-63460285D01*
X132310285Y-63269809D01*
X132310285Y-63126952D01*
X132357904Y-62936476D01*
X132405523Y-62841238D01*
X132500761Y-62746000D01*
X132643619Y-62698380D01*
X132738857Y-62698380D01*
X132881714Y-62746000D01*
X132929333Y-62793619D01*
X133405523Y-63698380D02*
X133596000Y-63698380D01*
X133691238Y-63650761D01*
X133738857Y-63603142D01*
X133834095Y-63460285D01*
X133881714Y-63269809D01*
X133881714Y-62888857D01*
X133834095Y-62793619D01*
X133786476Y-62746000D01*
X133691238Y-62698380D01*
X133500761Y-62698380D01*
X133405523Y-62746000D01*
X133357904Y-62793619D01*
X133310285Y-62888857D01*
X133310285Y-63126952D01*
X133357904Y-63222190D01*
X133405523Y-63269809D01*
X133500761Y-63317428D01*
X133691238Y-63317428D01*
X133786476Y-63269809D01*
X133834095Y-63222190D01*
X133881714Y-63126952D01*
X114776036Y-61589741D02*
X114728417Y-61637360D01*
X114585560Y-61684979D01*
X114490322Y-61684979D01*
X114347464Y-61637360D01*
X114252226Y-61542122D01*
X114204607Y-61446884D01*
X114156988Y-61256408D01*
X114156988Y-61113551D01*
X114204607Y-60923075D01*
X114252226Y-60827837D01*
X114347464Y-60732599D01*
X114490322Y-60684979D01*
X114585560Y-60684979D01*
X114728417Y-60732599D01*
X114776036Y-60780218D01*
X115347464Y-61113551D02*
X115252226Y-61065932D01*
X115204607Y-61018313D01*
X115156988Y-60923075D01*
X115156988Y-60875456D01*
X115204607Y-60780218D01*
X115252226Y-60732599D01*
X115347464Y-60684979D01*
X115537941Y-60684979D01*
X115633179Y-60732599D01*
X115680798Y-60780218D01*
X115728417Y-60875456D01*
X115728417Y-60923075D01*
X115680798Y-61018313D01*
X115633179Y-61065932D01*
X115537941Y-61113551D01*
X115347464Y-61113551D01*
X115252226Y-61161170D01*
X115204607Y-61208789D01*
X115156988Y-61304027D01*
X115156988Y-61494503D01*
X115204607Y-61589741D01*
X115252226Y-61637360D01*
X115347464Y-61684979D01*
X115537941Y-61684979D01*
X115633179Y-61637360D01*
X115680798Y-61589741D01*
X115728417Y-61494503D01*
X115728417Y-61304027D01*
X115680798Y-61208789D01*
X115633179Y-61161170D01*
X115537941Y-61113551D01*
X180943036Y-61305240D02*
X180895417Y-61352859D01*
X180752560Y-61400478D01*
X180657322Y-61400478D01*
X180514464Y-61352859D01*
X180419226Y-61257621D01*
X180371607Y-61162383D01*
X180323988Y-60971907D01*
X180323988Y-60829050D01*
X180371607Y-60638574D01*
X180419226Y-60543336D01*
X180514464Y-60448098D01*
X180657322Y-60400478D01*
X180752560Y-60400478D01*
X180895417Y-60448098D01*
X180943036Y-60495717D01*
X181276369Y-60400478D02*
X181943036Y-60400478D01*
X181514464Y-61400478D01*
X133030933Y-59069242D02*
X132983314Y-59116861D01*
X132840457Y-59164480D01*
X132745219Y-59164480D01*
X132602361Y-59116861D01*
X132507123Y-59021623D01*
X132459504Y-58926385D01*
X132411885Y-58735909D01*
X132411885Y-58593052D01*
X132459504Y-58402576D01*
X132507123Y-58307338D01*
X132602361Y-58212100D01*
X132745219Y-58164480D01*
X132840457Y-58164480D01*
X132983314Y-58212100D01*
X133030933Y-58259719D01*
X133935695Y-58164480D02*
X133459504Y-58164480D01*
X133411885Y-58640671D01*
X133459504Y-58593052D01*
X133554742Y-58545433D01*
X133792838Y-58545433D01*
X133888076Y-58593052D01*
X133935695Y-58640671D01*
X133983314Y-58735909D01*
X133983314Y-58974004D01*
X133935695Y-59069242D01*
X133888076Y-59116861D01*
X133792838Y-59164480D01*
X133554742Y-59164480D01*
X133459504Y-59116861D01*
X133411885Y-59069242D01*
X137793433Y-61609242D02*
X137745814Y-61656861D01*
X137602957Y-61704480D01*
X137507719Y-61704480D01*
X137364861Y-61656861D01*
X137269623Y-61561623D01*
X137222004Y-61466385D01*
X137174385Y-61275909D01*
X137174385Y-61133052D01*
X137222004Y-60942576D01*
X137269623Y-60847338D01*
X137364861Y-60752100D01*
X137507719Y-60704480D01*
X137602957Y-60704480D01*
X137745814Y-60752100D01*
X137793433Y-60799719D01*
X138650576Y-61037814D02*
X138650576Y-61704480D01*
X138412480Y-60656861D02*
X138174385Y-61371147D01*
X138793433Y-61371147D01*
X108466047Y-113022071D02*
X108608904Y-113069690D01*
X108656523Y-113117309D01*
X108704142Y-113212547D01*
X108704142Y-113355404D01*
X108656523Y-113450642D01*
X108608904Y-113498261D01*
X108513666Y-113545880D01*
X108132714Y-113545880D01*
X108132714Y-112545880D01*
X108466047Y-112545880D01*
X108561285Y-112593500D01*
X108608904Y-112641119D01*
X108656523Y-112736357D01*
X108656523Y-112831595D01*
X108608904Y-112926833D01*
X108561285Y-112974452D01*
X108466047Y-113022071D01*
X108132714Y-113022071D01*
X109037476Y-112545880D02*
X109704142Y-112545880D01*
X109037476Y-113545880D01*
X109704142Y-113545880D01*
X110608904Y-113545880D02*
X110037476Y-113545880D01*
X110323190Y-113545880D02*
X110323190Y-112545880D01*
X110227952Y-112688738D01*
X110132714Y-112783976D01*
X110037476Y-112831595D01*
M02*
