G04 #@! TF.GenerationSoftware,KiCad,Pcbnew,(5.1.12)-1*
G04 #@! TF.CreationDate,2022-03-18T17:22:37+08:00*
G04 #@! TF.ProjectId,Printhead-Controller,5072696e-7468-4656-9164-2d436f6e7472,0.5*
G04 #@! TF.SameCoordinates,Original*
G04 #@! TF.FileFunction,Legend,Top*
G04 #@! TF.FilePolarity,Positive*
%FSLAX46Y46*%
G04 Gerber Fmt 4.6, Leading zero omitted, Abs format (unit mm)*
G04 Created by KiCad (PCBNEW (5.1.12)-1) date 2022-03-18 17:22:37*
%MOMM*%
%LPD*%
G01*
G04 APERTURE LIST*
%ADD10C,0.200000*%
%ADD11C,0.120000*%
%ADD12C,0.150000*%
G04 APERTURE END LIST*
D10*
X168378619Y-90343880D02*
X168378619Y-89343880D01*
X168711952Y-90058166D01*
X169045285Y-89343880D01*
X169045285Y-90343880D01*
X169426238Y-89343880D02*
X170045285Y-89343880D01*
X169711952Y-89724833D01*
X169854809Y-89724833D01*
X169950047Y-89772452D01*
X169997666Y-89820071D01*
X170045285Y-89915309D01*
X170045285Y-90153404D01*
X169997666Y-90248642D01*
X169950047Y-90296261D01*
X169854809Y-90343880D01*
X169569095Y-90343880D01*
X169473857Y-90296261D01*
X169426238Y-90248642D01*
X171426238Y-89343880D02*
X171616714Y-89343880D01*
X171711952Y-89391500D01*
X171807190Y-89486738D01*
X171854809Y-89677214D01*
X171854809Y-90010547D01*
X171807190Y-90201023D01*
X171711952Y-90296261D01*
X171616714Y-90343880D01*
X171426238Y-90343880D01*
X171331000Y-90296261D01*
X171235761Y-90201023D01*
X171188142Y-90010547D01*
X171188142Y-89677214D01*
X171235761Y-89486738D01*
X171331000Y-89391500D01*
X171426238Y-89343880D01*
X172759571Y-90343880D02*
X172283380Y-90343880D01*
X172283380Y-89343880D01*
X173092904Y-89820071D02*
X173426238Y-89820071D01*
X173569095Y-90343880D02*
X173092904Y-90343880D01*
X173092904Y-89343880D01*
X173569095Y-89343880D01*
X173997666Y-90343880D02*
X173997666Y-89343880D01*
X174235761Y-89343880D01*
X174378619Y-89391500D01*
X174473857Y-89486738D01*
X174521476Y-89581976D01*
X174569095Y-89772452D01*
X174569095Y-89915309D01*
X174521476Y-90105785D01*
X174473857Y-90201023D01*
X174378619Y-90296261D01*
X174235761Y-90343880D01*
X173997666Y-90343880D01*
X169854809Y-92043880D02*
X169854809Y-91043880D01*
X170188142Y-91758166D01*
X170521476Y-91043880D01*
X170521476Y-92043880D01*
X171140523Y-92043880D02*
X171045285Y-91996261D01*
X170997666Y-91948642D01*
X170950047Y-91853404D01*
X170950047Y-91567690D01*
X170997666Y-91472452D01*
X171045285Y-91424833D01*
X171140523Y-91377214D01*
X171283380Y-91377214D01*
X171378619Y-91424833D01*
X171426238Y-91472452D01*
X171473857Y-91567690D01*
X171473857Y-91853404D01*
X171426238Y-91948642D01*
X171378619Y-91996261D01*
X171283380Y-92043880D01*
X171140523Y-92043880D01*
X172331000Y-91377214D02*
X172331000Y-92043880D01*
X171902428Y-91377214D02*
X171902428Y-91901023D01*
X171950047Y-91996261D01*
X172045285Y-92043880D01*
X172188142Y-92043880D01*
X172283380Y-91996261D01*
X172331000Y-91948642D01*
X172807190Y-91377214D02*
X172807190Y-92043880D01*
X172807190Y-91472452D02*
X172854809Y-91424833D01*
X172950047Y-91377214D01*
X173092904Y-91377214D01*
X173188142Y-91424833D01*
X173235761Y-91520071D01*
X173235761Y-92043880D01*
X173569095Y-91377214D02*
X173950047Y-91377214D01*
X173711952Y-91043880D02*
X173711952Y-91901023D01*
X173759571Y-91996261D01*
X173854809Y-92043880D01*
X173950047Y-92043880D01*
X167949523Y-58935880D02*
X167616190Y-58459690D01*
X167378095Y-58935880D02*
X167378095Y-57935880D01*
X167759047Y-57935880D01*
X167854285Y-57983500D01*
X167901904Y-58031119D01*
X167949523Y-58126357D01*
X167949523Y-58269214D01*
X167901904Y-58364452D01*
X167854285Y-58412071D01*
X167759047Y-58459690D01*
X167378095Y-58459690D01*
X168624285Y-57935880D02*
X169195714Y-57935880D01*
X168910000Y-58935880D02*
X168910000Y-57935880D01*
X170568904Y-57983500D02*
X170473666Y-57935880D01*
X170330809Y-57935880D01*
X170187952Y-57983500D01*
X170092714Y-58078738D01*
X170045095Y-58173976D01*
X169997476Y-58364452D01*
X169997476Y-58507309D01*
X170045095Y-58697785D01*
X170092714Y-58793023D01*
X170187952Y-58888261D01*
X170330809Y-58935880D01*
X170426047Y-58935880D01*
X170568904Y-58888261D01*
X170616523Y-58840642D01*
X170616523Y-58507309D01*
X170426047Y-58507309D01*
X103378047Y-85732928D02*
X104139952Y-85732928D01*
X103759000Y-86113880D02*
X103759000Y-85351976D01*
X103314547Y-90812928D02*
X104076452Y-90812928D01*
X103695500Y-91193880D02*
X103695500Y-90431976D01*
X109744023Y-96226261D02*
X109886880Y-96273880D01*
X110124976Y-96273880D01*
X110220214Y-96226261D01*
X110267833Y-96178642D01*
X110315452Y-96083404D01*
X110315452Y-95988166D01*
X110267833Y-95892928D01*
X110220214Y-95845309D01*
X110124976Y-95797690D01*
X109934500Y-95750071D01*
X109839261Y-95702452D01*
X109791642Y-95654833D01*
X109744023Y-95559595D01*
X109744023Y-95464357D01*
X109791642Y-95369119D01*
X109839261Y-95321500D01*
X109934500Y-95273880D01*
X110172595Y-95273880D01*
X110315452Y-95321500D01*
X111315452Y-96178642D02*
X111267833Y-96226261D01*
X111124976Y-96273880D01*
X111029738Y-96273880D01*
X110886880Y-96226261D01*
X110791642Y-96131023D01*
X110744023Y-96035785D01*
X110696404Y-95845309D01*
X110696404Y-95702452D01*
X110744023Y-95511976D01*
X110791642Y-95416738D01*
X110886880Y-95321500D01*
X111029738Y-95273880D01*
X111124976Y-95273880D01*
X111267833Y-95321500D01*
X111315452Y-95369119D01*
X112220214Y-96273880D02*
X111744023Y-96273880D01*
X111744023Y-95273880D01*
X109910714Y-98829761D02*
X110053571Y-98877380D01*
X110291666Y-98877380D01*
X110386904Y-98829761D01*
X110434523Y-98782142D01*
X110482142Y-98686904D01*
X110482142Y-98591666D01*
X110434523Y-98496428D01*
X110386904Y-98448809D01*
X110291666Y-98401190D01*
X110101190Y-98353571D01*
X110005952Y-98305952D01*
X109958333Y-98258333D01*
X109910714Y-98163095D01*
X109910714Y-98067857D01*
X109958333Y-97972619D01*
X110005952Y-97925000D01*
X110101190Y-97877380D01*
X110339285Y-97877380D01*
X110482142Y-97925000D01*
X110910714Y-98877380D02*
X110910714Y-97877380D01*
X111148809Y-97877380D01*
X111291666Y-97925000D01*
X111386904Y-98020238D01*
X111434523Y-98115476D01*
X111482142Y-98305952D01*
X111482142Y-98448809D01*
X111434523Y-98639285D01*
X111386904Y-98734523D01*
X111291666Y-98829761D01*
X111148809Y-98877380D01*
X110910714Y-98877380D01*
X111863095Y-98591666D02*
X112339285Y-98591666D01*
X111767857Y-98877380D02*
X112101190Y-97877380D01*
X112434523Y-98877380D01*
X109855095Y-93797380D02*
X109855095Y-92797380D01*
X110426523Y-93797380D01*
X110426523Y-92797380D01*
X110807476Y-92797380D02*
X111474142Y-92797380D01*
X111045571Y-93797380D01*
X109918595Y-91257380D02*
X109918595Y-90257380D01*
X110490023Y-91257380D01*
X110490023Y-90257380D01*
X111394785Y-90257380D02*
X111204309Y-90257380D01*
X111109071Y-90305000D01*
X111061452Y-90352619D01*
X110966214Y-90495476D01*
X110918595Y-90685952D01*
X110918595Y-91066904D01*
X110966214Y-91162142D01*
X111013833Y-91209761D01*
X111109071Y-91257380D01*
X111299547Y-91257380D01*
X111394785Y-91209761D01*
X111442404Y-91162142D01*
X111490023Y-91066904D01*
X111490023Y-90828809D01*
X111442404Y-90733571D01*
X111394785Y-90685952D01*
X111299547Y-90638333D01*
X111109071Y-90638333D01*
X111013833Y-90685952D01*
X110966214Y-90733571D01*
X110918595Y-90828809D01*
X109918595Y-88717380D02*
X109918595Y-87717380D01*
X110490023Y-88717380D01*
X110490023Y-87717380D01*
X111442404Y-87717380D02*
X110966214Y-87717380D01*
X110918595Y-88193571D01*
X110966214Y-88145952D01*
X111061452Y-88098333D01*
X111299547Y-88098333D01*
X111394785Y-88145952D01*
X111442404Y-88193571D01*
X111490023Y-88288809D01*
X111490023Y-88526904D01*
X111442404Y-88622142D01*
X111394785Y-88669761D01*
X111299547Y-88717380D01*
X111061452Y-88717380D01*
X110966214Y-88669761D01*
X110918595Y-88622142D01*
X109982095Y-86113880D02*
X109982095Y-85113880D01*
X110553523Y-86113880D01*
X110553523Y-85113880D01*
X111458285Y-85447214D02*
X111458285Y-86113880D01*
X111220190Y-85066261D02*
X110982095Y-85780547D01*
X111601142Y-85780547D01*
X109982095Y-83637380D02*
X109982095Y-82637380D01*
X110553523Y-83637380D01*
X110553523Y-82637380D01*
X110934476Y-82637380D02*
X111553523Y-82637380D01*
X111220190Y-83018333D01*
X111363047Y-83018333D01*
X111458285Y-83065952D01*
X111505904Y-83113571D01*
X111553523Y-83208809D01*
X111553523Y-83446904D01*
X111505904Y-83542142D01*
X111458285Y-83589761D01*
X111363047Y-83637380D01*
X111077333Y-83637380D01*
X110982095Y-83589761D01*
X110934476Y-83542142D01*
X109982095Y-81033880D02*
X109982095Y-80033880D01*
X110553523Y-81033880D01*
X110553523Y-80033880D01*
X110982095Y-80129119D02*
X111029714Y-80081500D01*
X111124952Y-80033880D01*
X111363047Y-80033880D01*
X111458285Y-80081500D01*
X111505904Y-80129119D01*
X111553523Y-80224357D01*
X111553523Y-80319595D01*
X111505904Y-80462452D01*
X110934476Y-81033880D01*
X111553523Y-81033880D01*
X110045595Y-78557380D02*
X110045595Y-77557380D01*
X110617023Y-78557380D01*
X110617023Y-77557380D01*
X111617023Y-78557380D02*
X111045595Y-78557380D01*
X111331309Y-78557380D02*
X111331309Y-77557380D01*
X111236071Y-77700238D01*
X111140833Y-77795476D01*
X111045595Y-77843095D01*
X110045595Y-76017380D02*
X110045595Y-75017380D01*
X110617023Y-76017380D01*
X110617023Y-75017380D01*
X111283690Y-75017380D02*
X111378928Y-75017380D01*
X111474166Y-75065000D01*
X111521785Y-75112619D01*
X111569404Y-75207857D01*
X111617023Y-75398333D01*
X111617023Y-75636428D01*
X111569404Y-75826904D01*
X111521785Y-75922142D01*
X111474166Y-75969761D01*
X111378928Y-76017380D01*
X111283690Y-76017380D01*
X111188452Y-75969761D01*
X111140833Y-75922142D01*
X111093214Y-75826904D01*
X111045595Y-75636428D01*
X111045595Y-75398333D01*
X111093214Y-75207857D01*
X111140833Y-75112619D01*
X111188452Y-75065000D01*
X111283690Y-75017380D01*
X163068214Y-120229380D02*
X163068214Y-121038904D01*
X163115833Y-121134142D01*
X163163452Y-121181761D01*
X163258690Y-121229380D01*
X163449166Y-121229380D01*
X163544404Y-121181761D01*
X163592023Y-121134142D01*
X163639642Y-121038904D01*
X163639642Y-120229380D01*
X164068214Y-121181761D02*
X164211071Y-121229380D01*
X164449166Y-121229380D01*
X164544404Y-121181761D01*
X164592023Y-121134142D01*
X164639642Y-121038904D01*
X164639642Y-120943666D01*
X164592023Y-120848428D01*
X164544404Y-120800809D01*
X164449166Y-120753190D01*
X164258690Y-120705571D01*
X164163452Y-120657952D01*
X164115833Y-120610333D01*
X164068214Y-120515095D01*
X164068214Y-120419857D01*
X164115833Y-120324619D01*
X164163452Y-120277000D01*
X164258690Y-120229380D01*
X164496785Y-120229380D01*
X164639642Y-120277000D01*
X165068214Y-120705571D02*
X165401547Y-120705571D01*
X165544404Y-121229380D02*
X165068214Y-121229380D01*
X165068214Y-120229380D01*
X165544404Y-120229380D01*
X166544404Y-121229380D02*
X166211071Y-120753190D01*
X165972976Y-121229380D02*
X165972976Y-120229380D01*
X166353928Y-120229380D01*
X166449166Y-120277000D01*
X166496785Y-120324619D01*
X166544404Y-120419857D01*
X166544404Y-120562714D01*
X166496785Y-120657952D01*
X166449166Y-120705571D01*
X166353928Y-120753190D01*
X165972976Y-120753190D01*
X181094214Y-66762261D02*
X181237071Y-66809880D01*
X181475166Y-66809880D01*
X181570404Y-66762261D01*
X181618023Y-66714642D01*
X181665642Y-66619404D01*
X181665642Y-66524166D01*
X181618023Y-66428928D01*
X181570404Y-66381309D01*
X181475166Y-66333690D01*
X181284690Y-66286071D01*
X181189452Y-66238452D01*
X181141833Y-66190833D01*
X181094214Y-66095595D01*
X181094214Y-66000357D01*
X181141833Y-65905119D01*
X181189452Y-65857500D01*
X181284690Y-65809880D01*
X181522785Y-65809880D01*
X181665642Y-65857500D01*
X182094214Y-66809880D02*
X182094214Y-65809880D01*
X182332309Y-65809880D01*
X182475166Y-65857500D01*
X182570404Y-65952738D01*
X182618023Y-66047976D01*
X182665642Y-66238452D01*
X182665642Y-66381309D01*
X182618023Y-66571785D01*
X182570404Y-66667023D01*
X182475166Y-66762261D01*
X182332309Y-66809880D01*
X182094214Y-66809880D01*
X183046595Y-66524166D02*
X183522785Y-66524166D01*
X182951357Y-66809880D02*
X183284690Y-65809880D01*
X183618023Y-66809880D01*
X177435023Y-66762261D02*
X177577880Y-66809880D01*
X177815976Y-66809880D01*
X177911214Y-66762261D01*
X177958833Y-66714642D01*
X178006452Y-66619404D01*
X178006452Y-66524166D01*
X177958833Y-66428928D01*
X177911214Y-66381309D01*
X177815976Y-66333690D01*
X177625500Y-66286071D01*
X177530261Y-66238452D01*
X177482642Y-66190833D01*
X177435023Y-66095595D01*
X177435023Y-66000357D01*
X177482642Y-65905119D01*
X177530261Y-65857500D01*
X177625500Y-65809880D01*
X177863595Y-65809880D01*
X178006452Y-65857500D01*
X179006452Y-66714642D02*
X178958833Y-66762261D01*
X178815976Y-66809880D01*
X178720738Y-66809880D01*
X178577880Y-66762261D01*
X178482642Y-66667023D01*
X178435023Y-66571785D01*
X178387404Y-66381309D01*
X178387404Y-66238452D01*
X178435023Y-66047976D01*
X178482642Y-65952738D01*
X178577880Y-65857500D01*
X178720738Y-65809880D01*
X178815976Y-65809880D01*
X178958833Y-65857500D01*
X179006452Y-65905119D01*
X179911214Y-66809880D02*
X179435023Y-66809880D01*
X179435023Y-65809880D01*
X174180666Y-65809880D02*
X174514000Y-66809880D01*
X174847333Y-65809880D01*
X175752095Y-66714642D02*
X175704476Y-66762261D01*
X175561619Y-66809880D01*
X175466380Y-66809880D01*
X175323523Y-66762261D01*
X175228285Y-66667023D01*
X175180666Y-66571785D01*
X175133047Y-66381309D01*
X175133047Y-66238452D01*
X175180666Y-66047976D01*
X175228285Y-65952738D01*
X175323523Y-65857500D01*
X175466380Y-65809880D01*
X175561619Y-65809880D01*
X175704476Y-65857500D01*
X175752095Y-65905119D01*
X176752095Y-66714642D02*
X176704476Y-66762261D01*
X176561619Y-66809880D01*
X176466380Y-66809880D01*
X176323523Y-66762261D01*
X176228285Y-66667023D01*
X176180666Y-66571785D01*
X176133047Y-66381309D01*
X176133047Y-66238452D01*
X176180666Y-66047976D01*
X176228285Y-65952738D01*
X176323523Y-65857500D01*
X176466380Y-65809880D01*
X176561619Y-65809880D01*
X176704476Y-65857500D01*
X176752095Y-65905119D01*
X170878595Y-65857500D02*
X170783357Y-65809880D01*
X170640500Y-65809880D01*
X170497642Y-65857500D01*
X170402404Y-65952738D01*
X170354785Y-66047976D01*
X170307166Y-66238452D01*
X170307166Y-66381309D01*
X170354785Y-66571785D01*
X170402404Y-66667023D01*
X170497642Y-66762261D01*
X170640500Y-66809880D01*
X170735738Y-66809880D01*
X170878595Y-66762261D01*
X170926214Y-66714642D01*
X170926214Y-66381309D01*
X170735738Y-66381309D01*
X171354785Y-66809880D02*
X171354785Y-65809880D01*
X171926214Y-66809880D01*
X171926214Y-65809880D01*
X172402404Y-66809880D02*
X172402404Y-65809880D01*
X172640500Y-65809880D01*
X172783357Y-65857500D01*
X172878595Y-65952738D01*
X172926214Y-66047976D01*
X172973833Y-66238452D01*
X172973833Y-66381309D01*
X172926214Y-66571785D01*
X172878595Y-66667023D01*
X172783357Y-66762261D01*
X172640500Y-66809880D01*
X172402404Y-66809880D01*
X111347523Y-65222380D02*
X111014190Y-64746190D01*
X110776095Y-65222380D02*
X110776095Y-64222380D01*
X111157047Y-64222380D01*
X111252285Y-64270000D01*
X111299904Y-64317619D01*
X111347523Y-64412857D01*
X111347523Y-64555714D01*
X111299904Y-64650952D01*
X111252285Y-64698571D01*
X111157047Y-64746190D01*
X110776095Y-64746190D01*
X112204666Y-64555714D02*
X112204666Y-65222380D01*
X111776095Y-64555714D02*
X111776095Y-65079523D01*
X111823714Y-65174761D01*
X111918952Y-65222380D01*
X112061809Y-65222380D01*
X112157047Y-65174761D01*
X112204666Y-65127142D01*
X112680857Y-64555714D02*
X112680857Y-65222380D01*
X112680857Y-64650952D02*
X112728476Y-64603333D01*
X112823714Y-64555714D01*
X112966571Y-64555714D01*
X113061809Y-64603333D01*
X113109428Y-64698571D01*
X113109428Y-65222380D01*
X113585619Y-64555714D02*
X113585619Y-65222380D01*
X113585619Y-64650952D02*
X113633238Y-64603333D01*
X113728476Y-64555714D01*
X113871333Y-64555714D01*
X113966571Y-64603333D01*
X114014190Y-64698571D01*
X114014190Y-65222380D01*
X114490380Y-65222380D02*
X114490380Y-64555714D01*
X114490380Y-64222380D02*
X114442761Y-64270000D01*
X114490380Y-64317619D01*
X114538000Y-64270000D01*
X114490380Y-64222380D01*
X114490380Y-64317619D01*
X114966571Y-64555714D02*
X114966571Y-65222380D01*
X114966571Y-64650952D02*
X115014190Y-64603333D01*
X115109428Y-64555714D01*
X115252285Y-64555714D01*
X115347523Y-64603333D01*
X115395142Y-64698571D01*
X115395142Y-65222380D01*
X116299904Y-64555714D02*
X116299904Y-65365238D01*
X116252285Y-65460476D01*
X116204666Y-65508095D01*
X116109428Y-65555714D01*
X115966571Y-65555714D01*
X115871333Y-65508095D01*
X116299904Y-65174761D02*
X116204666Y-65222380D01*
X116014190Y-65222380D01*
X115918952Y-65174761D01*
X115871333Y-65127142D01*
X115823714Y-65031904D01*
X115823714Y-64746190D01*
X115871333Y-64650952D01*
X115918952Y-64603333D01*
X116014190Y-64555714D01*
X116204666Y-64555714D01*
X116299904Y-64603333D01*
D11*
X103822500Y-100139500D02*
X104140000Y-100139500D01*
X103886000Y-99822000D02*
X103886000Y-100139500D01*
X110109000Y-100139500D02*
X109664500Y-100139500D01*
X110109000Y-99695000D02*
X110109000Y-100203000D01*
X103886000Y-73660000D02*
X103886000Y-73850500D01*
X104076500Y-73660000D02*
X103886000Y-73660000D01*
D12*
X107696095Y-100766619D02*
X107743714Y-100719000D01*
X107838952Y-100671380D01*
X108077047Y-100671380D01*
X108172285Y-100719000D01*
X108219904Y-100766619D01*
X108267523Y-100861857D01*
X108267523Y-100957095D01*
X108219904Y-101099952D01*
X107648476Y-101671380D01*
X108267523Y-101671380D01*
X108886571Y-100671380D02*
X108981809Y-100671380D01*
X109077047Y-100719000D01*
X109124666Y-100766619D01*
X109172285Y-100861857D01*
X109219904Y-101052333D01*
X109219904Y-101290428D01*
X109172285Y-101480904D01*
X109124666Y-101576142D01*
X109077047Y-101623761D01*
X108981809Y-101671380D01*
X108886571Y-101671380D01*
X108791333Y-101623761D01*
X108743714Y-101576142D01*
X108696095Y-101480904D01*
X108648476Y-101290428D01*
X108648476Y-101052333D01*
X108696095Y-100861857D01*
X108743714Y-100766619D01*
X108791333Y-100719000D01*
X108886571Y-100671380D01*
X105537023Y-101734880D02*
X104965595Y-101734880D01*
X105251309Y-101734880D02*
X105251309Y-100734880D01*
X105156071Y-100877738D01*
X105060833Y-100972976D01*
X104965595Y-101020595D01*
X106013214Y-101734880D02*
X106203690Y-101734880D01*
X106298928Y-101687261D01*
X106346547Y-101639642D01*
X106441785Y-101496785D01*
X106489404Y-101306309D01*
X106489404Y-100925357D01*
X106441785Y-100830119D01*
X106394166Y-100782500D01*
X106298928Y-100734880D01*
X106108452Y-100734880D01*
X106013214Y-100782500D01*
X105965595Y-100830119D01*
X105917976Y-100925357D01*
X105917976Y-101163452D01*
X105965595Y-101258690D01*
X106013214Y-101306309D01*
X106108452Y-101353928D01*
X106298928Y-101353928D01*
X106394166Y-101306309D01*
X106441785Y-101258690D01*
X106489404Y-101163452D01*
X108108785Y-72382119D02*
X108156404Y-72334500D01*
X108251642Y-72286880D01*
X108489738Y-72286880D01*
X108584976Y-72334500D01*
X108632595Y-72382119D01*
X108680214Y-72477357D01*
X108680214Y-72572595D01*
X108632595Y-72715452D01*
X108061166Y-73286880D01*
X108680214Y-73286880D01*
X106140214Y-73350380D02*
X105568785Y-73350380D01*
X105854500Y-73350380D02*
X105854500Y-72350380D01*
X105759261Y-72493238D01*
X105664023Y-72588476D01*
X105568785Y-72636095D01*
X183983880Y-120531380D02*
X183983880Y-119531380D01*
X184317214Y-120245666D01*
X184650547Y-119531380D01*
X184650547Y-120531380D01*
X185031500Y-119531380D02*
X185650547Y-119531380D01*
X185317214Y-119912333D01*
X185460071Y-119912333D01*
X185555309Y-119959952D01*
X185602928Y-120007571D01*
X185650547Y-120102809D01*
X185650547Y-120340904D01*
X185602928Y-120436142D01*
X185555309Y-120483761D01*
X185460071Y-120531380D01*
X185174357Y-120531380D01*
X185079119Y-120483761D01*
X185031500Y-120436142D01*
X186841023Y-120531380D02*
X186841023Y-119531380D01*
X187174357Y-120245666D01*
X187507690Y-119531380D01*
X187507690Y-120531380D01*
X188126738Y-120531380D02*
X188031500Y-120483761D01*
X187983880Y-120436142D01*
X187936261Y-120340904D01*
X187936261Y-120055190D01*
X187983880Y-119959952D01*
X188031500Y-119912333D01*
X188126738Y-119864714D01*
X188269595Y-119864714D01*
X188364833Y-119912333D01*
X188412452Y-119959952D01*
X188460071Y-120055190D01*
X188460071Y-120340904D01*
X188412452Y-120436142D01*
X188364833Y-120483761D01*
X188269595Y-120531380D01*
X188126738Y-120531380D01*
X189317214Y-119864714D02*
X189317214Y-120531380D01*
X188888642Y-119864714D02*
X188888642Y-120388523D01*
X188936261Y-120483761D01*
X189031500Y-120531380D01*
X189174357Y-120531380D01*
X189269595Y-120483761D01*
X189317214Y-120436142D01*
X189793404Y-119864714D02*
X189793404Y-120531380D01*
X189793404Y-119959952D02*
X189841023Y-119912333D01*
X189936261Y-119864714D01*
X190079119Y-119864714D01*
X190174357Y-119912333D01*
X190221976Y-120007571D01*
X190221976Y-120531380D01*
X190555309Y-119864714D02*
X190936261Y-119864714D01*
X190698166Y-119531380D02*
X190698166Y-120388523D01*
X190745785Y-120483761D01*
X190841023Y-120531380D01*
X190936261Y-120531380D01*
X191269595Y-120531380D02*
X191269595Y-119864714D01*
X191269595Y-119531380D02*
X191221976Y-119579000D01*
X191269595Y-119626619D01*
X191317214Y-119579000D01*
X191269595Y-119531380D01*
X191269595Y-119626619D01*
X191745785Y-119864714D02*
X191745785Y-120531380D01*
X191745785Y-119959952D02*
X191793404Y-119912333D01*
X191888642Y-119864714D01*
X192031500Y-119864714D01*
X192126738Y-119912333D01*
X192174357Y-120007571D01*
X192174357Y-120531380D01*
X193079119Y-119864714D02*
X193079119Y-120674238D01*
X193031500Y-120769476D01*
X192983880Y-120817095D01*
X192888642Y-120864714D01*
X192745785Y-120864714D01*
X192650547Y-120817095D01*
X193079119Y-120483761D02*
X192983880Y-120531380D01*
X192793404Y-120531380D01*
X192698166Y-120483761D01*
X192650547Y-120436142D01*
X192602928Y-120340904D01*
X192602928Y-120055190D01*
X192650547Y-119959952D01*
X192698166Y-119912333D01*
X192793404Y-119864714D01*
X192983880Y-119864714D01*
X193079119Y-119912333D01*
X187102928Y-122181380D02*
X187102928Y-121181380D01*
X187102928Y-121657571D02*
X187674357Y-121657571D01*
X187674357Y-122181380D02*
X187674357Y-121181380D01*
X188293404Y-122181380D02*
X188198166Y-122133761D01*
X188150547Y-122086142D01*
X188102928Y-121990904D01*
X188102928Y-121705190D01*
X188150547Y-121609952D01*
X188198166Y-121562333D01*
X188293404Y-121514714D01*
X188436261Y-121514714D01*
X188531500Y-121562333D01*
X188579119Y-121609952D01*
X188626738Y-121705190D01*
X188626738Y-121990904D01*
X188579119Y-122086142D01*
X188531500Y-122133761D01*
X188436261Y-122181380D01*
X188293404Y-122181380D01*
X189198166Y-122181380D02*
X189102928Y-122133761D01*
X189055309Y-122038523D01*
X189055309Y-121181380D01*
X189960071Y-122133761D02*
X189864833Y-122181380D01*
X189674357Y-122181380D01*
X189579119Y-122133761D01*
X189531500Y-122038523D01*
X189531500Y-121657571D01*
X189579119Y-121562333D01*
X189674357Y-121514714D01*
X189864833Y-121514714D01*
X189960071Y-121562333D01*
X190007690Y-121657571D01*
X190007690Y-121752809D01*
X189531500Y-121848047D01*
D10*
X172823357Y-57205571D02*
X172966214Y-57253190D01*
X173013833Y-57300809D01*
X173061452Y-57396047D01*
X173061452Y-57538904D01*
X173013833Y-57634142D01*
X172966214Y-57681761D01*
X172870976Y-57729380D01*
X172490023Y-57729380D01*
X172490023Y-56729380D01*
X172823357Y-56729380D01*
X172918595Y-56777000D01*
X172966214Y-56824619D01*
X173013833Y-56919857D01*
X173013833Y-57015095D01*
X172966214Y-57110333D01*
X172918595Y-57157952D01*
X172823357Y-57205571D01*
X172490023Y-57205571D01*
X173680500Y-56729380D02*
X173870976Y-56729380D01*
X173966214Y-56777000D01*
X174061452Y-56872238D01*
X174109071Y-57062714D01*
X174109071Y-57396047D01*
X174061452Y-57586523D01*
X173966214Y-57681761D01*
X173870976Y-57729380D01*
X173680500Y-57729380D01*
X173585261Y-57681761D01*
X173490023Y-57586523D01*
X173442404Y-57396047D01*
X173442404Y-57062714D01*
X173490023Y-56872238D01*
X173585261Y-56777000D01*
X173680500Y-56729380D01*
X174728119Y-56729380D02*
X174918595Y-56729380D01*
X175013833Y-56777000D01*
X175109071Y-56872238D01*
X175156690Y-57062714D01*
X175156690Y-57396047D01*
X175109071Y-57586523D01*
X175013833Y-57681761D01*
X174918595Y-57729380D01*
X174728119Y-57729380D01*
X174632880Y-57681761D01*
X174537642Y-57586523D01*
X174490023Y-57396047D01*
X174490023Y-57062714D01*
X174537642Y-56872238D01*
X174632880Y-56777000D01*
X174728119Y-56729380D01*
X175442404Y-56729380D02*
X176013833Y-56729380D01*
X175728119Y-57729380D02*
X175728119Y-56729380D01*
X120912119Y-57856380D02*
X120578785Y-57380190D01*
X120340690Y-57856380D02*
X120340690Y-56856380D01*
X120721642Y-56856380D01*
X120816880Y-56904000D01*
X120864500Y-56951619D01*
X120912119Y-57046857D01*
X120912119Y-57189714D01*
X120864500Y-57284952D01*
X120816880Y-57332571D01*
X120721642Y-57380190D01*
X120340690Y-57380190D01*
X121340690Y-57332571D02*
X121674023Y-57332571D01*
X121816880Y-57856380D02*
X121340690Y-57856380D01*
X121340690Y-56856380D01*
X121816880Y-56856380D01*
X122197833Y-57808761D02*
X122340690Y-57856380D01*
X122578785Y-57856380D01*
X122674023Y-57808761D01*
X122721642Y-57761142D01*
X122769261Y-57665904D01*
X122769261Y-57570666D01*
X122721642Y-57475428D01*
X122674023Y-57427809D01*
X122578785Y-57380190D01*
X122388309Y-57332571D01*
X122293071Y-57284952D01*
X122245452Y-57237333D01*
X122197833Y-57142095D01*
X122197833Y-57046857D01*
X122245452Y-56951619D01*
X122293071Y-56904000D01*
X122388309Y-56856380D01*
X122626404Y-56856380D01*
X122769261Y-56904000D01*
X123197833Y-57332571D02*
X123531166Y-57332571D01*
X123674023Y-57856380D02*
X123197833Y-57856380D01*
X123197833Y-56856380D01*
X123674023Y-56856380D01*
X123959738Y-56856380D02*
X124531166Y-56856380D01*
X124245452Y-57856380D02*
X124245452Y-56856380D01*
D11*
X173876580Y-72328500D02*
X173595420Y-72328500D01*
X173876580Y-71308500D02*
X173595420Y-71308500D01*
X133988436Y-89879500D02*
X134442564Y-89879500D01*
X133988436Y-91349500D02*
X134442564Y-91349500D01*
X131628000Y-92618500D02*
G75*
G03*
X131628000Y-92618500I-4120000J0D01*
G01*
X131588000Y-92618500D02*
X123428000Y-92618500D01*
X131588000Y-92658500D02*
X123428000Y-92658500D01*
X131588000Y-92698500D02*
X123428000Y-92698500D01*
X131587000Y-92738500D02*
X123429000Y-92738500D01*
X131585000Y-92778500D02*
X123431000Y-92778500D01*
X131584000Y-92818500D02*
X123432000Y-92818500D01*
X131582000Y-92858500D02*
X123434000Y-92858500D01*
X131579000Y-92898500D02*
X123437000Y-92898500D01*
X131576000Y-92938500D02*
X123440000Y-92938500D01*
X131573000Y-92978500D02*
X123443000Y-92978500D01*
X131569000Y-93018500D02*
X123447000Y-93018500D01*
X131565000Y-93058500D02*
X123451000Y-93058500D01*
X131560000Y-93098500D02*
X123456000Y-93098500D01*
X131556000Y-93138500D02*
X123460000Y-93138500D01*
X131550000Y-93178500D02*
X123466000Y-93178500D01*
X131545000Y-93218500D02*
X123471000Y-93218500D01*
X131538000Y-93258500D02*
X123478000Y-93258500D01*
X131532000Y-93298500D02*
X123484000Y-93298500D01*
X131525000Y-93339500D02*
X128548000Y-93339500D01*
X126468000Y-93339500D02*
X123491000Y-93339500D01*
X131518000Y-93379500D02*
X128548000Y-93379500D01*
X126468000Y-93379500D02*
X123498000Y-93379500D01*
X131510000Y-93419500D02*
X128548000Y-93419500D01*
X126468000Y-93419500D02*
X123506000Y-93419500D01*
X131502000Y-93459500D02*
X128548000Y-93459500D01*
X126468000Y-93459500D02*
X123514000Y-93459500D01*
X131493000Y-93499500D02*
X128548000Y-93499500D01*
X126468000Y-93499500D02*
X123523000Y-93499500D01*
X131484000Y-93539500D02*
X128548000Y-93539500D01*
X126468000Y-93539500D02*
X123532000Y-93539500D01*
X131475000Y-93579500D02*
X128548000Y-93579500D01*
X126468000Y-93579500D02*
X123541000Y-93579500D01*
X131465000Y-93619500D02*
X128548000Y-93619500D01*
X126468000Y-93619500D02*
X123551000Y-93619500D01*
X131455000Y-93659500D02*
X128548000Y-93659500D01*
X126468000Y-93659500D02*
X123561000Y-93659500D01*
X131444000Y-93699500D02*
X128548000Y-93699500D01*
X126468000Y-93699500D02*
X123572000Y-93699500D01*
X131433000Y-93739500D02*
X128548000Y-93739500D01*
X126468000Y-93739500D02*
X123583000Y-93739500D01*
X131422000Y-93779500D02*
X128548000Y-93779500D01*
X126468000Y-93779500D02*
X123594000Y-93779500D01*
X131410000Y-93819500D02*
X128548000Y-93819500D01*
X126468000Y-93819500D02*
X123606000Y-93819500D01*
X131397000Y-93859500D02*
X128548000Y-93859500D01*
X126468000Y-93859500D02*
X123619000Y-93859500D01*
X131385000Y-93899500D02*
X128548000Y-93899500D01*
X126468000Y-93899500D02*
X123631000Y-93899500D01*
X131371000Y-93939500D02*
X128548000Y-93939500D01*
X126468000Y-93939500D02*
X123645000Y-93939500D01*
X131358000Y-93979500D02*
X128548000Y-93979500D01*
X126468000Y-93979500D02*
X123658000Y-93979500D01*
X131343000Y-94019500D02*
X128548000Y-94019500D01*
X126468000Y-94019500D02*
X123673000Y-94019500D01*
X131329000Y-94059500D02*
X128548000Y-94059500D01*
X126468000Y-94059500D02*
X123687000Y-94059500D01*
X131313000Y-94099500D02*
X128548000Y-94099500D01*
X126468000Y-94099500D02*
X123703000Y-94099500D01*
X131298000Y-94139500D02*
X128548000Y-94139500D01*
X126468000Y-94139500D02*
X123718000Y-94139500D01*
X131282000Y-94179500D02*
X128548000Y-94179500D01*
X126468000Y-94179500D02*
X123734000Y-94179500D01*
X131265000Y-94219500D02*
X128548000Y-94219500D01*
X126468000Y-94219500D02*
X123751000Y-94219500D01*
X131248000Y-94259500D02*
X128548000Y-94259500D01*
X126468000Y-94259500D02*
X123768000Y-94259500D01*
X131230000Y-94299500D02*
X128548000Y-94299500D01*
X126468000Y-94299500D02*
X123786000Y-94299500D01*
X131212000Y-94339500D02*
X128548000Y-94339500D01*
X126468000Y-94339500D02*
X123804000Y-94339500D01*
X131194000Y-94379500D02*
X128548000Y-94379500D01*
X126468000Y-94379500D02*
X123822000Y-94379500D01*
X131174000Y-94419500D02*
X128548000Y-94419500D01*
X126468000Y-94419500D02*
X123842000Y-94419500D01*
X131155000Y-94459500D02*
X128548000Y-94459500D01*
X126468000Y-94459500D02*
X123861000Y-94459500D01*
X131135000Y-94499500D02*
X128548000Y-94499500D01*
X126468000Y-94499500D02*
X123881000Y-94499500D01*
X131114000Y-94539500D02*
X128548000Y-94539500D01*
X126468000Y-94539500D02*
X123902000Y-94539500D01*
X131092000Y-94579500D02*
X128548000Y-94579500D01*
X126468000Y-94579500D02*
X123924000Y-94579500D01*
X131070000Y-94619500D02*
X128548000Y-94619500D01*
X126468000Y-94619500D02*
X123946000Y-94619500D01*
X131048000Y-94659500D02*
X128548000Y-94659500D01*
X126468000Y-94659500D02*
X123968000Y-94659500D01*
X131025000Y-94699500D02*
X128548000Y-94699500D01*
X126468000Y-94699500D02*
X123991000Y-94699500D01*
X131001000Y-94739500D02*
X128548000Y-94739500D01*
X126468000Y-94739500D02*
X124015000Y-94739500D01*
X130977000Y-94779500D02*
X128548000Y-94779500D01*
X126468000Y-94779500D02*
X124039000Y-94779500D01*
X130952000Y-94819500D02*
X128548000Y-94819500D01*
X126468000Y-94819500D02*
X124064000Y-94819500D01*
X130926000Y-94859500D02*
X128548000Y-94859500D01*
X126468000Y-94859500D02*
X124090000Y-94859500D01*
X130900000Y-94899500D02*
X128548000Y-94899500D01*
X126468000Y-94899500D02*
X124116000Y-94899500D01*
X130873000Y-94939500D02*
X128548000Y-94939500D01*
X126468000Y-94939500D02*
X124143000Y-94939500D01*
X130846000Y-94979500D02*
X128548000Y-94979500D01*
X126468000Y-94979500D02*
X124170000Y-94979500D01*
X130817000Y-95019500D02*
X128548000Y-95019500D01*
X126468000Y-95019500D02*
X124199000Y-95019500D01*
X130788000Y-95059500D02*
X128548000Y-95059500D01*
X126468000Y-95059500D02*
X124228000Y-95059500D01*
X130758000Y-95099500D02*
X128548000Y-95099500D01*
X126468000Y-95099500D02*
X124258000Y-95099500D01*
X130728000Y-95139500D02*
X128548000Y-95139500D01*
X126468000Y-95139500D02*
X124288000Y-95139500D01*
X130697000Y-95179500D02*
X128548000Y-95179500D01*
X126468000Y-95179500D02*
X124319000Y-95179500D01*
X130664000Y-95219500D02*
X128548000Y-95219500D01*
X126468000Y-95219500D02*
X124352000Y-95219500D01*
X130632000Y-95259500D02*
X128548000Y-95259500D01*
X126468000Y-95259500D02*
X124384000Y-95259500D01*
X130598000Y-95299500D02*
X128548000Y-95299500D01*
X126468000Y-95299500D02*
X124418000Y-95299500D01*
X130563000Y-95339500D02*
X128548000Y-95339500D01*
X126468000Y-95339500D02*
X124453000Y-95339500D01*
X130527000Y-95379500D02*
X128548000Y-95379500D01*
X126468000Y-95379500D02*
X124489000Y-95379500D01*
X130491000Y-95419500D02*
X124525000Y-95419500D01*
X130453000Y-95459500D02*
X124563000Y-95459500D01*
X130415000Y-95499500D02*
X124601000Y-95499500D01*
X130375000Y-95539500D02*
X124641000Y-95539500D01*
X130334000Y-95579500D02*
X124682000Y-95579500D01*
X130292000Y-95619500D02*
X124724000Y-95619500D01*
X130249000Y-95659500D02*
X124767000Y-95659500D01*
X130205000Y-95699500D02*
X124811000Y-95699500D01*
X130159000Y-95739500D02*
X124857000Y-95739500D01*
X130112000Y-95779500D02*
X124904000Y-95779500D01*
X130064000Y-95819500D02*
X124952000Y-95819500D01*
X130013000Y-95859500D02*
X125003000Y-95859500D01*
X129962000Y-95899500D02*
X125054000Y-95899500D01*
X129908000Y-95939500D02*
X125108000Y-95939500D01*
X129853000Y-95979500D02*
X125163000Y-95979500D01*
X129795000Y-96019500D02*
X125221000Y-96019500D01*
X129736000Y-96059500D02*
X125280000Y-96059500D01*
X129674000Y-96099500D02*
X125342000Y-96099500D01*
X129610000Y-96139500D02*
X125406000Y-96139500D01*
X129542000Y-96179500D02*
X125474000Y-96179500D01*
X129472000Y-96219500D02*
X125544000Y-96219500D01*
X129398000Y-96259500D02*
X125618000Y-96259500D01*
X129321000Y-96299500D02*
X125695000Y-96299500D01*
X129239000Y-96339500D02*
X125777000Y-96339500D01*
X129153000Y-96379500D02*
X125863000Y-96379500D01*
X129060000Y-96419500D02*
X125956000Y-96419500D01*
X128961000Y-96459500D02*
X126055000Y-96459500D01*
X128854000Y-96499500D02*
X126162000Y-96499500D01*
X128737000Y-96539500D02*
X126279000Y-96539500D01*
X128606000Y-96579500D02*
X126410000Y-96579500D01*
X128456000Y-96619500D02*
X126560000Y-96619500D01*
X128276000Y-96659500D02*
X126740000Y-96659500D01*
X128041000Y-96699500D02*
X126975000Y-96699500D01*
X129823000Y-88208802D02*
X129823000Y-89008802D01*
X130223000Y-88608802D02*
X129423000Y-88608802D01*
X132395500Y-93435080D02*
X132395500Y-93153920D01*
X133415500Y-93435080D02*
X133415500Y-93153920D01*
X135955500Y-93127920D02*
X135955500Y-93409080D01*
X134935500Y-93127920D02*
X134935500Y-93409080D01*
X136650000Y-93371580D02*
X136650000Y-93090420D01*
X137670000Y-93371580D02*
X137670000Y-93090420D01*
X162383499Y-119376000D02*
X161893499Y-118886000D01*
X162383499Y-122276000D02*
X162383499Y-119376000D01*
X162383499Y-122276000D02*
X161893499Y-122766000D01*
X156943499Y-122276000D02*
X156943499Y-119376000D01*
X156943499Y-122276000D02*
X157433499Y-122766000D01*
X160703499Y-118106000D02*
X158623499Y-118106000D01*
X156943499Y-119376000D02*
X157433499Y-118886000D01*
X160703499Y-123546000D02*
X158623499Y-123546000D01*
X155052500Y-119905242D02*
X155052500Y-120379758D01*
X156097500Y-119905242D02*
X156097500Y-120379758D01*
X156085000Y-123534080D02*
X156085000Y-123252920D01*
X155065000Y-123534080D02*
X155065000Y-123252920D01*
X179595242Y-72341000D02*
X180069758Y-72341000D01*
X179595242Y-71296000D02*
X180069758Y-71296000D01*
X176958258Y-71296000D02*
X176483742Y-71296000D01*
X176958258Y-72341000D02*
X176483742Y-72341000D01*
X138630204Y-56560179D02*
X138630204Y-56279019D01*
X137610204Y-56560179D02*
X137610204Y-56279019D01*
X136022703Y-56253019D02*
X136022703Y-56534179D01*
X137042703Y-56253019D02*
X137042703Y-56534179D01*
X173446401Y-112274203D02*
X173446401Y-113674203D01*
X175766401Y-113674203D02*
X175766401Y-111774203D01*
X176946795Y-109017401D02*
X177671795Y-109017401D01*
X172451795Y-103797401D02*
X172451795Y-104522401D01*
X173176795Y-103797401D02*
X172451795Y-103797401D01*
X177671795Y-103797401D02*
X177671795Y-104522401D01*
X176946795Y-103797401D02*
X177671795Y-103797401D01*
X172451795Y-109017401D02*
X172451795Y-108292401D01*
X173176795Y-109017401D02*
X172451795Y-109017401D01*
X140089000Y-54492500D02*
X139709000Y-54492500D01*
X140089000Y-48072500D02*
X140089000Y-54492500D01*
X158329000Y-48072500D02*
X158329000Y-54492500D01*
X140089000Y-48072500D02*
X158329000Y-48072500D01*
X158329000Y-73817500D02*
X157329000Y-73817500D01*
X158329000Y-73037500D02*
X158329000Y-73817500D01*
X140089000Y-73817500D02*
X141089000Y-73817500D01*
X140089000Y-73037500D02*
X140089000Y-73817500D01*
X118991684Y-55852644D02*
X118991684Y-55652644D01*
X118991684Y-55652644D02*
X113991684Y-55652644D01*
X113991684Y-55652644D02*
X113991684Y-55852644D01*
X113991684Y-58452644D02*
X113991684Y-58652644D01*
X113991684Y-58652644D02*
X118991684Y-58652644D01*
X118991684Y-58652644D02*
X118991684Y-58452644D01*
X177058204Y-58288099D02*
X177058204Y-58488099D01*
X177058204Y-58488099D02*
X182058204Y-58488099D01*
X182058204Y-58488099D02*
X182058204Y-58288099D01*
X182058204Y-55688099D02*
X182058204Y-55488099D01*
X182058204Y-55488099D02*
X177058204Y-55488099D01*
X177058204Y-55488099D02*
X177058204Y-55688099D01*
X143827204Y-116167099D02*
G75*
G03*
X143827204Y-116167099I-3000000J0D01*
G01*
X146727204Y-118167099D02*
X146727204Y-122267099D01*
X134927204Y-122267099D02*
X134927204Y-118167099D01*
X134927204Y-114167099D02*
X134927204Y-110067099D01*
X146727204Y-114167099D02*
X146727204Y-110067099D01*
X146727204Y-110067099D02*
X134927204Y-110067099D01*
X144627204Y-108667099D02*
X144927204Y-108367099D01*
X144927204Y-108367099D02*
X144927204Y-108967099D01*
X144927204Y-108967099D02*
X144627204Y-108667099D01*
X146727204Y-122267099D02*
X144327204Y-122267099D01*
X142127204Y-122267099D02*
X139527204Y-122267099D01*
X137327204Y-122267099D02*
X134927204Y-122267099D01*
X141327204Y-116167099D02*
X140327204Y-116167099D01*
X140827204Y-115667099D02*
X140827204Y-116667099D01*
X172257901Y-112693563D02*
X172257901Y-113000845D01*
X173017901Y-112693563D02*
X173017901Y-113000845D01*
X191309258Y-105586000D02*
X190834742Y-105586000D01*
X191309258Y-106631000D02*
X190834742Y-106631000D01*
X176954900Y-112998845D02*
X176954900Y-112691563D01*
X176194900Y-112998845D02*
X176194900Y-112691563D01*
X186528655Y-113073902D02*
X186835937Y-113073902D01*
X186528655Y-112313902D02*
X186835937Y-112313902D01*
X185857797Y-114254759D02*
X185857797Y-114562041D01*
X186617797Y-114254759D02*
X186617797Y-114562041D01*
X110927705Y-107033340D02*
X110927705Y-107507856D01*
X111972705Y-107033340D02*
X111972705Y-107507856D01*
X117052705Y-107633856D02*
X117052705Y-107159340D01*
X116007705Y-107633856D02*
X116007705Y-107159340D01*
X115946733Y-118635901D02*
X116400861Y-118635901D01*
X115946733Y-117165901D02*
X116400861Y-117165901D01*
X118252943Y-59233644D02*
X117778427Y-59233644D01*
X118252943Y-60278644D02*
X117778427Y-60278644D01*
X108703462Y-64139099D02*
X108228946Y-64139099D01*
X108703462Y-65184099D02*
X108228946Y-65184099D01*
X177824445Y-60040599D02*
X178298961Y-60040599D01*
X177824445Y-58995599D02*
X178298961Y-58995599D01*
X149210500Y-117809742D02*
X149210500Y-118284258D01*
X150255500Y-117809742D02*
X150255500Y-118284258D01*
X142454947Y-106522599D02*
X142929463Y-106522599D01*
X142454947Y-105477599D02*
X142929463Y-105477599D01*
X139500462Y-105477599D02*
X139025946Y-105477599D01*
X139500462Y-106522599D02*
X139025946Y-106522599D01*
X114750204Y-108786599D02*
X113290204Y-108786599D01*
X114750204Y-105626599D02*
X112590204Y-105626599D01*
X114750204Y-105626599D02*
X114750204Y-106556599D01*
X114750204Y-108786599D02*
X114750204Y-107856599D01*
X164654500Y-61683141D02*
X164654500Y-61375859D01*
X163894500Y-61683141D02*
X163894500Y-61375859D01*
X166115000Y-59970641D02*
X166115000Y-59663359D01*
X165355000Y-59970641D02*
X165355000Y-59663359D01*
X190449295Y-112850401D02*
X189999295Y-113250401D01*
X189999295Y-113250401D02*
X189999295Y-112450401D01*
X189999295Y-112450401D02*
X190449295Y-112850401D01*
X196049295Y-107700401D02*
X193249295Y-107700401D01*
X193249295Y-107700401D02*
X193249295Y-107400401D01*
X193249295Y-107400401D02*
X191699295Y-107400401D01*
X196049295Y-115400401D02*
X193249295Y-115400401D01*
X193249295Y-115700401D02*
X193249295Y-115400401D01*
X193249295Y-115700401D02*
X191699295Y-115700401D01*
X171707500Y-70246099D02*
X171707500Y-68916099D01*
X173037500Y-70246099D02*
X171707500Y-70246099D01*
X174307500Y-70246099D02*
X174307500Y-67586099D01*
X174307500Y-67586099D02*
X181987500Y-67586099D01*
X174307500Y-70246099D02*
X181987500Y-70246099D01*
X181987500Y-70246099D02*
X181987500Y-67586099D01*
X171003500Y-55151000D02*
X171003500Y-56261000D01*
X170243500Y-55151000D02*
X171003500Y-55151000D01*
X169483500Y-56824471D02*
X169483500Y-57371000D01*
X169483500Y-55151000D02*
X169483500Y-55697529D01*
X169483500Y-57371000D02*
X167008500Y-57371000D01*
X169483500Y-55151000D02*
X167008500Y-55151000D01*
X167008500Y-56568530D02*
X167008500Y-57371000D01*
X167008500Y-55151000D02*
X167008500Y-55953470D01*
X188326044Y-115143400D02*
X188848548Y-115143400D01*
X188326044Y-113673400D02*
X188848548Y-113673400D01*
X184961500Y-110640500D02*
X187911500Y-110640500D01*
X187361500Y-107540500D02*
X184961500Y-107540500D01*
X114326296Y-116940900D02*
X111641296Y-116940900D01*
X114326296Y-118860900D02*
X114326296Y-116940900D01*
X111641296Y-118860900D02*
X114326296Y-118860900D01*
X103932704Y-65396599D02*
X106217704Y-65396599D01*
X103932704Y-63926599D02*
X103932704Y-65396599D01*
X106217704Y-63926599D02*
X103932704Y-63926599D01*
X188690000Y-73537000D02*
X189840000Y-73537000D01*
X188690000Y-66237000D02*
X188690000Y-73537000D01*
X194190000Y-66237000D02*
X194190000Y-73537000D01*
X194247080Y-105598500D02*
X193965920Y-105598500D01*
X194247080Y-106618500D02*
X193965920Y-106618500D01*
X175569217Y-100821401D02*
X175850377Y-100821401D01*
X175569217Y-99801401D02*
X175850377Y-99801401D01*
X180774795Y-106063321D02*
X180774795Y-106344481D01*
X181794795Y-106063321D02*
X181794795Y-106344481D01*
X175556216Y-102345401D02*
X175837376Y-102345401D01*
X175556216Y-101325401D02*
X175837376Y-101325401D01*
X179250797Y-106076322D02*
X179250797Y-106357482D01*
X180270797Y-106076322D02*
X180270797Y-106357482D01*
X135789580Y-62799500D02*
X135508420Y-62799500D01*
X135789580Y-63819500D02*
X135508420Y-63819500D01*
X114827103Y-60266144D02*
X115108263Y-60266144D01*
X114827103Y-59246144D02*
X115108263Y-59246144D01*
X181250283Y-59008098D02*
X180969123Y-59008098D01*
X181250283Y-60028098D02*
X180969123Y-60028098D01*
X135726080Y-58926000D02*
X135444920Y-58926000D01*
X135726080Y-59946000D02*
X135444920Y-59946000D01*
X135482420Y-61470000D02*
X135763580Y-61470000D01*
X135482420Y-60450000D02*
X135763580Y-60450000D01*
X116787000Y-110191000D02*
X112317000Y-110191000D01*
X116787000Y-115591000D02*
X116787000Y-110191000D01*
X111357000Y-115591000D02*
X116787000Y-115591000D01*
X111357000Y-111151000D02*
X111357000Y-115591000D01*
X111357000Y-111151000D02*
X112317000Y-110191000D01*
D12*
X114097000Y-116001000D02*
X114667000Y-116001000D01*
X114387000Y-116311000D02*
X114387000Y-115701000D01*
X114477000Y-109981000D02*
X114477000Y-109511000D01*
X172489833Y-73636142D02*
X172442214Y-73683761D01*
X172299357Y-73731380D01*
X172204119Y-73731380D01*
X172061261Y-73683761D01*
X171966023Y-73588523D01*
X171918404Y-73493285D01*
X171870785Y-73302809D01*
X171870785Y-73159952D01*
X171918404Y-72969476D01*
X171966023Y-72874238D01*
X172061261Y-72779000D01*
X172204119Y-72731380D01*
X172299357Y-72731380D01*
X172442214Y-72779000D01*
X172489833Y-72826619D01*
X172823166Y-72731380D02*
X173442214Y-72731380D01*
X173108880Y-73112333D01*
X173251738Y-73112333D01*
X173346976Y-73159952D01*
X173394595Y-73207571D01*
X173442214Y-73302809D01*
X173442214Y-73540904D01*
X173394595Y-73636142D01*
X173346976Y-73683761D01*
X173251738Y-73731380D01*
X172966023Y-73731380D01*
X172870785Y-73683761D01*
X172823166Y-73636142D01*
X133382166Y-88893071D02*
X133048833Y-88893071D01*
X133048833Y-89416880D02*
X133048833Y-88416880D01*
X133525023Y-88416880D01*
X134239309Y-88893071D02*
X134382166Y-88940690D01*
X134429785Y-88988309D01*
X134477404Y-89083547D01*
X134477404Y-89226404D01*
X134429785Y-89321642D01*
X134382166Y-89369261D01*
X134286928Y-89416880D01*
X133905976Y-89416880D01*
X133905976Y-88416880D01*
X134239309Y-88416880D01*
X134334547Y-88464500D01*
X134382166Y-88512119D01*
X134429785Y-88607357D01*
X134429785Y-88702595D01*
X134382166Y-88797833D01*
X134334547Y-88845452D01*
X134239309Y-88893071D01*
X133905976Y-88893071D01*
X135429785Y-89416880D02*
X134858357Y-89416880D01*
X135144071Y-89416880D02*
X135144071Y-88416880D01*
X135048833Y-88559738D01*
X134953595Y-88654976D01*
X134858357Y-88702595D01*
X126992142Y-98027642D02*
X126944523Y-98075261D01*
X126801666Y-98122880D01*
X126706428Y-98122880D01*
X126563571Y-98075261D01*
X126468333Y-97980023D01*
X126420714Y-97884785D01*
X126373095Y-97694309D01*
X126373095Y-97551452D01*
X126420714Y-97360976D01*
X126468333Y-97265738D01*
X126563571Y-97170500D01*
X126706428Y-97122880D01*
X126801666Y-97122880D01*
X126944523Y-97170500D01*
X126992142Y-97218119D01*
X127944523Y-98122880D02*
X127373095Y-98122880D01*
X127658809Y-98122880D02*
X127658809Y-97122880D01*
X127563571Y-97265738D01*
X127468333Y-97360976D01*
X127373095Y-97408595D01*
X128277857Y-97122880D02*
X128896904Y-97122880D01*
X128563571Y-97503833D01*
X128706428Y-97503833D01*
X128801666Y-97551452D01*
X128849285Y-97599071D01*
X128896904Y-97694309D01*
X128896904Y-97932404D01*
X128849285Y-98027642D01*
X128801666Y-98075261D01*
X128706428Y-98122880D01*
X128420714Y-98122880D01*
X128325476Y-98075261D01*
X128277857Y-98027642D01*
X131691142Y-95924642D02*
X131643523Y-95972261D01*
X131500666Y-96019880D01*
X131405428Y-96019880D01*
X131262571Y-95972261D01*
X131167333Y-95877023D01*
X131119714Y-95781785D01*
X131072095Y-95591309D01*
X131072095Y-95448452D01*
X131119714Y-95257976D01*
X131167333Y-95162738D01*
X131262571Y-95067500D01*
X131405428Y-95019880D01*
X131500666Y-95019880D01*
X131643523Y-95067500D01*
X131691142Y-95115119D01*
X132643523Y-96019880D02*
X132072095Y-96019880D01*
X132357809Y-96019880D02*
X132357809Y-95019880D01*
X132262571Y-95162738D01*
X132167333Y-95257976D01*
X132072095Y-95305595D01*
X133024476Y-95115119D02*
X133072095Y-95067500D01*
X133167333Y-95019880D01*
X133405428Y-95019880D01*
X133500666Y-95067500D01*
X133548285Y-95115119D01*
X133595904Y-95210357D01*
X133595904Y-95305595D01*
X133548285Y-95448452D01*
X132976857Y-96019880D01*
X133595904Y-96019880D01*
X135120142Y-95861142D02*
X135072523Y-95908761D01*
X134929666Y-95956380D01*
X134834428Y-95956380D01*
X134691571Y-95908761D01*
X134596333Y-95813523D01*
X134548714Y-95718285D01*
X134501095Y-95527809D01*
X134501095Y-95384952D01*
X134548714Y-95194476D01*
X134596333Y-95099238D01*
X134691571Y-95004000D01*
X134834428Y-94956380D01*
X134929666Y-94956380D01*
X135072523Y-95004000D01*
X135120142Y-95051619D01*
X136072523Y-95956380D02*
X135501095Y-95956380D01*
X135786809Y-95956380D02*
X135786809Y-94956380D01*
X135691571Y-95099238D01*
X135596333Y-95194476D01*
X135501095Y-95242095D01*
X137024904Y-95956380D02*
X136453476Y-95956380D01*
X136739190Y-95956380D02*
X136739190Y-94956380D01*
X136643952Y-95099238D01*
X136548714Y-95194476D01*
X136453476Y-95242095D01*
X136898142Y-91352642D02*
X136850523Y-91400261D01*
X136707666Y-91447880D01*
X136612428Y-91447880D01*
X136469571Y-91400261D01*
X136374333Y-91305023D01*
X136326714Y-91209785D01*
X136279095Y-91019309D01*
X136279095Y-90876452D01*
X136326714Y-90685976D01*
X136374333Y-90590738D01*
X136469571Y-90495500D01*
X136612428Y-90447880D01*
X136707666Y-90447880D01*
X136850523Y-90495500D01*
X136898142Y-90543119D01*
X137850523Y-91447880D02*
X137279095Y-91447880D01*
X137564809Y-91447880D02*
X137564809Y-90447880D01*
X137469571Y-90590738D01*
X137374333Y-90685976D01*
X137279095Y-90733595D01*
X138469571Y-90447880D02*
X138564809Y-90447880D01*
X138660047Y-90495500D01*
X138707666Y-90543119D01*
X138755285Y-90638357D01*
X138802904Y-90828833D01*
X138802904Y-91066928D01*
X138755285Y-91257404D01*
X138707666Y-91352642D01*
X138660047Y-91400261D01*
X138564809Y-91447880D01*
X138469571Y-91447880D01*
X138374333Y-91400261D01*
X138326714Y-91352642D01*
X138279095Y-91257404D01*
X138231476Y-91066928D01*
X138231476Y-90828833D01*
X138279095Y-90638357D01*
X138326714Y-90543119D01*
X138374333Y-90495500D01*
X138469571Y-90447880D01*
X155408333Y-118435880D02*
X155075000Y-117959690D01*
X154836904Y-118435880D02*
X154836904Y-117435880D01*
X155217857Y-117435880D01*
X155313095Y-117483500D01*
X155360714Y-117531119D01*
X155408333Y-117626357D01*
X155408333Y-117769214D01*
X155360714Y-117864452D01*
X155313095Y-117912071D01*
X155217857Y-117959690D01*
X154836904Y-117959690D01*
X156265476Y-117769214D02*
X156265476Y-118435880D01*
X156027380Y-117388261D02*
X155789285Y-118102547D01*
X156408333Y-118102547D01*
X153630333Y-124817142D02*
X153582714Y-124864761D01*
X153439857Y-124912380D01*
X153344619Y-124912380D01*
X153201761Y-124864761D01*
X153106523Y-124769523D01*
X153058904Y-124674285D01*
X153011285Y-124483809D01*
X153011285Y-124340952D01*
X153058904Y-124150476D01*
X153106523Y-124055238D01*
X153201761Y-123960000D01*
X153344619Y-123912380D01*
X153439857Y-123912380D01*
X153582714Y-123960000D01*
X153630333Y-124007619D01*
X154487476Y-123912380D02*
X154297000Y-123912380D01*
X154201761Y-123960000D01*
X154154142Y-124007619D01*
X154058904Y-124150476D01*
X154011285Y-124340952D01*
X154011285Y-124721904D01*
X154058904Y-124817142D01*
X154106523Y-124864761D01*
X154201761Y-124912380D01*
X154392238Y-124912380D01*
X154487476Y-124864761D01*
X154535095Y-124817142D01*
X154582714Y-124721904D01*
X154582714Y-124483809D01*
X154535095Y-124388571D01*
X154487476Y-124340952D01*
X154392238Y-124293333D01*
X154201761Y-124293333D01*
X154106523Y-124340952D01*
X154058904Y-124388571D01*
X154011285Y-124483809D01*
X181783642Y-72491380D02*
X181450309Y-72015190D01*
X181212214Y-72491380D02*
X181212214Y-71491380D01*
X181593166Y-71491380D01*
X181688404Y-71539000D01*
X181736023Y-71586619D01*
X181783642Y-71681857D01*
X181783642Y-71824714D01*
X181736023Y-71919952D01*
X181688404Y-71967571D01*
X181593166Y-72015190D01*
X181212214Y-72015190D01*
X182736023Y-72491380D02*
X182164595Y-72491380D01*
X182450309Y-72491380D02*
X182450309Y-71491380D01*
X182355071Y-71634238D01*
X182259833Y-71729476D01*
X182164595Y-71777095D01*
X183355071Y-71491380D02*
X183450309Y-71491380D01*
X183545547Y-71539000D01*
X183593166Y-71586619D01*
X183640785Y-71681857D01*
X183688404Y-71872333D01*
X183688404Y-72110428D01*
X183640785Y-72300904D01*
X183593166Y-72396142D01*
X183545547Y-72443761D01*
X183450309Y-72491380D01*
X183355071Y-72491380D01*
X183259833Y-72443761D01*
X183212214Y-72396142D01*
X183164595Y-72300904D01*
X183116976Y-72110428D01*
X183116976Y-71872333D01*
X183164595Y-71681857D01*
X183212214Y-71586619D01*
X183259833Y-71539000D01*
X183355071Y-71491380D01*
X176807833Y-74366380D02*
X176474500Y-73890190D01*
X176236404Y-74366380D02*
X176236404Y-73366380D01*
X176617357Y-73366380D01*
X176712595Y-73414000D01*
X176760214Y-73461619D01*
X176807833Y-73556857D01*
X176807833Y-73699714D01*
X176760214Y-73794952D01*
X176712595Y-73842571D01*
X176617357Y-73890190D01*
X176236404Y-73890190D01*
X177284023Y-74366380D02*
X177474500Y-74366380D01*
X177569738Y-74318761D01*
X177617357Y-74271142D01*
X177712595Y-74128285D01*
X177760214Y-73937809D01*
X177760214Y-73556857D01*
X177712595Y-73461619D01*
X177664976Y-73414000D01*
X177569738Y-73366380D01*
X177379261Y-73366380D01*
X177284023Y-73414000D01*
X177236404Y-73461619D01*
X177188785Y-73556857D01*
X177188785Y-73794952D01*
X177236404Y-73890190D01*
X177284023Y-73937809D01*
X177379261Y-73985428D01*
X177569738Y-73985428D01*
X177664976Y-73937809D01*
X177712595Y-73890190D01*
X177760214Y-73794952D01*
X138009333Y-58904142D02*
X137961714Y-58951761D01*
X137818857Y-58999380D01*
X137723619Y-58999380D01*
X137580761Y-58951761D01*
X137485523Y-58856523D01*
X137437904Y-58761285D01*
X137390285Y-58570809D01*
X137390285Y-58427952D01*
X137437904Y-58237476D01*
X137485523Y-58142238D01*
X137580761Y-58047000D01*
X137723619Y-57999380D01*
X137818857Y-57999380D01*
X137961714Y-58047000D01*
X138009333Y-58094619D01*
X138390285Y-58094619D02*
X138437904Y-58047000D01*
X138533142Y-57999380D01*
X138771238Y-57999380D01*
X138866476Y-58047000D01*
X138914095Y-58094619D01*
X138961714Y-58189857D01*
X138961714Y-58285095D01*
X138914095Y-58427952D01*
X138342666Y-58999380D01*
X138961714Y-58999380D01*
X134643833Y-56491142D02*
X134596214Y-56538761D01*
X134453357Y-56586380D01*
X134358119Y-56586380D01*
X134215261Y-56538761D01*
X134120023Y-56443523D01*
X134072404Y-56348285D01*
X134024785Y-56157809D01*
X134024785Y-56014952D01*
X134072404Y-55824476D01*
X134120023Y-55729238D01*
X134215261Y-55634000D01*
X134358119Y-55586380D01*
X134453357Y-55586380D01*
X134596214Y-55634000D01*
X134643833Y-55681619D01*
X135596214Y-56586380D02*
X135024785Y-56586380D01*
X135310500Y-56586380D02*
X135310500Y-55586380D01*
X135215261Y-55729238D01*
X135120023Y-55824476D01*
X135024785Y-55872095D01*
X174244095Y-114831880D02*
X174244095Y-115641404D01*
X174291714Y-115736642D01*
X174339333Y-115784261D01*
X174434571Y-115831880D01*
X174625047Y-115831880D01*
X174720285Y-115784261D01*
X174767904Y-115736642D01*
X174815523Y-115641404D01*
X174815523Y-114831880D01*
X175196476Y-114831880D02*
X175815523Y-114831880D01*
X175482190Y-115212833D01*
X175625047Y-115212833D01*
X175720285Y-115260452D01*
X175767904Y-115308071D01*
X175815523Y-115403309D01*
X175815523Y-115641404D01*
X175767904Y-115736642D01*
X175720285Y-115784261D01*
X175625047Y-115831880D01*
X175339333Y-115831880D01*
X175244095Y-115784261D01*
X175196476Y-115736642D01*
X170243595Y-107910380D02*
X170243595Y-108719904D01*
X170291214Y-108815142D01*
X170338833Y-108862761D01*
X170434071Y-108910380D01*
X170624547Y-108910380D01*
X170719785Y-108862761D01*
X170767404Y-108815142D01*
X170815023Y-108719904D01*
X170815023Y-107910380D01*
X171243595Y-108005619D02*
X171291214Y-107958000D01*
X171386452Y-107910380D01*
X171624547Y-107910380D01*
X171719785Y-107958000D01*
X171767404Y-108005619D01*
X171815023Y-108100857D01*
X171815023Y-108196095D01*
X171767404Y-108338952D01*
X171195976Y-108910380D01*
X171815023Y-108910380D01*
X152971595Y-74953880D02*
X152971595Y-75763404D01*
X153019214Y-75858642D01*
X153066833Y-75906261D01*
X153162071Y-75953880D01*
X153352547Y-75953880D01*
X153447785Y-75906261D01*
X153495404Y-75858642D01*
X153543023Y-75763404D01*
X153543023Y-74953880D01*
X154543023Y-75953880D02*
X153971595Y-75953880D01*
X154257309Y-75953880D02*
X154257309Y-74953880D01*
X154162071Y-75096738D01*
X154066833Y-75191976D01*
X153971595Y-75239595D01*
X131064166Y-113180761D02*
X131207023Y-113228380D01*
X131445119Y-113228380D01*
X131540357Y-113180761D01*
X131587976Y-113133142D01*
X131635595Y-113037904D01*
X131635595Y-112942666D01*
X131587976Y-112847428D01*
X131540357Y-112799809D01*
X131445119Y-112752190D01*
X131254642Y-112704571D01*
X131159404Y-112656952D01*
X131111785Y-112609333D01*
X131064166Y-112514095D01*
X131064166Y-112418857D01*
X131111785Y-112323619D01*
X131159404Y-112276000D01*
X131254642Y-112228380D01*
X131492738Y-112228380D01*
X131635595Y-112276000D01*
X131968928Y-112228380D02*
X132207023Y-113228380D01*
X132397500Y-112514095D01*
X132587976Y-113228380D01*
X132826071Y-112228380D01*
X133730833Y-113228380D02*
X133159404Y-113228380D01*
X133445119Y-113228380D02*
X133445119Y-112228380D01*
X133349880Y-112371238D01*
X133254642Y-112466476D01*
X133159404Y-112514095D01*
X169727642Y-114053880D02*
X169394309Y-113577690D01*
X169156214Y-114053880D02*
X169156214Y-113053880D01*
X169537166Y-113053880D01*
X169632404Y-113101500D01*
X169680023Y-113149119D01*
X169727642Y-113244357D01*
X169727642Y-113387214D01*
X169680023Y-113482452D01*
X169632404Y-113530071D01*
X169537166Y-113577690D01*
X169156214Y-113577690D01*
X170680023Y-114053880D02*
X170108595Y-114053880D01*
X170394309Y-114053880D02*
X170394309Y-113053880D01*
X170299071Y-113196738D01*
X170203833Y-113291976D01*
X170108595Y-113339595D01*
X171013357Y-113053880D02*
X171680023Y-113053880D01*
X171251452Y-114053880D01*
X190309846Y-105055479D02*
X189976513Y-104579289D01*
X189738418Y-105055479D02*
X189738418Y-104055479D01*
X190119370Y-104055479D01*
X190214608Y-104103099D01*
X190262227Y-104150718D01*
X190309846Y-104245956D01*
X190309846Y-104388813D01*
X190262227Y-104484051D01*
X190214608Y-104531670D01*
X190119370Y-104579289D01*
X189738418Y-104579289D01*
X191262227Y-105055479D02*
X190690799Y-105055479D01*
X190976513Y-105055479D02*
X190976513Y-104055479D01*
X190881275Y-104198337D01*
X190786037Y-104293575D01*
X190690799Y-104341194D01*
X192119370Y-104055479D02*
X191928894Y-104055479D01*
X191833656Y-104103099D01*
X191786037Y-104150718D01*
X191690799Y-104293575D01*
X191643180Y-104484051D01*
X191643180Y-104865003D01*
X191690799Y-104960241D01*
X191738418Y-105007860D01*
X191833656Y-105055479D01*
X192024132Y-105055479D01*
X192119370Y-105007860D01*
X192166989Y-104960241D01*
X192214608Y-104865003D01*
X192214608Y-104626908D01*
X192166989Y-104531670D01*
X192119370Y-104484051D01*
X192024132Y-104436432D01*
X191833656Y-104436432D01*
X191738418Y-104484051D01*
X191690799Y-104531670D01*
X191643180Y-104626908D01*
X177919142Y-112466380D02*
X177585809Y-111990190D01*
X177347714Y-112466380D02*
X177347714Y-111466380D01*
X177728666Y-111466380D01*
X177823904Y-111514000D01*
X177871523Y-111561619D01*
X177919142Y-111656857D01*
X177919142Y-111799714D01*
X177871523Y-111894952D01*
X177823904Y-111942571D01*
X177728666Y-111990190D01*
X177347714Y-111990190D01*
X178871523Y-112466380D02*
X178300095Y-112466380D01*
X178585809Y-112466380D02*
X178585809Y-111466380D01*
X178490571Y-111609238D01*
X178395333Y-111704476D01*
X178300095Y-111752095D01*
X179776285Y-111466380D02*
X179300095Y-111466380D01*
X179252476Y-111942571D01*
X179300095Y-111894952D01*
X179395333Y-111847333D01*
X179633428Y-111847333D01*
X179728666Y-111894952D01*
X179776285Y-111942571D01*
X179823904Y-112037809D01*
X179823904Y-112275904D01*
X179776285Y-112371142D01*
X179728666Y-112418761D01*
X179633428Y-112466380D01*
X179395333Y-112466380D01*
X179300095Y-112418761D01*
X179252476Y-112371142D01*
X183507142Y-113037880D02*
X183173809Y-112561690D01*
X182935714Y-113037880D02*
X182935714Y-112037880D01*
X183316666Y-112037880D01*
X183411904Y-112085500D01*
X183459523Y-112133119D01*
X183507142Y-112228357D01*
X183507142Y-112371214D01*
X183459523Y-112466452D01*
X183411904Y-112514071D01*
X183316666Y-112561690D01*
X182935714Y-112561690D01*
X184459523Y-113037880D02*
X183888095Y-113037880D01*
X184173809Y-113037880D02*
X184173809Y-112037880D01*
X184078571Y-112180738D01*
X183983333Y-112275976D01*
X183888095Y-112323595D01*
X185316666Y-112371214D02*
X185316666Y-113037880D01*
X185078571Y-111990261D02*
X184840476Y-112704547D01*
X185459523Y-112704547D01*
X183634142Y-115260380D02*
X183300809Y-114784190D01*
X183062714Y-115260380D02*
X183062714Y-114260380D01*
X183443666Y-114260380D01*
X183538904Y-114308000D01*
X183586523Y-114355619D01*
X183634142Y-114450857D01*
X183634142Y-114593714D01*
X183586523Y-114688952D01*
X183538904Y-114736571D01*
X183443666Y-114784190D01*
X183062714Y-114784190D01*
X184586523Y-115260380D02*
X184015095Y-115260380D01*
X184300809Y-115260380D02*
X184300809Y-114260380D01*
X184205571Y-114403238D01*
X184110333Y-114498476D01*
X184015095Y-114546095D01*
X184919857Y-114260380D02*
X185538904Y-114260380D01*
X185205571Y-114641333D01*
X185348428Y-114641333D01*
X185443666Y-114688952D01*
X185491285Y-114736571D01*
X185538904Y-114831809D01*
X185538904Y-115069904D01*
X185491285Y-115165142D01*
X185443666Y-115212761D01*
X185348428Y-115260380D01*
X185062714Y-115260380D01*
X184967476Y-115212761D01*
X184919857Y-115165142D01*
X108577142Y-108465880D02*
X108243809Y-107989690D01*
X108005714Y-108465880D02*
X108005714Y-107465880D01*
X108386666Y-107465880D01*
X108481904Y-107513500D01*
X108529523Y-107561119D01*
X108577142Y-107656357D01*
X108577142Y-107799214D01*
X108529523Y-107894452D01*
X108481904Y-107942071D01*
X108386666Y-107989690D01*
X108005714Y-107989690D01*
X109529523Y-108465880D02*
X108958095Y-108465880D01*
X109243809Y-108465880D02*
X109243809Y-107465880D01*
X109148571Y-107608738D01*
X109053333Y-107703976D01*
X108958095Y-107751595D01*
X109910476Y-107561119D02*
X109958095Y-107513500D01*
X110053333Y-107465880D01*
X110291428Y-107465880D01*
X110386666Y-107513500D01*
X110434285Y-107561119D01*
X110481904Y-107656357D01*
X110481904Y-107751595D01*
X110434285Y-107894452D01*
X109862857Y-108465880D01*
X110481904Y-108465880D01*
X118165642Y-108719880D02*
X117832309Y-108243690D01*
X117594214Y-108719880D02*
X117594214Y-107719880D01*
X117975166Y-107719880D01*
X118070404Y-107767500D01*
X118118023Y-107815119D01*
X118165642Y-107910357D01*
X118165642Y-108053214D01*
X118118023Y-108148452D01*
X118070404Y-108196071D01*
X117975166Y-108243690D01*
X117594214Y-108243690D01*
X119118023Y-108719880D02*
X118546595Y-108719880D01*
X118832309Y-108719880D02*
X118832309Y-107719880D01*
X118737071Y-107862738D01*
X118641833Y-107957976D01*
X118546595Y-108005595D01*
X120070404Y-108719880D02*
X119498976Y-108719880D01*
X119784690Y-108719880D02*
X119784690Y-107719880D01*
X119689452Y-107862738D01*
X119594214Y-107957976D01*
X119498976Y-108005595D01*
X118705333Y-118308380D02*
X118372000Y-117832190D01*
X118133904Y-118308380D02*
X118133904Y-117308380D01*
X118514857Y-117308380D01*
X118610095Y-117356000D01*
X118657714Y-117403619D01*
X118705333Y-117498857D01*
X118705333Y-117641714D01*
X118657714Y-117736952D01*
X118610095Y-117784571D01*
X118514857Y-117832190D01*
X118133904Y-117832190D01*
X119276761Y-117736952D02*
X119181523Y-117689333D01*
X119133904Y-117641714D01*
X119086285Y-117546476D01*
X119086285Y-117498857D01*
X119133904Y-117403619D01*
X119181523Y-117356000D01*
X119276761Y-117308380D01*
X119467238Y-117308380D01*
X119562476Y-117356000D01*
X119610095Y-117403619D01*
X119657714Y-117498857D01*
X119657714Y-117546476D01*
X119610095Y-117641714D01*
X119562476Y-117689333D01*
X119467238Y-117736952D01*
X119276761Y-117736952D01*
X119181523Y-117784571D01*
X119133904Y-117832190D01*
X119086285Y-117927428D01*
X119086285Y-118117904D01*
X119133904Y-118213142D01*
X119181523Y-118260761D01*
X119276761Y-118308380D01*
X119467238Y-118308380D01*
X119562476Y-118260761D01*
X119610095Y-118213142D01*
X119657714Y-118117904D01*
X119657714Y-117927428D01*
X119610095Y-117832190D01*
X119562476Y-117784571D01*
X119467238Y-117736952D01*
X117849018Y-61638524D02*
X117515685Y-61162334D01*
X117277589Y-61638524D02*
X117277589Y-60638524D01*
X117658542Y-60638524D01*
X117753780Y-60686144D01*
X117801399Y-60733763D01*
X117849018Y-60829001D01*
X117849018Y-60971858D01*
X117801399Y-61067096D01*
X117753780Y-61114715D01*
X117658542Y-61162334D01*
X117277589Y-61162334D01*
X118182351Y-60638524D02*
X118849018Y-60638524D01*
X118420446Y-61638524D01*
X108291333Y-63698380D02*
X107958000Y-63222190D01*
X107719904Y-63698380D02*
X107719904Y-62698380D01*
X108100857Y-62698380D01*
X108196095Y-62746000D01*
X108243714Y-62793619D01*
X108291333Y-62888857D01*
X108291333Y-63031714D01*
X108243714Y-63126952D01*
X108196095Y-63174571D01*
X108100857Y-63222190D01*
X107719904Y-63222190D01*
X109148476Y-62698380D02*
X108958000Y-62698380D01*
X108862761Y-62746000D01*
X108815142Y-62793619D01*
X108719904Y-62936476D01*
X108672285Y-63126952D01*
X108672285Y-63507904D01*
X108719904Y-63603142D01*
X108767523Y-63650761D01*
X108862761Y-63698380D01*
X109053238Y-63698380D01*
X109148476Y-63650761D01*
X109196095Y-63603142D01*
X109243714Y-63507904D01*
X109243714Y-63269809D01*
X109196095Y-63174571D01*
X109148476Y-63126952D01*
X109053238Y-63079333D01*
X108862761Y-63079333D01*
X108767523Y-63126952D01*
X108719904Y-63174571D01*
X108672285Y-63269809D01*
X177958536Y-61494479D02*
X177625203Y-61018289D01*
X177387107Y-61494479D02*
X177387107Y-60494479D01*
X177768060Y-60494479D01*
X177863298Y-60542099D01*
X177910917Y-60589718D01*
X177958536Y-60684956D01*
X177958536Y-60827813D01*
X177910917Y-60923051D01*
X177863298Y-60970670D01*
X177768060Y-61018289D01*
X177387107Y-61018289D01*
X178863298Y-60494479D02*
X178387107Y-60494479D01*
X178339488Y-60970670D01*
X178387107Y-60923051D01*
X178482345Y-60875432D01*
X178720441Y-60875432D01*
X178815679Y-60923051D01*
X178863298Y-60970670D01*
X178910917Y-61065908D01*
X178910917Y-61304003D01*
X178863298Y-61399241D01*
X178815679Y-61446860D01*
X178720441Y-61494479D01*
X178482345Y-61494479D01*
X178387107Y-61446860D01*
X178339488Y-61399241D01*
X149566333Y-116339880D02*
X149233000Y-115863690D01*
X148994904Y-116339880D02*
X148994904Y-115339880D01*
X149375857Y-115339880D01*
X149471095Y-115387500D01*
X149518714Y-115435119D01*
X149566333Y-115530357D01*
X149566333Y-115673214D01*
X149518714Y-115768452D01*
X149471095Y-115816071D01*
X149375857Y-115863690D01*
X148994904Y-115863690D01*
X149899666Y-115339880D02*
X150518714Y-115339880D01*
X150185380Y-115720833D01*
X150328238Y-115720833D01*
X150423476Y-115768452D01*
X150471095Y-115816071D01*
X150518714Y-115911309D01*
X150518714Y-116149404D01*
X150471095Y-116244642D01*
X150423476Y-116292261D01*
X150328238Y-116339880D01*
X150042523Y-116339880D01*
X149947285Y-116292261D01*
X149899666Y-116244642D01*
X142525538Y-105022479D02*
X142192205Y-104546289D01*
X141954109Y-105022479D02*
X141954109Y-104022479D01*
X142335062Y-104022479D01*
X142430300Y-104070099D01*
X142477919Y-104117718D01*
X142525538Y-104212956D01*
X142525538Y-104355813D01*
X142477919Y-104451051D01*
X142430300Y-104498670D01*
X142335062Y-104546289D01*
X141954109Y-104546289D01*
X142906490Y-104117718D02*
X142954109Y-104070099D01*
X143049347Y-104022479D01*
X143287443Y-104022479D01*
X143382681Y-104070099D01*
X143430300Y-104117718D01*
X143477919Y-104212956D01*
X143477919Y-104308194D01*
X143430300Y-104451051D01*
X142858871Y-105022479D01*
X143477919Y-105022479D01*
X139160037Y-104928479D02*
X138826704Y-104452289D01*
X138588608Y-104928479D02*
X138588608Y-103928479D01*
X138969561Y-103928479D01*
X139064799Y-103976099D01*
X139112418Y-104023718D01*
X139160037Y-104118956D01*
X139160037Y-104261813D01*
X139112418Y-104357051D01*
X139064799Y-104404670D01*
X138969561Y-104452289D01*
X138588608Y-104452289D01*
X140112418Y-104928479D02*
X139540989Y-104928479D01*
X139826704Y-104928479D02*
X139826704Y-103928479D01*
X139731465Y-104071337D01*
X139636227Y-104166575D01*
X139540989Y-104214194D01*
X113894965Y-105254218D02*
X113799727Y-105206599D01*
X113704489Y-105111360D01*
X113561632Y-104968503D01*
X113466394Y-104920884D01*
X113371156Y-104920884D01*
X113418775Y-105158979D02*
X113323537Y-105111360D01*
X113228299Y-105016122D01*
X113180680Y-104825646D01*
X113180680Y-104492313D01*
X113228299Y-104301837D01*
X113323537Y-104206599D01*
X113418775Y-104158979D01*
X113609251Y-104158979D01*
X113704489Y-104206599D01*
X113799727Y-104301837D01*
X113847346Y-104492313D01*
X113847346Y-104825646D01*
X113799727Y-105016122D01*
X113704489Y-105111360D01*
X113609251Y-105158979D01*
X113418775Y-105158979D01*
X114799727Y-105158979D02*
X114228299Y-105158979D01*
X114514013Y-105158979D02*
X114514013Y-104158979D01*
X114418775Y-104301837D01*
X114323537Y-104397075D01*
X114228299Y-104444694D01*
X163695166Y-62634880D02*
X163695166Y-63349166D01*
X163647547Y-63492023D01*
X163552309Y-63587261D01*
X163409452Y-63634880D01*
X163314214Y-63634880D01*
X164171357Y-63634880D02*
X164171357Y-62634880D01*
X164552309Y-62634880D01*
X164647547Y-62682500D01*
X164695166Y-62730119D01*
X164742785Y-62825357D01*
X164742785Y-62968214D01*
X164695166Y-63063452D01*
X164647547Y-63111071D01*
X164552309Y-63158690D01*
X164171357Y-63158690D01*
X165123738Y-62730119D02*
X165171357Y-62682500D01*
X165266595Y-62634880D01*
X165504690Y-62634880D01*
X165599928Y-62682500D01*
X165647547Y-62730119D01*
X165695166Y-62825357D01*
X165695166Y-62920595D01*
X165647547Y-63063452D01*
X165076119Y-63634880D01*
X165695166Y-63634880D01*
X163123666Y-58253380D02*
X163123666Y-58967666D01*
X163076047Y-59110523D01*
X162980809Y-59205761D01*
X162837952Y-59253380D01*
X162742714Y-59253380D01*
X163599857Y-59253380D02*
X163599857Y-58253380D01*
X163980809Y-58253380D01*
X164076047Y-58301000D01*
X164123666Y-58348619D01*
X164171285Y-58443857D01*
X164171285Y-58586714D01*
X164123666Y-58681952D01*
X164076047Y-58729571D01*
X163980809Y-58777190D01*
X163599857Y-58777190D01*
X165123666Y-59253380D02*
X164552238Y-59253380D01*
X164837952Y-59253380D02*
X164837952Y-58253380D01*
X164742714Y-58396238D01*
X164647476Y-58491476D01*
X164552238Y-58539095D01*
X192643166Y-116101880D02*
X192643166Y-116816166D01*
X192595547Y-116959023D01*
X192500309Y-117054261D01*
X192357452Y-117101880D01*
X192262214Y-117101880D01*
X193547928Y-116435214D02*
X193547928Y-117101880D01*
X193309833Y-116054261D02*
X193071738Y-116768547D01*
X193690785Y-116768547D01*
X169584963Y-68286380D02*
X169584963Y-69000666D01*
X169537344Y-69143523D01*
X169442106Y-69238761D01*
X169299249Y-69286380D01*
X169204011Y-69286380D01*
X170013535Y-68381619D02*
X170061154Y-68334000D01*
X170156392Y-68286380D01*
X170394487Y-68286380D01*
X170489725Y-68334000D01*
X170537344Y-68381619D01*
X170584963Y-68476857D01*
X170584963Y-68572095D01*
X170537344Y-68714952D01*
X169965916Y-69286380D01*
X170584963Y-69286380D01*
X165338166Y-55840380D02*
X165338166Y-56554666D01*
X165290547Y-56697523D01*
X165195309Y-56792761D01*
X165052452Y-56840380D01*
X164957214Y-56840380D01*
X166338166Y-56840380D02*
X165766738Y-56840380D01*
X166052452Y-56840380D02*
X166052452Y-55840380D01*
X165957214Y-55983238D01*
X165861976Y-56078476D01*
X165766738Y-56126095D01*
X189023666Y-116133571D02*
X188690333Y-116133571D01*
X188690333Y-116657380D02*
X188690333Y-115657380D01*
X189166523Y-115657380D01*
X190071285Y-116657380D02*
X189499857Y-116657380D01*
X189785571Y-116657380D02*
X189785571Y-115657380D01*
X189690333Y-115800238D01*
X189595095Y-115895476D01*
X189499857Y-115943095D01*
X185380404Y-107005380D02*
X185380404Y-106005380D01*
X185618500Y-106005380D01*
X185761357Y-106053000D01*
X185856595Y-106148238D01*
X185904214Y-106243476D01*
X185951833Y-106433952D01*
X185951833Y-106576809D01*
X185904214Y-106767285D01*
X185856595Y-106862523D01*
X185761357Y-106957761D01*
X185618500Y-107005380D01*
X185380404Y-107005380D01*
X186808976Y-106338714D02*
X186808976Y-107005380D01*
X186570880Y-105957761D02*
X186332785Y-106672047D01*
X186951833Y-106672047D01*
X109053404Y-118435380D02*
X109053404Y-117435380D01*
X109291500Y-117435380D01*
X109434357Y-117483000D01*
X109529595Y-117578238D01*
X109577214Y-117673476D01*
X109624833Y-117863952D01*
X109624833Y-118006809D01*
X109577214Y-118197285D01*
X109529595Y-118292523D01*
X109434357Y-118387761D01*
X109291500Y-118435380D01*
X109053404Y-118435380D01*
X109958166Y-117435380D02*
X110577214Y-117435380D01*
X110243880Y-117816333D01*
X110386738Y-117816333D01*
X110481976Y-117863952D01*
X110529595Y-117911571D01*
X110577214Y-118006809D01*
X110577214Y-118244904D01*
X110529595Y-118340142D01*
X110481976Y-118387761D01*
X110386738Y-118435380D01*
X110101023Y-118435380D01*
X110005785Y-118387761D01*
X109958166Y-118340142D01*
X104679608Y-63683979D02*
X104679608Y-62683979D01*
X104917704Y-62683979D01*
X105060561Y-62731599D01*
X105155799Y-62826837D01*
X105203418Y-62922075D01*
X105251037Y-63112551D01*
X105251037Y-63255408D01*
X105203418Y-63445884D01*
X105155799Y-63541122D01*
X105060561Y-63636360D01*
X104917704Y-63683979D01*
X104679608Y-63683979D01*
X105631989Y-62779218D02*
X105679608Y-62731599D01*
X105774846Y-62683979D01*
X106012942Y-62683979D01*
X106108180Y-62731599D01*
X106155799Y-62779218D01*
X106203418Y-62874456D01*
X106203418Y-62969694D01*
X106155799Y-63112551D01*
X105584370Y-63683979D01*
X106203418Y-63683979D01*
X189761904Y-74937880D02*
X189761904Y-73937880D01*
X190000000Y-73937880D01*
X190142857Y-73985500D01*
X190238095Y-74080738D01*
X190285714Y-74175976D01*
X190333333Y-74366452D01*
X190333333Y-74509309D01*
X190285714Y-74699785D01*
X190238095Y-74795023D01*
X190142857Y-74890261D01*
X190000000Y-74937880D01*
X189761904Y-74937880D01*
X191285714Y-74937880D02*
X190714285Y-74937880D01*
X191000000Y-74937880D02*
X191000000Y-73937880D01*
X190904761Y-74080738D01*
X190809523Y-74175976D01*
X190714285Y-74223595D01*
X193492380Y-65451285D02*
X193492380Y-66022714D01*
X193492380Y-65737000D02*
X192492380Y-65737000D01*
X192635238Y-65832238D01*
X192730476Y-65927476D01*
X192778095Y-66022714D01*
X193463642Y-105023740D02*
X193416023Y-105071359D01*
X193273166Y-105118978D01*
X193177928Y-105118978D01*
X193035071Y-105071359D01*
X192939833Y-104976121D01*
X192892214Y-104880883D01*
X192844595Y-104690407D01*
X192844595Y-104547550D01*
X192892214Y-104357074D01*
X192939833Y-104261836D01*
X193035071Y-104166598D01*
X193177928Y-104118978D01*
X193273166Y-104118978D01*
X193416023Y-104166598D01*
X193463642Y-104214217D01*
X194416023Y-105118978D02*
X193844595Y-105118978D01*
X194130309Y-105118978D02*
X194130309Y-104118978D01*
X194035071Y-104261836D01*
X193939833Y-104357074D01*
X193844595Y-104404693D01*
X194987452Y-104547550D02*
X194892214Y-104499931D01*
X194844595Y-104452312D01*
X194796976Y-104357074D01*
X194796976Y-104309455D01*
X194844595Y-104214217D01*
X194892214Y-104166598D01*
X194987452Y-104118978D01*
X195177928Y-104118978D01*
X195273166Y-104166598D01*
X195320785Y-104214217D01*
X195368404Y-104309455D01*
X195368404Y-104357074D01*
X195320785Y-104452312D01*
X195273166Y-104499931D01*
X195177928Y-104547550D01*
X194987452Y-104547550D01*
X194892214Y-104595169D01*
X194844595Y-104642788D01*
X194796976Y-104738026D01*
X194796976Y-104928502D01*
X194844595Y-105023740D01*
X194892214Y-105071359D01*
X194987452Y-105118978D01*
X195177928Y-105118978D01*
X195273166Y-105071359D01*
X195320785Y-105023740D01*
X195368404Y-104928502D01*
X195368404Y-104738026D01*
X195320785Y-104642788D01*
X195273166Y-104595169D01*
X195177928Y-104547550D01*
X175066939Y-99238543D02*
X175019320Y-99286162D01*
X174876463Y-99333781D01*
X174781225Y-99333781D01*
X174638368Y-99286162D01*
X174543130Y-99190924D01*
X174495511Y-99095686D01*
X174447892Y-98905210D01*
X174447892Y-98762353D01*
X174495511Y-98571877D01*
X174543130Y-98476639D01*
X174638368Y-98381401D01*
X174781225Y-98333781D01*
X174876463Y-98333781D01*
X175019320Y-98381401D01*
X175066939Y-98429020D01*
X176019320Y-99333781D02*
X175447892Y-99333781D01*
X175733606Y-99333781D02*
X175733606Y-98333781D01*
X175638368Y-98476639D01*
X175543130Y-98571877D01*
X175447892Y-98619496D01*
X176352654Y-98333781D02*
X177019320Y-98333781D01*
X176590749Y-99333781D01*
X182935642Y-105894142D02*
X182888023Y-105941761D01*
X182745166Y-105989380D01*
X182649928Y-105989380D01*
X182507071Y-105941761D01*
X182411833Y-105846523D01*
X182364214Y-105751285D01*
X182316595Y-105560809D01*
X182316595Y-105417952D01*
X182364214Y-105227476D01*
X182411833Y-105132238D01*
X182507071Y-105037000D01*
X182649928Y-104989380D01*
X182745166Y-104989380D01*
X182888023Y-105037000D01*
X182935642Y-105084619D01*
X183888023Y-105989380D02*
X183316595Y-105989380D01*
X183602309Y-105989380D02*
X183602309Y-104989380D01*
X183507071Y-105132238D01*
X183411833Y-105227476D01*
X183316595Y-105275095D01*
X184745166Y-104989380D02*
X184554690Y-104989380D01*
X184459452Y-105037000D01*
X184411833Y-105084619D01*
X184316595Y-105227476D01*
X184268976Y-105417952D01*
X184268976Y-105798904D01*
X184316595Y-105894142D01*
X184364214Y-105941761D01*
X184459452Y-105989380D01*
X184649928Y-105989380D01*
X184745166Y-105941761D01*
X184792785Y-105894142D01*
X184840404Y-105798904D01*
X184840404Y-105560809D01*
X184792785Y-105465571D01*
X184745166Y-105417952D01*
X184649928Y-105370333D01*
X184459452Y-105370333D01*
X184364214Y-105417952D01*
X184316595Y-105465571D01*
X184268976Y-105560809D01*
X171886642Y-102338142D02*
X171839023Y-102385761D01*
X171696166Y-102433380D01*
X171600928Y-102433380D01*
X171458071Y-102385761D01*
X171362833Y-102290523D01*
X171315214Y-102195285D01*
X171267595Y-102004809D01*
X171267595Y-101861952D01*
X171315214Y-101671476D01*
X171362833Y-101576238D01*
X171458071Y-101481000D01*
X171600928Y-101433380D01*
X171696166Y-101433380D01*
X171839023Y-101481000D01*
X171886642Y-101528619D01*
X172839023Y-102433380D02*
X172267595Y-102433380D01*
X172553309Y-102433380D02*
X172553309Y-101433380D01*
X172458071Y-101576238D01*
X172362833Y-101671476D01*
X172267595Y-101719095D01*
X173743785Y-101433380D02*
X173267595Y-101433380D01*
X173219976Y-101909571D01*
X173267595Y-101861952D01*
X173362833Y-101814333D01*
X173600928Y-101814333D01*
X173696166Y-101861952D01*
X173743785Y-101909571D01*
X173791404Y-102004809D01*
X173791404Y-102242904D01*
X173743785Y-102338142D01*
X173696166Y-102385761D01*
X173600928Y-102433380D01*
X173362833Y-102433380D01*
X173267595Y-102385761D01*
X173219976Y-102338142D01*
X179062142Y-104624142D02*
X179014523Y-104671761D01*
X178871666Y-104719380D01*
X178776428Y-104719380D01*
X178633571Y-104671761D01*
X178538333Y-104576523D01*
X178490714Y-104481285D01*
X178443095Y-104290809D01*
X178443095Y-104147952D01*
X178490714Y-103957476D01*
X178538333Y-103862238D01*
X178633571Y-103767000D01*
X178776428Y-103719380D01*
X178871666Y-103719380D01*
X179014523Y-103767000D01*
X179062142Y-103814619D01*
X180014523Y-104719380D02*
X179443095Y-104719380D01*
X179728809Y-104719380D02*
X179728809Y-103719380D01*
X179633571Y-103862238D01*
X179538333Y-103957476D01*
X179443095Y-104005095D01*
X180871666Y-104052714D02*
X180871666Y-104719380D01*
X180633571Y-103671761D02*
X180395476Y-104386047D01*
X181014523Y-104386047D01*
X132929333Y-63603142D02*
X132881714Y-63650761D01*
X132738857Y-63698380D01*
X132643619Y-63698380D01*
X132500761Y-63650761D01*
X132405523Y-63555523D01*
X132357904Y-63460285D01*
X132310285Y-63269809D01*
X132310285Y-63126952D01*
X132357904Y-62936476D01*
X132405523Y-62841238D01*
X132500761Y-62746000D01*
X132643619Y-62698380D01*
X132738857Y-62698380D01*
X132881714Y-62746000D01*
X132929333Y-62793619D01*
X133405523Y-63698380D02*
X133596000Y-63698380D01*
X133691238Y-63650761D01*
X133738857Y-63603142D01*
X133834095Y-63460285D01*
X133881714Y-63269809D01*
X133881714Y-62888857D01*
X133834095Y-62793619D01*
X133786476Y-62746000D01*
X133691238Y-62698380D01*
X133500761Y-62698380D01*
X133405523Y-62746000D01*
X133357904Y-62793619D01*
X133310285Y-62888857D01*
X133310285Y-63126952D01*
X133357904Y-63222190D01*
X133405523Y-63269809D01*
X133500761Y-63317428D01*
X133691238Y-63317428D01*
X133786476Y-63269809D01*
X133834095Y-63222190D01*
X133881714Y-63126952D01*
X114776036Y-61589741D02*
X114728417Y-61637360D01*
X114585560Y-61684979D01*
X114490322Y-61684979D01*
X114347464Y-61637360D01*
X114252226Y-61542122D01*
X114204607Y-61446884D01*
X114156988Y-61256408D01*
X114156988Y-61113551D01*
X114204607Y-60923075D01*
X114252226Y-60827837D01*
X114347464Y-60732599D01*
X114490322Y-60684979D01*
X114585560Y-60684979D01*
X114728417Y-60732599D01*
X114776036Y-60780218D01*
X115347464Y-61113551D02*
X115252226Y-61065932D01*
X115204607Y-61018313D01*
X115156988Y-60923075D01*
X115156988Y-60875456D01*
X115204607Y-60780218D01*
X115252226Y-60732599D01*
X115347464Y-60684979D01*
X115537941Y-60684979D01*
X115633179Y-60732599D01*
X115680798Y-60780218D01*
X115728417Y-60875456D01*
X115728417Y-60923075D01*
X115680798Y-61018313D01*
X115633179Y-61065932D01*
X115537941Y-61113551D01*
X115347464Y-61113551D01*
X115252226Y-61161170D01*
X115204607Y-61208789D01*
X115156988Y-61304027D01*
X115156988Y-61494503D01*
X115204607Y-61589741D01*
X115252226Y-61637360D01*
X115347464Y-61684979D01*
X115537941Y-61684979D01*
X115633179Y-61637360D01*
X115680798Y-61589741D01*
X115728417Y-61494503D01*
X115728417Y-61304027D01*
X115680798Y-61208789D01*
X115633179Y-61161170D01*
X115537941Y-61113551D01*
X180943036Y-61305240D02*
X180895417Y-61352859D01*
X180752560Y-61400478D01*
X180657322Y-61400478D01*
X180514464Y-61352859D01*
X180419226Y-61257621D01*
X180371607Y-61162383D01*
X180323988Y-60971907D01*
X180323988Y-60829050D01*
X180371607Y-60638574D01*
X180419226Y-60543336D01*
X180514464Y-60448098D01*
X180657322Y-60400478D01*
X180752560Y-60400478D01*
X180895417Y-60448098D01*
X180943036Y-60495717D01*
X181276369Y-60400478D02*
X181943036Y-60400478D01*
X181514464Y-61400478D01*
X132992833Y-59729642D02*
X132945214Y-59777261D01*
X132802357Y-59824880D01*
X132707119Y-59824880D01*
X132564261Y-59777261D01*
X132469023Y-59682023D01*
X132421404Y-59586785D01*
X132373785Y-59396309D01*
X132373785Y-59253452D01*
X132421404Y-59062976D01*
X132469023Y-58967738D01*
X132564261Y-58872500D01*
X132707119Y-58824880D01*
X132802357Y-58824880D01*
X132945214Y-58872500D01*
X132992833Y-58920119D01*
X133897595Y-58824880D02*
X133421404Y-58824880D01*
X133373785Y-59301071D01*
X133421404Y-59253452D01*
X133516642Y-59205833D01*
X133754738Y-59205833D01*
X133849976Y-59253452D01*
X133897595Y-59301071D01*
X133945214Y-59396309D01*
X133945214Y-59634404D01*
X133897595Y-59729642D01*
X133849976Y-59777261D01*
X133754738Y-59824880D01*
X133516642Y-59824880D01*
X133421404Y-59777261D01*
X133373785Y-59729642D01*
X132992833Y-61362043D02*
X132945214Y-61409662D01*
X132802357Y-61457281D01*
X132707119Y-61457281D01*
X132564261Y-61409662D01*
X132469023Y-61314424D01*
X132421404Y-61219186D01*
X132373785Y-61028710D01*
X132373785Y-60885853D01*
X132421404Y-60695377D01*
X132469023Y-60600139D01*
X132564261Y-60504901D01*
X132707119Y-60457281D01*
X132802357Y-60457281D01*
X132945214Y-60504901D01*
X132992833Y-60552520D01*
X133849976Y-60790615D02*
X133849976Y-61457281D01*
X133611880Y-60409662D02*
X133373785Y-61123948D01*
X133992833Y-61123948D01*
X117546547Y-112958571D02*
X117689404Y-113006190D01*
X117737023Y-113053809D01*
X117784642Y-113149047D01*
X117784642Y-113291904D01*
X117737023Y-113387142D01*
X117689404Y-113434761D01*
X117594166Y-113482380D01*
X117213214Y-113482380D01*
X117213214Y-112482380D01*
X117546547Y-112482380D01*
X117641785Y-112530000D01*
X117689404Y-112577619D01*
X117737023Y-112672857D01*
X117737023Y-112768095D01*
X117689404Y-112863333D01*
X117641785Y-112910952D01*
X117546547Y-112958571D01*
X117213214Y-112958571D01*
X118117976Y-112482380D02*
X118784642Y-112482380D01*
X118117976Y-113482380D01*
X118784642Y-113482380D01*
X119689404Y-113482380D02*
X119117976Y-113482380D01*
X119403690Y-113482380D02*
X119403690Y-112482380D01*
X119308452Y-112625238D01*
X119213214Y-112720476D01*
X119117976Y-112768095D01*
M02*
