G04 #@! TF.GenerationSoftware,KiCad,Pcbnew,(5.1.12)-1*
G04 #@! TF.CreationDate,2022-03-22T09:03:55+08:00*
G04 #@! TF.ProjectId,Printhead-Controller,5072696e-7468-4656-9164-2d436f6e7472,0.5*
G04 #@! TF.SameCoordinates,Original*
G04 #@! TF.FileFunction,Soldermask,Bot*
G04 #@! TF.FilePolarity,Negative*
%FSLAX46Y46*%
G04 Gerber Fmt 4.6, Leading zero omitted, Abs format (unit mm)*
G04 Created by KiCad (PCBNEW (5.1.12)-1) date 2022-03-22 09:03:55*
%MOMM*%
%LPD*%
G01*
G04 APERTURE LIST*
%ADD10O,1.700000X1.700000*%
%ADD11R,1.700000X1.700000*%
%ADD12C,3.200000*%
%ADD13C,1.600000*%
%ADD14R,1.600000X1.600000*%
%ADD15R,2.000000X2.000000*%
%ADD16C,2.000000*%
%ADD17R,2.000000X3.200000*%
%ADD18C,0.470000*%
%ADD19O,1.700000X1.350000*%
%ADD20O,1.000000X1.000000*%
%ADD21R,1.000000X1.000000*%
G04 APERTURE END LIST*
D10*
X129819400Y-67487800D03*
X127279400Y-67487800D03*
X124739400Y-67487800D03*
D11*
X122199400Y-67487800D03*
D12*
X165544500Y-92646500D03*
D13*
X127508000Y-94368500D03*
D14*
X127508000Y-90868500D03*
D10*
X108267500Y-98361500D03*
X105727500Y-98361500D03*
X108267500Y-95821500D03*
X105727500Y-95821500D03*
X108267500Y-93281500D03*
X105727500Y-93281500D03*
X108267500Y-90741500D03*
X105727500Y-90741500D03*
X108267500Y-88201500D03*
X105727500Y-88201500D03*
X108267500Y-85661500D03*
X105727500Y-85661500D03*
X108267500Y-83121500D03*
X105727500Y-83121500D03*
X108267500Y-80581500D03*
X105727500Y-80581500D03*
X108267500Y-78041500D03*
X105727500Y-78041500D03*
X108267500Y-75501500D03*
D11*
X105727500Y-75501500D03*
D15*
X143327204Y-108667099D03*
D16*
X140827204Y-108667099D03*
X138327204Y-108667099D03*
D17*
X146427204Y-116167099D03*
X135227204Y-116167099D03*
D16*
X143327204Y-123167099D03*
X138327204Y-123167099D03*
D18*
X191934295Y-109605401D03*
D19*
X194429295Y-108820401D03*
X194429295Y-114280401D03*
D18*
X191934295Y-113515401D03*
D10*
X180657500Y-68916099D03*
X178117500Y-68916099D03*
X175577500Y-68916099D03*
D11*
X173037500Y-68916099D03*
D20*
X167703500Y-56261000D03*
X168973500Y-56261000D03*
D21*
X170243500Y-56261000D03*
D12*
X192786000Y-57721500D03*
X105981500Y-57721500D03*
X105981500Y-123698000D03*
X192786000Y-123698000D03*
M02*
