G04 #@! TF.GenerationSoftware,KiCad,Pcbnew,(5.1.12)-1*
G04 #@! TF.CreationDate,2022-03-18T17:22:37+08:00*
G04 #@! TF.ProjectId,Printhead-Controller,5072696e-7468-4656-9164-2d436f6e7472,0.5*
G04 #@! TF.SameCoordinates,Original*
G04 #@! TF.FileFunction,Soldermask,Top*
G04 #@! TF.FilePolarity,Negative*
%FSLAX46Y46*%
G04 Gerber Fmt 4.6, Leading zero omitted, Abs format (unit mm)*
G04 Created by KiCad (PCBNEW (5.1.12)-1) date 2022-03-18 17:22:37*
%MOMM*%
%LPD*%
G01*
G04 APERTURE LIST*
%ADD10C,3.200000*%
%ADD11C,1.600000*%
%ADD12R,1.600000X1.600000*%
%ADD13R,1.100000X1.800000*%
%ADD14O,1.700000X1.700000*%
%ADD15R,1.700000X1.700000*%
%ADD16R,0.400000X0.650000*%
%ADD17R,3.350000X3.350000*%
%ADD18R,2.000000X0.900000*%
%ADD19R,0.900000X2.000000*%
%ADD20R,5.000000X5.000000*%
%ADD21R,1.300000X2.400000*%
%ADD22R,2.000000X2.000000*%
%ADD23C,2.000000*%
%ADD24R,2.000000X3.200000*%
%ADD25R,0.900000X0.800000*%
%ADD26C,0.470000*%
%ADD27R,2.100000X1.200000*%
%ADD28R,2.200000X1.200000*%
%ADD29O,1.700000X1.350000*%
%ADD30R,1.650000X0.400000*%
%ADD31O,1.000000X1.000000*%
%ADD32R,1.000000X1.000000*%
%ADD33R,1.400000X1.000000*%
%ADD34R,1.400000X1.200000*%
%ADD35R,1.000000X1.500000*%
%ADD36R,1.800000X2.500000*%
G04 APERTURE END LIST*
D10*
X165544500Y-92646500D03*
G36*
G01*
X173411000Y-71568500D02*
X173411000Y-72068500D01*
G75*
G02*
X173186000Y-72293500I-225000J0D01*
G01*
X172736000Y-72293500D01*
G75*
G02*
X172511000Y-72068500I0J225000D01*
G01*
X172511000Y-71568500D01*
G75*
G02*
X172736000Y-71343500I225000J0D01*
G01*
X173186000Y-71343500D01*
G75*
G02*
X173411000Y-71568500I0J-225000D01*
G01*
G37*
G36*
G01*
X174961000Y-71568500D02*
X174961000Y-72068500D01*
G75*
G02*
X174736000Y-72293500I-225000J0D01*
G01*
X174286000Y-72293500D01*
G75*
G02*
X174061000Y-72068500I0J225000D01*
G01*
X174061000Y-71568500D01*
G75*
G02*
X174286000Y-71343500I225000J0D01*
G01*
X174736000Y-71343500D01*
G75*
G02*
X174961000Y-71568500I0J-225000D01*
G01*
G37*
G36*
G01*
X134615500Y-91064502D02*
X134615500Y-90164498D01*
G75*
G02*
X134865498Y-89914500I249998J0D01*
G01*
X135390502Y-89914500D01*
G75*
G02*
X135640500Y-90164498I0J-249998D01*
G01*
X135640500Y-91064502D01*
G75*
G02*
X135390502Y-91314500I-249998J0D01*
G01*
X134865498Y-91314500D01*
G75*
G02*
X134615500Y-91064502I0J249998D01*
G01*
G37*
G36*
G01*
X132790500Y-91064502D02*
X132790500Y-90164498D01*
G75*
G02*
X133040498Y-89914500I249998J0D01*
G01*
X133565502Y-89914500D01*
G75*
G02*
X133815500Y-90164498I0J-249998D01*
G01*
X133815500Y-91064502D01*
G75*
G02*
X133565502Y-91314500I-249998J0D01*
G01*
X133040498Y-91314500D01*
G75*
G02*
X132790500Y-91064502I0J249998D01*
G01*
G37*
D11*
X127508000Y-94368500D03*
D12*
X127508000Y-90868500D03*
G36*
G01*
X133155500Y-92969500D02*
X132655500Y-92969500D01*
G75*
G02*
X132430500Y-92744500I0J225000D01*
G01*
X132430500Y-92294500D01*
G75*
G02*
X132655500Y-92069500I225000J0D01*
G01*
X133155500Y-92069500D01*
G75*
G02*
X133380500Y-92294500I0J-225000D01*
G01*
X133380500Y-92744500D01*
G75*
G02*
X133155500Y-92969500I-225000J0D01*
G01*
G37*
G36*
G01*
X133155500Y-94519500D02*
X132655500Y-94519500D01*
G75*
G02*
X132430500Y-94294500I0J225000D01*
G01*
X132430500Y-93844500D01*
G75*
G02*
X132655500Y-93619500I225000J0D01*
G01*
X133155500Y-93619500D01*
G75*
G02*
X133380500Y-93844500I0J-225000D01*
G01*
X133380500Y-94294500D01*
G75*
G02*
X133155500Y-94519500I-225000J0D01*
G01*
G37*
G36*
G01*
X135195500Y-93593500D02*
X135695500Y-93593500D01*
G75*
G02*
X135920500Y-93818500I0J-225000D01*
G01*
X135920500Y-94268500D01*
G75*
G02*
X135695500Y-94493500I-225000J0D01*
G01*
X135195500Y-94493500D01*
G75*
G02*
X134970500Y-94268500I0J225000D01*
G01*
X134970500Y-93818500D01*
G75*
G02*
X135195500Y-93593500I225000J0D01*
G01*
G37*
G36*
G01*
X135195500Y-92043500D02*
X135695500Y-92043500D01*
G75*
G02*
X135920500Y-92268500I0J-225000D01*
G01*
X135920500Y-92718500D01*
G75*
G02*
X135695500Y-92943500I-225000J0D01*
G01*
X135195500Y-92943500D01*
G75*
G02*
X134970500Y-92718500I0J225000D01*
G01*
X134970500Y-92268500D01*
G75*
G02*
X135195500Y-92043500I225000J0D01*
G01*
G37*
G36*
G01*
X137410000Y-92906000D02*
X136910000Y-92906000D01*
G75*
G02*
X136685000Y-92681000I0J225000D01*
G01*
X136685000Y-92231000D01*
G75*
G02*
X136910000Y-92006000I225000J0D01*
G01*
X137410000Y-92006000D01*
G75*
G02*
X137635000Y-92231000I0J-225000D01*
G01*
X137635000Y-92681000D01*
G75*
G02*
X137410000Y-92906000I-225000J0D01*
G01*
G37*
G36*
G01*
X137410000Y-94456000D02*
X136910000Y-94456000D01*
G75*
G02*
X136685000Y-94231000I0J225000D01*
G01*
X136685000Y-93781000D01*
G75*
G02*
X136910000Y-93556000I225000J0D01*
G01*
X137410000Y-93556000D01*
G75*
G02*
X137635000Y-93781000I0J-225000D01*
G01*
X137635000Y-94231000D01*
G75*
G02*
X137410000Y-94456000I-225000J0D01*
G01*
G37*
D13*
X161513499Y-117726000D03*
X161513499Y-123926000D03*
X157813499Y-117726000D03*
X157813499Y-123926000D03*
G36*
G01*
X155300000Y-120567500D02*
X155850000Y-120567500D01*
G75*
G02*
X156050000Y-120767500I0J-200000D01*
G01*
X156050000Y-121167500D01*
G75*
G02*
X155850000Y-121367500I-200000J0D01*
G01*
X155300000Y-121367500D01*
G75*
G02*
X155100000Y-121167500I0J200000D01*
G01*
X155100000Y-120767500D01*
G75*
G02*
X155300000Y-120567500I200000J0D01*
G01*
G37*
G36*
G01*
X155300000Y-118917500D02*
X155850000Y-118917500D01*
G75*
G02*
X156050000Y-119117500I0J-200000D01*
G01*
X156050000Y-119517500D01*
G75*
G02*
X155850000Y-119717500I-200000J0D01*
G01*
X155300000Y-119717500D01*
G75*
G02*
X155100000Y-119517500I0J200000D01*
G01*
X155100000Y-119117500D01*
G75*
G02*
X155300000Y-118917500I200000J0D01*
G01*
G37*
G36*
G01*
X155825000Y-123068500D02*
X155325000Y-123068500D01*
G75*
G02*
X155100000Y-122843500I0J225000D01*
G01*
X155100000Y-122393500D01*
G75*
G02*
X155325000Y-122168500I225000J0D01*
G01*
X155825000Y-122168500D01*
G75*
G02*
X156050000Y-122393500I0J-225000D01*
G01*
X156050000Y-122843500D01*
G75*
G02*
X155825000Y-123068500I-225000J0D01*
G01*
G37*
G36*
G01*
X155825000Y-124618500D02*
X155325000Y-124618500D01*
G75*
G02*
X155100000Y-124393500I0J225000D01*
G01*
X155100000Y-123943500D01*
G75*
G02*
X155325000Y-123718500I225000J0D01*
G01*
X155825000Y-123718500D01*
G75*
G02*
X156050000Y-123943500I0J-225000D01*
G01*
X156050000Y-124393500D01*
G75*
G02*
X155825000Y-124618500I-225000J0D01*
G01*
G37*
D14*
X108267500Y-98361500D03*
X105727500Y-98361500D03*
X108267500Y-95821500D03*
X105727500Y-95821500D03*
X108267500Y-93281500D03*
X105727500Y-93281500D03*
X108267500Y-90741500D03*
X105727500Y-90741500D03*
X108267500Y-88201500D03*
X105727500Y-88201500D03*
X108267500Y-85661500D03*
X105727500Y-85661500D03*
X108267500Y-83121500D03*
X105727500Y-83121500D03*
X108267500Y-80581500D03*
X105727500Y-80581500D03*
X108267500Y-78041500D03*
X105727500Y-78041500D03*
X108267500Y-75501500D03*
D15*
X105727500Y-75501500D03*
G36*
G01*
X180257500Y-72093500D02*
X180257500Y-71543500D01*
G75*
G02*
X180457500Y-71343500I200000J0D01*
G01*
X180857500Y-71343500D01*
G75*
G02*
X181057500Y-71543500I0J-200000D01*
G01*
X181057500Y-72093500D01*
G75*
G02*
X180857500Y-72293500I-200000J0D01*
G01*
X180457500Y-72293500D01*
G75*
G02*
X180257500Y-72093500I0J200000D01*
G01*
G37*
G36*
G01*
X178607500Y-72093500D02*
X178607500Y-71543500D01*
G75*
G02*
X178807500Y-71343500I200000J0D01*
G01*
X179207500Y-71343500D01*
G75*
G02*
X179407500Y-71543500I0J-200000D01*
G01*
X179407500Y-72093500D01*
G75*
G02*
X179207500Y-72293500I-200000J0D01*
G01*
X178807500Y-72293500D01*
G75*
G02*
X178607500Y-72093500I0J200000D01*
G01*
G37*
G36*
G01*
X176296000Y-71543500D02*
X176296000Y-72093500D01*
G75*
G02*
X176096000Y-72293500I-200000J0D01*
G01*
X175696000Y-72293500D01*
G75*
G02*
X175496000Y-72093500I0J200000D01*
G01*
X175496000Y-71543500D01*
G75*
G02*
X175696000Y-71343500I200000J0D01*
G01*
X176096000Y-71343500D01*
G75*
G02*
X176296000Y-71543500I0J-200000D01*
G01*
G37*
G36*
G01*
X177946000Y-71543500D02*
X177946000Y-72093500D01*
G75*
G02*
X177746000Y-72293500I-200000J0D01*
G01*
X177346000Y-72293500D01*
G75*
G02*
X177146000Y-72093500I0J200000D01*
G01*
X177146000Y-71543500D01*
G75*
G02*
X177346000Y-71343500I200000J0D01*
G01*
X177746000Y-71343500D01*
G75*
G02*
X177946000Y-71543500I0J-200000D01*
G01*
G37*
G36*
G01*
X138370204Y-56094599D02*
X137870204Y-56094599D01*
G75*
G02*
X137645204Y-55869599I0J225000D01*
G01*
X137645204Y-55419599D01*
G75*
G02*
X137870204Y-55194599I225000J0D01*
G01*
X138370204Y-55194599D01*
G75*
G02*
X138595204Y-55419599I0J-225000D01*
G01*
X138595204Y-55869599D01*
G75*
G02*
X138370204Y-56094599I-225000J0D01*
G01*
G37*
G36*
G01*
X138370204Y-57644599D02*
X137870204Y-57644599D01*
G75*
G02*
X137645204Y-57419599I0J225000D01*
G01*
X137645204Y-56969599D01*
G75*
G02*
X137870204Y-56744599I225000J0D01*
G01*
X138370204Y-56744599D01*
G75*
G02*
X138595204Y-56969599I0J-225000D01*
G01*
X138595204Y-57419599D01*
G75*
G02*
X138370204Y-57644599I-225000J0D01*
G01*
G37*
G36*
G01*
X136282703Y-56718599D02*
X136782703Y-56718599D01*
G75*
G02*
X137007703Y-56943599I0J-225000D01*
G01*
X137007703Y-57393599D01*
G75*
G02*
X136782703Y-57618599I-225000J0D01*
G01*
X136282703Y-57618599D01*
G75*
G02*
X136057703Y-57393599I0J225000D01*
G01*
X136057703Y-56943599D01*
G75*
G02*
X136282703Y-56718599I225000J0D01*
G01*
G37*
G36*
G01*
X136282703Y-55168599D02*
X136782703Y-55168599D01*
G75*
G02*
X137007703Y-55393599I0J-225000D01*
G01*
X137007703Y-55843599D01*
G75*
G02*
X136782703Y-56068599I-225000J0D01*
G01*
X136282703Y-56068599D01*
G75*
G02*
X136057703Y-55843599I0J225000D01*
G01*
X136057703Y-55393599D01*
G75*
G02*
X136282703Y-55168599I225000J0D01*
G01*
G37*
D16*
X175256401Y-113924203D03*
X173956401Y-113924203D03*
X174606401Y-112024203D03*
X174606401Y-113924203D03*
X173956401Y-112024203D03*
X175256401Y-112024203D03*
D17*
X175061795Y-106407401D03*
G36*
G01*
X176686795Y-108519901D02*
X176686795Y-109194901D01*
G75*
G02*
X176624295Y-109257401I-62500J0D01*
G01*
X176499295Y-109257401D01*
G75*
G02*
X176436795Y-109194901I0J62500D01*
G01*
X176436795Y-108519901D01*
G75*
G02*
X176499295Y-108457401I62500J0D01*
G01*
X176624295Y-108457401D01*
G75*
G02*
X176686795Y-108519901I0J-62500D01*
G01*
G37*
G36*
G01*
X176186795Y-108519901D02*
X176186795Y-109194901D01*
G75*
G02*
X176124295Y-109257401I-62500J0D01*
G01*
X175999295Y-109257401D01*
G75*
G02*
X175936795Y-109194901I0J62500D01*
G01*
X175936795Y-108519901D01*
G75*
G02*
X175999295Y-108457401I62500J0D01*
G01*
X176124295Y-108457401D01*
G75*
G02*
X176186795Y-108519901I0J-62500D01*
G01*
G37*
G36*
G01*
X175686795Y-108519901D02*
X175686795Y-109194901D01*
G75*
G02*
X175624295Y-109257401I-62500J0D01*
G01*
X175499295Y-109257401D01*
G75*
G02*
X175436795Y-109194901I0J62500D01*
G01*
X175436795Y-108519901D01*
G75*
G02*
X175499295Y-108457401I62500J0D01*
G01*
X175624295Y-108457401D01*
G75*
G02*
X175686795Y-108519901I0J-62500D01*
G01*
G37*
G36*
G01*
X175186795Y-108519901D02*
X175186795Y-109194901D01*
G75*
G02*
X175124295Y-109257401I-62500J0D01*
G01*
X174999295Y-109257401D01*
G75*
G02*
X174936795Y-109194901I0J62500D01*
G01*
X174936795Y-108519901D01*
G75*
G02*
X174999295Y-108457401I62500J0D01*
G01*
X175124295Y-108457401D01*
G75*
G02*
X175186795Y-108519901I0J-62500D01*
G01*
G37*
G36*
G01*
X174686795Y-108519901D02*
X174686795Y-109194901D01*
G75*
G02*
X174624295Y-109257401I-62500J0D01*
G01*
X174499295Y-109257401D01*
G75*
G02*
X174436795Y-109194901I0J62500D01*
G01*
X174436795Y-108519901D01*
G75*
G02*
X174499295Y-108457401I62500J0D01*
G01*
X174624295Y-108457401D01*
G75*
G02*
X174686795Y-108519901I0J-62500D01*
G01*
G37*
G36*
G01*
X174186795Y-108519901D02*
X174186795Y-109194901D01*
G75*
G02*
X174124295Y-109257401I-62500J0D01*
G01*
X173999295Y-109257401D01*
G75*
G02*
X173936795Y-109194901I0J62500D01*
G01*
X173936795Y-108519901D01*
G75*
G02*
X173999295Y-108457401I62500J0D01*
G01*
X174124295Y-108457401D01*
G75*
G02*
X174186795Y-108519901I0J-62500D01*
G01*
G37*
G36*
G01*
X173686795Y-108519901D02*
X173686795Y-109194901D01*
G75*
G02*
X173624295Y-109257401I-62500J0D01*
G01*
X173499295Y-109257401D01*
G75*
G02*
X173436795Y-109194901I0J62500D01*
G01*
X173436795Y-108519901D01*
G75*
G02*
X173499295Y-108457401I62500J0D01*
G01*
X173624295Y-108457401D01*
G75*
G02*
X173686795Y-108519901I0J-62500D01*
G01*
G37*
G36*
G01*
X173011795Y-107844901D02*
X173011795Y-107969901D01*
G75*
G02*
X172949295Y-108032401I-62500J0D01*
G01*
X172274295Y-108032401D01*
G75*
G02*
X172211795Y-107969901I0J62500D01*
G01*
X172211795Y-107844901D01*
G75*
G02*
X172274295Y-107782401I62500J0D01*
G01*
X172949295Y-107782401D01*
G75*
G02*
X173011795Y-107844901I0J-62500D01*
G01*
G37*
G36*
G01*
X173011795Y-107344901D02*
X173011795Y-107469901D01*
G75*
G02*
X172949295Y-107532401I-62500J0D01*
G01*
X172274295Y-107532401D01*
G75*
G02*
X172211795Y-107469901I0J62500D01*
G01*
X172211795Y-107344901D01*
G75*
G02*
X172274295Y-107282401I62500J0D01*
G01*
X172949295Y-107282401D01*
G75*
G02*
X173011795Y-107344901I0J-62500D01*
G01*
G37*
G36*
G01*
X173011795Y-106844901D02*
X173011795Y-106969901D01*
G75*
G02*
X172949295Y-107032401I-62500J0D01*
G01*
X172274295Y-107032401D01*
G75*
G02*
X172211795Y-106969901I0J62500D01*
G01*
X172211795Y-106844901D01*
G75*
G02*
X172274295Y-106782401I62500J0D01*
G01*
X172949295Y-106782401D01*
G75*
G02*
X173011795Y-106844901I0J-62500D01*
G01*
G37*
G36*
G01*
X173011795Y-106344901D02*
X173011795Y-106469901D01*
G75*
G02*
X172949295Y-106532401I-62500J0D01*
G01*
X172274295Y-106532401D01*
G75*
G02*
X172211795Y-106469901I0J62500D01*
G01*
X172211795Y-106344901D01*
G75*
G02*
X172274295Y-106282401I62500J0D01*
G01*
X172949295Y-106282401D01*
G75*
G02*
X173011795Y-106344901I0J-62500D01*
G01*
G37*
G36*
G01*
X173011795Y-105844901D02*
X173011795Y-105969901D01*
G75*
G02*
X172949295Y-106032401I-62500J0D01*
G01*
X172274295Y-106032401D01*
G75*
G02*
X172211795Y-105969901I0J62500D01*
G01*
X172211795Y-105844901D01*
G75*
G02*
X172274295Y-105782401I62500J0D01*
G01*
X172949295Y-105782401D01*
G75*
G02*
X173011795Y-105844901I0J-62500D01*
G01*
G37*
G36*
G01*
X173011795Y-105344901D02*
X173011795Y-105469901D01*
G75*
G02*
X172949295Y-105532401I-62500J0D01*
G01*
X172274295Y-105532401D01*
G75*
G02*
X172211795Y-105469901I0J62500D01*
G01*
X172211795Y-105344901D01*
G75*
G02*
X172274295Y-105282401I62500J0D01*
G01*
X172949295Y-105282401D01*
G75*
G02*
X173011795Y-105344901I0J-62500D01*
G01*
G37*
G36*
G01*
X173011795Y-104844901D02*
X173011795Y-104969901D01*
G75*
G02*
X172949295Y-105032401I-62500J0D01*
G01*
X172274295Y-105032401D01*
G75*
G02*
X172211795Y-104969901I0J62500D01*
G01*
X172211795Y-104844901D01*
G75*
G02*
X172274295Y-104782401I62500J0D01*
G01*
X172949295Y-104782401D01*
G75*
G02*
X173011795Y-104844901I0J-62500D01*
G01*
G37*
G36*
G01*
X173686795Y-103619901D02*
X173686795Y-104294901D01*
G75*
G02*
X173624295Y-104357401I-62500J0D01*
G01*
X173499295Y-104357401D01*
G75*
G02*
X173436795Y-104294901I0J62500D01*
G01*
X173436795Y-103619901D01*
G75*
G02*
X173499295Y-103557401I62500J0D01*
G01*
X173624295Y-103557401D01*
G75*
G02*
X173686795Y-103619901I0J-62500D01*
G01*
G37*
G36*
G01*
X174186795Y-103619901D02*
X174186795Y-104294901D01*
G75*
G02*
X174124295Y-104357401I-62500J0D01*
G01*
X173999295Y-104357401D01*
G75*
G02*
X173936795Y-104294901I0J62500D01*
G01*
X173936795Y-103619901D01*
G75*
G02*
X173999295Y-103557401I62500J0D01*
G01*
X174124295Y-103557401D01*
G75*
G02*
X174186795Y-103619901I0J-62500D01*
G01*
G37*
G36*
G01*
X174686795Y-103619901D02*
X174686795Y-104294901D01*
G75*
G02*
X174624295Y-104357401I-62500J0D01*
G01*
X174499295Y-104357401D01*
G75*
G02*
X174436795Y-104294901I0J62500D01*
G01*
X174436795Y-103619901D01*
G75*
G02*
X174499295Y-103557401I62500J0D01*
G01*
X174624295Y-103557401D01*
G75*
G02*
X174686795Y-103619901I0J-62500D01*
G01*
G37*
G36*
G01*
X175186795Y-103619901D02*
X175186795Y-104294901D01*
G75*
G02*
X175124295Y-104357401I-62500J0D01*
G01*
X174999295Y-104357401D01*
G75*
G02*
X174936795Y-104294901I0J62500D01*
G01*
X174936795Y-103619901D01*
G75*
G02*
X174999295Y-103557401I62500J0D01*
G01*
X175124295Y-103557401D01*
G75*
G02*
X175186795Y-103619901I0J-62500D01*
G01*
G37*
G36*
G01*
X175686795Y-103619901D02*
X175686795Y-104294901D01*
G75*
G02*
X175624295Y-104357401I-62500J0D01*
G01*
X175499295Y-104357401D01*
G75*
G02*
X175436795Y-104294901I0J62500D01*
G01*
X175436795Y-103619901D01*
G75*
G02*
X175499295Y-103557401I62500J0D01*
G01*
X175624295Y-103557401D01*
G75*
G02*
X175686795Y-103619901I0J-62500D01*
G01*
G37*
G36*
G01*
X176186795Y-103619901D02*
X176186795Y-104294901D01*
G75*
G02*
X176124295Y-104357401I-62500J0D01*
G01*
X175999295Y-104357401D01*
G75*
G02*
X175936795Y-104294901I0J62500D01*
G01*
X175936795Y-103619901D01*
G75*
G02*
X175999295Y-103557401I62500J0D01*
G01*
X176124295Y-103557401D01*
G75*
G02*
X176186795Y-103619901I0J-62500D01*
G01*
G37*
G36*
G01*
X176686795Y-103619901D02*
X176686795Y-104294901D01*
G75*
G02*
X176624295Y-104357401I-62500J0D01*
G01*
X176499295Y-104357401D01*
G75*
G02*
X176436795Y-104294901I0J62500D01*
G01*
X176436795Y-103619901D01*
G75*
G02*
X176499295Y-103557401I62500J0D01*
G01*
X176624295Y-103557401D01*
G75*
G02*
X176686795Y-103619901I0J-62500D01*
G01*
G37*
G36*
G01*
X177911795Y-104844901D02*
X177911795Y-104969901D01*
G75*
G02*
X177849295Y-105032401I-62500J0D01*
G01*
X177174295Y-105032401D01*
G75*
G02*
X177111795Y-104969901I0J62500D01*
G01*
X177111795Y-104844901D01*
G75*
G02*
X177174295Y-104782401I62500J0D01*
G01*
X177849295Y-104782401D01*
G75*
G02*
X177911795Y-104844901I0J-62500D01*
G01*
G37*
G36*
G01*
X177911795Y-105344901D02*
X177911795Y-105469901D01*
G75*
G02*
X177849295Y-105532401I-62500J0D01*
G01*
X177174295Y-105532401D01*
G75*
G02*
X177111795Y-105469901I0J62500D01*
G01*
X177111795Y-105344901D01*
G75*
G02*
X177174295Y-105282401I62500J0D01*
G01*
X177849295Y-105282401D01*
G75*
G02*
X177911795Y-105344901I0J-62500D01*
G01*
G37*
G36*
G01*
X177911795Y-105844901D02*
X177911795Y-105969901D01*
G75*
G02*
X177849295Y-106032401I-62500J0D01*
G01*
X177174295Y-106032401D01*
G75*
G02*
X177111795Y-105969901I0J62500D01*
G01*
X177111795Y-105844901D01*
G75*
G02*
X177174295Y-105782401I62500J0D01*
G01*
X177849295Y-105782401D01*
G75*
G02*
X177911795Y-105844901I0J-62500D01*
G01*
G37*
G36*
G01*
X177911795Y-106344901D02*
X177911795Y-106469901D01*
G75*
G02*
X177849295Y-106532401I-62500J0D01*
G01*
X177174295Y-106532401D01*
G75*
G02*
X177111795Y-106469901I0J62500D01*
G01*
X177111795Y-106344901D01*
G75*
G02*
X177174295Y-106282401I62500J0D01*
G01*
X177849295Y-106282401D01*
G75*
G02*
X177911795Y-106344901I0J-62500D01*
G01*
G37*
G36*
G01*
X177911795Y-106844901D02*
X177911795Y-106969901D01*
G75*
G02*
X177849295Y-107032401I-62500J0D01*
G01*
X177174295Y-107032401D01*
G75*
G02*
X177111795Y-106969901I0J62500D01*
G01*
X177111795Y-106844901D01*
G75*
G02*
X177174295Y-106782401I62500J0D01*
G01*
X177849295Y-106782401D01*
G75*
G02*
X177911795Y-106844901I0J-62500D01*
G01*
G37*
G36*
G01*
X177911795Y-107344901D02*
X177911795Y-107469901D01*
G75*
G02*
X177849295Y-107532401I-62500J0D01*
G01*
X177174295Y-107532401D01*
G75*
G02*
X177111795Y-107469901I0J62500D01*
G01*
X177111795Y-107344901D01*
G75*
G02*
X177174295Y-107282401I62500J0D01*
G01*
X177849295Y-107282401D01*
G75*
G02*
X177911795Y-107344901I0J-62500D01*
G01*
G37*
G36*
G01*
X177911795Y-107844901D02*
X177911795Y-107969901D01*
G75*
G02*
X177849295Y-108032401I-62500J0D01*
G01*
X177174295Y-108032401D01*
G75*
G02*
X177111795Y-107969901I0J62500D01*
G01*
X177111795Y-107844901D01*
G75*
G02*
X177174295Y-107782401I62500J0D01*
G01*
X177849295Y-107782401D01*
G75*
G02*
X177911795Y-107844901I0J-62500D01*
G01*
G37*
D18*
X157709000Y-55682500D03*
X157709000Y-56952500D03*
X157709000Y-58222500D03*
X157709000Y-59492500D03*
X157709000Y-60762500D03*
X157709000Y-62032500D03*
X157709000Y-63302500D03*
X157709000Y-64572500D03*
X157709000Y-65842500D03*
X157709000Y-67112500D03*
X157709000Y-68382500D03*
X157709000Y-69652500D03*
X157709000Y-70922500D03*
X157709000Y-72192500D03*
D19*
X154924000Y-73192500D03*
X153654000Y-73192500D03*
X152384000Y-73192500D03*
X151114000Y-73192500D03*
X149844000Y-73192500D03*
X148574000Y-73192500D03*
X147304000Y-73192500D03*
X146034000Y-73192500D03*
X144764000Y-73192500D03*
X143494000Y-73192500D03*
D18*
X140709000Y-72192500D03*
X140709000Y-70922500D03*
X140709000Y-69652500D03*
X140709000Y-68382500D03*
X140709000Y-67112500D03*
X140709000Y-65842500D03*
X140709000Y-64572500D03*
X140709000Y-63302500D03*
X140709000Y-62032500D03*
X140709000Y-60762500D03*
X140709000Y-59492500D03*
X140709000Y-58222500D03*
X140709000Y-56952500D03*
X140709000Y-55682500D03*
D20*
X148209000Y-63182500D03*
D21*
X114241684Y-57162644D03*
X118741684Y-57162644D03*
X181808204Y-56978099D03*
X177308204Y-56978099D03*
D22*
X143327204Y-108667099D03*
D23*
X140827204Y-108667099D03*
X138327204Y-108667099D03*
D24*
X146427204Y-116167099D03*
X135227204Y-116167099D03*
D23*
X143327204Y-123167099D03*
X138327204Y-123167099D03*
G36*
G01*
X172452901Y-113087204D02*
X172822901Y-113087204D01*
G75*
G02*
X172957901Y-113222204I0J-135000D01*
G01*
X172957901Y-113492204D01*
G75*
G02*
X172822901Y-113627204I-135000J0D01*
G01*
X172452901Y-113627204D01*
G75*
G02*
X172317901Y-113492204I0J135000D01*
G01*
X172317901Y-113222204D01*
G75*
G02*
X172452901Y-113087204I135000J0D01*
G01*
G37*
G36*
G01*
X172452901Y-112067204D02*
X172822901Y-112067204D01*
G75*
G02*
X172957901Y-112202204I0J-135000D01*
G01*
X172957901Y-112472204D01*
G75*
G02*
X172822901Y-112607204I-135000J0D01*
G01*
X172452901Y-112607204D01*
G75*
G02*
X172317901Y-112472204I0J135000D01*
G01*
X172317901Y-112202204D01*
G75*
G02*
X172452901Y-112067204I135000J0D01*
G01*
G37*
G36*
G01*
X190647000Y-105833500D02*
X190647000Y-106383500D01*
G75*
G02*
X190447000Y-106583500I-200000J0D01*
G01*
X190047000Y-106583500D01*
G75*
G02*
X189847000Y-106383500I0J200000D01*
G01*
X189847000Y-105833500D01*
G75*
G02*
X190047000Y-105633500I200000J0D01*
G01*
X190447000Y-105633500D01*
G75*
G02*
X190647000Y-105833500I0J-200000D01*
G01*
G37*
G36*
G01*
X192297000Y-105833500D02*
X192297000Y-106383500D01*
G75*
G02*
X192097000Y-106583500I-200000J0D01*
G01*
X191697000Y-106583500D01*
G75*
G02*
X191497000Y-106383500I0J200000D01*
G01*
X191497000Y-105833500D01*
G75*
G02*
X191697000Y-105633500I200000J0D01*
G01*
X192097000Y-105633500D01*
G75*
G02*
X192297000Y-105833500I0J-200000D01*
G01*
G37*
G36*
G01*
X176759900Y-112605204D02*
X176389900Y-112605204D01*
G75*
G02*
X176254900Y-112470204I0J135000D01*
G01*
X176254900Y-112200204D01*
G75*
G02*
X176389900Y-112065204I135000J0D01*
G01*
X176759900Y-112065204D01*
G75*
G02*
X176894900Y-112200204I0J-135000D01*
G01*
X176894900Y-112470204D01*
G75*
G02*
X176759900Y-112605204I-135000J0D01*
G01*
G37*
G36*
G01*
X176759900Y-113625204D02*
X176389900Y-113625204D01*
G75*
G02*
X176254900Y-113490204I0J135000D01*
G01*
X176254900Y-113220204D01*
G75*
G02*
X176389900Y-113085204I135000J0D01*
G01*
X176759900Y-113085204D01*
G75*
G02*
X176894900Y-113220204I0J-135000D01*
G01*
X176894900Y-113490204D01*
G75*
G02*
X176759900Y-113625204I-135000J0D01*
G01*
G37*
G36*
G01*
X186922296Y-112878902D02*
X186922296Y-112508902D01*
G75*
G02*
X187057296Y-112373902I135000J0D01*
G01*
X187327296Y-112373902D01*
G75*
G02*
X187462296Y-112508902I0J-135000D01*
G01*
X187462296Y-112878902D01*
G75*
G02*
X187327296Y-113013902I-135000J0D01*
G01*
X187057296Y-113013902D01*
G75*
G02*
X186922296Y-112878902I0J135000D01*
G01*
G37*
G36*
G01*
X185902296Y-112878902D02*
X185902296Y-112508902D01*
G75*
G02*
X186037296Y-112373902I135000J0D01*
G01*
X186307296Y-112373902D01*
G75*
G02*
X186442296Y-112508902I0J-135000D01*
G01*
X186442296Y-112878902D01*
G75*
G02*
X186307296Y-113013902I-135000J0D01*
G01*
X186037296Y-113013902D01*
G75*
G02*
X185902296Y-112878902I0J135000D01*
G01*
G37*
G36*
G01*
X186052797Y-114648400D02*
X186422797Y-114648400D01*
G75*
G02*
X186557797Y-114783400I0J-135000D01*
G01*
X186557797Y-115053400D01*
G75*
G02*
X186422797Y-115188400I-135000J0D01*
G01*
X186052797Y-115188400D01*
G75*
G02*
X185917797Y-115053400I0J135000D01*
G01*
X185917797Y-114783400D01*
G75*
G02*
X186052797Y-114648400I135000J0D01*
G01*
G37*
G36*
G01*
X186052797Y-113628400D02*
X186422797Y-113628400D01*
G75*
G02*
X186557797Y-113763400I0J-135000D01*
G01*
X186557797Y-114033400D01*
G75*
G02*
X186422797Y-114168400I-135000J0D01*
G01*
X186052797Y-114168400D01*
G75*
G02*
X185917797Y-114033400I0J135000D01*
G01*
X185917797Y-113763400D01*
G75*
G02*
X186052797Y-113628400I135000J0D01*
G01*
G37*
G36*
G01*
X111175205Y-107695598D02*
X111725205Y-107695598D01*
G75*
G02*
X111925205Y-107895598I0J-200000D01*
G01*
X111925205Y-108295598D01*
G75*
G02*
X111725205Y-108495598I-200000J0D01*
G01*
X111175205Y-108495598D01*
G75*
G02*
X110975205Y-108295598I0J200000D01*
G01*
X110975205Y-107895598D01*
G75*
G02*
X111175205Y-107695598I200000J0D01*
G01*
G37*
G36*
G01*
X111175205Y-106045598D02*
X111725205Y-106045598D01*
G75*
G02*
X111925205Y-106245598I0J-200000D01*
G01*
X111925205Y-106645598D01*
G75*
G02*
X111725205Y-106845598I-200000J0D01*
G01*
X111175205Y-106845598D01*
G75*
G02*
X110975205Y-106645598I0J200000D01*
G01*
X110975205Y-106245598D01*
G75*
G02*
X111175205Y-106045598I200000J0D01*
G01*
G37*
G36*
G01*
X116805205Y-106971598D02*
X116255205Y-106971598D01*
G75*
G02*
X116055205Y-106771598I0J200000D01*
G01*
X116055205Y-106371598D01*
G75*
G02*
X116255205Y-106171598I200000J0D01*
G01*
X116805205Y-106171598D01*
G75*
G02*
X117005205Y-106371598I0J-200000D01*
G01*
X117005205Y-106771598D01*
G75*
G02*
X116805205Y-106971598I-200000J0D01*
G01*
G37*
G36*
G01*
X116805205Y-108621598D02*
X116255205Y-108621598D01*
G75*
G02*
X116055205Y-108421598I0J200000D01*
G01*
X116055205Y-108021598D01*
G75*
G02*
X116255205Y-107821598I200000J0D01*
G01*
X116805205Y-107821598D01*
G75*
G02*
X117005205Y-108021598I0J-200000D01*
G01*
X117005205Y-108421598D01*
G75*
G02*
X116805205Y-108621598I-200000J0D01*
G01*
G37*
G36*
G01*
X116573797Y-118350903D02*
X116573797Y-117450899D01*
G75*
G02*
X116823795Y-117200901I249998J0D01*
G01*
X117348799Y-117200901D01*
G75*
G02*
X117598797Y-117450899I0J-249998D01*
G01*
X117598797Y-118350903D01*
G75*
G02*
X117348799Y-118600901I-249998J0D01*
G01*
X116823795Y-118600901D01*
G75*
G02*
X116573797Y-118350903I0J249998D01*
G01*
G37*
G36*
G01*
X114748797Y-118350903D02*
X114748797Y-117450899D01*
G75*
G02*
X114998795Y-117200901I249998J0D01*
G01*
X115523799Y-117200901D01*
G75*
G02*
X115773797Y-117450899I0J-249998D01*
G01*
X115773797Y-118350903D01*
G75*
G02*
X115523799Y-118600901I-249998J0D01*
G01*
X114998795Y-118600901D01*
G75*
G02*
X114748797Y-118350903I0J249998D01*
G01*
G37*
G36*
G01*
X117590685Y-59481144D02*
X117590685Y-60031144D01*
G75*
G02*
X117390685Y-60231144I-200000J0D01*
G01*
X116990685Y-60231144D01*
G75*
G02*
X116790685Y-60031144I0J200000D01*
G01*
X116790685Y-59481144D01*
G75*
G02*
X116990685Y-59281144I200000J0D01*
G01*
X117390685Y-59281144D01*
G75*
G02*
X117590685Y-59481144I0J-200000D01*
G01*
G37*
G36*
G01*
X119240685Y-59481144D02*
X119240685Y-60031144D01*
G75*
G02*
X119040685Y-60231144I-200000J0D01*
G01*
X118640685Y-60231144D01*
G75*
G02*
X118440685Y-60031144I0J200000D01*
G01*
X118440685Y-59481144D01*
G75*
G02*
X118640685Y-59281144I200000J0D01*
G01*
X119040685Y-59281144D01*
G75*
G02*
X119240685Y-59481144I0J-200000D01*
G01*
G37*
G36*
G01*
X108041204Y-64386599D02*
X108041204Y-64936599D01*
G75*
G02*
X107841204Y-65136599I-200000J0D01*
G01*
X107441204Y-65136599D01*
G75*
G02*
X107241204Y-64936599I0J200000D01*
G01*
X107241204Y-64386599D01*
G75*
G02*
X107441204Y-64186599I200000J0D01*
G01*
X107841204Y-64186599D01*
G75*
G02*
X108041204Y-64386599I0J-200000D01*
G01*
G37*
G36*
G01*
X109691204Y-64386599D02*
X109691204Y-64936599D01*
G75*
G02*
X109491204Y-65136599I-200000J0D01*
G01*
X109091204Y-65136599D01*
G75*
G02*
X108891204Y-64936599I0J200000D01*
G01*
X108891204Y-64386599D01*
G75*
G02*
X109091204Y-64186599I200000J0D01*
G01*
X109491204Y-64186599D01*
G75*
G02*
X109691204Y-64386599I0J-200000D01*
G01*
G37*
G36*
G01*
X178486703Y-59793099D02*
X178486703Y-59243099D01*
G75*
G02*
X178686703Y-59043099I200000J0D01*
G01*
X179086703Y-59043099D01*
G75*
G02*
X179286703Y-59243099I0J-200000D01*
G01*
X179286703Y-59793099D01*
G75*
G02*
X179086703Y-59993099I-200000J0D01*
G01*
X178686703Y-59993099D01*
G75*
G02*
X178486703Y-59793099I0J200000D01*
G01*
G37*
G36*
G01*
X176836703Y-59793099D02*
X176836703Y-59243099D01*
G75*
G02*
X177036703Y-59043099I200000J0D01*
G01*
X177436703Y-59043099D01*
G75*
G02*
X177636703Y-59243099I0J-200000D01*
G01*
X177636703Y-59793099D01*
G75*
G02*
X177436703Y-59993099I-200000J0D01*
G01*
X177036703Y-59993099D01*
G75*
G02*
X176836703Y-59793099I0J200000D01*
G01*
G37*
G36*
G01*
X149458000Y-118472000D02*
X150008000Y-118472000D01*
G75*
G02*
X150208000Y-118672000I0J-200000D01*
G01*
X150208000Y-119072000D01*
G75*
G02*
X150008000Y-119272000I-200000J0D01*
G01*
X149458000Y-119272000D01*
G75*
G02*
X149258000Y-119072000I0J200000D01*
G01*
X149258000Y-118672000D01*
G75*
G02*
X149458000Y-118472000I200000J0D01*
G01*
G37*
G36*
G01*
X149458000Y-116822000D02*
X150008000Y-116822000D01*
G75*
G02*
X150208000Y-117022000I0J-200000D01*
G01*
X150208000Y-117422000D01*
G75*
G02*
X150008000Y-117622000I-200000J0D01*
G01*
X149458000Y-117622000D01*
G75*
G02*
X149258000Y-117422000I0J200000D01*
G01*
X149258000Y-117022000D01*
G75*
G02*
X149458000Y-116822000I200000J0D01*
G01*
G37*
G36*
G01*
X143117205Y-106275099D02*
X143117205Y-105725099D01*
G75*
G02*
X143317205Y-105525099I200000J0D01*
G01*
X143717205Y-105525099D01*
G75*
G02*
X143917205Y-105725099I0J-200000D01*
G01*
X143917205Y-106275099D01*
G75*
G02*
X143717205Y-106475099I-200000J0D01*
G01*
X143317205Y-106475099D01*
G75*
G02*
X143117205Y-106275099I0J200000D01*
G01*
G37*
G36*
G01*
X141467205Y-106275099D02*
X141467205Y-105725099D01*
G75*
G02*
X141667205Y-105525099I200000J0D01*
G01*
X142067205Y-105525099D01*
G75*
G02*
X142267205Y-105725099I0J-200000D01*
G01*
X142267205Y-106275099D01*
G75*
G02*
X142067205Y-106475099I-200000J0D01*
G01*
X141667205Y-106475099D01*
G75*
G02*
X141467205Y-106275099I0J200000D01*
G01*
G37*
G36*
G01*
X138838204Y-105725099D02*
X138838204Y-106275099D01*
G75*
G02*
X138638204Y-106475099I-200000J0D01*
G01*
X138238204Y-106475099D01*
G75*
G02*
X138038204Y-106275099I0J200000D01*
G01*
X138038204Y-105725099D01*
G75*
G02*
X138238204Y-105525099I200000J0D01*
G01*
X138638204Y-105525099D01*
G75*
G02*
X138838204Y-105725099I0J-200000D01*
G01*
G37*
G36*
G01*
X140488204Y-105725099D02*
X140488204Y-106275099D01*
G75*
G02*
X140288204Y-106475099I-200000J0D01*
G01*
X139888204Y-106475099D01*
G75*
G02*
X139688204Y-106275099I0J200000D01*
G01*
X139688204Y-105725099D01*
G75*
G02*
X139888204Y-105525099I200000J0D01*
G01*
X140288204Y-105525099D01*
G75*
G02*
X140488204Y-105725099I0J-200000D01*
G01*
G37*
D25*
X114990204Y-107206599D03*
X112990204Y-108156599D03*
X112990204Y-106256599D03*
G36*
G01*
X164459500Y-61289500D02*
X164089500Y-61289500D01*
G75*
G02*
X163954500Y-61154500I0J135000D01*
G01*
X163954500Y-60884500D01*
G75*
G02*
X164089500Y-60749500I135000J0D01*
G01*
X164459500Y-60749500D01*
G75*
G02*
X164594500Y-60884500I0J-135000D01*
G01*
X164594500Y-61154500D01*
G75*
G02*
X164459500Y-61289500I-135000J0D01*
G01*
G37*
G36*
G01*
X164459500Y-62309500D02*
X164089500Y-62309500D01*
G75*
G02*
X163954500Y-62174500I0J135000D01*
G01*
X163954500Y-61904500D01*
G75*
G02*
X164089500Y-61769500I135000J0D01*
G01*
X164459500Y-61769500D01*
G75*
G02*
X164594500Y-61904500I0J-135000D01*
G01*
X164594500Y-62174500D01*
G75*
G02*
X164459500Y-62309500I-135000J0D01*
G01*
G37*
G36*
G01*
X165920000Y-59577000D02*
X165550000Y-59577000D01*
G75*
G02*
X165415000Y-59442000I0J135000D01*
G01*
X165415000Y-59172000D01*
G75*
G02*
X165550000Y-59037000I135000J0D01*
G01*
X165920000Y-59037000D01*
G75*
G02*
X166055000Y-59172000I0J-135000D01*
G01*
X166055000Y-59442000D01*
G75*
G02*
X165920000Y-59577000I-135000J0D01*
G01*
G37*
G36*
G01*
X165920000Y-60597000D02*
X165550000Y-60597000D01*
G75*
G02*
X165415000Y-60462000I0J135000D01*
G01*
X165415000Y-60192000D01*
G75*
G02*
X165550000Y-60057000I135000J0D01*
G01*
X165920000Y-60057000D01*
G75*
G02*
X166055000Y-60192000I0J-135000D01*
G01*
X166055000Y-60462000D01*
G75*
G02*
X165920000Y-60597000I-135000J0D01*
G01*
G37*
D26*
X191934295Y-109605401D03*
D27*
X194699295Y-110590401D03*
D28*
X194699295Y-112510401D03*
D29*
X194429295Y-108820401D03*
X194429295Y-114280401D03*
D26*
X191934295Y-113515401D03*
D30*
X191549295Y-110250401D03*
X191549295Y-110900401D03*
X191549295Y-111550401D03*
X191549295Y-112200401D03*
X191549295Y-112850401D03*
D14*
X180657500Y-68916099D03*
X178117500Y-68916099D03*
X175577500Y-68916099D03*
D15*
X173037500Y-68916099D03*
D31*
X167703500Y-56261000D03*
X168973500Y-56261000D03*
D32*
X170243500Y-56261000D03*
D10*
X192786000Y-57721500D03*
X105981500Y-57721500D03*
X105981500Y-123698000D03*
X192786000Y-123698000D03*
G36*
G01*
X189037296Y-114883400D02*
X189037296Y-113933400D01*
G75*
G02*
X189287296Y-113683400I250000J0D01*
G01*
X189787296Y-113683400D01*
G75*
G02*
X190037296Y-113933400I0J-250000D01*
G01*
X190037296Y-114883400D01*
G75*
G02*
X189787296Y-115133400I-250000J0D01*
G01*
X189287296Y-115133400D01*
G75*
G02*
X189037296Y-114883400I0J250000D01*
G01*
G37*
G36*
G01*
X187137296Y-114883400D02*
X187137296Y-113933400D01*
G75*
G02*
X187387296Y-113683400I250000J0D01*
G01*
X187887296Y-113683400D01*
G75*
G02*
X188137296Y-113933400I0J-250000D01*
G01*
X188137296Y-114883400D01*
G75*
G02*
X187887296Y-115133400I-250000J0D01*
G01*
X187387296Y-115133400D01*
G75*
G02*
X187137296Y-114883400I0J250000D01*
G01*
G37*
D33*
X185061500Y-110040500D03*
X185061500Y-108140500D03*
X187261500Y-108140500D03*
D34*
X187261500Y-109860500D03*
G36*
G01*
X112191296Y-117444650D02*
X112191296Y-118357150D01*
G75*
G02*
X111947546Y-118600900I-243750J0D01*
G01*
X111460046Y-118600900D01*
G75*
G02*
X111216296Y-118357150I0J243750D01*
G01*
X111216296Y-117444650D01*
G75*
G02*
X111460046Y-117200900I243750J0D01*
G01*
X111947546Y-117200900D01*
G75*
G02*
X112191296Y-117444650I0J-243750D01*
G01*
G37*
G36*
G01*
X114066296Y-117444650D02*
X114066296Y-118357150D01*
G75*
G02*
X113822546Y-118600900I-243750J0D01*
G01*
X113335046Y-118600900D01*
G75*
G02*
X113091296Y-118357150I0J243750D01*
G01*
X113091296Y-117444650D01*
G75*
G02*
X113335046Y-117200900I243750J0D01*
G01*
X113822546Y-117200900D01*
G75*
G02*
X114066296Y-117444650I0J-243750D01*
G01*
G37*
G36*
G01*
X105767704Y-64917849D02*
X105767704Y-64405349D01*
G75*
G02*
X105986454Y-64186599I218750J0D01*
G01*
X106423954Y-64186599D01*
G75*
G02*
X106642704Y-64405349I0J-218750D01*
G01*
X106642704Y-64917849D01*
G75*
G02*
X106423954Y-65136599I-218750J0D01*
G01*
X105986454Y-65136599D01*
G75*
G02*
X105767704Y-64917849I0J218750D01*
G01*
G37*
G36*
G01*
X104192704Y-64917849D02*
X104192704Y-64405349D01*
G75*
G02*
X104411454Y-64186599I218750J0D01*
G01*
X104848954Y-64186599D01*
G75*
G02*
X105067704Y-64405349I0J-218750D01*
G01*
X105067704Y-64917849D01*
G75*
G02*
X104848954Y-65136599I-218750J0D01*
G01*
X104411454Y-65136599D01*
G75*
G02*
X104192704Y-64917849I0J218750D01*
G01*
G37*
D35*
X193040000Y-67437000D03*
X189840000Y-67437000D03*
X193040000Y-72337000D03*
X189840000Y-72337000D03*
G36*
G01*
X193781500Y-105858500D02*
X193781500Y-106358500D01*
G75*
G02*
X193556500Y-106583500I-225000J0D01*
G01*
X193106500Y-106583500D01*
G75*
G02*
X192881500Y-106358500I0J225000D01*
G01*
X192881500Y-105858500D01*
G75*
G02*
X193106500Y-105633500I225000J0D01*
G01*
X193556500Y-105633500D01*
G75*
G02*
X193781500Y-105858500I0J-225000D01*
G01*
G37*
G36*
G01*
X195331500Y-105858500D02*
X195331500Y-106358500D01*
G75*
G02*
X195106500Y-106583500I-225000J0D01*
G01*
X194656500Y-106583500D01*
G75*
G02*
X194431500Y-106358500I0J225000D01*
G01*
X194431500Y-105858500D01*
G75*
G02*
X194656500Y-105633500I225000J0D01*
G01*
X195106500Y-105633500D01*
G75*
G02*
X195331500Y-105858500I0J-225000D01*
G01*
G37*
G36*
G01*
X176034797Y-100561401D02*
X176034797Y-100061401D01*
G75*
G02*
X176259797Y-99836401I225000J0D01*
G01*
X176709797Y-99836401D01*
G75*
G02*
X176934797Y-100061401I0J-225000D01*
G01*
X176934797Y-100561401D01*
G75*
G02*
X176709797Y-100786401I-225000J0D01*
G01*
X176259797Y-100786401D01*
G75*
G02*
X176034797Y-100561401I0J225000D01*
G01*
G37*
G36*
G01*
X174484797Y-100561401D02*
X174484797Y-100061401D01*
G75*
G02*
X174709797Y-99836401I225000J0D01*
G01*
X175159797Y-99836401D01*
G75*
G02*
X175384797Y-100061401I0J-225000D01*
G01*
X175384797Y-100561401D01*
G75*
G02*
X175159797Y-100786401I-225000J0D01*
G01*
X174709797Y-100786401D01*
G75*
G02*
X174484797Y-100561401I0J225000D01*
G01*
G37*
G36*
G01*
X181034795Y-106528901D02*
X181534795Y-106528901D01*
G75*
G02*
X181759795Y-106753901I0J-225000D01*
G01*
X181759795Y-107203901D01*
G75*
G02*
X181534795Y-107428901I-225000J0D01*
G01*
X181034795Y-107428901D01*
G75*
G02*
X180809795Y-107203901I0J225000D01*
G01*
X180809795Y-106753901D01*
G75*
G02*
X181034795Y-106528901I225000J0D01*
G01*
G37*
G36*
G01*
X181034795Y-104978901D02*
X181534795Y-104978901D01*
G75*
G02*
X181759795Y-105203901I0J-225000D01*
G01*
X181759795Y-105653901D01*
G75*
G02*
X181534795Y-105878901I-225000J0D01*
G01*
X181034795Y-105878901D01*
G75*
G02*
X180809795Y-105653901I0J225000D01*
G01*
X180809795Y-105203901D01*
G75*
G02*
X181034795Y-104978901I225000J0D01*
G01*
G37*
G36*
G01*
X176021796Y-102085401D02*
X176021796Y-101585401D01*
G75*
G02*
X176246796Y-101360401I225000J0D01*
G01*
X176696796Y-101360401D01*
G75*
G02*
X176921796Y-101585401I0J-225000D01*
G01*
X176921796Y-102085401D01*
G75*
G02*
X176696796Y-102310401I-225000J0D01*
G01*
X176246796Y-102310401D01*
G75*
G02*
X176021796Y-102085401I0J225000D01*
G01*
G37*
G36*
G01*
X174471796Y-102085401D02*
X174471796Y-101585401D01*
G75*
G02*
X174696796Y-101360401I225000J0D01*
G01*
X175146796Y-101360401D01*
G75*
G02*
X175371796Y-101585401I0J-225000D01*
G01*
X175371796Y-102085401D01*
G75*
G02*
X175146796Y-102310401I-225000J0D01*
G01*
X174696796Y-102310401D01*
G75*
G02*
X174471796Y-102085401I0J225000D01*
G01*
G37*
G36*
G01*
X179510797Y-106541902D02*
X180010797Y-106541902D01*
G75*
G02*
X180235797Y-106766902I0J-225000D01*
G01*
X180235797Y-107216902D01*
G75*
G02*
X180010797Y-107441902I-225000J0D01*
G01*
X179510797Y-107441902D01*
G75*
G02*
X179285797Y-107216902I0J225000D01*
G01*
X179285797Y-106766902D01*
G75*
G02*
X179510797Y-106541902I225000J0D01*
G01*
G37*
G36*
G01*
X179510797Y-104991902D02*
X180010797Y-104991902D01*
G75*
G02*
X180235797Y-105216902I0J-225000D01*
G01*
X180235797Y-105666902D01*
G75*
G02*
X180010797Y-105891902I-225000J0D01*
G01*
X179510797Y-105891902D01*
G75*
G02*
X179285797Y-105666902I0J225000D01*
G01*
X179285797Y-105216902D01*
G75*
G02*
X179510797Y-104991902I225000J0D01*
G01*
G37*
G36*
G01*
X135324000Y-63059500D02*
X135324000Y-63559500D01*
G75*
G02*
X135099000Y-63784500I-225000J0D01*
G01*
X134649000Y-63784500D01*
G75*
G02*
X134424000Y-63559500I0J225000D01*
G01*
X134424000Y-63059500D01*
G75*
G02*
X134649000Y-62834500I225000J0D01*
G01*
X135099000Y-62834500D01*
G75*
G02*
X135324000Y-63059500I0J-225000D01*
G01*
G37*
G36*
G01*
X136874000Y-63059500D02*
X136874000Y-63559500D01*
G75*
G02*
X136649000Y-63784500I-225000J0D01*
G01*
X136199000Y-63784500D01*
G75*
G02*
X135974000Y-63559500I0J225000D01*
G01*
X135974000Y-63059500D01*
G75*
G02*
X136199000Y-62834500I225000J0D01*
G01*
X136649000Y-62834500D01*
G75*
G02*
X136874000Y-63059500I0J-225000D01*
G01*
G37*
G36*
G01*
X115292683Y-60006144D02*
X115292683Y-59506144D01*
G75*
G02*
X115517683Y-59281144I225000J0D01*
G01*
X115967683Y-59281144D01*
G75*
G02*
X116192683Y-59506144I0J-225000D01*
G01*
X116192683Y-60006144D01*
G75*
G02*
X115967683Y-60231144I-225000J0D01*
G01*
X115517683Y-60231144D01*
G75*
G02*
X115292683Y-60006144I0J225000D01*
G01*
G37*
G36*
G01*
X113742683Y-60006144D02*
X113742683Y-59506144D01*
G75*
G02*
X113967683Y-59281144I225000J0D01*
G01*
X114417683Y-59281144D01*
G75*
G02*
X114642683Y-59506144I0J-225000D01*
G01*
X114642683Y-60006144D01*
G75*
G02*
X114417683Y-60231144I-225000J0D01*
G01*
X113967683Y-60231144D01*
G75*
G02*
X113742683Y-60006144I0J225000D01*
G01*
G37*
G36*
G01*
X180784703Y-59268098D02*
X180784703Y-59768098D01*
G75*
G02*
X180559703Y-59993098I-225000J0D01*
G01*
X180109703Y-59993098D01*
G75*
G02*
X179884703Y-59768098I0J225000D01*
G01*
X179884703Y-59268098D01*
G75*
G02*
X180109703Y-59043098I225000J0D01*
G01*
X180559703Y-59043098D01*
G75*
G02*
X180784703Y-59268098I0J-225000D01*
G01*
G37*
G36*
G01*
X182334703Y-59268098D02*
X182334703Y-59768098D01*
G75*
G02*
X182109703Y-59993098I-225000J0D01*
G01*
X181659703Y-59993098D01*
G75*
G02*
X181434703Y-59768098I0J225000D01*
G01*
X181434703Y-59268098D01*
G75*
G02*
X181659703Y-59043098I225000J0D01*
G01*
X182109703Y-59043098D01*
G75*
G02*
X182334703Y-59268098I0J-225000D01*
G01*
G37*
G36*
G01*
X135260500Y-59186000D02*
X135260500Y-59686000D01*
G75*
G02*
X135035500Y-59911000I-225000J0D01*
G01*
X134585500Y-59911000D01*
G75*
G02*
X134360500Y-59686000I0J225000D01*
G01*
X134360500Y-59186000D01*
G75*
G02*
X134585500Y-58961000I225000J0D01*
G01*
X135035500Y-58961000D01*
G75*
G02*
X135260500Y-59186000I0J-225000D01*
G01*
G37*
G36*
G01*
X136810500Y-59186000D02*
X136810500Y-59686000D01*
G75*
G02*
X136585500Y-59911000I-225000J0D01*
G01*
X136135500Y-59911000D01*
G75*
G02*
X135910500Y-59686000I0J225000D01*
G01*
X135910500Y-59186000D01*
G75*
G02*
X136135500Y-58961000I225000J0D01*
G01*
X136585500Y-58961000D01*
G75*
G02*
X136810500Y-59186000I0J-225000D01*
G01*
G37*
G36*
G01*
X135948000Y-61210000D02*
X135948000Y-60710000D01*
G75*
G02*
X136173000Y-60485000I225000J0D01*
G01*
X136623000Y-60485000D01*
G75*
G02*
X136848000Y-60710000I0J-225000D01*
G01*
X136848000Y-61210000D01*
G75*
G02*
X136623000Y-61435000I-225000J0D01*
G01*
X136173000Y-61435000D01*
G75*
G02*
X135948000Y-61210000I0J225000D01*
G01*
G37*
G36*
G01*
X134398000Y-61210000D02*
X134398000Y-60710000D01*
G75*
G02*
X134623000Y-60485000I225000J0D01*
G01*
X135073000Y-60485000D01*
G75*
G02*
X135298000Y-60710000I0J-225000D01*
G01*
X135298000Y-61210000D01*
G75*
G02*
X135073000Y-61435000I-225000J0D01*
G01*
X134623000Y-61435000D01*
G75*
G02*
X134398000Y-61210000I0J225000D01*
G01*
G37*
D36*
X115697000Y-110871000D03*
X115697000Y-114961000D03*
X112427000Y-114961000D03*
M02*
