M48
; DRILL file {KiCad (5.1.12)-1} date 03/18/22 17:22:42
; FORMAT={3:3/ absolute / metric / suppress leading zeros}
; #@! TF.CreationDate,2022-03-18T17:22:42+08:00
; #@! TF.GenerationSoftware,Kicad,Pcbnew,(5.1.12)-1
FMAT,2
METRIC,TZ
T1C0.300
T2C0.400
T3C0.650
T4C0.700
T5C0.800
T6C1.000
T7C1.500
T8C0.470
T9C3.200
%
G90
G05
T1
X132779Y-68326
X136906Y-64897
X137351Y-88646
X137859Y-68453
X138875Y-65913
X159195Y-119190
X161544Y-78613
X163322Y-63182
X164021Y-67247
X166053Y-63119
X170244Y-63119
X172022Y-63055
X175641Y-64008
X178512Y-105630
X178548Y-106480
T2
X103315Y-59055
X103378Y-63500
X103378Y-72834
X103378Y-84519
X103378Y-101854
X103442Y-105537
X103442Y-112776
X103442Y-121094
X107506Y-55182
X107506Y-126174
X109474Y-66358
X109474Y-97092
X109601Y-76772
X109601Y-79248
X110807Y-63310
X111506Y-102552
X113030Y-110299
X113157Y-94869
X113792Y-91885
X114046Y-112840
X114300Y-97536
X114427Y-119380
X115253Y-126174
X115888Y-55118
X116078Y-74105
X116142Y-76708
X116205Y-79185
X116523Y-66993
X117475Y-90742
X117539Y-109347
X117602Y-88138
X118110Y-106934
X118173Y-65087
X118618Y-116967
X118618Y-119951
X119824Y-94171
X120015Y-58610
X120206Y-85471
X120459Y-99822
X120904Y-90488
X122428Y-76772
X122682Y-85408
X124206Y-55118
X124523Y-78486
X124777Y-116967
X124777Y-119951
X124968Y-126174
X125095Y-86360
X126048Y-70803
X126556Y-106743
X126619Y-109538
X127381Y-68263
X128016Y-72263
X128080Y-79248
X128143Y-100648
X128333Y-88964
X129413Y-86233
X129731Y-63627
X131509Y-61532
X131509Y-119951
X131826Y-55118
X132271Y-105855
X132334Y-58357
X132715Y-72898
X132715Y-75946
X132715Y-79312
X132969Y-86233
X133159Y-116903
X134176Y-107315
X134302Y-95885
X134811Y-57087
X134811Y-66802
X135255Y-55118
X135446Y-109855
X135826Y-86487
X135954Y-126174
X136207Y-101727
X136652Y-107632
X136716Y-68580
X136779Y-79375
X136906Y-72962
X136906Y-76073
X137033Y-119888
X137160Y-95694
X137160Y-99060
X138112Y-67056
X138684Y-59436
X138684Y-63310
X138748Y-60770
X139065Y-86106
X139510Y-87440
X139510Y-100965
X139573Y-90107
X139573Y-95441
X139891Y-116903
X140145Y-119888
X140754Y-86100
X141034Y-73787
X141034Y-76010
X141034Y-111887
X141097Y-104775
X141160Y-79312
X142240Y-86106
X142621Y-110554
X142684Y-55182
X142684Y-61595
X142684Y-116903
X143447Y-86169
X144209Y-55182
X144717Y-87948
X144717Y-93218
X144717Y-111887
X144780Y-100203
X144780Y-104648
X144844Y-62420
X144844Y-63818
X144844Y-90170
X145161Y-70422
X145351Y-59690
X145415Y-79312
X145479Y-66548
X145479Y-69025
X145479Y-75565
X145479Y-126174
X145669Y-55182
X146050Y-85217
X146177Y-107378
X147130Y-55182
X147574Y-59627
X148019Y-71184
X148019Y-75121
X148273Y-63182
X148400Y-97092
X148526Y-55182
X149289Y-66675
X149860Y-94996
X149924Y-55182
X150305Y-59753
X151257Y-118809
X151321Y-55182
X151384Y-115634
X151511Y-75184
X151638Y-62420
X151638Y-63881
X151701Y-60770
X152464Y-101219
X152654Y-79248
X152781Y-55182
X154178Y-55182
X154178Y-99314
X155067Y-111823
X155131Y-116459
X155194Y-71120
X155194Y-126174
X155702Y-55118
X155829Y-84899
X156147Y-75756
X157099Y-87757
X157671Y-74549
X157798Y-109601
X157925Y-113602
X157988Y-120269
X159512Y-56960
X159766Y-55118
X159766Y-67755
X159957Y-63754
X160274Y-58230
X160465Y-89852
X161074Y-62307
X161100Y-64072
X161226Y-105982
X161226Y-121920
X161290Y-55118
X162814Y-55118
X163005Y-89852
X163259Y-108268
X163576Y-57087
X163640Y-80899
X163957Y-76073
X163957Y-117729
X164084Y-71501
X164211Y-97981
X164274Y-126174
X164401Y-55118
X165036Y-65261
X165926Y-55118
X165926Y-96329
X165989Y-84582
X165989Y-86868
X166307Y-68136
X166307Y-78486
X166497Y-65024
X166561Y-76073
X166853Y-59344
X167259Y-99886
X167386Y-104076
X167767Y-60743
X168974Y-60008
X168974Y-65087
X168974Y-67373
X168974Y-70803
X169037Y-77280
X169101Y-78676
X169228Y-75629
X169228Y-86868
X169473Y-94623
X169672Y-97409
X170434Y-101219
X170751Y-93218
X171831Y-61150
X172085Y-126174
X172529Y-65024
X172657Y-109792
X172911Y-76010
X172911Y-78486
X173419Y-115253
X173736Y-100203
X174117Y-58547
X174181Y-55182
X174181Y-73343
X174244Y-63881
X174244Y-84836
X174498Y-94742
X174625Y-110426
X174689Y-67183
X175387Y-61214
X175768Y-110363
X176848Y-97727
X177038Y-73152
X177165Y-84963
X177292Y-76073
X177292Y-78486
X177927Y-100711
X178181Y-63627
X178308Y-113030
X178499Y-67183
X178879Y-96203
X178879Y-97473
X178879Y-108077
X179134Y-91186
X179451Y-70485
X180149Y-103505
X180276Y-56388
X180402Y-108333
X180594Y-120015
X180848Y-66294
X181546Y-126174
X181674Y-109601
X182372Y-107061
X182944Y-109093
X183134Y-103315
X183451Y-59246
X183896Y-106871
X184404Y-71819
X184468Y-69152
X185039Y-115697
X185420Y-55245
X185484Y-61532
X187389Y-111125
X187579Y-76073
X187579Y-78486
X188595Y-108966
X188659Y-94615
X189548Y-65659
X191008Y-107632
X191071Y-55245
X191071Y-108712
X191071Y-126174
X191135Y-114808
X191389Y-67437
X191389Y-72263
X192087Y-108394
X192659Y-69279
X193040Y-65596
X193040Y-74168
X195199Y-60008
X195199Y-83566
X195199Y-100965
X195199Y-116713
X195199Y-122365
X195263Y-72200
T3
X167704Y-56261
X168974Y-56261
X170244Y-56261
T5
X127508Y-90868
X127508Y-94368
T6
X105727Y-75501
X105727Y-78042
X105727Y-80582
X105727Y-83122
X105727Y-85662
X105727Y-88202
X105727Y-90742
X105727Y-93282
X105727Y-95822
X105727Y-98362
X108268Y-75501
X108268Y-78042
X108268Y-80582
X108268Y-83122
X108268Y-85662
X108268Y-88202
X108268Y-90742
X108268Y-93282
X108268Y-95822
X108268Y-98362
X138327Y-108667
X138327Y-123167
X140827Y-108667
X143327Y-108667
X143327Y-123167
X173038Y-68916
X175578Y-68916
X178117Y-68916
X180658Y-68916
T8
X191934Y-109605
X191934Y-113515
T9
X105982Y-57722
X105982Y-123698
X165545Y-92647
X192786Y-57722
X192786Y-123698
T4
X194679Y-108820G85X194179Y-108820
G05
X194679Y-114280G85X194179Y-114280
G05
T7
X135227Y-115517G85X135227Y-116817
G05
X146427Y-115517G85X146427Y-116817
G05
T0
M30
