G04 #@! TF.GenerationSoftware,KiCad,Pcbnew,(5.1.12)-1*
G04 #@! TF.CreationDate,2022-03-18T17:22:37+08:00*
G04 #@! TF.ProjectId,Printhead-Controller,5072696e-7468-4656-9164-2d436f6e7472,0.5*
G04 #@! TF.SameCoordinates,Original*
G04 #@! TF.FileFunction,Copper,L2,Bot*
G04 #@! TF.FilePolarity,Positive*
%FSLAX46Y46*%
G04 Gerber Fmt 4.6, Leading zero omitted, Abs format (unit mm)*
G04 Created by KiCad (PCBNEW (5.1.12)-1) date 2022-03-18 17:22:37*
%MOMM*%
%LPD*%
G01*
G04 APERTURE LIST*
G04 #@! TA.AperFunction,ComponentPad*
%ADD10C,1.600000*%
G04 #@! TD*
G04 #@! TA.AperFunction,ComponentPad*
%ADD11R,1.600000X1.600000*%
G04 #@! TD*
G04 #@! TA.AperFunction,ComponentPad*
%ADD12O,1.700000X1.700000*%
G04 #@! TD*
G04 #@! TA.AperFunction,ComponentPad*
%ADD13R,1.700000X1.700000*%
G04 #@! TD*
G04 #@! TA.AperFunction,ComponentPad*
%ADD14R,2.000000X2.000000*%
G04 #@! TD*
G04 #@! TA.AperFunction,ComponentPad*
%ADD15C,2.000000*%
G04 #@! TD*
G04 #@! TA.AperFunction,ComponentPad*
%ADD16R,2.000000X3.200000*%
G04 #@! TD*
G04 #@! TA.AperFunction,ComponentPad*
%ADD17O,1.700000X1.350000*%
G04 #@! TD*
G04 #@! TA.AperFunction,ComponentPad*
%ADD18O,1.000000X1.000000*%
G04 #@! TD*
G04 #@! TA.AperFunction,ComponentPad*
%ADD19R,1.000000X1.000000*%
G04 #@! TD*
G04 #@! TA.AperFunction,ViaPad*
%ADD20C,0.800000*%
G04 #@! TD*
G04 #@! TA.AperFunction,ViaPad*
%ADD21C,0.650000*%
G04 #@! TD*
G04 #@! TA.AperFunction,Conductor*
%ADD22C,0.400000*%
G04 #@! TD*
G04 #@! TA.AperFunction,Conductor*
%ADD23C,0.700000*%
G04 #@! TD*
G04 #@! TA.AperFunction,Conductor*
%ADD24C,0.600000*%
G04 #@! TD*
G04 #@! TA.AperFunction,Conductor*
%ADD25C,1.000000*%
G04 #@! TD*
G04 #@! TA.AperFunction,Conductor*
%ADD26C,2.000000*%
G04 #@! TD*
G04 #@! TA.AperFunction,Conductor*
%ADD27C,0.300000*%
G04 #@! TD*
G04 #@! TA.AperFunction,Conductor*
%ADD28C,0.254000*%
G04 #@! TD*
G04 #@! TA.AperFunction,Conductor*
%ADD29C,0.100000*%
G04 #@! TD*
G04 APERTURE END LIST*
D10*
X127508000Y-94368500D03*
D11*
X127508000Y-90868500D03*
D12*
X108267500Y-98361500D03*
X105727500Y-98361500D03*
X108267500Y-95821500D03*
X105727500Y-95821500D03*
X108267500Y-93281500D03*
X105727500Y-93281500D03*
X108267500Y-90741500D03*
X105727500Y-90741500D03*
X108267500Y-88201500D03*
X105727500Y-88201500D03*
X108267500Y-85661500D03*
X105727500Y-85661500D03*
X108267500Y-83121500D03*
X105727500Y-83121500D03*
X108267500Y-80581500D03*
X105727500Y-80581500D03*
X108267500Y-78041500D03*
X105727500Y-78041500D03*
X108267500Y-75501500D03*
D13*
X105727500Y-75501500D03*
D14*
X143327204Y-108667099D03*
D15*
X140827204Y-108667099D03*
X138327204Y-108667099D03*
D16*
X146427204Y-116167099D03*
X135227204Y-116167099D03*
D15*
X143327204Y-123167099D03*
X138327204Y-123167099D03*
D17*
X194429295Y-108820401D03*
X194429295Y-114280401D03*
D12*
X180657500Y-68916099D03*
X178117500Y-68916099D03*
X175577500Y-68916099D03*
D13*
X173037500Y-68916099D03*
D18*
X167703500Y-56261000D03*
X168973500Y-56261000D03*
D19*
X170243500Y-56261000D03*
D20*
X138747500Y-60769500D03*
X142240000Y-86106000D03*
X173736000Y-100203000D03*
X178879500Y-108077000D03*
X187388500Y-111125000D03*
X191071500Y-108712000D03*
X191008000Y-107632500D03*
X192087500Y-108394500D03*
X180276500Y-56388000D03*
X114300000Y-97536000D03*
X125095000Y-86360000D03*
X109474000Y-97091500D03*
X113157000Y-94869000D03*
X117475000Y-90741500D03*
X113792000Y-91884500D03*
X120205500Y-85471000D03*
X122682000Y-85407500D03*
X146050000Y-85217000D03*
D21*
X161544000Y-78613000D03*
X164020500Y-67246500D03*
D20*
X144716500Y-87947500D03*
X157099000Y-87757000D03*
X155829000Y-84899500D03*
X163957000Y-76073000D03*
X164084000Y-71501000D03*
X156146500Y-75755500D03*
X155194000Y-71120000D03*
X151511000Y-75184000D03*
X148018500Y-75120500D03*
X145478500Y-75565000D03*
X148018500Y-71183500D03*
X145478500Y-69024500D03*
X142684500Y-61595000D03*
X142684500Y-55181500D03*
X144208500Y-55181500D03*
X145669000Y-55181500D03*
X147129500Y-55181500D03*
X148526500Y-55181500D03*
X149923500Y-55181500D03*
X151320500Y-55181500D03*
X152781000Y-55181500D03*
X154178000Y-55181500D03*
X155702000Y-55118000D03*
X159766000Y-55118000D03*
X161290000Y-55118000D03*
X162814000Y-55118000D03*
X164401500Y-55118000D03*
X165925500Y-55118000D03*
X166497000Y-65024000D03*
X166306500Y-68135500D03*
X168973500Y-67373500D03*
X168973500Y-65087500D03*
X174688500Y-67183000D03*
X175387000Y-61214000D03*
X180848000Y-66294000D03*
X178181000Y-63627000D03*
X172529500Y-65024000D03*
X172910500Y-76009500D03*
X172910500Y-78486000D03*
X169100500Y-78676500D03*
X177292000Y-78486000D03*
X177292000Y-76073000D03*
X187579000Y-76073000D03*
X187579000Y-78486000D03*
X193040000Y-74168000D03*
X191389000Y-72263000D03*
X191389000Y-67437000D03*
X193040000Y-65595500D03*
X189547500Y-65659000D03*
X174117000Y-58547000D03*
X185420000Y-55245000D03*
X191071500Y-55245000D03*
X195199000Y-60007500D03*
X185483500Y-61531500D03*
X183451500Y-59245500D03*
X195262500Y-72199500D03*
X195199000Y-83566000D03*
X195199000Y-100965000D03*
X195199000Y-116713000D03*
X195199000Y-122364500D03*
X191071500Y-126174500D03*
X181546500Y-126174500D03*
X172085000Y-126174500D03*
X164274500Y-126174500D03*
X155194000Y-126174500D03*
X145478500Y-126174500D03*
X135953500Y-126174500D03*
X124968000Y-126174500D03*
X115252500Y-126174500D03*
X107505500Y-126174500D03*
X103441500Y-121094500D03*
X103441500Y-112776000D03*
X103441500Y-105537000D03*
X103378000Y-101854000D03*
X103378000Y-84518500D03*
X103378000Y-72834500D03*
X103378000Y-63500000D03*
X103314500Y-59055000D03*
X107505500Y-55181500D03*
X115887500Y-55118000D03*
X124206000Y-55118000D03*
X131826000Y-55118000D03*
X135255000Y-55118000D03*
X132334000Y-58356500D03*
X120015000Y-58610500D03*
X131508500Y-61531500D03*
X129730500Y-63627000D03*
X110807500Y-63309500D03*
X118173500Y-65087500D03*
X116522500Y-66992500D03*
X109474000Y-66357500D03*
X126047500Y-70802500D03*
X128016000Y-72263000D03*
X132715000Y-72898000D03*
X136906000Y-72961500D03*
X141033500Y-73787000D03*
X141033500Y-76009500D03*
X136906000Y-76073000D03*
X132715000Y-75946000D03*
X124523500Y-78486000D03*
X109601000Y-79248000D03*
X132969000Y-86233000D03*
X128333500Y-88963500D03*
X137160000Y-95694500D03*
X137160000Y-99060000D03*
X136207500Y-101727000D03*
X134302500Y-95885000D03*
X139509500Y-87439500D03*
X139509500Y-100965000D03*
X134175500Y-107315000D03*
X132270500Y-105854500D03*
X136652000Y-107632500D03*
X117538500Y-109347000D03*
X118110000Y-106934000D03*
X113030000Y-110299500D03*
X114046000Y-112839500D03*
X114427000Y-119380000D03*
X118618000Y-119951500D03*
X118618000Y-116967000D03*
X140144500Y-119888000D03*
X137033000Y-119888000D03*
X133159500Y-116903500D03*
X142684500Y-116903500D03*
X139890500Y-116903500D03*
X144780000Y-104648000D03*
X146177000Y-107378500D03*
X142621000Y-110553500D03*
X144716500Y-111887000D03*
X151257000Y-118808500D03*
X151384000Y-115633500D03*
X155130500Y-116459000D03*
X157988000Y-120269000D03*
X161226500Y-121920000D03*
X163258500Y-108267500D03*
X161226500Y-105981500D03*
X172656500Y-109791500D03*
X167386000Y-104076500D03*
X167259000Y-99885500D03*
X170434000Y-101219000D03*
X169672000Y-97409000D03*
X174498000Y-94742000D03*
X176847500Y-97726500D03*
X183134000Y-103314500D03*
X181673500Y-109601000D03*
X182372000Y-107061000D03*
X185039000Y-115697000D03*
X191135000Y-114808000D03*
X178308000Y-113030000D03*
X173418500Y-115252500D03*
X177927000Y-100711000D03*
X179133500Y-91186000D03*
X169227500Y-86868000D03*
X165989000Y-84582000D03*
X163004500Y-89852500D03*
X169227500Y-75628500D03*
X168973500Y-70802500D03*
X120459500Y-99822000D03*
X119824500Y-94170500D03*
X111506000Y-102552500D03*
X126619000Y-109537500D03*
X126555500Y-106743500D03*
X124777500Y-116967000D03*
X124777500Y-119951500D03*
X131508500Y-119951500D03*
X159766000Y-67754500D03*
D21*
X163322000Y-63182500D03*
X166052500Y-63119000D03*
X170243500Y-63119000D03*
X172021500Y-63055500D03*
X175641000Y-64008000D03*
D20*
X178498500Y-67183000D03*
X184404000Y-71818500D03*
X184467500Y-69151500D03*
X177038000Y-73152000D03*
X174180500Y-73342500D03*
X154178000Y-99314000D03*
X188658500Y-94615000D03*
X177165000Y-84963000D03*
X174244000Y-84836000D03*
X180594000Y-120015000D03*
X163957000Y-117729000D03*
X116078000Y-74104500D03*
X109601000Y-76771500D03*
X122428000Y-76771500D03*
X116205000Y-79184500D03*
X116141500Y-76708000D03*
X117602000Y-88138000D03*
X120904000Y-90487500D03*
X128143000Y-100647500D03*
X128079500Y-79248000D03*
X129413000Y-86233000D03*
X136779000Y-79375000D03*
X132715000Y-79311500D03*
X141160500Y-79311500D03*
X145415000Y-79311500D03*
X152654000Y-79248000D03*
X144716500Y-93218000D03*
X144780000Y-100203000D03*
X139573000Y-95440500D03*
X163639500Y-80899000D03*
X166306500Y-78486000D03*
X166560500Y-76073000D03*
X149288500Y-66675000D03*
X151638000Y-63881000D03*
X151638000Y-62420500D03*
X151701500Y-60769500D03*
X150304500Y-59753500D03*
X147574000Y-59626500D03*
X145351500Y-59690000D03*
X144843500Y-62420500D03*
X144843500Y-63817500D03*
X145478500Y-66548000D03*
X148272500Y-63182500D03*
X127381000Y-68262500D03*
X171831000Y-61150500D03*
X168973500Y-60007500D03*
X163576000Y-57086500D03*
X174180500Y-55181500D03*
D21*
X136906000Y-64897000D03*
X137350500Y-88646000D03*
D20*
X157924500Y-113601500D03*
X157797500Y-109601000D03*
X155067000Y-111823500D03*
X152463500Y-101219000D03*
X149860000Y-94996000D03*
X148399500Y-97091500D03*
X144843500Y-90170000D03*
X139573000Y-90106500D03*
X136715500Y-68580000D03*
X170751500Y-93218000D03*
X165925500Y-96329500D03*
X164211000Y-97980500D03*
X160464500Y-89852500D03*
X165989000Y-86868000D03*
D21*
X138874500Y-65913000D03*
X132778500Y-68326000D03*
D20*
X143446500Y-86169500D03*
X138684000Y-59436000D03*
X157670500Y-74549000D03*
X174244000Y-63881000D03*
X135445500Y-109855000D03*
X138684000Y-63309500D03*
X140754010Y-86099589D03*
X179451000Y-70485000D03*
X192659000Y-69278500D03*
X141033500Y-111887000D03*
X141097000Y-104775000D03*
X180149500Y-103505000D03*
X178879500Y-96202500D03*
X178879500Y-97472500D03*
X135826500Y-86487000D03*
X134810500Y-57086500D03*
X134810500Y-66802000D03*
X145161000Y-70421500D03*
X169037000Y-77279500D03*
D21*
X178548225Y-106479533D03*
D20*
X180401596Y-108332904D03*
D21*
X178511849Y-105630300D03*
D20*
X188595000Y-108966000D03*
X161074010Y-62306671D03*
X160274000Y-58229500D03*
X161099500Y-64071500D03*
X159956500Y-63754000D03*
X159512000Y-56959500D03*
X174625000Y-110426500D03*
X167767000Y-60742990D03*
X166852734Y-59343958D03*
X169473188Y-94623312D03*
X175768000Y-110363000D03*
X165035722Y-65261077D03*
X138112500Y-67056000D03*
X139065000Y-86106000D03*
D21*
X159194500Y-119189500D03*
X137858500Y-68453000D03*
D20*
X182943500Y-109093000D03*
X183896000Y-106870500D03*
D22*
X138747500Y-60769500D02*
X143694022Y-65716022D01*
X143694022Y-65716022D02*
X143694022Y-84651978D01*
X143694022Y-84651978D02*
X142639999Y-85706001D01*
X142639999Y-85706001D02*
X142240000Y-86106000D01*
D23*
X187388500Y-111125000D02*
X187833000Y-110680500D01*
X189103000Y-110680500D02*
X191071500Y-108712000D01*
X187833000Y-110680500D02*
X189103000Y-110680500D01*
X191325500Y-107632500D02*
X192087500Y-108394500D01*
X191008000Y-107632500D02*
X191325500Y-107632500D01*
D22*
X167259000Y-99885500D02*
X167259000Y-98107500D01*
X167259000Y-98107500D02*
X166941500Y-97790000D01*
X165989000Y-63182500D02*
X166052500Y-63119000D01*
X163322000Y-63182500D02*
X165989000Y-63182500D01*
X166052500Y-63119000D02*
X170243500Y-63119000D01*
X171958000Y-63119000D02*
X172021500Y-63055500D01*
X170243500Y-63119000D02*
X171958000Y-63119000D01*
X174688500Y-63055500D02*
X175641000Y-64008000D01*
X172021500Y-63055500D02*
X174688500Y-63055500D01*
X136906000Y-72961500D02*
X136906000Y-64897000D01*
X137226509Y-85907097D02*
X137226509Y-88395009D01*
X137033000Y-85713588D02*
X137226509Y-85907097D01*
X137033000Y-79375000D02*
X137033000Y-85713588D01*
X137350500Y-88519000D02*
X137350500Y-88646000D01*
X137226509Y-88395009D02*
X137350500Y-88519000D01*
X139509500Y-87439500D02*
X139954000Y-86995000D01*
X139954000Y-86995000D02*
X139954000Y-80518000D01*
X139954000Y-80518000D02*
X141160500Y-79311500D01*
X143446500Y-86169500D02*
X144294033Y-85321967D01*
X144294033Y-85321967D02*
X144294033Y-65046033D01*
X144294033Y-65046033D02*
X139083999Y-59835999D01*
X139083999Y-59835999D02*
X138684000Y-59436000D01*
X157670500Y-74549000D02*
X162877500Y-69342000D01*
X162877500Y-69342000D02*
X162877500Y-64960500D01*
X163957000Y-63881000D02*
X174244000Y-63881000D01*
X162877500Y-64960500D02*
X163957000Y-63881000D01*
X138327204Y-123167099D02*
X138327204Y-112736704D01*
X138327204Y-112736704D02*
X135445500Y-109855000D01*
X138684000Y-63309500D02*
X143094011Y-67719511D01*
X143094011Y-67719511D02*
X143094011Y-83759588D01*
X143094011Y-83759588D02*
X140754010Y-86099589D01*
D23*
X177154104Y-70485000D02*
X175585203Y-68916099D01*
X179451000Y-70485000D02*
X177154104Y-70485000D01*
X191452500Y-70485000D02*
X192659000Y-69278500D01*
X179451000Y-70485000D02*
X191452500Y-70485000D01*
D24*
X144827205Y-107267098D02*
X142335107Y-104775000D01*
X144827205Y-110067100D02*
X144827205Y-107267098D01*
X143007305Y-111887000D02*
X144827205Y-110067100D01*
X142335107Y-104775000D02*
X141097000Y-104775000D01*
X141033500Y-111887000D02*
X143007305Y-111887000D01*
D25*
X175585203Y-68916099D02*
X175585203Y-90241203D01*
X175585203Y-90241203D02*
X180149500Y-94805500D01*
X179768500Y-96202500D02*
X180149500Y-95821500D01*
X178879500Y-96202500D02*
X179768500Y-96202500D01*
X180149500Y-94805500D02*
X180149500Y-95821500D01*
X179705000Y-97472500D02*
X180149500Y-97917000D01*
X178879500Y-97472500D02*
X179705000Y-97472500D01*
X180149500Y-97917000D02*
X180149500Y-103505000D01*
X180149500Y-95821500D02*
X180149500Y-97917000D01*
D26*
X135826500Y-86487000D02*
X134810500Y-85471000D01*
X134810500Y-66802000D02*
X134810500Y-57086500D01*
X134810500Y-85471000D02*
X134810500Y-66802000D01*
D23*
X135826500Y-99504500D02*
X141097000Y-104775000D01*
X135826500Y-86487000D02*
X135826500Y-99504500D01*
D22*
X152019000Y-77279500D02*
X169037000Y-77279500D01*
X145161000Y-70421500D02*
X152019000Y-77279500D01*
X180401596Y-108332904D02*
X178548225Y-106479533D01*
X188595000Y-108966000D02*
X185259300Y-105630300D01*
X185259300Y-105630300D02*
X178511849Y-105630300D01*
X175257856Y-62306671D02*
X161639695Y-62306671D01*
X161639695Y-62306671D02*
X161074010Y-62306671D01*
X180665203Y-68916099D02*
X180665203Y-67714018D01*
X180665203Y-67714018D02*
X175257856Y-62306671D01*
X160274000Y-58229500D02*
X160274000Y-62738000D01*
X161099500Y-63563500D02*
X161099500Y-64071500D01*
X160274000Y-62738000D02*
X161099500Y-63563500D01*
X159956500Y-63754000D02*
X159112001Y-62909501D01*
X159112001Y-62909501D02*
X159112001Y-57359499D01*
X159112001Y-57359499D02*
X159512000Y-56959500D01*
D27*
X166852734Y-59828724D02*
X166852734Y-59343958D01*
X167767000Y-60742990D02*
X166852734Y-59828724D01*
X174625000Y-110426500D02*
X174625000Y-99775124D01*
X174625000Y-99775124D02*
X169473188Y-94623312D01*
D22*
X168941750Y-107473750D02*
X168751250Y-107473750D01*
X168751250Y-107473750D02*
X165925500Y-104648000D01*
X172847000Y-111379000D02*
X168941750Y-107473750D01*
X175317685Y-111379000D02*
X172847000Y-111379000D01*
X175768000Y-110928685D02*
X175317685Y-111379000D01*
X175768000Y-110363000D02*
X175768000Y-110928685D01*
X170624500Y-81597500D02*
X170624500Y-70849855D01*
X170624500Y-70849855D02*
X165035722Y-65261077D01*
X165925500Y-97917000D02*
X165798500Y-97917000D01*
X165925500Y-104648000D02*
X165925500Y-97917000D01*
X165798500Y-97917000D02*
X161671000Y-93789500D01*
X161671000Y-89366998D02*
X165439998Y-85598000D01*
X161671000Y-93789500D02*
X161671000Y-89366998D01*
X165439998Y-85598000D02*
X166624000Y-85598000D01*
X166624000Y-85598000D02*
X170624500Y-81597500D01*
X138112500Y-67056000D02*
X139065000Y-68008500D01*
X139065000Y-68008500D02*
X139065000Y-86082958D01*
X139065000Y-86082958D02*
X139065000Y-86106000D01*
X137985500Y-68580000D02*
X137858500Y-68453000D01*
X137985500Y-87439500D02*
X137985500Y-68580000D01*
X139573000Y-89027000D02*
X137985500Y-87439500D01*
X142113000Y-89027000D02*
X139573000Y-89027000D01*
X156527500Y-103441500D02*
X142113000Y-89027000D01*
X156527500Y-116522500D02*
X156527500Y-103441500D01*
X159194500Y-119189500D02*
X156527500Y-116522500D01*
D25*
X104177499Y-89191499D02*
X105727500Y-90741500D01*
X104177499Y-87211501D02*
X104177499Y-89191499D01*
X105727500Y-85661500D02*
X104177499Y-87211501D01*
X104177499Y-99105501D02*
X104983499Y-99911501D01*
X104177499Y-92291501D02*
X104177499Y-99105501D01*
X105727500Y-90741500D02*
X104177499Y-92291501D01*
D26*
X126290002Y-90868500D02*
X117247001Y-99911501D01*
X127508000Y-90868500D02*
X126290002Y-90868500D01*
D25*
X104983499Y-99911501D02*
X117247001Y-99911501D01*
D26*
X116747001Y-100411501D02*
X104729501Y-100411501D01*
X117247001Y-99911501D02*
X116747001Y-100411501D01*
X104729501Y-100411501D02*
X103711159Y-99393159D01*
D22*
X182943500Y-107823000D02*
X183896000Y-106870500D01*
X182943500Y-109093000D02*
X182943500Y-107823000D01*
D28*
X193134642Y-54888992D02*
X193630214Y-54937584D01*
X194075791Y-55072112D01*
X194486746Y-55290620D01*
X194847437Y-55584794D01*
X195144117Y-55943418D01*
X195365491Y-56352841D01*
X195503126Y-56797468D01*
X195554999Y-57291013D01*
X195555001Y-107913875D01*
X195535087Y-107889609D01*
X195335613Y-107725906D01*
X195108036Y-107604263D01*
X194861100Y-107529356D01*
X194668646Y-107510401D01*
X194189944Y-107510401D01*
X193997490Y-107529356D01*
X193750554Y-107604263D01*
X193522977Y-107725906D01*
X193323503Y-107889609D01*
X193159800Y-108089083D01*
X193038157Y-108316660D01*
X192963250Y-108563596D01*
X192937957Y-108820401D01*
X192963250Y-109077206D01*
X193038157Y-109324142D01*
X193159800Y-109551719D01*
X193323503Y-109751193D01*
X193522977Y-109914896D01*
X193750554Y-110036539D01*
X193997490Y-110111446D01*
X194189944Y-110130401D01*
X194668646Y-110130401D01*
X194861100Y-110111446D01*
X195108036Y-110036539D01*
X195335613Y-109914896D01*
X195535087Y-109751193D01*
X195555001Y-109726927D01*
X195555002Y-113373875D01*
X195535087Y-113349609D01*
X195335613Y-113185906D01*
X195108036Y-113064263D01*
X194861100Y-112989356D01*
X194668646Y-112970401D01*
X194189944Y-112970401D01*
X193997490Y-112989356D01*
X193750554Y-113064263D01*
X193522977Y-113185906D01*
X193323503Y-113349609D01*
X193159800Y-113549083D01*
X193038157Y-113776660D01*
X192963250Y-114023596D01*
X192937957Y-114280401D01*
X192963250Y-114537206D01*
X193038157Y-114784142D01*
X193159800Y-115011719D01*
X193323503Y-115211193D01*
X193522977Y-115374896D01*
X193750554Y-115496539D01*
X193997490Y-115571446D01*
X194189944Y-115590401D01*
X194668646Y-115590401D01*
X194861100Y-115571446D01*
X195108036Y-115496539D01*
X195335613Y-115374896D01*
X195535087Y-115211193D01*
X195555002Y-115186927D01*
X195555002Y-124110212D01*
X195506417Y-124605716D01*
X195371890Y-125051291D01*
X195153381Y-125462247D01*
X194859209Y-125822937D01*
X194500584Y-126119618D01*
X194091162Y-126340991D01*
X193646538Y-126478626D01*
X193152991Y-126530500D01*
X105569279Y-126530500D01*
X105073785Y-126481916D01*
X104628210Y-126347389D01*
X104217254Y-126128880D01*
X103856564Y-125834708D01*
X103559883Y-125476083D01*
X103338510Y-125066661D01*
X103200875Y-124622037D01*
X103148999Y-124128467D01*
X103148923Y-123467170D01*
X103637841Y-123467170D01*
X103637841Y-123928830D01*
X103727907Y-124381620D01*
X103904576Y-124808139D01*
X104161061Y-125191996D01*
X104487505Y-125518440D01*
X104871362Y-125774925D01*
X105297881Y-125951594D01*
X105750671Y-126041660D01*
X106212331Y-126041660D01*
X106665121Y-125951594D01*
X107091640Y-125774925D01*
X107475497Y-125518440D01*
X107801941Y-125191996D01*
X108058426Y-124808139D01*
X108235095Y-124381620D01*
X108325161Y-123928830D01*
X108325161Y-123467170D01*
X108235095Y-123014380D01*
X108058426Y-122587861D01*
X107801941Y-122204004D01*
X107475497Y-121877560D01*
X107091640Y-121621075D01*
X106665121Y-121444406D01*
X106212331Y-121354340D01*
X105750671Y-121354340D01*
X105297881Y-121444406D01*
X104871362Y-121621075D01*
X104487505Y-121877560D01*
X104161061Y-122204004D01*
X103904576Y-122587861D01*
X103727907Y-123014380D01*
X103637841Y-123467170D01*
X103148923Y-123467170D01*
X103147898Y-114567099D01*
X133589132Y-114567099D01*
X133589132Y-117767099D01*
X133601392Y-117891581D01*
X133637702Y-118011279D01*
X133696667Y-118121593D01*
X133776019Y-118218284D01*
X133872710Y-118297636D01*
X133983024Y-118356601D01*
X134102722Y-118392911D01*
X134227204Y-118405171D01*
X136227204Y-118405171D01*
X136351686Y-118392911D01*
X136471384Y-118356601D01*
X136581698Y-118297636D01*
X136678389Y-118218284D01*
X136757741Y-118121593D01*
X136816706Y-118011279D01*
X136853016Y-117891581D01*
X136865276Y-117767099D01*
X136865276Y-114567099D01*
X136853016Y-114442617D01*
X136816706Y-114322919D01*
X136757741Y-114212605D01*
X136678389Y-114115914D01*
X136581698Y-114036562D01*
X136471384Y-113977597D01*
X136351686Y-113941287D01*
X136227204Y-113929027D01*
X134227204Y-113929027D01*
X134102722Y-113941287D01*
X133983024Y-113977597D01*
X133872710Y-114036562D01*
X133776019Y-114115914D01*
X133696667Y-114212605D01*
X133637702Y-114322919D01*
X133601392Y-114442617D01*
X133589132Y-114567099D01*
X103147898Y-114567099D01*
X103147344Y-109753061D01*
X134410500Y-109753061D01*
X134410500Y-109956939D01*
X134450274Y-110156898D01*
X134528295Y-110345256D01*
X134641563Y-110514774D01*
X134785726Y-110658937D01*
X134955244Y-110772205D01*
X135143602Y-110850226D01*
X135288725Y-110879093D01*
X137492205Y-113082574D01*
X137492204Y-121758630D01*
X137284952Y-121897112D01*
X137057217Y-122124847D01*
X136878286Y-122392636D01*
X136755036Y-122690187D01*
X136692204Y-123006066D01*
X136692204Y-123328132D01*
X136755036Y-123644011D01*
X136878286Y-123941562D01*
X137057217Y-124209351D01*
X137284952Y-124437086D01*
X137552741Y-124616017D01*
X137850292Y-124739267D01*
X138166171Y-124802099D01*
X138488237Y-124802099D01*
X138804116Y-124739267D01*
X139101667Y-124616017D01*
X139369456Y-124437086D01*
X139504030Y-124302512D01*
X142371396Y-124302512D01*
X142467160Y-124566913D01*
X142756775Y-124707803D01*
X143068312Y-124789483D01*
X143389799Y-124808817D01*
X143708879Y-124765060D01*
X144013292Y-124659894D01*
X144187248Y-124566913D01*
X144283012Y-124302512D01*
X143327204Y-123346704D01*
X142371396Y-124302512D01*
X139504030Y-124302512D01*
X139597191Y-124209351D01*
X139776122Y-123941562D01*
X139899372Y-123644011D01*
X139962204Y-123328132D01*
X139962204Y-123229694D01*
X141685486Y-123229694D01*
X141729243Y-123548774D01*
X141834409Y-123853187D01*
X141927390Y-124027143D01*
X142191791Y-124122907D01*
X143147599Y-123167099D01*
X143506809Y-123167099D01*
X144462617Y-124122907D01*
X144727018Y-124027143D01*
X144867908Y-123737528D01*
X144938791Y-123467170D01*
X190442340Y-123467170D01*
X190442340Y-123928830D01*
X190532406Y-124381620D01*
X190709075Y-124808139D01*
X190965560Y-125191996D01*
X191292004Y-125518440D01*
X191675861Y-125774925D01*
X192102380Y-125951594D01*
X192555170Y-126041660D01*
X193016830Y-126041660D01*
X193469620Y-125951594D01*
X193896139Y-125774925D01*
X194279996Y-125518440D01*
X194606440Y-125191996D01*
X194862925Y-124808139D01*
X195039594Y-124381620D01*
X195129660Y-123928830D01*
X195129660Y-123467170D01*
X195039594Y-123014380D01*
X194862925Y-122587861D01*
X194606440Y-122204004D01*
X194279996Y-121877560D01*
X193896139Y-121621075D01*
X193469620Y-121444406D01*
X193016830Y-121354340D01*
X192555170Y-121354340D01*
X192102380Y-121444406D01*
X191675861Y-121621075D01*
X191292004Y-121877560D01*
X190965560Y-122204004D01*
X190709075Y-122587861D01*
X190532406Y-123014380D01*
X190442340Y-123467170D01*
X144938791Y-123467170D01*
X144949588Y-123425991D01*
X144968922Y-123104504D01*
X144925165Y-122785424D01*
X144819999Y-122481011D01*
X144727018Y-122307055D01*
X144462617Y-122211291D01*
X143506809Y-123167099D01*
X143147599Y-123167099D01*
X142191791Y-122211291D01*
X141927390Y-122307055D01*
X141786500Y-122596670D01*
X141704820Y-122908207D01*
X141685486Y-123229694D01*
X139962204Y-123229694D01*
X139962204Y-123006066D01*
X139899372Y-122690187D01*
X139776122Y-122392636D01*
X139597191Y-122124847D01*
X139504030Y-122031686D01*
X142371396Y-122031686D01*
X143327204Y-122987494D01*
X144283012Y-122031686D01*
X144187248Y-121767285D01*
X143897633Y-121626395D01*
X143586096Y-121544715D01*
X143264609Y-121525381D01*
X142945529Y-121569138D01*
X142641116Y-121674304D01*
X142467160Y-121767285D01*
X142371396Y-122031686D01*
X139504030Y-122031686D01*
X139369456Y-121897112D01*
X139162204Y-121758631D01*
X139162204Y-114567099D01*
X144789132Y-114567099D01*
X144789132Y-117767099D01*
X144801392Y-117891581D01*
X144837702Y-118011279D01*
X144896667Y-118121593D01*
X144976019Y-118218284D01*
X145072710Y-118297636D01*
X145183024Y-118356601D01*
X145302722Y-118392911D01*
X145427204Y-118405171D01*
X147427204Y-118405171D01*
X147551686Y-118392911D01*
X147671384Y-118356601D01*
X147781698Y-118297636D01*
X147878389Y-118218284D01*
X147957741Y-118121593D01*
X148016706Y-118011279D01*
X148053016Y-117891581D01*
X148065276Y-117767099D01*
X148065276Y-114567099D01*
X148053016Y-114442617D01*
X148016706Y-114322919D01*
X147957741Y-114212605D01*
X147878389Y-114115914D01*
X147781698Y-114036562D01*
X147671384Y-113977597D01*
X147551686Y-113941287D01*
X147427204Y-113929027D01*
X145427204Y-113929027D01*
X145302722Y-113941287D01*
X145183024Y-113977597D01*
X145072710Y-114036562D01*
X144976019Y-114115914D01*
X144896667Y-114212605D01*
X144837702Y-114322919D01*
X144801392Y-114442617D01*
X144789132Y-114567099D01*
X139162204Y-114567099D01*
X139162204Y-112777722D01*
X139166244Y-112736704D01*
X139150122Y-112573015D01*
X139102376Y-112415617D01*
X139024840Y-112270558D01*
X138946643Y-112175274D01*
X138946641Y-112175272D01*
X138920495Y-112143413D01*
X138888636Y-112117267D01*
X136469593Y-109698225D01*
X136440726Y-109553102D01*
X136362705Y-109364744D01*
X136249437Y-109195226D01*
X136105274Y-109051063D01*
X135935756Y-108937795D01*
X135747398Y-108859774D01*
X135547439Y-108820000D01*
X135343561Y-108820000D01*
X135143602Y-108859774D01*
X134955244Y-108937795D01*
X134785726Y-109051063D01*
X134641563Y-109195226D01*
X134528295Y-109364744D01*
X134450274Y-109553102D01*
X134410500Y-109753061D01*
X103147344Y-109753061D01*
X103147201Y-108506066D01*
X136692204Y-108506066D01*
X136692204Y-108828132D01*
X136755036Y-109144011D01*
X136878286Y-109441562D01*
X137057217Y-109709351D01*
X137284952Y-109937086D01*
X137552741Y-110116017D01*
X137850292Y-110239267D01*
X138166171Y-110302099D01*
X138488237Y-110302099D01*
X138804116Y-110239267D01*
X139101667Y-110116017D01*
X139369456Y-109937086D01*
X139597191Y-109709351D01*
X139662129Y-109612164D01*
X139691791Y-109622907D01*
X140647599Y-108667099D01*
X139691791Y-107711291D01*
X139662129Y-107722034D01*
X139597191Y-107624847D01*
X139369456Y-107397112D01*
X139101667Y-107218181D01*
X138804116Y-107094931D01*
X138488237Y-107032099D01*
X138166171Y-107032099D01*
X137850292Y-107094931D01*
X137552741Y-107218181D01*
X137284952Y-107397112D01*
X137057217Y-107624847D01*
X136878286Y-107892636D01*
X136755036Y-108190187D01*
X136692204Y-108506066D01*
X103147201Y-108506066D01*
X103146351Y-101140589D01*
X103516576Y-101510814D01*
X103567787Y-101573215D01*
X103816749Y-101777532D01*
X104100786Y-101929353D01*
X104408985Y-102022844D01*
X104649179Y-102046501D01*
X104649181Y-102046501D01*
X104729500Y-102054412D01*
X104809820Y-102046501D01*
X116666682Y-102046501D01*
X116747001Y-102054412D01*
X116827320Y-102046501D01*
X116827323Y-102046501D01*
X117067517Y-102022844D01*
X117375716Y-101929353D01*
X117659753Y-101777532D01*
X117908715Y-101573215D01*
X117959926Y-101510814D01*
X118459916Y-101010824D01*
X124109538Y-95361202D01*
X126694903Y-95361202D01*
X126766486Y-95605171D01*
X127021996Y-95726071D01*
X127296184Y-95794800D01*
X127578512Y-95808717D01*
X127858130Y-95767287D01*
X128124292Y-95672103D01*
X128249514Y-95605171D01*
X128321097Y-95361202D01*
X127508000Y-94548105D01*
X126694903Y-95361202D01*
X124109538Y-95361202D01*
X125031729Y-94439012D01*
X126067783Y-94439012D01*
X126109213Y-94718630D01*
X126204397Y-94984792D01*
X126271329Y-95110014D01*
X126515298Y-95181597D01*
X127328395Y-94368500D01*
X127687605Y-94368500D01*
X128500702Y-95181597D01*
X128744671Y-95110014D01*
X128865571Y-94854504D01*
X128934300Y-94580316D01*
X128948217Y-94297988D01*
X128906787Y-94018370D01*
X128811603Y-93752208D01*
X128744671Y-93626986D01*
X128500702Y-93555403D01*
X127687605Y-94368500D01*
X127328395Y-94368500D01*
X126515298Y-93555403D01*
X126271329Y-93626986D01*
X126150429Y-93882496D01*
X126081700Y-94156684D01*
X126067783Y-94439012D01*
X125031729Y-94439012D01*
X126094943Y-93375798D01*
X126694903Y-93375798D01*
X127508000Y-94188895D01*
X128321097Y-93375798D01*
X128249514Y-93131829D01*
X127994004Y-93010929D01*
X127719816Y-92942200D01*
X127437488Y-92928283D01*
X127157870Y-92969713D01*
X126891708Y-93064897D01*
X126766486Y-93131829D01*
X126694903Y-93375798D01*
X126094943Y-93375798D01*
X126967242Y-92503500D01*
X127588322Y-92503500D01*
X127828516Y-92479843D01*
X128136715Y-92386352D01*
X128285973Y-92306572D01*
X128308000Y-92306572D01*
X128432482Y-92294312D01*
X128552180Y-92258002D01*
X128662494Y-92199037D01*
X128759185Y-92119685D01*
X128838537Y-92022994D01*
X128897502Y-91912680D01*
X128933812Y-91792982D01*
X128946072Y-91668500D01*
X128946072Y-91646473D01*
X129025852Y-91497215D01*
X129119343Y-91189016D01*
X129150911Y-90868500D01*
X129119343Y-90547984D01*
X129025852Y-90239785D01*
X128946072Y-90090527D01*
X128946072Y-90068500D01*
X128933812Y-89944018D01*
X128897502Y-89824320D01*
X128838537Y-89714006D01*
X128759185Y-89617315D01*
X128662494Y-89537963D01*
X128552180Y-89478998D01*
X128432482Y-89442688D01*
X128308000Y-89430428D01*
X128285973Y-89430428D01*
X128136715Y-89350648D01*
X127828516Y-89257157D01*
X127588322Y-89233500D01*
X126370324Y-89233500D01*
X126290002Y-89225589D01*
X125969485Y-89257157D01*
X125742610Y-89325979D01*
X125661287Y-89350648D01*
X125377250Y-89502469D01*
X125334000Y-89537963D01*
X125201823Y-89646438D01*
X125128288Y-89706786D01*
X125077086Y-89769176D01*
X116147678Y-98698586D01*
X116069763Y-98776501D01*
X109699044Y-98776501D01*
X109752500Y-98507760D01*
X109752500Y-98215240D01*
X109695432Y-97928342D01*
X109583490Y-97658089D01*
X109420975Y-97414868D01*
X109214132Y-97208025D01*
X109039740Y-97091500D01*
X109214132Y-96974975D01*
X109420975Y-96768132D01*
X109583490Y-96524911D01*
X109695432Y-96254658D01*
X109752500Y-95967760D01*
X109752500Y-95675240D01*
X109695432Y-95388342D01*
X109583490Y-95118089D01*
X109420975Y-94874868D01*
X109214132Y-94668025D01*
X109039740Y-94551500D01*
X109214132Y-94434975D01*
X109420975Y-94228132D01*
X109583490Y-93984911D01*
X109695432Y-93714658D01*
X109752500Y-93427760D01*
X109752500Y-93135240D01*
X109695432Y-92848342D01*
X109583490Y-92578089D01*
X109420975Y-92334868D01*
X109214132Y-92128025D01*
X109039740Y-92011500D01*
X109214132Y-91894975D01*
X109420975Y-91688132D01*
X109583490Y-91444911D01*
X109695432Y-91174658D01*
X109752500Y-90887760D01*
X109752500Y-90595240D01*
X109695432Y-90308342D01*
X109583490Y-90038089D01*
X109420975Y-89794868D01*
X109214132Y-89588025D01*
X109039740Y-89471500D01*
X109214132Y-89354975D01*
X109420975Y-89148132D01*
X109583490Y-88904911D01*
X109695432Y-88634658D01*
X109752500Y-88347760D01*
X109752500Y-88055240D01*
X109695432Y-87768342D01*
X109583490Y-87498089D01*
X109420975Y-87254868D01*
X109214132Y-87048025D01*
X109039740Y-86931500D01*
X109214132Y-86814975D01*
X109420975Y-86608132D01*
X109583490Y-86364911D01*
X109695432Y-86094658D01*
X109752500Y-85807760D01*
X109752500Y-85515240D01*
X109743701Y-85471000D01*
X133167589Y-85471000D01*
X133175500Y-85551319D01*
X133175500Y-85551321D01*
X133199157Y-85791515D01*
X133292648Y-86099714D01*
X133444469Y-86383751D01*
X133648786Y-86632714D01*
X133711187Y-86683925D01*
X134727177Y-87699915D01*
X134841500Y-87793738D01*
X134841501Y-99456110D01*
X134836735Y-99504500D01*
X134855753Y-99697593D01*
X134912076Y-99883266D01*
X134912077Y-99883267D01*
X135003541Y-100054384D01*
X135126631Y-100204370D01*
X135164211Y-100235211D01*
X140169570Y-105240571D01*
X140179795Y-105265256D01*
X140293063Y-105434774D01*
X140437226Y-105578937D01*
X140606744Y-105692205D01*
X140795102Y-105770226D01*
X140995061Y-105810000D01*
X141198939Y-105810000D01*
X141398898Y-105770226D01*
X141544295Y-105710000D01*
X141947818Y-105710000D01*
X143266845Y-107029027D01*
X142327204Y-107029027D01*
X142202722Y-107041287D01*
X142083024Y-107077597D01*
X141972710Y-107136562D01*
X141876019Y-107215914D01*
X141796667Y-107312605D01*
X141741228Y-107416322D01*
X141687248Y-107267285D01*
X141397633Y-107126395D01*
X141086096Y-107044715D01*
X140764609Y-107025381D01*
X140445529Y-107069138D01*
X140141116Y-107174304D01*
X139967160Y-107267285D01*
X139871396Y-107531686D01*
X140827204Y-108487494D01*
X140841347Y-108473352D01*
X141020952Y-108652957D01*
X141006809Y-108667099D01*
X141020952Y-108681242D01*
X140841347Y-108860847D01*
X140827204Y-108846704D01*
X139871396Y-109802512D01*
X139967160Y-110066913D01*
X140256775Y-110207803D01*
X140568312Y-110289483D01*
X140889799Y-110308817D01*
X141208879Y-110265060D01*
X141513292Y-110159894D01*
X141687248Y-110066913D01*
X141741228Y-109917876D01*
X141796667Y-110021593D01*
X141876019Y-110118284D01*
X141972710Y-110197636D01*
X142083024Y-110256601D01*
X142202722Y-110292911D01*
X142327204Y-110305171D01*
X143266844Y-110305171D01*
X142620016Y-110952000D01*
X141480795Y-110952000D01*
X141335398Y-110891774D01*
X141135439Y-110852000D01*
X140931561Y-110852000D01*
X140731602Y-110891774D01*
X140543244Y-110969795D01*
X140373726Y-111083063D01*
X140229563Y-111227226D01*
X140116295Y-111396744D01*
X140038274Y-111585102D01*
X139998500Y-111785061D01*
X139998500Y-111988939D01*
X140038274Y-112188898D01*
X140116295Y-112377256D01*
X140229563Y-112546774D01*
X140373726Y-112690937D01*
X140543244Y-112804205D01*
X140731602Y-112882226D01*
X140931561Y-112922000D01*
X141135439Y-112922000D01*
X141335398Y-112882226D01*
X141480795Y-112822000D01*
X142961373Y-112822000D01*
X143007305Y-112826524D01*
X143053237Y-112822000D01*
X143190597Y-112808471D01*
X143366845Y-112755007D01*
X143529277Y-112668186D01*
X143671649Y-112551344D01*
X143700935Y-112515659D01*
X145455871Y-110760724D01*
X145491549Y-110731444D01*
X145608391Y-110589072D01*
X145695212Y-110426640D01*
X145736818Y-110289483D01*
X145748676Y-110250393D01*
X145766729Y-110067101D01*
X145762205Y-110021169D01*
X145762205Y-107313033D01*
X145766729Y-107267098D01*
X145748677Y-107083806D01*
X145714893Y-106972439D01*
X145695212Y-106907558D01*
X145608391Y-106745126D01*
X145491549Y-106602754D01*
X145455864Y-106573468D01*
X143028737Y-104146341D01*
X142999451Y-104110656D01*
X142857079Y-103993814D01*
X142694647Y-103906993D01*
X142518399Y-103853529D01*
X142381039Y-103840000D01*
X142335107Y-103835476D01*
X142289175Y-103840000D01*
X141555001Y-103840000D01*
X136811500Y-99096500D01*
X136811500Y-87793738D01*
X136988213Y-87648713D01*
X137147901Y-87454132D01*
X137150500Y-87480518D01*
X137162582Y-87603188D01*
X137210328Y-87760586D01*
X137287864Y-87905645D01*
X137392209Y-88032791D01*
X137424079Y-88058946D01*
X138953559Y-89588426D01*
X138979709Y-89620291D01*
X139085104Y-89706786D01*
X139106854Y-89724636D01*
X139251913Y-89802172D01*
X139409311Y-89849918D01*
X139572999Y-89866040D01*
X139614018Y-89862000D01*
X141767133Y-89862000D01*
X155692501Y-103787369D01*
X155692500Y-116481481D01*
X155688460Y-116522500D01*
X155692500Y-116563518D01*
X155704582Y-116686188D01*
X155752328Y-116843586D01*
X155829864Y-116988645D01*
X155934209Y-117115791D01*
X155966079Y-117141946D01*
X158265865Y-119441733D01*
X158271392Y-119469522D01*
X158343759Y-119644231D01*
X158448819Y-119801464D01*
X158582536Y-119935181D01*
X158739769Y-120040241D01*
X158914478Y-120112608D01*
X159099948Y-120149500D01*
X159289052Y-120149500D01*
X159474522Y-120112608D01*
X159649231Y-120040241D01*
X159806464Y-119935181D01*
X159940181Y-119801464D01*
X160045241Y-119644231D01*
X160117608Y-119469522D01*
X160154500Y-119284052D01*
X160154500Y-119094948D01*
X160117608Y-118909478D01*
X160045241Y-118734769D01*
X159940181Y-118577536D01*
X159806464Y-118443819D01*
X159649231Y-118338759D01*
X159474522Y-118266392D01*
X159446733Y-118260865D01*
X157362500Y-116176633D01*
X157362500Y-113429713D01*
X191064295Y-113429713D01*
X191064295Y-113601089D01*
X191097728Y-113769171D01*
X191163311Y-113927501D01*
X191258522Y-114069994D01*
X191379702Y-114191174D01*
X191522195Y-114286385D01*
X191680525Y-114351968D01*
X191848607Y-114385401D01*
X192019983Y-114385401D01*
X192188065Y-114351968D01*
X192346395Y-114286385D01*
X192488888Y-114191174D01*
X192610068Y-114069994D01*
X192705279Y-113927501D01*
X192770862Y-113769171D01*
X192804295Y-113601089D01*
X192804295Y-113429713D01*
X192770862Y-113261631D01*
X192705279Y-113103301D01*
X192610068Y-112960808D01*
X192488888Y-112839628D01*
X192346395Y-112744417D01*
X192188065Y-112678834D01*
X192019983Y-112645401D01*
X191848607Y-112645401D01*
X191680525Y-112678834D01*
X191522195Y-112744417D01*
X191379702Y-112839628D01*
X191258522Y-112960808D01*
X191163311Y-113103301D01*
X191097728Y-113261631D01*
X191064295Y-113429713D01*
X157362500Y-113429713D01*
X157362500Y-103482507D01*
X157366539Y-103441499D01*
X157362500Y-103400491D01*
X157362500Y-103400481D01*
X157350418Y-103277811D01*
X157302672Y-103120413D01*
X157225136Y-102975354D01*
X157120791Y-102848209D01*
X157088927Y-102822059D01*
X142732446Y-88465579D01*
X142706291Y-88433709D01*
X142579146Y-88329364D01*
X142434087Y-88251828D01*
X142276689Y-88204082D01*
X142154019Y-88192000D01*
X142154018Y-88192000D01*
X142113000Y-88187960D01*
X142071982Y-88192000D01*
X139918868Y-88192000D01*
X138844231Y-87117363D01*
X138963061Y-87141000D01*
X139166939Y-87141000D01*
X139366898Y-87101226D01*
X139555256Y-87023205D01*
X139724774Y-86909937D01*
X139868937Y-86765774D01*
X139911647Y-86701854D01*
X139950073Y-86759363D01*
X140094236Y-86903526D01*
X140263754Y-87016794D01*
X140452112Y-87094815D01*
X140652071Y-87134589D01*
X140855949Y-87134589D01*
X141055908Y-87094815D01*
X141244266Y-87016794D01*
X141413784Y-86903526D01*
X141493800Y-86823511D01*
X141580226Y-86909937D01*
X141749744Y-87023205D01*
X141938102Y-87101226D01*
X142138061Y-87141000D01*
X142341939Y-87141000D01*
X142541898Y-87101226D01*
X142730256Y-87023205D01*
X142795733Y-86979455D01*
X142956244Y-87086705D01*
X143144602Y-87164726D01*
X143344561Y-87204500D01*
X143548439Y-87204500D01*
X143748398Y-87164726D01*
X143936756Y-87086705D01*
X144106274Y-86973437D01*
X144250437Y-86829274D01*
X144363705Y-86659756D01*
X144441726Y-86471398D01*
X144470592Y-86326276D01*
X144855466Y-85941403D01*
X144887324Y-85915258D01*
X144924722Y-85869689D01*
X144991669Y-85788113D01*
X145069205Y-85643054D01*
X145091428Y-85569795D01*
X145116951Y-85485656D01*
X145129033Y-85362986D01*
X145129033Y-85362985D01*
X145133073Y-85321967D01*
X145129033Y-85280949D01*
X145129033Y-71570400D01*
X151399563Y-77840932D01*
X151425709Y-77872791D01*
X151457568Y-77898937D01*
X151457570Y-77898939D01*
X151506719Y-77939274D01*
X151552854Y-77977136D01*
X151697913Y-78054672D01*
X151855311Y-78102418D01*
X151977981Y-78114500D01*
X151977982Y-78114500D01*
X152019000Y-78118540D01*
X152060018Y-78114500D01*
X168423715Y-78114500D01*
X168546744Y-78196705D01*
X168735102Y-78274726D01*
X168935061Y-78314500D01*
X169138939Y-78314500D01*
X169338898Y-78274726D01*
X169527256Y-78196705D01*
X169696774Y-78083437D01*
X169789500Y-77990711D01*
X169789500Y-81251632D01*
X166278133Y-84763000D01*
X165481016Y-84763000D01*
X165439997Y-84758960D01*
X165398979Y-84763000D01*
X165276309Y-84775082D01*
X165118911Y-84822828D01*
X164973852Y-84900364D01*
X164846707Y-85004709D01*
X164820559Y-85036571D01*
X161109574Y-88747557D01*
X161077710Y-88773707D01*
X161051562Y-88805569D01*
X160973364Y-88900853D01*
X160895828Y-89045912D01*
X160848082Y-89203310D01*
X160831960Y-89366998D01*
X160836001Y-89408026D01*
X160836000Y-93748481D01*
X160831960Y-93789500D01*
X160836000Y-93830518D01*
X160848082Y-93953188D01*
X160895828Y-94110586D01*
X160973364Y-94255645D01*
X161077709Y-94382791D01*
X161109579Y-94408946D01*
X165090501Y-98389869D01*
X165090500Y-104606981D01*
X165086460Y-104648000D01*
X165090500Y-104689018D01*
X165102582Y-104811688D01*
X165150328Y-104969086D01*
X165227864Y-105114145D01*
X165332209Y-105241291D01*
X165364079Y-105267446D01*
X168131809Y-108035177D01*
X168157959Y-108067041D01*
X168251839Y-108144086D01*
X168285104Y-108171386D01*
X168430163Y-108248922D01*
X168582164Y-108295031D01*
X172227563Y-111940432D01*
X172253709Y-111972291D01*
X172380854Y-112076636D01*
X172525913Y-112154172D01*
X172683311Y-112201918D01*
X172805981Y-112214000D01*
X172805982Y-112214000D01*
X172847000Y-112218040D01*
X172888018Y-112214000D01*
X175276667Y-112214000D01*
X175317685Y-112218040D01*
X175358703Y-112214000D01*
X175358704Y-112214000D01*
X175481374Y-112201918D01*
X175638772Y-112154172D01*
X175783831Y-112076636D01*
X175910976Y-111972291D01*
X175937130Y-111940422D01*
X176329426Y-111548127D01*
X176361291Y-111521976D01*
X176465636Y-111394831D01*
X176543172Y-111249772D01*
X176590918Y-111092374D01*
X176602240Y-110977423D01*
X176685205Y-110853256D01*
X176763226Y-110664898D01*
X176803000Y-110464939D01*
X176803000Y-110261061D01*
X176763226Y-110061102D01*
X176685205Y-109872744D01*
X176571937Y-109703226D01*
X176427774Y-109559063D01*
X176258256Y-109445795D01*
X176069898Y-109367774D01*
X175869939Y-109328000D01*
X175666061Y-109328000D01*
X175466102Y-109367774D01*
X175410000Y-109391012D01*
X175410000Y-105535748D01*
X177551849Y-105535748D01*
X177551849Y-105724852D01*
X177588741Y-105910322D01*
X177661108Y-106085031D01*
X177668163Y-106095589D01*
X177625117Y-106199511D01*
X177588225Y-106384981D01*
X177588225Y-106574085D01*
X177625117Y-106759555D01*
X177697484Y-106934264D01*
X177802544Y-107091497D01*
X177936261Y-107225214D01*
X178093494Y-107330274D01*
X178268203Y-107402641D01*
X178295994Y-107408169D01*
X179377504Y-108489679D01*
X179406370Y-108634802D01*
X179484391Y-108823160D01*
X179597659Y-108992678D01*
X179741822Y-109136841D01*
X179911340Y-109250109D01*
X180099698Y-109328130D01*
X180299657Y-109367904D01*
X180503535Y-109367904D01*
X180703494Y-109328130D01*
X180891852Y-109250109D01*
X181061370Y-109136841D01*
X181205533Y-108992678D01*
X181318801Y-108823160D01*
X181396822Y-108634802D01*
X181436596Y-108434843D01*
X181436596Y-108230965D01*
X181396822Y-108031006D01*
X181318801Y-107842648D01*
X181205533Y-107673130D01*
X181061370Y-107528967D01*
X180891852Y-107415699D01*
X180703494Y-107337678D01*
X180558371Y-107308812D01*
X179714859Y-106465300D01*
X182943563Y-106465300D01*
X182900774Y-106568602D01*
X182871907Y-106713725D01*
X182382074Y-107203559D01*
X182350210Y-107229709D01*
X182294244Y-107297904D01*
X182245864Y-107356855D01*
X182168328Y-107501914D01*
X182120582Y-107659312D01*
X182104460Y-107823000D01*
X182108501Y-107864028D01*
X182108500Y-108479714D01*
X182026295Y-108602744D01*
X181948274Y-108791102D01*
X181908500Y-108991061D01*
X181908500Y-109194939D01*
X181948274Y-109394898D01*
X182026295Y-109583256D01*
X182139563Y-109752774D01*
X182283726Y-109896937D01*
X182453244Y-110010205D01*
X182641602Y-110088226D01*
X182841561Y-110128000D01*
X183045439Y-110128000D01*
X183245398Y-110088226D01*
X183433756Y-110010205D01*
X183603274Y-109896937D01*
X183747437Y-109752774D01*
X183860705Y-109583256D01*
X183938726Y-109394898D01*
X183978500Y-109194939D01*
X183978500Y-108991061D01*
X183938726Y-108791102D01*
X183860705Y-108602744D01*
X183778500Y-108479715D01*
X183778500Y-108168867D01*
X184052775Y-107894593D01*
X184197898Y-107865726D01*
X184386256Y-107787705D01*
X184555774Y-107674437D01*
X184699937Y-107530274D01*
X184813205Y-107360756D01*
X184891226Y-107172398D01*
X184931000Y-106972439D01*
X184931000Y-106768561D01*
X184891226Y-106568602D01*
X184848437Y-106465300D01*
X184913433Y-106465300D01*
X187570908Y-109122775D01*
X187599774Y-109267898D01*
X187677795Y-109456256D01*
X187791063Y-109625774D01*
X187935226Y-109769937D01*
X188104744Y-109883205D01*
X188293102Y-109961226D01*
X188493061Y-110001000D01*
X188696939Y-110001000D01*
X188896898Y-109961226D01*
X189085256Y-109883205D01*
X189254774Y-109769937D01*
X189398937Y-109625774D01*
X189469804Y-109519713D01*
X191064295Y-109519713D01*
X191064295Y-109691089D01*
X191097728Y-109859171D01*
X191163311Y-110017501D01*
X191258522Y-110159994D01*
X191379702Y-110281174D01*
X191522195Y-110376385D01*
X191680525Y-110441968D01*
X191848607Y-110475401D01*
X192019983Y-110475401D01*
X192188065Y-110441968D01*
X192346395Y-110376385D01*
X192488888Y-110281174D01*
X192610068Y-110159994D01*
X192705279Y-110017501D01*
X192770862Y-109859171D01*
X192804295Y-109691089D01*
X192804295Y-109519713D01*
X192770862Y-109351631D01*
X192705279Y-109193301D01*
X192610068Y-109050808D01*
X192488888Y-108929628D01*
X192346395Y-108834417D01*
X192188065Y-108768834D01*
X192019983Y-108735401D01*
X191848607Y-108735401D01*
X191680525Y-108768834D01*
X191522195Y-108834417D01*
X191379702Y-108929628D01*
X191258522Y-109050808D01*
X191163311Y-109193301D01*
X191097728Y-109351631D01*
X191064295Y-109519713D01*
X189469804Y-109519713D01*
X189512205Y-109456256D01*
X189590226Y-109267898D01*
X189630000Y-109067939D01*
X189630000Y-108864061D01*
X189590226Y-108664102D01*
X189512205Y-108475744D01*
X189398937Y-108306226D01*
X189254774Y-108162063D01*
X189085256Y-108048795D01*
X188896898Y-107970774D01*
X188751775Y-107941908D01*
X185878746Y-105068879D01*
X185852591Y-105037009D01*
X185725446Y-104932664D01*
X185580387Y-104855128D01*
X185422989Y-104807382D01*
X185300319Y-104795300D01*
X185300318Y-104795300D01*
X185259300Y-104791260D01*
X185218282Y-104795300D01*
X178990138Y-104795300D01*
X178966580Y-104779559D01*
X178791871Y-104707192D01*
X178606401Y-104670300D01*
X178417297Y-104670300D01*
X178231827Y-104707192D01*
X178057118Y-104779559D01*
X177899885Y-104884619D01*
X177766168Y-105018336D01*
X177661108Y-105175569D01*
X177588741Y-105350278D01*
X177551849Y-105535748D01*
X175410000Y-105535748D01*
X175410000Y-99813676D01*
X175413797Y-99775123D01*
X175410000Y-99736570D01*
X175410000Y-99736563D01*
X175398641Y-99621237D01*
X175353754Y-99473264D01*
X175280862Y-99336891D01*
X175182764Y-99217360D01*
X175152816Y-99192782D01*
X170508188Y-94548155D01*
X170508188Y-94521373D01*
X170468414Y-94321414D01*
X170390393Y-94133056D01*
X170277125Y-93963538D01*
X170132962Y-93819375D01*
X169963444Y-93706107D01*
X169775086Y-93628086D01*
X169575127Y-93588312D01*
X169371249Y-93588312D01*
X169171290Y-93628086D01*
X168982932Y-93706107D01*
X168813414Y-93819375D01*
X168669251Y-93963538D01*
X168555983Y-94133056D01*
X168477962Y-94321414D01*
X168438188Y-94521373D01*
X168438188Y-94725251D01*
X168477962Y-94925210D01*
X168555983Y-95113568D01*
X168669251Y-95283086D01*
X168813414Y-95427249D01*
X168982932Y-95540517D01*
X169171290Y-95618538D01*
X169371249Y-95658312D01*
X169398031Y-95658312D01*
X173840001Y-100100283D01*
X173840000Y-109747789D01*
X173821063Y-109766726D01*
X173707795Y-109936244D01*
X173629774Y-110124602D01*
X173590000Y-110324561D01*
X173590000Y-110528439D01*
X173593095Y-110544000D01*
X173192869Y-110544000D01*
X169561196Y-106912329D01*
X169535041Y-106880459D01*
X169407896Y-106776114D01*
X169262837Y-106698578D01*
X169110838Y-106652470D01*
X166760500Y-104302133D01*
X166760500Y-97958019D01*
X166764540Y-97917000D01*
X166748418Y-97753311D01*
X166700672Y-97595913D01*
X166623136Y-97450854D01*
X166518791Y-97323709D01*
X166391646Y-97219364D01*
X166246587Y-97141828D01*
X166185738Y-97123370D01*
X162506000Y-93443633D01*
X162506000Y-92426372D01*
X163309500Y-92426372D01*
X163309500Y-92866628D01*
X163395390Y-93298425D01*
X163563869Y-93705169D01*
X163808462Y-94071229D01*
X164119771Y-94382538D01*
X164485831Y-94627131D01*
X164892575Y-94795610D01*
X165324372Y-94881500D01*
X165764628Y-94881500D01*
X166196425Y-94795610D01*
X166603169Y-94627131D01*
X166969229Y-94382538D01*
X167280538Y-94071229D01*
X167525131Y-93705169D01*
X167693610Y-93298425D01*
X167779500Y-92866628D01*
X167779500Y-92426372D01*
X167693610Y-91994575D01*
X167525131Y-91587831D01*
X167280538Y-91221771D01*
X166969229Y-90910462D01*
X166603169Y-90665869D01*
X166196425Y-90497390D01*
X165764628Y-90411500D01*
X165324372Y-90411500D01*
X164892575Y-90497390D01*
X164485831Y-90665869D01*
X164119771Y-90910462D01*
X163808462Y-91221771D01*
X163563869Y-91587831D01*
X163395390Y-91994575D01*
X163309500Y-92426372D01*
X162506000Y-92426372D01*
X162506000Y-89712865D01*
X165785866Y-86433000D01*
X166582982Y-86433000D01*
X166624000Y-86437040D01*
X166665018Y-86433000D01*
X166665019Y-86433000D01*
X166787689Y-86420918D01*
X166945087Y-86373172D01*
X167090146Y-86295636D01*
X167217291Y-86191291D01*
X167243446Y-86159421D01*
X171185928Y-82216940D01*
X171217791Y-82190791D01*
X171322136Y-82063646D01*
X171399672Y-81918587D01*
X171447418Y-81761189D01*
X171459500Y-81638519D01*
X171459500Y-81638509D01*
X171463539Y-81597501D01*
X171459500Y-81556493D01*
X171459500Y-70890873D01*
X171463540Y-70849855D01*
X171447418Y-70686167D01*
X171399672Y-70528768D01*
X171322136Y-70383709D01*
X171243939Y-70288425D01*
X171243937Y-70288423D01*
X171217791Y-70256564D01*
X171185932Y-70230418D01*
X170721613Y-69766099D01*
X171549428Y-69766099D01*
X171561688Y-69890581D01*
X171597998Y-70010279D01*
X171656963Y-70120593D01*
X171736315Y-70217284D01*
X171833006Y-70296636D01*
X171943320Y-70355601D01*
X172063018Y-70391911D01*
X172187500Y-70404171D01*
X172751750Y-70401099D01*
X172910500Y-70242349D01*
X172910500Y-69043099D01*
X171711250Y-69043099D01*
X171552500Y-69201849D01*
X171549428Y-69766099D01*
X170721613Y-69766099D01*
X169021613Y-68066099D01*
X171549428Y-68066099D01*
X171552500Y-68630349D01*
X171711250Y-68789099D01*
X172910500Y-68789099D01*
X172910500Y-67589849D01*
X172751750Y-67431099D01*
X172187500Y-67428027D01*
X172063018Y-67440287D01*
X171943320Y-67476597D01*
X171833006Y-67535562D01*
X171736315Y-67614914D01*
X171656963Y-67711605D01*
X171597998Y-67821919D01*
X171561688Y-67941617D01*
X171549428Y-68066099D01*
X169021613Y-68066099D01*
X166059815Y-65104302D01*
X166030948Y-64959179D01*
X165952927Y-64770821D01*
X165916297Y-64716000D01*
X173630715Y-64716000D01*
X173753744Y-64798205D01*
X173942102Y-64876226D01*
X174142061Y-64916000D01*
X174345939Y-64916000D01*
X174545898Y-64876226D01*
X174734256Y-64798205D01*
X174903774Y-64684937D01*
X175047937Y-64540774D01*
X175161205Y-64371256D01*
X175239226Y-64182898D01*
X175279000Y-63982939D01*
X175279000Y-63779061D01*
X175239226Y-63579102D01*
X175161306Y-63390988D01*
X179621905Y-67851587D01*
X179504025Y-67969467D01*
X179387500Y-68143859D01*
X179270975Y-67969467D01*
X179064132Y-67762624D01*
X178820911Y-67600109D01*
X178550658Y-67488167D01*
X178263760Y-67431099D01*
X177971240Y-67431099D01*
X177684342Y-67488167D01*
X177414089Y-67600109D01*
X177170868Y-67762624D01*
X176964025Y-67969467D01*
X176847500Y-68143859D01*
X176730975Y-67969467D01*
X176524132Y-67762624D01*
X176280911Y-67600109D01*
X176010658Y-67488167D01*
X175723760Y-67431099D01*
X175431240Y-67431099D01*
X175144342Y-67488167D01*
X174874089Y-67600109D01*
X174630868Y-67762624D01*
X174499013Y-67894479D01*
X174477002Y-67821919D01*
X174418037Y-67711605D01*
X174338685Y-67614914D01*
X174241994Y-67535562D01*
X174131680Y-67476597D01*
X174011982Y-67440287D01*
X173887500Y-67428027D01*
X173323250Y-67431099D01*
X173164500Y-67589849D01*
X173164500Y-68789099D01*
X173184500Y-68789099D01*
X173184500Y-69043099D01*
X173164500Y-69043099D01*
X173164500Y-70242349D01*
X173323250Y-70401099D01*
X173887500Y-70404171D01*
X174011982Y-70391911D01*
X174131680Y-70355601D01*
X174241994Y-70296636D01*
X174338685Y-70217284D01*
X174418037Y-70120593D01*
X174450203Y-70060415D01*
X174450204Y-90185441D01*
X174444712Y-90241203D01*
X174466626Y-90463701D01*
X174531527Y-90677649D01*
X174531528Y-90677650D01*
X174636920Y-90874826D01*
X174778755Y-91047652D01*
X174822063Y-91083194D01*
X178807926Y-95069058D01*
X178657001Y-95083923D01*
X178443053Y-95148824D01*
X178245877Y-95254216D01*
X178073051Y-95396051D01*
X177931216Y-95568877D01*
X177825824Y-95766053D01*
X177760923Y-95980001D01*
X177739009Y-96202500D01*
X177760923Y-96424999D01*
X177825824Y-96638947D01*
X177931216Y-96836123D01*
X177932346Y-96837500D01*
X177931216Y-96838877D01*
X177825824Y-97036053D01*
X177760923Y-97250001D01*
X177739009Y-97472500D01*
X177760923Y-97694999D01*
X177825824Y-97908947D01*
X177931216Y-98106123D01*
X178073051Y-98278949D01*
X178245877Y-98420784D01*
X178443053Y-98526176D01*
X178657001Y-98591077D01*
X178823748Y-98607500D01*
X179014500Y-98607500D01*
X179014501Y-103560752D01*
X179030924Y-103727499D01*
X179095825Y-103941447D01*
X179201217Y-104138623D01*
X179343052Y-104311449D01*
X179515878Y-104453284D01*
X179713054Y-104558676D01*
X179927002Y-104623577D01*
X180149500Y-104645491D01*
X180371999Y-104623577D01*
X180585947Y-104558676D01*
X180783123Y-104453284D01*
X180955949Y-104311449D01*
X181097784Y-104138623D01*
X181203176Y-103941447D01*
X181268077Y-103727499D01*
X181284500Y-103560752D01*
X181284500Y-97972751D01*
X181289991Y-97917000D01*
X181284500Y-97861248D01*
X181284500Y-95877243D01*
X181289990Y-95821501D01*
X181284500Y-95765759D01*
X181284500Y-94861252D01*
X181289991Y-94805500D01*
X181268077Y-94583001D01*
X181203176Y-94369053D01*
X181097784Y-94171877D01*
X180991489Y-94042356D01*
X180991487Y-94042354D01*
X180955949Y-93999051D01*
X180912646Y-93963513D01*
X176720203Y-89771072D01*
X176720203Y-71369954D01*
X176775337Y-71399424D01*
X176961010Y-71455747D01*
X177154103Y-71474765D01*
X177202483Y-71470000D01*
X179124414Y-71470000D01*
X179149102Y-71480226D01*
X179349061Y-71520000D01*
X179552939Y-71520000D01*
X179752898Y-71480226D01*
X179777586Y-71470000D01*
X191404120Y-71470000D01*
X191452500Y-71474765D01*
X191500880Y-71470000D01*
X191645594Y-71455747D01*
X191831267Y-71399424D01*
X192002384Y-71307960D01*
X192152370Y-71184870D01*
X192183215Y-71147285D01*
X193124571Y-70205930D01*
X193149256Y-70195705D01*
X193318774Y-70082437D01*
X193462937Y-69938274D01*
X193576205Y-69768756D01*
X193654226Y-69580398D01*
X193694000Y-69380439D01*
X193694000Y-69176561D01*
X193654226Y-68976602D01*
X193576205Y-68788244D01*
X193462937Y-68618726D01*
X193318774Y-68474563D01*
X193149256Y-68361295D01*
X192960898Y-68283274D01*
X192760939Y-68243500D01*
X192557061Y-68243500D01*
X192357102Y-68283274D01*
X192168744Y-68361295D01*
X191999226Y-68474563D01*
X191855063Y-68618726D01*
X191741795Y-68788244D01*
X191731570Y-68812929D01*
X191044500Y-69500000D01*
X182022992Y-69500000D01*
X182085432Y-69349257D01*
X182142500Y-69062359D01*
X182142500Y-68769839D01*
X182085432Y-68482941D01*
X181973490Y-68212688D01*
X181810975Y-67969467D01*
X181604132Y-67762624D01*
X181502330Y-67694602D01*
X181500203Y-67673009D01*
X181500203Y-67672999D01*
X181488121Y-67550329D01*
X181440375Y-67392931D01*
X181362839Y-67247872D01*
X181258494Y-67120727D01*
X181226630Y-67094577D01*
X175877302Y-61745250D01*
X175851147Y-61713380D01*
X175724002Y-61609035D01*
X175578943Y-61531499D01*
X175421545Y-61483753D01*
X175298875Y-61471671D01*
X175298874Y-61471671D01*
X175257856Y-61467631D01*
X175216838Y-61471671D01*
X168502030Y-61471671D01*
X168570937Y-61402764D01*
X168684205Y-61233246D01*
X168762226Y-61044888D01*
X168802000Y-60844929D01*
X168802000Y-60641051D01*
X168762226Y-60441092D01*
X168684205Y-60252734D01*
X168570937Y-60083216D01*
X168426774Y-59939053D01*
X168257256Y-59825785D01*
X168068898Y-59747764D01*
X167868939Y-59707990D01*
X167842157Y-59707990D01*
X167828062Y-59693894D01*
X167847960Y-59645856D01*
X167887734Y-59445897D01*
X167887734Y-59242019D01*
X167847960Y-59042060D01*
X167769939Y-58853702D01*
X167656671Y-58684184D01*
X167512508Y-58540021D01*
X167342990Y-58426753D01*
X167154632Y-58348732D01*
X166954673Y-58308958D01*
X166750795Y-58308958D01*
X166550836Y-58348732D01*
X166362478Y-58426753D01*
X166192960Y-58540021D01*
X166048797Y-58684184D01*
X165935529Y-58853702D01*
X165857508Y-59042060D01*
X165817734Y-59242019D01*
X165817734Y-59445897D01*
X165857508Y-59645856D01*
X165935529Y-59834214D01*
X166048797Y-60003732D01*
X166101482Y-60056417D01*
X166123980Y-60130583D01*
X166196872Y-60266956D01*
X166294970Y-60386488D01*
X166324924Y-60411071D01*
X166732000Y-60818147D01*
X166732000Y-60844929D01*
X166771774Y-61044888D01*
X166849795Y-61233246D01*
X166963063Y-61402764D01*
X167031970Y-61471671D01*
X161687295Y-61471671D01*
X161564266Y-61389466D01*
X161375908Y-61311445D01*
X161175949Y-61271671D01*
X161109000Y-61271671D01*
X161109000Y-58842785D01*
X161191205Y-58719756D01*
X161269226Y-58531398D01*
X161309000Y-58331439D01*
X161309000Y-58127561D01*
X161269226Y-57927602D01*
X161191205Y-57739244D01*
X161077937Y-57569726D01*
X160998881Y-57490670D01*
X190442339Y-57490670D01*
X190442339Y-57952330D01*
X190532405Y-58405120D01*
X190709074Y-58831639D01*
X190965559Y-59215496D01*
X191292003Y-59541940D01*
X191675860Y-59798425D01*
X192102379Y-59975094D01*
X192555169Y-60065160D01*
X193016829Y-60065160D01*
X193469619Y-59975094D01*
X193896138Y-59798425D01*
X194279995Y-59541940D01*
X194606439Y-59215496D01*
X194862924Y-58831639D01*
X195039593Y-58405120D01*
X195129659Y-57952330D01*
X195129659Y-57490670D01*
X195039593Y-57037880D01*
X194862924Y-56611361D01*
X194606439Y-56227504D01*
X194279995Y-55901060D01*
X193896138Y-55644575D01*
X193469619Y-55467906D01*
X193016829Y-55377840D01*
X192555169Y-55377840D01*
X192102379Y-55467906D01*
X191675860Y-55644575D01*
X191292003Y-55901060D01*
X190965559Y-56227504D01*
X190709074Y-56611361D01*
X190532405Y-57037880D01*
X190442339Y-57490670D01*
X160998881Y-57490670D01*
X160933774Y-57425563D01*
X160764256Y-57312295D01*
X160575898Y-57234274D01*
X160515030Y-57222167D01*
X160547000Y-57061439D01*
X160547000Y-56857561D01*
X160507226Y-56657602D01*
X160429205Y-56469244D01*
X160315937Y-56299726D01*
X160171774Y-56155563D01*
X160162270Y-56149212D01*
X166568500Y-56149212D01*
X166568500Y-56372788D01*
X166612117Y-56592067D01*
X166697676Y-56798624D01*
X166821888Y-56984520D01*
X166979980Y-57142612D01*
X167165876Y-57266824D01*
X167372433Y-57352383D01*
X167591712Y-57396000D01*
X167815288Y-57396000D01*
X168034567Y-57352383D01*
X168241124Y-57266824D01*
X168338500Y-57201759D01*
X168435876Y-57266824D01*
X168642433Y-57352383D01*
X168861712Y-57396000D01*
X169085288Y-57396000D01*
X169304567Y-57352383D01*
X169416274Y-57306112D01*
X169499320Y-57350502D01*
X169619018Y-57386812D01*
X169743500Y-57399072D01*
X169957750Y-57396000D01*
X170116500Y-57237250D01*
X170116500Y-56388000D01*
X170370500Y-56388000D01*
X170370500Y-57237250D01*
X170529250Y-57396000D01*
X170743500Y-57399072D01*
X170867982Y-57386812D01*
X170987680Y-57350502D01*
X171097994Y-57291537D01*
X171194685Y-57212185D01*
X171274037Y-57115494D01*
X171333002Y-57005180D01*
X171369312Y-56885482D01*
X171381572Y-56761000D01*
X171378500Y-56546750D01*
X171219750Y-56388000D01*
X170370500Y-56388000D01*
X170116500Y-56388000D01*
X170105474Y-56388000D01*
X170108500Y-56372788D01*
X170108500Y-56149212D01*
X170105474Y-56134000D01*
X170116500Y-56134000D01*
X170116500Y-55284750D01*
X170370500Y-55284750D01*
X170370500Y-56134000D01*
X171219750Y-56134000D01*
X171378500Y-55975250D01*
X171381572Y-55761000D01*
X171369312Y-55636518D01*
X171333002Y-55516820D01*
X171274037Y-55406506D01*
X171194685Y-55309815D01*
X171097994Y-55230463D01*
X170987680Y-55171498D01*
X170867982Y-55135188D01*
X170743500Y-55122928D01*
X170529250Y-55126000D01*
X170370500Y-55284750D01*
X170116500Y-55284750D01*
X169957750Y-55126000D01*
X169743500Y-55122928D01*
X169619018Y-55135188D01*
X169499320Y-55171498D01*
X169416274Y-55215888D01*
X169304567Y-55169617D01*
X169085288Y-55126000D01*
X168861712Y-55126000D01*
X168642433Y-55169617D01*
X168435876Y-55255176D01*
X168338500Y-55320241D01*
X168241124Y-55255176D01*
X168034567Y-55169617D01*
X167815288Y-55126000D01*
X167591712Y-55126000D01*
X167372433Y-55169617D01*
X167165876Y-55255176D01*
X166979980Y-55379388D01*
X166821888Y-55537480D01*
X166697676Y-55723376D01*
X166612117Y-55929933D01*
X166568500Y-56149212D01*
X160162270Y-56149212D01*
X160002256Y-56042295D01*
X159813898Y-55964274D01*
X159613939Y-55924500D01*
X159410061Y-55924500D01*
X159210102Y-55964274D01*
X159021744Y-56042295D01*
X158852226Y-56155563D01*
X158708063Y-56299726D01*
X158594795Y-56469244D01*
X158516774Y-56657602D01*
X158487640Y-56804068D01*
X158443740Y-56857561D01*
X158414365Y-56893354D01*
X158336829Y-57038413D01*
X158289083Y-57195811D01*
X158272961Y-57359499D01*
X158277002Y-57400527D01*
X158277001Y-62868482D01*
X158272961Y-62909501D01*
X158277001Y-62950519D01*
X158289083Y-63073189D01*
X158336829Y-63230587D01*
X158414365Y-63375646D01*
X158518710Y-63502792D01*
X158550579Y-63528946D01*
X158932408Y-63910776D01*
X158961274Y-64055898D01*
X159039295Y-64244256D01*
X159152563Y-64413774D01*
X159296726Y-64557937D01*
X159466244Y-64671205D01*
X159654602Y-64749226D01*
X159854561Y-64789000D01*
X160058439Y-64789000D01*
X160258398Y-64749226D01*
X160297372Y-64733083D01*
X160439726Y-64875437D01*
X160609244Y-64988705D01*
X160797602Y-65066726D01*
X160997561Y-65106500D01*
X161201439Y-65106500D01*
X161401398Y-65066726D01*
X161589756Y-64988705D01*
X161759274Y-64875437D01*
X161903437Y-64731274D01*
X162016705Y-64561756D01*
X162094726Y-64373398D01*
X162134500Y-64173439D01*
X162134500Y-63969561D01*
X162094726Y-63769602D01*
X162016705Y-63581244D01*
X161927076Y-63447104D01*
X161922418Y-63399811D01*
X161874672Y-63242413D01*
X161820824Y-63141671D01*
X163568856Y-63141671D01*
X163490854Y-63183364D01*
X163363709Y-63287709D01*
X163337563Y-63319568D01*
X162316074Y-64341059D01*
X162284210Y-64367209D01*
X162245995Y-64413774D01*
X162179864Y-64494355D01*
X162102328Y-64639414D01*
X162054582Y-64796812D01*
X162038460Y-64960500D01*
X162042501Y-65001528D01*
X162042500Y-68996132D01*
X157513726Y-73524907D01*
X157368602Y-73553774D01*
X157180244Y-73631795D01*
X157010726Y-73745063D01*
X156866563Y-73889226D01*
X156753295Y-74058744D01*
X156675274Y-74247102D01*
X156635500Y-74447061D01*
X156635500Y-74650939D01*
X156675274Y-74850898D01*
X156753295Y-75039256D01*
X156866563Y-75208774D01*
X157010726Y-75352937D01*
X157180244Y-75466205D01*
X157368602Y-75544226D01*
X157568561Y-75584000D01*
X157772439Y-75584000D01*
X157972398Y-75544226D01*
X158160756Y-75466205D01*
X158330274Y-75352937D01*
X158474437Y-75208774D01*
X158587705Y-75039256D01*
X158665726Y-74850898D01*
X158694593Y-74705774D01*
X163438928Y-69961440D01*
X163470791Y-69935291D01*
X163575136Y-69808146D01*
X163652672Y-69663087D01*
X163700418Y-69505689D01*
X163700978Y-69500000D01*
X163716540Y-69342001D01*
X163712500Y-69300982D01*
X163712500Y-65306367D01*
X164035730Y-64983138D01*
X164000722Y-65159138D01*
X164000722Y-65363016D01*
X164040496Y-65562975D01*
X164118517Y-65751333D01*
X164231785Y-65920851D01*
X164375948Y-66065014D01*
X164545466Y-66178282D01*
X164733824Y-66256303D01*
X164878947Y-66285170D01*
X169789501Y-71195725D01*
X169789500Y-76568289D01*
X169696774Y-76475563D01*
X169527256Y-76362295D01*
X169338898Y-76284274D01*
X169138939Y-76244500D01*
X168935061Y-76244500D01*
X168735102Y-76284274D01*
X168546744Y-76362295D01*
X168423715Y-76444500D01*
X152364869Y-76444500D01*
X146185093Y-70264725D01*
X146156226Y-70119602D01*
X146078205Y-69931244D01*
X145964937Y-69761726D01*
X145820774Y-69617563D01*
X145651256Y-69504295D01*
X145462898Y-69426274D01*
X145262939Y-69386500D01*
X145129033Y-69386500D01*
X145129033Y-65087051D01*
X145133073Y-65046033D01*
X145116951Y-64882345D01*
X145088636Y-64789000D01*
X145069205Y-64724946D01*
X144991669Y-64579887D01*
X144957003Y-64537646D01*
X144913472Y-64484603D01*
X144913470Y-64484601D01*
X144887324Y-64452742D01*
X144855465Y-64426596D01*
X139708093Y-59279226D01*
X139679226Y-59134102D01*
X139601205Y-58945744D01*
X139487937Y-58776226D01*
X139343774Y-58632063D01*
X139174256Y-58518795D01*
X138985898Y-58440774D01*
X138785939Y-58401000D01*
X138582061Y-58401000D01*
X138382102Y-58440774D01*
X138193744Y-58518795D01*
X138024226Y-58632063D01*
X137880063Y-58776226D01*
X137766795Y-58945744D01*
X137688774Y-59134102D01*
X137649000Y-59334061D01*
X137649000Y-59537939D01*
X137688774Y-59737898D01*
X137766795Y-59926256D01*
X137880063Y-60095774D01*
X137923717Y-60139428D01*
X137830295Y-60279244D01*
X137752274Y-60467602D01*
X137712500Y-60667561D01*
X137712500Y-60871439D01*
X137752274Y-61071398D01*
X137830295Y-61259756D01*
X137943563Y-61429274D01*
X138087726Y-61573437D01*
X138257244Y-61686705D01*
X138445602Y-61764726D01*
X138590726Y-61793593D01*
X139219978Y-62422846D01*
X139174256Y-62392295D01*
X138985898Y-62314274D01*
X138785939Y-62274500D01*
X138582061Y-62274500D01*
X138382102Y-62314274D01*
X138193744Y-62392295D01*
X138024226Y-62505563D01*
X137880063Y-62649726D01*
X137766795Y-62819244D01*
X137688774Y-63007602D01*
X137649000Y-63207561D01*
X137649000Y-63411439D01*
X137688774Y-63611398D01*
X137766795Y-63799756D01*
X137880063Y-63969274D01*
X138024226Y-64113437D01*
X138193744Y-64226705D01*
X138382102Y-64304726D01*
X138527226Y-64333593D01*
X142259011Y-68065379D01*
X142259012Y-83413719D01*
X140597235Y-85075496D01*
X140452112Y-85104363D01*
X140263754Y-85182384D01*
X140094236Y-85295652D01*
X139950073Y-85439815D01*
X139907363Y-85503735D01*
X139900000Y-85492715D01*
X139900000Y-68049507D01*
X139904039Y-68008499D01*
X139900000Y-67967491D01*
X139900000Y-67967481D01*
X139887918Y-67844811D01*
X139840172Y-67687413D01*
X139762636Y-67542354D01*
X139658291Y-67415209D01*
X139626428Y-67389060D01*
X139136593Y-66899225D01*
X139107726Y-66754102D01*
X139029705Y-66565744D01*
X138916437Y-66396226D01*
X138772274Y-66252063D01*
X138602756Y-66138795D01*
X138414398Y-66060774D01*
X138214439Y-66021000D01*
X138010561Y-66021000D01*
X137810602Y-66060774D01*
X137622244Y-66138795D01*
X137452726Y-66252063D01*
X137308563Y-66396226D01*
X137195295Y-66565744D01*
X137117274Y-66754102D01*
X137077500Y-66954061D01*
X137077500Y-67157939D01*
X137117274Y-67357898D01*
X137195295Y-67546256D01*
X137285512Y-67681276D01*
X137246536Y-67707319D01*
X137112819Y-67841036D01*
X137007759Y-67998269D01*
X136935392Y-68172978D01*
X136898500Y-68358448D01*
X136898500Y-68547552D01*
X136935392Y-68733022D01*
X137007759Y-68907731D01*
X137112819Y-69064964D01*
X137150501Y-69102646D01*
X137150500Y-85523034D01*
X137039415Y-85387677D01*
X136445500Y-84793762D01*
X136445500Y-57006178D01*
X136421843Y-56765984D01*
X136328352Y-56457785D01*
X136176531Y-56173748D01*
X135972214Y-55924786D01*
X135723252Y-55720469D01*
X135439215Y-55568648D01*
X135131016Y-55475157D01*
X134810500Y-55443589D01*
X134489985Y-55475157D01*
X134181786Y-55568648D01*
X133897749Y-55720469D01*
X133648787Y-55924786D01*
X133444470Y-56173748D01*
X133292649Y-56457785D01*
X133199158Y-56765984D01*
X133175501Y-57006178D01*
X133175500Y-66882321D01*
X133175501Y-66882331D01*
X133175500Y-85390681D01*
X133167589Y-85471000D01*
X109743701Y-85471000D01*
X109695432Y-85228342D01*
X109583490Y-84958089D01*
X109420975Y-84714868D01*
X109214132Y-84508025D01*
X109039740Y-84391500D01*
X109214132Y-84274975D01*
X109420975Y-84068132D01*
X109583490Y-83824911D01*
X109695432Y-83554658D01*
X109752500Y-83267760D01*
X109752500Y-82975240D01*
X109695432Y-82688342D01*
X109583490Y-82418089D01*
X109420975Y-82174868D01*
X109214132Y-81968025D01*
X109039740Y-81851500D01*
X109214132Y-81734975D01*
X109420975Y-81528132D01*
X109583490Y-81284911D01*
X109695432Y-81014658D01*
X109752500Y-80727760D01*
X109752500Y-80435240D01*
X109695432Y-80148342D01*
X109583490Y-79878089D01*
X109420975Y-79634868D01*
X109214132Y-79428025D01*
X109039740Y-79311500D01*
X109214132Y-79194975D01*
X109420975Y-78988132D01*
X109583490Y-78744911D01*
X109695432Y-78474658D01*
X109752500Y-78187760D01*
X109752500Y-77895240D01*
X109695432Y-77608342D01*
X109583490Y-77338089D01*
X109420975Y-77094868D01*
X109214132Y-76888025D01*
X109039740Y-76771500D01*
X109214132Y-76654975D01*
X109420975Y-76448132D01*
X109583490Y-76204911D01*
X109695432Y-75934658D01*
X109752500Y-75647760D01*
X109752500Y-75355240D01*
X109695432Y-75068342D01*
X109583490Y-74798089D01*
X109420975Y-74554868D01*
X109214132Y-74348025D01*
X108970911Y-74185510D01*
X108700658Y-74073568D01*
X108413760Y-74016500D01*
X108121240Y-74016500D01*
X107834342Y-74073568D01*
X107564089Y-74185510D01*
X107320868Y-74348025D01*
X107189013Y-74479880D01*
X107167002Y-74407320D01*
X107108037Y-74297006D01*
X107028685Y-74200315D01*
X106931994Y-74120963D01*
X106821680Y-74061998D01*
X106701982Y-74025688D01*
X106577500Y-74013428D01*
X106013250Y-74016500D01*
X105854500Y-74175250D01*
X105854500Y-75374500D01*
X105874500Y-75374500D01*
X105874500Y-75628500D01*
X105854500Y-75628500D01*
X105854500Y-77914500D01*
X105874500Y-77914500D01*
X105874500Y-78168500D01*
X105854500Y-78168500D01*
X105854500Y-80454500D01*
X105874500Y-80454500D01*
X105874500Y-80708500D01*
X105854500Y-80708500D01*
X105854500Y-82994500D01*
X105874500Y-82994500D01*
X105874500Y-83248500D01*
X105854500Y-83248500D01*
X105854500Y-83268500D01*
X105600500Y-83268500D01*
X105600500Y-83248500D01*
X104407345Y-83248500D01*
X104286024Y-83478390D01*
X104330675Y-83625599D01*
X104455859Y-83888420D01*
X104629912Y-84121769D01*
X104846145Y-84316678D01*
X104963034Y-84386305D01*
X104780868Y-84508025D01*
X104574025Y-84714868D01*
X104411510Y-84958089D01*
X104299568Y-85228342D01*
X104242500Y-85515240D01*
X104242500Y-85541368D01*
X103414364Y-86369505D01*
X103371050Y-86405052D01*
X103229215Y-86577878D01*
X103144691Y-86736013D01*
X103144024Y-80938390D01*
X104286024Y-80938390D01*
X104330675Y-81085599D01*
X104455859Y-81348420D01*
X104629912Y-81581769D01*
X104846145Y-81776678D01*
X104971755Y-81851500D01*
X104846145Y-81926322D01*
X104629912Y-82121231D01*
X104455859Y-82354580D01*
X104330675Y-82617401D01*
X104286024Y-82764610D01*
X104407345Y-82994500D01*
X105600500Y-82994500D01*
X105600500Y-80708500D01*
X104407345Y-80708500D01*
X104286024Y-80938390D01*
X103144024Y-80938390D01*
X103143732Y-78398390D01*
X104286024Y-78398390D01*
X104330675Y-78545599D01*
X104455859Y-78808420D01*
X104629912Y-79041769D01*
X104846145Y-79236678D01*
X104971755Y-79311500D01*
X104846145Y-79386322D01*
X104629912Y-79581231D01*
X104455859Y-79814580D01*
X104330675Y-80077401D01*
X104286024Y-80224610D01*
X104407345Y-80454500D01*
X105600500Y-80454500D01*
X105600500Y-78168500D01*
X104407345Y-78168500D01*
X104286024Y-78398390D01*
X103143732Y-78398390D01*
X103143496Y-76351500D01*
X104239428Y-76351500D01*
X104251688Y-76475982D01*
X104287998Y-76595680D01*
X104346963Y-76705994D01*
X104426315Y-76802685D01*
X104523006Y-76882037D01*
X104633320Y-76941002D01*
X104713966Y-76965466D01*
X104629912Y-77041231D01*
X104455859Y-77274580D01*
X104330675Y-77537401D01*
X104286024Y-77684610D01*
X104407345Y-77914500D01*
X105600500Y-77914500D01*
X105600500Y-75628500D01*
X104401250Y-75628500D01*
X104242500Y-75787250D01*
X104239428Y-76351500D01*
X103143496Y-76351500D01*
X103143301Y-74651500D01*
X104239428Y-74651500D01*
X104242500Y-75215750D01*
X104401250Y-75374500D01*
X105600500Y-75374500D01*
X105600500Y-74175250D01*
X105441750Y-74016500D01*
X104877500Y-74013428D01*
X104753018Y-74025688D01*
X104633320Y-74061998D01*
X104523006Y-74120963D01*
X104426315Y-74200315D01*
X104346963Y-74297006D01*
X104287998Y-74407320D01*
X104251688Y-74527018D01*
X104239428Y-74651500D01*
X103143301Y-74651500D01*
X103141323Y-57490670D01*
X103637840Y-57490670D01*
X103637840Y-57952330D01*
X103727906Y-58405120D01*
X103904575Y-58831639D01*
X104161060Y-59215496D01*
X104487504Y-59541940D01*
X104871361Y-59798425D01*
X105297880Y-59975094D01*
X105750670Y-60065160D01*
X106212330Y-60065160D01*
X106665120Y-59975094D01*
X107091639Y-59798425D01*
X107475496Y-59541940D01*
X107801940Y-59215496D01*
X108058425Y-58831639D01*
X108235094Y-58405120D01*
X108325160Y-57952330D01*
X108325160Y-57490670D01*
X108235094Y-57037880D01*
X108058425Y-56611361D01*
X107801940Y-56227504D01*
X107475496Y-55901060D01*
X107091639Y-55644575D01*
X106665120Y-55467906D01*
X106212330Y-55377840D01*
X105750670Y-55377840D01*
X105297880Y-55467906D01*
X104871361Y-55644575D01*
X104487504Y-55901060D01*
X104161060Y-56227504D01*
X103904575Y-56611361D01*
X103727906Y-57037880D01*
X103637840Y-57490670D01*
X103141323Y-57490670D01*
X103141299Y-57290645D01*
X103189880Y-56795186D01*
X103324407Y-56349611D01*
X103542915Y-55938656D01*
X103837087Y-55577965D01*
X104195713Y-55281285D01*
X104605134Y-55059911D01*
X105049760Y-54922275D01*
X105543279Y-54870405D01*
X193134642Y-54888992D01*
G04 #@! TA.AperFunction,Conductor*
D29*
G36*
X193134642Y-54888992D02*
G01*
X193630214Y-54937584D01*
X194075791Y-55072112D01*
X194486746Y-55290620D01*
X194847437Y-55584794D01*
X195144117Y-55943418D01*
X195365491Y-56352841D01*
X195503126Y-56797468D01*
X195554999Y-57291013D01*
X195555001Y-107913875D01*
X195535087Y-107889609D01*
X195335613Y-107725906D01*
X195108036Y-107604263D01*
X194861100Y-107529356D01*
X194668646Y-107510401D01*
X194189944Y-107510401D01*
X193997490Y-107529356D01*
X193750554Y-107604263D01*
X193522977Y-107725906D01*
X193323503Y-107889609D01*
X193159800Y-108089083D01*
X193038157Y-108316660D01*
X192963250Y-108563596D01*
X192937957Y-108820401D01*
X192963250Y-109077206D01*
X193038157Y-109324142D01*
X193159800Y-109551719D01*
X193323503Y-109751193D01*
X193522977Y-109914896D01*
X193750554Y-110036539D01*
X193997490Y-110111446D01*
X194189944Y-110130401D01*
X194668646Y-110130401D01*
X194861100Y-110111446D01*
X195108036Y-110036539D01*
X195335613Y-109914896D01*
X195535087Y-109751193D01*
X195555001Y-109726927D01*
X195555002Y-113373875D01*
X195535087Y-113349609D01*
X195335613Y-113185906D01*
X195108036Y-113064263D01*
X194861100Y-112989356D01*
X194668646Y-112970401D01*
X194189944Y-112970401D01*
X193997490Y-112989356D01*
X193750554Y-113064263D01*
X193522977Y-113185906D01*
X193323503Y-113349609D01*
X193159800Y-113549083D01*
X193038157Y-113776660D01*
X192963250Y-114023596D01*
X192937957Y-114280401D01*
X192963250Y-114537206D01*
X193038157Y-114784142D01*
X193159800Y-115011719D01*
X193323503Y-115211193D01*
X193522977Y-115374896D01*
X193750554Y-115496539D01*
X193997490Y-115571446D01*
X194189944Y-115590401D01*
X194668646Y-115590401D01*
X194861100Y-115571446D01*
X195108036Y-115496539D01*
X195335613Y-115374896D01*
X195535087Y-115211193D01*
X195555002Y-115186927D01*
X195555002Y-124110212D01*
X195506417Y-124605716D01*
X195371890Y-125051291D01*
X195153381Y-125462247D01*
X194859209Y-125822937D01*
X194500584Y-126119618D01*
X194091162Y-126340991D01*
X193646538Y-126478626D01*
X193152991Y-126530500D01*
X105569279Y-126530500D01*
X105073785Y-126481916D01*
X104628210Y-126347389D01*
X104217254Y-126128880D01*
X103856564Y-125834708D01*
X103559883Y-125476083D01*
X103338510Y-125066661D01*
X103200875Y-124622037D01*
X103148999Y-124128467D01*
X103148923Y-123467170D01*
X103637841Y-123467170D01*
X103637841Y-123928830D01*
X103727907Y-124381620D01*
X103904576Y-124808139D01*
X104161061Y-125191996D01*
X104487505Y-125518440D01*
X104871362Y-125774925D01*
X105297881Y-125951594D01*
X105750671Y-126041660D01*
X106212331Y-126041660D01*
X106665121Y-125951594D01*
X107091640Y-125774925D01*
X107475497Y-125518440D01*
X107801941Y-125191996D01*
X108058426Y-124808139D01*
X108235095Y-124381620D01*
X108325161Y-123928830D01*
X108325161Y-123467170D01*
X108235095Y-123014380D01*
X108058426Y-122587861D01*
X107801941Y-122204004D01*
X107475497Y-121877560D01*
X107091640Y-121621075D01*
X106665121Y-121444406D01*
X106212331Y-121354340D01*
X105750671Y-121354340D01*
X105297881Y-121444406D01*
X104871362Y-121621075D01*
X104487505Y-121877560D01*
X104161061Y-122204004D01*
X103904576Y-122587861D01*
X103727907Y-123014380D01*
X103637841Y-123467170D01*
X103148923Y-123467170D01*
X103147898Y-114567099D01*
X133589132Y-114567099D01*
X133589132Y-117767099D01*
X133601392Y-117891581D01*
X133637702Y-118011279D01*
X133696667Y-118121593D01*
X133776019Y-118218284D01*
X133872710Y-118297636D01*
X133983024Y-118356601D01*
X134102722Y-118392911D01*
X134227204Y-118405171D01*
X136227204Y-118405171D01*
X136351686Y-118392911D01*
X136471384Y-118356601D01*
X136581698Y-118297636D01*
X136678389Y-118218284D01*
X136757741Y-118121593D01*
X136816706Y-118011279D01*
X136853016Y-117891581D01*
X136865276Y-117767099D01*
X136865276Y-114567099D01*
X136853016Y-114442617D01*
X136816706Y-114322919D01*
X136757741Y-114212605D01*
X136678389Y-114115914D01*
X136581698Y-114036562D01*
X136471384Y-113977597D01*
X136351686Y-113941287D01*
X136227204Y-113929027D01*
X134227204Y-113929027D01*
X134102722Y-113941287D01*
X133983024Y-113977597D01*
X133872710Y-114036562D01*
X133776019Y-114115914D01*
X133696667Y-114212605D01*
X133637702Y-114322919D01*
X133601392Y-114442617D01*
X133589132Y-114567099D01*
X103147898Y-114567099D01*
X103147344Y-109753061D01*
X134410500Y-109753061D01*
X134410500Y-109956939D01*
X134450274Y-110156898D01*
X134528295Y-110345256D01*
X134641563Y-110514774D01*
X134785726Y-110658937D01*
X134955244Y-110772205D01*
X135143602Y-110850226D01*
X135288725Y-110879093D01*
X137492205Y-113082574D01*
X137492204Y-121758630D01*
X137284952Y-121897112D01*
X137057217Y-122124847D01*
X136878286Y-122392636D01*
X136755036Y-122690187D01*
X136692204Y-123006066D01*
X136692204Y-123328132D01*
X136755036Y-123644011D01*
X136878286Y-123941562D01*
X137057217Y-124209351D01*
X137284952Y-124437086D01*
X137552741Y-124616017D01*
X137850292Y-124739267D01*
X138166171Y-124802099D01*
X138488237Y-124802099D01*
X138804116Y-124739267D01*
X139101667Y-124616017D01*
X139369456Y-124437086D01*
X139504030Y-124302512D01*
X142371396Y-124302512D01*
X142467160Y-124566913D01*
X142756775Y-124707803D01*
X143068312Y-124789483D01*
X143389799Y-124808817D01*
X143708879Y-124765060D01*
X144013292Y-124659894D01*
X144187248Y-124566913D01*
X144283012Y-124302512D01*
X143327204Y-123346704D01*
X142371396Y-124302512D01*
X139504030Y-124302512D01*
X139597191Y-124209351D01*
X139776122Y-123941562D01*
X139899372Y-123644011D01*
X139962204Y-123328132D01*
X139962204Y-123229694D01*
X141685486Y-123229694D01*
X141729243Y-123548774D01*
X141834409Y-123853187D01*
X141927390Y-124027143D01*
X142191791Y-124122907D01*
X143147599Y-123167099D01*
X143506809Y-123167099D01*
X144462617Y-124122907D01*
X144727018Y-124027143D01*
X144867908Y-123737528D01*
X144938791Y-123467170D01*
X190442340Y-123467170D01*
X190442340Y-123928830D01*
X190532406Y-124381620D01*
X190709075Y-124808139D01*
X190965560Y-125191996D01*
X191292004Y-125518440D01*
X191675861Y-125774925D01*
X192102380Y-125951594D01*
X192555170Y-126041660D01*
X193016830Y-126041660D01*
X193469620Y-125951594D01*
X193896139Y-125774925D01*
X194279996Y-125518440D01*
X194606440Y-125191996D01*
X194862925Y-124808139D01*
X195039594Y-124381620D01*
X195129660Y-123928830D01*
X195129660Y-123467170D01*
X195039594Y-123014380D01*
X194862925Y-122587861D01*
X194606440Y-122204004D01*
X194279996Y-121877560D01*
X193896139Y-121621075D01*
X193469620Y-121444406D01*
X193016830Y-121354340D01*
X192555170Y-121354340D01*
X192102380Y-121444406D01*
X191675861Y-121621075D01*
X191292004Y-121877560D01*
X190965560Y-122204004D01*
X190709075Y-122587861D01*
X190532406Y-123014380D01*
X190442340Y-123467170D01*
X144938791Y-123467170D01*
X144949588Y-123425991D01*
X144968922Y-123104504D01*
X144925165Y-122785424D01*
X144819999Y-122481011D01*
X144727018Y-122307055D01*
X144462617Y-122211291D01*
X143506809Y-123167099D01*
X143147599Y-123167099D01*
X142191791Y-122211291D01*
X141927390Y-122307055D01*
X141786500Y-122596670D01*
X141704820Y-122908207D01*
X141685486Y-123229694D01*
X139962204Y-123229694D01*
X139962204Y-123006066D01*
X139899372Y-122690187D01*
X139776122Y-122392636D01*
X139597191Y-122124847D01*
X139504030Y-122031686D01*
X142371396Y-122031686D01*
X143327204Y-122987494D01*
X144283012Y-122031686D01*
X144187248Y-121767285D01*
X143897633Y-121626395D01*
X143586096Y-121544715D01*
X143264609Y-121525381D01*
X142945529Y-121569138D01*
X142641116Y-121674304D01*
X142467160Y-121767285D01*
X142371396Y-122031686D01*
X139504030Y-122031686D01*
X139369456Y-121897112D01*
X139162204Y-121758631D01*
X139162204Y-114567099D01*
X144789132Y-114567099D01*
X144789132Y-117767099D01*
X144801392Y-117891581D01*
X144837702Y-118011279D01*
X144896667Y-118121593D01*
X144976019Y-118218284D01*
X145072710Y-118297636D01*
X145183024Y-118356601D01*
X145302722Y-118392911D01*
X145427204Y-118405171D01*
X147427204Y-118405171D01*
X147551686Y-118392911D01*
X147671384Y-118356601D01*
X147781698Y-118297636D01*
X147878389Y-118218284D01*
X147957741Y-118121593D01*
X148016706Y-118011279D01*
X148053016Y-117891581D01*
X148065276Y-117767099D01*
X148065276Y-114567099D01*
X148053016Y-114442617D01*
X148016706Y-114322919D01*
X147957741Y-114212605D01*
X147878389Y-114115914D01*
X147781698Y-114036562D01*
X147671384Y-113977597D01*
X147551686Y-113941287D01*
X147427204Y-113929027D01*
X145427204Y-113929027D01*
X145302722Y-113941287D01*
X145183024Y-113977597D01*
X145072710Y-114036562D01*
X144976019Y-114115914D01*
X144896667Y-114212605D01*
X144837702Y-114322919D01*
X144801392Y-114442617D01*
X144789132Y-114567099D01*
X139162204Y-114567099D01*
X139162204Y-112777722D01*
X139166244Y-112736704D01*
X139150122Y-112573015D01*
X139102376Y-112415617D01*
X139024840Y-112270558D01*
X138946643Y-112175274D01*
X138946641Y-112175272D01*
X138920495Y-112143413D01*
X138888636Y-112117267D01*
X136469593Y-109698225D01*
X136440726Y-109553102D01*
X136362705Y-109364744D01*
X136249437Y-109195226D01*
X136105274Y-109051063D01*
X135935756Y-108937795D01*
X135747398Y-108859774D01*
X135547439Y-108820000D01*
X135343561Y-108820000D01*
X135143602Y-108859774D01*
X134955244Y-108937795D01*
X134785726Y-109051063D01*
X134641563Y-109195226D01*
X134528295Y-109364744D01*
X134450274Y-109553102D01*
X134410500Y-109753061D01*
X103147344Y-109753061D01*
X103147201Y-108506066D01*
X136692204Y-108506066D01*
X136692204Y-108828132D01*
X136755036Y-109144011D01*
X136878286Y-109441562D01*
X137057217Y-109709351D01*
X137284952Y-109937086D01*
X137552741Y-110116017D01*
X137850292Y-110239267D01*
X138166171Y-110302099D01*
X138488237Y-110302099D01*
X138804116Y-110239267D01*
X139101667Y-110116017D01*
X139369456Y-109937086D01*
X139597191Y-109709351D01*
X139662129Y-109612164D01*
X139691791Y-109622907D01*
X140647599Y-108667099D01*
X139691791Y-107711291D01*
X139662129Y-107722034D01*
X139597191Y-107624847D01*
X139369456Y-107397112D01*
X139101667Y-107218181D01*
X138804116Y-107094931D01*
X138488237Y-107032099D01*
X138166171Y-107032099D01*
X137850292Y-107094931D01*
X137552741Y-107218181D01*
X137284952Y-107397112D01*
X137057217Y-107624847D01*
X136878286Y-107892636D01*
X136755036Y-108190187D01*
X136692204Y-108506066D01*
X103147201Y-108506066D01*
X103146351Y-101140589D01*
X103516576Y-101510814D01*
X103567787Y-101573215D01*
X103816749Y-101777532D01*
X104100786Y-101929353D01*
X104408985Y-102022844D01*
X104649179Y-102046501D01*
X104649181Y-102046501D01*
X104729500Y-102054412D01*
X104809820Y-102046501D01*
X116666682Y-102046501D01*
X116747001Y-102054412D01*
X116827320Y-102046501D01*
X116827323Y-102046501D01*
X117067517Y-102022844D01*
X117375716Y-101929353D01*
X117659753Y-101777532D01*
X117908715Y-101573215D01*
X117959926Y-101510814D01*
X118459916Y-101010824D01*
X124109538Y-95361202D01*
X126694903Y-95361202D01*
X126766486Y-95605171D01*
X127021996Y-95726071D01*
X127296184Y-95794800D01*
X127578512Y-95808717D01*
X127858130Y-95767287D01*
X128124292Y-95672103D01*
X128249514Y-95605171D01*
X128321097Y-95361202D01*
X127508000Y-94548105D01*
X126694903Y-95361202D01*
X124109538Y-95361202D01*
X125031729Y-94439012D01*
X126067783Y-94439012D01*
X126109213Y-94718630D01*
X126204397Y-94984792D01*
X126271329Y-95110014D01*
X126515298Y-95181597D01*
X127328395Y-94368500D01*
X127687605Y-94368500D01*
X128500702Y-95181597D01*
X128744671Y-95110014D01*
X128865571Y-94854504D01*
X128934300Y-94580316D01*
X128948217Y-94297988D01*
X128906787Y-94018370D01*
X128811603Y-93752208D01*
X128744671Y-93626986D01*
X128500702Y-93555403D01*
X127687605Y-94368500D01*
X127328395Y-94368500D01*
X126515298Y-93555403D01*
X126271329Y-93626986D01*
X126150429Y-93882496D01*
X126081700Y-94156684D01*
X126067783Y-94439012D01*
X125031729Y-94439012D01*
X126094943Y-93375798D01*
X126694903Y-93375798D01*
X127508000Y-94188895D01*
X128321097Y-93375798D01*
X128249514Y-93131829D01*
X127994004Y-93010929D01*
X127719816Y-92942200D01*
X127437488Y-92928283D01*
X127157870Y-92969713D01*
X126891708Y-93064897D01*
X126766486Y-93131829D01*
X126694903Y-93375798D01*
X126094943Y-93375798D01*
X126967242Y-92503500D01*
X127588322Y-92503500D01*
X127828516Y-92479843D01*
X128136715Y-92386352D01*
X128285973Y-92306572D01*
X128308000Y-92306572D01*
X128432482Y-92294312D01*
X128552180Y-92258002D01*
X128662494Y-92199037D01*
X128759185Y-92119685D01*
X128838537Y-92022994D01*
X128897502Y-91912680D01*
X128933812Y-91792982D01*
X128946072Y-91668500D01*
X128946072Y-91646473D01*
X129025852Y-91497215D01*
X129119343Y-91189016D01*
X129150911Y-90868500D01*
X129119343Y-90547984D01*
X129025852Y-90239785D01*
X128946072Y-90090527D01*
X128946072Y-90068500D01*
X128933812Y-89944018D01*
X128897502Y-89824320D01*
X128838537Y-89714006D01*
X128759185Y-89617315D01*
X128662494Y-89537963D01*
X128552180Y-89478998D01*
X128432482Y-89442688D01*
X128308000Y-89430428D01*
X128285973Y-89430428D01*
X128136715Y-89350648D01*
X127828516Y-89257157D01*
X127588322Y-89233500D01*
X126370324Y-89233500D01*
X126290002Y-89225589D01*
X125969485Y-89257157D01*
X125742610Y-89325979D01*
X125661287Y-89350648D01*
X125377250Y-89502469D01*
X125334000Y-89537963D01*
X125201823Y-89646438D01*
X125128288Y-89706786D01*
X125077086Y-89769176D01*
X116147678Y-98698586D01*
X116069763Y-98776501D01*
X109699044Y-98776501D01*
X109752500Y-98507760D01*
X109752500Y-98215240D01*
X109695432Y-97928342D01*
X109583490Y-97658089D01*
X109420975Y-97414868D01*
X109214132Y-97208025D01*
X109039740Y-97091500D01*
X109214132Y-96974975D01*
X109420975Y-96768132D01*
X109583490Y-96524911D01*
X109695432Y-96254658D01*
X109752500Y-95967760D01*
X109752500Y-95675240D01*
X109695432Y-95388342D01*
X109583490Y-95118089D01*
X109420975Y-94874868D01*
X109214132Y-94668025D01*
X109039740Y-94551500D01*
X109214132Y-94434975D01*
X109420975Y-94228132D01*
X109583490Y-93984911D01*
X109695432Y-93714658D01*
X109752500Y-93427760D01*
X109752500Y-93135240D01*
X109695432Y-92848342D01*
X109583490Y-92578089D01*
X109420975Y-92334868D01*
X109214132Y-92128025D01*
X109039740Y-92011500D01*
X109214132Y-91894975D01*
X109420975Y-91688132D01*
X109583490Y-91444911D01*
X109695432Y-91174658D01*
X109752500Y-90887760D01*
X109752500Y-90595240D01*
X109695432Y-90308342D01*
X109583490Y-90038089D01*
X109420975Y-89794868D01*
X109214132Y-89588025D01*
X109039740Y-89471500D01*
X109214132Y-89354975D01*
X109420975Y-89148132D01*
X109583490Y-88904911D01*
X109695432Y-88634658D01*
X109752500Y-88347760D01*
X109752500Y-88055240D01*
X109695432Y-87768342D01*
X109583490Y-87498089D01*
X109420975Y-87254868D01*
X109214132Y-87048025D01*
X109039740Y-86931500D01*
X109214132Y-86814975D01*
X109420975Y-86608132D01*
X109583490Y-86364911D01*
X109695432Y-86094658D01*
X109752500Y-85807760D01*
X109752500Y-85515240D01*
X109743701Y-85471000D01*
X133167589Y-85471000D01*
X133175500Y-85551319D01*
X133175500Y-85551321D01*
X133199157Y-85791515D01*
X133292648Y-86099714D01*
X133444469Y-86383751D01*
X133648786Y-86632714D01*
X133711187Y-86683925D01*
X134727177Y-87699915D01*
X134841500Y-87793738D01*
X134841501Y-99456110D01*
X134836735Y-99504500D01*
X134855753Y-99697593D01*
X134912076Y-99883266D01*
X134912077Y-99883267D01*
X135003541Y-100054384D01*
X135126631Y-100204370D01*
X135164211Y-100235211D01*
X140169570Y-105240571D01*
X140179795Y-105265256D01*
X140293063Y-105434774D01*
X140437226Y-105578937D01*
X140606744Y-105692205D01*
X140795102Y-105770226D01*
X140995061Y-105810000D01*
X141198939Y-105810000D01*
X141398898Y-105770226D01*
X141544295Y-105710000D01*
X141947818Y-105710000D01*
X143266845Y-107029027D01*
X142327204Y-107029027D01*
X142202722Y-107041287D01*
X142083024Y-107077597D01*
X141972710Y-107136562D01*
X141876019Y-107215914D01*
X141796667Y-107312605D01*
X141741228Y-107416322D01*
X141687248Y-107267285D01*
X141397633Y-107126395D01*
X141086096Y-107044715D01*
X140764609Y-107025381D01*
X140445529Y-107069138D01*
X140141116Y-107174304D01*
X139967160Y-107267285D01*
X139871396Y-107531686D01*
X140827204Y-108487494D01*
X140841347Y-108473352D01*
X141020952Y-108652957D01*
X141006809Y-108667099D01*
X141020952Y-108681242D01*
X140841347Y-108860847D01*
X140827204Y-108846704D01*
X139871396Y-109802512D01*
X139967160Y-110066913D01*
X140256775Y-110207803D01*
X140568312Y-110289483D01*
X140889799Y-110308817D01*
X141208879Y-110265060D01*
X141513292Y-110159894D01*
X141687248Y-110066913D01*
X141741228Y-109917876D01*
X141796667Y-110021593D01*
X141876019Y-110118284D01*
X141972710Y-110197636D01*
X142083024Y-110256601D01*
X142202722Y-110292911D01*
X142327204Y-110305171D01*
X143266844Y-110305171D01*
X142620016Y-110952000D01*
X141480795Y-110952000D01*
X141335398Y-110891774D01*
X141135439Y-110852000D01*
X140931561Y-110852000D01*
X140731602Y-110891774D01*
X140543244Y-110969795D01*
X140373726Y-111083063D01*
X140229563Y-111227226D01*
X140116295Y-111396744D01*
X140038274Y-111585102D01*
X139998500Y-111785061D01*
X139998500Y-111988939D01*
X140038274Y-112188898D01*
X140116295Y-112377256D01*
X140229563Y-112546774D01*
X140373726Y-112690937D01*
X140543244Y-112804205D01*
X140731602Y-112882226D01*
X140931561Y-112922000D01*
X141135439Y-112922000D01*
X141335398Y-112882226D01*
X141480795Y-112822000D01*
X142961373Y-112822000D01*
X143007305Y-112826524D01*
X143053237Y-112822000D01*
X143190597Y-112808471D01*
X143366845Y-112755007D01*
X143529277Y-112668186D01*
X143671649Y-112551344D01*
X143700935Y-112515659D01*
X145455871Y-110760724D01*
X145491549Y-110731444D01*
X145608391Y-110589072D01*
X145695212Y-110426640D01*
X145736818Y-110289483D01*
X145748676Y-110250393D01*
X145766729Y-110067101D01*
X145762205Y-110021169D01*
X145762205Y-107313033D01*
X145766729Y-107267098D01*
X145748677Y-107083806D01*
X145714893Y-106972439D01*
X145695212Y-106907558D01*
X145608391Y-106745126D01*
X145491549Y-106602754D01*
X145455864Y-106573468D01*
X143028737Y-104146341D01*
X142999451Y-104110656D01*
X142857079Y-103993814D01*
X142694647Y-103906993D01*
X142518399Y-103853529D01*
X142381039Y-103840000D01*
X142335107Y-103835476D01*
X142289175Y-103840000D01*
X141555001Y-103840000D01*
X136811500Y-99096500D01*
X136811500Y-87793738D01*
X136988213Y-87648713D01*
X137147901Y-87454132D01*
X137150500Y-87480518D01*
X137162582Y-87603188D01*
X137210328Y-87760586D01*
X137287864Y-87905645D01*
X137392209Y-88032791D01*
X137424079Y-88058946D01*
X138953559Y-89588426D01*
X138979709Y-89620291D01*
X139085104Y-89706786D01*
X139106854Y-89724636D01*
X139251913Y-89802172D01*
X139409311Y-89849918D01*
X139572999Y-89866040D01*
X139614018Y-89862000D01*
X141767133Y-89862000D01*
X155692501Y-103787369D01*
X155692500Y-116481481D01*
X155688460Y-116522500D01*
X155692500Y-116563518D01*
X155704582Y-116686188D01*
X155752328Y-116843586D01*
X155829864Y-116988645D01*
X155934209Y-117115791D01*
X155966079Y-117141946D01*
X158265865Y-119441733D01*
X158271392Y-119469522D01*
X158343759Y-119644231D01*
X158448819Y-119801464D01*
X158582536Y-119935181D01*
X158739769Y-120040241D01*
X158914478Y-120112608D01*
X159099948Y-120149500D01*
X159289052Y-120149500D01*
X159474522Y-120112608D01*
X159649231Y-120040241D01*
X159806464Y-119935181D01*
X159940181Y-119801464D01*
X160045241Y-119644231D01*
X160117608Y-119469522D01*
X160154500Y-119284052D01*
X160154500Y-119094948D01*
X160117608Y-118909478D01*
X160045241Y-118734769D01*
X159940181Y-118577536D01*
X159806464Y-118443819D01*
X159649231Y-118338759D01*
X159474522Y-118266392D01*
X159446733Y-118260865D01*
X157362500Y-116176633D01*
X157362500Y-113429713D01*
X191064295Y-113429713D01*
X191064295Y-113601089D01*
X191097728Y-113769171D01*
X191163311Y-113927501D01*
X191258522Y-114069994D01*
X191379702Y-114191174D01*
X191522195Y-114286385D01*
X191680525Y-114351968D01*
X191848607Y-114385401D01*
X192019983Y-114385401D01*
X192188065Y-114351968D01*
X192346395Y-114286385D01*
X192488888Y-114191174D01*
X192610068Y-114069994D01*
X192705279Y-113927501D01*
X192770862Y-113769171D01*
X192804295Y-113601089D01*
X192804295Y-113429713D01*
X192770862Y-113261631D01*
X192705279Y-113103301D01*
X192610068Y-112960808D01*
X192488888Y-112839628D01*
X192346395Y-112744417D01*
X192188065Y-112678834D01*
X192019983Y-112645401D01*
X191848607Y-112645401D01*
X191680525Y-112678834D01*
X191522195Y-112744417D01*
X191379702Y-112839628D01*
X191258522Y-112960808D01*
X191163311Y-113103301D01*
X191097728Y-113261631D01*
X191064295Y-113429713D01*
X157362500Y-113429713D01*
X157362500Y-103482507D01*
X157366539Y-103441499D01*
X157362500Y-103400491D01*
X157362500Y-103400481D01*
X157350418Y-103277811D01*
X157302672Y-103120413D01*
X157225136Y-102975354D01*
X157120791Y-102848209D01*
X157088927Y-102822059D01*
X142732446Y-88465579D01*
X142706291Y-88433709D01*
X142579146Y-88329364D01*
X142434087Y-88251828D01*
X142276689Y-88204082D01*
X142154019Y-88192000D01*
X142154018Y-88192000D01*
X142113000Y-88187960D01*
X142071982Y-88192000D01*
X139918868Y-88192000D01*
X138844231Y-87117363D01*
X138963061Y-87141000D01*
X139166939Y-87141000D01*
X139366898Y-87101226D01*
X139555256Y-87023205D01*
X139724774Y-86909937D01*
X139868937Y-86765774D01*
X139911647Y-86701854D01*
X139950073Y-86759363D01*
X140094236Y-86903526D01*
X140263754Y-87016794D01*
X140452112Y-87094815D01*
X140652071Y-87134589D01*
X140855949Y-87134589D01*
X141055908Y-87094815D01*
X141244266Y-87016794D01*
X141413784Y-86903526D01*
X141493800Y-86823511D01*
X141580226Y-86909937D01*
X141749744Y-87023205D01*
X141938102Y-87101226D01*
X142138061Y-87141000D01*
X142341939Y-87141000D01*
X142541898Y-87101226D01*
X142730256Y-87023205D01*
X142795733Y-86979455D01*
X142956244Y-87086705D01*
X143144602Y-87164726D01*
X143344561Y-87204500D01*
X143548439Y-87204500D01*
X143748398Y-87164726D01*
X143936756Y-87086705D01*
X144106274Y-86973437D01*
X144250437Y-86829274D01*
X144363705Y-86659756D01*
X144441726Y-86471398D01*
X144470592Y-86326276D01*
X144855466Y-85941403D01*
X144887324Y-85915258D01*
X144924722Y-85869689D01*
X144991669Y-85788113D01*
X145069205Y-85643054D01*
X145091428Y-85569795D01*
X145116951Y-85485656D01*
X145129033Y-85362986D01*
X145129033Y-85362985D01*
X145133073Y-85321967D01*
X145129033Y-85280949D01*
X145129033Y-71570400D01*
X151399563Y-77840932D01*
X151425709Y-77872791D01*
X151457568Y-77898937D01*
X151457570Y-77898939D01*
X151506719Y-77939274D01*
X151552854Y-77977136D01*
X151697913Y-78054672D01*
X151855311Y-78102418D01*
X151977981Y-78114500D01*
X151977982Y-78114500D01*
X152019000Y-78118540D01*
X152060018Y-78114500D01*
X168423715Y-78114500D01*
X168546744Y-78196705D01*
X168735102Y-78274726D01*
X168935061Y-78314500D01*
X169138939Y-78314500D01*
X169338898Y-78274726D01*
X169527256Y-78196705D01*
X169696774Y-78083437D01*
X169789500Y-77990711D01*
X169789500Y-81251632D01*
X166278133Y-84763000D01*
X165481016Y-84763000D01*
X165439997Y-84758960D01*
X165398979Y-84763000D01*
X165276309Y-84775082D01*
X165118911Y-84822828D01*
X164973852Y-84900364D01*
X164846707Y-85004709D01*
X164820559Y-85036571D01*
X161109574Y-88747557D01*
X161077710Y-88773707D01*
X161051562Y-88805569D01*
X160973364Y-88900853D01*
X160895828Y-89045912D01*
X160848082Y-89203310D01*
X160831960Y-89366998D01*
X160836001Y-89408026D01*
X160836000Y-93748481D01*
X160831960Y-93789500D01*
X160836000Y-93830518D01*
X160848082Y-93953188D01*
X160895828Y-94110586D01*
X160973364Y-94255645D01*
X161077709Y-94382791D01*
X161109579Y-94408946D01*
X165090501Y-98389869D01*
X165090500Y-104606981D01*
X165086460Y-104648000D01*
X165090500Y-104689018D01*
X165102582Y-104811688D01*
X165150328Y-104969086D01*
X165227864Y-105114145D01*
X165332209Y-105241291D01*
X165364079Y-105267446D01*
X168131809Y-108035177D01*
X168157959Y-108067041D01*
X168251839Y-108144086D01*
X168285104Y-108171386D01*
X168430163Y-108248922D01*
X168582164Y-108295031D01*
X172227563Y-111940432D01*
X172253709Y-111972291D01*
X172380854Y-112076636D01*
X172525913Y-112154172D01*
X172683311Y-112201918D01*
X172805981Y-112214000D01*
X172805982Y-112214000D01*
X172847000Y-112218040D01*
X172888018Y-112214000D01*
X175276667Y-112214000D01*
X175317685Y-112218040D01*
X175358703Y-112214000D01*
X175358704Y-112214000D01*
X175481374Y-112201918D01*
X175638772Y-112154172D01*
X175783831Y-112076636D01*
X175910976Y-111972291D01*
X175937130Y-111940422D01*
X176329426Y-111548127D01*
X176361291Y-111521976D01*
X176465636Y-111394831D01*
X176543172Y-111249772D01*
X176590918Y-111092374D01*
X176602240Y-110977423D01*
X176685205Y-110853256D01*
X176763226Y-110664898D01*
X176803000Y-110464939D01*
X176803000Y-110261061D01*
X176763226Y-110061102D01*
X176685205Y-109872744D01*
X176571937Y-109703226D01*
X176427774Y-109559063D01*
X176258256Y-109445795D01*
X176069898Y-109367774D01*
X175869939Y-109328000D01*
X175666061Y-109328000D01*
X175466102Y-109367774D01*
X175410000Y-109391012D01*
X175410000Y-105535748D01*
X177551849Y-105535748D01*
X177551849Y-105724852D01*
X177588741Y-105910322D01*
X177661108Y-106085031D01*
X177668163Y-106095589D01*
X177625117Y-106199511D01*
X177588225Y-106384981D01*
X177588225Y-106574085D01*
X177625117Y-106759555D01*
X177697484Y-106934264D01*
X177802544Y-107091497D01*
X177936261Y-107225214D01*
X178093494Y-107330274D01*
X178268203Y-107402641D01*
X178295994Y-107408169D01*
X179377504Y-108489679D01*
X179406370Y-108634802D01*
X179484391Y-108823160D01*
X179597659Y-108992678D01*
X179741822Y-109136841D01*
X179911340Y-109250109D01*
X180099698Y-109328130D01*
X180299657Y-109367904D01*
X180503535Y-109367904D01*
X180703494Y-109328130D01*
X180891852Y-109250109D01*
X181061370Y-109136841D01*
X181205533Y-108992678D01*
X181318801Y-108823160D01*
X181396822Y-108634802D01*
X181436596Y-108434843D01*
X181436596Y-108230965D01*
X181396822Y-108031006D01*
X181318801Y-107842648D01*
X181205533Y-107673130D01*
X181061370Y-107528967D01*
X180891852Y-107415699D01*
X180703494Y-107337678D01*
X180558371Y-107308812D01*
X179714859Y-106465300D01*
X182943563Y-106465300D01*
X182900774Y-106568602D01*
X182871907Y-106713725D01*
X182382074Y-107203559D01*
X182350210Y-107229709D01*
X182294244Y-107297904D01*
X182245864Y-107356855D01*
X182168328Y-107501914D01*
X182120582Y-107659312D01*
X182104460Y-107823000D01*
X182108501Y-107864028D01*
X182108500Y-108479714D01*
X182026295Y-108602744D01*
X181948274Y-108791102D01*
X181908500Y-108991061D01*
X181908500Y-109194939D01*
X181948274Y-109394898D01*
X182026295Y-109583256D01*
X182139563Y-109752774D01*
X182283726Y-109896937D01*
X182453244Y-110010205D01*
X182641602Y-110088226D01*
X182841561Y-110128000D01*
X183045439Y-110128000D01*
X183245398Y-110088226D01*
X183433756Y-110010205D01*
X183603274Y-109896937D01*
X183747437Y-109752774D01*
X183860705Y-109583256D01*
X183938726Y-109394898D01*
X183978500Y-109194939D01*
X183978500Y-108991061D01*
X183938726Y-108791102D01*
X183860705Y-108602744D01*
X183778500Y-108479715D01*
X183778500Y-108168867D01*
X184052775Y-107894593D01*
X184197898Y-107865726D01*
X184386256Y-107787705D01*
X184555774Y-107674437D01*
X184699937Y-107530274D01*
X184813205Y-107360756D01*
X184891226Y-107172398D01*
X184931000Y-106972439D01*
X184931000Y-106768561D01*
X184891226Y-106568602D01*
X184848437Y-106465300D01*
X184913433Y-106465300D01*
X187570908Y-109122775D01*
X187599774Y-109267898D01*
X187677795Y-109456256D01*
X187791063Y-109625774D01*
X187935226Y-109769937D01*
X188104744Y-109883205D01*
X188293102Y-109961226D01*
X188493061Y-110001000D01*
X188696939Y-110001000D01*
X188896898Y-109961226D01*
X189085256Y-109883205D01*
X189254774Y-109769937D01*
X189398937Y-109625774D01*
X189469804Y-109519713D01*
X191064295Y-109519713D01*
X191064295Y-109691089D01*
X191097728Y-109859171D01*
X191163311Y-110017501D01*
X191258522Y-110159994D01*
X191379702Y-110281174D01*
X191522195Y-110376385D01*
X191680525Y-110441968D01*
X191848607Y-110475401D01*
X192019983Y-110475401D01*
X192188065Y-110441968D01*
X192346395Y-110376385D01*
X192488888Y-110281174D01*
X192610068Y-110159994D01*
X192705279Y-110017501D01*
X192770862Y-109859171D01*
X192804295Y-109691089D01*
X192804295Y-109519713D01*
X192770862Y-109351631D01*
X192705279Y-109193301D01*
X192610068Y-109050808D01*
X192488888Y-108929628D01*
X192346395Y-108834417D01*
X192188065Y-108768834D01*
X192019983Y-108735401D01*
X191848607Y-108735401D01*
X191680525Y-108768834D01*
X191522195Y-108834417D01*
X191379702Y-108929628D01*
X191258522Y-109050808D01*
X191163311Y-109193301D01*
X191097728Y-109351631D01*
X191064295Y-109519713D01*
X189469804Y-109519713D01*
X189512205Y-109456256D01*
X189590226Y-109267898D01*
X189630000Y-109067939D01*
X189630000Y-108864061D01*
X189590226Y-108664102D01*
X189512205Y-108475744D01*
X189398937Y-108306226D01*
X189254774Y-108162063D01*
X189085256Y-108048795D01*
X188896898Y-107970774D01*
X188751775Y-107941908D01*
X185878746Y-105068879D01*
X185852591Y-105037009D01*
X185725446Y-104932664D01*
X185580387Y-104855128D01*
X185422989Y-104807382D01*
X185300319Y-104795300D01*
X185300318Y-104795300D01*
X185259300Y-104791260D01*
X185218282Y-104795300D01*
X178990138Y-104795300D01*
X178966580Y-104779559D01*
X178791871Y-104707192D01*
X178606401Y-104670300D01*
X178417297Y-104670300D01*
X178231827Y-104707192D01*
X178057118Y-104779559D01*
X177899885Y-104884619D01*
X177766168Y-105018336D01*
X177661108Y-105175569D01*
X177588741Y-105350278D01*
X177551849Y-105535748D01*
X175410000Y-105535748D01*
X175410000Y-99813676D01*
X175413797Y-99775123D01*
X175410000Y-99736570D01*
X175410000Y-99736563D01*
X175398641Y-99621237D01*
X175353754Y-99473264D01*
X175280862Y-99336891D01*
X175182764Y-99217360D01*
X175152816Y-99192782D01*
X170508188Y-94548155D01*
X170508188Y-94521373D01*
X170468414Y-94321414D01*
X170390393Y-94133056D01*
X170277125Y-93963538D01*
X170132962Y-93819375D01*
X169963444Y-93706107D01*
X169775086Y-93628086D01*
X169575127Y-93588312D01*
X169371249Y-93588312D01*
X169171290Y-93628086D01*
X168982932Y-93706107D01*
X168813414Y-93819375D01*
X168669251Y-93963538D01*
X168555983Y-94133056D01*
X168477962Y-94321414D01*
X168438188Y-94521373D01*
X168438188Y-94725251D01*
X168477962Y-94925210D01*
X168555983Y-95113568D01*
X168669251Y-95283086D01*
X168813414Y-95427249D01*
X168982932Y-95540517D01*
X169171290Y-95618538D01*
X169371249Y-95658312D01*
X169398031Y-95658312D01*
X173840001Y-100100283D01*
X173840000Y-109747789D01*
X173821063Y-109766726D01*
X173707795Y-109936244D01*
X173629774Y-110124602D01*
X173590000Y-110324561D01*
X173590000Y-110528439D01*
X173593095Y-110544000D01*
X173192869Y-110544000D01*
X169561196Y-106912329D01*
X169535041Y-106880459D01*
X169407896Y-106776114D01*
X169262837Y-106698578D01*
X169110838Y-106652470D01*
X166760500Y-104302133D01*
X166760500Y-97958019D01*
X166764540Y-97917000D01*
X166748418Y-97753311D01*
X166700672Y-97595913D01*
X166623136Y-97450854D01*
X166518791Y-97323709D01*
X166391646Y-97219364D01*
X166246587Y-97141828D01*
X166185738Y-97123370D01*
X162506000Y-93443633D01*
X162506000Y-92426372D01*
X163309500Y-92426372D01*
X163309500Y-92866628D01*
X163395390Y-93298425D01*
X163563869Y-93705169D01*
X163808462Y-94071229D01*
X164119771Y-94382538D01*
X164485831Y-94627131D01*
X164892575Y-94795610D01*
X165324372Y-94881500D01*
X165764628Y-94881500D01*
X166196425Y-94795610D01*
X166603169Y-94627131D01*
X166969229Y-94382538D01*
X167280538Y-94071229D01*
X167525131Y-93705169D01*
X167693610Y-93298425D01*
X167779500Y-92866628D01*
X167779500Y-92426372D01*
X167693610Y-91994575D01*
X167525131Y-91587831D01*
X167280538Y-91221771D01*
X166969229Y-90910462D01*
X166603169Y-90665869D01*
X166196425Y-90497390D01*
X165764628Y-90411500D01*
X165324372Y-90411500D01*
X164892575Y-90497390D01*
X164485831Y-90665869D01*
X164119771Y-90910462D01*
X163808462Y-91221771D01*
X163563869Y-91587831D01*
X163395390Y-91994575D01*
X163309500Y-92426372D01*
X162506000Y-92426372D01*
X162506000Y-89712865D01*
X165785866Y-86433000D01*
X166582982Y-86433000D01*
X166624000Y-86437040D01*
X166665018Y-86433000D01*
X166665019Y-86433000D01*
X166787689Y-86420918D01*
X166945087Y-86373172D01*
X167090146Y-86295636D01*
X167217291Y-86191291D01*
X167243446Y-86159421D01*
X171185928Y-82216940D01*
X171217791Y-82190791D01*
X171322136Y-82063646D01*
X171399672Y-81918587D01*
X171447418Y-81761189D01*
X171459500Y-81638519D01*
X171459500Y-81638509D01*
X171463539Y-81597501D01*
X171459500Y-81556493D01*
X171459500Y-70890873D01*
X171463540Y-70849855D01*
X171447418Y-70686167D01*
X171399672Y-70528768D01*
X171322136Y-70383709D01*
X171243939Y-70288425D01*
X171243937Y-70288423D01*
X171217791Y-70256564D01*
X171185932Y-70230418D01*
X170721613Y-69766099D01*
X171549428Y-69766099D01*
X171561688Y-69890581D01*
X171597998Y-70010279D01*
X171656963Y-70120593D01*
X171736315Y-70217284D01*
X171833006Y-70296636D01*
X171943320Y-70355601D01*
X172063018Y-70391911D01*
X172187500Y-70404171D01*
X172751750Y-70401099D01*
X172910500Y-70242349D01*
X172910500Y-69043099D01*
X171711250Y-69043099D01*
X171552500Y-69201849D01*
X171549428Y-69766099D01*
X170721613Y-69766099D01*
X169021613Y-68066099D01*
X171549428Y-68066099D01*
X171552500Y-68630349D01*
X171711250Y-68789099D01*
X172910500Y-68789099D01*
X172910500Y-67589849D01*
X172751750Y-67431099D01*
X172187500Y-67428027D01*
X172063018Y-67440287D01*
X171943320Y-67476597D01*
X171833006Y-67535562D01*
X171736315Y-67614914D01*
X171656963Y-67711605D01*
X171597998Y-67821919D01*
X171561688Y-67941617D01*
X171549428Y-68066099D01*
X169021613Y-68066099D01*
X166059815Y-65104302D01*
X166030948Y-64959179D01*
X165952927Y-64770821D01*
X165916297Y-64716000D01*
X173630715Y-64716000D01*
X173753744Y-64798205D01*
X173942102Y-64876226D01*
X174142061Y-64916000D01*
X174345939Y-64916000D01*
X174545898Y-64876226D01*
X174734256Y-64798205D01*
X174903774Y-64684937D01*
X175047937Y-64540774D01*
X175161205Y-64371256D01*
X175239226Y-64182898D01*
X175279000Y-63982939D01*
X175279000Y-63779061D01*
X175239226Y-63579102D01*
X175161306Y-63390988D01*
X179621905Y-67851587D01*
X179504025Y-67969467D01*
X179387500Y-68143859D01*
X179270975Y-67969467D01*
X179064132Y-67762624D01*
X178820911Y-67600109D01*
X178550658Y-67488167D01*
X178263760Y-67431099D01*
X177971240Y-67431099D01*
X177684342Y-67488167D01*
X177414089Y-67600109D01*
X177170868Y-67762624D01*
X176964025Y-67969467D01*
X176847500Y-68143859D01*
X176730975Y-67969467D01*
X176524132Y-67762624D01*
X176280911Y-67600109D01*
X176010658Y-67488167D01*
X175723760Y-67431099D01*
X175431240Y-67431099D01*
X175144342Y-67488167D01*
X174874089Y-67600109D01*
X174630868Y-67762624D01*
X174499013Y-67894479D01*
X174477002Y-67821919D01*
X174418037Y-67711605D01*
X174338685Y-67614914D01*
X174241994Y-67535562D01*
X174131680Y-67476597D01*
X174011982Y-67440287D01*
X173887500Y-67428027D01*
X173323250Y-67431099D01*
X173164500Y-67589849D01*
X173164500Y-68789099D01*
X173184500Y-68789099D01*
X173184500Y-69043099D01*
X173164500Y-69043099D01*
X173164500Y-70242349D01*
X173323250Y-70401099D01*
X173887500Y-70404171D01*
X174011982Y-70391911D01*
X174131680Y-70355601D01*
X174241994Y-70296636D01*
X174338685Y-70217284D01*
X174418037Y-70120593D01*
X174450203Y-70060415D01*
X174450204Y-90185441D01*
X174444712Y-90241203D01*
X174466626Y-90463701D01*
X174531527Y-90677649D01*
X174531528Y-90677650D01*
X174636920Y-90874826D01*
X174778755Y-91047652D01*
X174822063Y-91083194D01*
X178807926Y-95069058D01*
X178657001Y-95083923D01*
X178443053Y-95148824D01*
X178245877Y-95254216D01*
X178073051Y-95396051D01*
X177931216Y-95568877D01*
X177825824Y-95766053D01*
X177760923Y-95980001D01*
X177739009Y-96202500D01*
X177760923Y-96424999D01*
X177825824Y-96638947D01*
X177931216Y-96836123D01*
X177932346Y-96837500D01*
X177931216Y-96838877D01*
X177825824Y-97036053D01*
X177760923Y-97250001D01*
X177739009Y-97472500D01*
X177760923Y-97694999D01*
X177825824Y-97908947D01*
X177931216Y-98106123D01*
X178073051Y-98278949D01*
X178245877Y-98420784D01*
X178443053Y-98526176D01*
X178657001Y-98591077D01*
X178823748Y-98607500D01*
X179014500Y-98607500D01*
X179014501Y-103560752D01*
X179030924Y-103727499D01*
X179095825Y-103941447D01*
X179201217Y-104138623D01*
X179343052Y-104311449D01*
X179515878Y-104453284D01*
X179713054Y-104558676D01*
X179927002Y-104623577D01*
X180149500Y-104645491D01*
X180371999Y-104623577D01*
X180585947Y-104558676D01*
X180783123Y-104453284D01*
X180955949Y-104311449D01*
X181097784Y-104138623D01*
X181203176Y-103941447D01*
X181268077Y-103727499D01*
X181284500Y-103560752D01*
X181284500Y-97972751D01*
X181289991Y-97917000D01*
X181284500Y-97861248D01*
X181284500Y-95877243D01*
X181289990Y-95821501D01*
X181284500Y-95765759D01*
X181284500Y-94861252D01*
X181289991Y-94805500D01*
X181268077Y-94583001D01*
X181203176Y-94369053D01*
X181097784Y-94171877D01*
X180991489Y-94042356D01*
X180991487Y-94042354D01*
X180955949Y-93999051D01*
X180912646Y-93963513D01*
X176720203Y-89771072D01*
X176720203Y-71369954D01*
X176775337Y-71399424D01*
X176961010Y-71455747D01*
X177154103Y-71474765D01*
X177202483Y-71470000D01*
X179124414Y-71470000D01*
X179149102Y-71480226D01*
X179349061Y-71520000D01*
X179552939Y-71520000D01*
X179752898Y-71480226D01*
X179777586Y-71470000D01*
X191404120Y-71470000D01*
X191452500Y-71474765D01*
X191500880Y-71470000D01*
X191645594Y-71455747D01*
X191831267Y-71399424D01*
X192002384Y-71307960D01*
X192152370Y-71184870D01*
X192183215Y-71147285D01*
X193124571Y-70205930D01*
X193149256Y-70195705D01*
X193318774Y-70082437D01*
X193462937Y-69938274D01*
X193576205Y-69768756D01*
X193654226Y-69580398D01*
X193694000Y-69380439D01*
X193694000Y-69176561D01*
X193654226Y-68976602D01*
X193576205Y-68788244D01*
X193462937Y-68618726D01*
X193318774Y-68474563D01*
X193149256Y-68361295D01*
X192960898Y-68283274D01*
X192760939Y-68243500D01*
X192557061Y-68243500D01*
X192357102Y-68283274D01*
X192168744Y-68361295D01*
X191999226Y-68474563D01*
X191855063Y-68618726D01*
X191741795Y-68788244D01*
X191731570Y-68812929D01*
X191044500Y-69500000D01*
X182022992Y-69500000D01*
X182085432Y-69349257D01*
X182142500Y-69062359D01*
X182142500Y-68769839D01*
X182085432Y-68482941D01*
X181973490Y-68212688D01*
X181810975Y-67969467D01*
X181604132Y-67762624D01*
X181502330Y-67694602D01*
X181500203Y-67673009D01*
X181500203Y-67672999D01*
X181488121Y-67550329D01*
X181440375Y-67392931D01*
X181362839Y-67247872D01*
X181258494Y-67120727D01*
X181226630Y-67094577D01*
X175877302Y-61745250D01*
X175851147Y-61713380D01*
X175724002Y-61609035D01*
X175578943Y-61531499D01*
X175421545Y-61483753D01*
X175298875Y-61471671D01*
X175298874Y-61471671D01*
X175257856Y-61467631D01*
X175216838Y-61471671D01*
X168502030Y-61471671D01*
X168570937Y-61402764D01*
X168684205Y-61233246D01*
X168762226Y-61044888D01*
X168802000Y-60844929D01*
X168802000Y-60641051D01*
X168762226Y-60441092D01*
X168684205Y-60252734D01*
X168570937Y-60083216D01*
X168426774Y-59939053D01*
X168257256Y-59825785D01*
X168068898Y-59747764D01*
X167868939Y-59707990D01*
X167842157Y-59707990D01*
X167828062Y-59693894D01*
X167847960Y-59645856D01*
X167887734Y-59445897D01*
X167887734Y-59242019D01*
X167847960Y-59042060D01*
X167769939Y-58853702D01*
X167656671Y-58684184D01*
X167512508Y-58540021D01*
X167342990Y-58426753D01*
X167154632Y-58348732D01*
X166954673Y-58308958D01*
X166750795Y-58308958D01*
X166550836Y-58348732D01*
X166362478Y-58426753D01*
X166192960Y-58540021D01*
X166048797Y-58684184D01*
X165935529Y-58853702D01*
X165857508Y-59042060D01*
X165817734Y-59242019D01*
X165817734Y-59445897D01*
X165857508Y-59645856D01*
X165935529Y-59834214D01*
X166048797Y-60003732D01*
X166101482Y-60056417D01*
X166123980Y-60130583D01*
X166196872Y-60266956D01*
X166294970Y-60386488D01*
X166324924Y-60411071D01*
X166732000Y-60818147D01*
X166732000Y-60844929D01*
X166771774Y-61044888D01*
X166849795Y-61233246D01*
X166963063Y-61402764D01*
X167031970Y-61471671D01*
X161687295Y-61471671D01*
X161564266Y-61389466D01*
X161375908Y-61311445D01*
X161175949Y-61271671D01*
X161109000Y-61271671D01*
X161109000Y-58842785D01*
X161191205Y-58719756D01*
X161269226Y-58531398D01*
X161309000Y-58331439D01*
X161309000Y-58127561D01*
X161269226Y-57927602D01*
X161191205Y-57739244D01*
X161077937Y-57569726D01*
X160998881Y-57490670D01*
X190442339Y-57490670D01*
X190442339Y-57952330D01*
X190532405Y-58405120D01*
X190709074Y-58831639D01*
X190965559Y-59215496D01*
X191292003Y-59541940D01*
X191675860Y-59798425D01*
X192102379Y-59975094D01*
X192555169Y-60065160D01*
X193016829Y-60065160D01*
X193469619Y-59975094D01*
X193896138Y-59798425D01*
X194279995Y-59541940D01*
X194606439Y-59215496D01*
X194862924Y-58831639D01*
X195039593Y-58405120D01*
X195129659Y-57952330D01*
X195129659Y-57490670D01*
X195039593Y-57037880D01*
X194862924Y-56611361D01*
X194606439Y-56227504D01*
X194279995Y-55901060D01*
X193896138Y-55644575D01*
X193469619Y-55467906D01*
X193016829Y-55377840D01*
X192555169Y-55377840D01*
X192102379Y-55467906D01*
X191675860Y-55644575D01*
X191292003Y-55901060D01*
X190965559Y-56227504D01*
X190709074Y-56611361D01*
X190532405Y-57037880D01*
X190442339Y-57490670D01*
X160998881Y-57490670D01*
X160933774Y-57425563D01*
X160764256Y-57312295D01*
X160575898Y-57234274D01*
X160515030Y-57222167D01*
X160547000Y-57061439D01*
X160547000Y-56857561D01*
X160507226Y-56657602D01*
X160429205Y-56469244D01*
X160315937Y-56299726D01*
X160171774Y-56155563D01*
X160162270Y-56149212D01*
X166568500Y-56149212D01*
X166568500Y-56372788D01*
X166612117Y-56592067D01*
X166697676Y-56798624D01*
X166821888Y-56984520D01*
X166979980Y-57142612D01*
X167165876Y-57266824D01*
X167372433Y-57352383D01*
X167591712Y-57396000D01*
X167815288Y-57396000D01*
X168034567Y-57352383D01*
X168241124Y-57266824D01*
X168338500Y-57201759D01*
X168435876Y-57266824D01*
X168642433Y-57352383D01*
X168861712Y-57396000D01*
X169085288Y-57396000D01*
X169304567Y-57352383D01*
X169416274Y-57306112D01*
X169499320Y-57350502D01*
X169619018Y-57386812D01*
X169743500Y-57399072D01*
X169957750Y-57396000D01*
X170116500Y-57237250D01*
X170116500Y-56388000D01*
X170370500Y-56388000D01*
X170370500Y-57237250D01*
X170529250Y-57396000D01*
X170743500Y-57399072D01*
X170867982Y-57386812D01*
X170987680Y-57350502D01*
X171097994Y-57291537D01*
X171194685Y-57212185D01*
X171274037Y-57115494D01*
X171333002Y-57005180D01*
X171369312Y-56885482D01*
X171381572Y-56761000D01*
X171378500Y-56546750D01*
X171219750Y-56388000D01*
X170370500Y-56388000D01*
X170116500Y-56388000D01*
X170105474Y-56388000D01*
X170108500Y-56372788D01*
X170108500Y-56149212D01*
X170105474Y-56134000D01*
X170116500Y-56134000D01*
X170116500Y-55284750D01*
X170370500Y-55284750D01*
X170370500Y-56134000D01*
X171219750Y-56134000D01*
X171378500Y-55975250D01*
X171381572Y-55761000D01*
X171369312Y-55636518D01*
X171333002Y-55516820D01*
X171274037Y-55406506D01*
X171194685Y-55309815D01*
X171097994Y-55230463D01*
X170987680Y-55171498D01*
X170867982Y-55135188D01*
X170743500Y-55122928D01*
X170529250Y-55126000D01*
X170370500Y-55284750D01*
X170116500Y-55284750D01*
X169957750Y-55126000D01*
X169743500Y-55122928D01*
X169619018Y-55135188D01*
X169499320Y-55171498D01*
X169416274Y-55215888D01*
X169304567Y-55169617D01*
X169085288Y-55126000D01*
X168861712Y-55126000D01*
X168642433Y-55169617D01*
X168435876Y-55255176D01*
X168338500Y-55320241D01*
X168241124Y-55255176D01*
X168034567Y-55169617D01*
X167815288Y-55126000D01*
X167591712Y-55126000D01*
X167372433Y-55169617D01*
X167165876Y-55255176D01*
X166979980Y-55379388D01*
X166821888Y-55537480D01*
X166697676Y-55723376D01*
X166612117Y-55929933D01*
X166568500Y-56149212D01*
X160162270Y-56149212D01*
X160002256Y-56042295D01*
X159813898Y-55964274D01*
X159613939Y-55924500D01*
X159410061Y-55924500D01*
X159210102Y-55964274D01*
X159021744Y-56042295D01*
X158852226Y-56155563D01*
X158708063Y-56299726D01*
X158594795Y-56469244D01*
X158516774Y-56657602D01*
X158487640Y-56804068D01*
X158443740Y-56857561D01*
X158414365Y-56893354D01*
X158336829Y-57038413D01*
X158289083Y-57195811D01*
X158272961Y-57359499D01*
X158277002Y-57400527D01*
X158277001Y-62868482D01*
X158272961Y-62909501D01*
X158277001Y-62950519D01*
X158289083Y-63073189D01*
X158336829Y-63230587D01*
X158414365Y-63375646D01*
X158518710Y-63502792D01*
X158550579Y-63528946D01*
X158932408Y-63910776D01*
X158961274Y-64055898D01*
X159039295Y-64244256D01*
X159152563Y-64413774D01*
X159296726Y-64557937D01*
X159466244Y-64671205D01*
X159654602Y-64749226D01*
X159854561Y-64789000D01*
X160058439Y-64789000D01*
X160258398Y-64749226D01*
X160297372Y-64733083D01*
X160439726Y-64875437D01*
X160609244Y-64988705D01*
X160797602Y-65066726D01*
X160997561Y-65106500D01*
X161201439Y-65106500D01*
X161401398Y-65066726D01*
X161589756Y-64988705D01*
X161759274Y-64875437D01*
X161903437Y-64731274D01*
X162016705Y-64561756D01*
X162094726Y-64373398D01*
X162134500Y-64173439D01*
X162134500Y-63969561D01*
X162094726Y-63769602D01*
X162016705Y-63581244D01*
X161927076Y-63447104D01*
X161922418Y-63399811D01*
X161874672Y-63242413D01*
X161820824Y-63141671D01*
X163568856Y-63141671D01*
X163490854Y-63183364D01*
X163363709Y-63287709D01*
X163337563Y-63319568D01*
X162316074Y-64341059D01*
X162284210Y-64367209D01*
X162245995Y-64413774D01*
X162179864Y-64494355D01*
X162102328Y-64639414D01*
X162054582Y-64796812D01*
X162038460Y-64960500D01*
X162042501Y-65001528D01*
X162042500Y-68996132D01*
X157513726Y-73524907D01*
X157368602Y-73553774D01*
X157180244Y-73631795D01*
X157010726Y-73745063D01*
X156866563Y-73889226D01*
X156753295Y-74058744D01*
X156675274Y-74247102D01*
X156635500Y-74447061D01*
X156635500Y-74650939D01*
X156675274Y-74850898D01*
X156753295Y-75039256D01*
X156866563Y-75208774D01*
X157010726Y-75352937D01*
X157180244Y-75466205D01*
X157368602Y-75544226D01*
X157568561Y-75584000D01*
X157772439Y-75584000D01*
X157972398Y-75544226D01*
X158160756Y-75466205D01*
X158330274Y-75352937D01*
X158474437Y-75208774D01*
X158587705Y-75039256D01*
X158665726Y-74850898D01*
X158694593Y-74705774D01*
X163438928Y-69961440D01*
X163470791Y-69935291D01*
X163575136Y-69808146D01*
X163652672Y-69663087D01*
X163700418Y-69505689D01*
X163700978Y-69500000D01*
X163716540Y-69342001D01*
X163712500Y-69300982D01*
X163712500Y-65306367D01*
X164035730Y-64983138D01*
X164000722Y-65159138D01*
X164000722Y-65363016D01*
X164040496Y-65562975D01*
X164118517Y-65751333D01*
X164231785Y-65920851D01*
X164375948Y-66065014D01*
X164545466Y-66178282D01*
X164733824Y-66256303D01*
X164878947Y-66285170D01*
X169789501Y-71195725D01*
X169789500Y-76568289D01*
X169696774Y-76475563D01*
X169527256Y-76362295D01*
X169338898Y-76284274D01*
X169138939Y-76244500D01*
X168935061Y-76244500D01*
X168735102Y-76284274D01*
X168546744Y-76362295D01*
X168423715Y-76444500D01*
X152364869Y-76444500D01*
X146185093Y-70264725D01*
X146156226Y-70119602D01*
X146078205Y-69931244D01*
X145964937Y-69761726D01*
X145820774Y-69617563D01*
X145651256Y-69504295D01*
X145462898Y-69426274D01*
X145262939Y-69386500D01*
X145129033Y-69386500D01*
X145129033Y-65087051D01*
X145133073Y-65046033D01*
X145116951Y-64882345D01*
X145088636Y-64789000D01*
X145069205Y-64724946D01*
X144991669Y-64579887D01*
X144957003Y-64537646D01*
X144913472Y-64484603D01*
X144913470Y-64484601D01*
X144887324Y-64452742D01*
X144855465Y-64426596D01*
X139708093Y-59279226D01*
X139679226Y-59134102D01*
X139601205Y-58945744D01*
X139487937Y-58776226D01*
X139343774Y-58632063D01*
X139174256Y-58518795D01*
X138985898Y-58440774D01*
X138785939Y-58401000D01*
X138582061Y-58401000D01*
X138382102Y-58440774D01*
X138193744Y-58518795D01*
X138024226Y-58632063D01*
X137880063Y-58776226D01*
X137766795Y-58945744D01*
X137688774Y-59134102D01*
X137649000Y-59334061D01*
X137649000Y-59537939D01*
X137688774Y-59737898D01*
X137766795Y-59926256D01*
X137880063Y-60095774D01*
X137923717Y-60139428D01*
X137830295Y-60279244D01*
X137752274Y-60467602D01*
X137712500Y-60667561D01*
X137712500Y-60871439D01*
X137752274Y-61071398D01*
X137830295Y-61259756D01*
X137943563Y-61429274D01*
X138087726Y-61573437D01*
X138257244Y-61686705D01*
X138445602Y-61764726D01*
X138590726Y-61793593D01*
X139219978Y-62422846D01*
X139174256Y-62392295D01*
X138985898Y-62314274D01*
X138785939Y-62274500D01*
X138582061Y-62274500D01*
X138382102Y-62314274D01*
X138193744Y-62392295D01*
X138024226Y-62505563D01*
X137880063Y-62649726D01*
X137766795Y-62819244D01*
X137688774Y-63007602D01*
X137649000Y-63207561D01*
X137649000Y-63411439D01*
X137688774Y-63611398D01*
X137766795Y-63799756D01*
X137880063Y-63969274D01*
X138024226Y-64113437D01*
X138193744Y-64226705D01*
X138382102Y-64304726D01*
X138527226Y-64333593D01*
X142259011Y-68065379D01*
X142259012Y-83413719D01*
X140597235Y-85075496D01*
X140452112Y-85104363D01*
X140263754Y-85182384D01*
X140094236Y-85295652D01*
X139950073Y-85439815D01*
X139907363Y-85503735D01*
X139900000Y-85492715D01*
X139900000Y-68049507D01*
X139904039Y-68008499D01*
X139900000Y-67967491D01*
X139900000Y-67967481D01*
X139887918Y-67844811D01*
X139840172Y-67687413D01*
X139762636Y-67542354D01*
X139658291Y-67415209D01*
X139626428Y-67389060D01*
X139136593Y-66899225D01*
X139107726Y-66754102D01*
X139029705Y-66565744D01*
X138916437Y-66396226D01*
X138772274Y-66252063D01*
X138602756Y-66138795D01*
X138414398Y-66060774D01*
X138214439Y-66021000D01*
X138010561Y-66021000D01*
X137810602Y-66060774D01*
X137622244Y-66138795D01*
X137452726Y-66252063D01*
X137308563Y-66396226D01*
X137195295Y-66565744D01*
X137117274Y-66754102D01*
X137077500Y-66954061D01*
X137077500Y-67157939D01*
X137117274Y-67357898D01*
X137195295Y-67546256D01*
X137285512Y-67681276D01*
X137246536Y-67707319D01*
X137112819Y-67841036D01*
X137007759Y-67998269D01*
X136935392Y-68172978D01*
X136898500Y-68358448D01*
X136898500Y-68547552D01*
X136935392Y-68733022D01*
X137007759Y-68907731D01*
X137112819Y-69064964D01*
X137150501Y-69102646D01*
X137150500Y-85523034D01*
X137039415Y-85387677D01*
X136445500Y-84793762D01*
X136445500Y-57006178D01*
X136421843Y-56765984D01*
X136328352Y-56457785D01*
X136176531Y-56173748D01*
X135972214Y-55924786D01*
X135723252Y-55720469D01*
X135439215Y-55568648D01*
X135131016Y-55475157D01*
X134810500Y-55443589D01*
X134489985Y-55475157D01*
X134181786Y-55568648D01*
X133897749Y-55720469D01*
X133648787Y-55924786D01*
X133444470Y-56173748D01*
X133292649Y-56457785D01*
X133199158Y-56765984D01*
X133175501Y-57006178D01*
X133175500Y-66882321D01*
X133175501Y-66882331D01*
X133175500Y-85390681D01*
X133167589Y-85471000D01*
X109743701Y-85471000D01*
X109695432Y-85228342D01*
X109583490Y-84958089D01*
X109420975Y-84714868D01*
X109214132Y-84508025D01*
X109039740Y-84391500D01*
X109214132Y-84274975D01*
X109420975Y-84068132D01*
X109583490Y-83824911D01*
X109695432Y-83554658D01*
X109752500Y-83267760D01*
X109752500Y-82975240D01*
X109695432Y-82688342D01*
X109583490Y-82418089D01*
X109420975Y-82174868D01*
X109214132Y-81968025D01*
X109039740Y-81851500D01*
X109214132Y-81734975D01*
X109420975Y-81528132D01*
X109583490Y-81284911D01*
X109695432Y-81014658D01*
X109752500Y-80727760D01*
X109752500Y-80435240D01*
X109695432Y-80148342D01*
X109583490Y-79878089D01*
X109420975Y-79634868D01*
X109214132Y-79428025D01*
X109039740Y-79311500D01*
X109214132Y-79194975D01*
X109420975Y-78988132D01*
X109583490Y-78744911D01*
X109695432Y-78474658D01*
X109752500Y-78187760D01*
X109752500Y-77895240D01*
X109695432Y-77608342D01*
X109583490Y-77338089D01*
X109420975Y-77094868D01*
X109214132Y-76888025D01*
X109039740Y-76771500D01*
X109214132Y-76654975D01*
X109420975Y-76448132D01*
X109583490Y-76204911D01*
X109695432Y-75934658D01*
X109752500Y-75647760D01*
X109752500Y-75355240D01*
X109695432Y-75068342D01*
X109583490Y-74798089D01*
X109420975Y-74554868D01*
X109214132Y-74348025D01*
X108970911Y-74185510D01*
X108700658Y-74073568D01*
X108413760Y-74016500D01*
X108121240Y-74016500D01*
X107834342Y-74073568D01*
X107564089Y-74185510D01*
X107320868Y-74348025D01*
X107189013Y-74479880D01*
X107167002Y-74407320D01*
X107108037Y-74297006D01*
X107028685Y-74200315D01*
X106931994Y-74120963D01*
X106821680Y-74061998D01*
X106701982Y-74025688D01*
X106577500Y-74013428D01*
X106013250Y-74016500D01*
X105854500Y-74175250D01*
X105854500Y-75374500D01*
X105874500Y-75374500D01*
X105874500Y-75628500D01*
X105854500Y-75628500D01*
X105854500Y-77914500D01*
X105874500Y-77914500D01*
X105874500Y-78168500D01*
X105854500Y-78168500D01*
X105854500Y-80454500D01*
X105874500Y-80454500D01*
X105874500Y-80708500D01*
X105854500Y-80708500D01*
X105854500Y-82994500D01*
X105874500Y-82994500D01*
X105874500Y-83248500D01*
X105854500Y-83248500D01*
X105854500Y-83268500D01*
X105600500Y-83268500D01*
X105600500Y-83248500D01*
X104407345Y-83248500D01*
X104286024Y-83478390D01*
X104330675Y-83625599D01*
X104455859Y-83888420D01*
X104629912Y-84121769D01*
X104846145Y-84316678D01*
X104963034Y-84386305D01*
X104780868Y-84508025D01*
X104574025Y-84714868D01*
X104411510Y-84958089D01*
X104299568Y-85228342D01*
X104242500Y-85515240D01*
X104242500Y-85541368D01*
X103414364Y-86369505D01*
X103371050Y-86405052D01*
X103229215Y-86577878D01*
X103144691Y-86736013D01*
X103144024Y-80938390D01*
X104286024Y-80938390D01*
X104330675Y-81085599D01*
X104455859Y-81348420D01*
X104629912Y-81581769D01*
X104846145Y-81776678D01*
X104971755Y-81851500D01*
X104846145Y-81926322D01*
X104629912Y-82121231D01*
X104455859Y-82354580D01*
X104330675Y-82617401D01*
X104286024Y-82764610D01*
X104407345Y-82994500D01*
X105600500Y-82994500D01*
X105600500Y-80708500D01*
X104407345Y-80708500D01*
X104286024Y-80938390D01*
X103144024Y-80938390D01*
X103143732Y-78398390D01*
X104286024Y-78398390D01*
X104330675Y-78545599D01*
X104455859Y-78808420D01*
X104629912Y-79041769D01*
X104846145Y-79236678D01*
X104971755Y-79311500D01*
X104846145Y-79386322D01*
X104629912Y-79581231D01*
X104455859Y-79814580D01*
X104330675Y-80077401D01*
X104286024Y-80224610D01*
X104407345Y-80454500D01*
X105600500Y-80454500D01*
X105600500Y-78168500D01*
X104407345Y-78168500D01*
X104286024Y-78398390D01*
X103143732Y-78398390D01*
X103143496Y-76351500D01*
X104239428Y-76351500D01*
X104251688Y-76475982D01*
X104287998Y-76595680D01*
X104346963Y-76705994D01*
X104426315Y-76802685D01*
X104523006Y-76882037D01*
X104633320Y-76941002D01*
X104713966Y-76965466D01*
X104629912Y-77041231D01*
X104455859Y-77274580D01*
X104330675Y-77537401D01*
X104286024Y-77684610D01*
X104407345Y-77914500D01*
X105600500Y-77914500D01*
X105600500Y-75628500D01*
X104401250Y-75628500D01*
X104242500Y-75787250D01*
X104239428Y-76351500D01*
X103143496Y-76351500D01*
X103143301Y-74651500D01*
X104239428Y-74651500D01*
X104242500Y-75215750D01*
X104401250Y-75374500D01*
X105600500Y-75374500D01*
X105600500Y-74175250D01*
X105441750Y-74016500D01*
X104877500Y-74013428D01*
X104753018Y-74025688D01*
X104633320Y-74061998D01*
X104523006Y-74120963D01*
X104426315Y-74200315D01*
X104346963Y-74297006D01*
X104287998Y-74407320D01*
X104251688Y-74527018D01*
X104239428Y-74651500D01*
X103143301Y-74651500D01*
X103141323Y-57490670D01*
X103637840Y-57490670D01*
X103637840Y-57952330D01*
X103727906Y-58405120D01*
X103904575Y-58831639D01*
X104161060Y-59215496D01*
X104487504Y-59541940D01*
X104871361Y-59798425D01*
X105297880Y-59975094D01*
X105750670Y-60065160D01*
X106212330Y-60065160D01*
X106665120Y-59975094D01*
X107091639Y-59798425D01*
X107475496Y-59541940D01*
X107801940Y-59215496D01*
X108058425Y-58831639D01*
X108235094Y-58405120D01*
X108325160Y-57952330D01*
X108325160Y-57490670D01*
X108235094Y-57037880D01*
X108058425Y-56611361D01*
X107801940Y-56227504D01*
X107475496Y-55901060D01*
X107091639Y-55644575D01*
X106665120Y-55467906D01*
X106212330Y-55377840D01*
X105750670Y-55377840D01*
X105297880Y-55467906D01*
X104871361Y-55644575D01*
X104487504Y-55901060D01*
X104161060Y-56227504D01*
X103904575Y-56611361D01*
X103727906Y-57037880D01*
X103637840Y-57490670D01*
X103141323Y-57490670D01*
X103141299Y-57290645D01*
X103189880Y-56795186D01*
X103324407Y-56349611D01*
X103542915Y-55938656D01*
X103837087Y-55577965D01*
X104195713Y-55281285D01*
X104605134Y-55059911D01*
X105049760Y-54922275D01*
X105543279Y-54870405D01*
X193134642Y-54888992D01*
G37*
G04 #@! TD.AperFunction*
D28*
X105854500Y-93154500D02*
X105874500Y-93154500D01*
X105874500Y-93408500D01*
X105854500Y-93408500D01*
X105854500Y-95694500D01*
X105874500Y-95694500D01*
X105874500Y-95948500D01*
X105854500Y-95948500D01*
X105854500Y-98234500D01*
X105874500Y-98234500D01*
X105874500Y-98488500D01*
X105854500Y-98488500D01*
X105854500Y-98508500D01*
X105600500Y-98508500D01*
X105600500Y-98488500D01*
X105580500Y-98488500D01*
X105580500Y-98234500D01*
X105600500Y-98234500D01*
X105600500Y-95948500D01*
X105580500Y-95948500D01*
X105580500Y-95694500D01*
X105600500Y-95694500D01*
X105600500Y-93408500D01*
X105580500Y-93408500D01*
X105580500Y-93154500D01*
X105600500Y-93154500D01*
X105600500Y-93134500D01*
X105854500Y-93134500D01*
X105854500Y-93154500D01*
G04 #@! TA.AperFunction,Conductor*
D29*
G36*
X105854500Y-93154500D02*
G01*
X105874500Y-93154500D01*
X105874500Y-93408500D01*
X105854500Y-93408500D01*
X105854500Y-95694500D01*
X105874500Y-95694500D01*
X105874500Y-95948500D01*
X105854500Y-95948500D01*
X105854500Y-98234500D01*
X105874500Y-98234500D01*
X105874500Y-98488500D01*
X105854500Y-98488500D01*
X105854500Y-98508500D01*
X105600500Y-98508500D01*
X105600500Y-98488500D01*
X105580500Y-98488500D01*
X105580500Y-98234500D01*
X105600500Y-98234500D01*
X105600500Y-95948500D01*
X105580500Y-95948500D01*
X105580500Y-95694500D01*
X105600500Y-95694500D01*
X105600500Y-93408500D01*
X105580500Y-93408500D01*
X105580500Y-93154500D01*
X105600500Y-93154500D01*
X105600500Y-93134500D01*
X105854500Y-93134500D01*
X105854500Y-93154500D01*
G37*
G04 #@! TD.AperFunction*
D28*
X105854500Y-88074500D02*
X105874500Y-88074500D01*
X105874500Y-88328500D01*
X105854500Y-88328500D01*
X105854500Y-88348500D01*
X105600500Y-88348500D01*
X105600500Y-88328500D01*
X105580500Y-88328500D01*
X105580500Y-88074500D01*
X105600500Y-88074500D01*
X105600500Y-88054500D01*
X105854500Y-88054500D01*
X105854500Y-88074500D01*
G04 #@! TA.AperFunction,Conductor*
D29*
G36*
X105854500Y-88074500D02*
G01*
X105874500Y-88074500D01*
X105874500Y-88328500D01*
X105854500Y-88328500D01*
X105854500Y-88348500D01*
X105600500Y-88348500D01*
X105600500Y-88328500D01*
X105580500Y-88328500D01*
X105580500Y-88074500D01*
X105600500Y-88074500D01*
X105600500Y-88054500D01*
X105854500Y-88054500D01*
X105854500Y-88074500D01*
G37*
G04 #@! TD.AperFunction*
M02*
