%MOIN*%
%OFA0B0*%
%FSLAX46Y46*%
%IPPOS*%
%LPD*%
%ADD10C,0.0047244094488188976*%
%ADD11C,0.0047244094488188976*%
%ADD12C,0.011811023622047244*%
%ADD13C,0.0047244094488188976*%
G01*
G04 next file*
G04 #@! TF.GenerationSoftware,KiCad,Pcbnew,(5.1.12)-1*
G04 #@! TF.CreationDate,2022-03-26T22:12:51+08:00*
G04 #@! TF.ProjectId,Nozzle,4e6f7a7a-6c65-42e6-9b69-6361645f7063,0.5*
G04 #@! TF.SameCoordinates,Original*
G04 #@! TF.FileFunction,Legend,Bot*
G04 #@! TF.FilePolarity,Positive*
G04 Gerber Fmt 4.6, Leading zero omitted, Abs format (unit mm)*
G04 Created by KiCad (PCBNEW (5.1.12)-1) date 2022-03-26 22:12:51*
G01*
G04 APERTURE LIST*
G04 APERTURE END LIST*
G04 next file*
G04 #@! TF.GenerationSoftware,KiCad,Pcbnew,(5.1.12)-1*
G04 #@! TF.CreationDate,2022-03-26T22:12:51+08:00*
G04 #@! TF.ProjectId,Nozzle,4e6f7a7a-6c65-42e6-9b69-6361645f7063,0.5*
G04 #@! TF.SameCoordinates,Original*
G04 #@! TF.FileFunction,Legend,Bot*
G04 #@! TF.FilePolarity,Positive*
G04 Gerber Fmt 4.6, Leading zero omitted, Abs format (unit mm)*
G04 Created by KiCad (PCBNEW (5.1.12)-1) date 2022-03-26 22:12:51*
G01*
G04 APERTURE LIST*
G04 APERTURE END LIST*
G04 next file*
G04 #@! TF.GenerationSoftware,KiCad,Pcbnew,(5.1.12)-1*
G04 #@! TF.CreationDate,2022-03-26T22:19:29+08:00*
G04 #@! TF.ProjectId,Nozzle,4e6f7a7a-6c65-42e6-9b69-6361645f7063,0.5*
G04 #@! TF.SameCoordinates,Original*
G04 #@! TF.FileFunction,Legend,Bot*
G04 #@! TF.FilePolarity,Positive*
G04 Gerber Fmt 4.6, Leading zero omitted, Abs format (unit mm)*
G04 Created by KiCad (PCBNEW (5.1.12)-1) date 2022-03-26 22:19:29*
G01*
G04 APERTURE LIST*
G04 APERTURE END LIST*
D10*
X0000599837Y0003456437D02*
X0000598524Y0003455124D01*
X0000599837Y0003453812D01*
X0000601149Y0003455124D01*
X0000599837Y0003456437D01*
X0000599837Y0003453812D01*
X0000588026Y0003478746D02*
X0000586713Y0003480059D01*
X0000584089Y0003481371D01*
X0000577527Y0003481371D01*
X0000574902Y0003480059D01*
X0000573590Y0003478746D01*
X0000572278Y0003476122D01*
X0000572278Y0003473497D01*
X0000573590Y0003469560D01*
X0000589338Y0003453812D01*
X0000572278Y0003453812D01*
X0000547343Y0003481371D02*
X0000560467Y0003481371D01*
X0000561779Y0003468248D01*
X0000560467Y0003469560D01*
X0000557842Y0003470872D01*
X0000551280Y0003470872D01*
X0000548656Y0003469560D01*
X0000547343Y0003468248D01*
X0000546031Y0003465623D01*
X0000546031Y0003459061D01*
X0000547343Y0003456437D01*
X0000548656Y0003455124D01*
X0000551280Y0003453812D01*
X0000557842Y0003453812D01*
X0000560467Y0003455124D01*
X0000561779Y0003456437D01*
X0000726713Y0003452937D02*
X0000725401Y0003451624D01*
X0000726713Y0003450312D01*
X0000728026Y0003451624D01*
X0000726713Y0003452937D01*
X0000726713Y0003450312D01*
X0000716215Y0003477871D02*
X0000699154Y0003477871D01*
X0000708341Y0003467372D01*
X0000704404Y0003467372D01*
X0000701779Y0003466060D01*
X0000700467Y0003464748D01*
X0000699154Y0003462123D01*
X0000699154Y0003455561D01*
X0000700467Y0003452937D01*
X0000701779Y0003451624D01*
X0000704404Y0003450312D01*
X0000712278Y0003450312D01*
X0000714902Y0003451624D01*
X0000716215Y0003452937D01*
X0000787213Y0003452937D02*
X0000785901Y0003451624D01*
X0000787213Y0003450312D01*
X0000788526Y0003451624D01*
X0000787213Y0003452937D01*
X0000787213Y0003450312D01*
X0000762279Y0003468685D02*
X0000762279Y0003450312D01*
X0000768841Y0003479183D02*
X0000775402Y0003459498D01*
X0000758342Y0003459498D01*
X0000924713Y0003457437D02*
X0000923401Y0003456124D01*
X0000924713Y0003454812D01*
X0000926026Y0003456124D01*
X0000924713Y0003457437D01*
X0000924713Y0003454812D01*
X0000898467Y0003482371D02*
X0000911590Y0003482371D01*
X0000912902Y0003469248D01*
X0000911590Y0003470560D01*
X0000908965Y0003471872D01*
X0000902404Y0003471872D01*
X0000899779Y0003470560D01*
X0000898467Y0003469248D01*
X0000897154Y0003466623D01*
X0000897154Y0003460061D01*
X0000898467Y0003457437D01*
X0000899779Y0003456124D01*
X0000902404Y0003454812D01*
X0000908965Y0003454812D01*
X0000911590Y0003456124D01*
X0000912902Y0003457437D01*
X0001089460Y0003367437D02*
X0001088148Y0003366124D01*
X0001089460Y0003364812D01*
X0001090772Y0003366124D01*
X0001089460Y0003367437D01*
X0001089460Y0003364812D01*
X0001064526Y0003392371D02*
X0001069775Y0003392371D01*
X0001072400Y0003391059D01*
X0001073712Y0003389746D01*
X0001076337Y0003385809D01*
X0001077649Y0003380560D01*
X0001077649Y0003370061D01*
X0001076337Y0003367437D01*
X0001075024Y0003366124D01*
X0001072400Y0003364812D01*
X0001067150Y0003364812D01*
X0001064526Y0003366124D01*
X0001063213Y0003367437D01*
X0001061901Y0003370061D01*
X0001061901Y0003376623D01*
X0001063213Y0003379248D01*
X0001064526Y0003380560D01*
X0001067150Y0003381872D01*
X0001072400Y0003381872D01*
X0001075024Y0003380560D01*
X0001076337Y0003379248D01*
X0001077649Y0003376623D01*
X0001052715Y0003392371D02*
X0001035654Y0003392371D01*
X0001044841Y0003381872D01*
X0001040904Y0003381872D01*
X0001038279Y0003380560D01*
X0001036967Y0003379248D01*
X0001035654Y0003376623D01*
X0001035654Y0003370061D01*
X0001036967Y0003367437D01*
X0001038279Y0003366124D01*
X0001040904Y0003364812D01*
X0001048778Y0003364812D01*
X0001051402Y0003366124D01*
X0001052715Y0003367437D01*
X0001010720Y0003392371D02*
X0001023843Y0003392371D01*
X0001025156Y0003379248D01*
X0001023843Y0003380560D01*
X0001021219Y0003381872D01*
X0001014657Y0003381872D01*
X0001012032Y0003380560D01*
X0001010720Y0003379248D01*
X0001009408Y0003376623D01*
X0001009408Y0003370061D01*
X0001010720Y0003367437D01*
X0001012032Y0003366124D01*
X0001014657Y0003364812D01*
X0001021219Y0003364812D01*
X0001023843Y0003366124D01*
X0001025156Y0003367437D01*
X0000486960Y0003363937D02*
X0000485648Y0003362624D01*
X0000486960Y0003361312D01*
X0000488272Y0003362624D01*
X0000486960Y0003363937D01*
X0000486960Y0003361312D01*
X0000462026Y0003388871D02*
X0000467275Y0003388871D01*
X0000469900Y0003387559D01*
X0000471212Y0003386246D01*
X0000473837Y0003382309D01*
X0000475149Y0003377060D01*
X0000475149Y0003366561D01*
X0000473837Y0003363937D01*
X0000472524Y0003362624D01*
X0000469900Y0003361312D01*
X0000464650Y0003361312D01*
X0000462026Y0003362624D01*
X0000460713Y0003363937D01*
X0000459401Y0003366561D01*
X0000459401Y0003373123D01*
X0000460713Y0003375748D01*
X0000462026Y0003377060D01*
X0000464650Y0003378372D01*
X0000469900Y0003378372D01*
X0000472524Y0003377060D01*
X0000473837Y0003375748D01*
X0000475149Y0003373123D01*
X0000450215Y0003388871D02*
X0000433154Y0003388871D01*
X0000442341Y0003378372D01*
X0000438404Y0003378372D01*
X0000435779Y0003377060D01*
X0000434467Y0003375748D01*
X0000433154Y0003373123D01*
X0000433154Y0003366561D01*
X0000434467Y0003363937D01*
X0000435779Y0003362624D01*
X0000438404Y0003361312D01*
X0000446278Y0003361312D01*
X0000448902Y0003362624D01*
X0000450215Y0003363937D01*
X0000408220Y0003388871D02*
X0000421343Y0003388871D01*
X0000422656Y0003375748D01*
X0000421343Y0003377060D01*
X0000418719Y0003378372D01*
X0000412157Y0003378372D01*
X0000409532Y0003377060D01*
X0000408220Y0003375748D01*
X0000406908Y0003373123D01*
X0000406908Y0003366561D01*
X0000408220Y0003363937D01*
X0000409532Y0003362624D01*
X0000412157Y0003361312D01*
X0000418719Y0003361312D01*
X0000421343Y0003362624D01*
X0000422656Y0003363937D01*
G04 next file*
G04 #@! TF.GenerationSoftware,KiCad,Pcbnew,(5.1.12)-1*
G04 #@! TF.CreationDate,2022-03-26T22:19:29+08:00*
G04 #@! TF.ProjectId,Nozzle,4e6f7a7a-6c65-42e6-9b69-6361645f7063,0.5*
G04 #@! TF.SameCoordinates,Original*
G04 #@! TF.FileFunction,Legend,Bot*
G04 #@! TF.FilePolarity,Positive*
G04 Gerber Fmt 4.6, Leading zero omitted, Abs format (unit mm)*
G04 Created by KiCad (PCBNEW (5.1.12)-1) date 2022-03-26 22:19:29*
G01*
G04 APERTURE LIST*
G04 APERTURE END LIST*
D11*
X0001819153Y0002528971D02*
X0001820465Y0002527658D01*
X0001821778Y0002528971D01*
X0001820465Y0002530283D01*
X0001819153Y0002528971D01*
X0001821778Y0002528971D01*
X0001796843Y0002517160D02*
X0001795531Y0002515847D01*
X0001794219Y0002513223D01*
X0001794219Y0002506661D01*
X0001795531Y0002504036D01*
X0001796843Y0002502724D01*
X0001799468Y0002501412D01*
X0001802093Y0002501412D01*
X0001806030Y0002502724D01*
X0001821778Y0002518472D01*
X0001821778Y0002501412D01*
X0001794219Y0002476477D02*
X0001794219Y0002489600D01*
X0001807342Y0002490913D01*
X0001806030Y0002489600D01*
X0001804717Y0002486976D01*
X0001804717Y0002480414D01*
X0001806030Y0002477790D01*
X0001807342Y0002476477D01*
X0001809967Y0002475165D01*
X0001816528Y0002475165D01*
X0001819153Y0002476477D01*
X0001820465Y0002477790D01*
X0001821778Y0002480414D01*
X0001821778Y0002486976D01*
X0001820465Y0002489600D01*
X0001819153Y0002490913D01*
X0001822653Y0002655847D02*
X0001823965Y0002654535D01*
X0001825278Y0002655847D01*
X0001823965Y0002657160D01*
X0001822653Y0002655847D01*
X0001825278Y0002655847D01*
X0001797719Y0002645349D02*
X0001797719Y0002628288D01*
X0001808217Y0002637475D01*
X0001808217Y0002633537D01*
X0001809530Y0002630913D01*
X0001810842Y0002629601D01*
X0001813467Y0002628288D01*
X0001820028Y0002628288D01*
X0001822653Y0002629601D01*
X0001823965Y0002630913D01*
X0001825278Y0002633537D01*
X0001825278Y0002641412D01*
X0001823965Y0002644036D01*
X0001822653Y0002645349D01*
X0001822653Y0002716347D02*
X0001823965Y0002715035D01*
X0001825278Y0002716347D01*
X0001823965Y0002717660D01*
X0001822653Y0002716347D01*
X0001825278Y0002716347D01*
X0001806905Y0002691413D02*
X0001825278Y0002691413D01*
X0001796406Y0002697975D02*
X0001816091Y0002704536D01*
X0001816091Y0002687476D01*
X0001818153Y0002853847D02*
X0001819465Y0002852535D01*
X0001820778Y0002853847D01*
X0001819465Y0002855160D01*
X0001818153Y0002853847D01*
X0001820778Y0002853847D01*
X0001793219Y0002827601D02*
X0001793219Y0002840724D01*
X0001806342Y0002842036D01*
X0001805030Y0002840724D01*
X0001803717Y0002838099D01*
X0001803717Y0002831538D01*
X0001805030Y0002828913D01*
X0001806342Y0002827601D01*
X0001808967Y0002826288D01*
X0001815528Y0002826288D01*
X0001818153Y0002827601D01*
X0001819465Y0002828913D01*
X0001820778Y0002831538D01*
X0001820778Y0002838099D01*
X0001819465Y0002840724D01*
X0001818153Y0002842036D01*
X0001908153Y0003018594D02*
X0001909465Y0003017282D01*
X0001910778Y0003018594D01*
X0001909465Y0003019906D01*
X0001908153Y0003018594D01*
X0001910778Y0003018594D01*
X0001883219Y0002993660D02*
X0001883219Y0002998909D01*
X0001884531Y0003001534D01*
X0001885843Y0003002846D01*
X0001889780Y0003005471D01*
X0001895030Y0003006783D01*
X0001905528Y0003006783D01*
X0001908153Y0003005471D01*
X0001909465Y0003004158D01*
X0001910778Y0003001534D01*
X0001910778Y0002996284D01*
X0001909465Y0002993660D01*
X0001908153Y0002992347D01*
X0001905528Y0002991035D01*
X0001898967Y0002991035D01*
X0001896342Y0002992347D01*
X0001895030Y0002993660D01*
X0001893717Y0002996284D01*
X0001893717Y0003001534D01*
X0001895030Y0003004158D01*
X0001896342Y0003005471D01*
X0001898967Y0003006783D01*
X0001883219Y0002981849D02*
X0001883219Y0002964788D01*
X0001893717Y0002973975D01*
X0001893717Y0002970038D01*
X0001895030Y0002967413D01*
X0001896342Y0002966101D01*
X0001898967Y0002964788D01*
X0001905528Y0002964788D01*
X0001908153Y0002966101D01*
X0001909465Y0002967413D01*
X0001910778Y0002970038D01*
X0001910778Y0002977912D01*
X0001909465Y0002980536D01*
X0001908153Y0002981849D01*
X0001883219Y0002939854D02*
X0001883219Y0002952977D01*
X0001896342Y0002954289D01*
X0001895030Y0002952977D01*
X0001893717Y0002950352D01*
X0001893717Y0002943791D01*
X0001895030Y0002941166D01*
X0001896342Y0002939854D01*
X0001898967Y0002938541D01*
X0001905528Y0002938541D01*
X0001908153Y0002939854D01*
X0001909465Y0002941166D01*
X0001910778Y0002943791D01*
X0001910778Y0002950352D01*
X0001909465Y0002952977D01*
X0001908153Y0002954289D01*
X0001911653Y0002416094D02*
X0001912965Y0002414782D01*
X0001914278Y0002416094D01*
X0001912965Y0002417406D01*
X0001911653Y0002416094D01*
X0001914278Y0002416094D01*
X0001886719Y0002391160D02*
X0001886719Y0002396409D01*
X0001888031Y0002399034D01*
X0001889343Y0002400346D01*
X0001893280Y0002402971D01*
X0001898530Y0002404283D01*
X0001909028Y0002404283D01*
X0001911653Y0002402971D01*
X0001912965Y0002401658D01*
X0001914278Y0002399034D01*
X0001914278Y0002393784D01*
X0001912965Y0002391160D01*
X0001911653Y0002389847D01*
X0001909028Y0002388535D01*
X0001902467Y0002388535D01*
X0001899842Y0002389847D01*
X0001898530Y0002391160D01*
X0001897217Y0002393784D01*
X0001897217Y0002399034D01*
X0001898530Y0002401658D01*
X0001899842Y0002402971D01*
X0001902467Y0002404283D01*
X0001886719Y0002379349D02*
X0001886719Y0002362288D01*
X0001897217Y0002371475D01*
X0001897217Y0002367538D01*
X0001898530Y0002364913D01*
X0001899842Y0002363601D01*
X0001902467Y0002362288D01*
X0001909028Y0002362288D01*
X0001911653Y0002363601D01*
X0001912965Y0002364913D01*
X0001914278Y0002367538D01*
X0001914278Y0002375412D01*
X0001912965Y0002378036D01*
X0001911653Y0002379349D01*
X0001886719Y0002337354D02*
X0001886719Y0002350477D01*
X0001899842Y0002351790D01*
X0001898530Y0002350477D01*
X0001897217Y0002347852D01*
X0001897217Y0002341291D01*
X0001898530Y0002338666D01*
X0001899842Y0002337354D01*
X0001902467Y0002336041D01*
X0001909028Y0002336041D01*
X0001911653Y0002337354D01*
X0001912965Y0002338666D01*
X0001914278Y0002341291D01*
X0001914278Y0002347852D01*
X0001912965Y0002350477D01*
X0001911653Y0002351790D01*
G04 next file*
G04 #@! TF.GenerationSoftware,KiCad,Pcbnew,(5.1.12)-1*
G04 #@! TF.CreationDate,2022-03-26T22:12:19+08:00*
G04 #@! TF.ProjectId,Nozzle,4e6f7a7a-6c65-42e6-9b69-6361645f7063,0.5*
G04 #@! TF.SameCoordinates,Original*
G04 #@! TF.FileFunction,Legend,Bot*
G04 #@! TF.FilePolarity,Positive*
G04 Gerber Fmt 4.6, Leading zero omitted, Abs format (unit mm)*
G04 Created by KiCad (PCBNEW (5.1.12)-1) date 2022-03-26 22:12:19*
G01*
G04 APERTURE LIST*
G04 APERTURE END LIST*
G04 next file*
G04 #@! TF.GenerationSoftware,KiCad,Pcbnew,(5.1.12)-1*
G04 #@! TF.CreationDate,2022-03-26T22:12:19+08:00*
G04 #@! TF.ProjectId,Nozzle,4e6f7a7a-6c65-42e6-9b69-6361645f7063,0.5*
G04 #@! TF.SameCoordinates,Original*
G04 #@! TF.FileFunction,Legend,Bot*
G04 #@! TF.FilePolarity,Positive*
G04 Gerber Fmt 4.6, Leading zero omitted, Abs format (unit mm)*
G04 Created by KiCad (PCBNEW (5.1.12)-1) date 2022-03-26 22:12:19*
G01*
G04 APERTURE LIST*
G04 APERTURE END LIST*
G04 next file*
G04 #@! TF.GenerationSoftware,KiCad,Pcbnew,(5.1.12)-1*
G04 #@! TF.CreationDate,2022-03-26T22:13:32+08:00*
G04 #@! TF.ProjectId,Nozzle,4e6f7a7a-6c65-42e6-9b69-6361645f7063,0.5*
G04 #@! TF.SameCoordinates,Original*
G04 #@! TF.FileFunction,Legend,Bot*
G04 #@! TF.FilePolarity,Positive*
G04 Gerber Fmt 4.6, Leading zero omitted, Abs format (unit mm)*
G04 Created by KiCad (PCBNEW (5.1.12)-1) date 2022-03-26 22:13:32*
G01*
G04 APERTURE LIST*
G04 APERTURE END LIST*
D12*
X0003110134Y0003177820D02*
X0003098886Y0003177820D01*
X0003093262Y0003175007D01*
X0003087637Y0003169383D01*
X0003084825Y0003158135D01*
X0003084825Y0003138449D01*
X0003087637Y0003127201D01*
X0003093262Y0003121577D01*
X0003098886Y0003118764D01*
X0003110134Y0003118764D01*
X0003115759Y0003121577D01*
X0003121383Y0003127201D01*
X0003124195Y0003138449D01*
X0003124195Y0003158135D01*
X0003121383Y0003169383D01*
X0003115759Y0003175007D01*
X0003110134Y0003177820D01*
X0003059516Y0003118764D02*
X0003059516Y0003177820D01*
X0003037019Y0003177820D01*
X0003031394Y0003175007D01*
X0003028582Y0003172195D01*
X0003025770Y0003166571D01*
X0003025770Y0003158135D01*
X0003028582Y0003152510D01*
X0003031394Y0003149698D01*
X0003037019Y0003146886D01*
X0003059516Y0003146886D01*
X0002983588Y0003177820D02*
X0002983588Y0003135637D01*
X0002986400Y0003127201D01*
X0002992024Y0003121577D01*
X0003000461Y0003118764D01*
X0003006085Y0003118764D01*
X0002955466Y0003124389D02*
X0002952654Y0003121577D01*
X0002955466Y0003118764D01*
X0002958278Y0003121577D01*
X0002955466Y0003124389D01*
X0002955466Y0003118764D01*
X0002955466Y0003155322D02*
X0002952654Y0003152510D01*
X0002955466Y0003149698D01*
X0002958278Y0003152510D01*
X0002955466Y0003155322D01*
X0002955466Y0003149698D01*
X0002890787Y0003177820D02*
X0002871102Y0003118764D01*
X0002851417Y0003177820D01*
X0002837356Y0003177820D02*
X0002800798Y0003177820D01*
X0002820483Y0003155322D01*
X0002812047Y0003155322D01*
X0002806422Y0003152510D01*
X0002803610Y0003149698D01*
X0002800798Y0003144074D01*
X0002800798Y0003130013D01*
X0002803610Y0003124389D01*
X0002806422Y0003121577D01*
X0002812047Y0003118764D01*
X0002828920Y0003118764D01*
X0002834544Y0003121577D01*
X0002837356Y0003124389D01*
X0002775489Y0003124389D02*
X0002772677Y0003121577D01*
X0002775489Y0003118764D01*
X0002778301Y0003121577D01*
X0002775489Y0003124389D01*
X0002775489Y0003118764D01*
X0002716434Y0003118764D02*
X0002750179Y0003118764D01*
X0002733307Y0003118764D02*
X0002733307Y0003177820D01*
X0002738931Y0003169383D01*
X0002744555Y0003163759D01*
X0002750179Y0003160947D01*
D13*
X0002472314Y0002659480D02*
X0002354314Y0002659480D01*
X0003365314Y0002659480D02*
X0003483314Y0002659480D01*
M02*