%MOIN*%
%OFA0B0*%
%FSLAX46Y46*%
%IPPOS*%
%LPD*%
%ADD10C,0.086614173228346469*%
%ADD21C,0.086614173228346469*%
%ADD22C,0.086614173228346469*%
%ADD23C,0.05*%
%ADD24C,0.01968503937007874*%
%ADD25C,0.015748031496062995*%
%ADD26C,0.011811023622047244*%
%ADD27C,0.00984251968503937*%
%ADD28C,0.033464566929133861*%
%ADD29C,0.05*%
%ADD30C,0.01968503937007874*%
%ADD31C,0.015748031496062995*%
%ADD32C,0.011811023622047244*%
%ADD33C,0.00984251968503937*%
%ADD34C,0.033464566929133861*%
%ADD35C,0.086614173228346469*%
%ADD36C,0.23622047244094491*%
%ADD37C,0.086614173228346469*%
%ADD38C,0.23622047244094491*%
%ADD39C,0.0039370078740157488*%
%ADD40C,0.086614173228346469*%
%ADD41O,0.066929133858267723X0.066929133858267723*%
%ADD42R,0.066929133858267723X0.066929133858267723*%
%ADD43R,0.015748031496062995X0.059055118110236227*%
%ADD44C,0.05*%
G01*
D10*
X-0002614519Y0004115220D02*
X0002154980Y0000275720D03*
X0002154980Y0000708720D03*
X0003060480Y0000149720D03*
X0003469980Y0000708720D03*
X0002564480Y0000149720D03*
X0003469480Y0000275720D03*
X0003059980Y0000834720D03*
X0002564980Y0000834720D03*
G04 next file*
G04 #@! TF.GenerationSoftware,KiCad,Pcbnew,(5.1.12)-1*
G04 #@! TF.CreationDate,2022-03-26T22:12:51+08:00*
G04 #@! TF.ProjectId,Nozzle,4e6f7a7a-6c65-42e6-9b69-6361645f7063,0.5*
G04 #@! TF.SameCoordinates,Original*
G04 #@! TF.FileFunction,Soldermask,Bot*
G04 #@! TF.FilePolarity,Negative*
G04 Gerber Fmt 4.6, Leading zero omitted, Abs format (unit mm)*
G04 Created by KiCad (PCBNEW (5.1.12)-1) date 2022-03-26 22:12:51*
G01*
G04 APERTURE LIST*
G04 APERTURE END LIST*
D21*
X-0004645669Y0006259842D02*
X0000123830Y0002420342D03*
X0000123830Y0002853342D03*
X0001029330Y0002294342D03*
X0001438830Y0002853342D03*
X0000533330Y0002294342D03*
X0001438330Y0002420342D03*
X0001028830Y0002979342D03*
X0000533830Y0002979342D03*
G04 next file*
G04 #@! TF.GenerationSoftware,KiCad,Pcbnew,(5.1.12)-1*
G04 #@! TF.CreationDate,2022-03-26T22:12:51+08:00*
G04 #@! TF.ProjectId,Nozzle,4e6f7a7a-6c65-42e6-9b69-6361645f7063,0.5*
G04 #@! TF.SameCoordinates,Original*
G04 #@! TF.FileFunction,Soldermask,Bot*
G04 #@! TF.FilePolarity,Negative*
G04 Gerber Fmt 4.6, Leading zero omitted, Abs format (unit mm)*
G04 Created by KiCad (PCBNEW (5.1.12)-1) date 2022-03-26 22:12:51*
G01*
G04 APERTURE LIST*
G04 APERTURE END LIST*
D22*
X-0002614519Y0005182150D02*
X0002154980Y0001342650D03*
X0002154980Y0001775650D03*
X0003060480Y0001216650D03*
X0003469980Y0001775650D03*
X0002564480Y0001216650D03*
X0003469480Y0001342650D03*
X0003059980Y0001901650D03*
X0002564980Y0001901650D03*
G04 next file*
G04 #@! TF.GenerationSoftware,KiCad,Pcbnew,(5.1.12)-1*
G04 #@! TF.CreationDate,2022-03-26T22:19:29+08:00*
G04 #@! TF.ProjectId,Nozzle,4e6f7a7a-6c65-42e6-9b69-6361645f7063,0.5*
G04 #@! TF.SameCoordinates,Original*
G04 #@! TF.FileFunction,Soldermask,Bot*
G04 #@! TF.FilePolarity,Negative*
G04 Gerber Fmt 4.6, Leading zero omitted, Abs format (unit mm)*
G04 Created by KiCad (PCBNEW (5.1.12)-1) date 2022-03-26 22:19:29*
G01*
G04 APERTURE LIST*
G04 APERTURE END LIST*
D23*
X-0004724409Y0004763779D02*
X0001135590Y0003322779D03*
X0000535590Y0003322279D03*
X0000735590Y0003322279D03*
X0000935590Y0003322779D03*
X0000335590Y0003322279D03*
X0000435590Y0003522279D03*
X0000635590Y0003522279D03*
X0001035590Y0003522279D03*
X0000835590Y0003522279D03*
D24*
X0000891590Y0003423779D03*
D25*
X0000791590Y0003422779D03*
D26*
X0000691590Y0003422279D03*
D27*
X0000591590Y0003422279D03*
D28*
X0001090590Y0003422779D03*
X0000490590Y0003422279D03*
X0000990590Y0003422279D03*
X0000390590Y0003422279D03*
G04 next file*
G04 #@! TF.GenerationSoftware,KiCad,Pcbnew,(5.1.12)-1*
G04 #@! TF.CreationDate,2022-03-26T22:19:29+08:00*
G04 #@! TF.ProjectId,Nozzle,4e6f7a7a-6c65-42e6-9b69-6361645f7063,0.5*
G04 #@! TF.SameCoordinates,Original*
G04 #@! TF.FileFunction,Soldermask,Bot*
G04 #@! TF.FilePolarity,Negative*
G04 Gerber Fmt 4.6, Leading zero omitted, Abs format (unit mm)*
G04 Created by KiCad (PCBNEW (5.1.12)-1) date 2022-03-26 22:19:29*
G01*
G04 APERTURE LIST*
G04 APERTURE END LIST*
D29*
X0000511811Y-0002795275D02*
X0001952811Y0003064724D03*
X0001953311Y0002464724D03*
X0001953311Y0002664724D03*
X0001952811Y0002864724D03*
X0001953311Y0002264724D03*
X0001753311Y0002364724D03*
X0001753311Y0002564724D03*
X0001753311Y0002964724D03*
X0001753311Y0002764724D03*
D30*
X0001851811Y0002820724D03*
D31*
X0001852811Y0002720724D03*
D32*
X0001853311Y0002620724D03*
D33*
X0001853311Y0002520724D03*
D34*
X0001852811Y0003019724D03*
X0001853311Y0002419724D03*
X0001853311Y0002919724D03*
X0001853311Y0002319724D03*
G04 next file*
G04 #@! TF.GenerationSoftware,KiCad,Pcbnew,(5.1.12)-1*
G04 #@! TF.CreationDate,2022-03-26T22:12:19+08:00*
G04 #@! TF.ProjectId,Nozzle,4e6f7a7a-6c65-42e6-9b69-6361645f7063,0.5*
G04 #@! TF.SameCoordinates,Original*
G04 #@! TF.FileFunction,Soldermask,Bot*
G04 #@! TF.FilePolarity,Negative*
G04 Gerber Fmt 4.6, Leading zero omitted, Abs format (unit mm)*
G04 Created by KiCad (PCBNEW (5.1.12)-1) date 2022-03-26 22:12:19*
G01*
G04 APERTURE LIST*
G04 APERTURE END LIST*
D35*
X-0004461847Y0005193189D02*
X0001836652Y0000491189D03*
X0000119652Y0000491189D03*
D36*
X0001399152Y0000367189D03*
X0000567152Y0000618189D03*
D35*
X0001224652Y0000149689D03*
X0000315152Y0000275689D03*
X0001637652Y0000708689D03*
X0001224652Y0000834689D03*
X0000315152Y0000708689D03*
X0000728652Y0000834689D03*
X0000728652Y0000149689D03*
X0001637652Y0000275689D03*
G04 next file*
G04 #@! TF.GenerationSoftware,KiCad,Pcbnew,(5.1.12)-1*
G04 #@! TF.CreationDate,2022-03-26T22:12:19+08:00*
G04 #@! TF.ProjectId,Nozzle,4e6f7a7a-6c65-42e6-9b69-6361645f7063,0.5*
G04 #@! TF.SameCoordinates,Original*
G04 #@! TF.FileFunction,Soldermask,Bot*
G04 #@! TF.FilePolarity,Negative*
G04 Gerber Fmt 4.6, Leading zero omitted, Abs format (unit mm)*
G04 Created by KiCad (PCBNEW (5.1.12)-1) date 2022-03-26 22:12:19*
G01*
G04 APERTURE LIST*
G04 APERTURE END LIST*
D37*
X-0004461847Y0006260119D02*
X0001836652Y0001558119D03*
X0000119652Y0001558119D03*
D38*
X0001399152Y0001434119D03*
X0000567152Y0001685119D03*
D37*
X0001224652Y0001216619D03*
X0000315152Y0001342619D03*
X0001637652Y0001775619D03*
X0001224652Y0001901619D03*
X0000315152Y0001775619D03*
X0000728652Y0001901619D03*
X0000728652Y0001216619D03*
X0001637652Y0001342619D03*
G04 next file*
G04 #@! TF.GenerationSoftware,KiCad,Pcbnew,(5.1.12)-1*
G04 #@! TF.CreationDate,2022-03-26T22:13:32+08:00*
G04 #@! TF.ProjectId,Nozzle,4e6f7a7a-6c65-42e6-9b69-6361645f7063,0.5*
G04 #@! TF.SameCoordinates,Original*
G04 #@! TF.FileFunction,Soldermask,Bot*
G04 #@! TF.FilePolarity,Negative*
G04 Gerber Fmt 4.6, Leading zero omitted, Abs format (unit mm)*
G04 Created by KiCad (PCBNEW (5.1.12)-1) date 2022-03-26 22:13:32*
G01*
G04 APERTURE LIST*
G04 APERTURE END LIST*
D39*
G36*
X0002682200Y0002697381D02*
G01*
X0002697948Y0002697381D01*
X0002697948Y0002638326D01*
X0002682200Y0002638326D01*
X0002682200Y0002697381D01*
G37*
X0002682200Y0002697381D02*
X0002697948Y0002697381D01*
X0002697948Y0002638326D01*
X0002682200Y0002638326D01*
X0002682200Y0002697381D01*
G36*
X0002639681Y0002681633D02*
G01*
X0002655429Y0002681633D01*
X0002655429Y0002622578D01*
X0002639681Y0002622578D01*
X0002639681Y0002681633D01*
G37*
X0002639681Y0002681633D02*
X0002655429Y0002681633D01*
X0002655429Y0002622578D01*
X0002639681Y0002622578D01*
X0002639681Y0002681633D01*
G36*
X0002782200Y0002696381D02*
G01*
X0002797948Y0002696381D01*
X0002797948Y0002637326D01*
X0002782200Y0002637326D01*
X0002782200Y0002696381D01*
G37*
X0002782200Y0002696381D02*
X0002797948Y0002696381D01*
X0002797948Y0002637326D01*
X0002782200Y0002637326D01*
X0002782200Y0002696381D01*
G36*
X0002739681Y0002680633D02*
G01*
X0002755429Y0002680633D01*
X0002755429Y0002621578D01*
X0002739681Y0002621578D01*
X0002739681Y0002680633D01*
G37*
X0002739681Y0002680633D02*
X0002755429Y0002680633D01*
X0002755429Y0002621578D01*
X0002739681Y0002621578D01*
X0002739681Y0002680633D01*
G36*
X0002882700Y0002696881D02*
G01*
X0002898448Y0002696881D01*
X0002898448Y0002637826D01*
X0002882700Y0002637826D01*
X0002882700Y0002696881D01*
G37*
X0002882700Y0002696881D02*
X0002898448Y0002696881D01*
X0002898448Y0002637826D01*
X0002882700Y0002637826D01*
X0002882700Y0002696881D01*
G36*
X0002840181Y0002681133D02*
G01*
X0002855929Y0002681133D01*
X0002855929Y0002622078D01*
X0002840181Y0002622078D01*
X0002840181Y0002681133D01*
G37*
X0002840181Y0002681133D02*
X0002855929Y0002681133D01*
X0002855929Y0002622078D01*
X0002840181Y0002622078D01*
X0002840181Y0002681133D01*
G36*
X0002983200Y0002696881D02*
G01*
X0002998948Y0002696881D01*
X0002998948Y0002637826D01*
X0002983200Y0002637826D01*
X0002983200Y0002696881D01*
G37*
X0002983200Y0002696881D02*
X0002998948Y0002696881D01*
X0002998948Y0002637826D01*
X0002983200Y0002637826D01*
X0002983200Y0002696881D01*
G36*
X0002940681Y0002681133D02*
G01*
X0002956429Y0002681133D01*
X0002956429Y0002622078D01*
X0002940681Y0002622078D01*
X0002940681Y0002681133D01*
G37*
X0002940681Y0002681133D02*
X0002956429Y0002681133D01*
X0002956429Y0002622078D01*
X0002940681Y0002622078D01*
X0002940681Y0002681133D01*
G36*
X0002581700Y0002696881D02*
G01*
X0002597448Y0002696881D01*
X0002597448Y0002637826D01*
X0002581700Y0002637826D01*
X0002581700Y0002696881D01*
G37*
X0002581700Y0002696881D02*
X0002597448Y0002696881D01*
X0002597448Y0002637826D01*
X0002581700Y0002637826D01*
X0002581700Y0002696881D01*
G36*
X0002539181Y0002681133D02*
G01*
X0002554929Y0002681133D01*
X0002554929Y0002622078D01*
X0002539181Y0002622078D01*
X0002539181Y0002681133D01*
G37*
X0002539181Y0002681133D02*
X0002554929Y0002681133D01*
X0002554929Y0002622078D01*
X0002539181Y0002622078D01*
X0002539181Y0002681133D01*
G36*
X0003082200Y0002696881D02*
G01*
X0003097948Y0002696881D01*
X0003097948Y0002637826D01*
X0003082200Y0002637826D01*
X0003082200Y0002696881D01*
G37*
X0003082200Y0002696881D02*
X0003097948Y0002696881D01*
X0003097948Y0002637826D01*
X0003082200Y0002637826D01*
X0003082200Y0002696881D01*
G36*
X0003039681Y0002681133D02*
G01*
X0003055429Y0002681133D01*
X0003055429Y0002622078D01*
X0003039681Y0002622078D01*
X0003039681Y0002681133D01*
G37*
X0003039681Y0002681133D02*
X0003055429Y0002681133D01*
X0003055429Y0002622078D01*
X0003039681Y0002622078D01*
X0003039681Y0002681133D01*
G36*
X0003181700Y0002696881D02*
G01*
X0003197448Y0002696881D01*
X0003197448Y0002637826D01*
X0003181700Y0002637826D01*
X0003181700Y0002696881D01*
G37*
X0003181700Y0002696881D02*
X0003197448Y0002696881D01*
X0003197448Y0002637826D01*
X0003181700Y0002637826D01*
X0003181700Y0002696881D01*
G36*
X0003139181Y0002681133D02*
G01*
X0003154929Y0002681133D01*
X0003154929Y0002622078D01*
X0003139181Y0002622078D01*
X0003139181Y0002681133D01*
G37*
X0003139181Y0002681133D02*
X0003154929Y0002681133D01*
X0003154929Y0002622078D01*
X0003139181Y0002622078D01*
X0003139181Y0002681133D01*
G36*
X0003283200Y0002696881D02*
G01*
X0003298948Y0002696881D01*
X0003298948Y0002637826D01*
X0003283200Y0002637826D01*
X0003283200Y0002696881D01*
G37*
X0003283200Y0002696881D02*
X0003298948Y0002696881D01*
X0003298948Y0002637826D01*
X0003283200Y0002637826D01*
X0003283200Y0002696881D01*
G36*
X0003240681Y0002681133D02*
G01*
X0003256429Y0002681133D01*
X0003256429Y0002622078D01*
X0003240681Y0002622078D01*
X0003240681Y0002681133D01*
G37*
X0003240681Y0002681133D02*
X0003256429Y0002681133D01*
X0003256429Y0002622078D01*
X0003240681Y0002622078D01*
X0003240681Y0002681133D01*
D40*
X0002273314Y0003408480D03*
X0003560314Y0003410480D03*
D41*
X0003240314Y0003297480D03*
X0003240314Y0003397480D03*
X0003140314Y0003297480D03*
X0003140314Y0003397480D03*
X0003040314Y0003297480D03*
X0003040314Y0003397480D03*
X0002940314Y0003297480D03*
X0002940314Y0003397480D03*
X0002840314Y0003297480D03*
X0002840314Y0003397480D03*
X0002740314Y0003297480D03*
X0002740314Y0003397480D03*
X0002640314Y0003297480D03*
X0002640314Y0003397480D03*
X0002540314Y0003297480D03*
D42*
X0002540314Y0003397480D03*
D43*
X0002647555Y0002652106D03*
X0002690074Y0002667854D03*
X0002747555Y0002651106D03*
X0002790074Y0002666854D03*
X0002848055Y0002651606D03*
X0002890574Y0002667354D03*
X0002948555Y0002651606D03*
X0002991074Y0002667354D03*
X0002547055Y0002651606D03*
X0002589574Y0002667354D03*
D44*
X0002513314Y0002559480D03*
X0002518314Y0002659480D03*
D43*
X0003047555Y0002651606D03*
X0003090074Y0002667354D03*
D40*
X0002261314Y0002875980D03*
X0002670314Y0002316980D03*
X0002261314Y0002442980D03*
X0003575814Y0002442980D03*
X0003576314Y0002875980D03*
X0002670814Y0003001980D03*
X0003166814Y0002316980D03*
X0003166814Y0003001980D03*
D44*
X0002718814Y0002659480D03*
X0003013314Y0002759480D03*
X0002613314Y0002759480D03*
X0002818814Y0002659480D03*
X0002713314Y0002559480D03*
X0002618814Y0002659480D03*
X0003318814Y0002659480D03*
X0002913314Y0002559480D03*
X0003113314Y0002559480D03*
X0003313314Y0002560480D03*
X0003118814Y0002659480D03*
X0002918814Y0002659480D03*
X0003218314Y0002659480D03*
X0003213814Y0002759480D03*
X0003018314Y0002659480D03*
X0002813314Y0002759480D03*
D43*
X0003147055Y0002651606D03*
X0003189574Y0002667354D03*
X0003248555Y0002651606D03*
X0003291074Y0002667354D03*
M02*