%MOIN*%
%OFA0B0*%
%FSLAX46Y46*%
%IPPOS*%
%LPD*%
%ADD10C,0.011811023622047244*%
%ADD11C,0.0047244094488188976*%
%ADD22C,0.0047244094488188976*%
%ADD23C,0.0047244094488188976*%
G01*
D10*
X0003136850Y0003158135D02*
X0003125601Y0003158135D01*
X0003119977Y0003155322D01*
X0003114353Y0003149698D01*
X0003111541Y0003138449D01*
X0003111541Y0003118764D01*
X0003114353Y0003107516D01*
X0003119977Y0003101892D01*
X0003125601Y0003099079D01*
X0003136850Y0003099079D01*
X0003142474Y0003101892D01*
X0003148098Y0003107516D01*
X0003150911Y0003118764D01*
X0003150911Y0003138449D01*
X0003148098Y0003149698D01*
X0003142474Y0003155322D01*
X0003136850Y0003158135D01*
X0003086231Y0003099079D02*
X0003086231Y0003158135D01*
X0003063734Y0003158135D01*
X0003058110Y0003155322D01*
X0003055298Y0003152510D01*
X0003052485Y0003146886D01*
X0003052485Y0003138449D01*
X0003055298Y0003132825D01*
X0003058110Y0003130013D01*
X0003063734Y0003127201D01*
X0003086231Y0003127201D01*
X0003010303Y0003158135D02*
X0003010303Y0003115952D01*
X0003013115Y0003107516D01*
X0003018740Y0003101892D01*
X0003027176Y0003099079D01*
X0003032800Y0003099079D01*
X0002982182Y0003104704D02*
X0002979370Y0003101892D01*
X0002982182Y0003099079D01*
X0002984994Y0003101892D01*
X0002982182Y0003104704D01*
X0002982182Y0003099079D01*
X0002982182Y0003135637D02*
X0002979370Y0003132825D01*
X0002982182Y0003130013D01*
X0002984994Y0003132825D01*
X0002982182Y0003135637D01*
X0002982182Y0003130013D01*
X0002917502Y0003158135D02*
X0002897817Y0003099079D01*
X0002878132Y0003158135D01*
X0002864071Y0003158135D02*
X0002827514Y0003158135D01*
X0002847199Y0003135637D01*
X0002838762Y0003135637D01*
X0002833138Y0003132825D01*
X0002830326Y0003130013D01*
X0002827514Y0003124389D01*
X0002827514Y0003110328D01*
X0002830326Y0003104704D01*
X0002833138Y0003101892D01*
X0002838762Y0003099079D01*
X0002855635Y0003099079D01*
X0002861259Y0003101892D01*
X0002864071Y0003104704D01*
X0002802204Y0003104704D02*
X0002799392Y0003101892D01*
X0002802204Y0003099079D01*
X0002805016Y0003101892D01*
X0002802204Y0003104704D01*
X0002802204Y0003099079D01*
X0002743149Y0003099079D02*
X0002776895Y0003099079D01*
X0002760022Y0003099079D02*
X0002760022Y0003158135D01*
X0002765646Y0003149698D01*
X0002771271Y0003144074D01*
X0002776895Y0003141262D01*
X0002717840Y0003099079D02*
X0002717840Y0003158135D01*
X0002717840Y0003135637D02*
X0002712215Y0003138449D01*
X0002700967Y0003138449D01*
X0002695343Y0003135637D01*
X0002692530Y0003132825D01*
X0002689718Y0003127201D01*
X0002689718Y0003110328D01*
X0002692530Y0003104704D01*
X0002695343Y0003101892D01*
X0002700967Y0003099079D01*
X0002712215Y0003099079D01*
X0002717840Y0003101892D01*
D11*
X0003365314Y0002639795D02*
X0003483314Y0002639795D01*
X0002472314Y0002639795D02*
X0002354314Y0002639795D01*
G04 next file*
G04 #@! TF.GenerationSoftware,KiCad,Pcbnew,(5.1.12)-1*
G04 #@! TF.CreationDate,2022-04-03T11:08:51+08:00*
G04 #@! TF.ProjectId,Nozzle,4e6f7a7a-6c65-42e6-9b69-6361645f7063,Gen3.1b*
G04 #@! TF.SameCoordinates,Original*
G04 #@! TF.FileFunction,Legend,Bot*
G04 #@! TF.FilePolarity,Positive*
G04 Gerber Fmt 4.6, Leading zero omitted, Abs format (unit mm)*
G04 Created by KiCad (PCBNEW (5.1.12)-1) date 2022-04-03 11:08:51*
G01*
G04 APERTURE LIST*
G04 APERTURE END LIST*
G04 next file*
G04 #@! TF.GenerationSoftware,KiCad,Pcbnew,(5.1.12)-1*
G04 #@! TF.CreationDate,2022-03-29T21:33:58+08:00*
G04 #@! TF.ProjectId,Nozzle,4e6f7a7a-6c65-42e6-9b69-6361645f7063,Gen3.1b*
G04 #@! TF.SameCoordinates,Original*
G04 #@! TF.FileFunction,Legend,Bot*
G04 #@! TF.FilePolarity,Positive*
G04 Gerber Fmt 4.6, Leading zero omitted, Abs format (unit mm)*
G04 Created by KiCad (PCBNEW (5.1.12)-1) date 2022-03-29 21:33:58*
G01*
G04 APERTURE LIST*
G04 APERTURE END LIST*
D22*
X0001074064Y0003455566D02*
X0001072751Y0003454254D01*
X0001074064Y0003452942D01*
X0001075376Y0003454254D01*
X0001074064Y0003455566D01*
X0001074064Y0003452942D01*
X0001047817Y0003480501D02*
X0001060940Y0003480501D01*
X0001062253Y0003467377D01*
X0001060940Y0003468690D01*
X0001058316Y0003470002D01*
X0001051754Y0003470002D01*
X0001049129Y0003468690D01*
X0001047817Y0003467377D01*
X0001046505Y0003464753D01*
X0001046505Y0003458191D01*
X0001047817Y0003455566D01*
X0001049129Y0003454254D01*
X0001051754Y0003452942D01*
X0001058316Y0003452942D01*
X0001060940Y0003454254D01*
X0001062253Y0003455566D01*
X0001238811Y0003365566D02*
X0001237498Y0003364254D01*
X0001238811Y0003362942D01*
X0001240123Y0003364254D01*
X0001238811Y0003365566D01*
X0001238811Y0003362942D01*
X0001213876Y0003390501D02*
X0001219125Y0003390501D01*
X0001221750Y0003389188D01*
X0001223062Y0003387876D01*
X0001225687Y0003383939D01*
X0001226999Y0003378690D01*
X0001226999Y0003368191D01*
X0001225687Y0003365566D01*
X0001224375Y0003364254D01*
X0001221750Y0003362942D01*
X0001216501Y0003362942D01*
X0001213876Y0003364254D01*
X0001212564Y0003365566D01*
X0001211251Y0003368191D01*
X0001211251Y0003374753D01*
X0001212564Y0003377377D01*
X0001213876Y0003378690D01*
X0001216501Y0003380002D01*
X0001221750Y0003380002D01*
X0001224375Y0003378690D01*
X0001225687Y0003377377D01*
X0001226999Y0003374753D01*
X0001202065Y0003390501D02*
X0001185005Y0003390501D01*
X0001194191Y0003380002D01*
X0001190254Y0003380002D01*
X0001187629Y0003378690D01*
X0001186317Y0003377377D01*
X0001185005Y0003374753D01*
X0001185005Y0003368191D01*
X0001186317Y0003365566D01*
X0001187629Y0003364254D01*
X0001190254Y0003362942D01*
X0001198128Y0003362942D01*
X0001200753Y0003364254D01*
X0001202065Y0003365566D01*
X0001160070Y0003390501D02*
X0001173194Y0003390501D01*
X0001174506Y0003377377D01*
X0001173194Y0003378690D01*
X0001170569Y0003380002D01*
X0001164007Y0003380002D01*
X0001161383Y0003378690D01*
X0001160070Y0003377377D01*
X0001158758Y0003374753D01*
X0001158758Y0003368191D01*
X0001160070Y0003365566D01*
X0001161383Y0003364254D01*
X0001164007Y0003362942D01*
X0001170569Y0003362942D01*
X0001173194Y0003364254D01*
X0001174506Y0003365566D01*
X0000636310Y0003362066D02*
X0000634998Y0003360754D01*
X0000636310Y0003359442D01*
X0000637623Y0003360754D01*
X0000636310Y0003362066D01*
X0000636310Y0003359442D01*
X0000611376Y0003387001D02*
X0000616625Y0003387001D01*
X0000619250Y0003385688D01*
X0000620562Y0003384376D01*
X0000623187Y0003380439D01*
X0000624500Y0003375190D01*
X0000624500Y0003364691D01*
X0000623187Y0003362066D01*
X0000621875Y0003360754D01*
X0000619250Y0003359442D01*
X0000614001Y0003359442D01*
X0000611376Y0003360754D01*
X0000610064Y0003362066D01*
X0000608751Y0003364691D01*
X0000608751Y0003371253D01*
X0000610064Y0003373877D01*
X0000611376Y0003375190D01*
X0000614001Y0003376502D01*
X0000619250Y0003376502D01*
X0000621875Y0003375190D01*
X0000623187Y0003373877D01*
X0000624500Y0003371253D01*
X0000599565Y0003387001D02*
X0000582505Y0003387001D01*
X0000591691Y0003376502D01*
X0000587754Y0003376502D01*
X0000585129Y0003375190D01*
X0000583817Y0003373877D01*
X0000582505Y0003371253D01*
X0000582505Y0003364691D01*
X0000583817Y0003362066D01*
X0000585129Y0003360754D01*
X0000587754Y0003359442D01*
X0000595628Y0003359442D01*
X0000598253Y0003360754D01*
X0000599565Y0003362066D01*
X0000557570Y0003387001D02*
X0000570694Y0003387001D01*
X0000572006Y0003373877D01*
X0000570694Y0003375190D01*
X0000568069Y0003376502D01*
X0000561507Y0003376502D01*
X0000558883Y0003375190D01*
X0000557570Y0003373877D01*
X0000556258Y0003371253D01*
X0000556258Y0003364691D01*
X0000557570Y0003362066D01*
X0000558883Y0003360754D01*
X0000561507Y0003359442D01*
X0000568069Y0003359442D01*
X0000570694Y0003360754D01*
X0000572006Y0003362066D01*
X0000749187Y0003454566D02*
X0000747875Y0003453254D01*
X0000749187Y0003451942D01*
X0000750500Y0003453254D01*
X0000749187Y0003454566D01*
X0000749187Y0003451942D01*
X0000737376Y0003476876D02*
X0000736064Y0003478188D01*
X0000733439Y0003479501D01*
X0000726877Y0003479501D01*
X0000724253Y0003478188D01*
X0000722940Y0003476876D01*
X0000721628Y0003474251D01*
X0000721628Y0003471627D01*
X0000722940Y0003467690D01*
X0000738688Y0003451942D01*
X0000721628Y0003451942D01*
X0000696694Y0003479501D02*
X0000709817Y0003479501D01*
X0000711129Y0003466377D01*
X0000709817Y0003467690D01*
X0000707192Y0003469002D01*
X0000700631Y0003469002D01*
X0000698006Y0003467690D01*
X0000696694Y0003466377D01*
X0000695381Y0003463753D01*
X0000695381Y0003457191D01*
X0000696694Y0003454566D01*
X0000698006Y0003453254D01*
X0000700631Y0003451942D01*
X0000707192Y0003451942D01*
X0000709817Y0003453254D01*
X0000711129Y0003454566D01*
X0000936564Y0003451066D02*
X0000935251Y0003449754D01*
X0000936564Y0003448442D01*
X0000937876Y0003449754D01*
X0000936564Y0003451066D01*
X0000936564Y0003448442D01*
X0000911629Y0003466814D02*
X0000911629Y0003448442D01*
X0000918191Y0003477313D02*
X0000924753Y0003457628D01*
X0000907692Y0003457628D01*
X0000876064Y0003451066D02*
X0000874751Y0003449754D01*
X0000876064Y0003448442D01*
X0000877376Y0003449754D01*
X0000876064Y0003451066D01*
X0000876064Y0003448442D01*
X0000865565Y0003476001D02*
X0000848505Y0003476001D01*
X0000857691Y0003465502D01*
X0000853754Y0003465502D01*
X0000851129Y0003464190D01*
X0000849817Y0003462877D01*
X0000848505Y0003460253D01*
X0000848505Y0003453691D01*
X0000849817Y0003451066D01*
X0000851129Y0003449754D01*
X0000853754Y0003448442D01*
X0000861628Y0003448442D01*
X0000864253Y0003449754D01*
X0000865565Y0003451066D01*
G04 next file*
G04 #@! TF.GenerationSoftware,KiCad,Pcbnew,(5.1.12)-1*
G04 #@! TF.CreationDate,2022-04-03T11:03:18+08:00*
G04 #@! TF.ProjectId,Nozzle,4e6f7a7a-6c65-42e6-9b69-6361645f7063,Gen3.1b*
G04 #@! TF.SameCoordinates,Original*
G04 #@! TF.FileFunction,Legend,Bot*
G04 #@! TF.FilePolarity,Positive*
G04 Gerber Fmt 4.6, Leading zero omitted, Abs format (unit mm)*
G04 Created by KiCad (PCBNEW (5.1.12)-1) date 2022-04-03 11:03:18*
G01*
G04 APERTURE LIST*
G04 APERTURE END LIST*
G04 next file*
G04 #@! TF.GenerationSoftware,KiCad,Pcbnew,(5.1.12)-1*
G04 #@! TF.CreationDate,2022-03-29T21:33:58+08:00*
G04 #@! TF.ProjectId,Nozzle,4e6f7a7a-6c65-42e6-9b69-6361645f7063,Gen3.1b*
G04 #@! TF.SameCoordinates,Original*
G04 #@! TF.FileFunction,Legend,Bot*
G04 #@! TF.FilePolarity,Positive*
G04 Gerber Fmt 4.6, Leading zero omitted, Abs format (unit mm)*
G04 Created by KiCad (PCBNEW (5.1.12)-1) date 2022-03-29 21:33:58*
G01*
G04 APERTURE LIST*
G04 APERTURE END LIST*
D23*
X0001820023Y0002845717D02*
X0001821335Y0002844405D01*
X0001822648Y0002845717D01*
X0001821335Y0002847030D01*
X0001820023Y0002845717D01*
X0001822648Y0002845717D01*
X0001795089Y0002819471D02*
X0001795089Y0002832594D01*
X0001808212Y0002833906D01*
X0001806900Y0002832594D01*
X0001805587Y0002829969D01*
X0001805587Y0002823408D01*
X0001806900Y0002820783D01*
X0001808212Y0002819471D01*
X0001810837Y0002818158D01*
X0001817398Y0002818158D01*
X0001820023Y0002819471D01*
X0001821335Y0002820783D01*
X0001822648Y0002823408D01*
X0001822648Y0002829969D01*
X0001821335Y0002832594D01*
X0001820023Y0002833906D01*
X0001910023Y0003010464D02*
X0001911335Y0003009152D01*
X0001912648Y0003010464D01*
X0001911335Y0003011776D01*
X0001910023Y0003010464D01*
X0001912648Y0003010464D01*
X0001885089Y0002985530D02*
X0001885089Y0002990779D01*
X0001886401Y0002993404D01*
X0001887713Y0002994716D01*
X0001891650Y0002997341D01*
X0001896900Y0002998653D01*
X0001907398Y0002998653D01*
X0001910023Y0002997341D01*
X0001911335Y0002996028D01*
X0001912648Y0002993404D01*
X0001912648Y0002988154D01*
X0001911335Y0002985530D01*
X0001910023Y0002984217D01*
X0001907398Y0002982905D01*
X0001900837Y0002982905D01*
X0001898212Y0002984217D01*
X0001896900Y0002985530D01*
X0001895587Y0002988154D01*
X0001895587Y0002993404D01*
X0001896900Y0002996028D01*
X0001898212Y0002997341D01*
X0001900837Y0002998653D01*
X0001885089Y0002973719D02*
X0001885089Y0002956658D01*
X0001895587Y0002965845D01*
X0001895587Y0002961908D01*
X0001896900Y0002959283D01*
X0001898212Y0002957971D01*
X0001900837Y0002956658D01*
X0001907398Y0002956658D01*
X0001910023Y0002957971D01*
X0001911335Y0002959283D01*
X0001912648Y0002961908D01*
X0001912648Y0002969782D01*
X0001911335Y0002972406D01*
X0001910023Y0002973719D01*
X0001885089Y0002931724D02*
X0001885089Y0002944847D01*
X0001898212Y0002946160D01*
X0001896900Y0002944847D01*
X0001895587Y0002942223D01*
X0001895587Y0002935661D01*
X0001896900Y0002933036D01*
X0001898212Y0002931724D01*
X0001900837Y0002930412D01*
X0001907398Y0002930412D01*
X0001910023Y0002931724D01*
X0001911335Y0002933036D01*
X0001912648Y0002935661D01*
X0001912648Y0002942223D01*
X0001911335Y0002944847D01*
X0001910023Y0002946160D01*
X0001913523Y0002407964D02*
X0001914835Y0002406652D01*
X0001916148Y0002407964D01*
X0001914835Y0002409276D01*
X0001913523Y0002407964D01*
X0001916148Y0002407964D01*
X0001888589Y0002383030D02*
X0001888589Y0002388279D01*
X0001889901Y0002390904D01*
X0001891213Y0002392216D01*
X0001895150Y0002394841D01*
X0001900400Y0002396153D01*
X0001910898Y0002396153D01*
X0001913523Y0002394841D01*
X0001914835Y0002393528D01*
X0001916148Y0002390904D01*
X0001916148Y0002385654D01*
X0001914835Y0002383030D01*
X0001913523Y0002381717D01*
X0001910898Y0002380405D01*
X0001904337Y0002380405D01*
X0001901712Y0002381717D01*
X0001900400Y0002383030D01*
X0001899087Y0002385654D01*
X0001899087Y0002390904D01*
X0001900400Y0002393528D01*
X0001901712Y0002394841D01*
X0001904337Y0002396153D01*
X0001888589Y0002371219D02*
X0001888589Y0002354158D01*
X0001899087Y0002363345D01*
X0001899087Y0002359408D01*
X0001900400Y0002356783D01*
X0001901712Y0002355471D01*
X0001904337Y0002354158D01*
X0001910898Y0002354158D01*
X0001913523Y0002355471D01*
X0001914835Y0002356783D01*
X0001916148Y0002359408D01*
X0001916148Y0002367282D01*
X0001914835Y0002369906D01*
X0001913523Y0002371219D01*
X0001888589Y0002329224D02*
X0001888589Y0002342347D01*
X0001901712Y0002343660D01*
X0001900400Y0002342347D01*
X0001899087Y0002339723D01*
X0001899087Y0002333161D01*
X0001900400Y0002330536D01*
X0001901712Y0002329224D01*
X0001904337Y0002327912D01*
X0001910898Y0002327912D01*
X0001913523Y0002329224D01*
X0001914835Y0002330536D01*
X0001916148Y0002333161D01*
X0001916148Y0002339723D01*
X0001914835Y0002342347D01*
X0001913523Y0002343660D01*
X0001821023Y0002520841D02*
X0001822335Y0002519528D01*
X0001823648Y0002520841D01*
X0001822335Y0002522153D01*
X0001821023Y0002520841D01*
X0001823648Y0002520841D01*
X0001798713Y0002509030D02*
X0001797401Y0002507717D01*
X0001796089Y0002505093D01*
X0001796089Y0002498531D01*
X0001797401Y0002495906D01*
X0001798713Y0002494594D01*
X0001801338Y0002493282D01*
X0001803963Y0002493282D01*
X0001807900Y0002494594D01*
X0001823648Y0002510342D01*
X0001823648Y0002493282D01*
X0001796089Y0002468347D02*
X0001796089Y0002481471D01*
X0001809212Y0002482783D01*
X0001807900Y0002481471D01*
X0001806587Y0002478846D01*
X0001806587Y0002472284D01*
X0001807900Y0002469660D01*
X0001809212Y0002468347D01*
X0001811837Y0002467035D01*
X0001818398Y0002467035D01*
X0001821023Y0002468347D01*
X0001822335Y0002469660D01*
X0001823648Y0002472284D01*
X0001823648Y0002478846D01*
X0001822335Y0002481471D01*
X0001821023Y0002482783D01*
X0001824523Y0002708217D02*
X0001825835Y0002706905D01*
X0001827148Y0002708217D01*
X0001825835Y0002709530D01*
X0001824523Y0002708217D01*
X0001827148Y0002708217D01*
X0001808775Y0002683283D02*
X0001827148Y0002683283D01*
X0001798276Y0002689845D02*
X0001817961Y0002696406D01*
X0001817961Y0002679346D01*
X0001824523Y0002647717D02*
X0001825835Y0002646405D01*
X0001827148Y0002647717D01*
X0001825835Y0002649030D01*
X0001824523Y0002647717D01*
X0001827148Y0002647717D01*
X0001799589Y0002637219D02*
X0001799589Y0002620158D01*
X0001810087Y0002629345D01*
X0001810087Y0002625408D01*
X0001811400Y0002622783D01*
X0001812712Y0002621471D01*
X0001815337Y0002620158D01*
X0001821898Y0002620158D01*
X0001824523Y0002621471D01*
X0001825835Y0002622783D01*
X0001827148Y0002625408D01*
X0001827148Y0002633282D01*
X0001825835Y0002635906D01*
X0001824523Y0002637219D01*
G04 next file*
G04 #@! TF.GenerationSoftware,KiCad,Pcbnew,(5.1.12)-1*
G04 #@! TF.CreationDate,2022-04-03T11:03:18+08:00*
G04 #@! TF.ProjectId,Nozzle,4e6f7a7a-6c65-42e6-9b69-6361645f7063,Gen3.1b*
G04 #@! TF.SameCoordinates,Original*
G04 #@! TF.FileFunction,Legend,Bot*
G04 #@! TF.FilePolarity,Positive*
G04 Gerber Fmt 4.6, Leading zero omitted, Abs format (unit mm)*
G04 Created by KiCad (PCBNEW (5.1.12)-1) date 2022-04-03 11:03:18*
G01*
G04 APERTURE LIST*
G04 APERTURE END LIST*
G04 next file*
G04 #@! TF.GenerationSoftware,KiCad,Pcbnew,(5.1.12)-1*
G04 #@! TF.CreationDate,2022-04-03T11:08:51+08:00*
G04 #@! TF.ProjectId,Nozzle,4e6f7a7a-6c65-42e6-9b69-6361645f7063,Gen3.1b*
G04 #@! TF.SameCoordinates,Original*
G04 #@! TF.FileFunction,Legend,Bot*
G04 #@! TF.FilePolarity,Positive*
G04 Gerber Fmt 4.6, Leading zero omitted, Abs format (unit mm)*
G04 Created by KiCad (PCBNEW (5.1.12)-1) date 2022-04-03 11:08:51*
G01*
G04 APERTURE LIST*
G04 APERTURE END LIST*
G04 next file*
G04 #@! TF.GenerationSoftware,KiCad,Pcbnew,(5.1.12)-1*
G04 #@! TF.CreationDate,2022-04-03T11:08:51+08:00*
G04 #@! TF.ProjectId,Nozzle,4e6f7a7a-6c65-42e6-9b69-6361645f7063,Gen3.1b*
G04 #@! TF.SameCoordinates,Original*
G04 #@! TF.FileFunction,Legend,Bot*
G04 #@! TF.FilePolarity,Positive*
G04 Gerber Fmt 4.6, Leading zero omitted, Abs format (unit mm)*
G04 Created by KiCad (PCBNEW (5.1.12)-1) date 2022-04-03 11:08:51*
G01*
G04 APERTURE LIST*
G04 APERTURE END LIST*
M02*