%MOIN*%
%OFA0B0*%
%FSLAX46Y46*%
%IPPOS*%
%LPD*%
%ADD10C,0.01*%
%ADD11C,0.0039370078740157488*%
%ADD22C,0.01*%
%ADD23C,0.0039370078740157488*%
%ADD24C,0.01*%
%ADD25C,0.0039370078740157488*%
%ADD26C,0.033464566929133861*%
%ADD27C,0.01*%
%ADD28C,0.0039370078740157488*%
%ADD29C,0.033464566929133861*%
%ADD30C,0.01*%
%ADD31C,0.0039370078740157488*%
%ADD32C,0.23622047244094491*%
%ADD33C,0.01*%
%ADD34C,0.0039370078740157488*%
%ADD35C,0.23622047244094491*%
%ADD36C,0.01*%
%ADD37C,0.0039370078740157488*%
%ADD38O,0.066929133858267723X0.066929133858267723*%
%ADD39R,0.066929133858267723X0.066929133858267723*%
%ADD40R,0.015748031496062995X0.059055118110236227*%
%ADD41C,0.01968503937007874*%
%ADD42C,0.015748031496062995*%
G01*
D10*
X0003525923Y0000957141D02*
X0003535756Y0000954172D01*
X0003544826Y0000949350D01*
X0003552786Y0000942858D01*
X0003559333Y0000934943D01*
X0003564219Y0000925908D01*
X0003567256Y0000916095D01*
X0003568456Y0000904682D01*
X0003568456Y0000080011D01*
X0003567329Y0000068517D01*
X0003564360Y0000058684D01*
X0003559538Y0000049614D01*
X0003553046Y0000041654D01*
X0003545131Y0000035106D01*
X0003536096Y0000030221D01*
X0003526283Y0000027183D01*
X0003514870Y0000025984D01*
X0002115475Y0000025984D01*
X0002103982Y0000027111D01*
X0002094148Y0000030080D01*
X0002085079Y0000034902D01*
X0002077119Y0000041394D01*
X0002070571Y0000049309D01*
X0002065686Y0000058344D01*
X0002062648Y0000068157D01*
X0002061448Y0000079570D01*
X0002061448Y0000282448D01*
X0002086672Y0000282448D01*
X0002086672Y0000268992D01*
X0002089297Y0000255796D01*
X0002094447Y0000243365D01*
X0002101922Y0000232177D01*
X0002111436Y0000222662D01*
X0002122624Y0000215187D01*
X0002135055Y0000210038D01*
X0002148252Y0000207413D01*
X0002161707Y0000207413D01*
X0002174904Y0000210038D01*
X0002187335Y0000215187D01*
X0002198523Y0000222662D01*
X0002208037Y0000232177D01*
X0002215513Y0000243365D01*
X0002220662Y0000255796D01*
X0002223287Y0000268992D01*
X0002223287Y0000282448D01*
X0002220662Y0000295645D01*
X0002215513Y0000308076D01*
X0002211765Y0000313684D01*
X0002245700Y0000313684D01*
X0002245812Y0000312544D01*
X0002245809Y0000312055D01*
X0002245844Y0000311694D01*
X0002247451Y0000296411D01*
X0002247924Y0000294106D01*
X0002248366Y0000291791D01*
X0002248470Y0000291444D01*
X0002253015Y0000276763D01*
X0002253927Y0000274592D01*
X0002254810Y0000272409D01*
X0002254980Y0000272088D01*
X0002262289Y0000258571D01*
X0002263605Y0000256620D01*
X0002264895Y0000254647D01*
X0002265125Y0000254366D01*
X0002274920Y0000242526D01*
X0002276591Y0000240867D01*
X0002278239Y0000239183D01*
X0002278519Y0000238952D01*
X0002290428Y0000229240D01*
X0002292389Y0000227936D01*
X0002294332Y0000226606D01*
X0002294651Y0000226433D01*
X0002308220Y0000219219D01*
X0002310397Y0000218321D01*
X0002312562Y0000217393D01*
X0002312909Y0000217286D01*
X0002327620Y0000212844D01*
X0002329931Y0000212387D01*
X0002332234Y0000211897D01*
X0002332595Y0000211859D01*
X0002347889Y0000210360D01*
X0002347889Y0000210360D01*
X0002349148Y0000210236D01*
X0002532098Y0000210236D01*
X0002520936Y0000202778D01*
X0002511422Y0000193263D01*
X0002503947Y0000182076D01*
X0002498797Y0000169645D01*
X0002496172Y0000156448D01*
X0002496172Y0000142992D01*
X0002498797Y0000129796D01*
X0002503947Y0000117365D01*
X0002511422Y0000106177D01*
X0002520936Y0000096662D01*
X0002532124Y0000089187D01*
X0002544555Y0000084038D01*
X0002557752Y0000081413D01*
X0002571207Y0000081413D01*
X0002584404Y0000084038D01*
X0002596835Y0000089187D01*
X0002608023Y0000096662D01*
X0002617537Y0000106177D01*
X0002625013Y0000117365D01*
X0002630162Y0000129796D01*
X0002632787Y0000142992D01*
X0002632787Y0000156448D01*
X0002630162Y0000169645D01*
X0002625013Y0000182076D01*
X0002617537Y0000193263D01*
X0002608023Y0000202778D01*
X0002596861Y0000210236D01*
X0003028098Y0000210236D01*
X0003016936Y0000202778D01*
X0003007422Y0000193263D01*
X0002999947Y0000182076D01*
X0002994797Y0000169645D01*
X0002992172Y0000156448D01*
X0002992172Y0000142992D01*
X0002994797Y0000129796D01*
X0002999947Y0000117365D01*
X0003007422Y0000106177D01*
X0003016936Y0000096662D01*
X0003028124Y0000089187D01*
X0003040555Y0000084038D01*
X0003053752Y0000081413D01*
X0003067207Y0000081413D01*
X0003080404Y0000084038D01*
X0003092835Y0000089187D01*
X0003104023Y0000096662D01*
X0003113537Y0000106177D01*
X0003121013Y0000117365D01*
X0003126162Y0000129796D01*
X0003128787Y0000142992D01*
X0003128787Y0000156448D01*
X0003126162Y0000169645D01*
X0003121013Y0000182076D01*
X0003113537Y0000193263D01*
X0003104023Y0000202778D01*
X0003092861Y0000210236D01*
X0003280756Y0000210236D01*
X0003281896Y0000210348D01*
X0003282384Y0000210345D01*
X0003282745Y0000210380D01*
X0003298029Y0000211986D01*
X0003300334Y0000212460D01*
X0003302649Y0000212901D01*
X0003302996Y0000213006D01*
X0003317676Y0000217550D01*
X0003319848Y0000218463D01*
X0003322031Y0000219345D01*
X0003322351Y0000219516D01*
X0003335869Y0000226825D01*
X0003337820Y0000228141D01*
X0003339792Y0000229431D01*
X0003340074Y0000229661D01*
X0003351914Y0000239456D01*
X0003353573Y0000241127D01*
X0003355256Y0000242775D01*
X0003355488Y0000243054D01*
X0003365200Y0000254963D01*
X0003366504Y0000256925D01*
X0003367834Y0000258868D01*
X0003368007Y0000259187D01*
X0003375221Y0000272756D01*
X0003376119Y0000274933D01*
X0003377046Y0000277098D01*
X0003377154Y0000277444D01*
X0003378664Y0000282448D01*
X0003401172Y0000282448D01*
X0003401172Y0000268992D01*
X0003403797Y0000255796D01*
X0003408947Y0000243365D01*
X0003416422Y0000232177D01*
X0003425936Y0000222662D01*
X0003437124Y0000215187D01*
X0003449555Y0000210038D01*
X0003462752Y0000207413D01*
X0003476207Y0000207413D01*
X0003489404Y0000210038D01*
X0003501835Y0000215187D01*
X0003513023Y0000222662D01*
X0003522537Y0000232177D01*
X0003530013Y0000243365D01*
X0003535162Y0000255796D01*
X0003537787Y0000268992D01*
X0003537787Y0000282448D01*
X0003535162Y0000295645D01*
X0003530013Y0000308076D01*
X0003522537Y0000319263D01*
X0003513023Y0000328778D01*
X0003501835Y0000336253D01*
X0003489404Y0000341402D01*
X0003476207Y0000344027D01*
X0003462752Y0000344027D01*
X0003449555Y0000341402D01*
X0003437124Y0000336253D01*
X0003425936Y0000328778D01*
X0003416422Y0000319263D01*
X0003408947Y0000308076D01*
X0003403797Y0000295645D01*
X0003401172Y0000282448D01*
X0003378664Y0000282448D01*
X0003381595Y0000292156D01*
X0003382053Y0000294466D01*
X0003382542Y0000296770D01*
X0003382580Y0000297131D01*
X0003384080Y0000312425D01*
X0003384080Y0000312425D01*
X0003384204Y0000313684D01*
X0003384204Y0000670567D01*
X0003384092Y0000671707D01*
X0003384095Y0000672196D01*
X0003384060Y0000672557D01*
X0003382453Y0000687840D01*
X0003381980Y0000690145D01*
X0003381539Y0000692460D01*
X0003381434Y0000692808D01*
X0003376889Y0000707488D01*
X0003375977Y0000709659D01*
X0003375095Y0000711842D01*
X0003374924Y0000712163D01*
X0003374924Y0000712163D01*
X0003374924Y0000712163D01*
X0003373148Y0000715448D01*
X0003401672Y0000715448D01*
X0003401672Y0000701992D01*
X0003404297Y0000688796D01*
X0003409447Y0000676365D01*
X0003416922Y0000665177D01*
X0003426436Y0000655662D01*
X0003437624Y0000648187D01*
X0003450055Y0000643038D01*
X0003463252Y0000640413D01*
X0003476707Y0000640413D01*
X0003489904Y0000643038D01*
X0003502335Y0000648187D01*
X0003513523Y0000655662D01*
X0003523037Y0000665177D01*
X0003530513Y0000676365D01*
X0003535662Y0000688796D01*
X0003538287Y0000701992D01*
X0003538287Y0000715448D01*
X0003535662Y0000728645D01*
X0003530513Y0000741076D01*
X0003523037Y0000752263D01*
X0003513523Y0000761778D01*
X0003502335Y0000769253D01*
X0003489904Y0000774402D01*
X0003476707Y0000777027D01*
X0003463252Y0000777027D01*
X0003450055Y0000774402D01*
X0003437624Y0000769253D01*
X0003426436Y0000761778D01*
X0003416922Y0000752263D01*
X0003409447Y0000741076D01*
X0003404297Y0000728645D01*
X0003401672Y0000715448D01*
X0003373148Y0000715448D01*
X0003367615Y0000725681D01*
X0003366298Y0000727633D01*
X0003365009Y0000729604D01*
X0003364779Y0000729885D01*
X0003354984Y0000741726D01*
X0003353313Y0000743385D01*
X0003351665Y0000745068D01*
X0003351385Y0000745299D01*
X0003339477Y0000755012D01*
X0003337515Y0000756315D01*
X0003335572Y0000757645D01*
X0003335253Y0000757818D01*
X0003321684Y0000765033D01*
X0003319507Y0000765930D01*
X0003317342Y0000766858D01*
X0003316995Y0000766965D01*
X0003302284Y0000771407D01*
X0003299973Y0000771864D01*
X0003297670Y0000772354D01*
X0003297309Y0000772392D01*
X0003282015Y0000773891D01*
X0003282015Y0000773891D01*
X0003280756Y0000774015D01*
X0003091920Y0000774015D01*
X0003092335Y0000774187D01*
X0003103523Y0000781662D01*
X0003113037Y0000791177D01*
X0003120513Y0000802365D01*
X0003125662Y0000814796D01*
X0003128287Y0000827992D01*
X0003128287Y0000841448D01*
X0003125662Y0000854645D01*
X0003120513Y0000867076D01*
X0003113037Y0000878263D01*
X0003103523Y0000887778D01*
X0003092335Y0000895253D01*
X0003079904Y0000900402D01*
X0003066707Y0000903027D01*
X0003053252Y0000903027D01*
X0003040055Y0000900402D01*
X0003027624Y0000895253D01*
X0003016436Y0000887778D01*
X0003006922Y0000878263D01*
X0002999447Y0000867076D01*
X0002994297Y0000854645D01*
X0002991672Y0000841448D01*
X0002991672Y0000827992D01*
X0002994297Y0000814796D01*
X0002999447Y0000802365D01*
X0003006922Y0000791177D01*
X0003016436Y0000781662D01*
X0003027624Y0000774187D01*
X0003028039Y0000774015D01*
X0002596920Y0000774015D01*
X0002597335Y0000774187D01*
X0002608523Y0000781662D01*
X0002618037Y0000791177D01*
X0002625513Y0000802365D01*
X0002630662Y0000814796D01*
X0002633287Y0000827992D01*
X0002633287Y0000841448D01*
X0002630662Y0000854645D01*
X0002625513Y0000867076D01*
X0002618037Y0000878263D01*
X0002608523Y0000887778D01*
X0002597335Y0000895253D01*
X0002584904Y0000900402D01*
X0002571707Y0000903027D01*
X0002558252Y0000903027D01*
X0002545055Y0000900402D01*
X0002532624Y0000895253D01*
X0002521436Y0000887778D01*
X0002511922Y0000878263D01*
X0002504447Y0000867076D01*
X0002499297Y0000854645D01*
X0002496672Y0000841448D01*
X0002496672Y0000827992D01*
X0002499297Y0000814796D01*
X0002504447Y0000802365D01*
X0002511922Y0000791177D01*
X0002521436Y0000781662D01*
X0002532624Y0000774187D01*
X0002533039Y0000774015D01*
X0002349148Y0000774015D01*
X0002348008Y0000773903D01*
X0002347520Y0000773906D01*
X0002347159Y0000773871D01*
X0002331875Y0000772265D01*
X0002329570Y0000771791D01*
X0002327255Y0000771350D01*
X0002326908Y0000771245D01*
X0002312228Y0000766701D01*
X0002310056Y0000765788D01*
X0002307873Y0000764906D01*
X0002307553Y0000764736D01*
X0002307553Y0000764736D01*
X0002307553Y0000764735D01*
X0002294035Y0000757426D01*
X0002292082Y0000756109D01*
X0002290112Y0000754820D01*
X0002289831Y0000754591D01*
X0002277990Y0000744795D01*
X0002276331Y0000743124D01*
X0002274648Y0000741476D01*
X0002274416Y0000741197D01*
X0002264704Y0000729288D01*
X0002263401Y0000727327D01*
X0002262070Y0000725383D01*
X0002261897Y0000725064D01*
X0002254683Y0000711495D01*
X0002253785Y0000709318D01*
X0002252858Y0000707153D01*
X0002252750Y0000706807D01*
X0002248309Y0000692095D01*
X0002247851Y0000689785D01*
X0002247362Y0000687481D01*
X0002247324Y0000687121D01*
X0002245824Y0000671827D01*
X0002245824Y0000671826D01*
X0002245700Y0000670567D01*
X0002245700Y0000313684D01*
X0002211765Y0000313684D01*
X0002208037Y0000319263D01*
X0002198523Y0000328778D01*
X0002187335Y0000336253D01*
X0002174904Y0000341402D01*
X0002161707Y0000344027D01*
X0002148252Y0000344027D01*
X0002135055Y0000341402D01*
X0002122624Y0000336253D01*
X0002111436Y0000328778D01*
X0002101922Y0000319263D01*
X0002094447Y0000308076D01*
X0002089297Y0000295645D01*
X0002086672Y0000282448D01*
X0002061448Y0000282448D01*
X0002061448Y0000715448D01*
X0002086672Y0000715448D01*
X0002086672Y0000701992D01*
X0002089297Y0000688796D01*
X0002094447Y0000676365D01*
X0002101922Y0000665177D01*
X0002111436Y0000655662D01*
X0002122624Y0000648187D01*
X0002135055Y0000643038D01*
X0002148252Y0000640413D01*
X0002161707Y0000640413D01*
X0002174904Y0000643038D01*
X0002187335Y0000648187D01*
X0002198523Y0000655662D01*
X0002208037Y0000665177D01*
X0002215513Y0000676365D01*
X0002220662Y0000688796D01*
X0002223287Y0000701992D01*
X0002223287Y0000715448D01*
X0002220662Y0000728645D01*
X0002215513Y0000741076D01*
X0002208037Y0000752263D01*
X0002198523Y0000761778D01*
X0002187335Y0000769253D01*
X0002174904Y0000774402D01*
X0002161707Y0000777027D01*
X0002148252Y0000777027D01*
X0002135055Y0000774402D01*
X0002122624Y0000769253D01*
X0002111436Y0000761778D01*
X0002101922Y0000752263D01*
X0002094447Y0000741076D01*
X0002089297Y0000728645D01*
X0002086672Y0000715448D01*
X0002061448Y0000715448D01*
X0002061448Y0000904241D01*
X0002062575Y0000915735D01*
X0002065544Y0000925568D01*
X0002070367Y0000934638D01*
X0002076859Y0000942598D01*
X0002084773Y0000949146D01*
X0002093809Y0000954031D01*
X0002103622Y0000957069D01*
X0002115035Y0000958268D01*
X0003514429Y0000958268D01*
X0003525923Y0000957141D01*
D11*
G36*
X0003525923Y0000957141D02*
G01*
X0003535756Y0000954172D01*
X0003544826Y0000949350D01*
X0003552786Y0000942858D01*
X0003559333Y0000934943D01*
X0003564219Y0000925908D01*
X0003567256Y0000916095D01*
X0003568456Y0000904682D01*
X0003568456Y0000080011D01*
X0003567329Y0000068517D01*
X0003564360Y0000058684D01*
X0003559538Y0000049614D01*
X0003553046Y0000041654D01*
X0003545131Y0000035106D01*
X0003536096Y0000030221D01*
X0003526283Y0000027183D01*
X0003514870Y0000025984D01*
X0002115475Y0000025984D01*
X0002103982Y0000027111D01*
X0002094148Y0000030080D01*
X0002085079Y0000034902D01*
X0002077119Y0000041394D01*
X0002070571Y0000049309D01*
X0002065686Y0000058344D01*
X0002062648Y0000068157D01*
X0002061448Y0000079570D01*
X0002061448Y0000282448D01*
X0002086672Y0000282448D01*
X0002086672Y0000268992D01*
X0002089297Y0000255796D01*
X0002094447Y0000243365D01*
X0002101922Y0000232177D01*
X0002111436Y0000222662D01*
X0002122624Y0000215187D01*
X0002135055Y0000210038D01*
X0002148252Y0000207413D01*
X0002161707Y0000207413D01*
X0002174904Y0000210038D01*
X0002187335Y0000215187D01*
X0002198523Y0000222662D01*
X0002208037Y0000232177D01*
X0002215513Y0000243365D01*
X0002220662Y0000255796D01*
X0002223287Y0000268992D01*
X0002223287Y0000282448D01*
X0002220662Y0000295645D01*
X0002215513Y0000308076D01*
X0002211765Y0000313684D01*
X0002245700Y0000313684D01*
X0002245812Y0000312544D01*
X0002245809Y0000312055D01*
X0002245844Y0000311694D01*
X0002247451Y0000296411D01*
X0002247924Y0000294106D01*
X0002248366Y0000291791D01*
X0002248470Y0000291444D01*
X0002253015Y0000276763D01*
X0002253927Y0000274592D01*
X0002254810Y0000272409D01*
X0002254980Y0000272088D01*
X0002262289Y0000258571D01*
X0002263605Y0000256620D01*
X0002264895Y0000254647D01*
X0002265125Y0000254366D01*
X0002274920Y0000242526D01*
X0002276591Y0000240867D01*
X0002278239Y0000239183D01*
X0002278519Y0000238952D01*
X0002290428Y0000229240D01*
X0002292389Y0000227936D01*
X0002294332Y0000226606D01*
X0002294651Y0000226433D01*
X0002308220Y0000219219D01*
X0002310397Y0000218321D01*
X0002312562Y0000217393D01*
X0002312909Y0000217286D01*
X0002327620Y0000212844D01*
X0002329931Y0000212387D01*
X0002332234Y0000211897D01*
X0002332595Y0000211859D01*
X0002347889Y0000210360D01*
X0002347889Y0000210360D01*
X0002349148Y0000210236D01*
X0002532098Y0000210236D01*
X0002520936Y0000202778D01*
X0002511422Y0000193263D01*
X0002503947Y0000182076D01*
X0002498797Y0000169645D01*
X0002496172Y0000156448D01*
X0002496172Y0000142992D01*
X0002498797Y0000129796D01*
X0002503947Y0000117365D01*
X0002511422Y0000106177D01*
X0002520936Y0000096662D01*
X0002532124Y0000089187D01*
X0002544555Y0000084038D01*
X0002557752Y0000081413D01*
X0002571207Y0000081413D01*
X0002584404Y0000084038D01*
X0002596835Y0000089187D01*
X0002608023Y0000096662D01*
X0002617537Y0000106177D01*
X0002625013Y0000117365D01*
X0002630162Y0000129796D01*
X0002632787Y0000142992D01*
X0002632787Y0000156448D01*
X0002630162Y0000169645D01*
X0002625013Y0000182076D01*
X0002617537Y0000193263D01*
X0002608023Y0000202778D01*
X0002596861Y0000210236D01*
X0003028098Y0000210236D01*
X0003016936Y0000202778D01*
X0003007422Y0000193263D01*
X0002999947Y0000182076D01*
X0002994797Y0000169645D01*
X0002992172Y0000156448D01*
X0002992172Y0000142992D01*
X0002994797Y0000129796D01*
X0002999947Y0000117365D01*
X0003007422Y0000106177D01*
X0003016936Y0000096662D01*
X0003028124Y0000089187D01*
X0003040555Y0000084038D01*
X0003053752Y0000081413D01*
X0003067207Y0000081413D01*
X0003080404Y0000084038D01*
X0003092835Y0000089187D01*
X0003104023Y0000096662D01*
X0003113537Y0000106177D01*
X0003121013Y0000117365D01*
X0003126162Y0000129796D01*
X0003128787Y0000142992D01*
X0003128787Y0000156448D01*
X0003126162Y0000169645D01*
X0003121013Y0000182076D01*
X0003113537Y0000193263D01*
X0003104023Y0000202778D01*
X0003092861Y0000210236D01*
X0003280756Y0000210236D01*
X0003281896Y0000210348D01*
X0003282384Y0000210345D01*
X0003282745Y0000210380D01*
X0003298029Y0000211986D01*
X0003300334Y0000212460D01*
X0003302649Y0000212901D01*
X0003302996Y0000213006D01*
X0003317676Y0000217550D01*
X0003319848Y0000218463D01*
X0003322031Y0000219345D01*
X0003322351Y0000219516D01*
X0003335869Y0000226825D01*
X0003337820Y0000228141D01*
X0003339792Y0000229431D01*
X0003340074Y0000229661D01*
X0003351914Y0000239456D01*
X0003353573Y0000241127D01*
X0003355256Y0000242775D01*
X0003355488Y0000243054D01*
X0003365200Y0000254963D01*
X0003366504Y0000256925D01*
X0003367834Y0000258868D01*
X0003368007Y0000259187D01*
X0003375221Y0000272756D01*
X0003376119Y0000274933D01*
X0003377046Y0000277098D01*
X0003377154Y0000277444D01*
X0003378664Y0000282448D01*
X0003401172Y0000282448D01*
X0003401172Y0000268992D01*
X0003403797Y0000255796D01*
X0003408947Y0000243365D01*
X0003416422Y0000232177D01*
X0003425936Y0000222662D01*
X0003437124Y0000215187D01*
X0003449555Y0000210038D01*
X0003462752Y0000207413D01*
X0003476207Y0000207413D01*
X0003489404Y0000210038D01*
X0003501835Y0000215187D01*
X0003513023Y0000222662D01*
X0003522537Y0000232177D01*
X0003530013Y0000243365D01*
X0003535162Y0000255796D01*
X0003537787Y0000268992D01*
X0003537787Y0000282448D01*
X0003535162Y0000295645D01*
X0003530013Y0000308076D01*
X0003522537Y0000319263D01*
X0003513023Y0000328778D01*
X0003501835Y0000336253D01*
X0003489404Y0000341402D01*
X0003476207Y0000344027D01*
X0003462752Y0000344027D01*
X0003449555Y0000341402D01*
X0003437124Y0000336253D01*
X0003425936Y0000328778D01*
X0003416422Y0000319263D01*
X0003408947Y0000308076D01*
X0003403797Y0000295645D01*
X0003401172Y0000282448D01*
X0003378664Y0000282448D01*
X0003381595Y0000292156D01*
X0003382053Y0000294466D01*
X0003382542Y0000296770D01*
X0003382580Y0000297131D01*
X0003384080Y0000312425D01*
X0003384080Y0000312425D01*
X0003384204Y0000313684D01*
X0003384204Y0000670567D01*
X0003384092Y0000671707D01*
X0003384095Y0000672196D01*
X0003384060Y0000672557D01*
X0003382453Y0000687840D01*
X0003381980Y0000690145D01*
X0003381539Y0000692460D01*
X0003381434Y0000692808D01*
X0003376889Y0000707488D01*
X0003375977Y0000709659D01*
X0003375095Y0000711842D01*
X0003374924Y0000712163D01*
X0003374924Y0000712163D01*
X0003374924Y0000712163D01*
X0003373148Y0000715448D01*
X0003401672Y0000715448D01*
X0003401672Y0000701992D01*
X0003404297Y0000688796D01*
X0003409447Y0000676365D01*
X0003416922Y0000665177D01*
X0003426436Y0000655662D01*
X0003437624Y0000648187D01*
X0003450055Y0000643038D01*
X0003463252Y0000640413D01*
X0003476707Y0000640413D01*
X0003489904Y0000643038D01*
X0003502335Y0000648187D01*
X0003513523Y0000655662D01*
X0003523037Y0000665177D01*
X0003530513Y0000676365D01*
X0003535662Y0000688796D01*
X0003538287Y0000701992D01*
X0003538287Y0000715448D01*
X0003535662Y0000728645D01*
X0003530513Y0000741076D01*
X0003523037Y0000752263D01*
X0003513523Y0000761778D01*
X0003502335Y0000769253D01*
X0003489904Y0000774402D01*
X0003476707Y0000777027D01*
X0003463252Y0000777027D01*
X0003450055Y0000774402D01*
X0003437624Y0000769253D01*
X0003426436Y0000761778D01*
X0003416922Y0000752263D01*
X0003409447Y0000741076D01*
X0003404297Y0000728645D01*
X0003401672Y0000715448D01*
X0003373148Y0000715448D01*
X0003367615Y0000725681D01*
X0003366298Y0000727633D01*
X0003365009Y0000729604D01*
X0003364779Y0000729885D01*
X0003354984Y0000741726D01*
X0003353313Y0000743385D01*
X0003351665Y0000745068D01*
X0003351385Y0000745299D01*
X0003339477Y0000755012D01*
X0003337515Y0000756315D01*
X0003335572Y0000757645D01*
X0003335253Y0000757818D01*
X0003321684Y0000765033D01*
X0003319507Y0000765930D01*
X0003317342Y0000766858D01*
X0003316995Y0000766965D01*
X0003302284Y0000771407D01*
X0003299973Y0000771864D01*
X0003297670Y0000772354D01*
X0003297309Y0000772392D01*
X0003282015Y0000773891D01*
X0003282015Y0000773891D01*
X0003280756Y0000774015D01*
X0003091920Y0000774015D01*
X0003092335Y0000774187D01*
X0003103523Y0000781662D01*
X0003113037Y0000791177D01*
X0003120513Y0000802365D01*
X0003125662Y0000814796D01*
X0003128287Y0000827992D01*
X0003128287Y0000841448D01*
X0003125662Y0000854645D01*
X0003120513Y0000867076D01*
X0003113037Y0000878263D01*
X0003103523Y0000887778D01*
X0003092335Y0000895253D01*
X0003079904Y0000900402D01*
X0003066707Y0000903027D01*
X0003053252Y0000903027D01*
X0003040055Y0000900402D01*
X0003027624Y0000895253D01*
X0003016436Y0000887778D01*
X0003006922Y0000878263D01*
X0002999447Y0000867076D01*
X0002994297Y0000854645D01*
X0002991672Y0000841448D01*
X0002991672Y0000827992D01*
X0002994297Y0000814796D01*
X0002999447Y0000802365D01*
X0003006922Y0000791177D01*
X0003016436Y0000781662D01*
X0003027624Y0000774187D01*
X0003028039Y0000774015D01*
X0002596920Y0000774015D01*
X0002597335Y0000774187D01*
X0002608523Y0000781662D01*
X0002618037Y0000791177D01*
X0002625513Y0000802365D01*
X0002630662Y0000814796D01*
X0002633287Y0000827992D01*
X0002633287Y0000841448D01*
X0002630662Y0000854645D01*
X0002625513Y0000867076D01*
X0002618037Y0000878263D01*
X0002608523Y0000887778D01*
X0002597335Y0000895253D01*
X0002584904Y0000900402D01*
X0002571707Y0000903027D01*
X0002558252Y0000903027D01*
X0002545055Y0000900402D01*
X0002532624Y0000895253D01*
X0002521436Y0000887778D01*
X0002511922Y0000878263D01*
X0002504447Y0000867076D01*
X0002499297Y0000854645D01*
X0002496672Y0000841448D01*
X0002496672Y0000827992D01*
X0002499297Y0000814796D01*
X0002504447Y0000802365D01*
X0002511922Y0000791177D01*
X0002521436Y0000781662D01*
X0002532624Y0000774187D01*
X0002533039Y0000774015D01*
X0002349148Y0000774015D01*
X0002348008Y0000773903D01*
X0002347520Y0000773906D01*
X0002347159Y0000773871D01*
X0002331875Y0000772265D01*
X0002329570Y0000771791D01*
X0002327255Y0000771350D01*
X0002326908Y0000771245D01*
X0002312228Y0000766701D01*
X0002310056Y0000765788D01*
X0002307873Y0000764906D01*
X0002307553Y0000764736D01*
X0002307553Y0000764736D01*
X0002307553Y0000764735D01*
X0002294035Y0000757426D01*
X0002292082Y0000756109D01*
X0002290112Y0000754820D01*
X0002289831Y0000754591D01*
X0002277990Y0000744795D01*
X0002276331Y0000743124D01*
X0002274648Y0000741476D01*
X0002274416Y0000741197D01*
X0002264704Y0000729288D01*
X0002263401Y0000727327D01*
X0002262070Y0000725383D01*
X0002261897Y0000725064D01*
X0002254683Y0000711495D01*
X0002253785Y0000709318D01*
X0002252858Y0000707153D01*
X0002252750Y0000706807D01*
X0002248309Y0000692095D01*
X0002247851Y0000689785D01*
X0002247362Y0000687481D01*
X0002247324Y0000687121D01*
X0002245824Y0000671827D01*
X0002245824Y0000671826D01*
X0002245700Y0000670567D01*
X0002245700Y0000313684D01*
X0002211765Y0000313684D01*
X0002208037Y0000319263D01*
X0002198523Y0000328778D01*
X0002187335Y0000336253D01*
X0002174904Y0000341402D01*
X0002161707Y0000344027D01*
X0002148252Y0000344027D01*
X0002135055Y0000341402D01*
X0002122624Y0000336253D01*
X0002111436Y0000328778D01*
X0002101922Y0000319263D01*
X0002094447Y0000308076D01*
X0002089297Y0000295645D01*
X0002086672Y0000282448D01*
X0002061448Y0000282448D01*
X0002061448Y0000715448D01*
X0002086672Y0000715448D01*
X0002086672Y0000701992D01*
X0002089297Y0000688796D01*
X0002094447Y0000676365D01*
X0002101922Y0000665177D01*
X0002111436Y0000655662D01*
X0002122624Y0000648187D01*
X0002135055Y0000643038D01*
X0002148252Y0000640413D01*
X0002161707Y0000640413D01*
X0002174904Y0000643038D01*
X0002187335Y0000648187D01*
X0002198523Y0000655662D01*
X0002208037Y0000665177D01*
X0002215513Y0000676365D01*
X0002220662Y0000688796D01*
X0002223287Y0000701992D01*
X0002223287Y0000715448D01*
X0002220662Y0000728645D01*
X0002215513Y0000741076D01*
X0002208037Y0000752263D01*
X0002198523Y0000761778D01*
X0002187335Y0000769253D01*
X0002174904Y0000774402D01*
X0002161707Y0000777027D01*
X0002148252Y0000777027D01*
X0002135055Y0000774402D01*
X0002122624Y0000769253D01*
X0002111436Y0000761778D01*
X0002101922Y0000752263D01*
X0002094447Y0000741076D01*
X0002089297Y0000728645D01*
X0002086672Y0000715448D01*
X0002061448Y0000715448D01*
X0002061448Y0000904241D01*
X0002062575Y0000915735D01*
X0002065544Y0000925568D01*
X0002070367Y0000934638D01*
X0002076859Y0000942598D01*
X0002084773Y0000949146D01*
X0002093809Y0000954031D01*
X0002103622Y0000957069D01*
X0002115035Y0000958268D01*
X0003514429Y0000958268D01*
X0003525923Y0000957141D01*
G37*
G04 next file*
G04 #@! TF.GenerationSoftware,KiCad,Pcbnew,(5.1.12)-1*
G04 #@! TF.CreationDate,2022-03-26T22:12:51+08:00*
G04 #@! TF.ProjectId,Nozzle,4e6f7a7a-6c65-42e6-9b69-6361645f7063,0.5*
G04 #@! TF.SameCoordinates,Original*
G04 #@! TF.FileFunction,Copper,L2,Bot*
G04 #@! TF.FilePolarity,Positive*
G04 Gerber Fmt 4.6, Leading zero omitted, Abs format (unit mm)*
G04 Created by KiCad (PCBNEW (5.1.12)-1) date 2022-03-26 22:12:51*
G01*
G04 APERTURE LIST*
G04 #@! TA.AperFunction,NonConductor*
G04 #@! TD*
G04 #@! TA.AperFunction,NonConductor*
G04 #@! TD*
G04 APERTURE END LIST*
D22*
X0001494773Y0003101763D02*
X0001504607Y0003098794D01*
X0001513676Y0003093972D01*
X0001521636Y0003087480D01*
X0001528184Y0003079565D01*
X0001533070Y0003070530D01*
X0001536107Y0003060717D01*
X0001537307Y0003049304D01*
X0001537307Y0002224633D01*
X0001536180Y0002213139D01*
X0001533211Y0002203305D01*
X0001528388Y0002194236D01*
X0001521896Y0002186276D01*
X0001513982Y0002179728D01*
X0001504946Y0002174843D01*
X0001495134Y0002171805D01*
X0001483720Y0002170606D01*
X0000084326Y0002170606D01*
X0000072832Y0002171733D01*
X0000062999Y0002174702D01*
X0000053929Y0002179524D01*
X0000045969Y0002186016D01*
X0000039422Y0002193931D01*
X0000034536Y0002202966D01*
X0000031499Y0002212779D01*
X0000030299Y0002224192D01*
X0000030299Y0002427070D01*
X0000055523Y0002427070D01*
X0000055523Y0002413614D01*
X0000058148Y0002400418D01*
X0000063297Y0002387986D01*
X0000070773Y0002376799D01*
X0000080287Y0002367284D01*
X0000091475Y0002359809D01*
X0000103906Y0002354660D01*
X0000117103Y0002352035D01*
X0000130558Y0002352035D01*
X0000143755Y0002354660D01*
X0000156186Y0002359809D01*
X0000167373Y0002367284D01*
X0000176888Y0002376799D01*
X0000184363Y0002387986D01*
X0000189512Y0002400418D01*
X0000192137Y0002413614D01*
X0000192137Y0002427070D01*
X0000189512Y0002440266D01*
X0000184363Y0002452698D01*
X0000180616Y0002458306D01*
X0000214551Y0002458306D01*
X0000214663Y0002457166D01*
X0000214660Y0002456677D01*
X0000214695Y0002456316D01*
X0000216301Y0002441033D01*
X0000216775Y0002438728D01*
X0000217216Y0002436413D01*
X0000217321Y0002436065D01*
X0000221865Y0002421385D01*
X0000222778Y0002419214D01*
X0000223660Y0002417031D01*
X0000223830Y0002416710D01*
X0000231140Y0002403192D01*
X0000232455Y0002401242D01*
X0000233746Y0002399269D01*
X0000233975Y0002398988D01*
X0000243771Y0002387147D01*
X0000245442Y0002385488D01*
X0000247090Y0002383805D01*
X0000247369Y0002383574D01*
X0000259278Y0002373861D01*
X0000261240Y0002372558D01*
X0000263183Y0002371228D01*
X0000263502Y0002371055D01*
X0000277071Y0002363841D01*
X0000279248Y0002362943D01*
X0000281413Y0002362015D01*
X0000281759Y0002361908D01*
X0000296471Y0002357466D01*
X0000298781Y0002357009D01*
X0000301085Y0002356519D01*
X0000301445Y0002356481D01*
X0000316740Y0002354982D01*
X0000316740Y0002354982D01*
X0000317999Y0002354858D01*
X0000500949Y0002354858D01*
X0000489787Y0002347400D01*
X0000480273Y0002337885D01*
X0000472797Y0002326698D01*
X0000467648Y0002314266D01*
X0000465023Y0002301070D01*
X0000465023Y0002287614D01*
X0000467648Y0002274418D01*
X0000472797Y0002261986D01*
X0000480273Y0002250799D01*
X0000489787Y0002241284D01*
X0000500975Y0002233809D01*
X0000513406Y0002228660D01*
X0000526603Y0002226035D01*
X0000540058Y0002226035D01*
X0000553255Y0002228660D01*
X0000565686Y0002233809D01*
X0000576873Y0002241284D01*
X0000586388Y0002250799D01*
X0000593863Y0002261986D01*
X0000599012Y0002274418D01*
X0000601637Y0002287614D01*
X0000601637Y0002301070D01*
X0000599012Y0002314266D01*
X0000593863Y0002326698D01*
X0000586388Y0002337885D01*
X0000576873Y0002347400D01*
X0000565712Y0002354858D01*
X0000996949Y0002354858D01*
X0000985787Y0002347400D01*
X0000976273Y0002337885D01*
X0000968797Y0002326698D01*
X0000963648Y0002314266D01*
X0000961023Y0002301070D01*
X0000961023Y0002287614D01*
X0000963648Y0002274418D01*
X0000968797Y0002261986D01*
X0000976273Y0002250799D01*
X0000985787Y0002241284D01*
X0000996975Y0002233809D01*
X0001009406Y0002228660D01*
X0001022603Y0002226035D01*
X0001036058Y0002226035D01*
X0001049255Y0002228660D01*
X0001061686Y0002233809D01*
X0001072873Y0002241284D01*
X0001082388Y0002250799D01*
X0001089863Y0002261986D01*
X0001095012Y0002274418D01*
X0001097637Y0002287614D01*
X0001097637Y0002301070D01*
X0001095012Y0002314266D01*
X0001089863Y0002326698D01*
X0001082388Y0002337885D01*
X0001072873Y0002347400D01*
X0001061712Y0002354858D01*
X0001249607Y0002354858D01*
X0001250746Y0002354970D01*
X0001251235Y0002354967D01*
X0001251596Y0002355002D01*
X0001266879Y0002356608D01*
X0001269185Y0002357082D01*
X0001271500Y0002357523D01*
X0001271847Y0002357628D01*
X0001286527Y0002362172D01*
X0001288698Y0002363085D01*
X0001290882Y0002363967D01*
X0001291202Y0002364137D01*
X0001304720Y0002371447D01*
X0001306671Y0002372762D01*
X0001308643Y0002374053D01*
X0001308924Y0002374282D01*
X0001320765Y0002384078D01*
X0001322424Y0002385749D01*
X0001324107Y0002387397D01*
X0001324338Y0002387676D01*
X0001334051Y0002399585D01*
X0001335354Y0002401547D01*
X0001336685Y0002403490D01*
X0001336857Y0002403809D01*
X0001344072Y0002417378D01*
X0001344969Y0002419555D01*
X0001345897Y0002421720D01*
X0001346004Y0002422066D01*
X0001347515Y0002427070D01*
X0001370023Y0002427070D01*
X0001370023Y0002413614D01*
X0001372648Y0002400418D01*
X0001377797Y0002387986D01*
X0001385273Y0002376799D01*
X0001394787Y0002367284D01*
X0001405975Y0002359809D01*
X0001418406Y0002354660D01*
X0001431603Y0002352035D01*
X0001445058Y0002352035D01*
X0001458255Y0002354660D01*
X0001470686Y0002359809D01*
X0001481873Y0002367284D01*
X0001491388Y0002376799D01*
X0001498863Y0002387986D01*
X0001504012Y0002400418D01*
X0001506637Y0002413614D01*
X0001506637Y0002427070D01*
X0001504012Y0002440266D01*
X0001498863Y0002452698D01*
X0001491388Y0002463885D01*
X0001481873Y0002473400D01*
X0001470686Y0002480875D01*
X0001458255Y0002486024D01*
X0001445058Y0002488649D01*
X0001431603Y0002488649D01*
X0001418406Y0002486024D01*
X0001405975Y0002480875D01*
X0001394787Y0002473400D01*
X0001385273Y0002463885D01*
X0001377797Y0002452698D01*
X0001372648Y0002440266D01*
X0001370023Y0002427070D01*
X0001347515Y0002427070D01*
X0001350446Y0002436778D01*
X0001350903Y0002439088D01*
X0001351393Y0002441392D01*
X0001351431Y0002441752D01*
X0001352931Y0002457047D01*
X0001352931Y0002457047D01*
X0001353055Y0002458306D01*
X0001353055Y0002815189D01*
X0001352942Y0002816329D01*
X0001352946Y0002816818D01*
X0001352910Y0002817179D01*
X0001351304Y0002832462D01*
X0001350831Y0002834767D01*
X0001350389Y0002837082D01*
X0001350284Y0002837430D01*
X0001345740Y0002852110D01*
X0001344827Y0002854281D01*
X0001343945Y0002856464D01*
X0001343775Y0002856785D01*
X0001343775Y0002856785D01*
X0001343775Y0002856785D01*
X0001341999Y0002860070D01*
X0001370523Y0002860070D01*
X0001370523Y0002846614D01*
X0001373148Y0002833418D01*
X0001378297Y0002820986D01*
X0001385773Y0002809799D01*
X0001395287Y0002800284D01*
X0001406475Y0002792809D01*
X0001418906Y0002787660D01*
X0001432103Y0002785035D01*
X0001445558Y0002785035D01*
X0001458755Y0002787660D01*
X0001471186Y0002792809D01*
X0001482373Y0002800284D01*
X0001491888Y0002809799D01*
X0001499363Y0002820986D01*
X0001504512Y0002833418D01*
X0001507137Y0002846614D01*
X0001507137Y0002860070D01*
X0001504512Y0002873266D01*
X0001499363Y0002885698D01*
X0001491888Y0002896885D01*
X0001482373Y0002906400D01*
X0001471186Y0002913875D01*
X0001458755Y0002919024D01*
X0001445558Y0002921649D01*
X0001432103Y0002921649D01*
X0001418906Y0002919024D01*
X0001406475Y0002913875D01*
X0001395287Y0002906400D01*
X0001385773Y0002896885D01*
X0001378297Y0002885698D01*
X0001373148Y0002873266D01*
X0001370523Y0002860070D01*
X0001341999Y0002860070D01*
X0001336466Y0002870303D01*
X0001335149Y0002872255D01*
X0001333859Y0002874226D01*
X0001333630Y0002874507D01*
X0001323834Y0002886348D01*
X0001322164Y0002888007D01*
X0001320516Y0002889690D01*
X0001320236Y0002889921D01*
X0001308327Y0002899634D01*
X0001306366Y0002900937D01*
X0001304422Y0002902267D01*
X0001304103Y0002902440D01*
X0001290535Y0002909654D01*
X0001288357Y0002910552D01*
X0001286193Y0002911480D01*
X0001285846Y0002911587D01*
X0001271135Y0002916029D01*
X0001268824Y0002916486D01*
X0001266521Y0002916976D01*
X0001266160Y0002917014D01*
X0001250866Y0002918513D01*
X0001250866Y0002918513D01*
X0001249607Y0002918637D01*
X0001060771Y0002918637D01*
X0001061186Y0002918809D01*
X0001072373Y0002926284D01*
X0001081888Y0002935799D01*
X0001089363Y0002946986D01*
X0001094512Y0002959418D01*
X0001097137Y0002972614D01*
X0001097137Y0002986070D01*
X0001094512Y0002999266D01*
X0001089363Y0003011698D01*
X0001081888Y0003022885D01*
X0001072373Y0003032400D01*
X0001061186Y0003039875D01*
X0001048755Y0003045024D01*
X0001035558Y0003047649D01*
X0001022103Y0003047649D01*
X0001008906Y0003045024D01*
X0000996475Y0003039875D01*
X0000985287Y0003032400D01*
X0000975773Y0003022885D01*
X0000968297Y0003011698D01*
X0000963148Y0002999266D01*
X0000960523Y0002986070D01*
X0000960523Y0002972614D01*
X0000963148Y0002959418D01*
X0000968297Y0002946986D01*
X0000975773Y0002935799D01*
X0000985287Y0002926284D01*
X0000996475Y0002918809D01*
X0000996889Y0002918637D01*
X0000565771Y0002918637D01*
X0000566186Y0002918809D01*
X0000577373Y0002926284D01*
X0000586888Y0002935799D01*
X0000594363Y0002946986D01*
X0000599512Y0002959418D01*
X0000602137Y0002972614D01*
X0000602137Y0002986070D01*
X0000599512Y0002999266D01*
X0000594363Y0003011698D01*
X0000586888Y0003022885D01*
X0000577373Y0003032400D01*
X0000566186Y0003039875D01*
X0000553755Y0003045024D01*
X0000540558Y0003047649D01*
X0000527103Y0003047649D01*
X0000513906Y0003045024D01*
X0000501475Y0003039875D01*
X0000490287Y0003032400D01*
X0000480773Y0003022885D01*
X0000473297Y0003011698D01*
X0000468148Y0002999266D01*
X0000465523Y0002986070D01*
X0000465523Y0002972614D01*
X0000468148Y0002959418D01*
X0000473297Y0002946986D01*
X0000480773Y0002935799D01*
X0000490287Y0002926284D01*
X0000501475Y0002918809D01*
X0000501889Y0002918637D01*
X0000317999Y0002918637D01*
X0000316859Y0002918525D01*
X0000316370Y0002918528D01*
X0000316009Y0002918493D01*
X0000300726Y0002916887D01*
X0000298421Y0002916413D01*
X0000296106Y0002915972D01*
X0000295758Y0002915867D01*
X0000281078Y0002911323D01*
X0000278907Y0002910410D01*
X0000276724Y0002909528D01*
X0000276404Y0002909358D01*
X0000276403Y0002909357D01*
X0000276403Y0002909357D01*
X0000262885Y0002902048D01*
X0000260933Y0002900731D01*
X0000258962Y0002899442D01*
X0000258681Y0002899213D01*
X0000246840Y0002889417D01*
X0000245181Y0002887746D01*
X0000243498Y0002886098D01*
X0000243267Y0002885819D01*
X0000233554Y0002873910D01*
X0000232251Y0002871949D01*
X0000230921Y0002870005D01*
X0000230748Y0002869686D01*
X0000223533Y0002856117D01*
X0000222636Y0002853940D01*
X0000221708Y0002851775D01*
X0000221601Y0002851429D01*
X0000217159Y0002836717D01*
X0000216702Y0002834407D01*
X0000216212Y0002832103D01*
X0000216174Y0002831743D01*
X0000214675Y0002816448D01*
X0000214675Y0002816448D01*
X0000214551Y0002815189D01*
X0000214551Y0002458306D01*
X0000180616Y0002458306D01*
X0000176888Y0002463885D01*
X0000167373Y0002473400D01*
X0000156186Y0002480875D01*
X0000143755Y0002486024D01*
X0000130558Y0002488649D01*
X0000117103Y0002488649D01*
X0000103906Y0002486024D01*
X0000091475Y0002480875D01*
X0000080287Y0002473400D01*
X0000070773Y0002463885D01*
X0000063297Y0002452698D01*
X0000058148Y0002440266D01*
X0000055523Y0002427070D01*
X0000030299Y0002427070D01*
X0000030299Y0002860070D01*
X0000055523Y0002860070D01*
X0000055523Y0002846614D01*
X0000058148Y0002833418D01*
X0000063297Y0002820986D01*
X0000070773Y0002809799D01*
X0000080287Y0002800284D01*
X0000091475Y0002792809D01*
X0000103906Y0002787660D01*
X0000117103Y0002785035D01*
X0000130558Y0002785035D01*
X0000143755Y0002787660D01*
X0000156186Y0002792809D01*
X0000167373Y0002800284D01*
X0000176888Y0002809799D01*
X0000184363Y0002820986D01*
X0000189512Y0002833418D01*
X0000192137Y0002846614D01*
X0000192137Y0002860070D01*
X0000189512Y0002873266D01*
X0000184363Y0002885698D01*
X0000176888Y0002896885D01*
X0000167373Y0002906400D01*
X0000156186Y0002913875D01*
X0000143755Y0002919024D01*
X0000130558Y0002921649D01*
X0000117103Y0002921649D01*
X0000103906Y0002919024D01*
X0000091475Y0002913875D01*
X0000080287Y0002906400D01*
X0000070773Y0002896885D01*
X0000063297Y0002885698D01*
X0000058148Y0002873266D01*
X0000055523Y0002860070D01*
X0000030299Y0002860070D01*
X0000030299Y0003048863D01*
X0000031426Y0003060357D01*
X0000034395Y0003070190D01*
X0000039217Y0003079260D01*
X0000045709Y0003087220D01*
X0000053624Y0003093767D01*
X0000062660Y0003098653D01*
X0000072472Y0003101690D01*
X0000083885Y0003102890D01*
X0001483280Y0003102890D01*
X0001494773Y0003101763D01*
G04 #@! TA.AperFunction,NonConductor*
D23*
G36*
X0001494773Y0003101763D02*
G01*
X0001504607Y0003098794D01*
X0001513676Y0003093972D01*
X0001521636Y0003087480D01*
X0001528184Y0003079565D01*
X0001533070Y0003070530D01*
X0001536107Y0003060717D01*
X0001537307Y0003049304D01*
X0001537307Y0002224633D01*
X0001536180Y0002213139D01*
X0001533211Y0002203305D01*
X0001528388Y0002194236D01*
X0001521896Y0002186276D01*
X0001513982Y0002179728D01*
X0001504946Y0002174843D01*
X0001495134Y0002171805D01*
X0001483720Y0002170606D01*
X0000084326Y0002170606D01*
X0000072832Y0002171733D01*
X0000062999Y0002174702D01*
X0000053929Y0002179524D01*
X0000045969Y0002186016D01*
X0000039422Y0002193931D01*
X0000034536Y0002202966D01*
X0000031499Y0002212779D01*
X0000030299Y0002224192D01*
X0000030299Y0002427070D01*
X0000055523Y0002427070D01*
X0000055523Y0002413614D01*
X0000058148Y0002400418D01*
X0000063297Y0002387986D01*
X0000070773Y0002376799D01*
X0000080287Y0002367284D01*
X0000091475Y0002359809D01*
X0000103906Y0002354660D01*
X0000117103Y0002352035D01*
X0000130558Y0002352035D01*
X0000143755Y0002354660D01*
X0000156186Y0002359809D01*
X0000167373Y0002367284D01*
X0000176888Y0002376799D01*
X0000184363Y0002387986D01*
X0000189512Y0002400418D01*
X0000192137Y0002413614D01*
X0000192137Y0002427070D01*
X0000189512Y0002440266D01*
X0000184363Y0002452698D01*
X0000180616Y0002458306D01*
X0000214551Y0002458306D01*
X0000214663Y0002457166D01*
X0000214660Y0002456677D01*
X0000214695Y0002456316D01*
X0000216301Y0002441033D01*
X0000216775Y0002438728D01*
X0000217216Y0002436413D01*
X0000217321Y0002436065D01*
X0000221865Y0002421385D01*
X0000222778Y0002419214D01*
X0000223660Y0002417031D01*
X0000223830Y0002416710D01*
X0000231140Y0002403192D01*
X0000232455Y0002401242D01*
X0000233746Y0002399269D01*
X0000233975Y0002398988D01*
X0000243771Y0002387147D01*
X0000245442Y0002385488D01*
X0000247090Y0002383805D01*
X0000247369Y0002383574D01*
X0000259278Y0002373861D01*
X0000261240Y0002372558D01*
X0000263183Y0002371228D01*
X0000263502Y0002371055D01*
X0000277071Y0002363841D01*
X0000279248Y0002362943D01*
X0000281413Y0002362015D01*
X0000281759Y0002361908D01*
X0000296471Y0002357466D01*
X0000298781Y0002357009D01*
X0000301085Y0002356519D01*
X0000301445Y0002356481D01*
X0000316740Y0002354982D01*
X0000316740Y0002354982D01*
X0000317999Y0002354858D01*
X0000500949Y0002354858D01*
X0000489787Y0002347400D01*
X0000480273Y0002337885D01*
X0000472797Y0002326698D01*
X0000467648Y0002314266D01*
X0000465023Y0002301070D01*
X0000465023Y0002287614D01*
X0000467648Y0002274418D01*
X0000472797Y0002261986D01*
X0000480273Y0002250799D01*
X0000489787Y0002241284D01*
X0000500975Y0002233809D01*
X0000513406Y0002228660D01*
X0000526603Y0002226035D01*
X0000540058Y0002226035D01*
X0000553255Y0002228660D01*
X0000565686Y0002233809D01*
X0000576873Y0002241284D01*
X0000586388Y0002250799D01*
X0000593863Y0002261986D01*
X0000599012Y0002274418D01*
X0000601637Y0002287614D01*
X0000601637Y0002301070D01*
X0000599012Y0002314266D01*
X0000593863Y0002326698D01*
X0000586388Y0002337885D01*
X0000576873Y0002347400D01*
X0000565712Y0002354858D01*
X0000996949Y0002354858D01*
X0000985787Y0002347400D01*
X0000976273Y0002337885D01*
X0000968797Y0002326698D01*
X0000963648Y0002314266D01*
X0000961023Y0002301070D01*
X0000961023Y0002287614D01*
X0000963648Y0002274418D01*
X0000968797Y0002261986D01*
X0000976273Y0002250799D01*
X0000985787Y0002241284D01*
X0000996975Y0002233809D01*
X0001009406Y0002228660D01*
X0001022603Y0002226035D01*
X0001036058Y0002226035D01*
X0001049255Y0002228660D01*
X0001061686Y0002233809D01*
X0001072873Y0002241284D01*
X0001082388Y0002250799D01*
X0001089863Y0002261986D01*
X0001095012Y0002274418D01*
X0001097637Y0002287614D01*
X0001097637Y0002301070D01*
X0001095012Y0002314266D01*
X0001089863Y0002326698D01*
X0001082388Y0002337885D01*
X0001072873Y0002347400D01*
X0001061712Y0002354858D01*
X0001249607Y0002354858D01*
X0001250746Y0002354970D01*
X0001251235Y0002354967D01*
X0001251596Y0002355002D01*
X0001266879Y0002356608D01*
X0001269185Y0002357082D01*
X0001271500Y0002357523D01*
X0001271847Y0002357628D01*
X0001286527Y0002362172D01*
X0001288698Y0002363085D01*
X0001290882Y0002363967D01*
X0001291202Y0002364137D01*
X0001304720Y0002371447D01*
X0001306671Y0002372762D01*
X0001308643Y0002374053D01*
X0001308924Y0002374282D01*
X0001320765Y0002384078D01*
X0001322424Y0002385749D01*
X0001324107Y0002387397D01*
X0001324338Y0002387676D01*
X0001334051Y0002399585D01*
X0001335354Y0002401547D01*
X0001336685Y0002403490D01*
X0001336857Y0002403809D01*
X0001344072Y0002417378D01*
X0001344969Y0002419555D01*
X0001345897Y0002421720D01*
X0001346004Y0002422066D01*
X0001347515Y0002427070D01*
X0001370023Y0002427070D01*
X0001370023Y0002413614D01*
X0001372648Y0002400418D01*
X0001377797Y0002387986D01*
X0001385273Y0002376799D01*
X0001394787Y0002367284D01*
X0001405975Y0002359809D01*
X0001418406Y0002354660D01*
X0001431603Y0002352035D01*
X0001445058Y0002352035D01*
X0001458255Y0002354660D01*
X0001470686Y0002359809D01*
X0001481873Y0002367284D01*
X0001491388Y0002376799D01*
X0001498863Y0002387986D01*
X0001504012Y0002400418D01*
X0001506637Y0002413614D01*
X0001506637Y0002427070D01*
X0001504012Y0002440266D01*
X0001498863Y0002452698D01*
X0001491388Y0002463885D01*
X0001481873Y0002473400D01*
X0001470686Y0002480875D01*
X0001458255Y0002486024D01*
X0001445058Y0002488649D01*
X0001431603Y0002488649D01*
X0001418406Y0002486024D01*
X0001405975Y0002480875D01*
X0001394787Y0002473400D01*
X0001385273Y0002463885D01*
X0001377797Y0002452698D01*
X0001372648Y0002440266D01*
X0001370023Y0002427070D01*
X0001347515Y0002427070D01*
X0001350446Y0002436778D01*
X0001350903Y0002439088D01*
X0001351393Y0002441392D01*
X0001351431Y0002441752D01*
X0001352931Y0002457047D01*
X0001352931Y0002457047D01*
X0001353055Y0002458306D01*
X0001353055Y0002815189D01*
X0001352942Y0002816329D01*
X0001352946Y0002816818D01*
X0001352910Y0002817179D01*
X0001351304Y0002832462D01*
X0001350831Y0002834767D01*
X0001350389Y0002837082D01*
X0001350284Y0002837430D01*
X0001345740Y0002852110D01*
X0001344827Y0002854281D01*
X0001343945Y0002856464D01*
X0001343775Y0002856785D01*
X0001343775Y0002856785D01*
X0001343775Y0002856785D01*
X0001341999Y0002860070D01*
X0001370523Y0002860070D01*
X0001370523Y0002846614D01*
X0001373148Y0002833418D01*
X0001378297Y0002820986D01*
X0001385773Y0002809799D01*
X0001395287Y0002800284D01*
X0001406475Y0002792809D01*
X0001418906Y0002787660D01*
X0001432103Y0002785035D01*
X0001445558Y0002785035D01*
X0001458755Y0002787660D01*
X0001471186Y0002792809D01*
X0001482373Y0002800284D01*
X0001491888Y0002809799D01*
X0001499363Y0002820986D01*
X0001504512Y0002833418D01*
X0001507137Y0002846614D01*
X0001507137Y0002860070D01*
X0001504512Y0002873266D01*
X0001499363Y0002885698D01*
X0001491888Y0002896885D01*
X0001482373Y0002906400D01*
X0001471186Y0002913875D01*
X0001458755Y0002919024D01*
X0001445558Y0002921649D01*
X0001432103Y0002921649D01*
X0001418906Y0002919024D01*
X0001406475Y0002913875D01*
X0001395287Y0002906400D01*
X0001385773Y0002896885D01*
X0001378297Y0002885698D01*
X0001373148Y0002873266D01*
X0001370523Y0002860070D01*
X0001341999Y0002860070D01*
X0001336466Y0002870303D01*
X0001335149Y0002872255D01*
X0001333859Y0002874226D01*
X0001333630Y0002874507D01*
X0001323834Y0002886348D01*
X0001322164Y0002888007D01*
X0001320516Y0002889690D01*
X0001320236Y0002889921D01*
X0001308327Y0002899634D01*
X0001306366Y0002900937D01*
X0001304422Y0002902267D01*
X0001304103Y0002902440D01*
X0001290535Y0002909654D01*
X0001288357Y0002910552D01*
X0001286193Y0002911480D01*
X0001285846Y0002911587D01*
X0001271135Y0002916029D01*
X0001268824Y0002916486D01*
X0001266521Y0002916976D01*
X0001266160Y0002917014D01*
X0001250866Y0002918513D01*
X0001250866Y0002918513D01*
X0001249607Y0002918637D01*
X0001060771Y0002918637D01*
X0001061186Y0002918809D01*
X0001072373Y0002926284D01*
X0001081888Y0002935799D01*
X0001089363Y0002946986D01*
X0001094512Y0002959418D01*
X0001097137Y0002972614D01*
X0001097137Y0002986070D01*
X0001094512Y0002999266D01*
X0001089363Y0003011698D01*
X0001081888Y0003022885D01*
X0001072373Y0003032400D01*
X0001061186Y0003039875D01*
X0001048755Y0003045024D01*
X0001035558Y0003047649D01*
X0001022103Y0003047649D01*
X0001008906Y0003045024D01*
X0000996475Y0003039875D01*
X0000985287Y0003032400D01*
X0000975773Y0003022885D01*
X0000968297Y0003011698D01*
X0000963148Y0002999266D01*
X0000960523Y0002986070D01*
X0000960523Y0002972614D01*
X0000963148Y0002959418D01*
X0000968297Y0002946986D01*
X0000975773Y0002935799D01*
X0000985287Y0002926284D01*
X0000996475Y0002918809D01*
X0000996889Y0002918637D01*
X0000565771Y0002918637D01*
X0000566186Y0002918809D01*
X0000577373Y0002926284D01*
X0000586888Y0002935799D01*
X0000594363Y0002946986D01*
X0000599512Y0002959418D01*
X0000602137Y0002972614D01*
X0000602137Y0002986070D01*
X0000599512Y0002999266D01*
X0000594363Y0003011698D01*
X0000586888Y0003022885D01*
X0000577373Y0003032400D01*
X0000566186Y0003039875D01*
X0000553755Y0003045024D01*
X0000540558Y0003047649D01*
X0000527103Y0003047649D01*
X0000513906Y0003045024D01*
X0000501475Y0003039875D01*
X0000490287Y0003032400D01*
X0000480773Y0003022885D01*
X0000473297Y0003011698D01*
X0000468148Y0002999266D01*
X0000465523Y0002986070D01*
X0000465523Y0002972614D01*
X0000468148Y0002959418D01*
X0000473297Y0002946986D01*
X0000480773Y0002935799D01*
X0000490287Y0002926284D01*
X0000501475Y0002918809D01*
X0000501889Y0002918637D01*
X0000317999Y0002918637D01*
X0000316859Y0002918525D01*
X0000316370Y0002918528D01*
X0000316009Y0002918493D01*
X0000300726Y0002916887D01*
X0000298421Y0002916413D01*
X0000296106Y0002915972D01*
X0000295758Y0002915867D01*
X0000281078Y0002911323D01*
X0000278907Y0002910410D01*
X0000276724Y0002909528D01*
X0000276404Y0002909358D01*
X0000276403Y0002909357D01*
X0000276403Y0002909357D01*
X0000262885Y0002902048D01*
X0000260933Y0002900731D01*
X0000258962Y0002899442D01*
X0000258681Y0002899213D01*
X0000246840Y0002889417D01*
X0000245181Y0002887746D01*
X0000243498Y0002886098D01*
X0000243267Y0002885819D01*
X0000233554Y0002873910D01*
X0000232251Y0002871949D01*
X0000230921Y0002870005D01*
X0000230748Y0002869686D01*
X0000223533Y0002856117D01*
X0000222636Y0002853940D01*
X0000221708Y0002851775D01*
X0000221601Y0002851429D01*
X0000217159Y0002836717D01*
X0000216702Y0002834407D01*
X0000216212Y0002832103D01*
X0000216174Y0002831743D01*
X0000214675Y0002816448D01*
X0000214675Y0002816448D01*
X0000214551Y0002815189D01*
X0000214551Y0002458306D01*
X0000180616Y0002458306D01*
X0000176888Y0002463885D01*
X0000167373Y0002473400D01*
X0000156186Y0002480875D01*
X0000143755Y0002486024D01*
X0000130558Y0002488649D01*
X0000117103Y0002488649D01*
X0000103906Y0002486024D01*
X0000091475Y0002480875D01*
X0000080287Y0002473400D01*
X0000070773Y0002463885D01*
X0000063297Y0002452698D01*
X0000058148Y0002440266D01*
X0000055523Y0002427070D01*
X0000030299Y0002427070D01*
X0000030299Y0002860070D01*
X0000055523Y0002860070D01*
X0000055523Y0002846614D01*
X0000058148Y0002833418D01*
X0000063297Y0002820986D01*
X0000070773Y0002809799D01*
X0000080287Y0002800284D01*
X0000091475Y0002792809D01*
X0000103906Y0002787660D01*
X0000117103Y0002785035D01*
X0000130558Y0002785035D01*
X0000143755Y0002787660D01*
X0000156186Y0002792809D01*
X0000167373Y0002800284D01*
X0000176888Y0002809799D01*
X0000184363Y0002820986D01*
X0000189512Y0002833418D01*
X0000192137Y0002846614D01*
X0000192137Y0002860070D01*
X0000189512Y0002873266D01*
X0000184363Y0002885698D01*
X0000176888Y0002896885D01*
X0000167373Y0002906400D01*
X0000156186Y0002913875D01*
X0000143755Y0002919024D01*
X0000130558Y0002921649D01*
X0000117103Y0002921649D01*
X0000103906Y0002919024D01*
X0000091475Y0002913875D01*
X0000080287Y0002906400D01*
X0000070773Y0002896885D01*
X0000063297Y0002885698D01*
X0000058148Y0002873266D01*
X0000055523Y0002860070D01*
X0000030299Y0002860070D01*
X0000030299Y0003048863D01*
X0000031426Y0003060357D01*
X0000034395Y0003070190D01*
X0000039217Y0003079260D01*
X0000045709Y0003087220D01*
X0000053624Y0003093767D01*
X0000062660Y0003098653D01*
X0000072472Y0003101690D01*
X0000083885Y0003102890D01*
X0001483280Y0003102890D01*
X0001494773Y0003101763D01*
G37*
G04 #@! TD.AperFunction*
G04 next file*
G04 #@! TF.GenerationSoftware,KiCad,Pcbnew,(5.1.12)-1*
G04 #@! TF.CreationDate,2022-03-26T22:12:51+08:00*
G04 #@! TF.ProjectId,Nozzle,4e6f7a7a-6c65-42e6-9b69-6361645f7063,0.5*
G04 #@! TF.SameCoordinates,Original*
G04 #@! TF.FileFunction,Copper,L2,Bot*
G04 #@! TF.FilePolarity,Positive*
G04 Gerber Fmt 4.6, Leading zero omitted, Abs format (unit mm)*
G04 Created by KiCad (PCBNEW (5.1.12)-1) date 2022-03-26 22:12:51*
G01*
G04 APERTURE LIST*
G04 #@! TA.AperFunction,NonConductor*
G04 #@! TD*
G04 #@! TA.AperFunction,NonConductor*
G04 #@! TD*
G04 APERTURE END LIST*
D24*
X0003525923Y0002024071D02*
X0003535756Y0002021102D01*
X0003544826Y0002016280D01*
X0003552786Y0002009787D01*
X0003559333Y0002001873D01*
X0003564219Y0001992837D01*
X0003567256Y0001983025D01*
X0003568456Y0001971611D01*
X0003568456Y0001146940D01*
X0003567329Y0001135447D01*
X0003564360Y0001125613D01*
X0003559538Y0001116544D01*
X0003553046Y0001108584D01*
X0003545131Y0001102036D01*
X0003536096Y0001097151D01*
X0003526283Y0001094113D01*
X0003514870Y0001092914D01*
X0002115475Y0001092914D01*
X0002103982Y0001094041D01*
X0002094148Y0001097009D01*
X0002085079Y0001101832D01*
X0002077119Y0001108324D01*
X0002070571Y0001116239D01*
X0002065686Y0001125274D01*
X0002062648Y0001135087D01*
X0002061448Y0001146500D01*
X0002061448Y0001349377D01*
X0002086672Y0001349377D01*
X0002086672Y0001335922D01*
X0002089297Y0001322725D01*
X0002094447Y0001310294D01*
X0002101922Y0001299107D01*
X0002111436Y0001289592D01*
X0002122624Y0001282117D01*
X0002135055Y0001276968D01*
X0002148252Y0001274343D01*
X0002161707Y0001274343D01*
X0002174904Y0001276968D01*
X0002187335Y0001282117D01*
X0002198523Y0001289592D01*
X0002208037Y0001299107D01*
X0002215513Y0001310294D01*
X0002220662Y0001322725D01*
X0002223287Y0001335922D01*
X0002223287Y0001349377D01*
X0002220662Y0001362574D01*
X0002215513Y0001375005D01*
X0002211765Y0001380614D01*
X0002245700Y0001380614D01*
X0002245812Y0001379474D01*
X0002245809Y0001378985D01*
X0002245844Y0001378624D01*
X0002247451Y0001363341D01*
X0002247924Y0001361035D01*
X0002248366Y0001358721D01*
X0002248470Y0001358373D01*
X0002253015Y0001343693D01*
X0002253927Y0001341522D01*
X0002254810Y0001339339D01*
X0002254980Y0001339018D01*
X0002262289Y0001325500D01*
X0002263605Y0001323549D01*
X0002264895Y0001321577D01*
X0002265125Y0001321296D01*
X0002274920Y0001309455D01*
X0002276591Y0001307796D01*
X0002278239Y0001306113D01*
X0002278519Y0001305882D01*
X0002290428Y0001296169D01*
X0002292389Y0001294866D01*
X0002294332Y0001293535D01*
X0002294651Y0001293363D01*
X0002308220Y0001286148D01*
X0002310397Y0001285251D01*
X0002312562Y0001284323D01*
X0002312909Y0001284216D01*
X0002327620Y0001279774D01*
X0002329931Y0001279317D01*
X0002332234Y0001278827D01*
X0002332595Y0001278789D01*
X0002347889Y0001277290D01*
X0002347889Y0001277290D01*
X0002349148Y0001277166D01*
X0002532098Y0001277166D01*
X0002520936Y0001269707D01*
X0002511422Y0001260193D01*
X0002503947Y0001249005D01*
X0002498797Y0001236574D01*
X0002496172Y0001223377D01*
X0002496172Y0001209922D01*
X0002498797Y0001196725D01*
X0002503947Y0001184294D01*
X0002511422Y0001173107D01*
X0002520936Y0001163592D01*
X0002532124Y0001156117D01*
X0002544555Y0001150968D01*
X0002557752Y0001148343D01*
X0002571207Y0001148343D01*
X0002584404Y0001150968D01*
X0002596835Y0001156117D01*
X0002608023Y0001163592D01*
X0002617537Y0001173107D01*
X0002625013Y0001184294D01*
X0002630162Y0001196725D01*
X0002632787Y0001209922D01*
X0002632787Y0001223377D01*
X0002630162Y0001236574D01*
X0002625013Y0001249005D01*
X0002617537Y0001260193D01*
X0002608023Y0001269707D01*
X0002596861Y0001277166D01*
X0003028098Y0001277166D01*
X0003016936Y0001269707D01*
X0003007422Y0001260193D01*
X0002999947Y0001249005D01*
X0002994797Y0001236574D01*
X0002992172Y0001223377D01*
X0002992172Y0001209922D01*
X0002994797Y0001196725D01*
X0002999947Y0001184294D01*
X0003007422Y0001173107D01*
X0003016936Y0001163592D01*
X0003028124Y0001156117D01*
X0003040555Y0001150968D01*
X0003053752Y0001148343D01*
X0003067207Y0001148343D01*
X0003080404Y0001150968D01*
X0003092835Y0001156117D01*
X0003104023Y0001163592D01*
X0003113537Y0001173107D01*
X0003121013Y0001184294D01*
X0003126162Y0001196725D01*
X0003128787Y0001209922D01*
X0003128787Y0001223377D01*
X0003126162Y0001236574D01*
X0003121013Y0001249005D01*
X0003113537Y0001260193D01*
X0003104023Y0001269707D01*
X0003092861Y0001277166D01*
X0003280756Y0001277166D01*
X0003281896Y0001277278D01*
X0003282384Y0001277274D01*
X0003282745Y0001277310D01*
X0003298029Y0001278916D01*
X0003300334Y0001279389D01*
X0003302649Y0001279831D01*
X0003302996Y0001279936D01*
X0003317676Y0001284480D01*
X0003319848Y0001285393D01*
X0003322031Y0001286275D01*
X0003322351Y0001286445D01*
X0003335869Y0001293754D01*
X0003337820Y0001295070D01*
X0003339792Y0001296361D01*
X0003340074Y0001296590D01*
X0003351914Y0001306386D01*
X0003353573Y0001308056D01*
X0003355256Y0001309705D01*
X0003355488Y0001309984D01*
X0003365200Y0001321893D01*
X0003366504Y0001323855D01*
X0003367834Y0001325798D01*
X0003368007Y0001326117D01*
X0003375221Y0001339685D01*
X0003376119Y0001341863D01*
X0003377046Y0001344028D01*
X0003377154Y0001344374D01*
X0003378664Y0001349377D01*
X0003401172Y0001349377D01*
X0003401172Y0001335922D01*
X0003403797Y0001322725D01*
X0003408947Y0001310294D01*
X0003416422Y0001299107D01*
X0003425936Y0001289592D01*
X0003437124Y0001282117D01*
X0003449555Y0001276968D01*
X0003462752Y0001274343D01*
X0003476207Y0001274343D01*
X0003489404Y0001276968D01*
X0003501835Y0001282117D01*
X0003513023Y0001289592D01*
X0003522537Y0001299107D01*
X0003530013Y0001310294D01*
X0003535162Y0001322725D01*
X0003537787Y0001335922D01*
X0003537787Y0001349377D01*
X0003535162Y0001362574D01*
X0003530013Y0001375005D01*
X0003522537Y0001386193D01*
X0003513023Y0001395707D01*
X0003501835Y0001403183D01*
X0003489404Y0001408332D01*
X0003476207Y0001410957D01*
X0003462752Y0001410957D01*
X0003449555Y0001408332D01*
X0003437124Y0001403183D01*
X0003425936Y0001395707D01*
X0003416422Y0001386193D01*
X0003408947Y0001375005D01*
X0003403797Y0001362574D01*
X0003401172Y0001349377D01*
X0003378664Y0001349377D01*
X0003381595Y0001359086D01*
X0003382053Y0001361396D01*
X0003382542Y0001363699D01*
X0003382580Y0001364060D01*
X0003384080Y0001379354D01*
X0003384080Y0001379354D01*
X0003384204Y0001380614D01*
X0003384204Y0001737497D01*
X0003384092Y0001738637D01*
X0003384095Y0001739125D01*
X0003384060Y0001739486D01*
X0003382453Y0001754770D01*
X0003381980Y0001757075D01*
X0003381539Y0001759390D01*
X0003381434Y0001759737D01*
X0003376889Y0001774417D01*
X0003375977Y0001776589D01*
X0003375095Y0001778772D01*
X0003374924Y0001779092D01*
X0003374924Y0001779092D01*
X0003374924Y0001779093D01*
X0003373148Y0001782377D01*
X0003401672Y0001782377D01*
X0003401672Y0001768922D01*
X0003404297Y0001755725D01*
X0003409447Y0001743294D01*
X0003416922Y0001732107D01*
X0003426436Y0001722592D01*
X0003437624Y0001715117D01*
X0003450055Y0001709968D01*
X0003463252Y0001707343D01*
X0003476707Y0001707343D01*
X0003489904Y0001709968D01*
X0003502335Y0001715117D01*
X0003513523Y0001722592D01*
X0003523037Y0001732107D01*
X0003530513Y0001743294D01*
X0003535662Y0001755725D01*
X0003538287Y0001768922D01*
X0003538287Y0001782377D01*
X0003535662Y0001795574D01*
X0003530513Y0001808005D01*
X0003523037Y0001819193D01*
X0003513523Y0001828707D01*
X0003502335Y0001836183D01*
X0003489904Y0001841332D01*
X0003476707Y0001843957D01*
X0003463252Y0001843957D01*
X0003450055Y0001841332D01*
X0003437624Y0001836183D01*
X0003426436Y0001828707D01*
X0003416922Y0001819193D01*
X0003409447Y0001808005D01*
X0003404297Y0001795574D01*
X0003401672Y0001782377D01*
X0003373148Y0001782377D01*
X0003367615Y0001792610D01*
X0003366298Y0001794563D01*
X0003365009Y0001796533D01*
X0003364779Y0001796815D01*
X0003354984Y0001808655D01*
X0003353313Y0001810314D01*
X0003351665Y0001811997D01*
X0003351385Y0001812229D01*
X0003339477Y0001821941D01*
X0003337515Y0001823244D01*
X0003335572Y0001824575D01*
X0003335253Y0001824748D01*
X0003321684Y0001831962D01*
X0003319507Y0001832860D01*
X0003317342Y0001833787D01*
X0003316995Y0001833895D01*
X0003302284Y0001838336D01*
X0003299973Y0001838794D01*
X0003297670Y0001839283D01*
X0003297309Y0001839321D01*
X0003282015Y0001840821D01*
X0003282015Y0001840821D01*
X0003280756Y0001840945D01*
X0003091920Y0001840945D01*
X0003092335Y0001841117D01*
X0003103523Y0001848592D01*
X0003113037Y0001858107D01*
X0003120513Y0001869294D01*
X0003125662Y0001881725D01*
X0003128287Y0001894922D01*
X0003128287Y0001908377D01*
X0003125662Y0001921574D01*
X0003120513Y0001934005D01*
X0003113037Y0001945193D01*
X0003103523Y0001954707D01*
X0003092335Y0001962183D01*
X0003079904Y0001967332D01*
X0003066707Y0001969957D01*
X0003053252Y0001969957D01*
X0003040055Y0001967332D01*
X0003027624Y0001962183D01*
X0003016436Y0001954707D01*
X0003006922Y0001945193D01*
X0002999447Y0001934005D01*
X0002994297Y0001921574D01*
X0002991672Y0001908377D01*
X0002991672Y0001894922D01*
X0002994297Y0001881725D01*
X0002999447Y0001869294D01*
X0003006922Y0001858107D01*
X0003016436Y0001848592D01*
X0003027624Y0001841117D01*
X0003028039Y0001840945D01*
X0002596920Y0001840945D01*
X0002597335Y0001841117D01*
X0002608523Y0001848592D01*
X0002618037Y0001858107D01*
X0002625513Y0001869294D01*
X0002630662Y0001881725D01*
X0002633287Y0001894922D01*
X0002633287Y0001908377D01*
X0002630662Y0001921574D01*
X0002625513Y0001934005D01*
X0002618037Y0001945193D01*
X0002608523Y0001954707D01*
X0002597335Y0001962183D01*
X0002584904Y0001967332D01*
X0002571707Y0001969957D01*
X0002558252Y0001969957D01*
X0002545055Y0001967332D01*
X0002532624Y0001962183D01*
X0002521436Y0001954707D01*
X0002511922Y0001945193D01*
X0002504447Y0001934005D01*
X0002499297Y0001921574D01*
X0002496672Y0001908377D01*
X0002496672Y0001894922D01*
X0002499297Y0001881725D01*
X0002504447Y0001869294D01*
X0002511922Y0001858107D01*
X0002521436Y0001848592D01*
X0002532624Y0001841117D01*
X0002533039Y0001840945D01*
X0002349148Y0001840945D01*
X0002348008Y0001840833D01*
X0002347520Y0001840836D01*
X0002347159Y0001840801D01*
X0002331875Y0001839194D01*
X0002329570Y0001838721D01*
X0002327255Y0001838280D01*
X0002326908Y0001838175D01*
X0002312228Y0001833630D01*
X0002310056Y0001832718D01*
X0002307873Y0001831836D01*
X0002307553Y0001831665D01*
X0002307553Y0001831665D01*
X0002307553Y0001831665D01*
X0002294035Y0001824356D01*
X0002292082Y0001823039D01*
X0002290112Y0001821750D01*
X0002289831Y0001821520D01*
X0002277990Y0001811725D01*
X0002276331Y0001810054D01*
X0002274648Y0001808406D01*
X0002274416Y0001808126D01*
X0002264704Y0001796218D01*
X0002263401Y0001794256D01*
X0002262070Y0001792313D01*
X0002261897Y0001791994D01*
X0002254683Y0001778425D01*
X0002253785Y0001776248D01*
X0002252858Y0001774083D01*
X0002252750Y0001773736D01*
X0002248309Y0001759025D01*
X0002247851Y0001756714D01*
X0002247362Y0001754411D01*
X0002247324Y0001754050D01*
X0002245824Y0001738756D01*
X0002245824Y0001738756D01*
X0002245700Y0001737497D01*
X0002245700Y0001380614D01*
X0002211765Y0001380614D01*
X0002208037Y0001386193D01*
X0002198523Y0001395707D01*
X0002187335Y0001403183D01*
X0002174904Y0001408332D01*
X0002161707Y0001410957D01*
X0002148252Y0001410957D01*
X0002135055Y0001408332D01*
X0002122624Y0001403183D01*
X0002111436Y0001395707D01*
X0002101922Y0001386193D01*
X0002094447Y0001375005D01*
X0002089297Y0001362574D01*
X0002086672Y0001349377D01*
X0002061448Y0001349377D01*
X0002061448Y0001782377D01*
X0002086672Y0001782377D01*
X0002086672Y0001768922D01*
X0002089297Y0001755725D01*
X0002094447Y0001743294D01*
X0002101922Y0001732107D01*
X0002111436Y0001722592D01*
X0002122624Y0001715117D01*
X0002135055Y0001709968D01*
X0002148252Y0001707343D01*
X0002161707Y0001707343D01*
X0002174904Y0001709968D01*
X0002187335Y0001715117D01*
X0002198523Y0001722592D01*
X0002208037Y0001732107D01*
X0002215513Y0001743294D01*
X0002220662Y0001755725D01*
X0002223287Y0001768922D01*
X0002223287Y0001782377D01*
X0002220662Y0001795574D01*
X0002215513Y0001808005D01*
X0002208037Y0001819193D01*
X0002198523Y0001828707D01*
X0002187335Y0001836183D01*
X0002174904Y0001841332D01*
X0002161707Y0001843957D01*
X0002148252Y0001843957D01*
X0002135055Y0001841332D01*
X0002122624Y0001836183D01*
X0002111436Y0001828707D01*
X0002101922Y0001819193D01*
X0002094447Y0001808005D01*
X0002089297Y0001795574D01*
X0002086672Y0001782377D01*
X0002061448Y0001782377D01*
X0002061448Y0001971171D01*
X0002062575Y0001982665D01*
X0002065544Y0001992498D01*
X0002070367Y0002001568D01*
X0002076859Y0002009528D01*
X0002084773Y0002016075D01*
X0002093809Y0002020961D01*
X0002103622Y0002023998D01*
X0002115035Y0002025198D01*
X0003514429Y0002025198D01*
X0003525923Y0002024071D01*
G04 #@! TA.AperFunction,NonConductor*
D25*
G36*
X0003525923Y0002024071D02*
G01*
X0003535756Y0002021102D01*
X0003544826Y0002016280D01*
X0003552786Y0002009787D01*
X0003559333Y0002001873D01*
X0003564219Y0001992837D01*
X0003567256Y0001983025D01*
X0003568456Y0001971611D01*
X0003568456Y0001146940D01*
X0003567329Y0001135447D01*
X0003564360Y0001125613D01*
X0003559538Y0001116544D01*
X0003553046Y0001108584D01*
X0003545131Y0001102036D01*
X0003536096Y0001097151D01*
X0003526283Y0001094113D01*
X0003514870Y0001092914D01*
X0002115475Y0001092914D01*
X0002103982Y0001094041D01*
X0002094148Y0001097009D01*
X0002085079Y0001101832D01*
X0002077119Y0001108324D01*
X0002070571Y0001116239D01*
X0002065686Y0001125274D01*
X0002062648Y0001135087D01*
X0002061448Y0001146500D01*
X0002061448Y0001349377D01*
X0002086672Y0001349377D01*
X0002086672Y0001335922D01*
X0002089297Y0001322725D01*
X0002094447Y0001310294D01*
X0002101922Y0001299107D01*
X0002111436Y0001289592D01*
X0002122624Y0001282117D01*
X0002135055Y0001276968D01*
X0002148252Y0001274343D01*
X0002161707Y0001274343D01*
X0002174904Y0001276968D01*
X0002187335Y0001282117D01*
X0002198523Y0001289592D01*
X0002208037Y0001299107D01*
X0002215513Y0001310294D01*
X0002220662Y0001322725D01*
X0002223287Y0001335922D01*
X0002223287Y0001349377D01*
X0002220662Y0001362574D01*
X0002215513Y0001375005D01*
X0002211765Y0001380614D01*
X0002245700Y0001380614D01*
X0002245812Y0001379474D01*
X0002245809Y0001378985D01*
X0002245844Y0001378624D01*
X0002247451Y0001363341D01*
X0002247924Y0001361035D01*
X0002248366Y0001358721D01*
X0002248470Y0001358373D01*
X0002253015Y0001343693D01*
X0002253927Y0001341522D01*
X0002254810Y0001339339D01*
X0002254980Y0001339018D01*
X0002262289Y0001325500D01*
X0002263605Y0001323549D01*
X0002264895Y0001321577D01*
X0002265125Y0001321296D01*
X0002274920Y0001309455D01*
X0002276591Y0001307796D01*
X0002278239Y0001306113D01*
X0002278519Y0001305882D01*
X0002290428Y0001296169D01*
X0002292389Y0001294866D01*
X0002294332Y0001293535D01*
X0002294651Y0001293363D01*
X0002308220Y0001286148D01*
X0002310397Y0001285251D01*
X0002312562Y0001284323D01*
X0002312909Y0001284216D01*
X0002327620Y0001279774D01*
X0002329931Y0001279317D01*
X0002332234Y0001278827D01*
X0002332595Y0001278789D01*
X0002347889Y0001277290D01*
X0002347889Y0001277290D01*
X0002349148Y0001277166D01*
X0002532098Y0001277166D01*
X0002520936Y0001269707D01*
X0002511422Y0001260193D01*
X0002503947Y0001249005D01*
X0002498797Y0001236574D01*
X0002496172Y0001223377D01*
X0002496172Y0001209922D01*
X0002498797Y0001196725D01*
X0002503947Y0001184294D01*
X0002511422Y0001173107D01*
X0002520936Y0001163592D01*
X0002532124Y0001156117D01*
X0002544555Y0001150968D01*
X0002557752Y0001148343D01*
X0002571207Y0001148343D01*
X0002584404Y0001150968D01*
X0002596835Y0001156117D01*
X0002608023Y0001163592D01*
X0002617537Y0001173107D01*
X0002625013Y0001184294D01*
X0002630162Y0001196725D01*
X0002632787Y0001209922D01*
X0002632787Y0001223377D01*
X0002630162Y0001236574D01*
X0002625013Y0001249005D01*
X0002617537Y0001260193D01*
X0002608023Y0001269707D01*
X0002596861Y0001277166D01*
X0003028098Y0001277166D01*
X0003016936Y0001269707D01*
X0003007422Y0001260193D01*
X0002999947Y0001249005D01*
X0002994797Y0001236574D01*
X0002992172Y0001223377D01*
X0002992172Y0001209922D01*
X0002994797Y0001196725D01*
X0002999947Y0001184294D01*
X0003007422Y0001173107D01*
X0003016936Y0001163592D01*
X0003028124Y0001156117D01*
X0003040555Y0001150968D01*
X0003053752Y0001148343D01*
X0003067207Y0001148343D01*
X0003080404Y0001150968D01*
X0003092835Y0001156117D01*
X0003104023Y0001163592D01*
X0003113537Y0001173107D01*
X0003121013Y0001184294D01*
X0003126162Y0001196725D01*
X0003128787Y0001209922D01*
X0003128787Y0001223377D01*
X0003126162Y0001236574D01*
X0003121013Y0001249005D01*
X0003113537Y0001260193D01*
X0003104023Y0001269707D01*
X0003092861Y0001277166D01*
X0003280756Y0001277166D01*
X0003281896Y0001277278D01*
X0003282384Y0001277274D01*
X0003282745Y0001277310D01*
X0003298029Y0001278916D01*
X0003300334Y0001279389D01*
X0003302649Y0001279831D01*
X0003302996Y0001279936D01*
X0003317676Y0001284480D01*
X0003319848Y0001285393D01*
X0003322031Y0001286275D01*
X0003322351Y0001286445D01*
X0003335869Y0001293754D01*
X0003337820Y0001295070D01*
X0003339792Y0001296361D01*
X0003340074Y0001296590D01*
X0003351914Y0001306386D01*
X0003353573Y0001308056D01*
X0003355256Y0001309705D01*
X0003355488Y0001309984D01*
X0003365200Y0001321893D01*
X0003366504Y0001323855D01*
X0003367834Y0001325798D01*
X0003368007Y0001326117D01*
X0003375221Y0001339685D01*
X0003376119Y0001341863D01*
X0003377046Y0001344028D01*
X0003377154Y0001344374D01*
X0003378664Y0001349377D01*
X0003401172Y0001349377D01*
X0003401172Y0001335922D01*
X0003403797Y0001322725D01*
X0003408947Y0001310294D01*
X0003416422Y0001299107D01*
X0003425936Y0001289592D01*
X0003437124Y0001282117D01*
X0003449555Y0001276968D01*
X0003462752Y0001274343D01*
X0003476207Y0001274343D01*
X0003489404Y0001276968D01*
X0003501835Y0001282117D01*
X0003513023Y0001289592D01*
X0003522537Y0001299107D01*
X0003530013Y0001310294D01*
X0003535162Y0001322725D01*
X0003537787Y0001335922D01*
X0003537787Y0001349377D01*
X0003535162Y0001362574D01*
X0003530013Y0001375005D01*
X0003522537Y0001386193D01*
X0003513023Y0001395707D01*
X0003501835Y0001403183D01*
X0003489404Y0001408332D01*
X0003476207Y0001410957D01*
X0003462752Y0001410957D01*
X0003449555Y0001408332D01*
X0003437124Y0001403183D01*
X0003425936Y0001395707D01*
X0003416422Y0001386193D01*
X0003408947Y0001375005D01*
X0003403797Y0001362574D01*
X0003401172Y0001349377D01*
X0003378664Y0001349377D01*
X0003381595Y0001359086D01*
X0003382053Y0001361396D01*
X0003382542Y0001363699D01*
X0003382580Y0001364060D01*
X0003384080Y0001379354D01*
X0003384080Y0001379354D01*
X0003384204Y0001380614D01*
X0003384204Y0001737497D01*
X0003384092Y0001738637D01*
X0003384095Y0001739125D01*
X0003384060Y0001739486D01*
X0003382453Y0001754770D01*
X0003381980Y0001757075D01*
X0003381539Y0001759390D01*
X0003381434Y0001759737D01*
X0003376889Y0001774417D01*
X0003375977Y0001776589D01*
X0003375095Y0001778772D01*
X0003374924Y0001779092D01*
X0003374924Y0001779092D01*
X0003374924Y0001779093D01*
X0003373148Y0001782377D01*
X0003401672Y0001782377D01*
X0003401672Y0001768922D01*
X0003404297Y0001755725D01*
X0003409447Y0001743294D01*
X0003416922Y0001732107D01*
X0003426436Y0001722592D01*
X0003437624Y0001715117D01*
X0003450055Y0001709968D01*
X0003463252Y0001707343D01*
X0003476707Y0001707343D01*
X0003489904Y0001709968D01*
X0003502335Y0001715117D01*
X0003513523Y0001722592D01*
X0003523037Y0001732107D01*
X0003530513Y0001743294D01*
X0003535662Y0001755725D01*
X0003538287Y0001768922D01*
X0003538287Y0001782377D01*
X0003535662Y0001795574D01*
X0003530513Y0001808005D01*
X0003523037Y0001819193D01*
X0003513523Y0001828707D01*
X0003502335Y0001836183D01*
X0003489904Y0001841332D01*
X0003476707Y0001843957D01*
X0003463252Y0001843957D01*
X0003450055Y0001841332D01*
X0003437624Y0001836183D01*
X0003426436Y0001828707D01*
X0003416922Y0001819193D01*
X0003409447Y0001808005D01*
X0003404297Y0001795574D01*
X0003401672Y0001782377D01*
X0003373148Y0001782377D01*
X0003367615Y0001792610D01*
X0003366298Y0001794563D01*
X0003365009Y0001796533D01*
X0003364779Y0001796815D01*
X0003354984Y0001808655D01*
X0003353313Y0001810314D01*
X0003351665Y0001811997D01*
X0003351385Y0001812229D01*
X0003339477Y0001821941D01*
X0003337515Y0001823244D01*
X0003335572Y0001824575D01*
X0003335253Y0001824748D01*
X0003321684Y0001831962D01*
X0003319507Y0001832860D01*
X0003317342Y0001833787D01*
X0003316995Y0001833895D01*
X0003302284Y0001838336D01*
X0003299973Y0001838794D01*
X0003297670Y0001839283D01*
X0003297309Y0001839321D01*
X0003282015Y0001840821D01*
X0003282015Y0001840821D01*
X0003280756Y0001840945D01*
X0003091920Y0001840945D01*
X0003092335Y0001841117D01*
X0003103523Y0001848592D01*
X0003113037Y0001858107D01*
X0003120513Y0001869294D01*
X0003125662Y0001881725D01*
X0003128287Y0001894922D01*
X0003128287Y0001908377D01*
X0003125662Y0001921574D01*
X0003120513Y0001934005D01*
X0003113037Y0001945193D01*
X0003103523Y0001954707D01*
X0003092335Y0001962183D01*
X0003079904Y0001967332D01*
X0003066707Y0001969957D01*
X0003053252Y0001969957D01*
X0003040055Y0001967332D01*
X0003027624Y0001962183D01*
X0003016436Y0001954707D01*
X0003006922Y0001945193D01*
X0002999447Y0001934005D01*
X0002994297Y0001921574D01*
X0002991672Y0001908377D01*
X0002991672Y0001894922D01*
X0002994297Y0001881725D01*
X0002999447Y0001869294D01*
X0003006922Y0001858107D01*
X0003016436Y0001848592D01*
X0003027624Y0001841117D01*
X0003028039Y0001840945D01*
X0002596920Y0001840945D01*
X0002597335Y0001841117D01*
X0002608523Y0001848592D01*
X0002618037Y0001858107D01*
X0002625513Y0001869294D01*
X0002630662Y0001881725D01*
X0002633287Y0001894922D01*
X0002633287Y0001908377D01*
X0002630662Y0001921574D01*
X0002625513Y0001934005D01*
X0002618037Y0001945193D01*
X0002608523Y0001954707D01*
X0002597335Y0001962183D01*
X0002584904Y0001967332D01*
X0002571707Y0001969957D01*
X0002558252Y0001969957D01*
X0002545055Y0001967332D01*
X0002532624Y0001962183D01*
X0002521436Y0001954707D01*
X0002511922Y0001945193D01*
X0002504447Y0001934005D01*
X0002499297Y0001921574D01*
X0002496672Y0001908377D01*
X0002496672Y0001894922D01*
X0002499297Y0001881725D01*
X0002504447Y0001869294D01*
X0002511922Y0001858107D01*
X0002521436Y0001848592D01*
X0002532624Y0001841117D01*
X0002533039Y0001840945D01*
X0002349148Y0001840945D01*
X0002348008Y0001840833D01*
X0002347520Y0001840836D01*
X0002347159Y0001840801D01*
X0002331875Y0001839194D01*
X0002329570Y0001838721D01*
X0002327255Y0001838280D01*
X0002326908Y0001838175D01*
X0002312228Y0001833630D01*
X0002310056Y0001832718D01*
X0002307873Y0001831836D01*
X0002307553Y0001831665D01*
X0002307553Y0001831665D01*
X0002307553Y0001831665D01*
X0002294035Y0001824356D01*
X0002292082Y0001823039D01*
X0002290112Y0001821750D01*
X0002289831Y0001821520D01*
X0002277990Y0001811725D01*
X0002276331Y0001810054D01*
X0002274648Y0001808406D01*
X0002274416Y0001808126D01*
X0002264704Y0001796218D01*
X0002263401Y0001794256D01*
X0002262070Y0001792313D01*
X0002261897Y0001791994D01*
X0002254683Y0001778425D01*
X0002253785Y0001776248D01*
X0002252858Y0001774083D01*
X0002252750Y0001773736D01*
X0002248309Y0001759025D01*
X0002247851Y0001756714D01*
X0002247362Y0001754411D01*
X0002247324Y0001754050D01*
X0002245824Y0001738756D01*
X0002245824Y0001738756D01*
X0002245700Y0001737497D01*
X0002245700Y0001380614D01*
X0002211765Y0001380614D01*
X0002208037Y0001386193D01*
X0002198523Y0001395707D01*
X0002187335Y0001403183D01*
X0002174904Y0001408332D01*
X0002161707Y0001410957D01*
X0002148252Y0001410957D01*
X0002135055Y0001408332D01*
X0002122624Y0001403183D01*
X0002111436Y0001395707D01*
X0002101922Y0001386193D01*
X0002094447Y0001375005D01*
X0002089297Y0001362574D01*
X0002086672Y0001349377D01*
X0002061448Y0001349377D01*
X0002061448Y0001782377D01*
X0002086672Y0001782377D01*
X0002086672Y0001768922D01*
X0002089297Y0001755725D01*
X0002094447Y0001743294D01*
X0002101922Y0001732107D01*
X0002111436Y0001722592D01*
X0002122624Y0001715117D01*
X0002135055Y0001709968D01*
X0002148252Y0001707343D01*
X0002161707Y0001707343D01*
X0002174904Y0001709968D01*
X0002187335Y0001715117D01*
X0002198523Y0001722592D01*
X0002208037Y0001732107D01*
X0002215513Y0001743294D01*
X0002220662Y0001755725D01*
X0002223287Y0001768922D01*
X0002223287Y0001782377D01*
X0002220662Y0001795574D01*
X0002215513Y0001808005D01*
X0002208037Y0001819193D01*
X0002198523Y0001828707D01*
X0002187335Y0001836183D01*
X0002174904Y0001841332D01*
X0002161707Y0001843957D01*
X0002148252Y0001843957D01*
X0002135055Y0001841332D01*
X0002122624Y0001836183D01*
X0002111436Y0001828707D01*
X0002101922Y0001819193D01*
X0002094447Y0001808005D01*
X0002089297Y0001795574D01*
X0002086672Y0001782377D01*
X0002061448Y0001782377D01*
X0002061448Y0001971171D01*
X0002062575Y0001982665D01*
X0002065544Y0001992498D01*
X0002070367Y0002001568D01*
X0002076859Y0002009528D01*
X0002084773Y0002016075D01*
X0002093809Y0002020961D01*
X0002103622Y0002023998D01*
X0002115035Y0002025198D01*
X0003514429Y0002025198D01*
X0003525923Y0002024071D01*
G37*
G04 #@! TD.AperFunction*
G04 next file*
G04 #@! TF.GenerationSoftware,KiCad,Pcbnew,(5.1.12)-1*
G04 #@! TF.CreationDate,2022-03-26T22:19:29+08:00*
G04 #@! TF.ProjectId,Nozzle,4e6f7a7a-6c65-42e6-9b69-6361645f7063,0.5*
G04 #@! TF.SameCoordinates,Original*
G04 #@! TF.FileFunction,Copper,L2,Bot*
G04 #@! TF.FilePolarity,Positive*
G04 Gerber Fmt 4.6, Leading zero omitted, Abs format (unit mm)*
G04 Created by KiCad (PCBNEW (5.1.12)-1) date 2022-03-26 22:19:29*
G01*
G04 APERTURE LIST*
G04 #@! TA.AperFunction,ComponentPad*
G04 #@! TD*
G04 #@! TA.AperFunction,NonConductor*
G04 #@! TD*
G04 #@! TA.AperFunction,NonConductor*
G04 #@! TD*
G04 APERTURE END LIST*
D26*
X-0004724409Y0004763779D02*
X0001090590Y0003422779D03*
X0000490590Y0003422279D03*
X0000990590Y0003422279D03*
X0000390590Y0003422279D03*
D27*
X0001216389Y0003262263D02*
X0000260574Y0003262263D01*
X0000260574Y0003327204D01*
X0000285590Y0003327204D01*
X0000285590Y0003317354D01*
X0000287512Y0003307695D01*
X0000291281Y0003298595D01*
X0000296752Y0003290406D01*
X0000303717Y0003283442D01*
X0000311906Y0003277970D01*
X0000321006Y0003274200D01*
X0000330665Y0003272279D01*
X0000340515Y0003272279D01*
X0000350174Y0003274200D01*
X0000359274Y0003277970D01*
X0000367463Y0003283442D01*
X0000374428Y0003290406D01*
X0000379899Y0003298595D01*
X0000383669Y0003307695D01*
X0000385590Y0003317354D01*
X0000385590Y0003327204D01*
X0000485590Y0003327204D01*
X0000485590Y0003317354D01*
X0000487511Y0003307695D01*
X0000491281Y0003298595D01*
X0000496752Y0003290406D01*
X0000503717Y0003283442D01*
X0000511906Y0003277970D01*
X0000521006Y0003274200D01*
X0000530665Y0003272279D01*
X0000540515Y0003272279D01*
X0000550175Y0003274200D01*
X0000559274Y0003277970D01*
X0000567463Y0003283442D01*
X0000574428Y0003290406D01*
X0000579899Y0003298595D01*
X0000583669Y0003307695D01*
X0000585590Y0003317354D01*
X0000585590Y0003327204D01*
X0000685590Y0003327204D01*
X0000685590Y0003317354D01*
X0000687512Y0003307695D01*
X0000691281Y0003298595D01*
X0000696753Y0003290406D01*
X0000703717Y0003283442D01*
X0000711906Y0003277970D01*
X0000721006Y0003274200D01*
X0000730665Y0003272279D01*
X0000740515Y0003272279D01*
X0000750174Y0003274200D01*
X0000759274Y0003277970D01*
X0000767463Y0003283442D01*
X0000774428Y0003290406D01*
X0000779899Y0003298595D01*
X0000783669Y0003307695D01*
X0000785590Y0003317354D01*
X0000785590Y0003327204D01*
X0000785491Y0003327704D01*
X0000885590Y0003327704D01*
X0000885590Y0003317854D01*
X0000887511Y0003308195D01*
X0000891281Y0003299095D01*
X0000896752Y0003290906D01*
X0000903717Y0003283942D01*
X0000911906Y0003278470D01*
X0000921006Y0003274700D01*
X0000930665Y0003272779D01*
X0000940515Y0003272779D01*
X0000950175Y0003274700D01*
X0000959274Y0003278470D01*
X0000967463Y0003283942D01*
X0000974428Y0003290906D01*
X0000979899Y0003299095D01*
X0000983669Y0003308195D01*
X0000985590Y0003317854D01*
X0000985590Y0003327704D01*
X0001085590Y0003327704D01*
X0001085590Y0003317854D01*
X0001087512Y0003308195D01*
X0001091281Y0003299095D01*
X0001096753Y0003290906D01*
X0001103717Y0003283942D01*
X0001111906Y0003278470D01*
X0001121006Y0003274700D01*
X0001130665Y0003272779D01*
X0001140515Y0003272779D01*
X0001150175Y0003274700D01*
X0001159274Y0003278470D01*
X0001167463Y0003283942D01*
X0001174428Y0003290906D01*
X0001179899Y0003299095D01*
X0001183669Y0003308195D01*
X0001185590Y0003317854D01*
X0001185590Y0003327704D01*
X0001183669Y0003337363D01*
X0001179899Y0003346463D01*
X0001174428Y0003354652D01*
X0001167463Y0003361617D01*
X0001159274Y0003367088D01*
X0001150175Y0003370858D01*
X0001140515Y0003372779D01*
X0001130665Y0003372779D01*
X0001121006Y0003370858D01*
X0001111906Y0003367088D01*
X0001103717Y0003361617D01*
X0001096753Y0003354652D01*
X0001091281Y0003346463D01*
X0001087512Y0003337363D01*
X0001085590Y0003327704D01*
X0000985590Y0003327704D01*
X0000983669Y0003337363D01*
X0000979899Y0003346463D01*
X0000974428Y0003354652D01*
X0000967463Y0003361617D01*
X0000959274Y0003367088D01*
X0000950175Y0003370858D01*
X0000940515Y0003372779D01*
X0000930665Y0003372779D01*
X0000921006Y0003370858D01*
X0000911906Y0003367088D01*
X0000903717Y0003361617D01*
X0000896752Y0003354652D01*
X0000891281Y0003346463D01*
X0000887511Y0003337363D01*
X0000885590Y0003327704D01*
X0000785491Y0003327704D01*
X0000783669Y0003336863D01*
X0000779899Y0003345963D01*
X0000774428Y0003354152D01*
X0000767463Y0003361117D01*
X0000759274Y0003366588D01*
X0000750174Y0003370358D01*
X0000740515Y0003372279D01*
X0000730665Y0003372279D01*
X0000721006Y0003370358D01*
X0000711906Y0003366588D01*
X0000703717Y0003361117D01*
X0000696753Y0003354152D01*
X0000691281Y0003345963D01*
X0000687512Y0003336863D01*
X0000685590Y0003327204D01*
X0000585590Y0003327204D01*
X0000583669Y0003336863D01*
X0000579899Y0003345963D01*
X0000574428Y0003354152D01*
X0000567463Y0003361117D01*
X0000559274Y0003366588D01*
X0000550175Y0003370358D01*
X0000540515Y0003372279D01*
X0000530665Y0003372279D01*
X0000521006Y0003370358D01*
X0000511906Y0003366588D01*
X0000503717Y0003361117D01*
X0000496752Y0003354152D01*
X0000491281Y0003345963D01*
X0000487511Y0003336863D01*
X0000485590Y0003327204D01*
X0000385590Y0003327204D01*
X0000383669Y0003336863D01*
X0000379899Y0003345963D01*
X0000374428Y0003354152D01*
X0000367463Y0003361117D01*
X0000359274Y0003366588D01*
X0000350174Y0003370358D01*
X0000340515Y0003372279D01*
X0000330665Y0003372279D01*
X0000321006Y0003370358D01*
X0000311906Y0003366588D01*
X0000303717Y0003361117D01*
X0000296752Y0003354152D01*
X0000291281Y0003345963D01*
X0000287512Y0003336863D01*
X0000285590Y0003327204D01*
X0000260574Y0003327204D01*
X0000260574Y0003426389D01*
X0000348858Y0003426389D01*
X0000348858Y0003418169D01*
X0000350462Y0003410106D01*
X0000353607Y0003402511D01*
X0000358174Y0003395676D01*
X0000363987Y0003389863D01*
X0000370822Y0003385296D01*
X0000378417Y0003382150D01*
X0000386480Y0003380547D01*
X0000394700Y0003380547D01*
X0000402763Y0003382150D01*
X0000410358Y0003385296D01*
X0000417193Y0003389863D01*
X0000423006Y0003395676D01*
X0000427573Y0003402511D01*
X0000430719Y0003410106D01*
X0000432322Y0003418169D01*
X0000432322Y0003426389D01*
X0000448858Y0003426389D01*
X0000448858Y0003418169D01*
X0000450461Y0003410106D01*
X0000453607Y0003402511D01*
X0000458174Y0003395676D01*
X0000463987Y0003389863D01*
X0000470822Y0003385296D01*
X0000478417Y0003382150D01*
X0000486480Y0003380547D01*
X0000494700Y0003380547D01*
X0000502763Y0003382150D01*
X0000510358Y0003385296D01*
X0000517193Y0003389863D01*
X0000523006Y0003395676D01*
X0000527573Y0003402511D01*
X0000530719Y0003410106D01*
X0000532322Y0003418169D01*
X0000532322Y0003425226D01*
X0000561669Y0003425226D01*
X0000561669Y0003419332D01*
X0000562819Y0003413551D01*
X0000565074Y0003408106D01*
X0000568349Y0003403205D01*
X0000572516Y0003399038D01*
X0000577417Y0003395763D01*
X0000582862Y0003393508D01*
X0000588643Y0003392358D01*
X0000594537Y0003392358D01*
X0000600318Y0003393508D01*
X0000605763Y0003395763D01*
X0000610664Y0003399038D01*
X0000614831Y0003403205D01*
X0000618106Y0003408106D01*
X0000620361Y0003413551D01*
X0000621511Y0003419332D01*
X0000621511Y0003425226D01*
X0000621492Y0003425323D01*
X0000660685Y0003425323D01*
X0000660685Y0003419235D01*
X0000661872Y0003413264D01*
X0000664202Y0003407640D01*
X0000667584Y0003402578D01*
X0000671889Y0003398273D01*
X0000676951Y0003394891D01*
X0000682575Y0003392561D01*
X0000688546Y0003391374D01*
X0000694634Y0003391374D01*
X0000700605Y0003392561D01*
X0000706229Y0003394891D01*
X0000711291Y0003398273D01*
X0000715596Y0003402578D01*
X0000718978Y0003407640D01*
X0000721308Y0003413264D01*
X0000722496Y0003419235D01*
X0000722496Y0003425323D01*
X0000722358Y0003426017D01*
X0000758716Y0003426017D01*
X0000758716Y0003419541D01*
X0000759979Y0003413190D01*
X0000762457Y0003407207D01*
X0000766055Y0003401823D01*
X0000770634Y0003397244D01*
X0000776018Y0003393646D01*
X0000782001Y0003391168D01*
X0000788352Y0003389905D01*
X0000794828Y0003389905D01*
X0000801179Y0003391168D01*
X0000807162Y0003393646D01*
X0000812546Y0003397244D01*
X0000817125Y0003401823D01*
X0000820723Y0003407207D01*
X0000823201Y0003413190D01*
X0000824464Y0003419541D01*
X0000824464Y0003426017D01*
X0000824227Y0003427211D01*
X0000856748Y0003427211D01*
X0000856748Y0003420347D01*
X0000858087Y0003413616D01*
X0000860713Y0003407275D01*
X0000864526Y0003401568D01*
X0000869379Y0003396715D01*
X0000875086Y0003392902D01*
X0000881427Y0003390275D01*
X0000888158Y0003388937D01*
X0000895022Y0003388937D01*
X0000901753Y0003390275D01*
X0000908094Y0003392902D01*
X0000913801Y0003396715D01*
X0000918654Y0003401568D01*
X0000922467Y0003407275D01*
X0000925094Y0003413616D01*
X0000926433Y0003420347D01*
X0000926433Y0003426389D01*
X0000948858Y0003426389D01*
X0000948858Y0003418169D01*
X0000950462Y0003410106D01*
X0000953607Y0003402511D01*
X0000958174Y0003395676D01*
X0000963987Y0003389863D01*
X0000970822Y0003385296D01*
X0000978417Y0003382150D01*
X0000986480Y0003380547D01*
X0000994700Y0003380547D01*
X0001002763Y0003382150D01*
X0001010358Y0003385296D01*
X0001017193Y0003389863D01*
X0001023006Y0003395676D01*
X0001027573Y0003402511D01*
X0001030719Y0003410106D01*
X0001032322Y0003418169D01*
X0001032322Y0003426389D01*
X0001032223Y0003426889D01*
X0001048858Y0003426889D01*
X0001048858Y0003418669D01*
X0001050462Y0003410606D01*
X0001053607Y0003403011D01*
X0001058174Y0003396176D01*
X0001063987Y0003390363D01*
X0001070822Y0003385796D01*
X0001078417Y0003382650D01*
X0001086480Y0003381047D01*
X0001094700Y0003381047D01*
X0001102763Y0003382650D01*
X0001110358Y0003385796D01*
X0001117193Y0003390363D01*
X0001123006Y0003396176D01*
X0001127573Y0003403011D01*
X0001130719Y0003410606D01*
X0001132322Y0003418669D01*
X0001132322Y0003426889D01*
X0001130719Y0003434952D01*
X0001127573Y0003442547D01*
X0001123006Y0003449382D01*
X0001117193Y0003455195D01*
X0001110358Y0003459762D01*
X0001102763Y0003462908D01*
X0001094700Y0003464511D01*
X0001086480Y0003464511D01*
X0001078417Y0003462908D01*
X0001070822Y0003459762D01*
X0001063987Y0003455195D01*
X0001058174Y0003449382D01*
X0001053607Y0003442547D01*
X0001050462Y0003434952D01*
X0001048858Y0003426889D01*
X0001032223Y0003426889D01*
X0001030719Y0003434452D01*
X0001027573Y0003442047D01*
X0001023006Y0003448882D01*
X0001017193Y0003454695D01*
X0001010358Y0003459262D01*
X0001002763Y0003462408D01*
X0000994700Y0003464011D01*
X0000986480Y0003464011D01*
X0000978417Y0003462408D01*
X0000970822Y0003459262D01*
X0000963987Y0003454695D01*
X0000958174Y0003448882D01*
X0000953607Y0003442047D01*
X0000950462Y0003434452D01*
X0000948858Y0003426389D01*
X0000926433Y0003426389D01*
X0000926433Y0003427211D01*
X0000925094Y0003433942D01*
X0000922467Y0003440283D01*
X0000918654Y0003445990D01*
X0000913801Y0003450843D01*
X0000908094Y0003454656D01*
X0000901753Y0003457283D01*
X0000895022Y0003458622D01*
X0000888158Y0003458622D01*
X0000881427Y0003457283D01*
X0000875086Y0003454656D01*
X0000869379Y0003450843D01*
X0000864526Y0003445990D01*
X0000860713Y0003440283D01*
X0000858087Y0003433942D01*
X0000856748Y0003427211D01*
X0000824227Y0003427211D01*
X0000823201Y0003432368D01*
X0000820723Y0003438351D01*
X0000817125Y0003443735D01*
X0000812546Y0003448314D01*
X0000807162Y0003451912D01*
X0000801179Y0003454390D01*
X0000794828Y0003455653D01*
X0000788352Y0003455653D01*
X0000782001Y0003454390D01*
X0000776018Y0003451912D01*
X0000770634Y0003448314D01*
X0000766055Y0003443735D01*
X0000762457Y0003438351D01*
X0000759979Y0003432368D01*
X0000758716Y0003426017D01*
X0000722358Y0003426017D01*
X0000721308Y0003431294D01*
X0000718978Y0003436918D01*
X0000715596Y0003441980D01*
X0000711291Y0003446285D01*
X0000706229Y0003449667D01*
X0000700605Y0003451997D01*
X0000694634Y0003453185D01*
X0000688546Y0003453185D01*
X0000682575Y0003451997D01*
X0000676951Y0003449667D01*
X0000671889Y0003446285D01*
X0000667584Y0003441980D01*
X0000664202Y0003436918D01*
X0000661872Y0003431294D01*
X0000660685Y0003425323D01*
X0000621492Y0003425323D01*
X0000620361Y0003431007D01*
X0000618106Y0003436452D01*
X0000614831Y0003441353D01*
X0000610664Y0003445520D01*
X0000605763Y0003448795D01*
X0000600318Y0003451050D01*
X0000594537Y0003452200D01*
X0000588643Y0003452200D01*
X0000582862Y0003451050D01*
X0000577417Y0003448795D01*
X0000572516Y0003445520D01*
X0000568349Y0003441353D01*
X0000565074Y0003436452D01*
X0000562819Y0003431007D01*
X0000561669Y0003425226D01*
X0000532322Y0003425226D01*
X0000532322Y0003426389D01*
X0000530719Y0003434452D01*
X0000527573Y0003442047D01*
X0000523006Y0003448882D01*
X0000517193Y0003454695D01*
X0000510358Y0003459262D01*
X0000502763Y0003462408D01*
X0000494700Y0003464011D01*
X0000486480Y0003464011D01*
X0000478417Y0003462408D01*
X0000470822Y0003459262D01*
X0000463987Y0003454695D01*
X0000458174Y0003448882D01*
X0000453607Y0003442047D01*
X0000450461Y0003434452D01*
X0000448858Y0003426389D01*
X0000432322Y0003426389D01*
X0000430719Y0003434452D01*
X0000427573Y0003442047D01*
X0000423006Y0003448882D01*
X0000417193Y0003454695D01*
X0000410358Y0003459262D01*
X0000402763Y0003462408D01*
X0000394700Y0003464011D01*
X0000386480Y0003464011D01*
X0000378417Y0003462408D01*
X0000370822Y0003459262D01*
X0000363987Y0003454695D01*
X0000358174Y0003448882D01*
X0000353607Y0003442047D01*
X0000350462Y0003434452D01*
X0000348858Y0003426389D01*
X0000260574Y0003426389D01*
X0000260574Y0003527204D01*
X0000385590Y0003527204D01*
X0000385590Y0003517354D01*
X0000387511Y0003507695D01*
X0000391281Y0003498595D01*
X0000396753Y0003490406D01*
X0000403717Y0003483442D01*
X0000411906Y0003477970D01*
X0000421006Y0003474200D01*
X0000430665Y0003472279D01*
X0000440515Y0003472279D01*
X0000450175Y0003474200D01*
X0000459274Y0003477970D01*
X0000467463Y0003483442D01*
X0000474428Y0003490406D01*
X0000479899Y0003498595D01*
X0000483669Y0003507695D01*
X0000485590Y0003517354D01*
X0000485590Y0003527204D01*
X0000585590Y0003527204D01*
X0000585590Y0003517354D01*
X0000587512Y0003507695D01*
X0000591281Y0003498595D01*
X0000596752Y0003490406D01*
X0000603717Y0003483442D01*
X0000611906Y0003477970D01*
X0000621006Y0003474200D01*
X0000630665Y0003472279D01*
X0000640515Y0003472279D01*
X0000650174Y0003474200D01*
X0000659274Y0003477970D01*
X0000667463Y0003483442D01*
X0000674428Y0003490406D01*
X0000679899Y0003498595D01*
X0000683669Y0003507695D01*
X0000685590Y0003517354D01*
X0000685590Y0003527204D01*
X0000785590Y0003527204D01*
X0000785590Y0003517354D01*
X0000787511Y0003507695D01*
X0000791281Y0003498595D01*
X0000796753Y0003490406D01*
X0000803717Y0003483442D01*
X0000811906Y0003477970D01*
X0000821006Y0003474200D01*
X0000830665Y0003472279D01*
X0000840515Y0003472279D01*
X0000850175Y0003474200D01*
X0000859274Y0003477970D01*
X0000867463Y0003483442D01*
X0000874428Y0003490406D01*
X0000879899Y0003498595D01*
X0000883669Y0003507695D01*
X0000885590Y0003517354D01*
X0000885590Y0003527204D01*
X0000985590Y0003527204D01*
X0000985590Y0003517354D01*
X0000987512Y0003507695D01*
X0000991281Y0003498595D01*
X0000996753Y0003490406D01*
X0001003717Y0003483442D01*
X0001011906Y0003477970D01*
X0001021006Y0003474200D01*
X0001030665Y0003472279D01*
X0001040515Y0003472279D01*
X0001050174Y0003474200D01*
X0001059274Y0003477970D01*
X0001067463Y0003483442D01*
X0001074428Y0003490406D01*
X0001079899Y0003498595D01*
X0001083669Y0003507695D01*
X0001085590Y0003517354D01*
X0001085590Y0003527204D01*
X0001083669Y0003536863D01*
X0001079899Y0003545963D01*
X0001074428Y0003554152D01*
X0001067463Y0003561117D01*
X0001059274Y0003566588D01*
X0001050174Y0003570358D01*
X0001040515Y0003572279D01*
X0001030665Y0003572279D01*
X0001021006Y0003570358D01*
X0001011906Y0003566588D01*
X0001003717Y0003561117D01*
X0000996753Y0003554152D01*
X0000991281Y0003545963D01*
X0000987512Y0003536863D01*
X0000985590Y0003527204D01*
X0000885590Y0003527204D01*
X0000883669Y0003536863D01*
X0000879899Y0003545963D01*
X0000874428Y0003554152D01*
X0000867463Y0003561117D01*
X0000859274Y0003566588D01*
X0000850175Y0003570358D01*
X0000840515Y0003572279D01*
X0000830665Y0003572279D01*
X0000821006Y0003570358D01*
X0000811906Y0003566588D01*
X0000803717Y0003561117D01*
X0000796753Y0003554152D01*
X0000791281Y0003545963D01*
X0000787511Y0003536863D01*
X0000785590Y0003527204D01*
X0000685590Y0003527204D01*
X0000683669Y0003536863D01*
X0000679899Y0003545963D01*
X0000674428Y0003554152D01*
X0000667463Y0003561117D01*
X0000659274Y0003566588D01*
X0000650174Y0003570358D01*
X0000640515Y0003572279D01*
X0000630665Y0003572279D01*
X0000621006Y0003570358D01*
X0000611906Y0003566588D01*
X0000603717Y0003561117D01*
X0000596752Y0003554152D01*
X0000591281Y0003545963D01*
X0000587512Y0003536863D01*
X0000585590Y0003527204D01*
X0000485590Y0003527204D01*
X0000483669Y0003536863D01*
X0000479899Y0003545963D01*
X0000474428Y0003554152D01*
X0000467463Y0003561117D01*
X0000459274Y0003566588D01*
X0000450175Y0003570358D01*
X0000440515Y0003572279D01*
X0000430665Y0003572279D01*
X0000421006Y0003570358D01*
X0000411906Y0003566588D01*
X0000403717Y0003561117D01*
X0000396753Y0003554152D01*
X0000391281Y0003545963D01*
X0000387511Y0003536863D01*
X0000385590Y0003527204D01*
X0000260574Y0003527204D01*
X0000260574Y0003585885D01*
X0001216389Y0003585885D01*
X0001216389Y0003262263D01*
G04 #@! TA.AperFunction,NonConductor*
D28*
G36*
X0001216389Y0003262263D02*
G01*
X0000260574Y0003262263D01*
X0000260574Y0003327204D01*
X0000285590Y0003327204D01*
X0000285590Y0003317354D01*
X0000287512Y0003307695D01*
X0000291281Y0003298595D01*
X0000296752Y0003290406D01*
X0000303717Y0003283442D01*
X0000311906Y0003277970D01*
X0000321006Y0003274200D01*
X0000330665Y0003272279D01*
X0000340515Y0003272279D01*
X0000350174Y0003274200D01*
X0000359274Y0003277970D01*
X0000367463Y0003283442D01*
X0000374428Y0003290406D01*
X0000379899Y0003298595D01*
X0000383669Y0003307695D01*
X0000385590Y0003317354D01*
X0000385590Y0003327204D01*
X0000485590Y0003327204D01*
X0000485590Y0003317354D01*
X0000487511Y0003307695D01*
X0000491281Y0003298595D01*
X0000496752Y0003290406D01*
X0000503717Y0003283442D01*
X0000511906Y0003277970D01*
X0000521006Y0003274200D01*
X0000530665Y0003272279D01*
X0000540515Y0003272279D01*
X0000550175Y0003274200D01*
X0000559274Y0003277970D01*
X0000567463Y0003283442D01*
X0000574428Y0003290406D01*
X0000579899Y0003298595D01*
X0000583669Y0003307695D01*
X0000585590Y0003317354D01*
X0000585590Y0003327204D01*
X0000685590Y0003327204D01*
X0000685590Y0003317354D01*
X0000687512Y0003307695D01*
X0000691281Y0003298595D01*
X0000696753Y0003290406D01*
X0000703717Y0003283442D01*
X0000711906Y0003277970D01*
X0000721006Y0003274200D01*
X0000730665Y0003272279D01*
X0000740515Y0003272279D01*
X0000750174Y0003274200D01*
X0000759274Y0003277970D01*
X0000767463Y0003283442D01*
X0000774428Y0003290406D01*
X0000779899Y0003298595D01*
X0000783669Y0003307695D01*
X0000785590Y0003317354D01*
X0000785590Y0003327204D01*
X0000785491Y0003327704D01*
X0000885590Y0003327704D01*
X0000885590Y0003317854D01*
X0000887511Y0003308195D01*
X0000891281Y0003299095D01*
X0000896752Y0003290906D01*
X0000903717Y0003283942D01*
X0000911906Y0003278470D01*
X0000921006Y0003274700D01*
X0000930665Y0003272779D01*
X0000940515Y0003272779D01*
X0000950175Y0003274700D01*
X0000959274Y0003278470D01*
X0000967463Y0003283942D01*
X0000974428Y0003290906D01*
X0000979899Y0003299095D01*
X0000983669Y0003308195D01*
X0000985590Y0003317854D01*
X0000985590Y0003327704D01*
X0001085590Y0003327704D01*
X0001085590Y0003317854D01*
X0001087512Y0003308195D01*
X0001091281Y0003299095D01*
X0001096753Y0003290906D01*
X0001103717Y0003283942D01*
X0001111906Y0003278470D01*
X0001121006Y0003274700D01*
X0001130665Y0003272779D01*
X0001140515Y0003272779D01*
X0001150175Y0003274700D01*
X0001159274Y0003278470D01*
X0001167463Y0003283942D01*
X0001174428Y0003290906D01*
X0001179899Y0003299095D01*
X0001183669Y0003308195D01*
X0001185590Y0003317854D01*
X0001185590Y0003327704D01*
X0001183669Y0003337363D01*
X0001179899Y0003346463D01*
X0001174428Y0003354652D01*
X0001167463Y0003361617D01*
X0001159274Y0003367088D01*
X0001150175Y0003370858D01*
X0001140515Y0003372779D01*
X0001130665Y0003372779D01*
X0001121006Y0003370858D01*
X0001111906Y0003367088D01*
X0001103717Y0003361617D01*
X0001096753Y0003354652D01*
X0001091281Y0003346463D01*
X0001087512Y0003337363D01*
X0001085590Y0003327704D01*
X0000985590Y0003327704D01*
X0000983669Y0003337363D01*
X0000979899Y0003346463D01*
X0000974428Y0003354652D01*
X0000967463Y0003361617D01*
X0000959274Y0003367088D01*
X0000950175Y0003370858D01*
X0000940515Y0003372779D01*
X0000930665Y0003372779D01*
X0000921006Y0003370858D01*
X0000911906Y0003367088D01*
X0000903717Y0003361617D01*
X0000896752Y0003354652D01*
X0000891281Y0003346463D01*
X0000887511Y0003337363D01*
X0000885590Y0003327704D01*
X0000785491Y0003327704D01*
X0000783669Y0003336863D01*
X0000779899Y0003345963D01*
X0000774428Y0003354152D01*
X0000767463Y0003361117D01*
X0000759274Y0003366588D01*
X0000750174Y0003370358D01*
X0000740515Y0003372279D01*
X0000730665Y0003372279D01*
X0000721006Y0003370358D01*
X0000711906Y0003366588D01*
X0000703717Y0003361117D01*
X0000696753Y0003354152D01*
X0000691281Y0003345963D01*
X0000687512Y0003336863D01*
X0000685590Y0003327204D01*
X0000585590Y0003327204D01*
X0000583669Y0003336863D01*
X0000579899Y0003345963D01*
X0000574428Y0003354152D01*
X0000567463Y0003361117D01*
X0000559274Y0003366588D01*
X0000550175Y0003370358D01*
X0000540515Y0003372279D01*
X0000530665Y0003372279D01*
X0000521006Y0003370358D01*
X0000511906Y0003366588D01*
X0000503717Y0003361117D01*
X0000496752Y0003354152D01*
X0000491281Y0003345963D01*
X0000487511Y0003336863D01*
X0000485590Y0003327204D01*
X0000385590Y0003327204D01*
X0000383669Y0003336863D01*
X0000379899Y0003345963D01*
X0000374428Y0003354152D01*
X0000367463Y0003361117D01*
X0000359274Y0003366588D01*
X0000350174Y0003370358D01*
X0000340515Y0003372279D01*
X0000330665Y0003372279D01*
X0000321006Y0003370358D01*
X0000311906Y0003366588D01*
X0000303717Y0003361117D01*
X0000296752Y0003354152D01*
X0000291281Y0003345963D01*
X0000287512Y0003336863D01*
X0000285590Y0003327204D01*
X0000260574Y0003327204D01*
X0000260574Y0003426389D01*
X0000348858Y0003426389D01*
X0000348858Y0003418169D01*
X0000350462Y0003410106D01*
X0000353607Y0003402511D01*
X0000358174Y0003395676D01*
X0000363987Y0003389863D01*
X0000370822Y0003385296D01*
X0000378417Y0003382150D01*
X0000386480Y0003380547D01*
X0000394700Y0003380547D01*
X0000402763Y0003382150D01*
X0000410358Y0003385296D01*
X0000417193Y0003389863D01*
X0000423006Y0003395676D01*
X0000427573Y0003402511D01*
X0000430719Y0003410106D01*
X0000432322Y0003418169D01*
X0000432322Y0003426389D01*
X0000448858Y0003426389D01*
X0000448858Y0003418169D01*
X0000450461Y0003410106D01*
X0000453607Y0003402511D01*
X0000458174Y0003395676D01*
X0000463987Y0003389863D01*
X0000470822Y0003385296D01*
X0000478417Y0003382150D01*
X0000486480Y0003380547D01*
X0000494700Y0003380547D01*
X0000502763Y0003382150D01*
X0000510358Y0003385296D01*
X0000517193Y0003389863D01*
X0000523006Y0003395676D01*
X0000527573Y0003402511D01*
X0000530719Y0003410106D01*
X0000532322Y0003418169D01*
X0000532322Y0003425226D01*
X0000561669Y0003425226D01*
X0000561669Y0003419332D01*
X0000562819Y0003413551D01*
X0000565074Y0003408106D01*
X0000568349Y0003403205D01*
X0000572516Y0003399038D01*
X0000577417Y0003395763D01*
X0000582862Y0003393508D01*
X0000588643Y0003392358D01*
X0000594537Y0003392358D01*
X0000600318Y0003393508D01*
X0000605763Y0003395763D01*
X0000610664Y0003399038D01*
X0000614831Y0003403205D01*
X0000618106Y0003408106D01*
X0000620361Y0003413551D01*
X0000621511Y0003419332D01*
X0000621511Y0003425226D01*
X0000621492Y0003425323D01*
X0000660685Y0003425323D01*
X0000660685Y0003419235D01*
X0000661872Y0003413264D01*
X0000664202Y0003407640D01*
X0000667584Y0003402578D01*
X0000671889Y0003398273D01*
X0000676951Y0003394891D01*
X0000682575Y0003392561D01*
X0000688546Y0003391374D01*
X0000694634Y0003391374D01*
X0000700605Y0003392561D01*
X0000706229Y0003394891D01*
X0000711291Y0003398273D01*
X0000715596Y0003402578D01*
X0000718978Y0003407640D01*
X0000721308Y0003413264D01*
X0000722496Y0003419235D01*
X0000722496Y0003425323D01*
X0000722358Y0003426017D01*
X0000758716Y0003426017D01*
X0000758716Y0003419541D01*
X0000759979Y0003413190D01*
X0000762457Y0003407207D01*
X0000766055Y0003401823D01*
X0000770634Y0003397244D01*
X0000776018Y0003393646D01*
X0000782001Y0003391168D01*
X0000788352Y0003389905D01*
X0000794828Y0003389905D01*
X0000801179Y0003391168D01*
X0000807162Y0003393646D01*
X0000812546Y0003397244D01*
X0000817125Y0003401823D01*
X0000820723Y0003407207D01*
X0000823201Y0003413190D01*
X0000824464Y0003419541D01*
X0000824464Y0003426017D01*
X0000824227Y0003427211D01*
X0000856748Y0003427211D01*
X0000856748Y0003420347D01*
X0000858087Y0003413616D01*
X0000860713Y0003407275D01*
X0000864526Y0003401568D01*
X0000869379Y0003396715D01*
X0000875086Y0003392902D01*
X0000881427Y0003390275D01*
X0000888158Y0003388937D01*
X0000895022Y0003388937D01*
X0000901753Y0003390275D01*
X0000908094Y0003392902D01*
X0000913801Y0003396715D01*
X0000918654Y0003401568D01*
X0000922467Y0003407275D01*
X0000925094Y0003413616D01*
X0000926433Y0003420347D01*
X0000926433Y0003426389D01*
X0000948858Y0003426389D01*
X0000948858Y0003418169D01*
X0000950462Y0003410106D01*
X0000953607Y0003402511D01*
X0000958174Y0003395676D01*
X0000963987Y0003389863D01*
X0000970822Y0003385296D01*
X0000978417Y0003382150D01*
X0000986480Y0003380547D01*
X0000994700Y0003380547D01*
X0001002763Y0003382150D01*
X0001010358Y0003385296D01*
X0001017193Y0003389863D01*
X0001023006Y0003395676D01*
X0001027573Y0003402511D01*
X0001030719Y0003410106D01*
X0001032322Y0003418169D01*
X0001032322Y0003426389D01*
X0001032223Y0003426889D01*
X0001048858Y0003426889D01*
X0001048858Y0003418669D01*
X0001050462Y0003410606D01*
X0001053607Y0003403011D01*
X0001058174Y0003396176D01*
X0001063987Y0003390363D01*
X0001070822Y0003385796D01*
X0001078417Y0003382650D01*
X0001086480Y0003381047D01*
X0001094700Y0003381047D01*
X0001102763Y0003382650D01*
X0001110358Y0003385796D01*
X0001117193Y0003390363D01*
X0001123006Y0003396176D01*
X0001127573Y0003403011D01*
X0001130719Y0003410606D01*
X0001132322Y0003418669D01*
X0001132322Y0003426889D01*
X0001130719Y0003434952D01*
X0001127573Y0003442547D01*
X0001123006Y0003449382D01*
X0001117193Y0003455195D01*
X0001110358Y0003459762D01*
X0001102763Y0003462908D01*
X0001094700Y0003464511D01*
X0001086480Y0003464511D01*
X0001078417Y0003462908D01*
X0001070822Y0003459762D01*
X0001063987Y0003455195D01*
X0001058174Y0003449382D01*
X0001053607Y0003442547D01*
X0001050462Y0003434952D01*
X0001048858Y0003426889D01*
X0001032223Y0003426889D01*
X0001030719Y0003434452D01*
X0001027573Y0003442047D01*
X0001023006Y0003448882D01*
X0001017193Y0003454695D01*
X0001010358Y0003459262D01*
X0001002763Y0003462408D01*
X0000994700Y0003464011D01*
X0000986480Y0003464011D01*
X0000978417Y0003462408D01*
X0000970822Y0003459262D01*
X0000963987Y0003454695D01*
X0000958174Y0003448882D01*
X0000953607Y0003442047D01*
X0000950462Y0003434452D01*
X0000948858Y0003426389D01*
X0000926433Y0003426389D01*
X0000926433Y0003427211D01*
X0000925094Y0003433942D01*
X0000922467Y0003440283D01*
X0000918654Y0003445990D01*
X0000913801Y0003450843D01*
X0000908094Y0003454656D01*
X0000901753Y0003457283D01*
X0000895022Y0003458622D01*
X0000888158Y0003458622D01*
X0000881427Y0003457283D01*
X0000875086Y0003454656D01*
X0000869379Y0003450843D01*
X0000864526Y0003445990D01*
X0000860713Y0003440283D01*
X0000858087Y0003433942D01*
X0000856748Y0003427211D01*
X0000824227Y0003427211D01*
X0000823201Y0003432368D01*
X0000820723Y0003438351D01*
X0000817125Y0003443735D01*
X0000812546Y0003448314D01*
X0000807162Y0003451912D01*
X0000801179Y0003454390D01*
X0000794828Y0003455653D01*
X0000788352Y0003455653D01*
X0000782001Y0003454390D01*
X0000776018Y0003451912D01*
X0000770634Y0003448314D01*
X0000766055Y0003443735D01*
X0000762457Y0003438351D01*
X0000759979Y0003432368D01*
X0000758716Y0003426017D01*
X0000722358Y0003426017D01*
X0000721308Y0003431294D01*
X0000718978Y0003436918D01*
X0000715596Y0003441980D01*
X0000711291Y0003446285D01*
X0000706229Y0003449667D01*
X0000700605Y0003451997D01*
X0000694634Y0003453185D01*
X0000688546Y0003453185D01*
X0000682575Y0003451997D01*
X0000676951Y0003449667D01*
X0000671889Y0003446285D01*
X0000667584Y0003441980D01*
X0000664202Y0003436918D01*
X0000661872Y0003431294D01*
X0000660685Y0003425323D01*
X0000621492Y0003425323D01*
X0000620361Y0003431007D01*
X0000618106Y0003436452D01*
X0000614831Y0003441353D01*
X0000610664Y0003445520D01*
X0000605763Y0003448795D01*
X0000600318Y0003451050D01*
X0000594537Y0003452200D01*
X0000588643Y0003452200D01*
X0000582862Y0003451050D01*
X0000577417Y0003448795D01*
X0000572516Y0003445520D01*
X0000568349Y0003441353D01*
X0000565074Y0003436452D01*
X0000562819Y0003431007D01*
X0000561669Y0003425226D01*
X0000532322Y0003425226D01*
X0000532322Y0003426389D01*
X0000530719Y0003434452D01*
X0000527573Y0003442047D01*
X0000523006Y0003448882D01*
X0000517193Y0003454695D01*
X0000510358Y0003459262D01*
X0000502763Y0003462408D01*
X0000494700Y0003464011D01*
X0000486480Y0003464011D01*
X0000478417Y0003462408D01*
X0000470822Y0003459262D01*
X0000463987Y0003454695D01*
X0000458174Y0003448882D01*
X0000453607Y0003442047D01*
X0000450461Y0003434452D01*
X0000448858Y0003426389D01*
X0000432322Y0003426389D01*
X0000430719Y0003434452D01*
X0000427573Y0003442047D01*
X0000423006Y0003448882D01*
X0000417193Y0003454695D01*
X0000410358Y0003459262D01*
X0000402763Y0003462408D01*
X0000394700Y0003464011D01*
X0000386480Y0003464011D01*
X0000378417Y0003462408D01*
X0000370822Y0003459262D01*
X0000363987Y0003454695D01*
X0000358174Y0003448882D01*
X0000353607Y0003442047D01*
X0000350462Y0003434452D01*
X0000348858Y0003426389D01*
X0000260574Y0003426389D01*
X0000260574Y0003527204D01*
X0000385590Y0003527204D01*
X0000385590Y0003517354D01*
X0000387511Y0003507695D01*
X0000391281Y0003498595D01*
X0000396753Y0003490406D01*
X0000403717Y0003483442D01*
X0000411906Y0003477970D01*
X0000421006Y0003474200D01*
X0000430665Y0003472279D01*
X0000440515Y0003472279D01*
X0000450175Y0003474200D01*
X0000459274Y0003477970D01*
X0000467463Y0003483442D01*
X0000474428Y0003490406D01*
X0000479899Y0003498595D01*
X0000483669Y0003507695D01*
X0000485590Y0003517354D01*
X0000485590Y0003527204D01*
X0000585590Y0003527204D01*
X0000585590Y0003517354D01*
X0000587512Y0003507695D01*
X0000591281Y0003498595D01*
X0000596752Y0003490406D01*
X0000603717Y0003483442D01*
X0000611906Y0003477970D01*
X0000621006Y0003474200D01*
X0000630665Y0003472279D01*
X0000640515Y0003472279D01*
X0000650174Y0003474200D01*
X0000659274Y0003477970D01*
X0000667463Y0003483442D01*
X0000674428Y0003490406D01*
X0000679899Y0003498595D01*
X0000683669Y0003507695D01*
X0000685590Y0003517354D01*
X0000685590Y0003527204D01*
X0000785590Y0003527204D01*
X0000785590Y0003517354D01*
X0000787511Y0003507695D01*
X0000791281Y0003498595D01*
X0000796753Y0003490406D01*
X0000803717Y0003483442D01*
X0000811906Y0003477970D01*
X0000821006Y0003474200D01*
X0000830665Y0003472279D01*
X0000840515Y0003472279D01*
X0000850175Y0003474200D01*
X0000859274Y0003477970D01*
X0000867463Y0003483442D01*
X0000874428Y0003490406D01*
X0000879899Y0003498595D01*
X0000883669Y0003507695D01*
X0000885590Y0003517354D01*
X0000885590Y0003527204D01*
X0000985590Y0003527204D01*
X0000985590Y0003517354D01*
X0000987512Y0003507695D01*
X0000991281Y0003498595D01*
X0000996753Y0003490406D01*
X0001003717Y0003483442D01*
X0001011906Y0003477970D01*
X0001021006Y0003474200D01*
X0001030665Y0003472279D01*
X0001040515Y0003472279D01*
X0001050174Y0003474200D01*
X0001059274Y0003477970D01*
X0001067463Y0003483442D01*
X0001074428Y0003490406D01*
X0001079899Y0003498595D01*
X0001083669Y0003507695D01*
X0001085590Y0003517354D01*
X0001085590Y0003527204D01*
X0001083669Y0003536863D01*
X0001079899Y0003545963D01*
X0001074428Y0003554152D01*
X0001067463Y0003561117D01*
X0001059274Y0003566588D01*
X0001050174Y0003570358D01*
X0001040515Y0003572279D01*
X0001030665Y0003572279D01*
X0001021006Y0003570358D01*
X0001011906Y0003566588D01*
X0001003717Y0003561117D01*
X0000996753Y0003554152D01*
X0000991281Y0003545963D01*
X0000987512Y0003536863D01*
X0000985590Y0003527204D01*
X0000885590Y0003527204D01*
X0000883669Y0003536863D01*
X0000879899Y0003545963D01*
X0000874428Y0003554152D01*
X0000867463Y0003561117D01*
X0000859274Y0003566588D01*
X0000850175Y0003570358D01*
X0000840515Y0003572279D01*
X0000830665Y0003572279D01*
X0000821006Y0003570358D01*
X0000811906Y0003566588D01*
X0000803717Y0003561117D01*
X0000796753Y0003554152D01*
X0000791281Y0003545963D01*
X0000787511Y0003536863D01*
X0000785590Y0003527204D01*
X0000685590Y0003527204D01*
X0000683669Y0003536863D01*
X0000679899Y0003545963D01*
X0000674428Y0003554152D01*
X0000667463Y0003561117D01*
X0000659274Y0003566588D01*
X0000650174Y0003570358D01*
X0000640515Y0003572279D01*
X0000630665Y0003572279D01*
X0000621006Y0003570358D01*
X0000611906Y0003566588D01*
X0000603717Y0003561117D01*
X0000596752Y0003554152D01*
X0000591281Y0003545963D01*
X0000587512Y0003536863D01*
X0000585590Y0003527204D01*
X0000485590Y0003527204D01*
X0000483669Y0003536863D01*
X0000479899Y0003545963D01*
X0000474428Y0003554152D01*
X0000467463Y0003561117D01*
X0000459274Y0003566588D01*
X0000450175Y0003570358D01*
X0000440515Y0003572279D01*
X0000430665Y0003572279D01*
X0000421006Y0003570358D01*
X0000411906Y0003566588D01*
X0000403717Y0003561117D01*
X0000396753Y0003554152D01*
X0000391281Y0003545963D01*
X0000387511Y0003536863D01*
X0000385590Y0003527204D01*
X0000260574Y0003527204D01*
X0000260574Y0003585885D01*
X0001216389Y0003585885D01*
X0001216389Y0003262263D01*
G37*
G04 #@! TD.AperFunction*
G04 next file*
G04 #@! TF.GenerationSoftware,KiCad,Pcbnew,(5.1.12)-1*
G04 #@! TF.CreationDate,2022-03-26T22:19:29+08:00*
G04 #@! TF.ProjectId,Nozzle,4e6f7a7a-6c65-42e6-9b69-6361645f7063,0.5*
G04 #@! TF.SameCoordinates,Original*
G04 #@! TF.FileFunction,Copper,L2,Bot*
G04 #@! TF.FilePolarity,Positive*
G04 Gerber Fmt 4.6, Leading zero omitted, Abs format (unit mm)*
G04 Created by KiCad (PCBNEW (5.1.12)-1) date 2022-03-26 22:19:29*
G01*
G04 APERTURE LIST*
G04 #@! TA.AperFunction,ComponentPad*
G04 #@! TD*
G04 #@! TA.AperFunction,NonConductor*
G04 #@! TD*
G04 #@! TA.AperFunction,NonConductor*
G04 #@! TD*
G04 APERTURE END LIST*
D29*
X0000511811Y-0002795275D02*
X0001852811Y0003019724D03*
X0001853311Y0002419724D03*
X0001853311Y0002919724D03*
X0001853311Y0002319724D03*
D30*
X0002013326Y0003145523D02*
X0002013326Y0002189708D01*
X0001948386Y0002189708D01*
X0001948386Y0002214724D01*
X0001958235Y0002214724D01*
X0001967895Y0002216645D01*
X0001976994Y0002220414D01*
X0001985184Y0002225886D01*
X0001992148Y0002232851D01*
X0001997620Y0002241040D01*
X0002001389Y0002250139D01*
X0002003311Y0002259799D01*
X0002003311Y0002269648D01*
X0002001389Y0002279308D01*
X0001997620Y0002288408D01*
X0001992148Y0002296597D01*
X0001985184Y0002303561D01*
X0001976994Y0002309033D01*
X0001967895Y0002312802D01*
X0001958235Y0002314724D01*
X0001948386Y0002314724D01*
X0001948386Y0002414724D01*
X0001958235Y0002414724D01*
X0001967895Y0002416645D01*
X0001976994Y0002420415D01*
X0001985184Y0002425886D01*
X0001992148Y0002432851D01*
X0001997620Y0002441040D01*
X0002001389Y0002450139D01*
X0002003311Y0002459799D01*
X0002003311Y0002469648D01*
X0002001389Y0002479308D01*
X0001997620Y0002488408D01*
X0001992148Y0002496597D01*
X0001985184Y0002503561D01*
X0001976994Y0002509033D01*
X0001967895Y0002512802D01*
X0001958235Y0002514724D01*
X0001948386Y0002514724D01*
X0001948386Y0002614724D01*
X0001958235Y0002614724D01*
X0001967895Y0002616645D01*
X0001976994Y0002620414D01*
X0001985184Y0002625886D01*
X0001992148Y0002632851D01*
X0001997620Y0002641040D01*
X0002001389Y0002650139D01*
X0002003311Y0002659799D01*
X0002003311Y0002669648D01*
X0002001389Y0002679308D01*
X0001997620Y0002688408D01*
X0001992148Y0002696597D01*
X0001985184Y0002703561D01*
X0001976994Y0002709033D01*
X0001967895Y0002712802D01*
X0001958235Y0002714724D01*
X0001948386Y0002714724D01*
X0001947886Y0002714624D01*
X0001947886Y0002814724D01*
X0001957735Y0002814724D01*
X0001967395Y0002816645D01*
X0001976494Y0002820415D01*
X0001984684Y0002825886D01*
X0001991648Y0002832851D01*
X0001997120Y0002841040D01*
X0002000889Y0002850139D01*
X0002002811Y0002859799D01*
X0002002811Y0002869648D01*
X0002000889Y0002879308D01*
X0001997120Y0002888408D01*
X0001991648Y0002896597D01*
X0001984684Y0002903561D01*
X0001976494Y0002909033D01*
X0001967395Y0002912802D01*
X0001957735Y0002914724D01*
X0001947886Y0002914724D01*
X0001947886Y0003014724D01*
X0001957735Y0003014724D01*
X0001967395Y0003016645D01*
X0001976494Y0003020414D01*
X0001984684Y0003025886D01*
X0001991648Y0003032851D01*
X0001997120Y0003041040D01*
X0002000889Y0003050139D01*
X0002002811Y0003059799D01*
X0002002811Y0003069648D01*
X0002000889Y0003079308D01*
X0001997120Y0003088408D01*
X0001991648Y0003096597D01*
X0001984684Y0003103561D01*
X0001976494Y0003109033D01*
X0001967395Y0003112802D01*
X0001957735Y0003114724D01*
X0001947886Y0003114724D01*
X0001938226Y0003112802D01*
X0001929127Y0003109033D01*
X0001920937Y0003103561D01*
X0001913973Y0003096597D01*
X0001908501Y0003088408D01*
X0001904732Y0003079308D01*
X0001902811Y0003069648D01*
X0001902811Y0003059799D01*
X0001904732Y0003050139D01*
X0001908501Y0003041040D01*
X0001913973Y0003032851D01*
X0001920937Y0003025886D01*
X0001929127Y0003020414D01*
X0001938226Y0003016645D01*
X0001947886Y0003014724D01*
X0001947886Y0002914724D01*
X0001938226Y0002912802D01*
X0001929127Y0002909033D01*
X0001920937Y0002903561D01*
X0001913973Y0002896597D01*
X0001908501Y0002888408D01*
X0001904732Y0002879308D01*
X0001902811Y0002869648D01*
X0001902811Y0002859799D01*
X0001904732Y0002850139D01*
X0001908501Y0002841040D01*
X0001913973Y0002832851D01*
X0001920937Y0002825886D01*
X0001929127Y0002820415D01*
X0001938226Y0002816645D01*
X0001947886Y0002814724D01*
X0001947886Y0002714624D01*
X0001938726Y0002712802D01*
X0001929627Y0002709033D01*
X0001921437Y0002703561D01*
X0001914473Y0002696597D01*
X0001909001Y0002688408D01*
X0001905232Y0002679308D01*
X0001903311Y0002669648D01*
X0001903311Y0002659799D01*
X0001905232Y0002650139D01*
X0001909001Y0002641040D01*
X0001914473Y0002632851D01*
X0001921437Y0002625886D01*
X0001929627Y0002620414D01*
X0001938726Y0002616645D01*
X0001948386Y0002614724D01*
X0001948386Y0002514724D01*
X0001938726Y0002512802D01*
X0001929627Y0002509033D01*
X0001921437Y0002503561D01*
X0001914473Y0002496597D01*
X0001909001Y0002488408D01*
X0001905232Y0002479308D01*
X0001903311Y0002469648D01*
X0001903311Y0002459799D01*
X0001905232Y0002450139D01*
X0001909001Y0002441040D01*
X0001914473Y0002432851D01*
X0001921437Y0002425886D01*
X0001929627Y0002420415D01*
X0001938726Y0002416645D01*
X0001948386Y0002414724D01*
X0001948386Y0002314724D01*
X0001938726Y0002312802D01*
X0001929627Y0002309033D01*
X0001921437Y0002303561D01*
X0001914473Y0002296597D01*
X0001909001Y0002288408D01*
X0001905232Y0002279308D01*
X0001903311Y0002269648D01*
X0001903311Y0002259799D01*
X0001905232Y0002250139D01*
X0001909001Y0002241040D01*
X0001914473Y0002232851D01*
X0001921437Y0002225886D01*
X0001929627Y0002220414D01*
X0001938726Y0002216645D01*
X0001948386Y0002214724D01*
X0001948386Y0002189708D01*
X0001849200Y0002189708D01*
X0001849200Y0002277992D01*
X0001857421Y0002277992D01*
X0001865483Y0002279595D01*
X0001873078Y0002282741D01*
X0001879913Y0002287308D01*
X0001885726Y0002293121D01*
X0001890293Y0002299956D01*
X0001893439Y0002307551D01*
X0001895043Y0002315614D01*
X0001895043Y0002323834D01*
X0001893439Y0002331897D01*
X0001890293Y0002339492D01*
X0001885726Y0002346327D01*
X0001879913Y0002352140D01*
X0001873078Y0002356707D01*
X0001865483Y0002359852D01*
X0001857421Y0002361456D01*
X0001849200Y0002361456D01*
X0001849200Y0002377992D01*
X0001857421Y0002377992D01*
X0001865483Y0002379595D01*
X0001873078Y0002382741D01*
X0001879913Y0002387308D01*
X0001885726Y0002393121D01*
X0001890293Y0002399956D01*
X0001893439Y0002407551D01*
X0001895043Y0002415614D01*
X0001895043Y0002423834D01*
X0001893439Y0002431897D01*
X0001890293Y0002439492D01*
X0001885726Y0002446327D01*
X0001879913Y0002452140D01*
X0001873078Y0002456707D01*
X0001865483Y0002459852D01*
X0001857421Y0002461456D01*
X0001850364Y0002461456D01*
X0001850364Y0002490803D01*
X0001856257Y0002490803D01*
X0001862038Y0002491952D01*
X0001867484Y0002494208D01*
X0001872384Y0002497483D01*
X0001876552Y0002501650D01*
X0001879826Y0002506551D01*
X0001882082Y0002511996D01*
X0001883232Y0002517777D01*
X0001883232Y0002523671D01*
X0001882082Y0002529452D01*
X0001879826Y0002534897D01*
X0001876552Y0002539798D01*
X0001872384Y0002543965D01*
X0001867484Y0002547240D01*
X0001862038Y0002549495D01*
X0001856257Y0002550645D01*
X0001850364Y0002550645D01*
X0001850267Y0002550626D01*
X0001850267Y0002589818D01*
X0001856354Y0002589818D01*
X0001862325Y0002591006D01*
X0001867950Y0002593336D01*
X0001873012Y0002596718D01*
X0001877316Y0002601023D01*
X0001880699Y0002606085D01*
X0001883028Y0002611709D01*
X0001884216Y0002617680D01*
X0001884216Y0002623768D01*
X0001883028Y0002629739D01*
X0001880699Y0002635363D01*
X0001877316Y0002640425D01*
X0001873012Y0002644730D01*
X0001867950Y0002648112D01*
X0001862325Y0002650442D01*
X0001856354Y0002651629D01*
X0001850267Y0002651629D01*
X0001849573Y0002651491D01*
X0001849573Y0002687850D01*
X0001856048Y0002687850D01*
X0001862400Y0002689113D01*
X0001868382Y0002691591D01*
X0001873766Y0002695189D01*
X0001878345Y0002699768D01*
X0001881943Y0002705152D01*
X0001884421Y0002711135D01*
X0001885685Y0002717486D01*
X0001885685Y0002723962D01*
X0001884421Y0002730313D01*
X0001881943Y0002736296D01*
X0001878345Y0002741680D01*
X0001873766Y0002746259D01*
X0001868382Y0002749856D01*
X0001862400Y0002752335D01*
X0001856048Y0002753598D01*
X0001849573Y0002753598D01*
X0001848379Y0002753360D01*
X0001848379Y0002785881D01*
X0001855242Y0002785881D01*
X0001861974Y0002787220D01*
X0001868315Y0002789847D01*
X0001874021Y0002793660D01*
X0001878874Y0002798513D01*
X0001882688Y0002804220D01*
X0001885314Y0002810561D01*
X0001886653Y0002817292D01*
X0001886653Y0002824156D01*
X0001885314Y0002830887D01*
X0001882688Y0002837228D01*
X0001878874Y0002842935D01*
X0001874021Y0002847788D01*
X0001868315Y0002851601D01*
X0001861974Y0002854227D01*
X0001855242Y0002855566D01*
X0001849200Y0002855566D01*
X0001849200Y0002877992D01*
X0001857421Y0002877992D01*
X0001865483Y0002879595D01*
X0001873078Y0002882741D01*
X0001879913Y0002887308D01*
X0001885726Y0002893121D01*
X0001890293Y0002899956D01*
X0001893439Y0002907551D01*
X0001895043Y0002915614D01*
X0001895043Y0002923834D01*
X0001893439Y0002931897D01*
X0001890293Y0002939492D01*
X0001885726Y0002946327D01*
X0001879913Y0002952139D01*
X0001873078Y0002956707D01*
X0001865483Y0002959852D01*
X0001857421Y0002961456D01*
X0001849200Y0002961456D01*
X0001848700Y0002961357D01*
X0001848700Y0002977992D01*
X0001856921Y0002977992D01*
X0001864983Y0002979595D01*
X0001872578Y0002982741D01*
X0001879413Y0002987308D01*
X0001885226Y0002993121D01*
X0001889793Y0002999956D01*
X0001892939Y0003007551D01*
X0001894543Y0003015614D01*
X0001894543Y0003023834D01*
X0001892939Y0003031897D01*
X0001889793Y0003039492D01*
X0001885226Y0003046327D01*
X0001879413Y0003052140D01*
X0001872578Y0003056707D01*
X0001864983Y0003059852D01*
X0001856921Y0003061456D01*
X0001848700Y0003061456D01*
X0001840638Y0003059852D01*
X0001833043Y0003056707D01*
X0001826208Y0003052140D01*
X0001820395Y0003046327D01*
X0001815828Y0003039492D01*
X0001812682Y0003031897D01*
X0001811078Y0003023834D01*
X0001811078Y0003015614D01*
X0001812682Y0003007551D01*
X0001815828Y0002999956D01*
X0001820395Y0002993121D01*
X0001826208Y0002987308D01*
X0001833043Y0002982741D01*
X0001840638Y0002979595D01*
X0001848700Y0002977992D01*
X0001848700Y0002961357D01*
X0001841138Y0002959852D01*
X0001833543Y0002956707D01*
X0001826708Y0002952139D01*
X0001820895Y0002946327D01*
X0001816328Y0002939492D01*
X0001813182Y0002931897D01*
X0001811578Y0002923834D01*
X0001811578Y0002915614D01*
X0001813182Y0002907551D01*
X0001816328Y0002899956D01*
X0001820895Y0002893121D01*
X0001826708Y0002887308D01*
X0001833543Y0002882741D01*
X0001841138Y0002879595D01*
X0001849200Y0002877992D01*
X0001849200Y0002855566D01*
X0001848379Y0002855566D01*
X0001841647Y0002854227D01*
X0001835306Y0002851601D01*
X0001829600Y0002847788D01*
X0001824747Y0002842935D01*
X0001820933Y0002837228D01*
X0001818307Y0002830887D01*
X0001816968Y0002824156D01*
X0001816968Y0002817292D01*
X0001818307Y0002810561D01*
X0001820933Y0002804220D01*
X0001824747Y0002798513D01*
X0001829600Y0002793660D01*
X0001835306Y0002789847D01*
X0001841647Y0002787220D01*
X0001848379Y0002785881D01*
X0001848379Y0002753360D01*
X0001843222Y0002752335D01*
X0001837239Y0002749856D01*
X0001831855Y0002746259D01*
X0001827276Y0002741680D01*
X0001823678Y0002736296D01*
X0001821200Y0002730313D01*
X0001819937Y0002723962D01*
X0001819937Y0002717486D01*
X0001821200Y0002711135D01*
X0001823678Y0002705152D01*
X0001827276Y0002699768D01*
X0001831855Y0002695189D01*
X0001837239Y0002691591D01*
X0001843222Y0002689113D01*
X0001849573Y0002687850D01*
X0001849573Y0002651491D01*
X0001844296Y0002650442D01*
X0001838671Y0002648112D01*
X0001833609Y0002644730D01*
X0001829305Y0002640425D01*
X0001825922Y0002635363D01*
X0001823593Y0002629739D01*
X0001822405Y0002623768D01*
X0001822405Y0002617680D01*
X0001823593Y0002611709D01*
X0001825922Y0002606085D01*
X0001829305Y0002601023D01*
X0001833609Y0002596718D01*
X0001838671Y0002593336D01*
X0001844296Y0002591006D01*
X0001850267Y0002589818D01*
X0001850267Y0002550626D01*
X0001844583Y0002549495D01*
X0001839137Y0002547240D01*
X0001834237Y0002543965D01*
X0001830069Y0002539798D01*
X0001826795Y0002534897D01*
X0001824539Y0002529452D01*
X0001823389Y0002523671D01*
X0001823389Y0002517777D01*
X0001824539Y0002511996D01*
X0001826795Y0002506551D01*
X0001830069Y0002501650D01*
X0001834237Y0002497483D01*
X0001839137Y0002494208D01*
X0001844583Y0002491952D01*
X0001850364Y0002490803D01*
X0001850364Y0002461456D01*
X0001849200Y0002461456D01*
X0001841138Y0002459852D01*
X0001833543Y0002456707D01*
X0001826708Y0002452140D01*
X0001820895Y0002446327D01*
X0001816328Y0002439492D01*
X0001813182Y0002431897D01*
X0001811578Y0002423834D01*
X0001811578Y0002415614D01*
X0001813182Y0002407551D01*
X0001816328Y0002399956D01*
X0001820895Y0002393121D01*
X0001826708Y0002387308D01*
X0001833543Y0002382741D01*
X0001841138Y0002379595D01*
X0001849200Y0002377992D01*
X0001849200Y0002361456D01*
X0001841138Y0002359852D01*
X0001833543Y0002356707D01*
X0001826708Y0002352140D01*
X0001820895Y0002346327D01*
X0001816328Y0002339492D01*
X0001813182Y0002331897D01*
X0001811578Y0002323834D01*
X0001811578Y0002315614D01*
X0001813182Y0002307551D01*
X0001816328Y0002299956D01*
X0001820895Y0002293121D01*
X0001826708Y0002287308D01*
X0001833543Y0002282741D01*
X0001841138Y0002279595D01*
X0001849200Y0002277992D01*
X0001849200Y0002189708D01*
X0001748386Y0002189708D01*
X0001748386Y0002314724D01*
X0001758235Y0002314724D01*
X0001767895Y0002316645D01*
X0001776994Y0002320414D01*
X0001785184Y0002325886D01*
X0001792148Y0002332851D01*
X0001797620Y0002341040D01*
X0001801389Y0002350139D01*
X0001803311Y0002359799D01*
X0001803311Y0002369648D01*
X0001801389Y0002379308D01*
X0001797620Y0002388408D01*
X0001792148Y0002396597D01*
X0001785184Y0002403561D01*
X0001776994Y0002409033D01*
X0001767895Y0002412802D01*
X0001758235Y0002414724D01*
X0001748386Y0002414724D01*
X0001748386Y0002514724D01*
X0001758235Y0002514724D01*
X0001767895Y0002516645D01*
X0001776994Y0002520415D01*
X0001785184Y0002525886D01*
X0001792148Y0002532851D01*
X0001797620Y0002541040D01*
X0001801389Y0002550139D01*
X0001803311Y0002559799D01*
X0001803311Y0002569648D01*
X0001801389Y0002579308D01*
X0001797620Y0002588408D01*
X0001792148Y0002596597D01*
X0001785184Y0002603561D01*
X0001776994Y0002609033D01*
X0001767895Y0002612802D01*
X0001758235Y0002614724D01*
X0001748386Y0002614724D01*
X0001748386Y0002714724D01*
X0001758235Y0002714724D01*
X0001767895Y0002716645D01*
X0001776994Y0002720415D01*
X0001785184Y0002725886D01*
X0001792148Y0002732851D01*
X0001797620Y0002741040D01*
X0001801389Y0002750139D01*
X0001803311Y0002759799D01*
X0001803311Y0002769648D01*
X0001801389Y0002779308D01*
X0001797620Y0002788408D01*
X0001792148Y0002796597D01*
X0001785184Y0002803561D01*
X0001776994Y0002809033D01*
X0001767895Y0002812802D01*
X0001758235Y0002814724D01*
X0001748386Y0002814724D01*
X0001748386Y0002914724D01*
X0001758235Y0002914724D01*
X0001767895Y0002916645D01*
X0001776994Y0002920415D01*
X0001785184Y0002925886D01*
X0001792148Y0002932851D01*
X0001797620Y0002941040D01*
X0001801389Y0002950139D01*
X0001803311Y0002959799D01*
X0001803311Y0002969648D01*
X0001801389Y0002979308D01*
X0001797620Y0002988408D01*
X0001792148Y0002996597D01*
X0001785184Y0003003561D01*
X0001776994Y0003009033D01*
X0001767895Y0003012802D01*
X0001758235Y0003014724D01*
X0001748386Y0003014724D01*
X0001738726Y0003012802D01*
X0001729627Y0003009033D01*
X0001721437Y0003003561D01*
X0001714473Y0002996597D01*
X0001709001Y0002988408D01*
X0001705232Y0002979308D01*
X0001703311Y0002969648D01*
X0001703311Y0002959799D01*
X0001705232Y0002950139D01*
X0001709001Y0002941040D01*
X0001714473Y0002932851D01*
X0001721437Y0002925886D01*
X0001729627Y0002920415D01*
X0001738726Y0002916645D01*
X0001748386Y0002914724D01*
X0001748386Y0002814724D01*
X0001738726Y0002812802D01*
X0001729627Y0002809033D01*
X0001721437Y0002803561D01*
X0001714473Y0002796597D01*
X0001709001Y0002788408D01*
X0001705232Y0002779308D01*
X0001703311Y0002769648D01*
X0001703311Y0002759799D01*
X0001705232Y0002750139D01*
X0001709001Y0002741040D01*
X0001714473Y0002732851D01*
X0001721437Y0002725886D01*
X0001729627Y0002720415D01*
X0001738726Y0002716645D01*
X0001748386Y0002714724D01*
X0001748386Y0002614724D01*
X0001738726Y0002612802D01*
X0001729627Y0002609033D01*
X0001721437Y0002603561D01*
X0001714473Y0002596597D01*
X0001709001Y0002588408D01*
X0001705232Y0002579308D01*
X0001703311Y0002569648D01*
X0001703311Y0002559799D01*
X0001705232Y0002550139D01*
X0001709001Y0002541040D01*
X0001714473Y0002532851D01*
X0001721437Y0002525886D01*
X0001729627Y0002520415D01*
X0001738726Y0002516645D01*
X0001748386Y0002514724D01*
X0001748386Y0002414724D01*
X0001738726Y0002412802D01*
X0001729627Y0002409033D01*
X0001721437Y0002403561D01*
X0001714473Y0002396597D01*
X0001709001Y0002388408D01*
X0001705232Y0002379308D01*
X0001703311Y0002369648D01*
X0001703311Y0002359799D01*
X0001705232Y0002350139D01*
X0001709001Y0002341040D01*
X0001714473Y0002332851D01*
X0001721437Y0002325886D01*
X0001729627Y0002320414D01*
X0001738726Y0002316645D01*
X0001748386Y0002314724D01*
X0001748386Y0002189708D01*
X0001689705Y0002189708D01*
X0001689705Y0003145523D01*
X0002013326Y0003145523D01*
G04 #@! TA.AperFunction,NonConductor*
D31*
G36*
X0002013326Y0003145523D02*
G01*
X0002013326Y0002189708D01*
X0001948386Y0002189708D01*
X0001948386Y0002214724D01*
X0001958235Y0002214724D01*
X0001967895Y0002216645D01*
X0001976994Y0002220414D01*
X0001985184Y0002225886D01*
X0001992148Y0002232851D01*
X0001997620Y0002241040D01*
X0002001389Y0002250139D01*
X0002003311Y0002259799D01*
X0002003311Y0002269648D01*
X0002001389Y0002279308D01*
X0001997620Y0002288408D01*
X0001992148Y0002296597D01*
X0001985184Y0002303561D01*
X0001976994Y0002309033D01*
X0001967895Y0002312802D01*
X0001958235Y0002314724D01*
X0001948386Y0002314724D01*
X0001948386Y0002414724D01*
X0001958235Y0002414724D01*
X0001967895Y0002416645D01*
X0001976994Y0002420415D01*
X0001985184Y0002425886D01*
X0001992148Y0002432851D01*
X0001997620Y0002441040D01*
X0002001389Y0002450139D01*
X0002003311Y0002459799D01*
X0002003311Y0002469648D01*
X0002001389Y0002479308D01*
X0001997620Y0002488408D01*
X0001992148Y0002496597D01*
X0001985184Y0002503561D01*
X0001976994Y0002509033D01*
X0001967895Y0002512802D01*
X0001958235Y0002514724D01*
X0001948386Y0002514724D01*
X0001948386Y0002614724D01*
X0001958235Y0002614724D01*
X0001967895Y0002616645D01*
X0001976994Y0002620414D01*
X0001985184Y0002625886D01*
X0001992148Y0002632851D01*
X0001997620Y0002641040D01*
X0002001389Y0002650139D01*
X0002003311Y0002659799D01*
X0002003311Y0002669648D01*
X0002001389Y0002679308D01*
X0001997620Y0002688408D01*
X0001992148Y0002696597D01*
X0001985184Y0002703561D01*
X0001976994Y0002709033D01*
X0001967895Y0002712802D01*
X0001958235Y0002714724D01*
X0001948386Y0002714724D01*
X0001947886Y0002714624D01*
X0001947886Y0002814724D01*
X0001957735Y0002814724D01*
X0001967395Y0002816645D01*
X0001976494Y0002820415D01*
X0001984684Y0002825886D01*
X0001991648Y0002832851D01*
X0001997120Y0002841040D01*
X0002000889Y0002850139D01*
X0002002811Y0002859799D01*
X0002002811Y0002869648D01*
X0002000889Y0002879308D01*
X0001997120Y0002888408D01*
X0001991648Y0002896597D01*
X0001984684Y0002903561D01*
X0001976494Y0002909033D01*
X0001967395Y0002912802D01*
X0001957735Y0002914724D01*
X0001947886Y0002914724D01*
X0001947886Y0003014724D01*
X0001957735Y0003014724D01*
X0001967395Y0003016645D01*
X0001976494Y0003020414D01*
X0001984684Y0003025886D01*
X0001991648Y0003032851D01*
X0001997120Y0003041040D01*
X0002000889Y0003050139D01*
X0002002811Y0003059799D01*
X0002002811Y0003069648D01*
X0002000889Y0003079308D01*
X0001997120Y0003088408D01*
X0001991648Y0003096597D01*
X0001984684Y0003103561D01*
X0001976494Y0003109033D01*
X0001967395Y0003112802D01*
X0001957735Y0003114724D01*
X0001947886Y0003114724D01*
X0001938226Y0003112802D01*
X0001929127Y0003109033D01*
X0001920937Y0003103561D01*
X0001913973Y0003096597D01*
X0001908501Y0003088408D01*
X0001904732Y0003079308D01*
X0001902811Y0003069648D01*
X0001902811Y0003059799D01*
X0001904732Y0003050139D01*
X0001908501Y0003041040D01*
X0001913973Y0003032851D01*
X0001920937Y0003025886D01*
X0001929127Y0003020414D01*
X0001938226Y0003016645D01*
X0001947886Y0003014724D01*
X0001947886Y0002914724D01*
X0001938226Y0002912802D01*
X0001929127Y0002909033D01*
X0001920937Y0002903561D01*
X0001913973Y0002896597D01*
X0001908501Y0002888408D01*
X0001904732Y0002879308D01*
X0001902811Y0002869648D01*
X0001902811Y0002859799D01*
X0001904732Y0002850139D01*
X0001908501Y0002841040D01*
X0001913973Y0002832851D01*
X0001920937Y0002825886D01*
X0001929127Y0002820415D01*
X0001938226Y0002816645D01*
X0001947886Y0002814724D01*
X0001947886Y0002714624D01*
X0001938726Y0002712802D01*
X0001929627Y0002709033D01*
X0001921437Y0002703561D01*
X0001914473Y0002696597D01*
X0001909001Y0002688408D01*
X0001905232Y0002679308D01*
X0001903311Y0002669648D01*
X0001903311Y0002659799D01*
X0001905232Y0002650139D01*
X0001909001Y0002641040D01*
X0001914473Y0002632851D01*
X0001921437Y0002625886D01*
X0001929627Y0002620414D01*
X0001938726Y0002616645D01*
X0001948386Y0002614724D01*
X0001948386Y0002514724D01*
X0001938726Y0002512802D01*
X0001929627Y0002509033D01*
X0001921437Y0002503561D01*
X0001914473Y0002496597D01*
X0001909001Y0002488408D01*
X0001905232Y0002479308D01*
X0001903311Y0002469648D01*
X0001903311Y0002459799D01*
X0001905232Y0002450139D01*
X0001909001Y0002441040D01*
X0001914473Y0002432851D01*
X0001921437Y0002425886D01*
X0001929627Y0002420415D01*
X0001938726Y0002416645D01*
X0001948386Y0002414724D01*
X0001948386Y0002314724D01*
X0001938726Y0002312802D01*
X0001929627Y0002309033D01*
X0001921437Y0002303561D01*
X0001914473Y0002296597D01*
X0001909001Y0002288408D01*
X0001905232Y0002279308D01*
X0001903311Y0002269648D01*
X0001903311Y0002259799D01*
X0001905232Y0002250139D01*
X0001909001Y0002241040D01*
X0001914473Y0002232851D01*
X0001921437Y0002225886D01*
X0001929627Y0002220414D01*
X0001938726Y0002216645D01*
X0001948386Y0002214724D01*
X0001948386Y0002189708D01*
X0001849200Y0002189708D01*
X0001849200Y0002277992D01*
X0001857421Y0002277992D01*
X0001865483Y0002279595D01*
X0001873078Y0002282741D01*
X0001879913Y0002287308D01*
X0001885726Y0002293121D01*
X0001890293Y0002299956D01*
X0001893439Y0002307551D01*
X0001895043Y0002315614D01*
X0001895043Y0002323834D01*
X0001893439Y0002331897D01*
X0001890293Y0002339492D01*
X0001885726Y0002346327D01*
X0001879913Y0002352140D01*
X0001873078Y0002356707D01*
X0001865483Y0002359852D01*
X0001857421Y0002361456D01*
X0001849200Y0002361456D01*
X0001849200Y0002377992D01*
X0001857421Y0002377992D01*
X0001865483Y0002379595D01*
X0001873078Y0002382741D01*
X0001879913Y0002387308D01*
X0001885726Y0002393121D01*
X0001890293Y0002399956D01*
X0001893439Y0002407551D01*
X0001895043Y0002415614D01*
X0001895043Y0002423834D01*
X0001893439Y0002431897D01*
X0001890293Y0002439492D01*
X0001885726Y0002446327D01*
X0001879913Y0002452140D01*
X0001873078Y0002456707D01*
X0001865483Y0002459852D01*
X0001857421Y0002461456D01*
X0001850364Y0002461456D01*
X0001850364Y0002490803D01*
X0001856257Y0002490803D01*
X0001862038Y0002491952D01*
X0001867484Y0002494208D01*
X0001872384Y0002497483D01*
X0001876552Y0002501650D01*
X0001879826Y0002506551D01*
X0001882082Y0002511996D01*
X0001883232Y0002517777D01*
X0001883232Y0002523671D01*
X0001882082Y0002529452D01*
X0001879826Y0002534897D01*
X0001876552Y0002539798D01*
X0001872384Y0002543965D01*
X0001867484Y0002547240D01*
X0001862038Y0002549495D01*
X0001856257Y0002550645D01*
X0001850364Y0002550645D01*
X0001850267Y0002550626D01*
X0001850267Y0002589818D01*
X0001856354Y0002589818D01*
X0001862325Y0002591006D01*
X0001867950Y0002593336D01*
X0001873012Y0002596718D01*
X0001877316Y0002601023D01*
X0001880699Y0002606085D01*
X0001883028Y0002611709D01*
X0001884216Y0002617680D01*
X0001884216Y0002623768D01*
X0001883028Y0002629739D01*
X0001880699Y0002635363D01*
X0001877316Y0002640425D01*
X0001873012Y0002644730D01*
X0001867950Y0002648112D01*
X0001862325Y0002650442D01*
X0001856354Y0002651629D01*
X0001850267Y0002651629D01*
X0001849573Y0002651491D01*
X0001849573Y0002687850D01*
X0001856048Y0002687850D01*
X0001862400Y0002689113D01*
X0001868382Y0002691591D01*
X0001873766Y0002695189D01*
X0001878345Y0002699768D01*
X0001881943Y0002705152D01*
X0001884421Y0002711135D01*
X0001885685Y0002717486D01*
X0001885685Y0002723962D01*
X0001884421Y0002730313D01*
X0001881943Y0002736296D01*
X0001878345Y0002741680D01*
X0001873766Y0002746259D01*
X0001868382Y0002749856D01*
X0001862400Y0002752335D01*
X0001856048Y0002753598D01*
X0001849573Y0002753598D01*
X0001848379Y0002753360D01*
X0001848379Y0002785881D01*
X0001855242Y0002785881D01*
X0001861974Y0002787220D01*
X0001868315Y0002789847D01*
X0001874021Y0002793660D01*
X0001878874Y0002798513D01*
X0001882688Y0002804220D01*
X0001885314Y0002810561D01*
X0001886653Y0002817292D01*
X0001886653Y0002824156D01*
X0001885314Y0002830887D01*
X0001882688Y0002837228D01*
X0001878874Y0002842935D01*
X0001874021Y0002847788D01*
X0001868315Y0002851601D01*
X0001861974Y0002854227D01*
X0001855242Y0002855566D01*
X0001849200Y0002855566D01*
X0001849200Y0002877992D01*
X0001857421Y0002877992D01*
X0001865483Y0002879595D01*
X0001873078Y0002882741D01*
X0001879913Y0002887308D01*
X0001885726Y0002893121D01*
X0001890293Y0002899956D01*
X0001893439Y0002907551D01*
X0001895043Y0002915614D01*
X0001895043Y0002923834D01*
X0001893439Y0002931897D01*
X0001890293Y0002939492D01*
X0001885726Y0002946327D01*
X0001879913Y0002952139D01*
X0001873078Y0002956707D01*
X0001865483Y0002959852D01*
X0001857421Y0002961456D01*
X0001849200Y0002961456D01*
X0001848700Y0002961357D01*
X0001848700Y0002977992D01*
X0001856921Y0002977992D01*
X0001864983Y0002979595D01*
X0001872578Y0002982741D01*
X0001879413Y0002987308D01*
X0001885226Y0002993121D01*
X0001889793Y0002999956D01*
X0001892939Y0003007551D01*
X0001894543Y0003015614D01*
X0001894543Y0003023834D01*
X0001892939Y0003031897D01*
X0001889793Y0003039492D01*
X0001885226Y0003046327D01*
X0001879413Y0003052140D01*
X0001872578Y0003056707D01*
X0001864983Y0003059852D01*
X0001856921Y0003061456D01*
X0001848700Y0003061456D01*
X0001840638Y0003059852D01*
X0001833043Y0003056707D01*
X0001826208Y0003052140D01*
X0001820395Y0003046327D01*
X0001815828Y0003039492D01*
X0001812682Y0003031897D01*
X0001811078Y0003023834D01*
X0001811078Y0003015614D01*
X0001812682Y0003007551D01*
X0001815828Y0002999956D01*
X0001820395Y0002993121D01*
X0001826208Y0002987308D01*
X0001833043Y0002982741D01*
X0001840638Y0002979595D01*
X0001848700Y0002977992D01*
X0001848700Y0002961357D01*
X0001841138Y0002959852D01*
X0001833543Y0002956707D01*
X0001826708Y0002952139D01*
X0001820895Y0002946327D01*
X0001816328Y0002939492D01*
X0001813182Y0002931897D01*
X0001811578Y0002923834D01*
X0001811578Y0002915614D01*
X0001813182Y0002907551D01*
X0001816328Y0002899956D01*
X0001820895Y0002893121D01*
X0001826708Y0002887308D01*
X0001833543Y0002882741D01*
X0001841138Y0002879595D01*
X0001849200Y0002877992D01*
X0001849200Y0002855566D01*
X0001848379Y0002855566D01*
X0001841647Y0002854227D01*
X0001835306Y0002851601D01*
X0001829600Y0002847788D01*
X0001824747Y0002842935D01*
X0001820933Y0002837228D01*
X0001818307Y0002830887D01*
X0001816968Y0002824156D01*
X0001816968Y0002817292D01*
X0001818307Y0002810561D01*
X0001820933Y0002804220D01*
X0001824747Y0002798513D01*
X0001829600Y0002793660D01*
X0001835306Y0002789847D01*
X0001841647Y0002787220D01*
X0001848379Y0002785881D01*
X0001848379Y0002753360D01*
X0001843222Y0002752335D01*
X0001837239Y0002749856D01*
X0001831855Y0002746259D01*
X0001827276Y0002741680D01*
X0001823678Y0002736296D01*
X0001821200Y0002730313D01*
X0001819937Y0002723962D01*
X0001819937Y0002717486D01*
X0001821200Y0002711135D01*
X0001823678Y0002705152D01*
X0001827276Y0002699768D01*
X0001831855Y0002695189D01*
X0001837239Y0002691591D01*
X0001843222Y0002689113D01*
X0001849573Y0002687850D01*
X0001849573Y0002651491D01*
X0001844296Y0002650442D01*
X0001838671Y0002648112D01*
X0001833609Y0002644730D01*
X0001829305Y0002640425D01*
X0001825922Y0002635363D01*
X0001823593Y0002629739D01*
X0001822405Y0002623768D01*
X0001822405Y0002617680D01*
X0001823593Y0002611709D01*
X0001825922Y0002606085D01*
X0001829305Y0002601023D01*
X0001833609Y0002596718D01*
X0001838671Y0002593336D01*
X0001844296Y0002591006D01*
X0001850267Y0002589818D01*
X0001850267Y0002550626D01*
X0001844583Y0002549495D01*
X0001839137Y0002547240D01*
X0001834237Y0002543965D01*
X0001830069Y0002539798D01*
X0001826795Y0002534897D01*
X0001824539Y0002529452D01*
X0001823389Y0002523671D01*
X0001823389Y0002517777D01*
X0001824539Y0002511996D01*
X0001826795Y0002506551D01*
X0001830069Y0002501650D01*
X0001834237Y0002497483D01*
X0001839137Y0002494208D01*
X0001844583Y0002491952D01*
X0001850364Y0002490803D01*
X0001850364Y0002461456D01*
X0001849200Y0002461456D01*
X0001841138Y0002459852D01*
X0001833543Y0002456707D01*
X0001826708Y0002452140D01*
X0001820895Y0002446327D01*
X0001816328Y0002439492D01*
X0001813182Y0002431897D01*
X0001811578Y0002423834D01*
X0001811578Y0002415614D01*
X0001813182Y0002407551D01*
X0001816328Y0002399956D01*
X0001820895Y0002393121D01*
X0001826708Y0002387308D01*
X0001833543Y0002382741D01*
X0001841138Y0002379595D01*
X0001849200Y0002377992D01*
X0001849200Y0002361456D01*
X0001841138Y0002359852D01*
X0001833543Y0002356707D01*
X0001826708Y0002352140D01*
X0001820895Y0002346327D01*
X0001816328Y0002339492D01*
X0001813182Y0002331897D01*
X0001811578Y0002323834D01*
X0001811578Y0002315614D01*
X0001813182Y0002307551D01*
X0001816328Y0002299956D01*
X0001820895Y0002293121D01*
X0001826708Y0002287308D01*
X0001833543Y0002282741D01*
X0001841138Y0002279595D01*
X0001849200Y0002277992D01*
X0001849200Y0002189708D01*
X0001748386Y0002189708D01*
X0001748386Y0002314724D01*
X0001758235Y0002314724D01*
X0001767895Y0002316645D01*
X0001776994Y0002320414D01*
X0001785184Y0002325886D01*
X0001792148Y0002332851D01*
X0001797620Y0002341040D01*
X0001801389Y0002350139D01*
X0001803311Y0002359799D01*
X0001803311Y0002369648D01*
X0001801389Y0002379308D01*
X0001797620Y0002388408D01*
X0001792148Y0002396597D01*
X0001785184Y0002403561D01*
X0001776994Y0002409033D01*
X0001767895Y0002412802D01*
X0001758235Y0002414724D01*
X0001748386Y0002414724D01*
X0001748386Y0002514724D01*
X0001758235Y0002514724D01*
X0001767895Y0002516645D01*
X0001776994Y0002520415D01*
X0001785184Y0002525886D01*
X0001792148Y0002532851D01*
X0001797620Y0002541040D01*
X0001801389Y0002550139D01*
X0001803311Y0002559799D01*
X0001803311Y0002569648D01*
X0001801389Y0002579308D01*
X0001797620Y0002588408D01*
X0001792148Y0002596597D01*
X0001785184Y0002603561D01*
X0001776994Y0002609033D01*
X0001767895Y0002612802D01*
X0001758235Y0002614724D01*
X0001748386Y0002614724D01*
X0001748386Y0002714724D01*
X0001758235Y0002714724D01*
X0001767895Y0002716645D01*
X0001776994Y0002720415D01*
X0001785184Y0002725886D01*
X0001792148Y0002732851D01*
X0001797620Y0002741040D01*
X0001801389Y0002750139D01*
X0001803311Y0002759799D01*
X0001803311Y0002769648D01*
X0001801389Y0002779308D01*
X0001797620Y0002788408D01*
X0001792148Y0002796597D01*
X0001785184Y0002803561D01*
X0001776994Y0002809033D01*
X0001767895Y0002812802D01*
X0001758235Y0002814724D01*
X0001748386Y0002814724D01*
X0001748386Y0002914724D01*
X0001758235Y0002914724D01*
X0001767895Y0002916645D01*
X0001776994Y0002920415D01*
X0001785184Y0002925886D01*
X0001792148Y0002932851D01*
X0001797620Y0002941040D01*
X0001801389Y0002950139D01*
X0001803311Y0002959799D01*
X0001803311Y0002969648D01*
X0001801389Y0002979308D01*
X0001797620Y0002988408D01*
X0001792148Y0002996597D01*
X0001785184Y0003003561D01*
X0001776994Y0003009033D01*
X0001767895Y0003012802D01*
X0001758235Y0003014724D01*
X0001748386Y0003014724D01*
X0001738726Y0003012802D01*
X0001729627Y0003009033D01*
X0001721437Y0003003561D01*
X0001714473Y0002996597D01*
X0001709001Y0002988408D01*
X0001705232Y0002979308D01*
X0001703311Y0002969648D01*
X0001703311Y0002959799D01*
X0001705232Y0002950139D01*
X0001709001Y0002941040D01*
X0001714473Y0002932851D01*
X0001721437Y0002925886D01*
X0001729627Y0002920415D01*
X0001738726Y0002916645D01*
X0001748386Y0002914724D01*
X0001748386Y0002814724D01*
X0001738726Y0002812802D01*
X0001729627Y0002809033D01*
X0001721437Y0002803561D01*
X0001714473Y0002796597D01*
X0001709001Y0002788408D01*
X0001705232Y0002779308D01*
X0001703311Y0002769648D01*
X0001703311Y0002759799D01*
X0001705232Y0002750139D01*
X0001709001Y0002741040D01*
X0001714473Y0002732851D01*
X0001721437Y0002725886D01*
X0001729627Y0002720415D01*
X0001738726Y0002716645D01*
X0001748386Y0002714724D01*
X0001748386Y0002614724D01*
X0001738726Y0002612802D01*
X0001729627Y0002609033D01*
X0001721437Y0002603561D01*
X0001714473Y0002596597D01*
X0001709001Y0002588408D01*
X0001705232Y0002579308D01*
X0001703311Y0002569648D01*
X0001703311Y0002559799D01*
X0001705232Y0002550139D01*
X0001709001Y0002541040D01*
X0001714473Y0002532851D01*
X0001721437Y0002525886D01*
X0001729627Y0002520415D01*
X0001738726Y0002516645D01*
X0001748386Y0002514724D01*
X0001748386Y0002414724D01*
X0001738726Y0002412802D01*
X0001729627Y0002409033D01*
X0001721437Y0002403561D01*
X0001714473Y0002396597D01*
X0001709001Y0002388408D01*
X0001705232Y0002379308D01*
X0001703311Y0002369648D01*
X0001703311Y0002359799D01*
X0001705232Y0002350139D01*
X0001709001Y0002341040D01*
X0001714473Y0002332851D01*
X0001721437Y0002325886D01*
X0001729627Y0002320414D01*
X0001738726Y0002316645D01*
X0001748386Y0002314724D01*
X0001748386Y0002189708D01*
X0001689705Y0002189708D01*
X0001689705Y0003145523D01*
X0002013326Y0003145523D01*
G37*
G04 #@! TD.AperFunction*
G04 next file*
G04 #@! TF.GenerationSoftware,KiCad,Pcbnew,(5.1.12)-1*
G04 #@! TF.CreationDate,2022-03-26T22:12:19+08:00*
G04 #@! TF.ProjectId,Nozzle,4e6f7a7a-6c65-42e6-9b69-6361645f7063,0.5*
G04 #@! TF.SameCoordinates,Original*
G04 #@! TF.FileFunction,Copper,L2,Bot*
G04 #@! TF.FilePolarity,Positive*
G04 Gerber Fmt 4.6, Leading zero omitted, Abs format (unit mm)*
G04 Created by KiCad (PCBNEW (5.1.12)-1) date 2022-03-26 22:12:19*
G01*
G04 APERTURE LIST*
G04 #@! TA.AperFunction,ComponentPad*
G04 #@! TD*
G04 #@! TA.AperFunction,NonConductor*
G04 #@! TD*
G04 #@! TA.AperFunction,NonConductor*
G04 #@! TD*
G04 APERTURE END LIST*
D32*
X-0004461847Y0005193189D02*
X0001399152Y0000367189D03*
X0000567152Y0000618189D03*
D33*
X0001883909Y0000957138D02*
X0001893776Y0000954159D01*
X0001902875Y0000949320D01*
X0001910862Y0000942806D01*
X0001917432Y0000934865D01*
X0001922334Y0000925799D01*
X0001925381Y0000915954D01*
X0001926585Y0000904504D01*
X0001926803Y0000080318D01*
X0001925670Y0000068767D01*
X0001922684Y0000058875D01*
X0001917833Y0000049752D01*
X0001911302Y0000041745D01*
X0001903341Y0000035158D01*
X0001894252Y0000030244D01*
X0001884381Y0000027188D01*
X0001872918Y0000025984D01*
X0001675959Y0000025984D01*
X0001675959Y0000025984D01*
X0000080011Y0000025984D01*
X0000068517Y0000027111D01*
X0000058683Y0000030080D01*
X0000049614Y0000034902D01*
X0000041654Y0000041394D01*
X0000035106Y0000049309D01*
X0000030221Y0000058344D01*
X0000027183Y0000068156D01*
X0000025984Y0000079570D01*
X0000025984Y0000156417D01*
X0000660345Y0000156417D01*
X0000660345Y0000142961D01*
X0000662970Y0000129765D01*
X0000668119Y0000117333D01*
X0000675594Y0000106146D01*
X0000685109Y0000096631D01*
X0000696297Y0000089156D01*
X0000708728Y0000084007D01*
X0000721924Y0000081382D01*
X0000735380Y0000081382D01*
X0000748577Y0000084007D01*
X0000761008Y0000089156D01*
X0000772195Y0000096631D01*
X0000781710Y0000106146D01*
X0000789185Y0000117333D01*
X0000794334Y0000129765D01*
X0000796959Y0000142961D01*
X0000796959Y0000156417D01*
X0001156345Y0000156417D01*
X0001156345Y0000142961D01*
X0001158970Y0000129765D01*
X0001164119Y0000117333D01*
X0001171594Y0000106146D01*
X0001181109Y0000096631D01*
X0001192297Y0000089156D01*
X0001204728Y0000084007D01*
X0001217924Y0000081382D01*
X0001231380Y0000081382D01*
X0001244577Y0000084007D01*
X0001257008Y0000089156D01*
X0001268195Y0000096631D01*
X0001277710Y0000106146D01*
X0001285185Y0000117333D01*
X0001290334Y0000129765D01*
X0001292959Y0000142961D01*
X0001292959Y0000156417D01*
X0001290334Y0000169613D01*
X0001285185Y0000182044D01*
X0001277710Y0000193232D01*
X0001268195Y0000202747D01*
X0001257008Y0000210222D01*
X0001244577Y0000215371D01*
X0001231380Y0000217996D01*
X0001217924Y0000217996D01*
X0001204728Y0000215371D01*
X0001192297Y0000210222D01*
X0001181109Y0000202747D01*
X0001171594Y0000193232D01*
X0001164119Y0000182044D01*
X0001158970Y0000169613D01*
X0001156345Y0000156417D01*
X0000796959Y0000156417D01*
X0000794334Y0000169613D01*
X0000789185Y0000182044D01*
X0000781710Y0000193232D01*
X0000772195Y0000202747D01*
X0000761008Y0000210222D01*
X0000748577Y0000215371D01*
X0000735380Y0000217996D01*
X0000721924Y0000217996D01*
X0000708728Y0000215371D01*
X0000696297Y0000210222D01*
X0000685109Y0000202747D01*
X0000675594Y0000193232D01*
X0000668119Y0000182044D01*
X0000662970Y0000169613D01*
X0000660345Y0000156417D01*
X0000025984Y0000156417D01*
X0000025984Y0000282417D01*
X0000246845Y0000282417D01*
X0000246845Y0000268961D01*
X0000249470Y0000255765D01*
X0000254619Y0000243333D01*
X0000262094Y0000232146D01*
X0000271609Y0000222631D01*
X0000282797Y0000215156D01*
X0000295228Y0000210007D01*
X0000308424Y0000207382D01*
X0000321880Y0000207382D01*
X0000335077Y0000210007D01*
X0000347508Y0000215156D01*
X0000358695Y0000222631D01*
X0000368210Y0000232146D01*
X0000375685Y0000243333D01*
X0000380834Y0000255765D01*
X0000383459Y0000268961D01*
X0000383459Y0000282417D01*
X0000380834Y0000295613D01*
X0000375685Y0000308045D01*
X0000368210Y0000319232D01*
X0000358695Y0000328747D01*
X0000347508Y0000336222D01*
X0000335077Y0000341371D01*
X0000321880Y0000343996D01*
X0000308424Y0000343996D01*
X0000295228Y0000341371D01*
X0000282797Y0000336222D01*
X0000271609Y0000328747D01*
X0000262094Y0000319232D01*
X0000254619Y0000308045D01*
X0000249470Y0000295613D01*
X0000246845Y0000282417D01*
X0000025984Y0000282417D01*
X0000025984Y0000381284D01*
X0001256042Y0000381284D01*
X0001256042Y0000353094D01*
X0001261541Y0000325445D01*
X0001272329Y0000299401D01*
X0001287991Y0000275962D01*
X0001307925Y0000256028D01*
X0001331364Y0000240366D01*
X0001357408Y0000229578D01*
X0001385057Y0000224079D01*
X0001413247Y0000224079D01*
X0001440896Y0000229578D01*
X0001466940Y0000240366D01*
X0001490380Y0000256028D01*
X0001510313Y0000275962D01*
X0001514626Y0000282417D01*
X0001569345Y0000282417D01*
X0001569345Y0000268961D01*
X0001571970Y0000255765D01*
X0001577119Y0000243333D01*
X0001584594Y0000232146D01*
X0001594109Y0000222631D01*
X0001605297Y0000215156D01*
X0001617728Y0000210007D01*
X0001630924Y0000207382D01*
X0001644380Y0000207382D01*
X0001657577Y0000210007D01*
X0001670008Y0000215156D01*
X0001681195Y0000222631D01*
X0001690710Y0000232146D01*
X0001698185Y0000243333D01*
X0001703334Y0000255765D01*
X0001705959Y0000268961D01*
X0001705959Y0000282417D01*
X0001703334Y0000295613D01*
X0001698185Y0000308045D01*
X0001690710Y0000319232D01*
X0001681195Y0000328747D01*
X0001670008Y0000336222D01*
X0001657577Y0000341371D01*
X0001644380Y0000343996D01*
X0001630924Y0000343996D01*
X0001617728Y0000341371D01*
X0001605297Y0000336222D01*
X0001594109Y0000328747D01*
X0001584594Y0000319232D01*
X0001577119Y0000308045D01*
X0001571970Y0000295613D01*
X0001569345Y0000282417D01*
X0001514626Y0000282417D01*
X0001525975Y0000299401D01*
X0001536763Y0000325445D01*
X0001542262Y0000353094D01*
X0001542262Y0000381284D01*
X0001536763Y0000408933D01*
X0001525975Y0000434977D01*
X0001510313Y0000458416D01*
X0001490380Y0000478350D01*
X0001466940Y0000494012D01*
X0001457513Y0000497917D01*
X0001768345Y0000497917D01*
X0001768345Y0000484461D01*
X0001770970Y0000471265D01*
X0001776119Y0000458833D01*
X0001783594Y0000447646D01*
X0001793109Y0000438131D01*
X0001804297Y0000430656D01*
X0001816728Y0000425507D01*
X0001829924Y0000422882D01*
X0001843380Y0000422882D01*
X0001856577Y0000425507D01*
X0001869008Y0000430656D01*
X0001880195Y0000438131D01*
X0001889710Y0000447646D01*
X0001897185Y0000458833D01*
X0001902334Y0000471265D01*
X0001904959Y0000484461D01*
X0001904959Y0000497917D01*
X0001902334Y0000511113D01*
X0001897185Y0000523545D01*
X0001889710Y0000534732D01*
X0001880195Y0000544247D01*
X0001869008Y0000551722D01*
X0001856577Y0000556871D01*
X0001843380Y0000559496D01*
X0001829924Y0000559496D01*
X0001816728Y0000556871D01*
X0001804297Y0000551722D01*
X0001793109Y0000544247D01*
X0001783594Y0000534732D01*
X0001776119Y0000523545D01*
X0001770970Y0000511113D01*
X0001768345Y0000497917D01*
X0001457513Y0000497917D01*
X0001440896Y0000504800D01*
X0001413247Y0000510299D01*
X0001385057Y0000510299D01*
X0001357408Y0000504800D01*
X0001331364Y0000494012D01*
X0001307925Y0000478350D01*
X0001287991Y0000458416D01*
X0001272329Y0000434977D01*
X0001261541Y0000408933D01*
X0001256042Y0000381284D01*
X0000025984Y0000381284D01*
X0000025984Y0000497917D01*
X0000051345Y0000497917D01*
X0000051345Y0000484461D01*
X0000053970Y0000471265D01*
X0000059119Y0000458833D01*
X0000066594Y0000447646D01*
X0000076109Y0000438131D01*
X0000087297Y0000430656D01*
X0000099728Y0000425507D01*
X0000112924Y0000422882D01*
X0000126380Y0000422882D01*
X0000139577Y0000425507D01*
X0000152008Y0000430656D01*
X0000163195Y0000438131D01*
X0000172710Y0000447646D01*
X0000180185Y0000458833D01*
X0000185334Y0000471265D01*
X0000187959Y0000484461D01*
X0000187959Y0000497917D01*
X0000185334Y0000511113D01*
X0000180185Y0000523545D01*
X0000172710Y0000534732D01*
X0000163195Y0000544247D01*
X0000152008Y0000551722D01*
X0000139577Y0000556871D01*
X0000126380Y0000559496D01*
X0000112924Y0000559496D01*
X0000099728Y0000556871D01*
X0000087297Y0000551722D01*
X0000076109Y0000544247D01*
X0000066594Y0000534732D01*
X0000059119Y0000523545D01*
X0000053970Y0000511113D01*
X0000051345Y0000497917D01*
X0000025984Y0000497917D01*
X0000025984Y0000632284D01*
X0000424042Y0000632284D01*
X0000424042Y0000604094D01*
X0000429541Y0000576445D01*
X0000440329Y0000550401D01*
X0000455991Y0000526962D01*
X0000475925Y0000507028D01*
X0000499364Y0000491366D01*
X0000525408Y0000480578D01*
X0000553057Y0000475079D01*
X0000581247Y0000475079D01*
X0000608896Y0000480578D01*
X0000634940Y0000491366D01*
X0000658380Y0000507028D01*
X0000678313Y0000526962D01*
X0000693975Y0000550401D01*
X0000704763Y0000576445D01*
X0000710262Y0000604094D01*
X0000710262Y0000632284D01*
X0000704763Y0000659933D01*
X0000693975Y0000685977D01*
X0000678313Y0000709416D01*
X0000672313Y0000715417D01*
X0001569345Y0000715417D01*
X0001569345Y0000701961D01*
X0001571970Y0000688765D01*
X0001577119Y0000676333D01*
X0001584594Y0000665146D01*
X0001594109Y0000655631D01*
X0001605297Y0000648156D01*
X0001617728Y0000643007D01*
X0001630924Y0000640382D01*
X0001644380Y0000640382D01*
X0001657577Y0000643007D01*
X0001670008Y0000648156D01*
X0001681195Y0000655631D01*
X0001690710Y0000665146D01*
X0001698185Y0000676333D01*
X0001703334Y0000688765D01*
X0001705959Y0000701961D01*
X0001705959Y0000715417D01*
X0001703334Y0000728613D01*
X0001698185Y0000741045D01*
X0001690710Y0000752232D01*
X0001681195Y0000761747D01*
X0001670008Y0000769222D01*
X0001657577Y0000774371D01*
X0001644380Y0000776996D01*
X0001630924Y0000776996D01*
X0001617728Y0000774371D01*
X0001605297Y0000769222D01*
X0001594109Y0000761747D01*
X0001584594Y0000752232D01*
X0001577119Y0000741045D01*
X0001571970Y0000728613D01*
X0001569345Y0000715417D01*
X0000672313Y0000715417D01*
X0000658380Y0000729350D01*
X0000634940Y0000745012D01*
X0000608896Y0000755800D01*
X0000581247Y0000761299D01*
X0000553057Y0000761299D01*
X0000525408Y0000755800D01*
X0000499364Y0000745012D01*
X0000475925Y0000729350D01*
X0000455991Y0000709416D01*
X0000440329Y0000685977D01*
X0000429541Y0000659933D01*
X0000424042Y0000632284D01*
X0000025984Y0000632284D01*
X0000025984Y0000715417D01*
X0000246845Y0000715417D01*
X0000246845Y0000701961D01*
X0000249470Y0000688765D01*
X0000254619Y0000676333D01*
X0000262094Y0000665146D01*
X0000271609Y0000655631D01*
X0000282797Y0000648156D01*
X0000295228Y0000643007D01*
X0000308424Y0000640382D01*
X0000321880Y0000640382D01*
X0000335077Y0000643007D01*
X0000347508Y0000648156D01*
X0000358695Y0000655631D01*
X0000368210Y0000665146D01*
X0000375685Y0000676333D01*
X0000380834Y0000688765D01*
X0000383459Y0000701961D01*
X0000383459Y0000715417D01*
X0000380834Y0000728613D01*
X0000375685Y0000741045D01*
X0000368210Y0000752232D01*
X0000358695Y0000761747D01*
X0000347508Y0000769222D01*
X0000335077Y0000774371D01*
X0000321880Y0000776996D01*
X0000308424Y0000776996D01*
X0000295228Y0000774371D01*
X0000282797Y0000769222D01*
X0000271609Y0000761747D01*
X0000262094Y0000752232D01*
X0000254619Y0000741045D01*
X0000249470Y0000728613D01*
X0000246845Y0000715417D01*
X0000025984Y0000715417D01*
X0000025984Y0000841417D01*
X0000660345Y0000841417D01*
X0000660345Y0000827961D01*
X0000662970Y0000814765D01*
X0000668119Y0000802333D01*
X0000675594Y0000791146D01*
X0000685109Y0000781631D01*
X0000696297Y0000774156D01*
X0000708728Y0000769007D01*
X0000721924Y0000766382D01*
X0000735380Y0000766382D01*
X0000748577Y0000769007D01*
X0000761008Y0000774156D01*
X0000772195Y0000781631D01*
X0000781710Y0000791146D01*
X0000789185Y0000802333D01*
X0000794334Y0000814765D01*
X0000796959Y0000827961D01*
X0000796959Y0000841417D01*
X0001156345Y0000841417D01*
X0001156345Y0000827961D01*
X0001158970Y0000814765D01*
X0001164119Y0000802333D01*
X0001171594Y0000791146D01*
X0001181109Y0000781631D01*
X0001192297Y0000774156D01*
X0001204728Y0000769007D01*
X0001217924Y0000766382D01*
X0001231380Y0000766382D01*
X0001244577Y0000769007D01*
X0001257008Y0000774156D01*
X0001268195Y0000781631D01*
X0001277710Y0000791146D01*
X0001285185Y0000802333D01*
X0001290334Y0000814765D01*
X0001292959Y0000827961D01*
X0001292959Y0000841417D01*
X0001290334Y0000854613D01*
X0001285185Y0000867045D01*
X0001277710Y0000878232D01*
X0001268195Y0000887747D01*
X0001257008Y0000895222D01*
X0001244577Y0000900371D01*
X0001231380Y0000902996D01*
X0001217924Y0000902996D01*
X0001204728Y0000900371D01*
X0001192297Y0000895222D01*
X0001181109Y0000887747D01*
X0001171594Y0000878232D01*
X0001164119Y0000867045D01*
X0001158970Y0000854613D01*
X0001156345Y0000841417D01*
X0000796959Y0000841417D01*
X0000794334Y0000854613D01*
X0000789185Y0000867045D01*
X0000781710Y0000878232D01*
X0000772195Y0000887747D01*
X0000761008Y0000895222D01*
X0000748577Y0000900371D01*
X0000735380Y0000902996D01*
X0000721924Y0000902996D01*
X0000708728Y0000900371D01*
X0000696297Y0000895222D01*
X0000685109Y0000887747D01*
X0000675594Y0000878232D01*
X0000668119Y0000867045D01*
X0000662970Y0000854613D01*
X0000660345Y0000841417D01*
X0000025984Y0000841417D01*
X0000025984Y0000904241D01*
X0000027111Y0000915735D01*
X0000030080Y0000925568D01*
X0000034902Y0000934638D01*
X0000041394Y0000942598D01*
X0000049309Y0000949145D01*
X0000058344Y0000954031D01*
X0000068157Y0000957068D01*
X0000079570Y0000958268D01*
X0001872381Y0000958268D01*
X0001883909Y0000957138D01*
G04 #@! TA.AperFunction,NonConductor*
D34*
G36*
X0001883909Y0000957138D02*
G01*
X0001893776Y0000954159D01*
X0001902875Y0000949320D01*
X0001910862Y0000942806D01*
X0001917432Y0000934865D01*
X0001922334Y0000925799D01*
X0001925381Y0000915954D01*
X0001926585Y0000904504D01*
X0001926803Y0000080318D01*
X0001925670Y0000068767D01*
X0001922684Y0000058875D01*
X0001917833Y0000049752D01*
X0001911302Y0000041745D01*
X0001903341Y0000035158D01*
X0001894252Y0000030244D01*
X0001884381Y0000027188D01*
X0001872918Y0000025984D01*
X0001675959Y0000025984D01*
X0001675959Y0000025984D01*
X0000080011Y0000025984D01*
X0000068517Y0000027111D01*
X0000058683Y0000030080D01*
X0000049614Y0000034902D01*
X0000041654Y0000041394D01*
X0000035106Y0000049309D01*
X0000030221Y0000058344D01*
X0000027183Y0000068156D01*
X0000025984Y0000079570D01*
X0000025984Y0000156417D01*
X0000660345Y0000156417D01*
X0000660345Y0000142961D01*
X0000662970Y0000129765D01*
X0000668119Y0000117333D01*
X0000675594Y0000106146D01*
X0000685109Y0000096631D01*
X0000696297Y0000089156D01*
X0000708728Y0000084007D01*
X0000721924Y0000081382D01*
X0000735380Y0000081382D01*
X0000748577Y0000084007D01*
X0000761008Y0000089156D01*
X0000772195Y0000096631D01*
X0000781710Y0000106146D01*
X0000789185Y0000117333D01*
X0000794334Y0000129765D01*
X0000796959Y0000142961D01*
X0000796959Y0000156417D01*
X0001156345Y0000156417D01*
X0001156345Y0000142961D01*
X0001158970Y0000129765D01*
X0001164119Y0000117333D01*
X0001171594Y0000106146D01*
X0001181109Y0000096631D01*
X0001192297Y0000089156D01*
X0001204728Y0000084007D01*
X0001217924Y0000081382D01*
X0001231380Y0000081382D01*
X0001244577Y0000084007D01*
X0001257008Y0000089156D01*
X0001268195Y0000096631D01*
X0001277710Y0000106146D01*
X0001285185Y0000117333D01*
X0001290334Y0000129765D01*
X0001292959Y0000142961D01*
X0001292959Y0000156417D01*
X0001290334Y0000169613D01*
X0001285185Y0000182044D01*
X0001277710Y0000193232D01*
X0001268195Y0000202747D01*
X0001257008Y0000210222D01*
X0001244577Y0000215371D01*
X0001231380Y0000217996D01*
X0001217924Y0000217996D01*
X0001204728Y0000215371D01*
X0001192297Y0000210222D01*
X0001181109Y0000202747D01*
X0001171594Y0000193232D01*
X0001164119Y0000182044D01*
X0001158970Y0000169613D01*
X0001156345Y0000156417D01*
X0000796959Y0000156417D01*
X0000794334Y0000169613D01*
X0000789185Y0000182044D01*
X0000781710Y0000193232D01*
X0000772195Y0000202747D01*
X0000761008Y0000210222D01*
X0000748577Y0000215371D01*
X0000735380Y0000217996D01*
X0000721924Y0000217996D01*
X0000708728Y0000215371D01*
X0000696297Y0000210222D01*
X0000685109Y0000202747D01*
X0000675594Y0000193232D01*
X0000668119Y0000182044D01*
X0000662970Y0000169613D01*
X0000660345Y0000156417D01*
X0000025984Y0000156417D01*
X0000025984Y0000282417D01*
X0000246845Y0000282417D01*
X0000246845Y0000268961D01*
X0000249470Y0000255765D01*
X0000254619Y0000243333D01*
X0000262094Y0000232146D01*
X0000271609Y0000222631D01*
X0000282797Y0000215156D01*
X0000295228Y0000210007D01*
X0000308424Y0000207382D01*
X0000321880Y0000207382D01*
X0000335077Y0000210007D01*
X0000347508Y0000215156D01*
X0000358695Y0000222631D01*
X0000368210Y0000232146D01*
X0000375685Y0000243333D01*
X0000380834Y0000255765D01*
X0000383459Y0000268961D01*
X0000383459Y0000282417D01*
X0000380834Y0000295613D01*
X0000375685Y0000308045D01*
X0000368210Y0000319232D01*
X0000358695Y0000328747D01*
X0000347508Y0000336222D01*
X0000335077Y0000341371D01*
X0000321880Y0000343996D01*
X0000308424Y0000343996D01*
X0000295228Y0000341371D01*
X0000282797Y0000336222D01*
X0000271609Y0000328747D01*
X0000262094Y0000319232D01*
X0000254619Y0000308045D01*
X0000249470Y0000295613D01*
X0000246845Y0000282417D01*
X0000025984Y0000282417D01*
X0000025984Y0000381284D01*
X0001256042Y0000381284D01*
X0001256042Y0000353094D01*
X0001261541Y0000325445D01*
X0001272329Y0000299401D01*
X0001287991Y0000275962D01*
X0001307925Y0000256028D01*
X0001331364Y0000240366D01*
X0001357408Y0000229578D01*
X0001385057Y0000224079D01*
X0001413247Y0000224079D01*
X0001440896Y0000229578D01*
X0001466940Y0000240366D01*
X0001490380Y0000256028D01*
X0001510313Y0000275962D01*
X0001514626Y0000282417D01*
X0001569345Y0000282417D01*
X0001569345Y0000268961D01*
X0001571970Y0000255765D01*
X0001577119Y0000243333D01*
X0001584594Y0000232146D01*
X0001594109Y0000222631D01*
X0001605297Y0000215156D01*
X0001617728Y0000210007D01*
X0001630924Y0000207382D01*
X0001644380Y0000207382D01*
X0001657577Y0000210007D01*
X0001670008Y0000215156D01*
X0001681195Y0000222631D01*
X0001690710Y0000232146D01*
X0001698185Y0000243333D01*
X0001703334Y0000255765D01*
X0001705959Y0000268961D01*
X0001705959Y0000282417D01*
X0001703334Y0000295613D01*
X0001698185Y0000308045D01*
X0001690710Y0000319232D01*
X0001681195Y0000328747D01*
X0001670008Y0000336222D01*
X0001657577Y0000341371D01*
X0001644380Y0000343996D01*
X0001630924Y0000343996D01*
X0001617728Y0000341371D01*
X0001605297Y0000336222D01*
X0001594109Y0000328747D01*
X0001584594Y0000319232D01*
X0001577119Y0000308045D01*
X0001571970Y0000295613D01*
X0001569345Y0000282417D01*
X0001514626Y0000282417D01*
X0001525975Y0000299401D01*
X0001536763Y0000325445D01*
X0001542262Y0000353094D01*
X0001542262Y0000381284D01*
X0001536763Y0000408933D01*
X0001525975Y0000434977D01*
X0001510313Y0000458416D01*
X0001490380Y0000478350D01*
X0001466940Y0000494012D01*
X0001457513Y0000497917D01*
X0001768345Y0000497917D01*
X0001768345Y0000484461D01*
X0001770970Y0000471265D01*
X0001776119Y0000458833D01*
X0001783594Y0000447646D01*
X0001793109Y0000438131D01*
X0001804297Y0000430656D01*
X0001816728Y0000425507D01*
X0001829924Y0000422882D01*
X0001843380Y0000422882D01*
X0001856577Y0000425507D01*
X0001869008Y0000430656D01*
X0001880195Y0000438131D01*
X0001889710Y0000447646D01*
X0001897185Y0000458833D01*
X0001902334Y0000471265D01*
X0001904959Y0000484461D01*
X0001904959Y0000497917D01*
X0001902334Y0000511113D01*
X0001897185Y0000523545D01*
X0001889710Y0000534732D01*
X0001880195Y0000544247D01*
X0001869008Y0000551722D01*
X0001856577Y0000556871D01*
X0001843380Y0000559496D01*
X0001829924Y0000559496D01*
X0001816728Y0000556871D01*
X0001804297Y0000551722D01*
X0001793109Y0000544247D01*
X0001783594Y0000534732D01*
X0001776119Y0000523545D01*
X0001770970Y0000511113D01*
X0001768345Y0000497917D01*
X0001457513Y0000497917D01*
X0001440896Y0000504800D01*
X0001413247Y0000510299D01*
X0001385057Y0000510299D01*
X0001357408Y0000504800D01*
X0001331364Y0000494012D01*
X0001307925Y0000478350D01*
X0001287991Y0000458416D01*
X0001272329Y0000434977D01*
X0001261541Y0000408933D01*
X0001256042Y0000381284D01*
X0000025984Y0000381284D01*
X0000025984Y0000497917D01*
X0000051345Y0000497917D01*
X0000051345Y0000484461D01*
X0000053970Y0000471265D01*
X0000059119Y0000458833D01*
X0000066594Y0000447646D01*
X0000076109Y0000438131D01*
X0000087297Y0000430656D01*
X0000099728Y0000425507D01*
X0000112924Y0000422882D01*
X0000126380Y0000422882D01*
X0000139577Y0000425507D01*
X0000152008Y0000430656D01*
X0000163195Y0000438131D01*
X0000172710Y0000447646D01*
X0000180185Y0000458833D01*
X0000185334Y0000471265D01*
X0000187959Y0000484461D01*
X0000187959Y0000497917D01*
X0000185334Y0000511113D01*
X0000180185Y0000523545D01*
X0000172710Y0000534732D01*
X0000163195Y0000544247D01*
X0000152008Y0000551722D01*
X0000139577Y0000556871D01*
X0000126380Y0000559496D01*
X0000112924Y0000559496D01*
X0000099728Y0000556871D01*
X0000087297Y0000551722D01*
X0000076109Y0000544247D01*
X0000066594Y0000534732D01*
X0000059119Y0000523545D01*
X0000053970Y0000511113D01*
X0000051345Y0000497917D01*
X0000025984Y0000497917D01*
X0000025984Y0000632284D01*
X0000424042Y0000632284D01*
X0000424042Y0000604094D01*
X0000429541Y0000576445D01*
X0000440329Y0000550401D01*
X0000455991Y0000526962D01*
X0000475925Y0000507028D01*
X0000499364Y0000491366D01*
X0000525408Y0000480578D01*
X0000553057Y0000475079D01*
X0000581247Y0000475079D01*
X0000608896Y0000480578D01*
X0000634940Y0000491366D01*
X0000658380Y0000507028D01*
X0000678313Y0000526962D01*
X0000693975Y0000550401D01*
X0000704763Y0000576445D01*
X0000710262Y0000604094D01*
X0000710262Y0000632284D01*
X0000704763Y0000659933D01*
X0000693975Y0000685977D01*
X0000678313Y0000709416D01*
X0000672313Y0000715417D01*
X0001569345Y0000715417D01*
X0001569345Y0000701961D01*
X0001571970Y0000688765D01*
X0001577119Y0000676333D01*
X0001584594Y0000665146D01*
X0001594109Y0000655631D01*
X0001605297Y0000648156D01*
X0001617728Y0000643007D01*
X0001630924Y0000640382D01*
X0001644380Y0000640382D01*
X0001657577Y0000643007D01*
X0001670008Y0000648156D01*
X0001681195Y0000655631D01*
X0001690710Y0000665146D01*
X0001698185Y0000676333D01*
X0001703334Y0000688765D01*
X0001705959Y0000701961D01*
X0001705959Y0000715417D01*
X0001703334Y0000728613D01*
X0001698185Y0000741045D01*
X0001690710Y0000752232D01*
X0001681195Y0000761747D01*
X0001670008Y0000769222D01*
X0001657577Y0000774371D01*
X0001644380Y0000776996D01*
X0001630924Y0000776996D01*
X0001617728Y0000774371D01*
X0001605297Y0000769222D01*
X0001594109Y0000761747D01*
X0001584594Y0000752232D01*
X0001577119Y0000741045D01*
X0001571970Y0000728613D01*
X0001569345Y0000715417D01*
X0000672313Y0000715417D01*
X0000658380Y0000729350D01*
X0000634940Y0000745012D01*
X0000608896Y0000755800D01*
X0000581247Y0000761299D01*
X0000553057Y0000761299D01*
X0000525408Y0000755800D01*
X0000499364Y0000745012D01*
X0000475925Y0000729350D01*
X0000455991Y0000709416D01*
X0000440329Y0000685977D01*
X0000429541Y0000659933D01*
X0000424042Y0000632284D01*
X0000025984Y0000632284D01*
X0000025984Y0000715417D01*
X0000246845Y0000715417D01*
X0000246845Y0000701961D01*
X0000249470Y0000688765D01*
X0000254619Y0000676333D01*
X0000262094Y0000665146D01*
X0000271609Y0000655631D01*
X0000282797Y0000648156D01*
X0000295228Y0000643007D01*
X0000308424Y0000640382D01*
X0000321880Y0000640382D01*
X0000335077Y0000643007D01*
X0000347508Y0000648156D01*
X0000358695Y0000655631D01*
X0000368210Y0000665146D01*
X0000375685Y0000676333D01*
X0000380834Y0000688765D01*
X0000383459Y0000701961D01*
X0000383459Y0000715417D01*
X0000380834Y0000728613D01*
X0000375685Y0000741045D01*
X0000368210Y0000752232D01*
X0000358695Y0000761747D01*
X0000347508Y0000769222D01*
X0000335077Y0000774371D01*
X0000321880Y0000776996D01*
X0000308424Y0000776996D01*
X0000295228Y0000774371D01*
X0000282797Y0000769222D01*
X0000271609Y0000761747D01*
X0000262094Y0000752232D01*
X0000254619Y0000741045D01*
X0000249470Y0000728613D01*
X0000246845Y0000715417D01*
X0000025984Y0000715417D01*
X0000025984Y0000841417D01*
X0000660345Y0000841417D01*
X0000660345Y0000827961D01*
X0000662970Y0000814765D01*
X0000668119Y0000802333D01*
X0000675594Y0000791146D01*
X0000685109Y0000781631D01*
X0000696297Y0000774156D01*
X0000708728Y0000769007D01*
X0000721924Y0000766382D01*
X0000735380Y0000766382D01*
X0000748577Y0000769007D01*
X0000761008Y0000774156D01*
X0000772195Y0000781631D01*
X0000781710Y0000791146D01*
X0000789185Y0000802333D01*
X0000794334Y0000814765D01*
X0000796959Y0000827961D01*
X0000796959Y0000841417D01*
X0001156345Y0000841417D01*
X0001156345Y0000827961D01*
X0001158970Y0000814765D01*
X0001164119Y0000802333D01*
X0001171594Y0000791146D01*
X0001181109Y0000781631D01*
X0001192297Y0000774156D01*
X0001204728Y0000769007D01*
X0001217924Y0000766382D01*
X0001231380Y0000766382D01*
X0001244577Y0000769007D01*
X0001257008Y0000774156D01*
X0001268195Y0000781631D01*
X0001277710Y0000791146D01*
X0001285185Y0000802333D01*
X0001290334Y0000814765D01*
X0001292959Y0000827961D01*
X0001292959Y0000841417D01*
X0001290334Y0000854613D01*
X0001285185Y0000867045D01*
X0001277710Y0000878232D01*
X0001268195Y0000887747D01*
X0001257008Y0000895222D01*
X0001244577Y0000900371D01*
X0001231380Y0000902996D01*
X0001217924Y0000902996D01*
X0001204728Y0000900371D01*
X0001192297Y0000895222D01*
X0001181109Y0000887747D01*
X0001171594Y0000878232D01*
X0001164119Y0000867045D01*
X0001158970Y0000854613D01*
X0001156345Y0000841417D01*
X0000796959Y0000841417D01*
X0000794334Y0000854613D01*
X0000789185Y0000867045D01*
X0000781710Y0000878232D01*
X0000772195Y0000887747D01*
X0000761008Y0000895222D01*
X0000748577Y0000900371D01*
X0000735380Y0000902996D01*
X0000721924Y0000902996D01*
X0000708728Y0000900371D01*
X0000696297Y0000895222D01*
X0000685109Y0000887747D01*
X0000675594Y0000878232D01*
X0000668119Y0000867045D01*
X0000662970Y0000854613D01*
X0000660345Y0000841417D01*
X0000025984Y0000841417D01*
X0000025984Y0000904241D01*
X0000027111Y0000915735D01*
X0000030080Y0000925568D01*
X0000034902Y0000934638D01*
X0000041394Y0000942598D01*
X0000049309Y0000949145D01*
X0000058344Y0000954031D01*
X0000068157Y0000957068D01*
X0000079570Y0000958268D01*
X0001872381Y0000958268D01*
X0001883909Y0000957138D01*
G37*
G04 #@! TD.AperFunction*
G04 next file*
G04 #@! TF.GenerationSoftware,KiCad,Pcbnew,(5.1.12)-1*
G04 #@! TF.CreationDate,2022-03-26T22:12:19+08:00*
G04 #@! TF.ProjectId,Nozzle,4e6f7a7a-6c65-42e6-9b69-6361645f7063,0.5*
G04 #@! TF.SameCoordinates,Original*
G04 #@! TF.FileFunction,Copper,L2,Bot*
G04 #@! TF.FilePolarity,Positive*
G04 Gerber Fmt 4.6, Leading zero omitted, Abs format (unit mm)*
G04 Created by KiCad (PCBNEW (5.1.12)-1) date 2022-03-26 22:12:19*
G01*
G04 APERTURE LIST*
G04 #@! TA.AperFunction,ComponentPad*
G04 #@! TD*
G04 #@! TA.AperFunction,NonConductor*
G04 #@! TD*
G04 #@! TA.AperFunction,NonConductor*
G04 #@! TD*
G04 APERTURE END LIST*
D35*
X-0004461847Y0006260119D02*
X0001399152Y0001434119D03*
X0000567152Y0001685119D03*
D36*
X0001883909Y0002024068D02*
X0001893776Y0002021089D01*
X0001902875Y0002016250D01*
X0001910862Y0002009736D01*
X0001917432Y0002001795D01*
X0001922334Y0001992729D01*
X0001925381Y0001982884D01*
X0001926585Y0001971434D01*
X0001926803Y0001147248D01*
X0001925670Y0001135697D01*
X0001922684Y0001125805D01*
X0001917833Y0001116682D01*
X0001911302Y0001108675D01*
X0001903341Y0001102088D01*
X0001894252Y0001097174D01*
X0001884381Y0001094118D01*
X0001872918Y0001092914D01*
X0001675959Y0001092914D01*
X0001675959Y0001092914D01*
X0000080011Y0001092914D01*
X0000068517Y0001094041D01*
X0000058683Y0001097010D01*
X0000049614Y0001101832D01*
X0000041654Y0001108324D01*
X0000035106Y0001116239D01*
X0000030221Y0001125274D01*
X0000027183Y0001135086D01*
X0000025984Y0001146500D01*
X0000025984Y0001223347D01*
X0000660345Y0001223347D01*
X0000660345Y0001209891D01*
X0000662970Y0001196695D01*
X0000668119Y0001184263D01*
X0000675594Y0001173076D01*
X0000685109Y0001163561D01*
X0000696297Y0001156086D01*
X0000708728Y0001150937D01*
X0000721924Y0001148312D01*
X0000735380Y0001148312D01*
X0000748577Y0001150937D01*
X0000761008Y0001156086D01*
X0000772195Y0001163561D01*
X0000781710Y0001173076D01*
X0000789185Y0001184263D01*
X0000794334Y0001196695D01*
X0000796959Y0001209891D01*
X0000796959Y0001223347D01*
X0001156345Y0001223347D01*
X0001156345Y0001209891D01*
X0001158970Y0001196695D01*
X0001164119Y0001184263D01*
X0001171594Y0001173076D01*
X0001181109Y0001163561D01*
X0001192297Y0001156086D01*
X0001204728Y0001150937D01*
X0001217924Y0001148312D01*
X0001231380Y0001148312D01*
X0001244577Y0001150937D01*
X0001257008Y0001156086D01*
X0001268195Y0001163561D01*
X0001277710Y0001173076D01*
X0001285185Y0001184263D01*
X0001290334Y0001196695D01*
X0001292959Y0001209891D01*
X0001292959Y0001223347D01*
X0001290334Y0001236543D01*
X0001285185Y0001248975D01*
X0001277710Y0001260162D01*
X0001268195Y0001269677D01*
X0001257008Y0001277152D01*
X0001244577Y0001282301D01*
X0001231380Y0001284926D01*
X0001217924Y0001284926D01*
X0001204728Y0001282301D01*
X0001192297Y0001277152D01*
X0001181109Y0001269677D01*
X0001171594Y0001260162D01*
X0001164119Y0001248975D01*
X0001158970Y0001236543D01*
X0001156345Y0001223347D01*
X0000796959Y0001223347D01*
X0000794334Y0001236543D01*
X0000789185Y0001248975D01*
X0000781710Y0001260162D01*
X0000772195Y0001269677D01*
X0000761008Y0001277152D01*
X0000748577Y0001282301D01*
X0000735380Y0001284926D01*
X0000721924Y0001284926D01*
X0000708728Y0001282301D01*
X0000696297Y0001277152D01*
X0000685109Y0001269677D01*
X0000675594Y0001260162D01*
X0000668119Y0001248975D01*
X0000662970Y0001236543D01*
X0000660345Y0001223347D01*
X0000025984Y0001223347D01*
X0000025984Y0001349347D01*
X0000246845Y0001349347D01*
X0000246845Y0001335891D01*
X0000249470Y0001322695D01*
X0000254619Y0001310263D01*
X0000262094Y0001299076D01*
X0000271609Y0001289561D01*
X0000282797Y0001282086D01*
X0000295228Y0001276937D01*
X0000308424Y0001274312D01*
X0000321880Y0001274312D01*
X0000335077Y0001276937D01*
X0000347508Y0001282086D01*
X0000358695Y0001289561D01*
X0000368210Y0001299076D01*
X0000375685Y0001310263D01*
X0000380834Y0001322695D01*
X0000383459Y0001335891D01*
X0000383459Y0001349347D01*
X0000380834Y0001362543D01*
X0000375685Y0001374975D01*
X0000368210Y0001386162D01*
X0000358695Y0001395677D01*
X0000347508Y0001403152D01*
X0000335077Y0001408301D01*
X0000321880Y0001410926D01*
X0000308424Y0001410926D01*
X0000295228Y0001408301D01*
X0000282797Y0001403152D01*
X0000271609Y0001395677D01*
X0000262094Y0001386162D01*
X0000254619Y0001374975D01*
X0000249470Y0001362543D01*
X0000246845Y0001349347D01*
X0000025984Y0001349347D01*
X0000025984Y0001448214D01*
X0001256042Y0001448214D01*
X0001256042Y0001420024D01*
X0001261541Y0001392375D01*
X0001272329Y0001366331D01*
X0001287991Y0001342892D01*
X0001307925Y0001322958D01*
X0001331364Y0001307296D01*
X0001357408Y0001296508D01*
X0001385057Y0001291009D01*
X0001413247Y0001291009D01*
X0001440896Y0001296508D01*
X0001466940Y0001307296D01*
X0001490380Y0001322958D01*
X0001510313Y0001342892D01*
X0001514626Y0001349347D01*
X0001569345Y0001349347D01*
X0001569345Y0001335891D01*
X0001571970Y0001322695D01*
X0001577119Y0001310263D01*
X0001584594Y0001299076D01*
X0001594109Y0001289561D01*
X0001605297Y0001282086D01*
X0001617728Y0001276937D01*
X0001630924Y0001274312D01*
X0001644380Y0001274312D01*
X0001657577Y0001276937D01*
X0001670008Y0001282086D01*
X0001681195Y0001289561D01*
X0001690710Y0001299076D01*
X0001698185Y0001310263D01*
X0001703334Y0001322695D01*
X0001705959Y0001335891D01*
X0001705959Y0001349347D01*
X0001703334Y0001362543D01*
X0001698185Y0001374975D01*
X0001690710Y0001386162D01*
X0001681195Y0001395677D01*
X0001670008Y0001403152D01*
X0001657577Y0001408301D01*
X0001644380Y0001410926D01*
X0001630924Y0001410926D01*
X0001617728Y0001408301D01*
X0001605297Y0001403152D01*
X0001594109Y0001395677D01*
X0001584594Y0001386162D01*
X0001577119Y0001374975D01*
X0001571970Y0001362543D01*
X0001569345Y0001349347D01*
X0001514626Y0001349347D01*
X0001525975Y0001366331D01*
X0001536763Y0001392375D01*
X0001542262Y0001420024D01*
X0001542262Y0001448214D01*
X0001536763Y0001475863D01*
X0001525975Y0001501907D01*
X0001510313Y0001525346D01*
X0001490380Y0001545280D01*
X0001466940Y0001560942D01*
X0001457513Y0001564847D01*
X0001768345Y0001564847D01*
X0001768345Y0001551391D01*
X0001770970Y0001538195D01*
X0001776119Y0001525763D01*
X0001783594Y0001514576D01*
X0001793109Y0001505061D01*
X0001804297Y0001497586D01*
X0001816728Y0001492437D01*
X0001829924Y0001489812D01*
X0001843380Y0001489812D01*
X0001856577Y0001492437D01*
X0001869008Y0001497586D01*
X0001880195Y0001505061D01*
X0001889710Y0001514576D01*
X0001897185Y0001525763D01*
X0001902334Y0001538195D01*
X0001904959Y0001551391D01*
X0001904959Y0001564847D01*
X0001902334Y0001578043D01*
X0001897185Y0001590475D01*
X0001889710Y0001601662D01*
X0001880195Y0001611177D01*
X0001869008Y0001618652D01*
X0001856577Y0001623801D01*
X0001843380Y0001626426D01*
X0001829924Y0001626426D01*
X0001816728Y0001623801D01*
X0001804297Y0001618652D01*
X0001793109Y0001611177D01*
X0001783594Y0001601662D01*
X0001776119Y0001590475D01*
X0001770970Y0001578043D01*
X0001768345Y0001564847D01*
X0001457513Y0001564847D01*
X0001440896Y0001571730D01*
X0001413247Y0001577229D01*
X0001385057Y0001577229D01*
X0001357408Y0001571730D01*
X0001331364Y0001560942D01*
X0001307925Y0001545280D01*
X0001287991Y0001525346D01*
X0001272329Y0001501907D01*
X0001261541Y0001475863D01*
X0001256042Y0001448214D01*
X0000025984Y0001448214D01*
X0000025984Y0001564847D01*
X0000051345Y0001564847D01*
X0000051345Y0001551391D01*
X0000053970Y0001538195D01*
X0000059119Y0001525763D01*
X0000066594Y0001514576D01*
X0000076109Y0001505061D01*
X0000087297Y0001497586D01*
X0000099728Y0001492437D01*
X0000112924Y0001489812D01*
X0000126380Y0001489812D01*
X0000139577Y0001492437D01*
X0000152008Y0001497586D01*
X0000163195Y0001505061D01*
X0000172710Y0001514576D01*
X0000180185Y0001525763D01*
X0000185334Y0001538195D01*
X0000187959Y0001551391D01*
X0000187959Y0001564847D01*
X0000185334Y0001578043D01*
X0000180185Y0001590475D01*
X0000172710Y0001601662D01*
X0000163195Y0001611177D01*
X0000152008Y0001618652D01*
X0000139577Y0001623801D01*
X0000126380Y0001626426D01*
X0000112924Y0001626426D01*
X0000099728Y0001623801D01*
X0000087297Y0001618652D01*
X0000076109Y0001611177D01*
X0000066594Y0001601662D01*
X0000059119Y0001590475D01*
X0000053970Y0001578043D01*
X0000051345Y0001564847D01*
X0000025984Y0001564847D01*
X0000025984Y0001699214D01*
X0000424042Y0001699214D01*
X0000424042Y0001671024D01*
X0000429541Y0001643375D01*
X0000440329Y0001617331D01*
X0000455991Y0001593892D01*
X0000475925Y0001573958D01*
X0000499364Y0001558296D01*
X0000525408Y0001547508D01*
X0000553057Y0001542009D01*
X0000581247Y0001542009D01*
X0000608896Y0001547508D01*
X0000634940Y0001558296D01*
X0000658380Y0001573958D01*
X0000678313Y0001593892D01*
X0000693975Y0001617331D01*
X0000704763Y0001643375D01*
X0000710262Y0001671024D01*
X0000710262Y0001699214D01*
X0000704763Y0001726863D01*
X0000693975Y0001752907D01*
X0000678313Y0001776346D01*
X0000672313Y0001782347D01*
X0001569345Y0001782347D01*
X0001569345Y0001768891D01*
X0001571970Y0001755695D01*
X0001577119Y0001743263D01*
X0001584594Y0001732076D01*
X0001594109Y0001722561D01*
X0001605297Y0001715086D01*
X0001617728Y0001709937D01*
X0001630924Y0001707312D01*
X0001644380Y0001707312D01*
X0001657577Y0001709937D01*
X0001670008Y0001715086D01*
X0001681195Y0001722561D01*
X0001690710Y0001732076D01*
X0001698185Y0001743263D01*
X0001703334Y0001755695D01*
X0001705959Y0001768891D01*
X0001705959Y0001782347D01*
X0001703334Y0001795543D01*
X0001698185Y0001807975D01*
X0001690710Y0001819162D01*
X0001681195Y0001828677D01*
X0001670008Y0001836152D01*
X0001657577Y0001841301D01*
X0001644380Y0001843926D01*
X0001630924Y0001843926D01*
X0001617728Y0001841301D01*
X0001605297Y0001836152D01*
X0001594109Y0001828677D01*
X0001584594Y0001819162D01*
X0001577119Y0001807975D01*
X0001571970Y0001795543D01*
X0001569345Y0001782347D01*
X0000672313Y0001782347D01*
X0000658380Y0001796280D01*
X0000634940Y0001811942D01*
X0000608896Y0001822730D01*
X0000581247Y0001828229D01*
X0000553057Y0001828229D01*
X0000525408Y0001822730D01*
X0000499364Y0001811942D01*
X0000475925Y0001796280D01*
X0000455991Y0001776346D01*
X0000440329Y0001752907D01*
X0000429541Y0001726863D01*
X0000424042Y0001699214D01*
X0000025984Y0001699214D01*
X0000025984Y0001782347D01*
X0000246845Y0001782347D01*
X0000246845Y0001768891D01*
X0000249470Y0001755695D01*
X0000254619Y0001743263D01*
X0000262094Y0001732076D01*
X0000271609Y0001722561D01*
X0000282797Y0001715086D01*
X0000295228Y0001709937D01*
X0000308424Y0001707312D01*
X0000321880Y0001707312D01*
X0000335077Y0001709937D01*
X0000347508Y0001715086D01*
X0000358695Y0001722561D01*
X0000368210Y0001732076D01*
X0000375685Y0001743263D01*
X0000380834Y0001755695D01*
X0000383459Y0001768891D01*
X0000383459Y0001782347D01*
X0000380834Y0001795543D01*
X0000375685Y0001807975D01*
X0000368210Y0001819162D01*
X0000358695Y0001828677D01*
X0000347508Y0001836152D01*
X0000335077Y0001841301D01*
X0000321880Y0001843926D01*
X0000308424Y0001843926D01*
X0000295228Y0001841301D01*
X0000282797Y0001836152D01*
X0000271609Y0001828677D01*
X0000262094Y0001819162D01*
X0000254619Y0001807975D01*
X0000249470Y0001795543D01*
X0000246845Y0001782347D01*
X0000025984Y0001782347D01*
X0000025984Y0001908347D01*
X0000660345Y0001908347D01*
X0000660345Y0001894891D01*
X0000662970Y0001881695D01*
X0000668119Y0001869263D01*
X0000675594Y0001858076D01*
X0000685109Y0001848561D01*
X0000696297Y0001841086D01*
X0000708728Y0001835937D01*
X0000721924Y0001833312D01*
X0000735380Y0001833312D01*
X0000748577Y0001835937D01*
X0000761008Y0001841086D01*
X0000772195Y0001848561D01*
X0000781710Y0001858076D01*
X0000789185Y0001869263D01*
X0000794334Y0001881695D01*
X0000796959Y0001894891D01*
X0000796959Y0001908347D01*
X0001156345Y0001908347D01*
X0001156345Y0001894891D01*
X0001158970Y0001881695D01*
X0001164119Y0001869263D01*
X0001171594Y0001858076D01*
X0001181109Y0001848561D01*
X0001192297Y0001841086D01*
X0001204728Y0001835937D01*
X0001217924Y0001833312D01*
X0001231380Y0001833312D01*
X0001244577Y0001835937D01*
X0001257008Y0001841086D01*
X0001268195Y0001848561D01*
X0001277710Y0001858076D01*
X0001285185Y0001869263D01*
X0001290334Y0001881695D01*
X0001292959Y0001894891D01*
X0001292959Y0001908347D01*
X0001290334Y0001921543D01*
X0001285185Y0001933975D01*
X0001277710Y0001945162D01*
X0001268195Y0001954677D01*
X0001257008Y0001962152D01*
X0001244577Y0001967301D01*
X0001231380Y0001969926D01*
X0001217924Y0001969926D01*
X0001204728Y0001967301D01*
X0001192297Y0001962152D01*
X0001181109Y0001954677D01*
X0001171594Y0001945162D01*
X0001164119Y0001933975D01*
X0001158970Y0001921543D01*
X0001156345Y0001908347D01*
X0000796959Y0001908347D01*
X0000794334Y0001921543D01*
X0000789185Y0001933975D01*
X0000781710Y0001945162D01*
X0000772195Y0001954677D01*
X0000761008Y0001962152D01*
X0000748577Y0001967301D01*
X0000735380Y0001969926D01*
X0000721924Y0001969926D01*
X0000708728Y0001967301D01*
X0000696297Y0001962152D01*
X0000685109Y0001954677D01*
X0000675594Y0001945162D01*
X0000668119Y0001933975D01*
X0000662970Y0001921543D01*
X0000660345Y0001908347D01*
X0000025984Y0001908347D01*
X0000025984Y0001971171D01*
X0000027111Y0001982665D01*
X0000030080Y0001992498D01*
X0000034902Y0002001568D01*
X0000041394Y0002009528D01*
X0000049309Y0002016075D01*
X0000058344Y0002020961D01*
X0000068157Y0002023998D01*
X0000079570Y0002025198D01*
X0001872381Y0002025198D01*
X0001883909Y0002024068D01*
G04 #@! TA.AperFunction,NonConductor*
D37*
G36*
X0001883909Y0002024068D02*
G01*
X0001893776Y0002021089D01*
X0001902875Y0002016250D01*
X0001910862Y0002009736D01*
X0001917432Y0002001795D01*
X0001922334Y0001992729D01*
X0001925381Y0001982884D01*
X0001926585Y0001971434D01*
X0001926803Y0001147248D01*
X0001925670Y0001135697D01*
X0001922684Y0001125805D01*
X0001917833Y0001116682D01*
X0001911302Y0001108675D01*
X0001903341Y0001102088D01*
X0001894252Y0001097174D01*
X0001884381Y0001094118D01*
X0001872918Y0001092914D01*
X0001675959Y0001092914D01*
X0001675959Y0001092914D01*
X0000080011Y0001092914D01*
X0000068517Y0001094041D01*
X0000058683Y0001097010D01*
X0000049614Y0001101832D01*
X0000041654Y0001108324D01*
X0000035106Y0001116239D01*
X0000030221Y0001125274D01*
X0000027183Y0001135086D01*
X0000025984Y0001146500D01*
X0000025984Y0001223347D01*
X0000660345Y0001223347D01*
X0000660345Y0001209891D01*
X0000662970Y0001196695D01*
X0000668119Y0001184263D01*
X0000675594Y0001173076D01*
X0000685109Y0001163561D01*
X0000696297Y0001156086D01*
X0000708728Y0001150937D01*
X0000721924Y0001148312D01*
X0000735380Y0001148312D01*
X0000748577Y0001150937D01*
X0000761008Y0001156086D01*
X0000772195Y0001163561D01*
X0000781710Y0001173076D01*
X0000789185Y0001184263D01*
X0000794334Y0001196695D01*
X0000796959Y0001209891D01*
X0000796959Y0001223347D01*
X0001156345Y0001223347D01*
X0001156345Y0001209891D01*
X0001158970Y0001196695D01*
X0001164119Y0001184263D01*
X0001171594Y0001173076D01*
X0001181109Y0001163561D01*
X0001192297Y0001156086D01*
X0001204728Y0001150937D01*
X0001217924Y0001148312D01*
X0001231380Y0001148312D01*
X0001244577Y0001150937D01*
X0001257008Y0001156086D01*
X0001268195Y0001163561D01*
X0001277710Y0001173076D01*
X0001285185Y0001184263D01*
X0001290334Y0001196695D01*
X0001292959Y0001209891D01*
X0001292959Y0001223347D01*
X0001290334Y0001236543D01*
X0001285185Y0001248975D01*
X0001277710Y0001260162D01*
X0001268195Y0001269677D01*
X0001257008Y0001277152D01*
X0001244577Y0001282301D01*
X0001231380Y0001284926D01*
X0001217924Y0001284926D01*
X0001204728Y0001282301D01*
X0001192297Y0001277152D01*
X0001181109Y0001269677D01*
X0001171594Y0001260162D01*
X0001164119Y0001248975D01*
X0001158970Y0001236543D01*
X0001156345Y0001223347D01*
X0000796959Y0001223347D01*
X0000794334Y0001236543D01*
X0000789185Y0001248975D01*
X0000781710Y0001260162D01*
X0000772195Y0001269677D01*
X0000761008Y0001277152D01*
X0000748577Y0001282301D01*
X0000735380Y0001284926D01*
X0000721924Y0001284926D01*
X0000708728Y0001282301D01*
X0000696297Y0001277152D01*
X0000685109Y0001269677D01*
X0000675594Y0001260162D01*
X0000668119Y0001248975D01*
X0000662970Y0001236543D01*
X0000660345Y0001223347D01*
X0000025984Y0001223347D01*
X0000025984Y0001349347D01*
X0000246845Y0001349347D01*
X0000246845Y0001335891D01*
X0000249470Y0001322695D01*
X0000254619Y0001310263D01*
X0000262094Y0001299076D01*
X0000271609Y0001289561D01*
X0000282797Y0001282086D01*
X0000295228Y0001276937D01*
X0000308424Y0001274312D01*
X0000321880Y0001274312D01*
X0000335077Y0001276937D01*
X0000347508Y0001282086D01*
X0000358695Y0001289561D01*
X0000368210Y0001299076D01*
X0000375685Y0001310263D01*
X0000380834Y0001322695D01*
X0000383459Y0001335891D01*
X0000383459Y0001349347D01*
X0000380834Y0001362543D01*
X0000375685Y0001374975D01*
X0000368210Y0001386162D01*
X0000358695Y0001395677D01*
X0000347508Y0001403152D01*
X0000335077Y0001408301D01*
X0000321880Y0001410926D01*
X0000308424Y0001410926D01*
X0000295228Y0001408301D01*
X0000282797Y0001403152D01*
X0000271609Y0001395677D01*
X0000262094Y0001386162D01*
X0000254619Y0001374975D01*
X0000249470Y0001362543D01*
X0000246845Y0001349347D01*
X0000025984Y0001349347D01*
X0000025984Y0001448214D01*
X0001256042Y0001448214D01*
X0001256042Y0001420024D01*
X0001261541Y0001392375D01*
X0001272329Y0001366331D01*
X0001287991Y0001342892D01*
X0001307925Y0001322958D01*
X0001331364Y0001307296D01*
X0001357408Y0001296508D01*
X0001385057Y0001291009D01*
X0001413247Y0001291009D01*
X0001440896Y0001296508D01*
X0001466940Y0001307296D01*
X0001490380Y0001322958D01*
X0001510313Y0001342892D01*
X0001514626Y0001349347D01*
X0001569345Y0001349347D01*
X0001569345Y0001335891D01*
X0001571970Y0001322695D01*
X0001577119Y0001310263D01*
X0001584594Y0001299076D01*
X0001594109Y0001289561D01*
X0001605297Y0001282086D01*
X0001617728Y0001276937D01*
X0001630924Y0001274312D01*
X0001644380Y0001274312D01*
X0001657577Y0001276937D01*
X0001670008Y0001282086D01*
X0001681195Y0001289561D01*
X0001690710Y0001299076D01*
X0001698185Y0001310263D01*
X0001703334Y0001322695D01*
X0001705959Y0001335891D01*
X0001705959Y0001349347D01*
X0001703334Y0001362543D01*
X0001698185Y0001374975D01*
X0001690710Y0001386162D01*
X0001681195Y0001395677D01*
X0001670008Y0001403152D01*
X0001657577Y0001408301D01*
X0001644380Y0001410926D01*
X0001630924Y0001410926D01*
X0001617728Y0001408301D01*
X0001605297Y0001403152D01*
X0001594109Y0001395677D01*
X0001584594Y0001386162D01*
X0001577119Y0001374975D01*
X0001571970Y0001362543D01*
X0001569345Y0001349347D01*
X0001514626Y0001349347D01*
X0001525975Y0001366331D01*
X0001536763Y0001392375D01*
X0001542262Y0001420024D01*
X0001542262Y0001448214D01*
X0001536763Y0001475863D01*
X0001525975Y0001501907D01*
X0001510313Y0001525346D01*
X0001490380Y0001545280D01*
X0001466940Y0001560942D01*
X0001457513Y0001564847D01*
X0001768345Y0001564847D01*
X0001768345Y0001551391D01*
X0001770970Y0001538195D01*
X0001776119Y0001525763D01*
X0001783594Y0001514576D01*
X0001793109Y0001505061D01*
X0001804297Y0001497586D01*
X0001816728Y0001492437D01*
X0001829924Y0001489812D01*
X0001843380Y0001489812D01*
X0001856577Y0001492437D01*
X0001869008Y0001497586D01*
X0001880195Y0001505061D01*
X0001889710Y0001514576D01*
X0001897185Y0001525763D01*
X0001902334Y0001538195D01*
X0001904959Y0001551391D01*
X0001904959Y0001564847D01*
X0001902334Y0001578043D01*
X0001897185Y0001590475D01*
X0001889710Y0001601662D01*
X0001880195Y0001611177D01*
X0001869008Y0001618652D01*
X0001856577Y0001623801D01*
X0001843380Y0001626426D01*
X0001829924Y0001626426D01*
X0001816728Y0001623801D01*
X0001804297Y0001618652D01*
X0001793109Y0001611177D01*
X0001783594Y0001601662D01*
X0001776119Y0001590475D01*
X0001770970Y0001578043D01*
X0001768345Y0001564847D01*
X0001457513Y0001564847D01*
X0001440896Y0001571730D01*
X0001413247Y0001577229D01*
X0001385057Y0001577229D01*
X0001357408Y0001571730D01*
X0001331364Y0001560942D01*
X0001307925Y0001545280D01*
X0001287991Y0001525346D01*
X0001272329Y0001501907D01*
X0001261541Y0001475863D01*
X0001256042Y0001448214D01*
X0000025984Y0001448214D01*
X0000025984Y0001564847D01*
X0000051345Y0001564847D01*
X0000051345Y0001551391D01*
X0000053970Y0001538195D01*
X0000059119Y0001525763D01*
X0000066594Y0001514576D01*
X0000076109Y0001505061D01*
X0000087297Y0001497586D01*
X0000099728Y0001492437D01*
X0000112924Y0001489812D01*
X0000126380Y0001489812D01*
X0000139577Y0001492437D01*
X0000152008Y0001497586D01*
X0000163195Y0001505061D01*
X0000172710Y0001514576D01*
X0000180185Y0001525763D01*
X0000185334Y0001538195D01*
X0000187959Y0001551391D01*
X0000187959Y0001564847D01*
X0000185334Y0001578043D01*
X0000180185Y0001590475D01*
X0000172710Y0001601662D01*
X0000163195Y0001611177D01*
X0000152008Y0001618652D01*
X0000139577Y0001623801D01*
X0000126380Y0001626426D01*
X0000112924Y0001626426D01*
X0000099728Y0001623801D01*
X0000087297Y0001618652D01*
X0000076109Y0001611177D01*
X0000066594Y0001601662D01*
X0000059119Y0001590475D01*
X0000053970Y0001578043D01*
X0000051345Y0001564847D01*
X0000025984Y0001564847D01*
X0000025984Y0001699214D01*
X0000424042Y0001699214D01*
X0000424042Y0001671024D01*
X0000429541Y0001643375D01*
X0000440329Y0001617331D01*
X0000455991Y0001593892D01*
X0000475925Y0001573958D01*
X0000499364Y0001558296D01*
X0000525408Y0001547508D01*
X0000553057Y0001542009D01*
X0000581247Y0001542009D01*
X0000608896Y0001547508D01*
X0000634940Y0001558296D01*
X0000658380Y0001573958D01*
X0000678313Y0001593892D01*
X0000693975Y0001617331D01*
X0000704763Y0001643375D01*
X0000710262Y0001671024D01*
X0000710262Y0001699214D01*
X0000704763Y0001726863D01*
X0000693975Y0001752907D01*
X0000678313Y0001776346D01*
X0000672313Y0001782347D01*
X0001569345Y0001782347D01*
X0001569345Y0001768891D01*
X0001571970Y0001755695D01*
X0001577119Y0001743263D01*
X0001584594Y0001732076D01*
X0001594109Y0001722561D01*
X0001605297Y0001715086D01*
X0001617728Y0001709937D01*
X0001630924Y0001707312D01*
X0001644380Y0001707312D01*
X0001657577Y0001709937D01*
X0001670008Y0001715086D01*
X0001681195Y0001722561D01*
X0001690710Y0001732076D01*
X0001698185Y0001743263D01*
X0001703334Y0001755695D01*
X0001705959Y0001768891D01*
X0001705959Y0001782347D01*
X0001703334Y0001795543D01*
X0001698185Y0001807975D01*
X0001690710Y0001819162D01*
X0001681195Y0001828677D01*
X0001670008Y0001836152D01*
X0001657577Y0001841301D01*
X0001644380Y0001843926D01*
X0001630924Y0001843926D01*
X0001617728Y0001841301D01*
X0001605297Y0001836152D01*
X0001594109Y0001828677D01*
X0001584594Y0001819162D01*
X0001577119Y0001807975D01*
X0001571970Y0001795543D01*
X0001569345Y0001782347D01*
X0000672313Y0001782347D01*
X0000658380Y0001796280D01*
X0000634940Y0001811942D01*
X0000608896Y0001822730D01*
X0000581247Y0001828229D01*
X0000553057Y0001828229D01*
X0000525408Y0001822730D01*
X0000499364Y0001811942D01*
X0000475925Y0001796280D01*
X0000455991Y0001776346D01*
X0000440329Y0001752907D01*
X0000429541Y0001726863D01*
X0000424042Y0001699214D01*
X0000025984Y0001699214D01*
X0000025984Y0001782347D01*
X0000246845Y0001782347D01*
X0000246845Y0001768891D01*
X0000249470Y0001755695D01*
X0000254619Y0001743263D01*
X0000262094Y0001732076D01*
X0000271609Y0001722561D01*
X0000282797Y0001715086D01*
X0000295228Y0001709937D01*
X0000308424Y0001707312D01*
X0000321880Y0001707312D01*
X0000335077Y0001709937D01*
X0000347508Y0001715086D01*
X0000358695Y0001722561D01*
X0000368210Y0001732076D01*
X0000375685Y0001743263D01*
X0000380834Y0001755695D01*
X0000383459Y0001768891D01*
X0000383459Y0001782347D01*
X0000380834Y0001795543D01*
X0000375685Y0001807975D01*
X0000368210Y0001819162D01*
X0000358695Y0001828677D01*
X0000347508Y0001836152D01*
X0000335077Y0001841301D01*
X0000321880Y0001843926D01*
X0000308424Y0001843926D01*
X0000295228Y0001841301D01*
X0000282797Y0001836152D01*
X0000271609Y0001828677D01*
X0000262094Y0001819162D01*
X0000254619Y0001807975D01*
X0000249470Y0001795543D01*
X0000246845Y0001782347D01*
X0000025984Y0001782347D01*
X0000025984Y0001908347D01*
X0000660345Y0001908347D01*
X0000660345Y0001894891D01*
X0000662970Y0001881695D01*
X0000668119Y0001869263D01*
X0000675594Y0001858076D01*
X0000685109Y0001848561D01*
X0000696297Y0001841086D01*
X0000708728Y0001835937D01*
X0000721924Y0001833312D01*
X0000735380Y0001833312D01*
X0000748577Y0001835937D01*
X0000761008Y0001841086D01*
X0000772195Y0001848561D01*
X0000781710Y0001858076D01*
X0000789185Y0001869263D01*
X0000794334Y0001881695D01*
X0000796959Y0001894891D01*
X0000796959Y0001908347D01*
X0001156345Y0001908347D01*
X0001156345Y0001894891D01*
X0001158970Y0001881695D01*
X0001164119Y0001869263D01*
X0001171594Y0001858076D01*
X0001181109Y0001848561D01*
X0001192297Y0001841086D01*
X0001204728Y0001835937D01*
X0001217924Y0001833312D01*
X0001231380Y0001833312D01*
X0001244577Y0001835937D01*
X0001257008Y0001841086D01*
X0001268195Y0001848561D01*
X0001277710Y0001858076D01*
X0001285185Y0001869263D01*
X0001290334Y0001881695D01*
X0001292959Y0001894891D01*
X0001292959Y0001908347D01*
X0001290334Y0001921543D01*
X0001285185Y0001933975D01*
X0001277710Y0001945162D01*
X0001268195Y0001954677D01*
X0001257008Y0001962152D01*
X0001244577Y0001967301D01*
X0001231380Y0001969926D01*
X0001217924Y0001969926D01*
X0001204728Y0001967301D01*
X0001192297Y0001962152D01*
X0001181109Y0001954677D01*
X0001171594Y0001945162D01*
X0001164119Y0001933975D01*
X0001158970Y0001921543D01*
X0001156345Y0001908347D01*
X0000796959Y0001908347D01*
X0000794334Y0001921543D01*
X0000789185Y0001933975D01*
X0000781710Y0001945162D01*
X0000772195Y0001954677D01*
X0000761008Y0001962152D01*
X0000748577Y0001967301D01*
X0000735380Y0001969926D01*
X0000721924Y0001969926D01*
X0000708728Y0001967301D01*
X0000696297Y0001962152D01*
X0000685109Y0001954677D01*
X0000675594Y0001945162D01*
X0000668119Y0001933975D01*
X0000662970Y0001921543D01*
X0000660345Y0001908347D01*
X0000025984Y0001908347D01*
X0000025984Y0001971171D01*
X0000027111Y0001982665D01*
X0000030080Y0001992498D01*
X0000034902Y0002001568D01*
X0000041394Y0002009528D01*
X0000049309Y0002016075D01*
X0000058344Y0002020961D01*
X0000068157Y0002023998D01*
X0000079570Y0002025198D01*
X0001872381Y0002025198D01*
X0001883909Y0002024068D01*
G37*
G04 #@! TD.AperFunction*
G04 next file*
G04 #@! TF.GenerationSoftware,KiCad,Pcbnew,(5.1.12)-1*
G04 #@! TF.CreationDate,2022-03-26T22:13:32+08:00*
G04 #@! TF.ProjectId,Nozzle,4e6f7a7a-6c65-42e6-9b69-6361645f7063,0.5*
G04 #@! TF.SameCoordinates,Original*
G04 #@! TF.FileFunction,Copper,L2,Bot*
G04 #@! TF.FilePolarity,Positive*
G04 Gerber Fmt 4.6, Leading zero omitted, Abs format (unit mm)*
G04 Created by KiCad (PCBNEW (5.1.12)-1) date 2022-03-26 22:13:32*
G01*
G04 APERTURE LIST*
G04 #@! TA.AperFunction,ComponentPad*
G04 #@! TD*
G04 #@! TA.AperFunction,ComponentPad*
G04 #@! TD*
G04 #@! TA.AperFunction,SMDPad,CuDef*
G04 #@! TD*
G04 #@! TA.AperFunction,Conductor*
G04 #@! TD*
G04 #@! TA.AperFunction,Conductor*
G04 #@! TD*
G04 APERTURE END LIST*
D38*
X-0002519685Y0005157480D02*
X0003240314Y0003297480D03*
X0003240314Y0003397480D03*
X0003140314Y0003297480D03*
X0003140314Y0003397480D03*
X0003040314Y0003297480D03*
X0003040314Y0003397480D03*
X0002940314Y0003297480D03*
X0002940314Y0003397480D03*
X0002840314Y0003297480D03*
X0002840314Y0003397480D03*
X0002740314Y0003297480D03*
X0002740314Y0003397480D03*
X0002640314Y0003297480D03*
X0002640314Y0003397480D03*
X0002540314Y0003297480D03*
D39*
X0002540314Y0003397480D03*
D40*
X0002647555Y0002652106D03*
X0002690074Y0002667854D03*
X0002747555Y0002651106D03*
X0002790074Y0002666854D03*
X0002848055Y0002651606D03*
X0002890574Y0002667354D03*
X0002948555Y0002651606D03*
X0002991074Y0002667354D03*
X0002547055Y0002651606D03*
X0002589574Y0002667354D03*
X0003047555Y0002651606D03*
X0003090074Y0002667354D03*
X0003147055Y0002651606D03*
X0003189574Y0002667354D03*
X0003248555Y0002651606D03*
X0003291074Y0002667354D03*
D41*
X0002496314Y0002602480D02*
X0002483400Y0002615395D01*
X0002548314Y0002639480D02*
X0002548314Y0002615521D01*
X0002464433Y0002634674D02*
X0002464433Y0003321599D01*
X0002549314Y0002614521D02*
X0002538294Y0002603500D01*
X0002464433Y0003321599D02*
X0002540314Y0003397480D01*
X0002497335Y0002603500D02*
X0002496314Y0002602480D01*
X0002483400Y0002615395D02*
X0002483400Y0002615707D01*
X0002483400Y0002615707D02*
X0002464433Y0002634674D01*
X0002548314Y0002615521D02*
X0002549314Y0002614521D01*
X0002538294Y0002603500D02*
X0002497335Y0002603500D01*
X0002587314Y0002704480D02*
X0002589314Y0002702480D01*
X0002587314Y0002713480D02*
X0002587314Y0002704480D01*
X0002589314Y0002702480D02*
X0002589314Y0002680294D01*
X0002540314Y0003297480D02*
X0002540314Y0002760480D01*
X0002540314Y0002760480D02*
X0002587314Y0002713480D01*
X0002436874Y0003392858D02*
X0002436874Y0002563870D01*
X0002589133Y0003448661D02*
X0002492677Y0003448661D01*
X0002533962Y0002512480D02*
X0002561314Y0002512480D01*
X0002492677Y0003448661D02*
X0002436874Y0003392858D01*
X0002436874Y0002563870D02*
X0002488264Y0002512480D01*
X0002488264Y0002512480D02*
X0002533962Y0002512480D01*
X0002640314Y0003397480D02*
X0002589133Y0003448661D01*
X0002647314Y0002637480D02*
X0002647314Y0002598480D01*
X0002647314Y0002598480D02*
X0002561314Y0002512480D01*
X0002660379Y0002797416D02*
X0002687314Y0002770480D01*
X0002606850Y0002852738D02*
X0002660379Y0002799210D01*
X0002606850Y0003264015D02*
X0002606850Y0002852738D01*
X0002640314Y0003297480D02*
X0002606850Y0003264015D01*
X0002660379Y0002799210D02*
X0002660379Y0002797416D01*
X0002689314Y0002759665D02*
X0002689314Y0002680480D01*
D42*
X0002687314Y0002761665D02*
X0002689314Y0002759665D01*
D41*
X0002687314Y0002770480D02*
X0002687314Y0002761665D01*
X0002661574Y0003476220D02*
X0002481261Y0003476220D01*
X0002409314Y0003404274D02*
X0002409314Y0002552455D01*
X0002748314Y0002599480D02*
X0002756314Y0002591480D01*
X0002748314Y0002638480D02*
X0002748314Y0002599480D01*
X0002477289Y0002484480D02*
X0002712244Y0002484480D01*
X0002712244Y0002484480D02*
X0002751641Y0002537806D01*
X0002409314Y0002552455D02*
X0002477289Y0002484480D01*
X0002758412Y0002544577D02*
X0002756314Y0002570898D01*
X0002751641Y0002537806D02*
X0002758412Y0002544577D01*
X0002756314Y0002591480D02*
X0002750314Y0002597480D01*
X0002740314Y0003397480D02*
X0002661574Y0003476220D01*
X0002481261Y0003476220D02*
X0002409314Y0003404274D01*
X0002756314Y0002570898D02*
X0002756314Y0002591480D01*
X0002740314Y0002836480D02*
X0002740314Y0003297480D01*
X0002740314Y0002769883D02*
X0002740314Y0002836480D01*
X0002790314Y0002682480D02*
X0002790314Y0002719883D01*
X0002790314Y0002719883D02*
X0002740314Y0002769883D01*
X0002734014Y0003503780D02*
X0002840314Y0003397480D01*
X0002379314Y0002543480D02*
X0002379314Y0003413480D01*
X0002379314Y0003413480D02*
X0002469615Y0003503780D01*
X0002751314Y0002456480D02*
X0002466314Y0002456480D01*
X0002848314Y0002639480D02*
X0002848314Y0002553480D01*
X0002469615Y0003503780D02*
X0002734014Y0003503780D01*
X0002848314Y0002553480D02*
X0002751314Y0002456480D01*
X0002466314Y0002456480D02*
X0002379314Y0002543480D01*
X0002890314Y0002683084D02*
X0002890314Y0002751480D01*
X0002840314Y0002801480D02*
X0002840314Y0003297480D01*
X0002890314Y0002751480D02*
X0002840314Y0002801480D01*
X0003458314Y0002556052D02*
X0003363624Y0002461361D01*
X0003048433Y0002461361D02*
X0002957314Y0002552480D01*
X0002957314Y0002591480D02*
X0002948314Y0002600480D01*
X0003291314Y0003508480D02*
X0003458314Y0003341480D01*
X0002940314Y0003397480D02*
X0003051314Y0003508480D01*
X0003363624Y0002461361D02*
X0003048433Y0002461361D01*
X0003458314Y0003341480D02*
X0003458314Y0002556052D01*
X0003051314Y0003508480D02*
X0003291314Y0003508480D01*
X0002948314Y0002600480D02*
X0002948314Y0002639480D01*
X0002957314Y0002552480D02*
X0002957314Y0002591480D01*
X0002985314Y0002724811D02*
X0002974497Y0002738297D01*
X0002974497Y0002738297D02*
X0002940314Y0002772480D01*
X0002940314Y0002772480D02*
X0002940314Y0002848480D01*
X0002940314Y0002848480D02*
X0002940314Y0003297480D01*
X0002990314Y0002679422D02*
X0002990314Y0002719480D01*
X0002989314Y0002720811D02*
X0002985314Y0002724811D01*
X0003097205Y0002513480D02*
X0003051314Y0002559371D01*
X0003048314Y0002562371D02*
X0003051314Y0002559371D01*
X0003274314Y0003480480D02*
X0003429314Y0003325480D01*
X0003121765Y0002488920D02*
X0003097205Y0002513480D01*
X0003352208Y0002488920D02*
X0003121765Y0002488920D01*
X0003048314Y0002638480D02*
X0003048314Y0002562371D01*
X0003040314Y0003397480D02*
X0003123314Y0003480480D01*
X0003429314Y0003325480D02*
X0003429314Y0002566026D01*
X0003429314Y0002566026D02*
X0003352208Y0002488920D01*
X0003123314Y0003480480D02*
X0003274314Y0003480480D01*
X0003051314Y0002559371D02*
X0003050424Y0002559371D01*
X0003050424Y0002559371D02*
X0003049314Y0002560480D01*
X0003090314Y0002682480D02*
X0003090314Y0002791480D01*
X0003040314Y0002841480D02*
X0003040314Y0003297480D01*
X0003090314Y0002791480D02*
X0003040314Y0002841480D01*
X0003145314Y0002595480D02*
X0003147314Y0002597480D01*
X0003401755Y0002577442D02*
X0003340793Y0002516480D01*
X0003401755Y0003310039D02*
X0003401755Y0002577442D01*
X0003355314Y0003356480D02*
X0003401755Y0003310039D01*
X0003355314Y0003358228D02*
X0003355314Y0003356480D01*
X0003260622Y0003452920D02*
X0003355314Y0003358228D01*
X0003195755Y0003452920D02*
X0003260622Y0003452920D01*
X0003340793Y0002516480D02*
X0003224314Y0002516480D01*
X0003140314Y0003397480D02*
X0003195755Y0003452920D01*
X0003147314Y0002597480D02*
X0003147314Y0002637480D01*
X0003224314Y0002516480D02*
X0003145314Y0002595480D01*
D42*
X0003186314Y0002707480D02*
X0003186314Y0002687087D01*
D41*
X0003186314Y0002707480D02*
X0003186314Y0002719480D01*
X0003094922Y0003252087D02*
X0003094922Y0002985873D01*
X0003140314Y0003297480D02*
X0003094922Y0003252087D01*
X0003094922Y0002985873D02*
X0003107009Y0002973786D01*
X0003107009Y0002973786D02*
X0003108009Y0002973786D01*
X0003108009Y0002973786D02*
X0003163314Y0002918480D01*
X0003163314Y0002918480D02*
X0003163314Y0002742480D01*
X0003163314Y0002742480D02*
X0003186314Y0002719480D01*
X0003189314Y0002709106D02*
X0003189314Y0002679480D01*
X0003274503Y0002602480D02*
X0003252314Y0002602480D01*
X0003249314Y0002605480D02*
X0003252314Y0002602480D01*
X0003249314Y0002639480D02*
X0003249314Y0002605480D01*
X0003331390Y0002602480D02*
X0003274503Y0002602480D01*
X0003374195Y0002645286D02*
X0003331390Y0002602480D01*
X0003374195Y0003263599D02*
X0003374195Y0002645286D01*
X0003240314Y0003397480D02*
X0003374195Y0003263599D01*
X0003240314Y0002831480D02*
X0003240314Y0003297480D01*
X0003290314Y0002781480D02*
X0003240314Y0002831480D01*
X0003290314Y0002681480D02*
X0003290314Y0002781480D01*
M02*