%MOIN*%
%OFA0B0*%
%FSLAX46Y46*%
%IPPOS*%
%LPD*%
%ADD10C,0.031496062992125991*%
%ADD11O,0.066929133858267723X0.066929133858267723*%
%ADD12R,0.066929133858267723X0.066929133858267723*%
%ADD13C,0.086614173228346469*%
%ADD14C,0.05*%
%ADD15C,0.03937007874015748*%
%ADD26C,0.086614173228346469*%
%ADD27C,0.025*%
%ADD28C,0.01968503937007874*%
%ADD29C,0.015748031496062995*%
%ADD30C,0.011811023622047244*%
%ADD31C,0.00984251968503937*%
%ADD32C,0.033464566929133861*%
%ADD33C,0.086614173228346469*%
%ADD34C,0.23622047244094491*%
%ADD35C,0.025*%
%ADD36C,0.01968503937007874*%
%ADD37C,0.015748031496062995*%
%ADD38C,0.011811023622047244*%
%ADD39C,0.00984251968503937*%
%ADD40C,0.033464566929133861*%
%ADD41C,0.086614173228346469*%
%ADD42C,0.23622047244094491*%
%ADD43C,0.086614173228346469*%
%ADD44C,0.086614173228346469*%
G01*
D10*
X-0002519685Y0005137795D02*
X0002518314Y0002639795D03*
D11*
X0003240314Y0003277795D03*
X0003240314Y0003377795D03*
X0003140314Y0003277795D03*
X0003140314Y0003377795D03*
X0003040314Y0003277795D03*
X0003040314Y0003377795D03*
X0002940314Y0003277795D03*
X0002940314Y0003377795D03*
X0002840314Y0003277795D03*
X0002840314Y0003377795D03*
X0002740314Y0003277795D03*
X0002740314Y0003377795D03*
X0002640314Y0003277795D03*
X0002640314Y0003377795D03*
X0002540314Y0003277795D03*
D12*
X0002540314Y0003377795D03*
D13*
X0003560314Y0003390795D03*
X0002273314Y0003388795D03*
D14*
X0002813314Y0002739795D03*
X0003213814Y0002739795D03*
X0003313314Y0002540795D03*
X0003113314Y0002539795D03*
X0002913314Y0002539795D03*
X0002713314Y0002539795D03*
X0002613314Y0002739795D03*
X0003013314Y0002739795D03*
D13*
X0003166814Y0002982295D03*
X0003166814Y0002297295D03*
X0002670814Y0002982295D03*
X0003576314Y0002856295D03*
X0003575814Y0002423295D03*
X0002261314Y0002423295D03*
X0002670314Y0002297295D03*
X0002261314Y0002856295D03*
D14*
X0002513314Y0002539795D03*
D15*
X0003019314Y0002639795D03*
X0003118814Y0002639795D03*
X0002819314Y0002639795D03*
D10*
X0002618814Y0002639795D03*
D15*
X0002919814Y0002639795D03*
X0003218814Y0002639795D03*
X0003322314Y0002639795D03*
X0002718814Y0002639795D03*
G04 next file*
G04 #@! TF.GenerationSoftware,KiCad,Pcbnew,(5.1.12)-1*
G04 #@! TF.CreationDate,2022-04-03T11:08:51+08:00*
G04 #@! TF.ProjectId,Nozzle,4e6f7a7a-6c65-42e6-9b69-6361645f7063,Gen3.1b*
G04 #@! TF.SameCoordinates,Original*
G04 #@! TF.FileFunction,Soldermask,Top*
G04 #@! TF.FilePolarity,Negative*
G04 Gerber Fmt 4.6, Leading zero omitted, Abs format (unit mm)*
G04 Created by KiCad (PCBNEW (5.1.12)-1) date 2022-04-03 11:08:51*
G01*
G04 APERTURE LIST*
G04 APERTURE END LIST*
D26*
X-0002614519Y0004115220D02*
X0003469980Y0000708720D03*
X0003060480Y0000149720D03*
X0002154980Y0000708720D03*
X0002154980Y0000275720D03*
X0002564980Y0000834720D03*
X0003059980Y0000834720D03*
X0003469480Y0000275720D03*
X0002564480Y0000149720D03*
G04 next file*
G04 #@! TF.GenerationSoftware,KiCad,Pcbnew,(5.1.12)-1*
G04 #@! TF.CreationDate,2022-03-29T21:33:58+08:00*
G04 #@! TF.ProjectId,Nozzle,4e6f7a7a-6c65-42e6-9b69-6361645f7063,Gen3.1b*
G04 #@! TF.SameCoordinates,Original*
G04 #@! TF.FileFunction,Soldermask,Top*
G04 #@! TF.FilePolarity,Negative*
G04 Gerber Fmt 4.6, Leading zero omitted, Abs format (unit mm)*
G04 Created by KiCad (PCBNEW (5.1.12)-1) date 2022-03-29 21:33:58*
G01*
G04 APERTURE LIST*
G04 APERTURE END LIST*
D27*
X-0004527559Y0004724409D02*
X0001284940Y0003320909D03*
X0000684940Y0003320409D03*
X0000884940Y0003320409D03*
X0001084940Y0003320909D03*
X0000484940Y0003320409D03*
X0000584940Y0003520409D03*
X0000784940Y0003520409D03*
X0001184940Y0003520409D03*
X0000984940Y0003520409D03*
D28*
X0001040940Y0003421909D03*
D29*
X0000940940Y0003420909D03*
D30*
X0000840940Y0003420409D03*
D31*
X0000740940Y0003420409D03*
D32*
X0001239940Y0003420909D03*
X0000639940Y0003420409D03*
X0001139940Y0003420409D03*
X0000539940Y0003420409D03*
G04 next file*
G04 #@! TF.GenerationSoftware,KiCad,Pcbnew,(5.1.12)-1*
G04 #@! TF.CreationDate,2022-04-03T11:03:18+08:00*
G04 #@! TF.ProjectId,Nozzle,4e6f7a7a-6c65-42e6-9b69-6361645f7063,Gen3.1b*
G04 #@! TF.SameCoordinates,Original*
G04 #@! TF.FileFunction,Soldermask,Top*
G04 #@! TF.FilePolarity,Negative*
G04 Gerber Fmt 4.6, Leading zero omitted, Abs format (unit mm)*
G04 Created by KiCad (PCBNEW (5.1.12)-1) date 2022-04-03 11:03:18*
G01*
G04 APERTURE LIST*
G04 APERTURE END LIST*
D33*
X-0004461847Y0005193189D02*
X0001637652Y0000708689D03*
X0001224652Y0000834689D03*
X0000728652Y0000149689D03*
X0000728652Y0000834689D03*
X0000315152Y0000708689D03*
X0001637652Y0000275689D03*
X0001224652Y0000149689D03*
X0000315152Y0000275689D03*
X0000119652Y0000491189D03*
X0001836652Y0000491189D03*
D34*
X0001399152Y0000367189D03*
X0000567152Y0000618189D03*
G04 next file*
G04 #@! TF.GenerationSoftware,KiCad,Pcbnew,(5.1.12)-1*
G04 #@! TF.CreationDate,2022-03-29T21:33:58+08:00*
G04 #@! TF.ProjectId,Nozzle,4e6f7a7a-6c65-42e6-9b69-6361645f7063,Gen3.1b*
G04 #@! TF.SameCoordinates,Original*
G04 #@! TF.FileFunction,Soldermask,Top*
G04 #@! TF.FilePolarity,Negative*
G04 Gerber Fmt 4.6, Leading zero omitted, Abs format (unit mm)*
G04 Created by KiCad (PCBNEW (5.1.12)-1) date 2022-03-29 21:33:58*
G01*
G04 APERTURE LIST*
G04 APERTURE END LIST*
D35*
X0000551181Y-0002755905D02*
X0001954681Y0003056594D03*
X0001955181Y0002456594D03*
X0001955181Y0002656594D03*
X0001954681Y0002856594D03*
X0001955181Y0002256594D03*
X0001755181Y0002356594D03*
X0001755181Y0002556594D03*
X0001755181Y0002956594D03*
X0001755181Y0002756594D03*
D36*
X0001853681Y0002812594D03*
D37*
X0001854681Y0002712594D03*
D38*
X0001855181Y0002612594D03*
D39*
X0001855181Y0002512594D03*
D40*
X0001854681Y0003011594D03*
X0001855181Y0002411594D03*
X0001855181Y0002911594D03*
X0001855181Y0002311594D03*
G04 next file*
G04 #@! TF.GenerationSoftware,KiCad,Pcbnew,(5.1.12)-1*
G04 #@! TF.CreationDate,2022-04-03T11:03:18+08:00*
G04 #@! TF.ProjectId,Nozzle,4e6f7a7a-6c65-42e6-9b69-6361645f7063,Gen3.1b*
G04 #@! TF.SameCoordinates,Original*
G04 #@! TF.FileFunction,Soldermask,Top*
G04 #@! TF.FilePolarity,Negative*
G04 Gerber Fmt 4.6, Leading zero omitted, Abs format (unit mm)*
G04 Created by KiCad (PCBNEW (5.1.12)-1) date 2022-04-03 11:03:18*
G01*
G04 APERTURE LIST*
G04 APERTURE END LIST*
D41*
X-0004461847Y0006260119D02*
X0001637652Y0001775619D03*
X0001224652Y0001901619D03*
X0000728652Y0001216619D03*
X0000728652Y0001901619D03*
X0000315152Y0001775619D03*
X0001637652Y0001342619D03*
X0001224652Y0001216619D03*
X0000315152Y0001342619D03*
X0000119652Y0001558119D03*
X0001836652Y0001558119D03*
D42*
X0001399152Y0001434119D03*
X0000567152Y0001685119D03*
G04 next file*
G04 #@! TF.GenerationSoftware,KiCad,Pcbnew,(5.1.12)-1*
G04 #@! TF.CreationDate,2022-04-03T11:08:51+08:00*
G04 #@! TF.ProjectId,Nozzle,4e6f7a7a-6c65-42e6-9b69-6361645f7063,Gen3.1b*
G04 #@! TF.SameCoordinates,Original*
G04 #@! TF.FileFunction,Soldermask,Top*
G04 #@! TF.FilePolarity,Negative*
G04 Gerber Fmt 4.6, Leading zero omitted, Abs format (unit mm)*
G04 Created by KiCad (PCBNEW (5.1.12)-1) date 2022-04-03 11:08:51*
G01*
G04 APERTURE LIST*
G04 APERTURE END LIST*
D43*
X-0004649984Y0006249080D02*
X0001434515Y0002842580D03*
X0001025015Y0002283580D03*
X0000119515Y0002842580D03*
X0000119515Y0002409580D03*
X0000529515Y0002968580D03*
X0001024515Y0002968580D03*
X0001434015Y0002409580D03*
X0000529015Y0002283580D03*
G04 next file*
G04 #@! TF.GenerationSoftware,KiCad,Pcbnew,(5.1.12)-1*
G04 #@! TF.CreationDate,2022-04-03T11:08:51+08:00*
G04 #@! TF.ProjectId,Nozzle,4e6f7a7a-6c65-42e6-9b69-6361645f7063,Gen3.1b*
G04 #@! TF.SameCoordinates,Original*
G04 #@! TF.FileFunction,Soldermask,Top*
G04 #@! TF.FilePolarity,Negative*
G04 Gerber Fmt 4.6, Leading zero omitted, Abs format (unit mm)*
G04 Created by KiCad (PCBNEW (5.1.12)-1) date 2022-04-03 11:08:51*
G01*
G04 APERTURE LIST*
G04 APERTURE END LIST*
D44*
X-0002614519Y0005182150D02*
X0003469980Y0001775650D03*
X0003060480Y0001216650D03*
X0002154980Y0001775650D03*
X0002154980Y0001342650D03*
X0002564980Y0001901650D03*
X0003059980Y0001901650D03*
X0003469480Y0001342650D03*
X0002564480Y0001216650D03*
M02*