%
M48
METRIC,000.000
T01C2.20
T10C0.64
T11C0.25
T12C0.30
T13C0.40
T14C0.50
T15C1.27
T16C3.20
T17C1.00
%
T01
X054736Y018001
X054736Y007003
X065138Y003802
X065150Y021201
X077723Y021201
X077736Y003802
X088125Y007003
X088137Y018001
X003144Y072475
X003144Y061477
X013546Y058275
X013558Y075675
X026132Y075675
X026145Y058275
X036533Y061477
X036545Y072475
X054736Y045101
X054736Y034103
X065138Y030902
X065150Y048301
X077723Y048301
X077736Y030902
X088125Y034103
X088137Y045101
X003039Y012476
X008005Y018001
X008005Y007002
X018508Y021201
X018508Y003802
X031106Y021201
X031106Y003802
X041596Y018001
X041596Y007002
X046651Y012476
X003039Y039576
X008005Y045101
X008005Y034102
X018508Y048301
X018508Y030902
X031106Y048301
X031106Y030902
X041596Y045101
X041596Y034102
X046651Y039576
X057437Y073050
X057437Y062052
X057742Y086575
X067826Y058851
X067839Y076250
X080437Y076250
X080437Y058851
X090431Y086626
X090826Y062052
X090838Y073050
T10
X009920Y086926
X012461Y086926
X025161Y086926
X027700Y086939
X047074Y058920
X047074Y061461
X047074Y074161
X047061Y076701
T11
X015026Y086926
X047074Y064025
T12
X017566Y086926
X047074Y066566
T13
X020105Y086939
X047061Y069106
T14
X022645Y086964
X047036Y071645
T15
X008524Y084386
X011063Y089466
X013604Y084386
X016143Y089466
X018683Y084386
X021223Y089466
X023764Y084399
X026304Y089466
X028843Y084399
X049614Y057524
X044534Y060063
X049614Y062604
X044534Y065144
X049614Y067684
X044534Y070223
X049601Y072764
X044534Y075304
X049601Y077844
X063837Y065010
X063965Y067551
X066377Y070091
X066518Y067551
X068918Y065010
X069058Y067551
X071458Y070091
X071598Y067551
X073997Y065010
X074138Y067551
X076538Y070091
X076664Y067551
X079078Y065010
X079217Y067551
X081631Y070091
X081745Y067551
X084157Y065036
X084298Y067551
T16
X014406Y015702
X035538Y009327
X014406Y042802
X035538Y036427
T17
X064524Y086295
X064524Y083756
X067064Y086295
X067064Y083756
X069604Y086295
X069604Y083756
X072144Y086295
X072144Y083756
X074684Y086295
X074684Y083756
X077223Y086295
X077223Y083756
X079764Y086295
X079764Y083756
X082304Y086295
X082304Y083756
M30