%
M48
METRIC,000.000
T01C1.00
T02C0.80
T03C1.00
T04C1.27
T05C2.20
T10C0.64
T11C0.25
T12C0.30
T13C0.40
T14C0.50
T15C3.20
%
T01
X064524Y085795
X064524Y083256
X067064Y085795
X067064Y083256
X069604Y085795
X069604Y083256
X072144Y085795
X072144Y083256
X074684Y085795
X074684Y083256
X077223Y085795
X077223Y083256
X079764Y085795
X079764Y083256
X082304Y085795
X082304Y083256
T02
X063965Y067051
X066518Y067051
T03
X069058Y067051
X071610Y067051
X074163Y067051
X076691Y067051
X079217Y067051
X081758Y067051
X084387Y067051
T04
X063837Y064510
X066377Y069591
X068918Y064510
X071458Y069591
X073997Y064510
X076538Y069591
X079078Y064510
X081631Y069591
X084157Y064536
T05
X057437Y072550
X057437Y061552
X057742Y086075
X067826Y058351
X067839Y075750
X080437Y075750
X080437Y058351
X090431Y086126
X090826Y061552
X090838Y072550
X054736Y018001
X054736Y007003
X065138Y003802
X065150Y021201
X077723Y021201
X077736Y003802
X088125Y007003
X088137Y018001
X003039Y012476
X008005Y018001
X008005Y007002
X018508Y021201
X018508Y003802
X031106Y021201
X031106Y003802
X041596Y018001
X041596Y007002
X046651Y012476
X003039Y039576
X008005Y045101
X008005Y034102
X018508Y048301
X018508Y030902
X031106Y048301
X031106Y030902
X041596Y045101
X041596Y034102
X046651Y039576
X003035Y072201
X003035Y061203
X013437Y058002
X013449Y075401
X026022Y075401
X026035Y058002
X036424Y061203
X036436Y072201
X054736Y045101
X054736Y034103
X065138Y030902
X065150Y048301
X077723Y048301
X077736Y030902
X088125Y034103
X088137Y045101
T10
X013715Y086878
X016254Y086878
X028955Y086878
X031495Y086890
X012317Y084338
X014857Y089418
X017397Y084338
X019937Y089418
X022477Y084338
X025016Y089418
X027557Y084351
X030098Y089418
X032637Y084351
X047122Y058715
X047122Y061254
X047122Y073955
X047109Y076495
X049662Y057318
X044582Y059857
X049662Y062397
X044582Y064937
X049662Y067477
X044582Y070017
X049649Y072558
X044582Y075098
X049649Y077638
T11
X018819Y086878
X047122Y063819
T12
X021360Y086878
X047122Y066360
T13
X023900Y086890
X047109Y068900
T14
X026439Y086916
X047084Y071440
T15
X014406Y015702
X035538Y009327
X014406Y042802
X035538Y036427
M30