%
M48
METRIC,000.000
T01C0.50
%
T01
X014648Y025250
X013648Y025250
X012648Y025250
X011648Y025250
X010648Y025250
X009648Y025250
X009289Y026850
X010289Y026850
X011289Y026850
X012289Y026850
X013289Y026850
X014289Y026850
X012648Y052350
X011648Y052350
X010648Y052350
X009648Y052350
X008648Y052350
X007648Y052350
X007279Y053950
X008279Y053950
X009279Y053950
X010279Y053950
X011279Y053950
X012279Y053950
X051450Y015190
X051450Y014190
X051450Y013190
X051450Y012190
X051450Y011190
X051450Y010190
X049848Y009475
X049848Y010475
X049848Y011475
X049848Y012475
X049847Y013475
X049847Y014475
X049847Y015475
X042055Y069665
X042055Y068665
X042055Y067665
X042055Y066665
X042055Y065665
X042055Y064665
X039847Y064669
X039847Y065669
X039847Y066669
X039847Y067669
X039847Y068669
X039847Y069669
X049848Y036575
X049848Y037575
X049848Y038575
X049848Y039575
X049847Y040575
X049847Y041575
X049847Y042575
X051450Y042290
X051450Y041290
X051450Y040290
X051450Y039290
X051450Y038290
X051450Y037290
X085360Y025250
X084360Y025250
X083360Y025250
X082360Y025250
X081360Y025250
X080360Y025250
X079980Y026850
X080980Y026850
X081980Y026850
X082980Y026850
X083980Y026850
X084980Y026850
X085980Y026850
X054014Y069742
X054014Y068742
X054014Y067742
X054014Y066742
X054014Y065742
X054014Y064742
X052095Y064359
X052095Y065359
X052095Y066359
X052095Y067359
X052095Y068359
X052095Y069359
X031648Y052350
X030648Y052350
X029648Y052350
X028648Y052350
X027648Y052350
X026648Y052350
X026279Y053950
X027279Y053950
X028279Y053950
X029279Y053950
X030279Y053950
X031279Y053950
X012503Y081904
X013503Y081904
X014503Y081904
X015503Y081904
X016503Y081904
X017503Y081904
X016659Y079450
X015659Y079450
X014659Y079450
X013659Y079450
X012659Y079450
X026503Y081904
X027503Y081904
X028503Y081904
X029503Y081904
X030503Y081904
X031503Y081904
X030659Y079450
X029659Y079450
X028659Y079450
X027659Y079450
X026659Y079450
X059544Y054302
X060544Y054302
X061544Y054302
X062544Y054302
X063544Y054302
X064544Y054302
X064360Y052350
X063360Y052350
X062360Y052350
X061360Y052350
X060360Y052350
X059360Y052350
X079544Y054302
X080544Y054302
X081544Y054302
X082544Y054302
X083544Y054302
X084544Y054302
X084360Y052350
X083360Y052350
X082360Y052350
X081360Y052350
X080360Y052350
X063360Y025250
X062360Y025250
X061360Y025250
X060360Y025250
X059360Y025250
X058360Y025250
X058980Y026850
X059980Y026850
X060980Y026850
X061980Y026850
X062980Y026850
X038648Y025250
X037648Y025250
X036648Y025250
X035648Y025250
X034648Y025250
X033648Y025250
X033289Y026850
X034289Y026850
X035289Y026850
X036289Y026850
X037289Y026850
X038289Y026850
M30