%MOIN*%
%OFA0B0*%
%FSLAX46Y46*%
%IPPOS*%
%LPD*%
%ADD10C,0.005905511811023622*%
%ADD11C,0.005905511811023622*%
%ADD12C,0.005905511811023622*%
%ADD13C,0.0047244094488188976*%
G01*
G04 next file*
G04 #@! TF.GenerationSoftware,KiCad,Pcbnew,(5.1.12)-1*
G04 #@! TF.CreationDate,2022-03-26T22:12:51+08:00*
G04 #@! TF.ProjectId,Nozzle,4e6f7a7a-6c65-42e6-9b69-6361645f7063,0.5*
G04 #@! TF.SameCoordinates,Original*
G04 #@! TF.FileFunction,Legend,Top*
G04 #@! TF.FilePolarity,Positive*
G04 Gerber Fmt 4.6, Leading zero omitted, Abs format (unit mm)*
G04 Created by KiCad (PCBNEW (5.1.12)-1) date 2022-03-26 22:12:51*
G01*
G04 APERTURE LIST*
G04 APERTURE END LIST*
G04 next file*
G04 #@! TF.GenerationSoftware,KiCad,Pcbnew,(5.1.12)-1*
G04 #@! TF.CreationDate,2022-03-26T22:12:51+08:00*
G04 #@! TF.ProjectId,Nozzle,4e6f7a7a-6c65-42e6-9b69-6361645f7063,0.5*
G04 #@! TF.SameCoordinates,Original*
G04 #@! TF.FileFunction,Legend,Top*
G04 #@! TF.FilePolarity,Positive*
G04 Gerber Fmt 4.6, Leading zero omitted, Abs format (unit mm)*
G04 Created by KiCad (PCBNEW (5.1.12)-1) date 2022-03-26 22:12:51*
G01*
G04 APERTURE LIST*
G04 APERTURE END LIST*
G04 next file*
G04 #@! TF.GenerationSoftware,KiCad,Pcbnew,(5.1.12)-1*
G04 #@! TF.CreationDate,2022-03-26T22:19:29+08:00*
G04 #@! TF.ProjectId,Nozzle,4e6f7a7a-6c65-42e6-9b69-6361645f7063,0.5*
G04 #@! TF.SameCoordinates,Original*
G04 #@! TF.FileFunction,Legend,Top*
G04 #@! TF.FilePolarity,Positive*
G04 Gerber Fmt 4.6, Leading zero omitted, Abs format (unit mm)*
G04 Created by KiCad (PCBNEW (5.1.12)-1) date 2022-03-26 22:19:29*
G01*
G04 APERTURE LIST*
G04 APERTURE END LIST*
G04 next file*
G04 #@! TF.GenerationSoftware,KiCad,Pcbnew,(5.1.12)-1*
G04 #@! TF.CreationDate,2022-03-26T22:19:29+08:00*
G04 #@! TF.ProjectId,Nozzle,4e6f7a7a-6c65-42e6-9b69-6361645f7063,0.5*
G04 #@! TF.SameCoordinates,Original*
G04 #@! TF.FileFunction,Legend,Top*
G04 #@! TF.FilePolarity,Positive*
G04 Gerber Fmt 4.6, Leading zero omitted, Abs format (unit mm)*
G04 Created by KiCad (PCBNEW (5.1.12)-1) date 2022-03-26 22:19:29*
G01*
G04 APERTURE LIST*
G04 APERTURE END LIST*
G04 next file*
G04 #@! TF.GenerationSoftware,KiCad,Pcbnew,(5.1.12)-1*
G04 #@! TF.CreationDate,2022-03-26T22:12:19+08:00*
G04 #@! TF.ProjectId,Nozzle,4e6f7a7a-6c65-42e6-9b69-6361645f7063,0.5*
G04 #@! TF.SameCoordinates,Original*
G04 #@! TF.FileFunction,Legend,Top*
G04 #@! TF.FilePolarity,Positive*
G04 Gerber Fmt 4.6, Leading zero omitted, Abs format (unit mm)*
G04 Created by KiCad (PCBNEW (5.1.12)-1) date 2022-03-26 22:12:19*
G01*
G04 APERTURE LIST*
G04 APERTURE END LIST*
D10*
X0001348281Y0000900859D02*
X0001348281Y0000940229D01*
X0001361404Y0000912108D01*
X0001374528Y0000940229D01*
X0001374528Y0000900859D01*
X0001391401Y0000936480D02*
X0001393275Y0000938354D01*
X0001397025Y0000940229D01*
X0001406399Y0000940229D01*
X0001410148Y0000938354D01*
X0001412023Y0000936480D01*
X0001413898Y0000932730D01*
X0001413898Y0000928980D01*
X0001412023Y0000923356D01*
X0001389526Y0000900859D01*
X0001413898Y0000900859D01*
X0001327659Y0000856521D02*
X0001333283Y0000854646D01*
X0001335158Y0000852771D01*
X0001337032Y0000849022D01*
X0001337032Y0000843397D01*
X0001335158Y0000839648D01*
X0001333283Y0000837773D01*
X0001329533Y0000835898D01*
X0001314535Y0000835898D01*
X0001314535Y0000875268D01*
X0001327659Y0000875268D01*
X0001331408Y0000873394D01*
X0001333283Y0000871519D01*
X0001335158Y0000867769D01*
X0001335158Y0000864020D01*
X0001333283Y0000860270D01*
X0001331408Y0000858396D01*
X0001327659Y0000856521D01*
X0001314535Y0000856521D01*
X0001359530Y0000835898D02*
X0001355780Y0000837773D01*
X0001353905Y0000839648D01*
X0001352031Y0000843397D01*
X0001352031Y0000854646D01*
X0001353905Y0000858396D01*
X0001355780Y0000860270D01*
X0001359530Y0000862145D01*
X0001365154Y0000862145D01*
X0001368903Y0000860270D01*
X0001370778Y0000858396D01*
X0001372653Y0000854646D01*
X0001372653Y0000843397D01*
X0001370778Y0000839648D01*
X0001368903Y0000837773D01*
X0001365154Y0000835898D01*
X0001359530Y0000835898D01*
X0001395150Y0000835898D02*
X0001391401Y0000837773D01*
X0001389526Y0000841523D01*
X0001389526Y0000875268D01*
X0001404524Y0000862145D02*
X0001419522Y0000862145D01*
X0001410148Y0000875268D02*
X0001410148Y0000841523D01*
X0001412023Y0000837773D01*
X0001415773Y0000835898D01*
X0001419522Y0000835898D01*
X0001430771Y0000837773D02*
X0001434520Y0000835898D01*
X0001442019Y0000835898D01*
X0001445769Y0000837773D01*
X0001447644Y0000841523D01*
X0001447644Y0000843397D01*
X0001445769Y0000847147D01*
X0001442019Y0000849022D01*
X0001436395Y0000849022D01*
X0001432645Y0000850897D01*
X0001430771Y0000854646D01*
X0001430771Y0000856521D01*
X0001432645Y0000860270D01*
X0001436395Y0000862145D01*
X0001442019Y0000862145D01*
X0001445769Y0000860270D01*
X0000500786Y0000761379D02*
X0000500786Y0000800749D01*
X0000519533Y0000761379D02*
X0000519533Y0000800749D01*
X0000542031Y0000761379D01*
X0000542031Y0000800749D01*
X0000579526Y0000761379D02*
X0000560778Y0000761379D01*
X0000560778Y0000800749D01*
X0000592649Y0000782001D02*
X0000605773Y0000782001D01*
X0000611397Y0000761379D02*
X0000592649Y0000761379D01*
X0000592649Y0000800749D01*
X0000611397Y0000800749D01*
X0000622645Y0000800749D02*
X0000645143Y0000800749D01*
X0000633894Y0000761379D02*
X0000633894Y0000800749D01*
X0001321038Y0000225749D02*
X0001328537Y0000225749D01*
X0001332287Y0000223874D01*
X0001336036Y0000220124D01*
X0001337911Y0000212625D01*
X0001337911Y0000199502D01*
X0001336036Y0000192003D01*
X0001332287Y0000188253D01*
X0001328537Y0000186379D01*
X0001321038Y0000186379D01*
X0001317289Y0000188253D01*
X0001313539Y0000192003D01*
X0001311664Y0000199502D01*
X0001311664Y0000212625D01*
X0001313539Y0000220124D01*
X0001317289Y0000223874D01*
X0001321038Y0000225749D01*
X0001354784Y0000225749D02*
X0001354784Y0000193878D01*
X0001356659Y0000190128D01*
X0001358533Y0000188253D01*
X0001362283Y0000186379D01*
X0001369782Y0000186379D01*
X0001373532Y0000188253D01*
X0001375406Y0000190128D01*
X0001377281Y0000193878D01*
X0001377281Y0000225749D01*
X0001390404Y0000225749D02*
X0001412902Y0000225749D01*
X0001401653Y0000186379D02*
X0001401653Y0000225749D01*
X0001444773Y0000186379D02*
X0001426025Y0000186379D01*
X0001426025Y0000225749D01*
X0001457896Y0000207001D02*
X0001471019Y0000207001D01*
X0001476644Y0000186379D02*
X0001457896Y0000186379D01*
X0001457896Y0000225749D01*
X0001476644Y0000225749D01*
X0001487892Y0000225749D02*
X0001510389Y0000225749D01*
X0001499141Y0000186379D02*
X0001499141Y0000225749D01*
X0000812112Y0000576709D02*
X0000819611Y0000576709D01*
X0000823361Y0000574835D01*
X0000827110Y0000571085D01*
X0000828985Y0000563586D01*
X0000828985Y0000550463D01*
X0000827110Y0000542964D01*
X0000823361Y0000539214D01*
X0000819611Y0000537339D01*
X0000812112Y0000537339D01*
X0000808362Y0000539214D01*
X0000804613Y0000542964D01*
X0000802738Y0000550463D01*
X0000802738Y0000563586D01*
X0000804613Y0000571085D01*
X0000808362Y0000574835D01*
X0000812112Y0000576709D01*
X0000845858Y0000563586D02*
X0000845858Y0000524216D01*
X0000845858Y0000561711D02*
X0000849607Y0000563586D01*
X0000857106Y0000563586D01*
X0000860856Y0000561711D01*
X0000862731Y0000559837D01*
X0000864605Y0000556087D01*
X0000864605Y0000544838D01*
X0000862731Y0000541089D01*
X0000860856Y0000539214D01*
X0000857106Y0000537339D01*
X0000849607Y0000537339D01*
X0000845858Y0000539214D01*
X0000896476Y0000539214D02*
X0000892727Y0000537339D01*
X0000885228Y0000537339D01*
X0000881478Y0000539214D01*
X0000879603Y0000542964D01*
X0000879603Y0000557962D01*
X0000881478Y0000561711D01*
X0000885228Y0000563586D01*
X0000892727Y0000563586D01*
X0000896476Y0000561711D01*
X0000898351Y0000557962D01*
X0000898351Y0000554212D01*
X0000879603Y0000550463D01*
X0000915224Y0000563586D02*
X0000915224Y0000537339D01*
X0000915224Y0000559837D02*
X0000917099Y0000561711D01*
X0000920848Y0000563586D01*
X0000926473Y0000563586D01*
X0000930222Y0000561711D01*
X0000932097Y0000557962D01*
X0000932097Y0000537339D01*
X0000980841Y0000537339D02*
X0000980841Y0000576709D01*
X0000995839Y0000576709D01*
X0000999588Y0000574835D01*
X0001001463Y0000572960D01*
X0001003338Y0000569210D01*
X0001003338Y0000563586D01*
X0001001463Y0000559837D01*
X0000999588Y0000557962D01*
X0000995839Y0000556087D01*
X0000980841Y0000556087D01*
X0001016461Y0000563586D02*
X0001025835Y0000537339D01*
X0001035209Y0000563586D02*
X0001025835Y0000537339D01*
X0001022086Y0000527965D01*
X0001020211Y0000526091D01*
X0001016461Y0000524216D01*
X0001050207Y0000537339D02*
X0001050207Y0000563586D01*
X0001050207Y0000556087D02*
X0001052082Y0000559837D01*
X0001053957Y0000561711D01*
X0001057706Y0000563586D01*
X0001061456Y0000563586D01*
X0001080203Y0000537339D02*
X0001076454Y0000539214D01*
X0001074579Y0000541089D01*
X0001072704Y0000544838D01*
X0001072704Y0000556087D01*
X0001074579Y0000559837D01*
X0001076454Y0000561711D01*
X0001080203Y0000563586D01*
X0001085828Y0000563586D01*
X0001089577Y0000561711D01*
X0001091452Y0000559837D01*
X0001093327Y0000556087D01*
X0001093327Y0000544838D01*
X0001091452Y0000541089D01*
X0001089577Y0000539214D01*
X0001085828Y0000537339D01*
X0001080203Y0000537339D01*
X0001121448Y0000576709D02*
X0001121448Y0000548588D01*
X0001119573Y0000542964D01*
X0001115824Y0000539214D01*
X0001110200Y0000537339D01*
X0001106450Y0000537339D01*
X0001155194Y0000539214D02*
X0001151445Y0000537339D01*
X0001143945Y0000537339D01*
X0001140196Y0000539214D01*
X0001138321Y0000542964D01*
X0001138321Y0000557962D01*
X0001140196Y0000561711D01*
X0001143945Y0000563586D01*
X0001151445Y0000563586D01*
X0001155194Y0000561711D01*
X0001157069Y0000557962D01*
X0001157069Y0000554212D01*
X0001138321Y0000550463D01*
X0001168317Y0000563586D02*
X0001183316Y0000563586D01*
X0001173942Y0000576709D02*
X0001173942Y0000542964D01*
X0001175816Y0000539214D01*
X0001179566Y0000537339D01*
X0001183316Y0000537339D01*
X0000857106Y0000472379D02*
X0000857106Y0000511749D01*
X0000872104Y0000511749D01*
X0000875854Y0000509874D01*
X0000877729Y0000507999D01*
X0000879603Y0000504250D01*
X0000879603Y0000498625D01*
X0000877729Y0000494876D01*
X0000875854Y0000493001D01*
X0000872104Y0000491126D01*
X0000857106Y0000491126D01*
X0000896476Y0000472379D02*
X0000896476Y0000498625D01*
X0000896476Y0000491126D02*
X0000898351Y0000494876D01*
X0000900226Y0000496751D01*
X0000903975Y0000498625D01*
X0000907725Y0000498625D01*
X0000920848Y0000472379D02*
X0000920848Y0000498625D01*
X0000920848Y0000511749D02*
X0000918974Y0000509874D01*
X0000920848Y0000507999D01*
X0000922723Y0000509874D01*
X0000920848Y0000511749D01*
X0000920848Y0000507999D01*
X0000939596Y0000498625D02*
X0000939596Y0000472379D01*
X0000939596Y0000494876D02*
X0000941471Y0000496751D01*
X0000945220Y0000498625D01*
X0000950845Y0000498625D01*
X0000954594Y0000496751D01*
X0000956469Y0000493001D01*
X0000956469Y0000472379D01*
X0000969592Y0000498625D02*
X0000984590Y0000498625D01*
X0000975217Y0000511749D02*
X0000975217Y0000478003D01*
X0000977091Y0000474253D01*
X0000980841Y0000472379D01*
X0000984590Y0000472379D01*
X0000997714Y0000472379D02*
X0000997714Y0000511749D01*
X0000997714Y0000493001D02*
X0001020211Y0000493001D01*
X0001020211Y0000472379D02*
X0001020211Y0000511749D01*
X0001053957Y0000474253D02*
X0001050207Y0000472379D01*
X0001042708Y0000472379D01*
X0001038959Y0000474253D01*
X0001037084Y0000478003D01*
X0001037084Y0000493001D01*
X0001038959Y0000496751D01*
X0001042708Y0000498625D01*
X0001050207Y0000498625D01*
X0001053957Y0000496751D01*
X0001055831Y0000493001D01*
X0001055831Y0000489252D01*
X0001037084Y0000485502D01*
X0001089577Y0000472379D02*
X0001089577Y0000493001D01*
X0001087702Y0000496751D01*
X0001083953Y0000498625D01*
X0001076454Y0000498625D01*
X0001072704Y0000496751D01*
X0001089577Y0000474253D02*
X0001085828Y0000472379D01*
X0001076454Y0000472379D01*
X0001072704Y0000474253D01*
X0001070830Y0000478003D01*
X0001070830Y0000481753D01*
X0001072704Y0000485502D01*
X0001076454Y0000487377D01*
X0001085828Y0000487377D01*
X0001089577Y0000489252D01*
X0001125198Y0000472379D02*
X0001125198Y0000511749D01*
X0001125198Y0000474253D02*
X0001121448Y0000472379D01*
X0001113949Y0000472379D01*
X0001110200Y0000474253D01*
X0001108325Y0000476128D01*
X0001106450Y0000479878D01*
X0001106450Y0000491126D01*
X0001108325Y0000494876D01*
X0001110200Y0000496751D01*
X0001113949Y0000498625D01*
X0001121448Y0000498625D01*
X0001125198Y0000496751D01*
X0000919911Y0000444913D02*
X0000916161Y0000446788D01*
X0000910537Y0000446788D01*
X0000904913Y0000444913D01*
X0000901163Y0000441164D01*
X0000899289Y0000437414D01*
X0000897414Y0000429915D01*
X0000897414Y0000424291D01*
X0000899289Y0000416792D01*
X0000901163Y0000413042D01*
X0000904913Y0000409293D01*
X0000910537Y0000407418D01*
X0000914287Y0000407418D01*
X0000919911Y0000409293D01*
X0000921786Y0000411168D01*
X0000921786Y0000424291D01*
X0000914287Y0000424291D01*
X0000953657Y0000409293D02*
X0000949907Y0000407418D01*
X0000942408Y0000407418D01*
X0000938659Y0000409293D01*
X0000936784Y0000413042D01*
X0000936784Y0000428040D01*
X0000938659Y0000431790D01*
X0000942408Y0000433665D01*
X0000949907Y0000433665D01*
X0000953657Y0000431790D01*
X0000955532Y0000428040D01*
X0000955532Y0000424291D01*
X0000936784Y0000420541D01*
X0000972404Y0000433665D02*
X0000972404Y0000407418D01*
X0000972404Y0000429915D02*
X0000974279Y0000431790D01*
X0000978029Y0000433665D01*
X0000983653Y0000433665D01*
X0000987402Y0000431790D01*
X0000989277Y0000428040D01*
X0000989277Y0000407418D01*
X0001004275Y0000446788D02*
X0001028647Y0000446788D01*
X0001015524Y0000431790D01*
X0001021148Y0000431790D01*
X0001024898Y0000429915D01*
X0001026773Y0000428040D01*
X0001028647Y0000424291D01*
X0001028647Y0000414917D01*
X0001026773Y0000411168D01*
X0001024898Y0000409293D01*
X0001021148Y0000407418D01*
X0001009900Y0000407418D01*
X0001006150Y0000409293D01*
X0001004275Y0000411168D01*
X0001045520Y0000411168D02*
X0001047395Y0000409293D01*
X0001045520Y0000407418D01*
X0001043645Y0000409293D01*
X0001045520Y0000411168D01*
X0001045520Y0000407418D01*
X0001084890Y0000407418D02*
X0001062393Y0000407418D01*
X0001073642Y0000407418D02*
X0001073642Y0000446788D01*
X0001069892Y0000441164D01*
X0001066143Y0000437414D01*
X0001062393Y0000435540D01*
G04 next file*
G04 #@! TF.GenerationSoftware,KiCad,Pcbnew,(5.1.12)-1*
G04 #@! TF.CreationDate,2022-03-26T22:12:19+08:00*
G04 #@! TF.ProjectId,Nozzle,4e6f7a7a-6c65-42e6-9b69-6361645f7063,0.5*
G04 #@! TF.SameCoordinates,Original*
G04 #@! TF.FileFunction,Legend,Top*
G04 #@! TF.FilePolarity,Positive*
G04 Gerber Fmt 4.6, Leading zero omitted, Abs format (unit mm)*
G04 Created by KiCad (PCBNEW (5.1.12)-1) date 2022-03-26 22:12:19*
G01*
G04 APERTURE LIST*
G04 APERTURE END LIST*
D11*
X0001348281Y0001967789D02*
X0001348281Y0002007159D01*
X0001361404Y0001979038D01*
X0001374528Y0002007159D01*
X0001374528Y0001967789D01*
X0001391401Y0002003410D02*
X0001393275Y0002005284D01*
X0001397025Y0002007159D01*
X0001406399Y0002007159D01*
X0001410148Y0002005284D01*
X0001412023Y0002003410D01*
X0001413898Y0001999660D01*
X0001413898Y0001995910D01*
X0001412023Y0001990286D01*
X0001389526Y0001967789D01*
X0001413898Y0001967789D01*
X0001327659Y0001923451D02*
X0001333283Y0001921576D01*
X0001335158Y0001919701D01*
X0001337032Y0001915952D01*
X0001337032Y0001910327D01*
X0001335158Y0001906578D01*
X0001333283Y0001904703D01*
X0001329533Y0001902828D01*
X0001314535Y0001902828D01*
X0001314535Y0001942198D01*
X0001327659Y0001942198D01*
X0001331408Y0001940324D01*
X0001333283Y0001938449D01*
X0001335158Y0001934699D01*
X0001335158Y0001930950D01*
X0001333283Y0001927200D01*
X0001331408Y0001925326D01*
X0001327659Y0001923451D01*
X0001314535Y0001923451D01*
X0001359530Y0001902828D02*
X0001355780Y0001904703D01*
X0001353905Y0001906578D01*
X0001352031Y0001910327D01*
X0001352031Y0001921576D01*
X0001353905Y0001925326D01*
X0001355780Y0001927200D01*
X0001359530Y0001929075D01*
X0001365154Y0001929075D01*
X0001368903Y0001927200D01*
X0001370778Y0001925326D01*
X0001372653Y0001921576D01*
X0001372653Y0001910327D01*
X0001370778Y0001906578D01*
X0001368903Y0001904703D01*
X0001365154Y0001902828D01*
X0001359530Y0001902828D01*
X0001395150Y0001902828D02*
X0001391401Y0001904703D01*
X0001389526Y0001908453D01*
X0001389526Y0001942198D01*
X0001404524Y0001929075D02*
X0001419522Y0001929075D01*
X0001410148Y0001942198D02*
X0001410148Y0001908453D01*
X0001412023Y0001904703D01*
X0001415773Y0001902828D01*
X0001419522Y0001902828D01*
X0001430771Y0001904703D02*
X0001434520Y0001902828D01*
X0001442019Y0001902828D01*
X0001445769Y0001904703D01*
X0001447644Y0001908453D01*
X0001447644Y0001910327D01*
X0001445769Y0001914077D01*
X0001442019Y0001915952D01*
X0001436395Y0001915952D01*
X0001432645Y0001917827D01*
X0001430771Y0001921576D01*
X0001430771Y0001923451D01*
X0001432645Y0001927200D01*
X0001436395Y0001929075D01*
X0001442019Y0001929075D01*
X0001445769Y0001927200D01*
X0000500786Y0001828309D02*
X0000500786Y0001867679D01*
X0000519533Y0001828309D02*
X0000519533Y0001867679D01*
X0000542031Y0001828309D01*
X0000542031Y0001867679D01*
X0000579526Y0001828309D02*
X0000560778Y0001828309D01*
X0000560778Y0001867679D01*
X0000592649Y0001848931D02*
X0000605773Y0001848931D01*
X0000611397Y0001828309D02*
X0000592649Y0001828309D01*
X0000592649Y0001867679D01*
X0000611397Y0001867679D01*
X0000622645Y0001867679D02*
X0000645143Y0001867679D01*
X0000633894Y0001828309D02*
X0000633894Y0001867679D01*
X0001321038Y0001292679D02*
X0001328537Y0001292679D01*
X0001332287Y0001290804D01*
X0001336036Y0001287054D01*
X0001337911Y0001279555D01*
X0001337911Y0001266432D01*
X0001336036Y0001258933D01*
X0001332287Y0001255183D01*
X0001328537Y0001253309D01*
X0001321038Y0001253309D01*
X0001317289Y0001255183D01*
X0001313539Y0001258933D01*
X0001311664Y0001266432D01*
X0001311664Y0001279555D01*
X0001313539Y0001287054D01*
X0001317289Y0001290804D01*
X0001321038Y0001292679D01*
X0001354784Y0001292679D02*
X0001354784Y0001260808D01*
X0001356659Y0001257058D01*
X0001358533Y0001255183D01*
X0001362283Y0001253309D01*
X0001369782Y0001253309D01*
X0001373532Y0001255183D01*
X0001375406Y0001257058D01*
X0001377281Y0001260808D01*
X0001377281Y0001292679D01*
X0001390404Y0001292679D02*
X0001412902Y0001292679D01*
X0001401653Y0001253309D02*
X0001401653Y0001292679D01*
X0001444773Y0001253309D02*
X0001426025Y0001253309D01*
X0001426025Y0001292679D01*
X0001457896Y0001273931D02*
X0001471019Y0001273931D01*
X0001476644Y0001253309D02*
X0001457896Y0001253309D01*
X0001457896Y0001292679D01*
X0001476644Y0001292679D01*
X0001487892Y0001292679D02*
X0001510389Y0001292679D01*
X0001499141Y0001253309D02*
X0001499141Y0001292679D01*
X0000812112Y0001643639D02*
X0000819611Y0001643639D01*
X0000823361Y0001641765D01*
X0000827110Y0001638015D01*
X0000828985Y0001630516D01*
X0000828985Y0001617393D01*
X0000827110Y0001609894D01*
X0000823361Y0001606144D01*
X0000819611Y0001604269D01*
X0000812112Y0001604269D01*
X0000808362Y0001606144D01*
X0000804613Y0001609894D01*
X0000802738Y0001617393D01*
X0000802738Y0001630516D01*
X0000804613Y0001638015D01*
X0000808362Y0001641765D01*
X0000812112Y0001643639D01*
X0000845858Y0001630516D02*
X0000845858Y0001591146D01*
X0000845858Y0001628641D02*
X0000849607Y0001630516D01*
X0000857106Y0001630516D01*
X0000860856Y0001628641D01*
X0000862731Y0001626767D01*
X0000864605Y0001623017D01*
X0000864605Y0001611768D01*
X0000862731Y0001608019D01*
X0000860856Y0001606144D01*
X0000857106Y0001604269D01*
X0000849607Y0001604269D01*
X0000845858Y0001606144D01*
X0000896476Y0001606144D02*
X0000892727Y0001604269D01*
X0000885228Y0001604269D01*
X0000881478Y0001606144D01*
X0000879603Y0001609894D01*
X0000879603Y0001624892D01*
X0000881478Y0001628641D01*
X0000885228Y0001630516D01*
X0000892727Y0001630516D01*
X0000896476Y0001628641D01*
X0000898351Y0001624892D01*
X0000898351Y0001621142D01*
X0000879603Y0001617393D01*
X0000915224Y0001630516D02*
X0000915224Y0001604269D01*
X0000915224Y0001626767D02*
X0000917099Y0001628641D01*
X0000920848Y0001630516D01*
X0000926473Y0001630516D01*
X0000930222Y0001628641D01*
X0000932097Y0001624892D01*
X0000932097Y0001604269D01*
X0000980841Y0001604269D02*
X0000980841Y0001643639D01*
X0000995839Y0001643639D01*
X0000999588Y0001641765D01*
X0001001463Y0001639890D01*
X0001003338Y0001636140D01*
X0001003338Y0001630516D01*
X0001001463Y0001626767D01*
X0000999588Y0001624892D01*
X0000995839Y0001623017D01*
X0000980841Y0001623017D01*
X0001016461Y0001630516D02*
X0001025835Y0001604269D01*
X0001035209Y0001630516D02*
X0001025835Y0001604269D01*
X0001022086Y0001594895D01*
X0001020211Y0001593021D01*
X0001016461Y0001591146D01*
X0001050207Y0001604269D02*
X0001050207Y0001630516D01*
X0001050207Y0001623017D02*
X0001052082Y0001626767D01*
X0001053957Y0001628641D01*
X0001057706Y0001630516D01*
X0001061456Y0001630516D01*
X0001080203Y0001604269D02*
X0001076454Y0001606144D01*
X0001074579Y0001608019D01*
X0001072704Y0001611768D01*
X0001072704Y0001623017D01*
X0001074579Y0001626767D01*
X0001076454Y0001628641D01*
X0001080203Y0001630516D01*
X0001085828Y0001630516D01*
X0001089577Y0001628641D01*
X0001091452Y0001626767D01*
X0001093327Y0001623017D01*
X0001093327Y0001611768D01*
X0001091452Y0001608019D01*
X0001089577Y0001606144D01*
X0001085828Y0001604269D01*
X0001080203Y0001604269D01*
X0001121448Y0001643639D02*
X0001121448Y0001615518D01*
X0001119573Y0001609894D01*
X0001115824Y0001606144D01*
X0001110200Y0001604269D01*
X0001106450Y0001604269D01*
X0001155194Y0001606144D02*
X0001151445Y0001604269D01*
X0001143945Y0001604269D01*
X0001140196Y0001606144D01*
X0001138321Y0001609894D01*
X0001138321Y0001624892D01*
X0001140196Y0001628641D01*
X0001143945Y0001630516D01*
X0001151445Y0001630516D01*
X0001155194Y0001628641D01*
X0001157069Y0001624892D01*
X0001157069Y0001621142D01*
X0001138321Y0001617393D01*
X0001168317Y0001630516D02*
X0001183316Y0001630516D01*
X0001173942Y0001643639D02*
X0001173942Y0001609894D01*
X0001175816Y0001606144D01*
X0001179566Y0001604269D01*
X0001183316Y0001604269D01*
X0000857106Y0001539309D02*
X0000857106Y0001578679D01*
X0000872104Y0001578679D01*
X0000875854Y0001576804D01*
X0000877729Y0001574929D01*
X0000879603Y0001571180D01*
X0000879603Y0001565555D01*
X0000877729Y0001561806D01*
X0000875854Y0001559931D01*
X0000872104Y0001558056D01*
X0000857106Y0001558056D01*
X0000896476Y0001539309D02*
X0000896476Y0001565555D01*
X0000896476Y0001558056D02*
X0000898351Y0001561806D01*
X0000900226Y0001563681D01*
X0000903975Y0001565555D01*
X0000907725Y0001565555D01*
X0000920848Y0001539309D02*
X0000920848Y0001565555D01*
X0000920848Y0001578679D02*
X0000918974Y0001576804D01*
X0000920848Y0001574929D01*
X0000922723Y0001576804D01*
X0000920848Y0001578679D01*
X0000920848Y0001574929D01*
X0000939596Y0001565555D02*
X0000939596Y0001539309D01*
X0000939596Y0001561806D02*
X0000941471Y0001563681D01*
X0000945220Y0001565555D01*
X0000950845Y0001565555D01*
X0000954594Y0001563681D01*
X0000956469Y0001559931D01*
X0000956469Y0001539309D01*
X0000969592Y0001565555D02*
X0000984590Y0001565555D01*
X0000975217Y0001578679D02*
X0000975217Y0001544933D01*
X0000977091Y0001541183D01*
X0000980841Y0001539309D01*
X0000984590Y0001539309D01*
X0000997714Y0001539309D02*
X0000997714Y0001578679D01*
X0000997714Y0001559931D02*
X0001020211Y0001559931D01*
X0001020211Y0001539309D02*
X0001020211Y0001578679D01*
X0001053957Y0001541183D02*
X0001050207Y0001539309D01*
X0001042708Y0001539309D01*
X0001038959Y0001541183D01*
X0001037084Y0001544933D01*
X0001037084Y0001559931D01*
X0001038959Y0001563681D01*
X0001042708Y0001565555D01*
X0001050207Y0001565555D01*
X0001053957Y0001563681D01*
X0001055831Y0001559931D01*
X0001055831Y0001556182D01*
X0001037084Y0001552432D01*
X0001089577Y0001539309D02*
X0001089577Y0001559931D01*
X0001087702Y0001563681D01*
X0001083953Y0001565555D01*
X0001076454Y0001565555D01*
X0001072704Y0001563681D01*
X0001089577Y0001541183D02*
X0001085828Y0001539309D01*
X0001076454Y0001539309D01*
X0001072704Y0001541183D01*
X0001070830Y0001544933D01*
X0001070830Y0001548683D01*
X0001072704Y0001552432D01*
X0001076454Y0001554307D01*
X0001085828Y0001554307D01*
X0001089577Y0001556182D01*
X0001125198Y0001539309D02*
X0001125198Y0001578679D01*
X0001125198Y0001541183D02*
X0001121448Y0001539309D01*
X0001113949Y0001539309D01*
X0001110200Y0001541183D01*
X0001108325Y0001543058D01*
X0001106450Y0001546808D01*
X0001106450Y0001558056D01*
X0001108325Y0001561806D01*
X0001110200Y0001563681D01*
X0001113949Y0001565555D01*
X0001121448Y0001565555D01*
X0001125198Y0001563681D01*
X0000919911Y0001511843D02*
X0000916161Y0001513718D01*
X0000910537Y0001513718D01*
X0000904913Y0001511843D01*
X0000901163Y0001508094D01*
X0000899289Y0001504344D01*
X0000897414Y0001496845D01*
X0000897414Y0001491221D01*
X0000899289Y0001483722D01*
X0000901163Y0001479972D01*
X0000904913Y0001476223D01*
X0000910537Y0001474348D01*
X0000914287Y0001474348D01*
X0000919911Y0001476223D01*
X0000921786Y0001478098D01*
X0000921786Y0001491221D01*
X0000914287Y0001491221D01*
X0000953657Y0001476223D02*
X0000949907Y0001474348D01*
X0000942408Y0001474348D01*
X0000938659Y0001476223D01*
X0000936784Y0001479972D01*
X0000936784Y0001494970D01*
X0000938659Y0001498720D01*
X0000942408Y0001500595D01*
X0000949907Y0001500595D01*
X0000953657Y0001498720D01*
X0000955532Y0001494970D01*
X0000955532Y0001491221D01*
X0000936784Y0001487471D01*
X0000972404Y0001500595D02*
X0000972404Y0001474348D01*
X0000972404Y0001496845D02*
X0000974279Y0001498720D01*
X0000978029Y0001500595D01*
X0000983653Y0001500595D01*
X0000987402Y0001498720D01*
X0000989277Y0001494970D01*
X0000989277Y0001474348D01*
X0001004275Y0001513718D02*
X0001028647Y0001513718D01*
X0001015524Y0001498720D01*
X0001021148Y0001498720D01*
X0001024898Y0001496845D01*
X0001026773Y0001494970D01*
X0001028647Y0001491221D01*
X0001028647Y0001481847D01*
X0001026773Y0001478098D01*
X0001024898Y0001476223D01*
X0001021148Y0001474348D01*
X0001009900Y0001474348D01*
X0001006150Y0001476223D01*
X0001004275Y0001478098D01*
X0001045520Y0001478098D02*
X0001047395Y0001476223D01*
X0001045520Y0001474348D01*
X0001043645Y0001476223D01*
X0001045520Y0001478098D01*
X0001045520Y0001474348D01*
X0001084890Y0001474348D02*
X0001062393Y0001474348D01*
X0001073642Y0001474348D02*
X0001073642Y0001513718D01*
X0001069892Y0001508094D01*
X0001066143Y0001504344D01*
X0001062393Y0001502470D01*
G04 next file*
G04 #@! TF.GenerationSoftware,KiCad,Pcbnew,(5.1.12)-1*
G04 #@! TF.CreationDate,2022-03-26T22:13:32+08:00*
G04 #@! TF.ProjectId,Nozzle,4e6f7a7a-6c65-42e6-9b69-6361645f7063,0.5*
G04 #@! TF.SameCoordinates,Original*
G04 #@! TF.FileFunction,Legend,Top*
G04 #@! TF.FilePolarity,Positive*
G04 Gerber Fmt 4.6, Leading zero omitted, Abs format (unit mm)*
G04 Created by KiCad (PCBNEW (5.1.12)-1) date 2022-03-26 22:13:32*
G01*
G04 APERTURE LIST*
G04 APERTURE END LIST*
D12*
X0003210318Y0003179670D02*
X0003210318Y0003219040D01*
X0003232815Y0003179670D01*
X0003232815Y0003219040D01*
X0003247813Y0003219040D02*
X0003274060Y0003219040D01*
X0003257187Y0003179670D01*
X0003111318Y0003179670D02*
X0003111318Y0003219040D01*
X0003133815Y0003179670D01*
X0003133815Y0003219040D01*
X0003169436Y0003219040D02*
X0003161937Y0003219040D01*
X0003158187Y0003217165D01*
X0003156313Y0003215290D01*
X0003152563Y0003209666D01*
X0003150688Y0003202167D01*
X0003150688Y0003187169D01*
X0003152563Y0003183419D01*
X0003154438Y0003181544D01*
X0003158187Y0003179670D01*
X0003165686Y0003179670D01*
X0003169436Y0003181544D01*
X0003171311Y0003183419D01*
X0003173185Y0003187169D01*
X0003173185Y0003196542D01*
X0003171311Y0003200292D01*
X0003169436Y0003202167D01*
X0003165686Y0003204042D01*
X0003158187Y0003204042D01*
X0003154438Y0003202167D01*
X0003152563Y0003200292D01*
X0003150688Y0003196542D01*
X0003012318Y0003179670D02*
X0003012318Y0003219040D01*
X0003034815Y0003179670D01*
X0003034815Y0003219040D01*
X0003072311Y0003219040D02*
X0003053563Y0003219040D01*
X0003051688Y0003200292D01*
X0003053563Y0003202167D01*
X0003057313Y0003204042D01*
X0003066686Y0003204042D01*
X0003070436Y0003202167D01*
X0003072311Y0003200292D01*
X0003074185Y0003196542D01*
X0003074185Y0003187169D01*
X0003072311Y0003183419D01*
X0003070436Y0003181544D01*
X0003066686Y0003179670D01*
X0003057313Y0003179670D01*
X0003053563Y0003181544D01*
X0003051688Y0003183419D01*
X0002912318Y0003178670D02*
X0002912318Y0003218040D01*
X0002934815Y0003178670D01*
X0002934815Y0003218040D01*
X0002970436Y0003204916D02*
X0002970436Y0003178670D01*
X0002961062Y0003219914D02*
X0002951688Y0003191793D01*
X0002976060Y0003191793D01*
X0002812318Y0003179670D02*
X0002812318Y0003219040D01*
X0002834815Y0003179670D01*
X0002834815Y0003219040D01*
X0002849814Y0003219040D02*
X0002874185Y0003219040D01*
X0002861062Y0003204042D01*
X0002866686Y0003204042D01*
X0002870436Y0003202167D01*
X0002872311Y0003200292D01*
X0002874185Y0003196542D01*
X0002874185Y0003187169D01*
X0002872311Y0003183419D01*
X0002870436Y0003181544D01*
X0002866686Y0003179670D01*
X0002855438Y0003179670D01*
X0002851688Y0003181544D01*
X0002849814Y0003183419D01*
X0002714318Y0003179670D02*
X0002714318Y0003219040D01*
X0002736815Y0003179670D01*
X0002736815Y0003219040D01*
X0002753688Y0003215290D02*
X0002755563Y0003217165D01*
X0002759313Y0003219040D01*
X0002768686Y0003219040D01*
X0002772436Y0003217165D01*
X0002774311Y0003215290D01*
X0002776185Y0003211541D01*
X0002776185Y0003207791D01*
X0002774311Y0003202167D01*
X0002751814Y0003179670D01*
X0002776185Y0003179670D01*
X0002612318Y0003180670D02*
X0002612318Y0003220040D01*
X0002634815Y0003180670D01*
X0002634815Y0003220040D01*
X0002674185Y0003180670D02*
X0002651688Y0003180670D01*
X0002662937Y0003180670D02*
X0002662937Y0003220040D01*
X0002659187Y0003214415D01*
X0002655438Y0003210666D01*
X0002651688Y0003208791D01*
X0002511318Y0003180670D02*
X0002511318Y0003220040D01*
X0002533815Y0003180670D01*
X0002533815Y0003220040D01*
X0002560062Y0003220040D02*
X0002563812Y0003220040D01*
X0002567561Y0003218165D01*
X0002569436Y0003216290D01*
X0002571311Y0003212541D01*
X0002573185Y0003205042D01*
X0002573185Y0003195668D01*
X0002571311Y0003188169D01*
X0002569436Y0003184419D01*
X0002567561Y0003182544D01*
X0002563812Y0003180670D01*
X0002560062Y0003180670D01*
X0002556313Y0003182544D01*
X0002554438Y0003184419D01*
X0002552563Y0003188169D01*
X0002550688Y0003195668D01*
X0002550688Y0003205042D01*
X0002552563Y0003212541D01*
X0002554438Y0003216290D01*
X0002556313Y0003218165D01*
X0002560062Y0003220040D01*
X0003386443Y0003476670D02*
X0003386443Y0003516040D01*
X0003399567Y0003487918D01*
X0003412690Y0003516040D01*
X0003412690Y0003476670D01*
X0003429563Y0003512290D02*
X0003431438Y0003514165D01*
X0003435187Y0003516040D01*
X0003444561Y0003516040D01*
X0003448311Y0003514165D01*
X0003450185Y0003512290D01*
X0003452060Y0003508541D01*
X0003452060Y0003504791D01*
X0003450185Y0003499167D01*
X0003427688Y0003476670D01*
X0003452060Y0003476670D01*
D13*
X0002487952Y0003397480D02*
X0002487952Y0003449842D01*
X0002487952Y0003449842D02*
X0002540314Y0003449842D01*
X0002487952Y0003347480D02*
X0002590314Y0003347480D01*
X0002590314Y0003347480D02*
X0002590314Y0003449842D01*
X0002590314Y0003449842D02*
X0003292677Y0003449842D01*
X0003292677Y0003245118D02*
X0003292677Y0003449842D01*
X0002487952Y0003245118D02*
X0003292677Y0003245118D01*
X0002487952Y0003245118D02*
X0002487952Y0003347480D01*
D12*
X0002399191Y0003380040D02*
X0002399191Y0003351918D01*
X0002397316Y0003346294D01*
X0002393567Y0003342544D01*
X0002387942Y0003340670D01*
X0002384193Y0003340670D01*
X0002438561Y0003340670D02*
X0002416064Y0003340670D01*
X0002427313Y0003340670D02*
X0002427313Y0003380040D01*
X0002423563Y0003374415D01*
X0002419813Y0003370666D01*
X0002416064Y0003368791D01*
M02*