%MOIN*%
%OFA0B0*%
%FSLAX44Y44*%
%IPPOS*%
%LPD*%
%ADD10C,0*%
D10*
X00023504Y00013031D02*
X00023504Y00013031D01*
X00023381Y00013041D01*
X00023260Y00013070D01*
X00023146Y00013117D01*
X00023041Y00013181D01*
X00022947Y00013262D01*
X00022867Y00013356D01*
X00022802Y00013461D01*
X00022755Y00013575D01*
X00022726Y00013695D01*
X00022716Y00013818D01*
X00022716Y00017362D01*
X00022726Y00017485D01*
X00022755Y00017605D01*
X00022802Y00017719D01*
X00022867Y00017825D01*
X00022947Y00017918D01*
X00023041Y00017999D01*
X00023146Y00018063D01*
X00023260Y00018111D01*
X00023381Y00018139D01*
X00023504Y00018149D01*
X00032794Y00018149D01*
X00032917Y00018139D01*
X00033038Y00018111D01*
X00033152Y00018063D01*
X00033257Y00017999D01*
X00033351Y00017918D01*
X00033431Y00017825D01*
X00033496Y00017719D01*
X00033543Y00017605D01*
X00033572Y00017485D01*
X00033582Y00017362D01*
X00033582Y00013818D01*
X00033572Y00013695D01*
X00033543Y00013575D01*
X00033496Y00013461D01*
X00033431Y00013356D01*
X00033351Y00013262D01*
X00033257Y00013181D01*
X00033152Y00013117D01*
X00033038Y00013070D01*
X00032917Y00013041D01*
X00032794Y00013031D01*
X00023504Y00013031D01*
X00003149Y00023700D02*
X00003149Y00023700D01*
X00003026Y00023710D01*
X00002906Y00023739D01*
X00002792Y00023786D01*
X00002686Y00023851D01*
X00002592Y00023931D01*
X00002512Y00024025D01*
X00002448Y00024130D01*
X00002400Y00024244D01*
X00002371Y00024365D01*
X00002362Y00024488D01*
X00002362Y00028031D01*
X00002371Y00028154D01*
X00002400Y00028274D01*
X00002448Y00028388D01*
X00002512Y00028494D01*
X00002592Y00028588D01*
X00002686Y00028668D01*
X00002792Y00028733D01*
X00002906Y00028780D01*
X00003026Y00028809D01*
X00003149Y00028818D01*
X00012440Y00028818D01*
X00012563Y00028809D01*
X00012683Y00028780D01*
X00012797Y00028733D01*
X00012902Y00028668D01*
X00012996Y00028588D01*
X00013077Y00028494D01*
X00013141Y00028388D01*
X00013189Y00028274D01*
X00013217Y00028154D01*
X00013227Y00028031D01*
X00013227Y00024488D01*
X00013217Y00024365D01*
X00013189Y00024244D01*
X00013141Y00024130D01*
X00013077Y00024025D01*
X00012996Y00023931D01*
X00012902Y00023851D01*
X00012797Y00023786D01*
X00012683Y00023739D01*
X00012563Y00023710D01*
X00012440Y00023700D01*
X00003149Y00023700D01*
X00023504Y00002362D02*
X00023504Y00002362D01*
X00023381Y00002371D01*
X00023260Y00002400D01*
X00023146Y00002448D01*
X00023041Y00002512D01*
X00022947Y00002592D01*
X00022867Y00002686D01*
X00022802Y00002792D01*
X00022755Y00002906D01*
X00022726Y00003026D01*
X00022716Y00003149D01*
X00022716Y00006692D01*
X00022726Y00006816D01*
X00022755Y00006936D01*
X00022802Y00007050D01*
X00022867Y00007155D01*
X00022947Y00007249D01*
X00023041Y00007329D01*
X00023146Y00007394D01*
X00023260Y00007441D01*
X00023381Y00007470D01*
X00023504Y00007480D01*
X00032794Y00007480D01*
X00032917Y00007470D01*
X00033038Y00007441D01*
X00033152Y00007394D01*
X00033257Y00007329D01*
X00033351Y00007249D01*
X00033431Y00007155D01*
X00033496Y00007050D01*
X00033543Y00006936D01*
X00033572Y00006816D01*
X00033582Y00006692D01*
X00033582Y00003149D01*
X00033572Y00003026D01*
X00033543Y00002906D01*
X00033496Y00002792D01*
X00033431Y00002686D01*
X00033351Y00002592D01*
X00033257Y00002512D01*
X00033152Y00002448D01*
X00033038Y00002400D01*
X00032917Y00002371D01*
X00032794Y00002362D01*
X00023504Y00002362D01*
X00006995Y00032344D02*
X00006995Y00032344D01*
X00010327Y00032344D01*
X00010350Y00032343D01*
X00010374Y00032341D01*
X00010397Y00032337D01*
X00010420Y00032332D01*
X00010443Y00032326D01*
X00010465Y00032318D01*
X00010487Y00032309D01*
X00010509Y00032299D01*
X00010529Y00032287D01*
X00010549Y00032275D01*
X00010568Y00032261D01*
X00010586Y00032246D01*
X00010604Y00032229D01*
X00010620Y00032212D01*
X00010635Y00032194D01*
X00010649Y00032175D01*
X00010662Y00032155D01*
X00010674Y00032135D01*
X00010685Y00032114D01*
X00010694Y00032092D01*
X00010839Y00031716D01*
X00010851Y00031680D01*
X00010860Y00031643D01*
X00010864Y00031605D01*
X00010866Y00031567D01*
X00010863Y00031529D01*
X00010857Y00031491D01*
X00010847Y00031454D01*
X00010833Y00031419D01*
X00010817Y00031384D01*
X00010797Y00031352D01*
X00010774Y00031321D01*
X00010748Y00031293D01*
X00010719Y00031268D01*
X00010688Y00031245D01*
X00010655Y00031226D01*
X00010621Y00031210D01*
X00010585Y00031197D01*
X00010548Y00031188D01*
X00010510Y00031182D01*
X00010472Y00031181D01*
X00006850Y00031181D01*
X00006812Y00031182D01*
X00006774Y00031188D01*
X00006737Y00031197D01*
X00006701Y00031210D01*
X00006666Y00031226D01*
X00006633Y00031245D01*
X00006603Y00031268D01*
X00006574Y00031293D01*
X00006548Y00031321D01*
X00006525Y00031352D01*
X00006505Y00031384D01*
X00006488Y00031419D01*
X00006475Y00031454D01*
X00006465Y00031491D01*
X00006459Y00031529D01*
X00006456Y00031567D01*
X00006457Y00031605D01*
X00006462Y00031643D01*
X00006471Y00031680D01*
X00006483Y00031716D01*
X00006628Y00032092D01*
X00006637Y00032114D01*
X00006648Y00032135D01*
X00006659Y00032155D01*
X00006672Y00032175D01*
X00006687Y00032194D01*
X00006702Y00032212D01*
X00006718Y00032229D01*
X00006735Y00032246D01*
X00006754Y00032261D01*
X00006773Y00032275D01*
X00006793Y00032287D01*
X00006813Y00032299D01*
X00006834Y00032309D01*
X00006856Y00032318D01*
X00006879Y00032326D01*
X00006902Y00032332D01*
X00006925Y00032337D01*
X00006948Y00032341D01*
X00006972Y00032343D01*
X00006995Y00032344D01*
X00021364Y00025220D02*
X00021364Y00025220D01*
X00021364Y00022264D01*
X00021373Y00022141D01*
X00021402Y00022021D01*
X00021449Y00021907D01*
X00021514Y00021802D01*
X00021594Y00021708D01*
X00021688Y00021627D01*
X00021794Y00021563D01*
X00021908Y00021515D01*
X00022028Y00021487D01*
X00022151Y00021477D01*
X00023303Y00021477D01*
X00023327Y00021476D01*
X00023352Y00021474D01*
X00023376Y00021470D01*
X00023400Y00021465D01*
X00023423Y00021458D01*
X00023446Y00021450D01*
X00023468Y00021440D01*
X00023490Y00021430D01*
X00023511Y00021417D01*
X00023532Y00021404D01*
X00023551Y00021389D01*
X00023569Y00021373D01*
X00023587Y00021356D01*
X00023603Y00021338D01*
X00023618Y00021319D01*
X00023632Y00021299D01*
X00023645Y00021278D01*
X00023656Y00021256D01*
X00023667Y00021234D01*
X00023675Y00021211D01*
X00023737Y00021033D01*
X00023747Y00020997D01*
X00023754Y00020961D01*
X00023758Y00020923D01*
X00023758Y00020886D01*
X00023754Y00020849D01*
X00023747Y00020812D01*
X00023736Y00020776D01*
X00023722Y00020741D01*
X00023705Y00020708D01*
X00023685Y00020676D01*
X00023662Y00020647D01*
X00023636Y00020620D01*
X00023608Y00020595D01*
X00023577Y00020574D01*
X00023545Y00020555D01*
X00023511Y00020539D01*
X00023475Y00020527D01*
X00023439Y00020518D01*
X00023402Y00020513D01*
X00023364Y00020511D01*
X00021142Y00020511D01*
X00021018Y00020502D01*
X00020898Y00020473D01*
X00020784Y00020426D01*
X00020679Y00020361D01*
X00020585Y00020281D01*
X00020505Y00020187D01*
X00020440Y00020081D01*
X00020393Y00019967D01*
X00020364Y00019847D01*
X00020354Y00019724D01*
X00020354Y00016780D01*
X00020353Y00016749D01*
X00020349Y00016718D01*
X00020343Y00016688D01*
X00020335Y00016658D01*
X00020324Y00016629D01*
X00020311Y00016601D01*
X00020296Y00016574D01*
X00020279Y00016549D01*
X00020260Y00016524D01*
X00020239Y00016502D01*
X00020216Y00016481D01*
X00020192Y00016461D01*
X00020166Y00016444D01*
X00020139Y00016429D01*
X00020111Y00016416D01*
X00020082Y00016406D01*
X00020052Y00016397D01*
X00020022Y00016391D01*
X00019991Y00016387D01*
X00019960Y00016386D01*
X00019920Y00016386D01*
X00019889Y00016387D01*
X00019858Y00016391D01*
X00019828Y00016397D01*
X00019798Y00016406D01*
X00019769Y00016416D01*
X00019741Y00016429D01*
X00019714Y00016444D01*
X00019688Y00016461D01*
X00019664Y00016481D01*
X00019641Y00016502D01*
X00019620Y00016524D01*
X00019601Y00016548D01*
X00019584Y00016574D01*
X00019569Y00016601D01*
X00019556Y00016629D01*
X00019545Y00016658D01*
X00019537Y00016688D01*
X00019531Y00016718D01*
X00019527Y00016749D01*
X00019526Y00016780D01*
X00019525Y00019722D01*
X00019515Y00019846D01*
X00019487Y00019966D01*
X00019439Y00020080D01*
X00019374Y00020186D01*
X00019294Y00020280D01*
X00019200Y00020361D01*
X00019094Y00020425D01*
X00018980Y00020473D01*
X00018859Y00020502D01*
X00018736Y00020511D01*
X00012544Y00020511D01*
X00012529Y00020512D01*
X00012515Y00020512D01*
X00012501Y00020514D01*
X00012486Y00020515D01*
X00012472Y00020518D01*
X00012458Y00020521D01*
X00012444Y00020524D01*
X00012431Y00020528D01*
X00012417Y00020532D01*
X00012403Y00020537D01*
X00012390Y00020542D01*
X00012377Y00020548D01*
X00012364Y00020555D01*
X00012352Y00020561D01*
X00012339Y00020568D01*
X00012327Y00020576D01*
X00012315Y00020584D01*
X00012304Y00020593D01*
X00012293Y00020602D01*
X00012282Y00020611D01*
X00012238Y00020650D01*
X00012204Y00020684D01*
X00012175Y00020721D01*
X00012150Y00020762D01*
X00012131Y00020806D01*
X00012117Y00020851D01*
X00012108Y00020898D01*
X00012106Y00020945D01*
X00012109Y00020992D01*
X00012117Y00021039D01*
X00012131Y00021084D01*
X00012151Y00021128D01*
X00012176Y00021168D01*
X00012205Y00021206D01*
X00012238Y00021239D01*
X00012276Y00021269D01*
X00012317Y00021293D01*
X00012360Y00021313D01*
X00012405Y00021327D01*
X00012452Y00021335D01*
X00012499Y00021338D01*
X00014802Y00021338D01*
X00014925Y00021348D01*
X00015045Y00021377D01*
X00015159Y00021424D01*
X00015265Y00021488D01*
X00015359Y00021569D01*
X00015439Y00021663D01*
X00015503Y00021768D01*
X00015551Y00021882D01*
X00015580Y00022002D01*
X00015589Y00022125D01*
X00015589Y00025378D01*
X00015590Y00025409D01*
X00015594Y00025439D01*
X00015600Y00025470D01*
X00015609Y00025499D01*
X00015619Y00025528D01*
X00015632Y00025556D01*
X00015647Y00025583D01*
X00015664Y00025609D01*
X00015684Y00025633D01*
X00015705Y00025656D01*
X00015727Y00025677D01*
X00015752Y00025696D01*
X00015777Y00025713D01*
X00015804Y00025728D01*
X00015832Y00025741D01*
X00015861Y00025752D01*
X00015891Y00025760D01*
X00015921Y00025766D01*
X00015952Y00025770D01*
X00015983Y00025771D01*
X00016262Y00025771D01*
X00016293Y00025770D01*
X00016323Y00025766D01*
X00016354Y00025760D01*
X00016383Y00025752D01*
X00016412Y00025741D01*
X00016440Y00025728D01*
X00016467Y00025713D01*
X00016493Y00025696D01*
X00016517Y00025677D01*
X00016540Y00025656D01*
X00016561Y00025633D01*
X00016580Y00025609D01*
X00016597Y00025583D01*
X00016612Y00025556D01*
X00016625Y00025528D01*
X00016636Y00025499D01*
X00016645Y00025470D01*
X00016651Y00025439D01*
X00016654Y00025409D01*
X00016655Y00025378D01*
X00016655Y00021555D01*
X00020411Y00021555D01*
X00020411Y00025202D01*
X00020412Y00025231D01*
X00020416Y00025260D01*
X00020421Y00025288D01*
X00020428Y00025316D01*
X00020437Y00025343D01*
X00020449Y00025370D01*
X00020462Y00025395D01*
X00020477Y00025420D01*
X00020494Y00025443D01*
X00020512Y00025465D01*
X00020532Y00025486D01*
X00020554Y00025505D01*
X00020576Y00025523D01*
X00020600Y00025539D01*
X00020625Y00025553D01*
X00020652Y00025565D01*
X00020678Y00025575D01*
X00020706Y00025583D01*
X00020734Y00025590D01*
X00020763Y00025594D01*
X00020928Y00025612D01*
X00020961Y00025614D01*
X00020994Y00025613D01*
X00021026Y00025610D01*
X00021059Y00025604D01*
X00021091Y00025595D01*
X00021122Y00025583D01*
X00021152Y00025569D01*
X00021180Y00025553D01*
X00021207Y00025534D01*
X00021233Y00025513D01*
X00021257Y00025490D01*
X00021278Y00025465D01*
X00021298Y00025438D01*
X00021315Y00025410D01*
X00021330Y00025381D01*
X00021342Y00025350D01*
X00021351Y00025318D01*
X00021358Y00025286D01*
X00021362Y00025253D01*
X00021364Y00025220D01*
X00022916Y00010669D02*
X00022916Y00010669D01*
X00022954Y00010667D01*
X00022992Y00010661D01*
X00023029Y00010652D01*
X00023065Y00010640D01*
X00023099Y00010624D01*
X00023132Y00010605D01*
X00023162Y00010582D01*
X00023191Y00010557D01*
X00023217Y00010530D01*
X00023240Y00010500D01*
X00023260Y00010467D01*
X00023277Y00010433D01*
X00023290Y00010398D01*
X00023301Y00010361D01*
X00023307Y00010324D01*
X00023310Y00010286D01*
X00023309Y00010248D01*
X00023305Y00010210D01*
X00023297Y00010173D01*
X00023285Y00010137D01*
X00023270Y00010098D01*
X00023261Y00010076D01*
X00023251Y00010054D01*
X00023239Y00010033D01*
X00023227Y00010013D01*
X00023212Y00009994D01*
X00023197Y00009976D01*
X00023181Y00009958D01*
X00023164Y00009942D01*
X00023145Y00009926D01*
X00023126Y00009912D01*
X00023106Y00009899D01*
X00023085Y00009887D01*
X00023064Y00009877D01*
X00023042Y00009868D01*
X00023019Y00009860D01*
X00022996Y00009854D01*
X00022973Y00009849D01*
X00022949Y00009845D01*
X00022926Y00009843D01*
X00022902Y00009842D01*
X00021142Y00009842D01*
X00021018Y00009832D01*
X00020898Y00009803D01*
X00020784Y00009756D01*
X00020679Y00009692D01*
X00020585Y00009611D01*
X00020505Y00009517D01*
X00020440Y00009412D01*
X00020393Y00009298D01*
X00020364Y00009178D01*
X00020354Y00009055D01*
X00020354Y00006111D01*
X00020353Y00006080D01*
X00020349Y00006049D01*
X00020343Y00006019D01*
X00020335Y00005989D01*
X00020324Y00005960D01*
X00020311Y00005932D01*
X00020296Y00005905D01*
X00020279Y00005879D01*
X00020260Y00005855D01*
X00020239Y00005832D01*
X00020216Y00005811D01*
X00020192Y00005792D01*
X00020166Y00005775D01*
X00020139Y00005760D01*
X00020111Y00005747D01*
X00020082Y00005736D01*
X00020052Y00005728D01*
X00020022Y00005722D01*
X00019991Y00005718D01*
X00019960Y00005717D01*
X00019920Y00005717D01*
X00019889Y00005718D01*
X00019858Y00005722D01*
X00019828Y00005728D01*
X00019798Y00005736D01*
X00019769Y00005747D01*
X00019741Y00005760D01*
X00019714Y00005775D01*
X00019688Y00005792D01*
X00019664Y00005811D01*
X00019641Y00005832D01*
X00019620Y00005855D01*
X00019601Y00005879D01*
X00019584Y00005905D01*
X00019569Y00005932D01*
X00019556Y00005960D01*
X00019545Y00005989D01*
X00019537Y00006019D01*
X00019531Y00006049D01*
X00019527Y00006080D01*
X00019526Y00006111D01*
X00019525Y00009053D01*
X00019515Y00009176D01*
X00019487Y00009297D01*
X00019439Y00009411D01*
X00019374Y00009517D01*
X00019294Y00009611D01*
X00019200Y00009691D01*
X00019094Y00009756D01*
X00018980Y00009803D01*
X00018859Y00009832D01*
X00018736Y00009842D01*
X00015286Y00009842D01*
X00015262Y00009843D01*
X00015239Y00009845D01*
X00015215Y00009849D01*
X00015192Y00009854D01*
X00015169Y00009860D01*
X00015146Y00009868D01*
X00015124Y00009877D01*
X00015103Y00009887D01*
X00015082Y00009899D01*
X00015062Y00009912D01*
X00015043Y00009926D01*
X00015024Y00009942D01*
X00015007Y00009958D01*
X00014991Y00009976D01*
X00014976Y00009994D01*
X00014961Y00010013D01*
X00014949Y00010033D01*
X00014937Y00010054D01*
X00014927Y00010076D01*
X00014918Y00010098D01*
X00014903Y00010137D01*
X00014891Y00010173D01*
X00014883Y00010210D01*
X00014879Y00010248D01*
X00014878Y00010286D01*
X00014881Y00010324D01*
X00014887Y00010361D01*
X00014898Y00010398D01*
X00014911Y00010433D01*
X00014928Y00010467D01*
X00014948Y00010500D01*
X00014971Y00010530D01*
X00014997Y00010557D01*
X00015026Y00010582D01*
X00015056Y00010605D01*
X00015089Y00010624D01*
X00015123Y00010640D01*
X00015159Y00010652D01*
X00015196Y00010662D01*
X00015234Y00010667D01*
X00015272Y00010669D01*
X00018741Y00010669D01*
X00018864Y00010679D01*
X00018984Y00010709D01*
X00019098Y00010756D01*
X00019204Y00010821D01*
X00019297Y00010902D01*
X00019377Y00010996D01*
X00019442Y00011102D01*
X00019489Y00011216D01*
X00019518Y00011336D01*
X00019527Y00011459D01*
X00019527Y00014400D01*
X00019528Y00014431D01*
X00019531Y00014462D01*
X00019537Y00014492D01*
X00019546Y00014522D01*
X00019557Y00014551D01*
X00019569Y00014579D01*
X00019585Y00014606D01*
X00019602Y00014632D01*
X00019621Y00014656D01*
X00019642Y00014678D01*
X00019665Y00014699D01*
X00019689Y00014719D01*
X00019715Y00014736D01*
X00019742Y00014751D01*
X00019770Y00014764D01*
X00019799Y00014775D01*
X00019828Y00014783D01*
X00019859Y00014789D01*
X00019889Y00014793D01*
X00019920Y00014794D01*
X00019960Y00014794D01*
X00019991Y00014793D01*
X00020022Y00014789D01*
X00020052Y00014783D01*
X00020082Y00014775D01*
X00020111Y00014764D01*
X00020139Y00014751D01*
X00020166Y00014736D01*
X00020192Y00014719D01*
X00020216Y00014700D01*
X00020239Y00014679D01*
X00020260Y00014656D01*
X00020279Y00014632D01*
X00020296Y00014606D01*
X00020311Y00014579D01*
X00020324Y00014551D01*
X00020335Y00014522D01*
X00020343Y00014492D01*
X00020349Y00014462D01*
X00020353Y00014431D01*
X00020354Y00014400D01*
X00020354Y00011456D01*
X00020364Y00011333D01*
X00020393Y00011213D01*
X00020440Y00011099D01*
X00020505Y00010993D01*
X00020585Y00010899D01*
X00020679Y00010819D01*
X00020784Y00010755D01*
X00020898Y00010707D01*
X00021018Y00010678D01*
X00021142Y00010669D01*
X00022916Y00010669D01*
X00025454Y00020511D02*
X00025454Y00020511D01*
X00025416Y00020513D01*
X00025379Y00020518D01*
X00025343Y00020527D01*
X00025307Y00020539D01*
X00025273Y00020555D01*
X00025241Y00020574D01*
X00025210Y00020595D01*
X00025182Y00020620D01*
X00025156Y00020647D01*
X00025133Y00020676D01*
X00025113Y00020708D01*
X00025096Y00020741D01*
X00025082Y00020776D01*
X00025071Y00020812D01*
X00025064Y00020849D01*
X00025060Y00020886D01*
X00025060Y00020923D01*
X00025064Y00020961D01*
X00025071Y00020997D01*
X00025081Y00021033D01*
X00025143Y00021211D01*
X00025151Y00021234D01*
X00025161Y00021256D01*
X00025173Y00021278D01*
X00025186Y00021299D01*
X00025200Y00021319D01*
X00025215Y00021338D01*
X00025231Y00021356D01*
X00025248Y00021373D01*
X00025267Y00021389D01*
X00025286Y00021404D01*
X00025307Y00021417D01*
X00025328Y00021430D01*
X00025350Y00021440D01*
X00025372Y00021450D01*
X00025395Y00021458D01*
X00025418Y00021465D01*
X00025442Y00021470D01*
X00025466Y00021474D01*
X00025491Y00021476D01*
X00025515Y00021477D01*
X00031122Y00021477D01*
X00031134Y00021477D01*
X00031147Y00021476D01*
X00031159Y00021475D01*
X00031171Y00021474D01*
X00031183Y00021472D01*
X00031196Y00021470D01*
X00031208Y00021468D01*
X00031220Y00021465D01*
X00031231Y00021461D01*
X00031243Y00021458D01*
X00031255Y00021454D01*
X00031266Y00021450D01*
X00031278Y00021445D01*
X00031289Y00021440D01*
X00031300Y00021434D01*
X00031311Y00021429D01*
X00031322Y00021423D01*
X00031332Y00021416D01*
X00031342Y00021409D01*
X00031353Y00021402D01*
X00031599Y00021224D01*
X00031638Y00021193D01*
X00031672Y00021157D01*
X00031701Y00021117D01*
X00031725Y00021074D01*
X00031743Y00021028D01*
X00031755Y00020980D01*
X00031762Y00020931D01*
X00031762Y00020881D01*
X00031756Y00020832D01*
X00031744Y00020784D01*
X00031725Y00020738D01*
X00031702Y00020694D01*
X00031673Y00020654D01*
X00031639Y00020618D01*
X00031601Y00020587D01*
X00031559Y00020560D01*
X00031514Y00020539D01*
X00031467Y00020524D01*
X00031418Y00020514D01*
X00031369Y00020511D01*
X00025454Y00020511D01*
X00031494Y00010669D02*
X00031494Y00010669D01*
X00031531Y00010667D01*
X00031568Y00010662D01*
X00031605Y00010653D01*
X00031640Y00010641D01*
X00031674Y00010625D01*
X00031707Y00010606D01*
X00031737Y00010584D01*
X00031765Y00010560D01*
X00031791Y00010533D01*
X00031814Y00010503D01*
X00031835Y00010472D01*
X00031852Y00010438D01*
X00031866Y00010404D01*
X00031876Y00010368D01*
X00031883Y00010331D01*
X00031887Y00010293D01*
X00031887Y00010256D01*
X00031883Y00010219D01*
X00031876Y00010182D01*
X00031865Y00010146D01*
X00031852Y00010106D01*
X00031843Y00010084D01*
X00031833Y00010062D01*
X00031822Y00010040D01*
X00031809Y00010019D01*
X00031795Y00009999D01*
X00031780Y00009980D01*
X00031763Y00009962D01*
X00031746Y00009945D01*
X00031727Y00009930D01*
X00031708Y00009915D01*
X00031688Y00009901D01*
X00031667Y00009889D01*
X00031645Y00009878D01*
X00031623Y00009869D01*
X00031600Y00009861D01*
X00031576Y00009854D01*
X00031553Y00009849D01*
X00031528Y00009845D01*
X00031504Y00009843D01*
X00031480Y00009842D01*
X00025129Y00009842D01*
X00025105Y00009843D01*
X00025081Y00009845D01*
X00025058Y00009849D01*
X00025034Y00009854D01*
X00025011Y00009860D01*
X00024989Y00009868D01*
X00024967Y00009877D01*
X00024945Y00009887D01*
X00024924Y00009899D01*
X00024904Y00009912D01*
X00024885Y00009926D01*
X00024867Y00009942D01*
X00024850Y00009958D01*
X00024833Y00009976D01*
X00024818Y00009994D01*
X00024804Y00010013D01*
X00024791Y00010033D01*
X00024779Y00010054D01*
X00024769Y00010076D01*
X00024760Y00010098D01*
X00024745Y00010137D01*
X00024734Y00010173D01*
X00024726Y00010210D01*
X00024721Y00010248D01*
X00024721Y00010286D01*
X00024723Y00010324D01*
X00024730Y00010361D01*
X00024740Y00010398D01*
X00024754Y00010433D01*
X00024771Y00010467D01*
X00024791Y00010500D01*
X00024814Y00010530D01*
X00024840Y00010557D01*
X00024868Y00010582D01*
X00024899Y00010605D01*
X00024932Y00010624D01*
X00024966Y00010640D01*
X00025002Y00010652D01*
X00025039Y00010661D01*
X00025076Y00010667D01*
X00025114Y00010669D01*
X00031494Y00010669D01*
X00005146Y00020511D02*
X00005146Y00020511D01*
X00005130Y00020512D01*
X00005115Y00020512D01*
X00005100Y00020514D01*
X00005086Y00020516D01*
X00005071Y00020518D01*
X00005056Y00020522D01*
X00005041Y00020525D01*
X00005027Y00020530D01*
X00005013Y00020534D01*
X00004999Y00020540D01*
X00004985Y00020546D01*
X00004971Y00020552D01*
X00004958Y00020559D01*
X00004945Y00020566D01*
X00004932Y00020574D01*
X00004920Y00020583D01*
X00004907Y00020591D01*
X00004896Y00020601D01*
X00004884Y00020611D01*
X00004873Y00020621D01*
X00004832Y00020660D01*
X00004800Y00020694D01*
X00004773Y00020732D01*
X00004750Y00020773D01*
X00004732Y00020816D01*
X00004720Y00020861D01*
X00004712Y00020908D01*
X00004711Y00020954D01*
X00004715Y00021001D01*
X00004724Y00021047D01*
X00004739Y00021091D01*
X00004759Y00021133D01*
X00004784Y00021173D01*
X00004813Y00021209D01*
X00004847Y00021242D01*
X00004884Y00021271D01*
X00004924Y00021294D01*
X00004967Y00021313D01*
X00005012Y00021327D01*
X00005058Y00021335D01*
X00005104Y00021338D01*
X00010334Y00021338D01*
X00010382Y00021335D01*
X00010428Y00021327D01*
X00010474Y00021313D01*
X00010517Y00021293D01*
X00010558Y00021269D01*
X00010595Y00021239D01*
X00010629Y00021206D01*
X00010658Y00021168D01*
X00010683Y00021128D01*
X00010702Y00021084D01*
X00010716Y00021039D01*
X00010725Y00020992D01*
X00010728Y00020945D01*
X00010725Y00020898D01*
X00010717Y00020851D01*
X00010703Y00020806D01*
X00010683Y00020762D01*
X00010659Y00020721D01*
X00010630Y00020684D01*
X00010596Y00020650D01*
X00010552Y00020611D01*
X00010541Y00020602D01*
X00010530Y00020593D01*
X00010518Y00020584D01*
X00010507Y00020576D01*
X00010494Y00020568D01*
X00010482Y00020561D01*
X00010469Y00020555D01*
X00010457Y00020548D01*
X00010443Y00020542D01*
X00010430Y00020537D01*
X00010417Y00020532D01*
X00010403Y00020528D01*
X00010389Y00020524D01*
X00010375Y00020521D01*
X00010361Y00020518D01*
X00010347Y00020515D01*
X00010333Y00020514D01*
X00010319Y00020512D01*
X00010304Y00020512D01*
X00010290Y00020511D01*
X00005146Y00020511D01*
X00005921Y00009842D02*
X00005921Y00009842D01*
X00005896Y00009843D01*
X00005872Y00009845D01*
X00005848Y00009849D01*
X00005824Y00009854D01*
X00005801Y00009861D01*
X00005778Y00009869D01*
X00005756Y00009878D01*
X00005734Y00009889D01*
X00005713Y00009901D01*
X00005693Y00009915D01*
X00005673Y00009930D01*
X00005655Y00009945D01*
X00005637Y00009962D01*
X00005621Y00009980D01*
X00005606Y00009999D01*
X00005592Y00010019D01*
X00005579Y00010040D01*
X00005568Y00010062D01*
X00005557Y00010084D01*
X00005549Y00010106D01*
X00005535Y00010146D01*
X00005524Y00010182D01*
X00005517Y00010219D01*
X00005514Y00010256D01*
X00005514Y00010293D01*
X00005517Y00010331D01*
X00005524Y00010368D01*
X00005535Y00010404D01*
X00005549Y00010438D01*
X00005566Y00010472D01*
X00005586Y00010503D01*
X00005609Y00010533D01*
X00005635Y00010560D01*
X00005663Y00010584D01*
X00005694Y00010606D01*
X00005726Y00010625D01*
X00005761Y00010641D01*
X00005796Y00010653D01*
X00005832Y00010662D01*
X00005870Y00010667D01*
X00005907Y00010669D01*
X00013074Y00010669D01*
X00013112Y00010667D01*
X00013149Y00010662D01*
X00013186Y00010652D01*
X00013222Y00010640D01*
X00013256Y00010624D01*
X00013289Y00010605D01*
X00013320Y00010582D01*
X00013348Y00010557D01*
X00013374Y00010530D01*
X00013397Y00010500D01*
X00013417Y00010467D01*
X00013434Y00010433D01*
X00013448Y00010398D01*
X00013458Y00010361D01*
X00013465Y00010324D01*
X00013467Y00010286D01*
X00013467Y00010248D01*
X00013462Y00010210D01*
X00013454Y00010173D01*
X00013443Y00010137D01*
X00013428Y00010098D01*
X00013419Y00010076D01*
X00013409Y00010054D01*
X00013397Y00010033D01*
X00013384Y00010013D01*
X00013370Y00009994D01*
X00013355Y00009976D01*
X00013338Y00009958D01*
X00013321Y00009942D01*
X00013303Y00009926D01*
X00013284Y00009912D01*
X00013264Y00009899D01*
X00013243Y00009887D01*
X00013221Y00009877D01*
X00013199Y00009868D01*
X00013177Y00009860D01*
X00013154Y00009854D01*
X00013130Y00009849D01*
X00013107Y00009845D01*
X00013083Y00009843D01*
X00013059Y00009842D01*
X00005921Y00009842D01*
X00003541Y00010669D02*
X00003541Y00010669D01*
X00003578Y00010667D01*
X00003615Y00010662D01*
X00003652Y00010653D01*
X00003687Y00010641D01*
X00003721Y00010625D01*
X00003754Y00010606D01*
X00003784Y00010584D01*
X00003813Y00010560D01*
X00003839Y00010533D01*
X00003862Y00010503D01*
X00003882Y00010472D01*
X00003899Y00010438D01*
X00003913Y00010404D01*
X00003924Y00010368D01*
X00003931Y00010331D01*
X00003934Y00010293D01*
X00003934Y00010256D01*
X00003930Y00010219D01*
X00003923Y00010182D01*
X00003913Y00010146D01*
X00003899Y00010106D01*
X00003890Y00010084D01*
X00003880Y00010062D01*
X00003869Y00010040D01*
X00003856Y00010019D01*
X00003842Y00009999D01*
X00003827Y00009980D01*
X00003811Y00009962D01*
X00003793Y00009945D01*
X00003775Y00009930D01*
X00003755Y00009915D01*
X00003735Y00009901D01*
X00003714Y00009889D01*
X00003692Y00009878D01*
X00003670Y00009869D01*
X00003647Y00009861D01*
X00003624Y00009854D01*
X00003600Y00009849D01*
X00003576Y00009845D01*
X00003551Y00009843D01*
X00003527Y00009842D01*
X00000787Y00009842D01*
X00000664Y00009832D01*
X00000544Y00009803D01*
X00000429Y00009756D01*
X00000324Y00009692D01*
X00000230Y00009611D01*
X00000150Y00009517D01*
X00000085Y00009412D01*
X00000038Y00009298D01*
X00000009Y00009178D01*
X00000000Y00009055D01*
X00000000Y00000787D01*
X00000009Y00000664D01*
X00000038Y00000544D01*
X00000085Y00000429D01*
X00000150Y00000324D01*
X00000230Y00000230D01*
X00000324Y00000150D01*
X00000429Y00000085D01*
X00000544Y00000038D01*
X00000664Y00000009D01*
X00000787Y00000000D01*
X00018741Y00000000D01*
X00018864Y00000010D01*
X00018984Y00000039D01*
X00019098Y00000087D01*
X00019204Y00000152D01*
X00019297Y00000233D01*
X00019377Y00000327D01*
X00019442Y00000432D01*
X00019489Y00000547D01*
X00019518Y00000667D01*
X00019527Y00000790D01*
X00019527Y00003731D01*
X00019528Y00003762D01*
X00019531Y00003792D01*
X00019537Y00003823D01*
X00019546Y00003852D01*
X00019557Y00003881D01*
X00019569Y00003910D01*
X00019585Y00003936D01*
X00019602Y00003962D01*
X00019621Y00003986D01*
X00019642Y00004009D01*
X00019665Y00004030D01*
X00019689Y00004049D01*
X00019715Y00004067D01*
X00019742Y00004082D01*
X00019770Y00004095D01*
X00019799Y00004105D01*
X00019828Y00004114D01*
X00019859Y00004120D01*
X00019889Y00004123D01*
X00019920Y00004125D01*
X00019960Y00004125D01*
X00019991Y00004123D01*
X00020022Y00004120D01*
X00020052Y00004114D01*
X00020082Y00004105D01*
X00020111Y00004095D01*
X00020139Y00004082D01*
X00020166Y00004067D01*
X00020192Y00004049D01*
X00020216Y00004030D01*
X00020239Y00004009D01*
X00020260Y00003987D01*
X00020279Y00003962D01*
X00020296Y00003937D01*
X00020311Y00003910D01*
X00020324Y00003882D01*
X00020335Y00003853D01*
X00020343Y00003823D01*
X00020349Y00003792D01*
X00020353Y00003762D01*
X00020354Y00003731D01*
X00020354Y00000787D01*
X00020364Y00000664D01*
X00020393Y00000544D01*
X00020440Y00000429D01*
X00020505Y00000324D01*
X00020585Y00000230D01*
X00020679Y00000150D01*
X00020784Y00000085D01*
X00020898Y00000038D01*
X00021018Y00000009D01*
X00021142Y00000000D01*
X00035157Y00000000D01*
X00035280Y00000009D01*
X00035400Y00000038D01*
X00035514Y00000085D01*
X00035619Y00000150D01*
X00035713Y00000230D01*
X00035794Y00000324D01*
X00035858Y00000429D01*
X00035905Y00000544D01*
X00035934Y00000664D01*
X00035944Y00000787D01*
X00035944Y00009055D01*
X00035934Y00009178D01*
X00035905Y00009298D01*
X00035858Y00009412D01*
X00035794Y00009517D01*
X00035713Y00009611D01*
X00035619Y00009692D01*
X00035514Y00009756D01*
X00035400Y00009803D01*
X00035280Y00009832D01*
X00035157Y00009842D01*
X00033873Y00009842D01*
X00033849Y00009843D01*
X00033825Y00009845D01*
X00033801Y00009849D01*
X00033777Y00009854D01*
X00033754Y00009861D01*
X00033731Y00009869D01*
X00033708Y00009878D01*
X00033687Y00009889D01*
X00033666Y00009901D01*
X00033645Y00009915D01*
X00033626Y00009930D01*
X00033607Y00009945D01*
X00033590Y00009962D01*
X00033574Y00009980D01*
X00033558Y00009999D01*
X00033544Y00010019D01*
X00033532Y00010040D01*
X00033520Y00010062D01*
X00033510Y00010084D01*
X00033502Y00010106D01*
X00033488Y00010146D01*
X00033477Y00010182D01*
X00033470Y00010219D01*
X00033466Y00010256D01*
X00033466Y00010293D01*
X00033470Y00010331D01*
X00033477Y00010368D01*
X00033488Y00010404D01*
X00033501Y00010438D01*
X00033519Y00010472D01*
X00033539Y00010503D01*
X00033562Y00010533D01*
X00033588Y00010560D01*
X00033616Y00010584D01*
X00033647Y00010606D01*
X00033679Y00010625D01*
X00033713Y00010641D01*
X00033749Y00010653D01*
X00033785Y00010662D01*
X00033822Y00010667D01*
X00033860Y00010669D01*
X00035157Y00010669D01*
X00035280Y00010678D01*
X00035400Y00010707D01*
X00035514Y00010755D01*
X00035619Y00010819D01*
X00035713Y00010899D01*
X00035794Y00010993D01*
X00035858Y00011099D01*
X00035905Y00011213D01*
X00035934Y00011333D01*
X00035944Y00011456D01*
X00035944Y00019724D01*
X00035934Y00019847D01*
X00035905Y00019967D01*
X00035858Y00020081D01*
X00035794Y00020187D01*
X00035713Y00020281D01*
X00035619Y00020361D01*
X00035514Y00020426D01*
X00035400Y00020473D01*
X00035280Y00020502D01*
X00035157Y00020511D01*
X00033197Y00020511D01*
X00033148Y00020514D01*
X00033099Y00020524D01*
X00033052Y00020539D01*
X00033007Y00020560D01*
X00032965Y00020587D01*
X00032927Y00020618D01*
X00032893Y00020654D01*
X00032864Y00020694D01*
X00032841Y00020738D01*
X00032822Y00020784D01*
X00032810Y00020832D01*
X00032804Y00020881D01*
X00032804Y00020931D01*
X00032810Y00020980D01*
X00032823Y00021028D01*
X00032841Y00021074D01*
X00032865Y00021117D01*
X00032894Y00021157D01*
X00032928Y00021193D01*
X00032967Y00021224D01*
X00033213Y00021402D01*
X00033223Y00021409D01*
X00033234Y00021416D01*
X00033244Y00021423D01*
X00033255Y00021429D01*
X00033266Y00021434D01*
X00033277Y00021440D01*
X00033288Y00021445D01*
X00033300Y00021450D01*
X00033311Y00021454D01*
X00033323Y00021458D01*
X00033335Y00021461D01*
X00033346Y00021465D01*
X00033358Y00021468D01*
X00033370Y00021470D01*
X00033383Y00021472D01*
X00033395Y00021474D01*
X00033407Y00021475D01*
X00033419Y00021476D01*
X00033432Y00021477D01*
X00033444Y00021477D01*
X00036166Y00021477D01*
X00036289Y00021487D01*
X00036409Y00021515D01*
X00036523Y00021563D01*
X00036629Y00021627D01*
X00036723Y00021708D01*
X00036803Y00021802D01*
X00036867Y00021907D01*
X00036915Y00022021D01*
X00036944Y00022141D01*
X00036953Y00022264D01*
X00036953Y00034469D01*
X00036944Y00034592D01*
X00036915Y00034712D01*
X00036867Y00034827D01*
X00036803Y00034932D01*
X00036723Y00035026D01*
X00036629Y00035106D01*
X00036523Y00035171D01*
X00036409Y00035218D01*
X00036289Y00035247D01*
X00036166Y00035256D01*
X00022151Y00035256D01*
X00022028Y00035247D01*
X00021908Y00035218D01*
X00021794Y00035171D01*
X00021688Y00035106D01*
X00021594Y00035026D01*
X00021514Y00034932D01*
X00021449Y00034827D01*
X00021402Y00034712D01*
X00021373Y00034592D01*
X00021364Y00034469D01*
X00021364Y00027535D01*
X00021362Y00027502D01*
X00021358Y00027469D01*
X00021351Y00027437D01*
X00021342Y00027405D01*
X00021330Y00027374D01*
X00021315Y00027345D01*
X00021298Y00027316D01*
X00021278Y00027290D01*
X00021257Y00027265D01*
X00021233Y00027242D01*
X00021207Y00027221D01*
X00021180Y00027202D01*
X00021152Y00027185D01*
X00021122Y00027171D01*
X00021091Y00027160D01*
X00021059Y00027151D01*
X00021026Y00027145D01*
X00020994Y00027142D01*
X00020961Y00027141D01*
X00020928Y00027143D01*
X00020763Y00027161D01*
X00020734Y00027165D01*
X00020706Y00027171D01*
X00020678Y00027180D01*
X00020652Y00027190D01*
X00020625Y00027202D01*
X00020600Y00027216D01*
X00020576Y00027232D01*
X00020554Y00027250D01*
X00020532Y00027269D01*
X00020512Y00027290D01*
X00020494Y00027312D01*
X00020477Y00027335D01*
X00020462Y00027360D01*
X00020449Y00027385D01*
X00020437Y00027412D01*
X00020428Y00027439D01*
X00020421Y00027467D01*
X00020416Y00027495D01*
X00020412Y00027524D01*
X00020411Y00027553D01*
X00020411Y00031633D01*
X00016655Y00031633D01*
X00016655Y00027661D01*
X00016654Y00027630D01*
X00016651Y00027599D01*
X00016645Y00027569D01*
X00016636Y00027539D01*
X00016625Y00027510D01*
X00016612Y00027482D01*
X00016597Y00027455D01*
X00016580Y00027429D01*
X00016561Y00027405D01*
X00016540Y00027382D01*
X00016517Y00027361D01*
X00016493Y00027342D01*
X00016467Y00027325D01*
X00016440Y00027310D01*
X00016412Y00027297D01*
X00016383Y00027286D01*
X00016354Y00027278D01*
X00016323Y00027272D01*
X00016293Y00027268D01*
X00016262Y00027267D01*
X00015983Y00027267D01*
X00015952Y00027268D01*
X00015921Y00027272D01*
X00015891Y00027278D01*
X00015861Y00027286D01*
X00015832Y00027297D01*
X00015804Y00027310D01*
X00015777Y00027325D01*
X00015752Y00027342D01*
X00015727Y00027361D01*
X00015705Y00027382D01*
X00015684Y00027405D01*
X00015664Y00027429D01*
X00015647Y00027455D01*
X00015632Y00027482D01*
X00015619Y00027510D01*
X00015609Y00027539D01*
X00015600Y00027569D01*
X00015594Y00027599D01*
X00015590Y00027630D01*
X00015589Y00027661D01*
X00015589Y00030393D01*
X00015580Y00030516D01*
X00015551Y00030637D01*
X00015503Y00030751D01*
X00015439Y00030856D01*
X00015359Y00030950D01*
X00015265Y00031030D01*
X00015159Y00031095D01*
X00015045Y00031142D01*
X00014925Y00031171D01*
X00014802Y00031181D01*
X00012362Y00031181D01*
X00012324Y00031182D01*
X00012286Y00031188D01*
X00012249Y00031197D01*
X00012213Y00031210D01*
X00012178Y00031226D01*
X00012145Y00031245D01*
X00012114Y00031268D01*
X00012086Y00031293D01*
X00012060Y00031321D01*
X00012037Y00031352D01*
X00012017Y00031384D01*
X00012000Y00031419D01*
X00011987Y00031454D01*
X00011977Y00031491D01*
X00011971Y00031529D01*
X00011968Y00031567D01*
X00011969Y00031605D01*
X00011974Y00031643D01*
X00011983Y00031680D01*
X00011995Y00031716D01*
X00012140Y00032092D01*
X00012149Y00032114D01*
X00012160Y00032135D01*
X00012171Y00032155D01*
X00012184Y00032175D01*
X00012198Y00032194D01*
X00012214Y00032212D01*
X00012230Y00032229D01*
X00012247Y00032246D01*
X00012265Y00032261D01*
X00012284Y00032275D01*
X00012304Y00032287D01*
X00012325Y00032299D01*
X00012346Y00032309D01*
X00012368Y00032318D01*
X00012391Y00032326D01*
X00012413Y00032332D01*
X00012436Y00032337D01*
X00012460Y00032341D01*
X00012483Y00032343D01*
X00012507Y00032344D01*
X00013917Y00032344D01*
X00013917Y00036099D01*
X00003839Y00036099D01*
X00003839Y00032344D01*
X00004815Y00032344D01*
X00004838Y00032343D01*
X00004862Y00032341D01*
X00004885Y00032337D01*
X00004908Y00032332D01*
X00004931Y00032326D01*
X00004954Y00032318D01*
X00004976Y00032309D01*
X00004997Y00032299D01*
X00005017Y00032287D01*
X00005037Y00032275D01*
X00005056Y00032261D01*
X00005075Y00032246D01*
X00005092Y00032229D01*
X00005108Y00032212D01*
X00005123Y00032194D01*
X00005138Y00032175D01*
X00005151Y00032155D01*
X00005162Y00032135D01*
X00005173Y00032114D01*
X00005182Y00032092D01*
X00005327Y00031716D01*
X00005339Y00031680D01*
X00005348Y00031643D01*
X00005353Y00031605D01*
X00005354Y00031567D01*
X00005351Y00031529D01*
X00005345Y00031491D01*
X00005335Y00031454D01*
X00005322Y00031419D01*
X00005305Y00031384D01*
X00005285Y00031352D01*
X00005262Y00031321D01*
X00005236Y00031293D01*
X00005207Y00031268D01*
X00005177Y00031245D01*
X00005144Y00031226D01*
X00005109Y00031210D01*
X00005073Y00031197D01*
X00005036Y00031188D01*
X00004998Y00031182D01*
X00004960Y00031181D01*
X00000787Y00031181D01*
X00000664Y00031171D01*
X00000544Y00031142D01*
X00000429Y00031095D01*
X00000324Y00031030D01*
X00000230Y00030950D01*
X00000150Y00030856D01*
X00000085Y00030751D01*
X00000038Y00030637D01*
X00000009Y00030516D01*
X00000000Y00030393D01*
X00000000Y00022125D01*
X00000009Y00022002D01*
X00000038Y00021882D01*
X00000085Y00021768D01*
X00000150Y00021663D01*
X00000230Y00021569D01*
X00000324Y00021488D01*
X00000429Y00021424D01*
X00000544Y00021377D01*
X00000664Y00021348D01*
X00000787Y00021338D01*
X00002769Y00021338D01*
X00002815Y00021335D01*
X00002861Y00021327D01*
X00002906Y00021313D01*
X00002949Y00021294D01*
X00002989Y00021271D01*
X00003026Y00021242D01*
X00003060Y00021209D01*
X00003089Y00021173D01*
X00003114Y00021133D01*
X00003134Y00021091D01*
X00003149Y00021047D01*
X00003158Y00021001D01*
X00003162Y00020954D01*
X00003161Y00020908D01*
X00003153Y00020861D01*
X00003141Y00020816D01*
X00003123Y00020773D01*
X00003100Y00020732D01*
X00003073Y00020694D01*
X00003041Y00020660D01*
X00003000Y00020621D01*
X00002989Y00020611D01*
X00002977Y00020601D01*
X00002966Y00020591D01*
X00002953Y00020583D01*
X00002941Y00020574D01*
X00002928Y00020566D01*
X00002915Y00020559D01*
X00002902Y00020552D01*
X00002888Y00020546D01*
X00002874Y00020540D01*
X00002860Y00020534D01*
X00002846Y00020530D01*
X00002832Y00020525D01*
X00002817Y00020522D01*
X00002802Y00020518D01*
X00002787Y00020516D01*
X00002773Y00020514D01*
X00002758Y00020512D01*
X00002743Y00020512D01*
X00002728Y00020511D01*
X00000787Y00020511D01*
X00000664Y00020502D01*
X00000544Y00020473D01*
X00000429Y00020426D01*
X00000324Y00020361D01*
X00000230Y00020281D01*
X00000150Y00020187D01*
X00000085Y00020081D01*
X00000038Y00019967D01*
X00000009Y00019847D01*
X00000000Y00019724D01*
X00000000Y00011456D01*
X00000009Y00011333D01*
X00000038Y00011213D01*
X00000085Y00011099D01*
X00000150Y00010993D01*
X00000230Y00010899D01*
X00000324Y00010819D01*
X00000429Y00010755D01*
X00000544Y00010707D01*
X00000664Y00010678D01*
X00000787Y00010669D01*
X00003541Y00010669D01*
M02*