%
M48
METRIC,000.000
T01C0.50
%
T01
X013768Y079723
X012768Y079723
X011768Y079723
X010768Y079723
X009768Y079723
X008768Y079723
X008710Y081951
X009710Y081951
X010710Y081951
X011710Y081951
X012710Y081951
X086360Y052350
X085360Y052350
X084360Y052350
X083360Y052350
X082360Y052350
X081360Y052350
X081544Y054802
X082544Y054802
X083544Y054802
X084544Y054802
X085544Y054802
X086544Y054802
X028768Y079723
X027768Y079723
X026768Y079723
X025768Y079723
X024768Y079723
X023768Y079723
X024710Y081951
X025710Y081951
X026710Y081951
X027710Y081951
X064360Y052350
X063360Y052350
X062360Y052350
X061360Y052350
X060360Y052350
X059544Y054802
X060544Y054802
X061544Y054802
X062544Y054802
X063544Y054802
X064544Y054802
X060360Y025250
X059360Y025250
X058360Y025250
X057360Y025250
X056360Y025250
X055360Y025250
X055980Y026850
X056980Y026850
X057980Y026850
X058980Y026850
X059980Y026850
X084360Y025250
X083360Y025250
X082360Y025250
X081360Y025250
X080360Y025250
X079360Y025250
X079980Y026850
X080980Y026850
X081980Y026850
X082980Y026850
X083980Y026850
X010648Y025250
X009648Y025250
X008648Y025250
X007648Y025250
X006648Y025250
X005648Y025250
X005289Y026850
X006289Y026850
X007289Y026850
X008289Y026850
X009289Y026850
X010289Y026850
X006388Y054223
X007388Y054223
X008388Y054223
X009388Y054223
X010388Y054223
X011388Y054223
X011648Y052350
X010648Y052350
X009648Y052350
X008648Y052350
X007648Y052350
X006648Y052350
X051450Y015190
X051450Y014190
X051450Y013190
X051450Y012190
X051450Y011190
X051450Y010190
X049848Y009475
X049848Y010475
X049848Y011475
X049848Y012475
X049847Y013475
X049847Y014475
X049847Y015475
X040648Y025250
X039648Y025250
X038648Y025250
X037648Y025250
X036648Y025250
X035648Y025250
X034648Y025250
X033648Y025250
X033289Y026850
X034289Y026850
X035289Y026850
X036289Y026850
X037289Y026850
X038289Y026850
X039289Y026850
X040289Y026850
X039957Y064942
X039957Y065942
X039957Y066942
X039957Y067942
X039957Y068942
X039957Y069942
X042008Y069871
X042008Y068871
X042008Y067871
X042008Y066871
X042008Y065871
X042008Y064871
X051450Y042290
X051450Y041290
X051450Y040290
X051450Y039290
X051450Y038290
X051450Y037290
X049848Y036575
X049848Y037575
X049848Y038575
X049848Y039575
X049847Y040575
X049847Y041575
X049847Y042575
X026388Y054223
X027388Y054223
X028388Y054223
X029388Y054223
X030388Y054223
X031388Y054223
X031648Y052350
X030648Y052350
X029648Y052350
X028648Y052350
X027648Y052350
X026648Y052350
X052048Y064565
X052048Y065565
X052048Y066565
X052048Y067565
X052048Y068565
X052048Y069565
X054014Y069242
X054014Y068242
X054014Y067242
X054014Y066242
X054014Y065242
X054014Y064242
M30