%MOIN*%
%OFA0B0*%
%FSLAX44Y44*%
%IPPOS*%
%LPD*%
%ADD10C,0*%
D10*
X00023504Y00013031D02*
X00023504Y00013031D01*
X00023381Y00013041D01*
X00023260Y00013070D01*
X00023146Y00013117D01*
X00023041Y00013181D01*
X00022947Y00013262D01*
X00022867Y00013356D01*
X00022802Y00013461D01*
X00022755Y00013575D01*
X00022726Y00013695D01*
X00022716Y00013818D01*
X00022716Y00017362D01*
X00022726Y00017485D01*
X00022755Y00017605D01*
X00022802Y00017719D01*
X00022867Y00017825D01*
X00022947Y00017918D01*
X00023041Y00017999D01*
X00023146Y00018063D01*
X00023260Y00018111D01*
X00023381Y00018139D01*
X00023504Y00018149D01*
X00032794Y00018149D01*
X00032917Y00018139D01*
X00033038Y00018111D01*
X00033152Y00018063D01*
X00033257Y00017999D01*
X00033351Y00017918D01*
X00033431Y00017825D01*
X00033496Y00017719D01*
X00033543Y00017605D01*
X00033572Y00017485D01*
X00033582Y00017362D01*
X00033582Y00013818D01*
X00033572Y00013695D01*
X00033543Y00013575D01*
X00033496Y00013461D01*
X00033431Y00013356D01*
X00033351Y00013262D01*
X00033257Y00013181D01*
X00033152Y00013117D01*
X00033038Y00013070D01*
X00032917Y00013041D01*
X00032794Y00013031D01*
X00023504Y00013031D01*
X00003192Y00023808D02*
X00003192Y00023808D01*
X00003069Y00023818D01*
X00002949Y00023846D01*
X00002835Y00023894D01*
X00002729Y00023958D01*
X00002635Y00024039D01*
X00002555Y00024133D01*
X00002491Y00024238D01*
X00002443Y00024352D01*
X00002415Y00024472D01*
X00002405Y00024595D01*
X00002405Y00028139D01*
X00002415Y00028262D01*
X00002443Y00028382D01*
X00002491Y00028496D01*
X00002555Y00028601D01*
X00002635Y00028695D01*
X00002729Y00028776D01*
X00002835Y00028840D01*
X00002949Y00028887D01*
X00003069Y00028916D01*
X00003192Y00028926D01*
X00012483Y00028926D01*
X00012606Y00028916D01*
X00012726Y00028887D01*
X00012840Y00028840D01*
X00012946Y00028776D01*
X00013040Y00028695D01*
X00013120Y00028601D01*
X00013184Y00028496D01*
X00013232Y00028382D01*
X00013261Y00028262D01*
X00013270Y00028139D01*
X00013270Y00024595D01*
X00013261Y00024472D01*
X00013232Y00024352D01*
X00013184Y00024238D01*
X00013120Y00024133D01*
X00013040Y00024039D01*
X00012946Y00023958D01*
X00012840Y00023894D01*
X00012726Y00023846D01*
X00012606Y00023818D01*
X00012483Y00023808D01*
X00003192Y00023808D01*
X00023504Y00002362D02*
X00023504Y00002362D01*
X00023381Y00002371D01*
X00023260Y00002400D01*
X00023146Y00002448D01*
X00023041Y00002512D01*
X00022947Y00002592D01*
X00022867Y00002686D01*
X00022802Y00002792D01*
X00022755Y00002906D01*
X00022726Y00003026D01*
X00022716Y00003149D01*
X00022716Y00006692D01*
X00022726Y00006816D01*
X00022755Y00006936D01*
X00022802Y00007050D01*
X00022867Y00007155D01*
X00022947Y00007249D01*
X00023041Y00007329D01*
X00023146Y00007394D01*
X00023260Y00007441D01*
X00023381Y00007470D01*
X00023504Y00007480D01*
X00032794Y00007480D01*
X00032917Y00007470D01*
X00033038Y00007441D01*
X00033152Y00007394D01*
X00033257Y00007329D01*
X00033351Y00007249D01*
X00033431Y00007155D01*
X00033496Y00007050D01*
X00033543Y00006936D01*
X00033572Y00006816D01*
X00033582Y00006692D01*
X00033582Y00003149D01*
X00033572Y00003026D01*
X00033543Y00002906D01*
X00033496Y00002792D01*
X00033431Y00002686D01*
X00033351Y00002592D01*
X00033257Y00002512D01*
X00033152Y00002448D01*
X00033038Y00002400D01*
X00032917Y00002371D01*
X00032794Y00002362D01*
X00023504Y00002362D01*
X00020354Y00009055D02*
X00020354Y00009055D01*
X00020354Y00006111D01*
X00020353Y00006080D01*
X00020349Y00006049D01*
X00020343Y00006019D01*
X00020335Y00005989D01*
X00020324Y00005960D01*
X00020311Y00005932D01*
X00020296Y00005905D01*
X00020279Y00005879D01*
X00020260Y00005855D01*
X00020239Y00005832D01*
X00020216Y00005811D01*
X00020192Y00005792D01*
X00020166Y00005775D01*
X00020139Y00005760D01*
X00020111Y00005747D01*
X00020082Y00005736D01*
X00020052Y00005728D01*
X00020022Y00005722D01*
X00019991Y00005718D01*
X00019960Y00005717D01*
X00019920Y00005717D01*
X00019889Y00005718D01*
X00019858Y00005722D01*
X00019828Y00005728D01*
X00019798Y00005736D01*
X00019769Y00005747D01*
X00019741Y00005760D01*
X00019714Y00005775D01*
X00019688Y00005792D01*
X00019664Y00005811D01*
X00019641Y00005832D01*
X00019620Y00005855D01*
X00019601Y00005879D01*
X00019584Y00005905D01*
X00019569Y00005932D01*
X00019556Y00005960D01*
X00019545Y00005989D01*
X00019537Y00006019D01*
X00019531Y00006049D01*
X00019527Y00006080D01*
X00019526Y00006111D01*
X00019525Y00009053D01*
X00019515Y00009176D01*
X00019487Y00009297D01*
X00019439Y00009411D01*
X00019374Y00009517D01*
X00019294Y00009611D01*
X00019200Y00009691D01*
X00019094Y00009756D01*
X00018980Y00009803D01*
X00018859Y00009832D01*
X00018736Y00009842D01*
X00016208Y00009842D01*
X00016182Y00009843D01*
X00016156Y00009845D01*
X00016130Y00009850D01*
X00016105Y00009856D01*
X00016080Y00009863D01*
X00016056Y00009873D01*
X00016032Y00009884D01*
X00016009Y00009896D01*
X00015987Y00009910D01*
X00015966Y00009925D01*
X00015946Y00009942D01*
X00015927Y00009960D01*
X00015910Y00009979D01*
X00015893Y00009999D01*
X00015878Y00010021D01*
X00015865Y00010043D01*
X00015853Y00010066D01*
X00015842Y00010090D01*
X00015834Y00010114D01*
X00015826Y00010139D01*
X00015816Y00010179D01*
X00015809Y00010214D01*
X00015805Y00010249D01*
X00015805Y00010285D01*
X00015807Y00010321D01*
X00015813Y00010356D01*
X00015822Y00010391D01*
X00015834Y00010424D01*
X00015849Y00010457D01*
X00015867Y00010488D01*
X00015887Y00010517D01*
X00015911Y00010544D01*
X00015936Y00010569D01*
X00015964Y00010592D01*
X00015994Y00010612D01*
X00016025Y00010629D01*
X00016058Y00010643D01*
X00016092Y00010654D01*
X00016127Y00010662D01*
X00016162Y00010667D01*
X00016198Y00010669D01*
X00018741Y00010669D01*
X00018864Y00010679D01*
X00018984Y00010709D01*
X00019098Y00010756D01*
X00019204Y00010821D01*
X00019297Y00010902D01*
X00019377Y00010996D01*
X00019442Y00011102D01*
X00019489Y00011216D01*
X00019518Y00011336D01*
X00019527Y00011459D01*
X00019527Y00014400D01*
X00019528Y00014431D01*
X00019531Y00014462D01*
X00019537Y00014492D01*
X00019546Y00014522D01*
X00019557Y00014551D01*
X00019569Y00014579D01*
X00019585Y00014606D01*
X00019602Y00014632D01*
X00019621Y00014656D01*
X00019642Y00014678D01*
X00019665Y00014699D01*
X00019689Y00014719D01*
X00019715Y00014736D01*
X00019742Y00014751D01*
X00019770Y00014764D01*
X00019799Y00014775D01*
X00019828Y00014783D01*
X00019859Y00014789D01*
X00019889Y00014793D01*
X00019920Y00014794D01*
X00019960Y00014794D01*
X00019991Y00014793D01*
X00020022Y00014789D01*
X00020052Y00014783D01*
X00020082Y00014775D01*
X00020111Y00014764D01*
X00020139Y00014751D01*
X00020166Y00014736D01*
X00020192Y00014719D01*
X00020216Y00014700D01*
X00020239Y00014679D01*
X00020260Y00014656D01*
X00020279Y00014632D01*
X00020296Y00014606D01*
X00020311Y00014579D01*
X00020324Y00014551D01*
X00020335Y00014522D01*
X00020343Y00014492D01*
X00020349Y00014462D01*
X00020353Y00014431D01*
X00020354Y00014400D01*
X00020354Y00011456D01*
X00020364Y00011333D01*
X00020393Y00011213D01*
X00020440Y00011099D01*
X00020505Y00010993D01*
X00020585Y00010899D01*
X00020679Y00010819D01*
X00020784Y00010755D01*
X00020898Y00010707D01*
X00021018Y00010678D01*
X00021142Y00010669D01*
X00021735Y00010669D01*
X00021773Y00010667D01*
X00021811Y00010661D01*
X00021848Y00010652D01*
X00021883Y00010640D01*
X00021918Y00010624D01*
X00021951Y00010605D01*
X00021981Y00010582D01*
X00022010Y00010557D01*
X00022036Y00010530D01*
X00022059Y00010500D01*
X00022079Y00010467D01*
X00022096Y00010433D01*
X00022109Y00010398D01*
X00022119Y00010361D01*
X00022126Y00010324D01*
X00022129Y00010286D01*
X00022128Y00010248D01*
X00022124Y00010210D01*
X00022116Y00010173D01*
X00022104Y00010137D01*
X00022089Y00010098D01*
X00022080Y00010076D01*
X00022070Y00010054D01*
X00022058Y00010033D01*
X00022045Y00010013D01*
X00022031Y00009994D01*
X00022016Y00009976D01*
X00022000Y00009958D01*
X00021982Y00009942D01*
X00021964Y00009926D01*
X00021945Y00009912D01*
X00021925Y00009899D01*
X00021904Y00009887D01*
X00021883Y00009877D01*
X00021861Y00009868D01*
X00021838Y00009860D01*
X00021815Y00009854D01*
X00021792Y00009849D01*
X00021768Y00009845D01*
X00021744Y00009843D01*
X00021721Y00009842D01*
X00021142Y00009842D01*
X00021018Y00009832D01*
X00020898Y00009803D01*
X00020784Y00009756D01*
X00020679Y00009692D01*
X00020585Y00009611D01*
X00020505Y00009517D01*
X00020440Y00009412D01*
X00020393Y00009298D01*
X00020364Y00009178D01*
X00020354Y00009055D01*
X00004752Y00020511D02*
X00004752Y00020511D01*
X00004732Y00020512D01*
X00004712Y00020513D01*
X00004692Y00020516D01*
X00004672Y00020519D01*
X00004653Y00020524D01*
X00004633Y00020530D01*
X00004614Y00020536D01*
X00004596Y00020544D01*
X00004578Y00020552D01*
X00004560Y00020561D01*
X00004543Y00020571D01*
X00004526Y00020583D01*
X00004510Y00020594D01*
X00004494Y00020607D01*
X00004480Y00020621D01*
X00004465Y00020635D01*
X00004452Y00020650D01*
X00004439Y00020665D01*
X00004428Y00020682D01*
X00004417Y00020698D01*
X00004326Y00020845D01*
X00004306Y00020882D01*
X00004290Y00020921D01*
X00004278Y00020961D01*
X00004271Y00021002D01*
X00004268Y00021043D01*
X00004269Y00021085D01*
X00004275Y00021127D01*
X00004285Y00021167D01*
X00004299Y00021206D01*
X00004317Y00021244D01*
X00004340Y00021279D01*
X00004366Y00021312D01*
X00004395Y00021342D01*
X00004427Y00021369D01*
X00004462Y00021392D01*
X00004499Y00021411D01*
X00004538Y00021426D01*
X00004578Y00021437D01*
X00004619Y00021444D01*
X00004661Y00021446D01*
X00010298Y00021446D01*
X00010340Y00021444D01*
X00010381Y00021437D01*
X00010422Y00021426D01*
X00010461Y00021411D01*
X00010498Y00021392D01*
X00010533Y00021369D01*
X00010565Y00021342D01*
X00010594Y00021312D01*
X00010620Y00021279D01*
X00010642Y00021244D01*
X00010661Y00021206D01*
X00010675Y00021167D01*
X00010685Y00021127D01*
X00010691Y00021085D01*
X00010692Y00021043D01*
X00010689Y00021002D01*
X00010681Y00020961D01*
X00010670Y00020921D01*
X00010654Y00020882D01*
X00010634Y00020845D01*
X00010543Y00020698D01*
X00010532Y00020682D01*
X00010520Y00020665D01*
X00010508Y00020650D01*
X00010494Y00020635D01*
X00010480Y00020621D01*
X00010465Y00020607D01*
X00010450Y00020594D01*
X00010434Y00020583D01*
X00010417Y00020571D01*
X00010400Y00020561D01*
X00010382Y00020552D01*
X00010364Y00020544D01*
X00010345Y00020536D01*
X00010326Y00020530D01*
X00010307Y00020524D01*
X00010287Y00020519D01*
X00010268Y00020516D01*
X00010248Y00020513D01*
X00010228Y00020512D01*
X00010208Y00020511D01*
X00004752Y00020511D01*
X00004346Y00009842D02*
X00004346Y00009842D01*
X00004322Y00009843D01*
X00004297Y00009845D01*
X00004273Y00009849D01*
X00004249Y00009854D01*
X00004226Y00009861D01*
X00004203Y00009869D01*
X00004181Y00009878D01*
X00004159Y00009889D01*
X00004138Y00009901D01*
X00004118Y00009915D01*
X00004098Y00009930D01*
X00004080Y00009945D01*
X00004062Y00009962D01*
X00004046Y00009980D01*
X00004031Y00009999D01*
X00004017Y00010019D01*
X00004004Y00010040D01*
X00003993Y00010062D01*
X00003983Y00010084D01*
X00003974Y00010106D01*
X00003960Y00010146D01*
X00003950Y00010182D01*
X00003943Y00010219D01*
X00003939Y00010256D01*
X00003939Y00010293D01*
X00003942Y00010331D01*
X00003949Y00010368D01*
X00003960Y00010404D01*
X00003974Y00010438D01*
X00003991Y00010472D01*
X00004011Y00010503D01*
X00004034Y00010533D01*
X00004060Y00010560D01*
X00004089Y00010584D01*
X00004119Y00010606D01*
X00004152Y00010625D01*
X00004186Y00010641D01*
X00004221Y00010653D01*
X00004258Y00010662D01*
X00004295Y00010667D01*
X00004332Y00010669D01*
X00012935Y00010669D01*
X00012971Y00010667D01*
X00013006Y00010662D01*
X00013041Y00010654D01*
X00013075Y00010643D01*
X00013108Y00010629D01*
X00013139Y00010612D01*
X00013169Y00010592D01*
X00013197Y00010569D01*
X00013222Y00010544D01*
X00013245Y00010517D01*
X00013266Y00010488D01*
X00013284Y00010457D01*
X00013299Y00010424D01*
X00013311Y00010391D01*
X00013320Y00010356D01*
X00013326Y00010321D01*
X00013328Y00010285D01*
X00013328Y00010249D01*
X00013324Y00010214D01*
X00013316Y00010179D01*
X00013307Y00010139D01*
X00013299Y00010114D01*
X00013290Y00010090D01*
X00013280Y00010066D01*
X00013268Y00010043D01*
X00013254Y00010021D01*
X00013240Y00009999D01*
X00013223Y00009979D01*
X00013206Y00009960D01*
X00013187Y00009942D01*
X00013167Y00009925D01*
X00013146Y00009910D01*
X00013124Y00009896D01*
X00013101Y00009884D01*
X00013077Y00009873D01*
X00013053Y00009863D01*
X00013028Y00009856D01*
X00013002Y00009850D01*
X00012977Y00009845D01*
X00012951Y00009843D01*
X00012925Y00009842D01*
X00004346Y00009842D01*
X00023948Y00009842D02*
X00023948Y00009842D01*
X00023924Y00009843D01*
X00023900Y00009845D01*
X00023876Y00009849D01*
X00023853Y00009854D01*
X00023830Y00009860D01*
X00023808Y00009868D01*
X00023786Y00009877D01*
X00023764Y00009887D01*
X00023743Y00009899D01*
X00023723Y00009912D01*
X00023704Y00009926D01*
X00023686Y00009942D01*
X00023668Y00009958D01*
X00023652Y00009976D01*
X00023637Y00009994D01*
X00023623Y00010013D01*
X00023610Y00010033D01*
X00023598Y00010054D01*
X00023588Y00010076D01*
X00023579Y00010098D01*
X00023564Y00010137D01*
X00023553Y00010173D01*
X00023545Y00010210D01*
X00023540Y00010248D01*
X00023539Y00010286D01*
X00023542Y00010324D01*
X00023549Y00010361D01*
X00023559Y00010398D01*
X00023572Y00010433D01*
X00023589Y00010467D01*
X00023610Y00010500D01*
X00023633Y00010530D01*
X00023659Y00010557D01*
X00023687Y00010582D01*
X00023718Y00010605D01*
X00023750Y00010624D01*
X00023785Y00010640D01*
X00023821Y00010652D01*
X00023858Y00010661D01*
X00023895Y00010667D01*
X00023933Y00010669D01*
X00031184Y00010669D01*
X00031222Y00010667D01*
X00031260Y00010661D01*
X00031296Y00010652D01*
X00031332Y00010640D01*
X00031367Y00010624D01*
X00031399Y00010605D01*
X00031430Y00010582D01*
X00031459Y00010557D01*
X00031484Y00010530D01*
X00031508Y00010500D01*
X00031528Y00010467D01*
X00031545Y00010433D01*
X00031558Y00010398D01*
X00031568Y00010361D01*
X00031575Y00010324D01*
X00031578Y00010286D01*
X00031577Y00010248D01*
X00031572Y00010210D01*
X00031564Y00010173D01*
X00031553Y00010137D01*
X00031538Y00010098D01*
X00031529Y00010076D01*
X00031519Y00010054D01*
X00031507Y00010033D01*
X00031494Y00010013D01*
X00031480Y00009994D01*
X00031465Y00009976D01*
X00031449Y00009958D01*
X00031431Y00009942D01*
X00031413Y00009926D01*
X00031394Y00009912D01*
X00031374Y00009899D01*
X00031353Y00009887D01*
X00031332Y00009877D01*
X00031310Y00009868D01*
X00031287Y00009860D01*
X00031264Y00009854D01*
X00031241Y00009849D01*
X00031217Y00009845D01*
X00031193Y00009843D01*
X00031169Y00009842D01*
X00023948Y00009842D01*
X00023303Y00021674D02*
X00023303Y00021674D01*
X00023325Y00021673D01*
X00023346Y00021671D01*
X00023367Y00021668D01*
X00023389Y00021664D01*
X00023410Y00021659D01*
X00023430Y00021653D01*
X00023451Y00021645D01*
X00023470Y00021636D01*
X00023490Y00021627D01*
X00023508Y00021616D01*
X00023526Y00021604D01*
X00023544Y00021591D01*
X00023561Y00021578D01*
X00023577Y00021563D01*
X00023592Y00021548D01*
X00023606Y00021531D01*
X00023619Y00021514D01*
X00023632Y00021497D01*
X00023643Y00021478D01*
X00023653Y00021459D01*
X00023845Y00021084D01*
X00023862Y00021048D01*
X00023874Y00021010D01*
X00023883Y00020970D01*
X00023888Y00020930D01*
X00023888Y00020890D01*
X00023885Y00020850D01*
X00023877Y00020811D01*
X00023865Y00020772D01*
X00023850Y00020735D01*
X00023831Y00020700D01*
X00023808Y00020666D01*
X00023782Y00020636D01*
X00023753Y00020608D01*
X00023721Y00020583D01*
X00023687Y00020562D01*
X00023651Y00020544D01*
X00023614Y00020530D01*
X00023575Y00020520D01*
X00023535Y00020513D01*
X00023495Y00020511D01*
X00021142Y00020511D01*
X00021018Y00020502D01*
X00020898Y00020473D01*
X00020784Y00020426D01*
X00020679Y00020361D01*
X00020585Y00020281D01*
X00020505Y00020187D01*
X00020440Y00020081D01*
X00020393Y00019967D01*
X00020364Y00019847D01*
X00020354Y00019724D01*
X00020354Y00016780D01*
X00020353Y00016749D01*
X00020349Y00016718D01*
X00020343Y00016688D01*
X00020335Y00016658D01*
X00020324Y00016629D01*
X00020311Y00016601D01*
X00020296Y00016574D01*
X00020279Y00016549D01*
X00020260Y00016524D01*
X00020239Y00016502D01*
X00020216Y00016481D01*
X00020192Y00016461D01*
X00020166Y00016444D01*
X00020139Y00016429D01*
X00020111Y00016416D01*
X00020082Y00016406D01*
X00020052Y00016397D01*
X00020022Y00016391D01*
X00019991Y00016387D01*
X00019960Y00016386D01*
X00019920Y00016386D01*
X00019889Y00016387D01*
X00019858Y00016391D01*
X00019828Y00016397D01*
X00019798Y00016406D01*
X00019769Y00016416D01*
X00019741Y00016429D01*
X00019714Y00016444D01*
X00019688Y00016461D01*
X00019664Y00016481D01*
X00019641Y00016502D01*
X00019620Y00016524D01*
X00019601Y00016548D01*
X00019584Y00016574D01*
X00019569Y00016601D01*
X00019556Y00016629D01*
X00019545Y00016658D01*
X00019537Y00016688D01*
X00019531Y00016718D01*
X00019527Y00016749D01*
X00019526Y00016780D01*
X00019525Y00019722D01*
X00019515Y00019846D01*
X00019487Y00019966D01*
X00019439Y00020080D01*
X00019374Y00020186D01*
X00019294Y00020280D01*
X00019200Y00020361D01*
X00019094Y00020425D01*
X00018980Y00020473D01*
X00018859Y00020502D01*
X00018736Y00020511D01*
X00012626Y00020511D01*
X00012606Y00020512D01*
X00012586Y00020513D01*
X00012566Y00020516D01*
X00012546Y00020519D01*
X00012527Y00020524D01*
X00012507Y00020530D01*
X00012488Y00020536D01*
X00012470Y00020544D01*
X00012452Y00020552D01*
X00012434Y00020561D01*
X00012417Y00020571D01*
X00012400Y00020583D01*
X00012384Y00020594D01*
X00012368Y00020607D01*
X00012354Y00020621D01*
X00012339Y00020635D01*
X00012326Y00020650D01*
X00012313Y00020665D01*
X00012302Y00020682D01*
X00012291Y00020698D01*
X00012200Y00020845D01*
X00012180Y00020882D01*
X00012164Y00020921D01*
X00012152Y00020961D01*
X00012145Y00021002D01*
X00012142Y00021043D01*
X00012143Y00021085D01*
X00012149Y00021127D01*
X00012159Y00021167D01*
X00012173Y00021206D01*
X00012191Y00021244D01*
X00012214Y00021279D01*
X00012240Y00021312D01*
X00012269Y00021342D01*
X00012301Y00021369D01*
X00012336Y00021392D01*
X00012373Y00021411D01*
X00012412Y00021426D01*
X00012452Y00021437D01*
X00012493Y00021444D01*
X00012535Y00021446D01*
X00014845Y00021446D01*
X00014968Y00021455D01*
X00015088Y00021484D01*
X00015202Y00021532D01*
X00015308Y00021596D01*
X00015402Y00021676D01*
X00015482Y00021770D01*
X00015547Y00021876D01*
X00015594Y00021990D01*
X00015623Y00022110D01*
X00015632Y00022233D01*
X00015632Y00025451D01*
X00015634Y00025482D01*
X00015637Y00025513D01*
X00015643Y00025543D01*
X00015652Y00025573D01*
X00015662Y00025602D01*
X00015675Y00025630D01*
X00015690Y00025657D01*
X00015708Y00025683D01*
X00015727Y00025707D01*
X00015748Y00025730D01*
X00015770Y00025751D01*
X00015795Y00025770D01*
X00015820Y00025787D01*
X00015847Y00025802D01*
X00015875Y00025815D01*
X00015904Y00025826D01*
X00015934Y00025834D01*
X00015965Y00025840D01*
X00015995Y00025844D01*
X00016026Y00025845D01*
X00016243Y00025845D01*
X00016274Y00025844D01*
X00016305Y00025840D01*
X00016335Y00025834D01*
X00016365Y00025826D01*
X00016394Y00025815D01*
X00016422Y00025802D01*
X00016449Y00025787D01*
X00016474Y00025770D01*
X00016499Y00025751D01*
X00016521Y00025730D01*
X00016542Y00025707D01*
X00016562Y00025683D01*
X00016579Y00025657D01*
X00016594Y00025630D01*
X00016607Y00025602D01*
X00016617Y00025573D01*
X00016626Y00025543D01*
X00016632Y00025513D01*
X00016635Y00025482D01*
X00016637Y00025451D01*
X00016637Y00021637D01*
X00020393Y00021637D01*
X00020393Y00025210D01*
X00020394Y00025240D01*
X00020397Y00025269D01*
X00020403Y00025298D01*
X00020411Y00025327D01*
X00020420Y00025355D01*
X00020433Y00025383D01*
X00020447Y00025409D01*
X00020463Y00025434D01*
X00020480Y00025458D01*
X00020500Y00025480D01*
X00020521Y00025501D01*
X00020544Y00025520D01*
X00020568Y00025538D01*
X00020594Y00025553D01*
X00020620Y00025567D01*
X00020648Y00025578D01*
X00020676Y00025588D01*
X00020705Y00025595D01*
X00020734Y00025600D01*
X00020764Y00025603D01*
X00020948Y00025613D01*
X00020980Y00025614D01*
X00021012Y00025612D01*
X00021043Y00025607D01*
X00021075Y00025600D01*
X00021105Y00025590D01*
X00021135Y00025578D01*
X00021163Y00025563D01*
X00021190Y00025546D01*
X00021216Y00025527D01*
X00021240Y00025506D01*
X00021263Y00025483D01*
X00021283Y00025459D01*
X00021302Y00025433D01*
X00021318Y00025405D01*
X00021332Y00025376D01*
X00021343Y00025346D01*
X00021352Y00025315D01*
X00021358Y00025284D01*
X00021362Y00025252D01*
X00021364Y00025220D01*
X00021364Y00022461D01*
X00021373Y00022338D01*
X00021402Y00022218D01*
X00021449Y00022104D01*
X00021514Y00021998D01*
X00021594Y00021904D01*
X00021688Y00021824D01*
X00021794Y00021760D01*
X00021908Y00021712D01*
X00022028Y00021683D01*
X00022151Y00021674D01*
X00023303Y00021674D01*
X00031881Y00021674D02*
X00031881Y00021674D01*
X00031903Y00021673D01*
X00031925Y00021671D01*
X00031947Y00021668D01*
X00031969Y00021664D01*
X00031991Y00021658D01*
X00032012Y00021651D01*
X00032033Y00021643D01*
X00032053Y00021634D01*
X00032073Y00021624D01*
X00032092Y00021612D01*
X00032110Y00021600D01*
X00032128Y00021586D01*
X00032145Y00021572D01*
X00032161Y00021556D01*
X00032176Y00021540D01*
X00032190Y00021523D01*
X00032204Y00021505D01*
X00032216Y00021487D01*
X00032227Y00021467D01*
X00032237Y00021447D01*
X00032413Y00021072D01*
X00032428Y00021036D01*
X00032439Y00020998D01*
X00032447Y00020959D01*
X00032450Y00020920D01*
X00032450Y00020880D01*
X00032445Y00020841D01*
X00032437Y00020802D01*
X00032424Y00020764D01*
X00032408Y00020728D01*
X00032389Y00020694D01*
X00032366Y00020662D01*
X00032340Y00020632D01*
X00032311Y00020605D01*
X00032280Y00020581D01*
X00032246Y00020560D01*
X00032211Y00020543D01*
X00032174Y00020529D01*
X00032135Y00020519D01*
X00032096Y00020513D01*
X00032057Y00020511D01*
X00025323Y00020511D01*
X00025283Y00020513D01*
X00025243Y00020520D01*
X00025204Y00020530D01*
X00025167Y00020544D01*
X00025130Y00020562D01*
X00025096Y00020583D01*
X00025065Y00020608D01*
X00025036Y00020636D01*
X00025010Y00020666D01*
X00024987Y00020700D01*
X00024968Y00020735D01*
X00024952Y00020772D01*
X00024941Y00020811D01*
X00024933Y00020850D01*
X00024930Y00020890D01*
X00024930Y00020930D01*
X00024935Y00020970D01*
X00024943Y00021010D01*
X00024956Y00021048D01*
X00024973Y00021084D01*
X00025164Y00021459D01*
X00025175Y00021478D01*
X00025186Y00021497D01*
X00025199Y00021514D01*
X00025212Y00021531D01*
X00025226Y00021548D01*
X00025241Y00021563D01*
X00025257Y00021578D01*
X00025274Y00021591D01*
X00025291Y00021604D01*
X00025310Y00021616D01*
X00025328Y00021627D01*
X00025348Y00021636D01*
X00025367Y00021645D01*
X00025388Y00021653D01*
X00025408Y00021659D01*
X00025429Y00021664D01*
X00025450Y00021668D01*
X00025472Y00021671D01*
X00025493Y00021673D01*
X00025515Y00021674D01*
X00031881Y00021674D01*
X00005573Y00031288D02*
X00005573Y00031288D01*
X00005559Y00031289D01*
X00005545Y00031289D01*
X00005531Y00031291D01*
X00005517Y00031292D01*
X00005503Y00031295D01*
X00005489Y00031297D01*
X00005475Y00031301D01*
X00005461Y00031304D01*
X00005448Y00031309D01*
X00005435Y00031313D01*
X00005421Y00031319D01*
X00005409Y00031324D01*
X00005396Y00031330D01*
X00005383Y00031337D01*
X00005371Y00031344D01*
X00005359Y00031351D01*
X00005347Y00031359D01*
X00005336Y00031368D01*
X00005325Y00031376D01*
X00005314Y00031385D01*
X00004986Y00031672D01*
X00004952Y00031705D01*
X00004922Y00031743D01*
X00004897Y00031783D01*
X00004877Y00031827D01*
X00004863Y00031872D01*
X00004854Y00031919D01*
X00004851Y00031967D01*
X00004853Y00032014D01*
X00004862Y00032061D01*
X00004876Y00032107D01*
X00004895Y00032150D01*
X00004920Y00032191D01*
X00004949Y00032229D01*
X00004983Y00032263D01*
X00005020Y00032292D01*
X00005061Y00032317D01*
X00005105Y00032337D01*
X00005150Y00032351D01*
X00005197Y00032359D01*
X00005245Y00032362D01*
X00009433Y00032362D01*
X00009482Y00032359D01*
X00009530Y00032350D01*
X00009576Y00032336D01*
X00009620Y00032315D01*
X00009661Y00032290D01*
X00009699Y00032259D01*
X00009733Y00032224D01*
X00009762Y00032185D01*
X00009786Y00032143D01*
X00009805Y00032098D01*
X00009818Y00032052D01*
X00009826Y00032004D01*
X00009827Y00031955D01*
X00009822Y00031907D01*
X00009812Y00031859D01*
X00009795Y00031813D01*
X00009773Y00031770D01*
X00009746Y00031730D01*
X00009715Y00031693D01*
X00009678Y00031660D01*
X00009318Y00031374D01*
X00009308Y00031366D01*
X00009297Y00031358D01*
X00009286Y00031351D01*
X00009275Y00031344D01*
X00009263Y00031337D01*
X00009251Y00031331D01*
X00009239Y00031325D01*
X00009227Y00031320D01*
X00009215Y00031315D01*
X00009203Y00031310D01*
X00009190Y00031306D01*
X00009177Y00031302D01*
X00009165Y00031299D01*
X00009152Y00031296D01*
X00009139Y00031294D01*
X00009126Y00031292D01*
X00009113Y00031290D01*
X00009099Y00031289D01*
X00009086Y00031288D01*
X00009073Y00031288D01*
X00005573Y00031288D01*
X00003416Y00032362D02*
X00003416Y00032362D01*
X00003463Y00032359D01*
X00003510Y00032351D01*
X00003556Y00032337D01*
X00003599Y00032317D01*
X00003640Y00032292D01*
X00003678Y00032263D01*
X00003711Y00032229D01*
X00003741Y00032191D01*
X00003765Y00032150D01*
X00003785Y00032107D01*
X00003799Y00032061D01*
X00003807Y00032014D01*
X00003810Y00031967D01*
X00003806Y00031919D01*
X00003798Y00031872D01*
X00003783Y00031827D01*
X00003763Y00031783D01*
X00003738Y00031743D01*
X00003709Y00031705D01*
X00003675Y00031672D01*
X00003346Y00031385D01*
X00003336Y00031376D01*
X00003325Y00031368D01*
X00003313Y00031359D01*
X00003301Y00031351D01*
X00003289Y00031344D01*
X00003277Y00031337D01*
X00003265Y00031330D01*
X00003252Y00031324D01*
X00003239Y00031319D01*
X00003226Y00031313D01*
X00003212Y00031309D01*
X00003199Y00031304D01*
X00003185Y00031301D01*
X00003172Y00031297D01*
X00003158Y00031295D01*
X00003144Y00031292D01*
X00003130Y00031291D01*
X00003116Y00031289D01*
X00003102Y00031289D01*
X00003088Y00031288D01*
X00000830Y00031288D01*
X00000707Y00031279D01*
X00000587Y00031250D01*
X00000473Y00031202D01*
X00000367Y00031138D01*
X00000273Y00031058D01*
X00000193Y00030964D01*
X00000128Y00030858D01*
X00000081Y00030744D01*
X00000052Y00030624D01*
X00000043Y00030501D01*
X00000043Y00022233D01*
X00000052Y00022110D01*
X00000081Y00021990D01*
X00000128Y00021876D01*
X00000193Y00021770D01*
X00000273Y00021676D01*
X00000367Y00021596D01*
X00000473Y00021532D01*
X00000587Y00021484D01*
X00000707Y00021455D01*
X00000830Y00021446D01*
X00002424Y00021446D01*
X00002466Y00021444D01*
X00002507Y00021437D01*
X00002548Y00021426D01*
X00002587Y00021411D01*
X00002624Y00021392D01*
X00002659Y00021369D01*
X00002691Y00021342D01*
X00002720Y00021312D01*
X00002746Y00021279D01*
X00002768Y00021244D01*
X00002787Y00021206D01*
X00002801Y00021167D01*
X00002811Y00021127D01*
X00002817Y00021085D01*
X00002818Y00021043D01*
X00002815Y00021002D01*
X00002807Y00020961D01*
X00002796Y00020921D01*
X00002780Y00020882D01*
X00002760Y00020845D01*
X00002669Y00020698D01*
X00002658Y00020682D01*
X00002646Y00020665D01*
X00002634Y00020650D01*
X00002620Y00020635D01*
X00002606Y00020621D01*
X00002591Y00020607D01*
X00002576Y00020594D01*
X00002560Y00020583D01*
X00002543Y00020571D01*
X00002526Y00020561D01*
X00002508Y00020552D01*
X00002490Y00020544D01*
X00002471Y00020536D01*
X00002452Y00020530D01*
X00002433Y00020524D01*
X00002413Y00020519D01*
X00002394Y00020516D01*
X00002374Y00020513D01*
X00002354Y00020512D01*
X00002334Y00020511D01*
X00000787Y00020511D01*
X00000664Y00020502D01*
X00000544Y00020473D01*
X00000429Y00020426D01*
X00000324Y00020361D01*
X00000230Y00020281D01*
X00000150Y00020187D01*
X00000085Y00020081D01*
X00000038Y00019967D01*
X00000009Y00019847D01*
X00000000Y00019724D01*
X00000000Y00011456D01*
X00000009Y00011333D01*
X00000038Y00011213D01*
X00000085Y00011099D01*
X00000150Y00010993D01*
X00000230Y00010899D01*
X00000324Y00010819D01*
X00000429Y00010755D01*
X00000544Y00010707D01*
X00000664Y00010678D01*
X00000787Y00010669D01*
X00001966Y00010669D01*
X00002003Y00010667D01*
X00002041Y00010662D01*
X00002077Y00010653D01*
X00002112Y00010641D01*
X00002147Y00010625D01*
X00002179Y00010606D01*
X00002210Y00010584D01*
X00002238Y00010560D01*
X00002264Y00010533D01*
X00002287Y00010503D01*
X00002307Y00010472D01*
X00002324Y00010438D01*
X00002338Y00010404D01*
X00002349Y00010368D01*
X00002356Y00010331D01*
X00002359Y00010293D01*
X00002359Y00010256D01*
X00002356Y00010219D01*
X00002349Y00010182D01*
X00002338Y00010146D01*
X00002324Y00010106D01*
X00002316Y00010084D01*
X00002305Y00010062D01*
X00002294Y00010040D01*
X00002281Y00010019D01*
X00002267Y00009999D01*
X00002252Y00009980D01*
X00002236Y00009962D01*
X00002218Y00009945D01*
X00002200Y00009930D01*
X00002181Y00009915D01*
X00002160Y00009901D01*
X00002139Y00009889D01*
X00002117Y00009878D01*
X00002095Y00009869D01*
X00002072Y00009861D01*
X00002049Y00009854D01*
X00002025Y00009849D01*
X00002001Y00009845D01*
X00001977Y00009843D01*
X00001952Y00009842D01*
X00000787Y00009842D01*
X00000664Y00009832D01*
X00000544Y00009803D01*
X00000429Y00009756D01*
X00000324Y00009692D01*
X00000230Y00009611D01*
X00000150Y00009517D01*
X00000085Y00009412D01*
X00000038Y00009298D01*
X00000009Y00009178D01*
X00000000Y00009055D01*
X00000000Y00000787D01*
X00000009Y00000664D01*
X00000038Y00000544D01*
X00000085Y00000429D01*
X00000150Y00000324D01*
X00000230Y00000230D01*
X00000324Y00000150D01*
X00000429Y00000085D01*
X00000544Y00000038D01*
X00000664Y00000009D01*
X00000787Y00000000D01*
X00018741Y00000000D01*
X00018864Y00000010D01*
X00018984Y00000039D01*
X00019098Y00000087D01*
X00019204Y00000152D01*
X00019297Y00000233D01*
X00019377Y00000327D01*
X00019442Y00000432D01*
X00019489Y00000547D01*
X00019518Y00000667D01*
X00019527Y00000790D01*
X00019527Y00003731D01*
X00019528Y00003762D01*
X00019531Y00003792D01*
X00019537Y00003823D01*
X00019546Y00003852D01*
X00019557Y00003881D01*
X00019569Y00003910D01*
X00019585Y00003936D01*
X00019602Y00003962D01*
X00019621Y00003986D01*
X00019642Y00004009D01*
X00019665Y00004030D01*
X00019689Y00004049D01*
X00019715Y00004067D01*
X00019742Y00004082D01*
X00019770Y00004095D01*
X00019799Y00004105D01*
X00019828Y00004114D01*
X00019859Y00004120D01*
X00019889Y00004123D01*
X00019920Y00004125D01*
X00019960Y00004125D01*
X00019991Y00004123D01*
X00020022Y00004120D01*
X00020052Y00004114D01*
X00020082Y00004105D01*
X00020111Y00004095D01*
X00020139Y00004082D01*
X00020166Y00004067D01*
X00020192Y00004049D01*
X00020216Y00004030D01*
X00020239Y00004009D01*
X00020260Y00003987D01*
X00020279Y00003962D01*
X00020296Y00003937D01*
X00020311Y00003910D01*
X00020324Y00003882D01*
X00020335Y00003853D01*
X00020343Y00003823D01*
X00020349Y00003792D01*
X00020353Y00003762D01*
X00020354Y00003731D01*
X00020354Y00000787D01*
X00020364Y00000664D01*
X00020393Y00000544D01*
X00020440Y00000429D01*
X00020505Y00000324D01*
X00020585Y00000230D01*
X00020679Y00000150D01*
X00020784Y00000085D01*
X00020898Y00000038D01*
X00021018Y00000009D01*
X00021142Y00000000D01*
X00035157Y00000000D01*
X00035280Y00000009D01*
X00035400Y00000038D01*
X00035514Y00000085D01*
X00035619Y00000150D01*
X00035713Y00000230D01*
X00035794Y00000324D01*
X00035858Y00000429D01*
X00035905Y00000544D01*
X00035934Y00000664D01*
X00035944Y00000787D01*
X00035944Y00009055D01*
X00035934Y00009178D01*
X00035905Y00009298D01*
X00035858Y00009412D01*
X00035794Y00009517D01*
X00035713Y00009611D01*
X00035619Y00009692D01*
X00035514Y00009756D01*
X00035400Y00009803D01*
X00035280Y00009832D01*
X00035157Y00009842D01*
X00033397Y00009842D01*
X00033373Y00009843D01*
X00033349Y00009845D01*
X00033325Y00009849D01*
X00033302Y00009854D01*
X00033279Y00009860D01*
X00033256Y00009868D01*
X00033234Y00009877D01*
X00033213Y00009887D01*
X00033192Y00009899D01*
X00033172Y00009912D01*
X00033153Y00009926D01*
X00033135Y00009942D01*
X00033117Y00009958D01*
X00033101Y00009976D01*
X00033086Y00009994D01*
X00033072Y00010013D01*
X00033059Y00010033D01*
X00033047Y00010054D01*
X00033037Y00010076D01*
X00033028Y00010098D01*
X00033013Y00010137D01*
X00033001Y00010173D01*
X00032993Y00010210D01*
X00032989Y00010248D01*
X00032988Y00010286D01*
X00032991Y00010324D01*
X00032998Y00010361D01*
X00033008Y00010398D01*
X00033021Y00010433D01*
X00033038Y00010467D01*
X00033058Y00010500D01*
X00033081Y00010530D01*
X00033107Y00010557D01*
X00033136Y00010582D01*
X00033167Y00010605D01*
X00033199Y00010624D01*
X00033234Y00010640D01*
X00033269Y00010652D01*
X00033306Y00010661D01*
X00033344Y00010667D01*
X00033382Y00010669D01*
X00035157Y00010669D01*
X00035280Y00010678D01*
X00035400Y00010707D01*
X00035514Y00010755D01*
X00035619Y00010819D01*
X00035713Y00010899D01*
X00035794Y00010993D01*
X00035858Y00011099D01*
X00035905Y00011213D01*
X00035934Y00011333D01*
X00035944Y00011456D01*
X00035944Y00019724D01*
X00035934Y00019847D01*
X00035905Y00019967D01*
X00035858Y00020081D01*
X00035794Y00020187D01*
X00035713Y00020281D01*
X00035619Y00020361D01*
X00035514Y00020426D01*
X00035400Y00020473D01*
X00035280Y00020502D01*
X00035157Y00020511D01*
X00034084Y00020511D01*
X00034045Y00020513D01*
X00034006Y00020519D01*
X00033967Y00020529D01*
X00033930Y00020543D01*
X00033895Y00020560D01*
X00033861Y00020581D01*
X00033829Y00020605D01*
X00033801Y00020632D01*
X00033775Y00020662D01*
X00033752Y00020694D01*
X00033732Y00020728D01*
X00033716Y00020764D01*
X00033704Y00020802D01*
X00033696Y00020841D01*
X00033691Y00020880D01*
X00033691Y00020920D01*
X00033694Y00020959D01*
X00033701Y00020998D01*
X00033713Y00021036D01*
X00033728Y00021072D01*
X00033904Y00021447D01*
X00033914Y00021467D01*
X00033925Y00021487D01*
X00033937Y00021505D01*
X00033950Y00021523D01*
X00033965Y00021540D01*
X00033980Y00021556D01*
X00033996Y00021572D01*
X00034013Y00021586D01*
X00034030Y00021600D01*
X00034049Y00021612D01*
X00034068Y00021624D01*
X00034088Y00021634D01*
X00034108Y00021643D01*
X00034129Y00021651D01*
X00034150Y00021658D01*
X00034172Y00021664D01*
X00034194Y00021668D01*
X00034216Y00021671D01*
X00034238Y00021673D01*
X00034260Y00021674D01*
X00036166Y00021674D01*
X00036289Y00021683D01*
X00036409Y00021712D01*
X00036523Y00021760D01*
X00036629Y00021824D01*
X00036723Y00021904D01*
X00036803Y00021998D01*
X00036867Y00022104D01*
X00036915Y00022218D01*
X00036944Y00022338D01*
X00036953Y00022461D01*
X00036953Y00034666D01*
X00036944Y00034789D01*
X00036915Y00034909D01*
X00036867Y00035023D01*
X00036803Y00035129D01*
X00036723Y00035223D01*
X00036629Y00035303D01*
X00036523Y00035367D01*
X00036409Y00035415D01*
X00036289Y00035444D01*
X00036166Y00035453D01*
X00022151Y00035453D01*
X00022028Y00035444D01*
X00021908Y00035415D01*
X00021794Y00035367D01*
X00021688Y00035303D01*
X00021594Y00035223D01*
X00021514Y00035129D01*
X00021449Y00035023D01*
X00021402Y00034909D01*
X00021373Y00034789D01*
X00021364Y00034666D01*
X00021364Y00027535D01*
X00021362Y00027503D01*
X00021358Y00027471D01*
X00021352Y00027440D01*
X00021343Y00027409D01*
X00021332Y00027379D01*
X00021318Y00027350D01*
X00021302Y00027322D01*
X00021283Y00027296D01*
X00021263Y00027271D01*
X00021240Y00027249D01*
X00021216Y00027227D01*
X00021190Y00027208D01*
X00021163Y00027192D01*
X00021135Y00027177D01*
X00021105Y00027165D01*
X00021075Y00027155D01*
X00021043Y00027148D01*
X00021012Y00027143D01*
X00020980Y00027141D01*
X00020948Y00027142D01*
X00020764Y00027152D01*
X00020734Y00027155D01*
X00020705Y00027160D01*
X00020676Y00027167D01*
X00020648Y00027177D01*
X00020620Y00027188D01*
X00020594Y00027202D01*
X00020568Y00027217D01*
X00020544Y00027235D01*
X00020521Y00027254D01*
X00020500Y00027275D01*
X00020480Y00027297D01*
X00020463Y00027321D01*
X00020447Y00027346D01*
X00020433Y00027372D01*
X00020420Y00027400D01*
X00020411Y00027428D01*
X00020403Y00027456D01*
X00020397Y00027486D01*
X00020394Y00027515D01*
X00020393Y00027545D01*
X00020393Y00031715D01*
X00016637Y00031715D01*
X00016637Y00027762D01*
X00016635Y00027731D01*
X00016632Y00027701D01*
X00016626Y00027670D01*
X00016617Y00027641D01*
X00016607Y00027612D01*
X00016594Y00027584D01*
X00016579Y00027557D01*
X00016562Y00027531D01*
X00016542Y00027507D01*
X00016521Y00027484D01*
X00016499Y00027463D01*
X00016474Y00027444D01*
X00016449Y00027427D01*
X00016422Y00027412D01*
X00016394Y00027399D01*
X00016365Y00027388D01*
X00016335Y00027379D01*
X00016305Y00027373D01*
X00016274Y00027370D01*
X00016243Y00027369D01*
X00016026Y00027369D01*
X00015995Y00027370D01*
X00015965Y00027373D01*
X00015934Y00027379D01*
X00015904Y00027388D01*
X00015875Y00027399D01*
X00015847Y00027412D01*
X00015820Y00027427D01*
X00015795Y00027444D01*
X00015770Y00027463D01*
X00015748Y00027484D01*
X00015727Y00027507D01*
X00015708Y00027531D01*
X00015690Y00027557D01*
X00015675Y00027584D01*
X00015662Y00027612D01*
X00015652Y00027641D01*
X00015643Y00027670D01*
X00015637Y00027701D01*
X00015634Y00027731D01*
X00015632Y00027762D01*
X00015632Y00030501D01*
X00015623Y00030624D01*
X00015594Y00030744D01*
X00015547Y00030858D01*
X00015482Y00030964D01*
X00015402Y00031058D01*
X00015308Y00031138D01*
X00015202Y00031202D01*
X00015088Y00031250D01*
X00014968Y00031279D01*
X00014845Y00031288D01*
X00011398Y00031288D01*
X00011385Y00031288D01*
X00011372Y00031289D01*
X00011359Y00031290D01*
X00011346Y00031292D01*
X00011333Y00031294D01*
X00011320Y00031296D01*
X00011307Y00031299D01*
X00011294Y00031302D01*
X00011281Y00031306D01*
X00011269Y00031310D01*
X00011256Y00031315D01*
X00011244Y00031320D01*
X00011232Y00031325D01*
X00011220Y00031331D01*
X00011208Y00031337D01*
X00011197Y00031344D01*
X00011186Y00031351D01*
X00011175Y00031358D01*
X00011164Y00031366D01*
X00011153Y00031374D01*
X00010793Y00031660D01*
X00010757Y00031693D01*
X00010725Y00031730D01*
X00010698Y00031770D01*
X00010676Y00031813D01*
X00010660Y00031859D01*
X00010649Y00031907D01*
X00010645Y00031955D01*
X00010646Y00032004D01*
X00010653Y00032052D01*
X00010666Y00032098D01*
X00010685Y00032143D01*
X00010709Y00032185D01*
X00010739Y00032224D01*
X00010772Y00032259D01*
X00010810Y00032290D01*
X00010851Y00032315D01*
X00010896Y00032336D01*
X00010942Y00032350D01*
X00010990Y00032359D01*
X00011038Y00032362D01*
X00012423Y00032362D01*
X00012423Y00036118D01*
X00002345Y00036118D01*
X00002345Y00032362D01*
X00003416Y00032362D01*
M02*