G04 #@! TF.GenerationSoftware,KiCad,Pcbnew,(5.1.12)-1*
G04 #@! TF.CreationDate,2022-03-18T16:38:41+08:00*
G04 #@! TF.ProjectId,Printhead-Driver,5072696e-7468-4656-9164-2d4472697665,V0.5*
G04 #@! TF.SameCoordinates,Original*
G04 #@! TF.FileFunction,Legend,Bot*
G04 #@! TF.FilePolarity,Positive*
%FSLAX46Y46*%
G04 Gerber Fmt 4.6, Leading zero omitted, Abs format (unit mm)*
G04 Created by KiCad (PCBNEW (5.1.12)-1) date 2022-03-18 16:38:41*
%MOMM*%
%LPD*%
G01*
G04 APERTURE LIST*
%ADD10C,0.150000*%
%ADD11C,0.120000*%
%ADD12C,0.300000*%
%ADD13C,0.200000*%
G04 APERTURE END LIST*
D10*
X140127952Y-100465880D02*
X140127952Y-99465880D01*
X139556523Y-100465880D01*
X139556523Y-99465880D01*
X138937476Y-100465880D02*
X139032714Y-100418261D01*
X139080333Y-100370642D01*
X139127952Y-100275404D01*
X139127952Y-99989690D01*
X139080333Y-99894452D01*
X139032714Y-99846833D01*
X138937476Y-99799214D01*
X138794619Y-99799214D01*
X138699380Y-99846833D01*
X138651761Y-99894452D01*
X138604142Y-99989690D01*
X138604142Y-100275404D01*
X138651761Y-100370642D01*
X138699380Y-100418261D01*
X138794619Y-100465880D01*
X138937476Y-100465880D01*
X138270809Y-99799214D02*
X137747000Y-99799214D01*
X138270809Y-100465880D01*
X137747000Y-100465880D01*
X137461285Y-99799214D02*
X136937476Y-99799214D01*
X137461285Y-100465880D01*
X136937476Y-100465880D01*
X136413666Y-100465880D02*
X136508904Y-100418261D01*
X136556523Y-100323023D01*
X136556523Y-99465880D01*
X135651761Y-100418261D02*
X135747000Y-100465880D01*
X135937476Y-100465880D01*
X136032714Y-100418261D01*
X136080333Y-100323023D01*
X136080333Y-99942071D01*
X136032714Y-99846833D01*
X135937476Y-99799214D01*
X135747000Y-99799214D01*
X135651761Y-99846833D01*
X135604142Y-99942071D01*
X135604142Y-100037309D01*
X136080333Y-100132547D01*
X134556523Y-99465880D02*
X134223190Y-100465880D01*
X133889857Y-99465880D01*
X133413666Y-100465880D02*
X133508904Y-100418261D01*
X133556523Y-100370642D01*
X133604142Y-100275404D01*
X133604142Y-99989690D01*
X133556523Y-99894452D01*
X133508904Y-99846833D01*
X133413666Y-99799214D01*
X133270809Y-99799214D01*
X133175571Y-99846833D01*
X133127952Y-99894452D01*
X133080333Y-99989690D01*
X133080333Y-100275404D01*
X133127952Y-100370642D01*
X133175571Y-100418261D01*
X133270809Y-100465880D01*
X133413666Y-100465880D01*
X132508904Y-100465880D02*
X132604142Y-100418261D01*
X132651761Y-100323023D01*
X132651761Y-99465880D01*
X132270809Y-99799214D02*
X131889857Y-99799214D01*
X132127952Y-99465880D02*
X132127952Y-100323023D01*
X132080333Y-100418261D01*
X131985095Y-100465880D01*
X131889857Y-100465880D01*
X131127952Y-100465880D02*
X131127952Y-99942071D01*
X131175571Y-99846833D01*
X131270809Y-99799214D01*
X131461285Y-99799214D01*
X131556523Y-99846833D01*
X131127952Y-100418261D02*
X131223190Y-100465880D01*
X131461285Y-100465880D01*
X131556523Y-100418261D01*
X131604142Y-100323023D01*
X131604142Y-100227785D01*
X131556523Y-100132547D01*
X131461285Y-100084928D01*
X131223190Y-100084928D01*
X131127952Y-100037309D01*
X130223190Y-99799214D02*
X130223190Y-100608738D01*
X130270809Y-100703976D01*
X130318428Y-100751595D01*
X130413666Y-100799214D01*
X130556523Y-100799214D01*
X130651761Y-100751595D01*
X130223190Y-100418261D02*
X130318428Y-100465880D01*
X130508904Y-100465880D01*
X130604142Y-100418261D01*
X130651761Y-100370642D01*
X130699380Y-100275404D01*
X130699380Y-99989690D01*
X130651761Y-99894452D01*
X130604142Y-99846833D01*
X130508904Y-99799214D01*
X130318428Y-99799214D01*
X130223190Y-99846833D01*
X129366047Y-100418261D02*
X129461285Y-100465880D01*
X129651761Y-100465880D01*
X129747000Y-100418261D01*
X129794619Y-100323023D01*
X129794619Y-99942071D01*
X129747000Y-99846833D01*
X129651761Y-99799214D01*
X129461285Y-99799214D01*
X129366047Y-99846833D01*
X129318428Y-99942071D01*
X129318428Y-100037309D01*
X129794619Y-100132547D01*
X138651761Y-101830166D02*
X138175571Y-101830166D01*
X138747000Y-102115880D02*
X138413666Y-101115880D01*
X138080333Y-102115880D01*
X137318428Y-102115880D02*
X137318428Y-101115880D01*
X137318428Y-102068261D02*
X137413666Y-102115880D01*
X137604142Y-102115880D01*
X137699380Y-102068261D01*
X137747000Y-102020642D01*
X137794619Y-101925404D01*
X137794619Y-101639690D01*
X137747000Y-101544452D01*
X137699380Y-101496833D01*
X137604142Y-101449214D01*
X137413666Y-101449214D01*
X137318428Y-101496833D01*
X136842238Y-101449214D02*
X136842238Y-102306357D01*
X136889857Y-102401595D01*
X136985095Y-102449214D01*
X137032714Y-102449214D01*
X136842238Y-101115880D02*
X136889857Y-101163500D01*
X136842238Y-101211119D01*
X136794619Y-101163500D01*
X136842238Y-101115880D01*
X136842238Y-101211119D01*
X135937476Y-101449214D02*
X135937476Y-102115880D01*
X136366047Y-101449214D02*
X136366047Y-101973023D01*
X136318428Y-102068261D01*
X136223190Y-102115880D01*
X136080333Y-102115880D01*
X135985095Y-102068261D01*
X135937476Y-102020642D01*
X135508904Y-102068261D02*
X135413666Y-102115880D01*
X135223190Y-102115880D01*
X135127952Y-102068261D01*
X135080333Y-101973023D01*
X135080333Y-101925404D01*
X135127952Y-101830166D01*
X135223190Y-101782547D01*
X135366047Y-101782547D01*
X135461285Y-101734928D01*
X135508904Y-101639690D01*
X135508904Y-101592071D01*
X135461285Y-101496833D01*
X135366047Y-101449214D01*
X135223190Y-101449214D01*
X135127952Y-101496833D01*
X134794619Y-101449214D02*
X134413666Y-101449214D01*
X134651761Y-101115880D02*
X134651761Y-101973023D01*
X134604142Y-102068261D01*
X134508904Y-102115880D01*
X134413666Y-102115880D01*
X134080333Y-102115880D02*
X134080333Y-101449214D01*
X134080333Y-101544452D02*
X134032714Y-101496833D01*
X133937476Y-101449214D01*
X133794619Y-101449214D01*
X133699380Y-101496833D01*
X133651761Y-101592071D01*
X133651761Y-102115880D01*
X133651761Y-101592071D02*
X133604142Y-101496833D01*
X133508904Y-101449214D01*
X133366047Y-101449214D01*
X133270809Y-101496833D01*
X133223190Y-101592071D01*
X133223190Y-102115880D01*
X132366047Y-102068261D02*
X132461285Y-102115880D01*
X132651761Y-102115880D01*
X132747000Y-102068261D01*
X132794619Y-101973023D01*
X132794619Y-101592071D01*
X132747000Y-101496833D01*
X132651761Y-101449214D01*
X132461285Y-101449214D01*
X132366047Y-101496833D01*
X132318428Y-101592071D01*
X132318428Y-101687309D01*
X132794619Y-101782547D01*
X131889857Y-101449214D02*
X131889857Y-102115880D01*
X131889857Y-101544452D02*
X131842238Y-101496833D01*
X131747000Y-101449214D01*
X131604142Y-101449214D01*
X131508904Y-101496833D01*
X131461285Y-101592071D01*
X131461285Y-102115880D01*
X131127952Y-101449214D02*
X130747000Y-101449214D01*
X130985095Y-101115880D02*
X130985095Y-101973023D01*
X130937476Y-102068261D01*
X130842238Y-102115880D01*
X130747000Y-102115880D01*
X138747000Y-102765880D02*
X138127952Y-102765880D01*
X138461285Y-103146833D01*
X138318428Y-103146833D01*
X138223190Y-103194452D01*
X138175571Y-103242071D01*
X138127952Y-103337309D01*
X138127952Y-103575404D01*
X138175571Y-103670642D01*
X138223190Y-103718261D01*
X138318428Y-103765880D01*
X138604142Y-103765880D01*
X138699380Y-103718261D01*
X138747000Y-103670642D01*
X137508904Y-102765880D02*
X137413666Y-102765880D01*
X137318428Y-102813500D01*
X137270809Y-102861119D01*
X137223190Y-102956357D01*
X137175571Y-103146833D01*
X137175571Y-103384928D01*
X137223190Y-103575404D01*
X137270809Y-103670642D01*
X137318428Y-103718261D01*
X137413666Y-103765880D01*
X137508904Y-103765880D01*
X137604142Y-103718261D01*
X137651761Y-103670642D01*
X137699380Y-103575404D01*
X137747000Y-103384928D01*
X137747000Y-103146833D01*
X137699380Y-102956357D01*
X137651761Y-102861119D01*
X137604142Y-102813500D01*
X137508904Y-102765880D01*
X136889857Y-102765880D02*
X136556523Y-103765880D01*
X136223190Y-102765880D01*
X135127952Y-103384928D02*
X134366047Y-103384928D01*
X132699380Y-103099214D02*
X132699380Y-103765880D01*
X132937476Y-102718261D02*
X133175571Y-103432547D01*
X132556523Y-103432547D01*
X132032714Y-103194452D02*
X132127952Y-103146833D01*
X132175571Y-103099214D01*
X132223190Y-103003976D01*
X132223190Y-102956357D01*
X132175571Y-102861119D01*
X132127952Y-102813500D01*
X132032714Y-102765880D01*
X131842238Y-102765880D01*
X131747000Y-102813500D01*
X131699380Y-102861119D01*
X131651761Y-102956357D01*
X131651761Y-103003976D01*
X131699380Y-103099214D01*
X131747000Y-103146833D01*
X131842238Y-103194452D01*
X132032714Y-103194452D01*
X132127952Y-103242071D01*
X132175571Y-103289690D01*
X132223190Y-103384928D01*
X132223190Y-103575404D01*
X132175571Y-103670642D01*
X132127952Y-103718261D01*
X132032714Y-103765880D01*
X131842238Y-103765880D01*
X131747000Y-103718261D01*
X131699380Y-103670642D01*
X131651761Y-103575404D01*
X131651761Y-103384928D01*
X131699380Y-103289690D01*
X131747000Y-103242071D01*
X131842238Y-103194452D01*
X131366047Y-102765880D02*
X131032714Y-103765880D01*
X130699380Y-102765880D01*
X155820476Y-122959880D02*
X155249047Y-122959880D01*
X155534761Y-123959880D02*
X155534761Y-122959880D01*
X154772857Y-123959880D02*
X154868095Y-123912261D01*
X154915714Y-123864642D01*
X154963333Y-123769404D01*
X154963333Y-123483690D01*
X154915714Y-123388452D01*
X154868095Y-123340833D01*
X154772857Y-123293214D01*
X154630000Y-123293214D01*
X154534761Y-123340833D01*
X154487142Y-123388452D01*
X154439523Y-123483690D01*
X154439523Y-123769404D01*
X154487142Y-123864642D01*
X154534761Y-123912261D01*
X154630000Y-123959880D01*
X154772857Y-123959880D01*
X153249047Y-123959880D02*
X153249047Y-122959880D01*
X152868095Y-122959880D01*
X152772857Y-123007500D01*
X152725238Y-123055119D01*
X152677619Y-123150357D01*
X152677619Y-123293214D01*
X152725238Y-123388452D01*
X152772857Y-123436071D01*
X152868095Y-123483690D01*
X153249047Y-123483690D01*
X152249047Y-123959880D02*
X152249047Y-123293214D01*
X152249047Y-123483690D02*
X152201428Y-123388452D01*
X152153809Y-123340833D01*
X152058571Y-123293214D01*
X151963333Y-123293214D01*
X151630000Y-123959880D02*
X151630000Y-123293214D01*
X151630000Y-122959880D02*
X151677619Y-123007500D01*
X151630000Y-123055119D01*
X151582380Y-123007500D01*
X151630000Y-122959880D01*
X151630000Y-123055119D01*
X151153809Y-123293214D02*
X151153809Y-123959880D01*
X151153809Y-123388452D02*
X151106190Y-123340833D01*
X151010952Y-123293214D01*
X150868095Y-123293214D01*
X150772857Y-123340833D01*
X150725238Y-123436071D01*
X150725238Y-123959880D01*
X150391904Y-123293214D02*
X150010952Y-123293214D01*
X150249047Y-122959880D02*
X150249047Y-123817023D01*
X150201428Y-123912261D01*
X150106190Y-123959880D01*
X150010952Y-123959880D01*
X149677619Y-123959880D02*
X149677619Y-122959880D01*
X149249047Y-123959880D02*
X149249047Y-123436071D01*
X149296666Y-123340833D01*
X149391904Y-123293214D01*
X149534761Y-123293214D01*
X149630000Y-123340833D01*
X149677619Y-123388452D01*
X148391904Y-123912261D02*
X148487142Y-123959880D01*
X148677619Y-123959880D01*
X148772857Y-123912261D01*
X148820476Y-123817023D01*
X148820476Y-123436071D01*
X148772857Y-123340833D01*
X148677619Y-123293214D01*
X148487142Y-123293214D01*
X148391904Y-123340833D01*
X148344285Y-123436071D01*
X148344285Y-123531309D01*
X148820476Y-123626547D01*
X147487142Y-123959880D02*
X147487142Y-123436071D01*
X147534761Y-123340833D01*
X147630000Y-123293214D01*
X147820476Y-123293214D01*
X147915714Y-123340833D01*
X147487142Y-123912261D02*
X147582380Y-123959880D01*
X147820476Y-123959880D01*
X147915714Y-123912261D01*
X147963333Y-123817023D01*
X147963333Y-123721785D01*
X147915714Y-123626547D01*
X147820476Y-123578928D01*
X147582380Y-123578928D01*
X147487142Y-123531309D01*
X146582380Y-123959880D02*
X146582380Y-122959880D01*
X146582380Y-123912261D02*
X146677619Y-123959880D01*
X146868095Y-123959880D01*
X146963333Y-123912261D01*
X147010952Y-123864642D01*
X147058571Y-123769404D01*
X147058571Y-123483690D01*
X147010952Y-123388452D01*
X146963333Y-123340833D01*
X146868095Y-123293214D01*
X146677619Y-123293214D01*
X146582380Y-123340833D01*
X188999476Y-77335571D02*
X189332809Y-77335571D01*
X189332809Y-77859380D02*
X189332809Y-76859380D01*
X188856619Y-76859380D01*
X188475666Y-77859380D02*
X188475666Y-77192714D01*
X188475666Y-77383190D02*
X188428047Y-77287952D01*
X188380428Y-77240333D01*
X188285190Y-77192714D01*
X188189952Y-77192714D01*
X187713761Y-77859380D02*
X187809000Y-77811761D01*
X187856619Y-77764142D01*
X187904238Y-77668904D01*
X187904238Y-77383190D01*
X187856619Y-77287952D01*
X187809000Y-77240333D01*
X187713761Y-77192714D01*
X187570904Y-77192714D01*
X187475666Y-77240333D01*
X187428047Y-77287952D01*
X187380428Y-77383190D01*
X187380428Y-77668904D01*
X187428047Y-77764142D01*
X187475666Y-77811761D01*
X187570904Y-77859380D01*
X187713761Y-77859380D01*
X186951857Y-77859380D02*
X186951857Y-77192714D01*
X186951857Y-77287952D02*
X186904238Y-77240333D01*
X186808999Y-77192714D01*
X186666142Y-77192714D01*
X186570904Y-77240333D01*
X186523285Y-77335571D01*
X186523285Y-77859380D01*
X186523285Y-77335571D02*
X186475666Y-77240333D01*
X186380428Y-77192714D01*
X186237571Y-77192714D01*
X186142333Y-77240333D01*
X186094714Y-77335571D01*
X186094714Y-77859380D01*
X184856619Y-77859380D02*
X184856619Y-76859380D01*
X184475666Y-76859380D01*
X184380428Y-76907000D01*
X184332809Y-76954619D01*
X184285190Y-77049857D01*
X184285190Y-77192714D01*
X184332809Y-77287952D01*
X184380428Y-77335571D01*
X184475666Y-77383190D01*
X184856619Y-77383190D01*
X183856619Y-77859380D02*
X183856619Y-76859380D01*
X183856619Y-77335571D02*
X183285190Y-77335571D01*
X183285190Y-77859380D02*
X183285190Y-76859380D01*
X189213761Y-79414142D02*
X189261380Y-79461761D01*
X189404238Y-79509380D01*
X189499476Y-79509380D01*
X189642333Y-79461761D01*
X189737571Y-79366523D01*
X189785190Y-79271285D01*
X189832809Y-79080809D01*
X189832809Y-78937952D01*
X189785190Y-78747476D01*
X189737571Y-78652238D01*
X189642333Y-78557000D01*
X189499476Y-78509380D01*
X189404238Y-78509380D01*
X189261380Y-78557000D01*
X189213761Y-78604619D01*
X188642333Y-79509380D02*
X188737571Y-79461761D01*
X188785190Y-79414142D01*
X188832809Y-79318904D01*
X188832809Y-79033190D01*
X188785190Y-78937952D01*
X188737571Y-78890333D01*
X188642333Y-78842714D01*
X188499476Y-78842714D01*
X188404238Y-78890333D01*
X188356619Y-78937952D01*
X188309000Y-79033190D01*
X188309000Y-79318904D01*
X188356619Y-79414142D01*
X188404238Y-79461761D01*
X188499476Y-79509380D01*
X188642333Y-79509380D01*
X187880428Y-78842714D02*
X187880428Y-79509380D01*
X187880428Y-78937952D02*
X187832809Y-78890333D01*
X187737571Y-78842714D01*
X187594714Y-78842714D01*
X187499476Y-78890333D01*
X187451857Y-78985571D01*
X187451857Y-79509380D01*
X187118523Y-78842714D02*
X186737571Y-78842714D01*
X186975666Y-78509380D02*
X186975666Y-79366523D01*
X186928047Y-79461761D01*
X186832809Y-79509380D01*
X186737571Y-79509380D01*
X186404238Y-79509380D02*
X186404238Y-78842714D01*
X186404238Y-79033190D02*
X186356619Y-78937952D01*
X186309000Y-78890333D01*
X186213761Y-78842714D01*
X186118523Y-78842714D01*
X185642333Y-79509380D02*
X185737571Y-79461761D01*
X185785190Y-79414142D01*
X185832809Y-79318904D01*
X185832809Y-79033190D01*
X185785190Y-78937952D01*
X185737571Y-78890333D01*
X185642333Y-78842714D01*
X185499476Y-78842714D01*
X185404238Y-78890333D01*
X185356619Y-78937952D01*
X185309000Y-79033190D01*
X185309000Y-79318904D01*
X185356619Y-79414142D01*
X185404238Y-79461761D01*
X185499476Y-79509380D01*
X185642333Y-79509380D01*
X184737571Y-79509380D02*
X184832809Y-79461761D01*
X184880428Y-79366523D01*
X184880428Y-78509380D01*
X184213761Y-79509380D02*
X184309000Y-79461761D01*
X184356619Y-79366523D01*
X184356619Y-78509380D01*
X183451857Y-79461761D02*
X183547095Y-79509380D01*
X183737571Y-79509380D01*
X183832809Y-79461761D01*
X183880428Y-79366523D01*
X183880428Y-78985571D01*
X183832809Y-78890333D01*
X183737571Y-78842714D01*
X183547095Y-78842714D01*
X183451857Y-78890333D01*
X183404238Y-78985571D01*
X183404238Y-79080809D01*
X183880428Y-79176047D01*
X182975666Y-79509380D02*
X182975666Y-78842714D01*
X182975666Y-79033190D02*
X182928047Y-78937952D01*
X182880428Y-78890333D01*
X182785190Y-78842714D01*
X182689952Y-78842714D01*
X174156214Y-69810380D02*
X173537166Y-69810380D01*
X173870500Y-70191333D01*
X173727642Y-70191333D01*
X173632404Y-70238952D01*
X173584785Y-70286571D01*
X173537166Y-70381809D01*
X173537166Y-70619904D01*
X173584785Y-70715142D01*
X173632404Y-70762761D01*
X173727642Y-70810380D01*
X174013357Y-70810380D01*
X174108595Y-70762761D01*
X174156214Y-70715142D01*
X173108595Y-70715142D02*
X173060976Y-70762761D01*
X173108595Y-70810380D01*
X173156214Y-70762761D01*
X173108595Y-70715142D01*
X173108595Y-70810380D01*
X172727642Y-69810380D02*
X172108595Y-69810380D01*
X172441928Y-70191333D01*
X172299071Y-70191333D01*
X172203833Y-70238952D01*
X172156214Y-70286571D01*
X172108595Y-70381809D01*
X172108595Y-70619904D01*
X172156214Y-70715142D01*
X172203833Y-70762761D01*
X172299071Y-70810380D01*
X172584785Y-70810380D01*
X172680023Y-70762761D01*
X172727642Y-70715142D01*
X171822880Y-69810380D02*
X171489547Y-70810380D01*
X171156214Y-69810380D01*
X169441928Y-70334190D02*
X169489547Y-70286571D01*
X169584785Y-70238952D01*
X169680023Y-70238952D01*
X169775261Y-70286571D01*
X169822880Y-70334190D01*
X169870500Y-70429428D01*
X169870500Y-70524666D01*
X169822880Y-70619904D01*
X169775261Y-70667523D01*
X169680023Y-70715142D01*
X169584785Y-70715142D01*
X169489547Y-70667523D01*
X169441928Y-70619904D01*
X169441928Y-70238952D02*
X169441928Y-70619904D01*
X169394309Y-70667523D01*
X169346690Y-70667523D01*
X169251452Y-70619904D01*
X169203833Y-70524666D01*
X169203833Y-70286571D01*
X169299071Y-70143714D01*
X169441928Y-70048476D01*
X169632404Y-70000857D01*
X169822880Y-70048476D01*
X169965738Y-70143714D01*
X170060976Y-70286571D01*
X170108595Y-70477047D01*
X170060976Y-70667523D01*
X169965738Y-70810380D01*
X169822880Y-70905619D01*
X169632404Y-70953238D01*
X169441928Y-70905619D01*
X169299071Y-70810380D01*
X167489547Y-70810380D02*
X168060976Y-70810380D01*
X167775261Y-70810380D02*
X167775261Y-69810380D01*
X167870500Y-69953238D01*
X167965738Y-70048476D01*
X168060976Y-70096095D01*
X167108595Y-70524666D02*
X166632404Y-70524666D01*
X167203833Y-70810380D02*
X166870500Y-69810380D01*
X166537166Y-70810380D01*
X175513904Y-63571500D02*
X175609142Y-63523880D01*
X175752000Y-63523880D01*
X175894857Y-63571500D01*
X175990095Y-63666738D01*
X176037714Y-63761976D01*
X176085333Y-63952452D01*
X176085333Y-64095309D01*
X176037714Y-64285785D01*
X175990095Y-64381023D01*
X175894857Y-64476261D01*
X175752000Y-64523880D01*
X175656761Y-64523880D01*
X175513904Y-64476261D01*
X175466285Y-64428642D01*
X175466285Y-64095309D01*
X175656761Y-64095309D01*
X175037714Y-64523880D02*
X175037714Y-63523880D01*
X174466285Y-64523880D01*
X174466285Y-63523880D01*
X173990095Y-64523880D02*
X173990095Y-63523880D01*
X173752000Y-63523880D01*
X173609142Y-63571500D01*
X173513904Y-63666738D01*
X173466285Y-63761976D01*
X173418666Y-63952452D01*
X173418666Y-64095309D01*
X173466285Y-64285785D01*
X173513904Y-64381023D01*
X173609142Y-64476261D01*
X173752000Y-64523880D01*
X173990095Y-64523880D01*
D11*
X173736000Y-89725500D02*
X172910500Y-88900000D01*
X172656500Y-94170500D02*
X173609000Y-95123000D01*
D10*
X176902904Y-87448380D02*
X176902904Y-86448380D01*
X176902904Y-86924571D02*
X176331476Y-86924571D01*
X176331476Y-87448380D02*
X176331476Y-86448380D01*
X175426714Y-87448380D02*
X175426714Y-86924571D01*
X175474333Y-86829333D01*
X175569571Y-86781714D01*
X175760047Y-86781714D01*
X175855285Y-86829333D01*
X175426714Y-87400761D02*
X175521952Y-87448380D01*
X175760047Y-87448380D01*
X175855285Y-87400761D01*
X175902904Y-87305523D01*
X175902904Y-87210285D01*
X175855285Y-87115047D01*
X175760047Y-87067428D01*
X175521952Y-87067428D01*
X175426714Y-87019809D01*
X174807666Y-87448380D02*
X174902904Y-87400761D01*
X174950523Y-87305523D01*
X174950523Y-86448380D01*
X174283857Y-87448380D02*
X174379095Y-87400761D01*
X174426714Y-87305523D01*
X174426714Y-86448380D01*
X177569571Y-88574571D02*
X177236238Y-88574571D01*
X177093380Y-89098380D02*
X177569571Y-89098380D01*
X177569571Y-88098380D01*
X177093380Y-88098380D01*
X176807666Y-88431714D02*
X176426714Y-88431714D01*
X176664809Y-89098380D02*
X176664809Y-88241238D01*
X176617190Y-88146000D01*
X176521952Y-88098380D01*
X176426714Y-88098380D01*
X176236238Y-88431714D02*
X175855285Y-88431714D01*
X176093380Y-89098380D02*
X176093380Y-88241238D01*
X176045761Y-88146000D01*
X175950523Y-88098380D01*
X175855285Y-88098380D01*
X175141000Y-89050761D02*
X175236238Y-89098380D01*
X175426714Y-89098380D01*
X175521952Y-89050761D01*
X175569571Y-88955523D01*
X175569571Y-88574571D01*
X175521952Y-88479333D01*
X175426714Y-88431714D01*
X175236238Y-88431714D01*
X175141000Y-88479333D01*
X175093380Y-88574571D01*
X175093380Y-88669809D01*
X175569571Y-88765047D01*
X174236238Y-89050761D02*
X174331476Y-89098380D01*
X174521952Y-89098380D01*
X174617190Y-89050761D01*
X174664809Y-89003142D01*
X174712428Y-88907904D01*
X174712428Y-88622190D01*
X174664809Y-88526952D01*
X174617190Y-88479333D01*
X174521952Y-88431714D01*
X174331476Y-88431714D01*
X174236238Y-88479333D01*
X173950523Y-88431714D02*
X173569571Y-88431714D01*
X173807666Y-88098380D02*
X173807666Y-88955523D01*
X173760047Y-89050761D01*
X173664809Y-89098380D01*
X173569571Y-89098380D01*
X177450523Y-90653142D02*
X177498142Y-90700761D01*
X177641000Y-90748380D01*
X177736238Y-90748380D01*
X177879095Y-90700761D01*
X177974333Y-90605523D01*
X178021952Y-90510285D01*
X178069571Y-90319809D01*
X178069571Y-90176952D01*
X178021952Y-89986476D01*
X177974333Y-89891238D01*
X177879095Y-89796000D01*
X177736238Y-89748380D01*
X177641000Y-89748380D01*
X177498142Y-89796000D01*
X177450523Y-89843619D01*
X176593380Y-90081714D02*
X176593380Y-90748380D01*
X177021952Y-90081714D02*
X177021952Y-90605523D01*
X176974333Y-90700761D01*
X176879095Y-90748380D01*
X176736238Y-90748380D01*
X176641000Y-90700761D01*
X176593380Y-90653142D01*
X176117190Y-90748380D02*
X176117190Y-90081714D01*
X176117190Y-90272190D02*
X176069571Y-90176952D01*
X176021952Y-90129333D01*
X175926714Y-90081714D01*
X175831476Y-90081714D01*
X175545761Y-90700761D02*
X175402904Y-90748380D01*
X175164809Y-90748380D01*
X175069571Y-90700761D01*
X175021952Y-90653142D01*
X174974333Y-90557904D01*
X174974333Y-90462666D01*
X175021952Y-90367428D01*
X175069571Y-90319809D01*
X175164809Y-90272190D01*
X175355285Y-90224571D01*
X175450523Y-90176952D01*
X175498142Y-90129333D01*
X175545761Y-90034095D01*
X175545761Y-89938857D01*
X175498142Y-89843619D01*
X175450523Y-89796000D01*
X175355285Y-89748380D01*
X175117190Y-89748380D01*
X174974333Y-89796000D01*
X174164809Y-90700761D02*
X174260047Y-90748380D01*
X174450523Y-90748380D01*
X174545761Y-90700761D01*
X174593380Y-90605523D01*
X174593380Y-90224571D01*
X174545761Y-90129333D01*
X174450523Y-90081714D01*
X174260047Y-90081714D01*
X174164809Y-90129333D01*
X174117190Y-90224571D01*
X174117190Y-90319809D01*
X174593380Y-90415047D01*
X173688619Y-90081714D02*
X173688619Y-90748380D01*
X173688619Y-90176952D02*
X173641000Y-90129333D01*
X173545761Y-90081714D01*
X173402904Y-90081714D01*
X173307666Y-90129333D01*
X173260047Y-90224571D01*
X173260047Y-90748380D01*
X176180333Y-96337880D02*
X176180333Y-95337880D01*
X175608904Y-96337880D01*
X175608904Y-95337880D01*
X175227952Y-95337880D02*
X174561285Y-95337880D01*
X174989857Y-96337880D01*
X173466047Y-96290261D02*
X173323190Y-96337880D01*
X173085095Y-96337880D01*
X172989857Y-96290261D01*
X172942238Y-96242642D01*
X172894619Y-96147404D01*
X172894619Y-96052166D01*
X172942238Y-95956928D01*
X172989857Y-95909309D01*
X173085095Y-95861690D01*
X173275571Y-95814071D01*
X173370809Y-95766452D01*
X173418428Y-95718833D01*
X173466047Y-95623595D01*
X173466047Y-95528357D01*
X173418428Y-95433119D01*
X173370809Y-95385500D01*
X173275571Y-95337880D01*
X173037476Y-95337880D01*
X172894619Y-95385500D01*
X172085095Y-96290261D02*
X172180333Y-96337880D01*
X172370809Y-96337880D01*
X172466047Y-96290261D01*
X172513666Y-96195023D01*
X172513666Y-95814071D01*
X172466047Y-95718833D01*
X172370809Y-95671214D01*
X172180333Y-95671214D01*
X172085095Y-95718833D01*
X172037476Y-95814071D01*
X172037476Y-95909309D01*
X172513666Y-96004547D01*
X171608904Y-95671214D02*
X171608904Y-96337880D01*
X171608904Y-95766452D02*
X171561285Y-95718833D01*
X171466047Y-95671214D01*
X171323190Y-95671214D01*
X171227952Y-95718833D01*
X171180333Y-95814071D01*
X171180333Y-96337880D01*
X170751761Y-96290261D02*
X170656523Y-96337880D01*
X170466047Y-96337880D01*
X170370809Y-96290261D01*
X170323190Y-96195023D01*
X170323190Y-96147404D01*
X170370809Y-96052166D01*
X170466047Y-96004547D01*
X170608904Y-96004547D01*
X170704142Y-95956928D01*
X170751761Y-95861690D01*
X170751761Y-95814071D01*
X170704142Y-95718833D01*
X170608904Y-95671214D01*
X170466047Y-95671214D01*
X170370809Y-95718833D01*
X169513666Y-96290261D02*
X169608904Y-96337880D01*
X169799380Y-96337880D01*
X169894619Y-96290261D01*
X169942238Y-96195023D01*
X169942238Y-95814071D01*
X169894619Y-95718833D01*
X169799380Y-95671214D01*
X169608904Y-95671214D01*
X169513666Y-95718833D01*
X169466047Y-95814071D01*
X169466047Y-95909309D01*
X169942238Y-96004547D01*
X175061285Y-97987880D02*
X175394619Y-97511690D01*
X175632714Y-97987880D02*
X175632714Y-96987880D01*
X175251761Y-96987880D01*
X175156523Y-97035500D01*
X175108904Y-97083119D01*
X175061285Y-97178357D01*
X175061285Y-97321214D01*
X175108904Y-97416452D01*
X175156523Y-97464071D01*
X175251761Y-97511690D01*
X175632714Y-97511690D01*
X174251761Y-97940261D02*
X174347000Y-97987880D01*
X174537476Y-97987880D01*
X174632714Y-97940261D01*
X174680333Y-97845023D01*
X174680333Y-97464071D01*
X174632714Y-97368833D01*
X174537476Y-97321214D01*
X174347000Y-97321214D01*
X174251761Y-97368833D01*
X174204142Y-97464071D01*
X174204142Y-97559309D01*
X174680333Y-97654547D01*
X173823190Y-97940261D02*
X173727952Y-97987880D01*
X173537476Y-97987880D01*
X173442238Y-97940261D01*
X173394619Y-97845023D01*
X173394619Y-97797404D01*
X173442238Y-97702166D01*
X173537476Y-97654547D01*
X173680333Y-97654547D01*
X173775571Y-97606928D01*
X173823190Y-97511690D01*
X173823190Y-97464071D01*
X173775571Y-97368833D01*
X173680333Y-97321214D01*
X173537476Y-97321214D01*
X173442238Y-97368833D01*
X172966047Y-97987880D02*
X172966047Y-97321214D01*
X172966047Y-96987880D02*
X173013666Y-97035500D01*
X172966047Y-97083119D01*
X172918428Y-97035500D01*
X172966047Y-96987880D01*
X172966047Y-97083119D01*
X172537476Y-97940261D02*
X172442238Y-97987880D01*
X172251761Y-97987880D01*
X172156523Y-97940261D01*
X172108904Y-97845023D01*
X172108904Y-97797404D01*
X172156523Y-97702166D01*
X172251761Y-97654547D01*
X172394619Y-97654547D01*
X172489857Y-97606928D01*
X172537476Y-97511690D01*
X172537476Y-97464071D01*
X172489857Y-97368833D01*
X172394619Y-97321214D01*
X172251761Y-97321214D01*
X172156523Y-97368833D01*
X171823190Y-97321214D02*
X171442238Y-97321214D01*
X171680333Y-96987880D02*
X171680333Y-97845023D01*
X171632714Y-97940261D01*
X171537476Y-97987880D01*
X171442238Y-97987880D01*
X170966047Y-97987880D02*
X171061285Y-97940261D01*
X171108904Y-97892642D01*
X171156523Y-97797404D01*
X171156523Y-97511690D01*
X171108904Y-97416452D01*
X171061285Y-97368833D01*
X170966047Y-97321214D01*
X170823190Y-97321214D01*
X170727952Y-97368833D01*
X170680333Y-97416452D01*
X170632714Y-97511690D01*
X170632714Y-97797404D01*
X170680333Y-97892642D01*
X170727952Y-97940261D01*
X170823190Y-97987880D01*
X170966047Y-97987880D01*
X170204142Y-97987880D02*
X170204142Y-97321214D01*
X170204142Y-97511690D02*
X170156523Y-97416452D01*
X170108904Y-97368833D01*
X170013666Y-97321214D01*
X169918428Y-97321214D01*
D11*
X132588000Y-74485500D02*
X129476500Y-74485500D01*
X140843000Y-74422000D02*
X143446500Y-74422000D01*
D10*
X112521904Y-77795500D02*
X112617142Y-77747880D01*
X112760000Y-77747880D01*
X112902857Y-77795500D01*
X112998095Y-77890738D01*
X113045714Y-77985976D01*
X113093333Y-78176452D01*
X113093333Y-78319309D01*
X113045714Y-78509785D01*
X112998095Y-78605023D01*
X112902857Y-78700261D01*
X112760000Y-78747880D01*
X112664761Y-78747880D01*
X112521904Y-78700261D01*
X112474285Y-78652642D01*
X112474285Y-78319309D01*
X112664761Y-78319309D01*
X112045714Y-78747880D02*
X112045714Y-77747880D01*
X111474285Y-78747880D01*
X111474285Y-77747880D01*
X110998095Y-78747880D02*
X110998095Y-77747880D01*
X110760000Y-77747880D01*
X110617142Y-77795500D01*
X110521904Y-77890738D01*
X110474285Y-77985976D01*
X110426666Y-78176452D01*
X110426666Y-78319309D01*
X110474285Y-78509785D01*
X110521904Y-78605023D01*
X110617142Y-78700261D01*
X110760000Y-78747880D01*
X110998095Y-78747880D01*
X113839404Y-83256928D02*
X113077500Y-83256928D01*
X113458452Y-83637880D02*
X113458452Y-82875976D01*
X112648928Y-82733119D02*
X112601309Y-82685500D01*
X112506071Y-82637880D01*
X112267976Y-82637880D01*
X112172738Y-82685500D01*
X112125119Y-82733119D01*
X112077500Y-82828357D01*
X112077500Y-82923595D01*
X112125119Y-83066452D01*
X112696547Y-83637880D01*
X112077500Y-83637880D01*
X111220357Y-82971214D02*
X111220357Y-83637880D01*
X111458452Y-82590261D02*
X111696547Y-83304547D01*
X111077500Y-83304547D01*
X110839404Y-82637880D02*
X110506071Y-83637880D01*
X110172738Y-82637880D01*
X112529880Y-85287880D02*
X112529880Y-84621214D01*
X112529880Y-84287880D02*
X112577500Y-84335500D01*
X112529880Y-84383119D01*
X112482261Y-84335500D01*
X112529880Y-84287880D01*
X112529880Y-84383119D01*
X112053690Y-84621214D02*
X112053690Y-85287880D01*
X112053690Y-84716452D02*
X112006071Y-84668833D01*
X111910833Y-84621214D01*
X111767976Y-84621214D01*
X111672738Y-84668833D01*
X111625119Y-84764071D01*
X111625119Y-85287880D01*
X130619452Y-66682928D02*
X129857547Y-66682928D01*
X140921809Y-73604928D02*
X140159904Y-73604928D01*
X140540857Y-73985880D02*
X140540857Y-73223976D01*
X139778952Y-72985880D02*
X139159904Y-72985880D01*
X139493238Y-73366833D01*
X139350380Y-73366833D01*
X139255142Y-73414452D01*
X139207523Y-73462071D01*
X139159904Y-73557309D01*
X139159904Y-73795404D01*
X139207523Y-73890642D01*
X139255142Y-73938261D01*
X139350380Y-73985880D01*
X139636095Y-73985880D01*
X139731333Y-73938261D01*
X139778952Y-73890642D01*
X138540857Y-72985880D02*
X138445619Y-72985880D01*
X138350380Y-73033500D01*
X138302761Y-73081119D01*
X138255142Y-73176357D01*
X138207523Y-73366833D01*
X138207523Y-73604928D01*
X138255142Y-73795404D01*
X138302761Y-73890642D01*
X138350380Y-73938261D01*
X138445619Y-73985880D01*
X138540857Y-73985880D01*
X138636095Y-73938261D01*
X138683714Y-73890642D01*
X138731333Y-73795404D01*
X138778952Y-73604928D01*
X138778952Y-73366833D01*
X138731333Y-73176357D01*
X138683714Y-73081119D01*
X138636095Y-73033500D01*
X138540857Y-72985880D01*
X137921809Y-72985880D02*
X137588476Y-73985880D01*
X137255142Y-72985880D01*
X136159904Y-73604928D02*
X135398000Y-73604928D01*
X133731333Y-73319214D02*
X133731333Y-73985880D01*
X133969428Y-72938261D02*
X134207523Y-73652547D01*
X133588476Y-73652547D01*
X133064666Y-73414452D02*
X133159904Y-73366833D01*
X133207523Y-73319214D01*
X133255142Y-73223976D01*
X133255142Y-73176357D01*
X133207523Y-73081119D01*
X133159904Y-73033500D01*
X133064666Y-72985880D01*
X132874190Y-72985880D01*
X132778952Y-73033500D01*
X132731333Y-73081119D01*
X132683714Y-73176357D01*
X132683714Y-73223976D01*
X132731333Y-73319214D01*
X132778952Y-73366833D01*
X132874190Y-73414452D01*
X133064666Y-73414452D01*
X133159904Y-73462071D01*
X133207523Y-73509690D01*
X133255142Y-73604928D01*
X133255142Y-73795404D01*
X133207523Y-73890642D01*
X133159904Y-73938261D01*
X133064666Y-73985880D01*
X132874190Y-73985880D01*
X132778952Y-73938261D01*
X132731333Y-73890642D01*
X132683714Y-73795404D01*
X132683714Y-73604928D01*
X132731333Y-73509690D01*
X132778952Y-73462071D01*
X132874190Y-73414452D01*
X132398000Y-72985880D02*
X132064666Y-73985880D01*
X131731333Y-72985880D01*
X138183714Y-75159690D02*
X138231333Y-75112071D01*
X138326571Y-75064452D01*
X138421809Y-75064452D01*
X138517047Y-75112071D01*
X138564666Y-75159690D01*
X138612285Y-75254928D01*
X138612285Y-75350166D01*
X138564666Y-75445404D01*
X138517047Y-75493023D01*
X138421809Y-75540642D01*
X138326571Y-75540642D01*
X138231333Y-75493023D01*
X138183714Y-75445404D01*
X138183714Y-75064452D02*
X138183714Y-75445404D01*
X138136095Y-75493023D01*
X138088476Y-75493023D01*
X137993238Y-75445404D01*
X137945619Y-75350166D01*
X137945619Y-75112071D01*
X138040857Y-74969214D01*
X138183714Y-74873976D01*
X138374190Y-74826357D01*
X138564666Y-74873976D01*
X138707523Y-74969214D01*
X138802761Y-75112071D01*
X138850380Y-75302547D01*
X138802761Y-75493023D01*
X138707523Y-75635880D01*
X138564666Y-75731119D01*
X138374190Y-75778738D01*
X138183714Y-75731119D01*
X138040857Y-75635880D01*
X136231333Y-75635880D02*
X136802761Y-75635880D01*
X136517047Y-75635880D02*
X136517047Y-74635880D01*
X136612285Y-74778738D01*
X136707523Y-74873976D01*
X136802761Y-74921595D01*
X135802761Y-75540642D02*
X135755142Y-75588261D01*
X135802761Y-75635880D01*
X135850380Y-75588261D01*
X135802761Y-75540642D01*
X135802761Y-75635880D01*
X134850380Y-74635880D02*
X135326571Y-74635880D01*
X135374190Y-75112071D01*
X135326571Y-75064452D01*
X135231333Y-75016833D01*
X134993238Y-75016833D01*
X134898000Y-75064452D01*
X134850380Y-75112071D01*
X134802761Y-75207309D01*
X134802761Y-75445404D01*
X134850380Y-75540642D01*
X134898000Y-75588261D01*
X134993238Y-75635880D01*
X135231333Y-75635880D01*
X135326571Y-75588261D01*
X135374190Y-75540642D01*
X134421809Y-75350166D02*
X133945619Y-75350166D01*
X134517047Y-75635880D02*
X134183714Y-74635880D01*
X133850380Y-75635880D01*
X186689904Y-83700880D02*
X186689904Y-82700880D01*
X186118476Y-83700880D01*
X186118476Y-82700880D01*
X185451809Y-82700880D02*
X185356571Y-82700880D01*
X185261333Y-82748500D01*
X185213714Y-82796119D01*
X185166095Y-82891357D01*
X185118476Y-83081833D01*
X185118476Y-83319928D01*
X185166095Y-83510404D01*
X185213714Y-83605642D01*
X185261333Y-83653261D01*
X185356571Y-83700880D01*
X185451809Y-83700880D01*
X185547047Y-83653261D01*
X185594666Y-83605642D01*
X185642285Y-83510404D01*
X185689904Y-83319928D01*
X185689904Y-83081833D01*
X185642285Y-82891357D01*
X185594666Y-82796119D01*
X185547047Y-82748500D01*
X185451809Y-82700880D01*
X186626404Y-86304380D02*
X186626404Y-85304380D01*
X186054976Y-86304380D01*
X186054976Y-85304380D01*
X185054976Y-86304380D02*
X185626404Y-86304380D01*
X185340690Y-86304380D02*
X185340690Y-85304380D01*
X185435928Y-85447238D01*
X185531166Y-85542476D01*
X185626404Y-85590095D01*
X186626404Y-88844380D02*
X186626404Y-87844380D01*
X186054976Y-88844380D01*
X186054976Y-87844380D01*
X185626404Y-87939619D02*
X185578785Y-87892000D01*
X185483547Y-87844380D01*
X185245452Y-87844380D01*
X185150214Y-87892000D01*
X185102595Y-87939619D01*
X185054976Y-88034857D01*
X185054976Y-88130095D01*
X185102595Y-88272952D01*
X185674023Y-88844380D01*
X185054976Y-88844380D01*
X186626404Y-91447880D02*
X186626404Y-90447880D01*
X186054976Y-91447880D01*
X186054976Y-90447880D01*
X185674023Y-90447880D02*
X185054976Y-90447880D01*
X185388309Y-90828833D01*
X185245452Y-90828833D01*
X185150214Y-90876452D01*
X185102595Y-90924071D01*
X185054976Y-91019309D01*
X185054976Y-91257404D01*
X185102595Y-91352642D01*
X185150214Y-91400261D01*
X185245452Y-91447880D01*
X185531166Y-91447880D01*
X185626404Y-91400261D01*
X185674023Y-91352642D01*
X186626404Y-93924380D02*
X186626404Y-92924380D01*
X186054976Y-93924380D01*
X186054976Y-92924380D01*
X185150214Y-93257714D02*
X185150214Y-93924380D01*
X185388309Y-92876761D02*
X185626404Y-93591047D01*
X185007357Y-93591047D01*
X186626404Y-96527880D02*
X186626404Y-95527880D01*
X186054976Y-96527880D01*
X186054976Y-95527880D01*
X185102595Y-95527880D02*
X185578785Y-95527880D01*
X185626404Y-96004071D01*
X185578785Y-95956452D01*
X185483547Y-95908833D01*
X185245452Y-95908833D01*
X185150214Y-95956452D01*
X185102595Y-96004071D01*
X185054976Y-96099309D01*
X185054976Y-96337404D01*
X185102595Y-96432642D01*
X185150214Y-96480261D01*
X185245452Y-96527880D01*
X185483547Y-96527880D01*
X185578785Y-96480261D01*
X185626404Y-96432642D01*
X186626404Y-99067880D02*
X186626404Y-98067880D01*
X186054976Y-99067880D01*
X186054976Y-98067880D01*
X185150214Y-98067880D02*
X185340690Y-98067880D01*
X185435928Y-98115500D01*
X185483547Y-98163119D01*
X185578785Y-98305976D01*
X185626404Y-98496452D01*
X185626404Y-98877404D01*
X185578785Y-98972642D01*
X185531166Y-99020261D01*
X185435928Y-99067880D01*
X185245452Y-99067880D01*
X185150214Y-99020261D01*
X185102595Y-98972642D01*
X185054976Y-98877404D01*
X185054976Y-98639309D01*
X185102595Y-98544071D01*
X185150214Y-98496452D01*
X185245452Y-98448833D01*
X185435928Y-98448833D01*
X185531166Y-98496452D01*
X185578785Y-98544071D01*
X185626404Y-98639309D01*
X186626404Y-101544380D02*
X186626404Y-100544380D01*
X186054976Y-101544380D01*
X186054976Y-100544380D01*
X185674023Y-100544380D02*
X185007357Y-100544380D01*
X185435928Y-101544380D01*
X186673976Y-104100261D02*
X186531119Y-104147880D01*
X186293023Y-104147880D01*
X186197785Y-104100261D01*
X186150166Y-104052642D01*
X186102547Y-103957404D01*
X186102547Y-103862166D01*
X186150166Y-103766928D01*
X186197785Y-103719309D01*
X186293023Y-103671690D01*
X186483500Y-103624071D01*
X186578738Y-103576452D01*
X186626357Y-103528833D01*
X186673976Y-103433595D01*
X186673976Y-103338357D01*
X186626357Y-103243119D01*
X186578738Y-103195500D01*
X186483500Y-103147880D01*
X186245404Y-103147880D01*
X186102547Y-103195500D01*
X185102547Y-104052642D02*
X185150166Y-104100261D01*
X185293023Y-104147880D01*
X185388261Y-104147880D01*
X185531119Y-104100261D01*
X185626357Y-104005023D01*
X185673976Y-103909785D01*
X185721595Y-103719309D01*
X185721595Y-103576452D01*
X185673976Y-103385976D01*
X185626357Y-103290738D01*
X185531119Y-103195500D01*
X185388261Y-103147880D01*
X185293023Y-103147880D01*
X185150166Y-103195500D01*
X185102547Y-103243119D01*
X184197785Y-104147880D02*
X184673976Y-104147880D01*
X184673976Y-103147880D01*
X186570785Y-106576761D02*
X186427928Y-106624380D01*
X186189833Y-106624380D01*
X186094595Y-106576761D01*
X186046976Y-106529142D01*
X185999357Y-106433904D01*
X185999357Y-106338666D01*
X186046976Y-106243428D01*
X186094595Y-106195809D01*
X186189833Y-106148190D01*
X186380309Y-106100571D01*
X186475547Y-106052952D01*
X186523166Y-106005333D01*
X186570785Y-105910095D01*
X186570785Y-105814857D01*
X186523166Y-105719619D01*
X186475547Y-105672000D01*
X186380309Y-105624380D01*
X186142214Y-105624380D01*
X185999357Y-105672000D01*
X185570785Y-106624380D02*
X185570785Y-105624380D01*
X185332690Y-105624380D01*
X185189833Y-105672000D01*
X185094595Y-105767238D01*
X185046976Y-105862476D01*
X184999357Y-106052952D01*
X184999357Y-106195809D01*
X185046976Y-106386285D01*
X185094595Y-106481523D01*
X185189833Y-106576761D01*
X185332690Y-106624380D01*
X185570785Y-106624380D01*
X184618404Y-106338666D02*
X184142214Y-106338666D01*
X184713642Y-106624380D02*
X184380309Y-105624380D01*
X184046976Y-106624380D01*
X160083404Y-126372880D02*
X160083404Y-125372880D01*
X159511976Y-126372880D01*
X159511976Y-125372880D01*
X159131023Y-125372880D02*
X158464357Y-125372880D01*
X158892928Y-126372880D01*
X157416404Y-126372880D02*
X157416404Y-125372880D01*
X156844976Y-126372880D01*
X156844976Y-125372880D01*
X155940214Y-125372880D02*
X156130690Y-125372880D01*
X156225928Y-125420500D01*
X156273547Y-125468119D01*
X156368785Y-125610976D01*
X156416404Y-125801452D01*
X156416404Y-126182404D01*
X156368785Y-126277642D01*
X156321166Y-126325261D01*
X156225928Y-126372880D01*
X156035452Y-126372880D01*
X155940214Y-126325261D01*
X155892595Y-126277642D01*
X155844976Y-126182404D01*
X155844976Y-125944309D01*
X155892595Y-125849071D01*
X155940214Y-125801452D01*
X156035452Y-125753833D01*
X156225928Y-125753833D01*
X156321166Y-125801452D01*
X156368785Y-125849071D01*
X156416404Y-125944309D01*
X154939904Y-126372880D02*
X154939904Y-125372880D01*
X154368476Y-126372880D01*
X154368476Y-125372880D01*
X153416095Y-125372880D02*
X153892285Y-125372880D01*
X153939904Y-125849071D01*
X153892285Y-125801452D01*
X153797047Y-125753833D01*
X153558952Y-125753833D01*
X153463714Y-125801452D01*
X153416095Y-125849071D01*
X153368476Y-125944309D01*
X153368476Y-126182404D01*
X153416095Y-126277642D01*
X153463714Y-126325261D01*
X153558952Y-126372880D01*
X153797047Y-126372880D01*
X153892285Y-126325261D01*
X153939904Y-126277642D01*
X152399904Y-126372880D02*
X152399904Y-125372880D01*
X151828476Y-126372880D01*
X151828476Y-125372880D01*
X150923714Y-125706214D02*
X150923714Y-126372880D01*
X151161809Y-125325261D02*
X151399904Y-126039547D01*
X150780857Y-126039547D01*
X149923404Y-126309380D02*
X149923404Y-125309380D01*
X149351976Y-126309380D01*
X149351976Y-125309380D01*
X148971023Y-125309380D02*
X148351976Y-125309380D01*
X148685309Y-125690333D01*
X148542452Y-125690333D01*
X148447214Y-125737952D01*
X148399595Y-125785571D01*
X148351976Y-125880809D01*
X148351976Y-126118904D01*
X148399595Y-126214142D01*
X148447214Y-126261761D01*
X148542452Y-126309380D01*
X148828166Y-126309380D01*
X148923404Y-126261761D01*
X148971023Y-126214142D01*
X147383404Y-126245880D02*
X147383404Y-125245880D01*
X146811976Y-126245880D01*
X146811976Y-125245880D01*
X146383404Y-125341119D02*
X146335785Y-125293500D01*
X146240547Y-125245880D01*
X146002452Y-125245880D01*
X145907214Y-125293500D01*
X145859595Y-125341119D01*
X145811976Y-125436357D01*
X145811976Y-125531595D01*
X145859595Y-125674452D01*
X146431023Y-126245880D01*
X145811976Y-126245880D01*
X144843404Y-126245880D02*
X144843404Y-125245880D01*
X144271976Y-126245880D01*
X144271976Y-125245880D01*
X143271976Y-126245880D02*
X143843404Y-126245880D01*
X143557690Y-126245880D02*
X143557690Y-125245880D01*
X143652928Y-125388738D01*
X143748166Y-125483976D01*
X143843404Y-125531595D01*
X142303404Y-126245880D02*
X142303404Y-125245880D01*
X141731976Y-126245880D01*
X141731976Y-125245880D01*
X141065309Y-125245880D02*
X140970071Y-125245880D01*
X140874833Y-125293500D01*
X140827214Y-125341119D01*
X140779595Y-125436357D01*
X140731976Y-125626833D01*
X140731976Y-125864928D01*
X140779595Y-126055404D01*
X140827214Y-126150642D01*
X140874833Y-126198261D01*
X140970071Y-126245880D01*
X141065309Y-126245880D01*
X141160547Y-126198261D01*
X141208166Y-126150642D01*
X141255785Y-126055404D01*
X141303404Y-125864928D01*
X141303404Y-125626833D01*
X141255785Y-125436357D01*
X141208166Y-125341119D01*
X141160547Y-125293500D01*
X141065309Y-125245880D01*
X189261714Y-80573619D02*
X189214095Y-80526000D01*
X189118857Y-80478380D01*
X188880761Y-80478380D01*
X188785523Y-80526000D01*
X188737904Y-80573619D01*
X188690285Y-80668857D01*
X188690285Y-80764095D01*
X188737904Y-80906952D01*
X189309333Y-81478380D01*
X188690285Y-81478380D01*
X191230285Y-81478380D02*
X191801714Y-81478380D01*
X191516000Y-81478380D02*
X191516000Y-80478380D01*
X191611238Y-80621238D01*
X191706476Y-80716476D01*
X191801714Y-80764095D01*
X189737904Y-108005619D02*
X189690285Y-107958000D01*
X189595047Y-107910380D01*
X189356952Y-107910380D01*
X189261714Y-107958000D01*
X189214095Y-108005619D01*
X189166476Y-108100857D01*
X189166476Y-108196095D01*
X189214095Y-108338952D01*
X189785523Y-108910380D01*
X189166476Y-108910380D01*
X188547428Y-107910380D02*
X188452190Y-107910380D01*
X188356952Y-107958000D01*
X188309333Y-108005619D01*
X188261714Y-108100857D01*
X188214095Y-108291333D01*
X188214095Y-108529428D01*
X188261714Y-108719904D01*
X188309333Y-108815142D01*
X188356952Y-108862761D01*
X188452190Y-108910380D01*
X188547428Y-108910380D01*
X188642666Y-108862761D01*
X188690285Y-108815142D01*
X188737904Y-108719904D01*
X188785523Y-108529428D01*
X188785523Y-108291333D01*
X188737904Y-108100857D01*
X188690285Y-108005619D01*
X188642666Y-107958000D01*
X188547428Y-107910380D01*
X191706476Y-108910380D02*
X192277904Y-108910380D01*
X191992190Y-108910380D02*
X191992190Y-107910380D01*
X192087428Y-108053238D01*
X192182666Y-108148476D01*
X192277904Y-108196095D01*
X191230285Y-108910380D02*
X191039809Y-108910380D01*
X190944571Y-108862761D01*
X190896952Y-108815142D01*
X190801714Y-108672285D01*
X190754095Y-108481809D01*
X190754095Y-108100857D01*
X190801714Y-108005619D01*
X190849333Y-107958000D01*
X190944571Y-107910380D01*
X191135047Y-107910380D01*
X191230285Y-107958000D01*
X191277904Y-108005619D01*
X191325523Y-108100857D01*
X191325523Y-108338952D01*
X191277904Y-108434190D01*
X191230285Y-108481809D01*
X191135047Y-108529428D01*
X190944571Y-108529428D01*
X190849333Y-108481809D01*
X190801714Y-108434190D01*
X190754095Y-108338952D01*
D12*
X162574404Y-81740261D02*
X162574404Y-79740261D01*
X161812500Y-79740261D01*
X161622023Y-79835500D01*
X161526785Y-79930738D01*
X161431547Y-80121214D01*
X161431547Y-80406928D01*
X161526785Y-80597404D01*
X161622023Y-80692642D01*
X161812500Y-80787880D01*
X162574404Y-80787880D01*
X160574404Y-81740261D02*
X160574404Y-80406928D01*
X160574404Y-80787880D02*
X160479166Y-80597404D01*
X160383928Y-80502166D01*
X160193452Y-80406928D01*
X160002976Y-80406928D01*
X159336309Y-81740261D02*
X159336309Y-80406928D01*
X159336309Y-79740261D02*
X159431547Y-79835500D01*
X159336309Y-79930738D01*
X159241071Y-79835500D01*
X159336309Y-79740261D01*
X159336309Y-79930738D01*
X158383928Y-80406928D02*
X158383928Y-81740261D01*
X158383928Y-80597404D02*
X158288690Y-80502166D01*
X158098214Y-80406928D01*
X157812500Y-80406928D01*
X157622023Y-80502166D01*
X157526785Y-80692642D01*
X157526785Y-81740261D01*
X156860119Y-80406928D02*
X156098214Y-80406928D01*
X156574404Y-79740261D02*
X156574404Y-81454547D01*
X156479166Y-81645023D01*
X156288690Y-81740261D01*
X156098214Y-81740261D01*
X155431547Y-81740261D02*
X155431547Y-79740261D01*
X154574404Y-81740261D02*
X154574404Y-80692642D01*
X154669642Y-80502166D01*
X154860119Y-80406928D01*
X155145833Y-80406928D01*
X155336309Y-80502166D01*
X155431547Y-80597404D01*
X152860119Y-81645023D02*
X153050595Y-81740261D01*
X153431547Y-81740261D01*
X153622023Y-81645023D01*
X153717261Y-81454547D01*
X153717261Y-80692642D01*
X153622023Y-80502166D01*
X153431547Y-80406928D01*
X153050595Y-80406928D01*
X152860119Y-80502166D01*
X152764880Y-80692642D01*
X152764880Y-80883119D01*
X153717261Y-81073595D01*
X151050595Y-81740261D02*
X151050595Y-80692642D01*
X151145833Y-80502166D01*
X151336309Y-80406928D01*
X151717261Y-80406928D01*
X151907738Y-80502166D01*
X151050595Y-81645023D02*
X151241071Y-81740261D01*
X151717261Y-81740261D01*
X151907738Y-81645023D01*
X152002976Y-81454547D01*
X152002976Y-81264071D01*
X151907738Y-81073595D01*
X151717261Y-80978357D01*
X151241071Y-80978357D01*
X151050595Y-80883119D01*
X149241071Y-81740261D02*
X149241071Y-79740261D01*
X149241071Y-81645023D02*
X149431547Y-81740261D01*
X149812500Y-81740261D01*
X150002976Y-81645023D01*
X150098214Y-81549785D01*
X150193452Y-81359309D01*
X150193452Y-80787880D01*
X150098214Y-80597404D01*
X150002976Y-80502166D01*
X149812500Y-80406928D01*
X149431547Y-80406928D01*
X149241071Y-80502166D01*
X146764880Y-81740261D02*
X146764880Y-79740261D01*
X146288690Y-79740261D01*
X146002976Y-79835500D01*
X145812500Y-80025976D01*
X145717261Y-80216452D01*
X145622023Y-80597404D01*
X145622023Y-80883119D01*
X145717261Y-81264071D01*
X145812500Y-81454547D01*
X146002976Y-81645023D01*
X146288690Y-81740261D01*
X146764880Y-81740261D01*
X144764880Y-81740261D02*
X144764880Y-80406928D01*
X144764880Y-80787880D02*
X144669642Y-80597404D01*
X144574404Y-80502166D01*
X144383928Y-80406928D01*
X144193452Y-80406928D01*
X143526785Y-81740261D02*
X143526785Y-80406928D01*
X143526785Y-79740261D02*
X143622023Y-79835500D01*
X143526785Y-79930738D01*
X143431547Y-79835500D01*
X143526785Y-79740261D01*
X143526785Y-79930738D01*
X142764880Y-80406928D02*
X142288690Y-81740261D01*
X141812500Y-80406928D01*
X140288690Y-81645023D02*
X140479166Y-81740261D01*
X140860119Y-81740261D01*
X141050595Y-81645023D01*
X141145833Y-81454547D01*
X141145833Y-80692642D01*
X141050595Y-80502166D01*
X140860119Y-80406928D01*
X140479166Y-80406928D01*
X140288690Y-80502166D01*
X140193452Y-80692642D01*
X140193452Y-80883119D01*
X141145833Y-81073595D01*
X139336309Y-81740261D02*
X139336309Y-80406928D01*
X139336309Y-80787880D02*
X139241071Y-80597404D01*
X139145833Y-80502166D01*
X138955357Y-80406928D01*
X138764880Y-80406928D01*
D13*
X156771428Y-84235857D02*
X156771428Y-83035857D01*
X156314285Y-83035857D01*
X156200000Y-83093000D01*
X156142857Y-83150142D01*
X156085714Y-83264428D01*
X156085714Y-83435857D01*
X156142857Y-83550142D01*
X156200000Y-83607285D01*
X156314285Y-83664428D01*
X156771428Y-83664428D01*
X154885714Y-84235857D02*
X155285714Y-83664428D01*
X155571428Y-84235857D02*
X155571428Y-83035857D01*
X155114285Y-83035857D01*
X155000000Y-83093000D01*
X154942857Y-83150142D01*
X154885714Y-83264428D01*
X154885714Y-83435857D01*
X154942857Y-83550142D01*
X155000000Y-83607285D01*
X155114285Y-83664428D01*
X155571428Y-83664428D01*
X153800000Y-84235857D02*
X154371428Y-84235857D01*
X154371428Y-83035857D01*
X152657142Y-83035857D02*
X152257142Y-84235857D01*
X151857142Y-83035857D01*
X150828571Y-84235857D02*
X151514285Y-84235857D01*
X151171428Y-84235857D02*
X151171428Y-83035857D01*
X151285714Y-83207285D01*
X151400000Y-83321571D01*
X151514285Y-83378714D01*
X150085714Y-83035857D02*
X149971428Y-83035857D01*
X149857142Y-83093000D01*
X149800000Y-83150142D01*
X149742857Y-83264428D01*
X149685714Y-83493000D01*
X149685714Y-83778714D01*
X149742857Y-84007285D01*
X149800000Y-84121571D01*
X149857142Y-84178714D01*
X149971428Y-84235857D01*
X150085714Y-84235857D01*
X150200000Y-84178714D01*
X150257142Y-84121571D01*
X150314285Y-84007285D01*
X150371428Y-83778714D01*
X150371428Y-83493000D01*
X150314285Y-83264428D01*
X150257142Y-83150142D01*
X150200000Y-83093000D01*
X150085714Y-83035857D01*
X149171428Y-84121571D02*
X149114285Y-84178714D01*
X149171428Y-84235857D01*
X149228571Y-84178714D01*
X149171428Y-84121571D01*
X149171428Y-84235857D01*
X148028571Y-83035857D02*
X148600000Y-83035857D01*
X148657142Y-83607285D01*
X148600000Y-83550142D01*
X148485714Y-83493000D01*
X148200000Y-83493000D01*
X148085714Y-83550142D01*
X148028571Y-83607285D01*
X147971428Y-83721571D01*
X147971428Y-84007285D01*
X148028571Y-84121571D01*
X148085714Y-84178714D01*
X148200000Y-84235857D01*
X148485714Y-84235857D01*
X148600000Y-84178714D01*
X148657142Y-84121571D01*
D11*
X192846000Y-107502000D02*
X187646000Y-107502000D01*
X192846000Y-84582000D02*
X192846000Y-107502000D01*
X187646000Y-81982000D02*
X187646000Y-107502000D01*
X192846000Y-84582000D02*
X190246000Y-84582000D01*
X190246000Y-84582000D02*
X190246000Y-81982000D01*
X190246000Y-81982000D02*
X187646000Y-81982000D01*
X192846000Y-83312000D02*
X192846000Y-81982000D01*
X192846000Y-81982000D02*
X191516000Y-81982000D01*
D10*
X194071833Y-87907880D02*
X194071833Y-88622166D01*
X194119452Y-88765023D01*
X194214690Y-88860261D01*
X194357547Y-88907880D01*
X194452785Y-88907880D01*
X193643261Y-88003119D02*
X193595642Y-87955500D01*
X193500404Y-87907880D01*
X193262309Y-87907880D01*
X193167071Y-87955500D01*
X193119452Y-88003119D01*
X193071833Y-88098357D01*
X193071833Y-88193595D01*
X193119452Y-88336452D01*
X193690880Y-88907880D01*
X193071833Y-88907880D01*
M02*
