M48
; DRILL file {KiCad (5.1.12)-1} date 05/11/22 12:07:53
; FORMAT={3:3/ absolute / metric / suppress leading zeros}
; #@! TF.CreationDate,2022-05-11T12:07:53+08:00
; #@! TF.GenerationSoftware,Kicad,Pcbnew,(5.1.12)-1
FMAT,2
METRIC,TZ
T1C0.200
T2C0.300
T3C0.400
T4C0.700
T5C0.800
T6C1.000
T7C1.200
T8C3.200
%
G90
G05
T1
X109318Y-116376
X109318Y-118286
X110618Y-116376
X110618Y-118286
X111918Y-116376
X111918Y-118286
X126185Y-103308
X126185Y-105218
X127485Y-103308
X127485Y-105218
X128784Y-103308
X128784Y-105218
X129318Y-120770
X129318Y-122680
X130618Y-120770
X130618Y-122680
X131918Y-120770
X131918Y-122680
X145004Y-110868
X145004Y-112778
X146304Y-110868
X146304Y-112778
X147604Y-110868
X147604Y-112778
X156193Y-102071
X156193Y-103981
X157493Y-102071
X157493Y-103981
X158793Y-102071
X158793Y-103981
X172436Y-105979
X172436Y-107889
X173736Y-105979
X173736Y-107889
X175036Y-105979
X175036Y-107889
X177376Y-121692
X177376Y-123602
X178676Y-121692
X178676Y-123602
X179976Y-121692
X179976Y-123602
X186525Y-117448
X186525Y-119358
X187825Y-117448
X187825Y-119358
X189125Y-117448
X189125Y-119358
T2
X122250Y-107315
X123596Y-107226
X163525Y-132309
T3
X101841Y-79807
X101905Y-75082
X101981Y-66294
X101981Y-91440
X102044Y-98933
X102044Y-119571
X102044Y-129286
X105982Y-63246
X106426Y-134112
X107400Y-122800
X107700Y-125700
X107759Y-79934
X107900Y-127100
X107950Y-81039
X108100Y-116200
X108585Y-71882
X108713Y-113267
X108902Y-81407
X110020Y-81432
X110630Y-128905
X111506Y-81102
X111608Y-113119
X111700Y-125200
X111785Y-80023
X113411Y-115552
X114300Y-72700
X114700Y-105400
X114700Y-121900
X116200Y-131500
X116281Y-110820
X117600Y-72800
X120028Y-119164
X121094Y-131928
X121107Y-81801
X121134Y-99373
X121742Y-87224
X122200Y-71300
X122786Y-101700
X122786Y-103565
X122999Y-80175
X123609Y-126467
X123825Y-63182
X123939Y-84188
X124000Y-109500
X124700Y-112600
X124881Y-100262
X125995Y-118706
X126300Y-125200
X126300Y-126100
X126300Y-128000
X126428Y-100113
X126517Y-79019
X126700Y-117200
X127100Y-127500
X127200Y-125200
X127200Y-126100
X127318Y-94298
X127900Y-130100
X128100Y-120800
X128118Y-87998
X128472Y-117626
X128800Y-112000
X130249Y-117436
X130340Y-101700
X131000Y-95200
X131700Y-129500
X132200Y-94200
X133350Y-92456
X133414Y-80518
X133414Y-81597
X133414Y-82677
X133600Y-119800
X133668Y-79312
X134200Y-94200
X134391Y-131356
X134557Y-79947
X134557Y-81026
X134557Y-82169
X135064Y-125959
X135446Y-79248
X135636Y-80518
X135636Y-81597
X135636Y-82677
X135636Y-107251
X136700Y-126900
X136700Y-127800
X136700Y-128700
X136756Y-85707
X136840Y-89468
X138786Y-116357
X138811Y-90107
X138811Y-92202
X139800Y-127800
X139900Y-128500
X140000Y-118400
X140081Y-94043
X140200Y-129100
X140900Y-118400
X140900Y-119300
X142011Y-63132
X142400Y-117800
X143497Y-72504
X143796Y-106818
X143800Y-119400
X143800Y-121900
X143827Y-112078
X144526Y-98628
X145057Y-106434
X147599Y-77178
X147900Y-120000
X147955Y-126682
X149289Y-111062
X150495Y-131572
X152235Y-65659
X152298Y-63970
X152908Y-101029
X153022Y-80264
X153137Y-106236
X153512Y-112112
X153975Y-63437
X154470Y-76759
X154669Y-112865
X154876Y-99251
X155664Y-63665
X155707Y-111989
X156200Y-114500
X156324Y-84646
X156655Y-117729
X156655Y-118936
X156823Y-99190
X156972Y-87440
X157404Y-64072
X157798Y-117793
X157798Y-118936
X158400Y-116300
X158700Y-90800
X160294Y-101462
X160401Y-86830
X160642Y-70803
X160985Y-106985
X161315Y-95288
X161375Y-112545
X161773Y-118224
X162500Y-112700
X162604Y-96500
X162814Y-123825
X163262Y-65837
X163618Y-91618
X163709Y-98800
X164500Y-97400
X164700Y-84700
X164718Y-99000
X164922Y-75781
X164960Y-70815
X165300Y-91066
X165400Y-112700
X165671Y-121094
X166281Y-117958
X167900Y-82900
X167958Y-126632
X168300Y-95100
X168999Y-131953
X169101Y-104013
X169164Y-105601
X169600Y-94500
X169800Y-112800
X169877Y-90868
X170624Y-63017
X170900Y-115500
X171100Y-86700
X171386Y-106934
X171400Y-90400
X171900Y-115900
X172110Y-69964
X172500Y-90100
X173100Y-86600
X173524Y-103067
X173706Y-94313
X174054Y-121539
X174600Y-87600
X175076Y-128420
X175900Y-112500
X175900Y-132350
X176025Y-113300
X176086Y-118682
X176100Y-130800
X176124Y-121628
X176400Y-107800
X176467Y-105093
X176491Y-93258
X176800Y-112500
X176800Y-113400
X176952Y-95421
X176987Y-74841
X177400Y-90300
X177400Y-92000
X178000Y-112500
X178000Y-113800
X178522Y-118669
X178813Y-100113
X179157Y-95900
X179210Y-71958
X179769Y-101346
X179800Y-130400
X180581Y-126681
X180600Y-127500
X180900Y-80500
X181347Y-120891
X181400Y-126700
X181400Y-127500
X181800Y-77300
X182200Y-84600
X182200Y-85600
X182600Y-94200
X182900Y-81000
X183400Y-84600
X183400Y-85600
X183550Y-123200
X183700Y-76300
X183896Y-111849
X184048Y-131305
X184150Y-101981
X185000Y-126600
X185300Y-114300
X185300Y-129100
X185450Y-117200
X186792Y-134163
X187770Y-99822
X188500Y-73600
X188500Y-75400
X188900Y-78900
X188900Y-126000
X189800Y-70400
X189800Y-71700
X190246Y-63055
X190309Y-134049
X190365Y-117232
X193611Y-129985
X193700Y-71900
X193700Y-72800
X193700Y-73700
X193700Y-74600
X193700Y-75500
X193700Y-76400
X193802Y-67183
T4
X102464Y-114325
X110287Y-73863
X136100Y-130300
X136600Y-123200
X154200Y-86700
X159400Y-64800
X166307Y-129413
X166370Y-126752
X179200Y-86200
X193500Y-99600
T5
X106934Y-89789
X106934Y-93289
X109200Y-103800
X109200Y-107300
X115888Y-89789
X115888Y-93289
X116936Y-104644
X119828Y-122262
X120436Y-104644
X123328Y-122262
X133653Y-95944
X135819Y-112268
X136193Y-95944
X138733Y-95944
X139319Y-112268
X146995Y-103315
X148100Y-65500
X148100Y-69000
X150495Y-103315
X163251Y-107696
X166751Y-107696
X168204Y-122364
X171704Y-122364
X181300Y-107300
X181300Y-110800
X184100Y-66800
X184100Y-70300
T6
X141542Y-127826
X141542Y-130366
X144082Y-127826
X144082Y-130366
X146622Y-127826
X146622Y-130366
X149161Y-127826
X149161Y-130366
X151701Y-127826
X151701Y-130366
X154242Y-127826
X154242Y-130366
X156782Y-127826
X156782Y-130366
X159322Y-127826
X159322Y-130366
X188951Y-83312
X188951Y-85852
X188951Y-88392
X188951Y-90932
X188951Y-93472
X188951Y-96012
X188951Y-98552
X188951Y-101092
X188951Y-103632
X188951Y-106172
X188951Y-108712
X188951Y-111252
X191491Y-83312
X191491Y-85852
X191491Y-88392
X191491Y-90932
X191491Y-93472
X191491Y-96012
X191491Y-98552
X191491Y-101092
X191491Y-103632
X191491Y-106172
X191491Y-108712
X191491Y-111252
T7
X135500Y-67000
X135500Y-74500
T8
X104458Y-65596
X104458Y-131572
X191262Y-65596
X191262Y-131572
T0
M30
