M48
; DRILL file {KiCad (5.1.12)-1} date 03/22/22 09:13:04
; FORMAT={3:3/ absolute / metric / suppress leading zeros}
; #@! TF.CreationDate,2022-03-22T09:13:04+08:00
; #@! TF.GenerationSoftware,Kicad,Pcbnew,(5.1.12)-1
FMAT,2
METRIC,TZ
T1C0.200
T2C0.400
T3C0.700
T4C0.800
T5C1.000
T6C1.200
T7C1.320
T8C3.200
%
G90
G05
T1
X113318Y-116076
X113318Y-117985
X114618Y-116076
X114618Y-117985
X115918Y-116076
X115918Y-117985
X128418Y-122270
X128418Y-124180
X128684Y-109408
X128684Y-111318
X129718Y-122270
X129718Y-124180
X129985Y-109408
X129985Y-111318
X131017Y-122270
X131017Y-124180
X131284Y-109408
X131284Y-111318
X145004Y-110868
X145004Y-112778
X146304Y-110868
X146304Y-112778
X147604Y-110868
X147604Y-112778
X156193Y-102071
X156193Y-103981
X157493Y-102071
X157493Y-103981
X158793Y-102071
X158793Y-103981
X172436Y-105979
X172436Y-107889
X173736Y-105979
X173736Y-107889
X175036Y-105979
X175036Y-107889
X177376Y-121692
X177376Y-123602
X178676Y-121692
X178676Y-123602
X179976Y-121692
X179976Y-123602
X188425Y-112548
X188425Y-114458
X189725Y-112548
X189725Y-114458
X191025Y-112548
X191025Y-114458
T2
X101981Y-66294
X101981Y-73977
X101981Y-82296
X101981Y-91440
X102044Y-98933
X102044Y-109157
X102044Y-119571
X102044Y-129286
X105982Y-63246
X106426Y-134112
X107544Y-98628
X108585Y-71882
X109157Y-108394
X109411Y-104775
X110173Y-115189
X110439Y-99644
X110465Y-96241
X111189Y-123634
X111506Y-81471
X112395Y-112649
X112395Y-124523
X112459Y-80645
X112903Y-76200
X113030Y-79502
X113716Y-103022
X113919Y-84201
X114491Y-112205
X114808Y-83185
X115126Y-109665
X115761Y-82233
X115951Y-125984
X117411Y-115253
X118809Y-128651
X119634Y-134112
X119761Y-98362
X119824Y-105474
X119951Y-118491
X120396Y-71311
X120841Y-93789
X121984Y-98298
X122047Y-66739
X122428Y-87122
X122492Y-93789
X122746Y-92202
X123634Y-105474
X123825Y-63182
X124016Y-79756
X125095Y-120206
X125158Y-100267
X125158Y-121857
X125286Y-108204
X125286Y-109665
X125857Y-130112
X126048Y-127953
X127318Y-94298
X127381Y-106363
X127572Y-119126
X127953Y-98552
X128461Y-87884
X128905Y-97536
X128928Y-106213
X129350Y-118936
X129667Y-76644
X129667Y-81788
X132017Y-129159
X132588Y-121094
X132842Y-107823
X132842Y-118427
X133033Y-112331
X133286Y-63944
X133350Y-92456
X133350Y-95123
X133414Y-80518
X133414Y-81597
X133414Y-82677
X133668Y-79312
X134557Y-79947
X134557Y-81026
X134557Y-82169
X134620Y-120459
X135446Y-79248
X135636Y-80518
X135636Y-81597
X135636Y-82677
X135636Y-107251
X135826Y-92393
X135826Y-96837
X136756Y-85707
X136840Y-89468
X138557Y-128905
X138621Y-124397
X138811Y-90107
X138811Y-92202
X139573Y-118809
X139636Y-63944
X140081Y-94043
X140081Y-96837
X142558Y-118110
X143510Y-122174
X143701Y-118936
X143764Y-120015
X143796Y-106818
X143827Y-112078
X144209Y-76899
X144907Y-118936
X144907Y-120078
X145057Y-106434
X145732Y-133414
X146939Y-120523
X147955Y-122682
X147955Y-126682
X148400Y-80836
X149289Y-111062
X149670Y-64008
X150495Y-75756
X150495Y-131572
X150686Y-115379
X150686Y-118110
X150686Y-122682
X150686Y-125222
X152337Y-120650
X152781Y-133414
X152844Y-112713
X152908Y-101029
X153734Y-85154
X153797Y-113665
X153861Y-107188
X154686Y-122682
X154813Y-108077
X154876Y-99251
X155385Y-113665
X156337Y-86043
X156528Y-91440
X156655Y-117729
X156655Y-118936
X156823Y-99190
X157798Y-117793
X157798Y-118936
X159131Y-77089
X159131Y-78994
X160338Y-101409
X160655Y-77089
X161226Y-118809
X161290Y-113983
X161417Y-78867
X162052Y-88900
X162052Y-92647
X162116Y-95313
X162617Y-96672
X162623Y-73851
X162814Y-123825
X163817Y-98235
X163957Y-134049
X164021Y-81217
X164274Y-115697
X164465Y-105283
X164719Y-98980
X165481Y-63754
X165671Y-121094
X165735Y-87630
X165862Y-84836
X166116Y-114046
X167259Y-96774
X167386Y-113983
X167449Y-115697
X167767Y-88583
X167958Y-128207
X168084Y-63055
X168084Y-66231
X168212Y-126873
X168212Y-129603
X168466Y-73724
X168593Y-71120
X168593Y-72707
X168783Y-95694
X169101Y-104013
X169164Y-105601
X169736Y-99700
X170307Y-92456
X170498Y-80391
X171260Y-115506
X171386Y-106934
X172593Y-92456
X172784Y-113983
X173228Y-87757
X173524Y-103067
X173736Y-67691
X173863Y-83757
X174054Y-121539
X174625Y-89599
X174752Y-67691
X174943Y-129667
X175006Y-128333
X175133Y-66040
X175451Y-94869
X175768Y-67691
X175832Y-69596
X175832Y-80709
X176086Y-118682
X176149Y-112522
X176149Y-122301
X176467Y-105093
X176784Y-67691
X176784Y-69596
X176914Y-112360
X176999Y-99713
X177101Y-71120
X177165Y-75756
X177736Y-82614
X177800Y-67691
X177800Y-69596
X177864Y-133985
X177927Y-128905
X178005Y-112360
X178626Y-118491
X178753Y-67691
X178816Y-91376
X178816Y-93027
X179070Y-89218
X179127Y-95714
X179261Y-107887
X179769Y-67691
X179769Y-101346
X180086Y-88328
X180213Y-80709
X180276Y-71120
X181420Y-75756
X181610Y-120777
X181928Y-81471
X182245Y-88837
X182245Y-90361
X182245Y-92202
X182245Y-94298
X183198Y-70739
X183706Y-105283
X184150Y-101981
X185166Y-111443
X186246Y-76010
X186309Y-119190
X186436Y-81471
X187008Y-106045
X187261Y-74803
X187325Y-109474
X187770Y-99822
X187770Y-107887
X188151Y-68580
X188519Y-120421
X190246Y-63055
X190246Y-77724
X190309Y-134049
X192265Y-112331
X193091Y-69545
X193611Y-129985
X193802Y-67183
T3
X118936Y-85217
X134557Y-124269
X134557Y-128778
X151130Y-87376
X166307Y-129413
X166370Y-126752
X167005Y-90297
X171386Y-85471
X193421Y-78232
T4
X103942Y-117475
X106934Y-89789
X106934Y-93289
X107442Y-117475
X115888Y-89789
X115888Y-93289
X118928Y-123762
X119436Y-110744
X122428Y-123762
X122936Y-110744
X131953Y-98044
X134493Y-98044
X135819Y-112268
X137033Y-98044
X139319Y-112268
X146995Y-103315
X150495Y-103315
X157734Y-65151
X157734Y-68651
X163251Y-107696
X166751Y-107696
X168204Y-122364
X171577Y-65080
X171577Y-68580
X171704Y-122364
X179253Y-113792
X182753Y-113792
T5
X105410Y-106553
X105461Y-101092
X109169Y-101041
X111506Y-87732
X111709Y-101041
X114249Y-101041
X121133Y-101016
X141542Y-127826
X141542Y-130366
X144082Y-127826
X144082Y-130366
X146622Y-127826
X146622Y-130366
X149161Y-127826
X149161Y-130366
X151701Y-127826
X151701Y-130366
X154242Y-127826
X154242Y-130366
X156782Y-127826
X156782Y-130366
X159322Y-127826
X159322Y-130366
X171450Y-88646
X171450Y-91186
X171450Y-93726
X188976Y-83312
X188976Y-85852
X188976Y-88392
X188976Y-90932
X188976Y-93472
X188976Y-96012
X188976Y-98552
X188976Y-101092
X188976Y-103632
X188976Y-106172
X191516Y-83312
X191516Y-85852
X191516Y-88392
X191516Y-90932
X191516Y-93472
X191516Y-96012
X191516Y-98552
X191516Y-101092
X191516Y-103632
X191516Y-106172
X193294Y-72517
T6
X127635Y-66668
X127635Y-74168
X145351Y-66668
X145351Y-74168
T7
X107569Y-78232
X107569Y-83232
T8
X104458Y-65596
X104458Y-131572
X191262Y-65596
X191262Y-131572
T0
M30
