G04 #@! TF.GenerationSoftware,KiCad,Pcbnew,(5.1.12)-1*
G04 #@! TF.CreationDate,2022-05-11T12:07:51+08:00*
G04 #@! TF.ProjectId,Printhead-Driver,5072696e-7468-4656-9164-2d4472697665,V0.6a*
G04 #@! TF.SameCoordinates,Original*
G04 #@! TF.FileFunction,Soldermask,Top*
G04 #@! TF.FilePolarity,Negative*
%FSLAX46Y46*%
G04 Gerber Fmt 4.6, Leading zero omitted, Abs format (unit mm)*
G04 Created by KiCad (PCBNEW (5.1.12)-1) date 2022-05-11 12:07:51*
%MOMM*%
%LPD*%
G01*
G04 APERTURE LIST*
%ADD10R,1.500000X1.500000*%
%ADD11R,3.100000X2.410000*%
%ADD12R,1.500000X4.200000*%
%ADD13O,1.700000X1.700000*%
%ADD14R,1.700000X1.700000*%
%ADD15R,4.500000X3.500000*%
%ADD16R,3.900000X1.900000*%
%ADD17R,4.500000X1.400000*%
%ADD18R,0.650000X1.060000*%
%ADD19C,0.100000*%
%ADD20R,0.900000X1.300000*%
%ADD21R,1.000000X0.300000*%
%ADD22R,2.500000X2.000000*%
%ADD23R,0.400000X1.100000*%
%ADD24C,1.700000*%
%ADD25C,1.600000*%
%ADD26R,1.600000X1.600000*%
%ADD27C,3.200000*%
%ADD28R,8.460000X10.530000*%
%ADD29R,3.210000X1.050000*%
%ADD30C,1.440000*%
%ADD31R,6.000000X3.500000*%
%ADD32R,3.500000X3.550000*%
%ADD33R,1.800000X2.500000*%
%ADD34R,2.500000X1.800000*%
%ADD35C,2.400000*%
%ADD36R,2.400000X2.400000*%
G04 APERTURE END LIST*
G36*
G01*
X155446300Y-71178601D02*
X155446300Y-68978599D01*
G75*
G02*
X155696299Y-68728600I249999J0D01*
G01*
X156346301Y-68728600D01*
G75*
G02*
X156596300Y-68978599I0J-249999D01*
G01*
X156596300Y-71178601D01*
G75*
G02*
X156346301Y-71428600I-249999J0D01*
G01*
X155696299Y-71428600D01*
G75*
G02*
X155446300Y-71178601I0J249999D01*
G01*
G37*
G36*
G01*
X152496300Y-71178601D02*
X152496300Y-68978599D01*
G75*
G02*
X152746299Y-68728600I249999J0D01*
G01*
X153396301Y-68728600D01*
G75*
G02*
X153646300Y-68978599I0J-249999D01*
G01*
X153646300Y-71178601D01*
G75*
G02*
X153396301Y-71428600I-249999J0D01*
G01*
X152746299Y-71428600D01*
G75*
G02*
X152496300Y-71178601I0J249999D01*
G01*
G37*
D10*
X102463600Y-114325400D03*
G36*
G01*
X114575000Y-70009200D02*
X114025000Y-70009200D01*
G75*
G02*
X113825000Y-69809200I0J200000D01*
G01*
X113825000Y-69409200D01*
G75*
G02*
X114025000Y-69209200I200000J0D01*
G01*
X114575000Y-69209200D01*
G75*
G02*
X114775000Y-69409200I0J-200000D01*
G01*
X114775000Y-69809200D01*
G75*
G02*
X114575000Y-70009200I-200000J0D01*
G01*
G37*
G36*
G01*
X114575000Y-71659200D02*
X114025000Y-71659200D01*
G75*
G02*
X113825000Y-71459200I0J200000D01*
G01*
X113825000Y-71059200D01*
G75*
G02*
X114025000Y-70859200I200000J0D01*
G01*
X114575000Y-70859200D01*
G75*
G02*
X114775000Y-71059200I0J-200000D01*
G01*
X114775000Y-71459200D01*
G75*
G02*
X114575000Y-71659200I-200000J0D01*
G01*
G37*
G36*
G01*
X114043750Y-67787000D02*
X114556250Y-67787000D01*
G75*
G02*
X114775000Y-68005750I0J-218750D01*
G01*
X114775000Y-68443250D01*
G75*
G02*
X114556250Y-68662000I-218750J0D01*
G01*
X114043750Y-68662000D01*
G75*
G02*
X113825000Y-68443250I0J218750D01*
G01*
X113825000Y-68005750D01*
G75*
G02*
X114043750Y-67787000I218750J0D01*
G01*
G37*
G36*
G01*
X114043750Y-66212000D02*
X114556250Y-66212000D01*
G75*
G02*
X114775000Y-66430750I0J-218750D01*
G01*
X114775000Y-66868250D01*
G75*
G02*
X114556250Y-67087000I-218750J0D01*
G01*
X114043750Y-67087000D01*
G75*
G02*
X113825000Y-66868250I0J218750D01*
G01*
X113825000Y-66430750D01*
G75*
G02*
X114043750Y-66212000I218750J0D01*
G01*
G37*
G36*
G01*
X181127150Y-75097800D02*
X181889650Y-75097800D01*
G75*
G02*
X182108400Y-75316550I0J-218750D01*
G01*
X182108400Y-75754050D01*
G75*
G02*
X181889650Y-75972800I-218750J0D01*
G01*
X181127150Y-75972800D01*
G75*
G02*
X180908400Y-75754050I0J218750D01*
G01*
X180908400Y-75316550D01*
G75*
G02*
X181127150Y-75097800I218750J0D01*
G01*
G37*
G36*
G01*
X181127150Y-72972800D02*
X181889650Y-72972800D01*
G75*
G02*
X182108400Y-73191550I0J-218750D01*
G01*
X182108400Y-73629050D01*
G75*
G02*
X181889650Y-73847800I-218750J0D01*
G01*
X181127150Y-73847800D01*
G75*
G02*
X180908400Y-73629050I0J218750D01*
G01*
X180908400Y-73191550D01*
G75*
G02*
X181127150Y-72972800I218750J0D01*
G01*
G37*
G36*
G01*
X171011000Y-95063500D02*
X171011000Y-95563500D01*
G75*
G02*
X170786000Y-95788500I-225000J0D01*
G01*
X170336000Y-95788500D01*
G75*
G02*
X170111000Y-95563500I0J225000D01*
G01*
X170111000Y-95063500D01*
G75*
G02*
X170336000Y-94838500I225000J0D01*
G01*
X170786000Y-94838500D01*
G75*
G02*
X171011000Y-95063500I0J-225000D01*
G01*
G37*
G36*
G01*
X172561000Y-95063500D02*
X172561000Y-95563500D01*
G75*
G02*
X172336000Y-95788500I-225000J0D01*
G01*
X171886000Y-95788500D01*
G75*
G02*
X171661000Y-95563500I0J225000D01*
G01*
X171661000Y-95063500D01*
G75*
G02*
X171886000Y-94838500I225000J0D01*
G01*
X172336000Y-94838500D01*
G75*
G02*
X172561000Y-95063500I0J-225000D01*
G01*
G37*
G36*
G01*
X165969100Y-94314200D02*
X165969100Y-94814200D01*
G75*
G02*
X165744100Y-95039200I-225000J0D01*
G01*
X165294100Y-95039200D01*
G75*
G02*
X165069100Y-94814200I0J225000D01*
G01*
X165069100Y-94314200D01*
G75*
G02*
X165294100Y-94089200I225000J0D01*
G01*
X165744100Y-94089200D01*
G75*
G02*
X165969100Y-94314200I0J-225000D01*
G01*
G37*
G36*
G01*
X167519100Y-94314200D02*
X167519100Y-94814200D01*
G75*
G02*
X167294100Y-95039200I-225000J0D01*
G01*
X166844100Y-95039200D01*
G75*
G02*
X166619100Y-94814200I0J225000D01*
G01*
X166619100Y-94314200D01*
G75*
G02*
X166844100Y-94089200I225000J0D01*
G01*
X167294100Y-94089200D01*
G75*
G02*
X167519100Y-94314200I0J-225000D01*
G01*
G37*
G36*
G01*
X161193900Y-91545600D02*
X161193900Y-92045600D01*
G75*
G02*
X160968900Y-92270600I-225000J0D01*
G01*
X160518900Y-92270600D01*
G75*
G02*
X160293900Y-92045600I0J225000D01*
G01*
X160293900Y-91545600D01*
G75*
G02*
X160518900Y-91320600I225000J0D01*
G01*
X160968900Y-91320600D01*
G75*
G02*
X161193900Y-91545600I0J-225000D01*
G01*
G37*
G36*
G01*
X162743900Y-91545600D02*
X162743900Y-92045600D01*
G75*
G02*
X162518900Y-92270600I-225000J0D01*
G01*
X162068900Y-92270600D01*
G75*
G02*
X161843900Y-92045600I0J225000D01*
G01*
X161843900Y-91545600D01*
G75*
G02*
X162068900Y-91320600I225000J0D01*
G01*
X162518900Y-91320600D01*
G75*
G02*
X162743900Y-91545600I0J-225000D01*
G01*
G37*
G36*
G01*
X178988300Y-93569600D02*
X178988300Y-93069600D01*
G75*
G02*
X179213300Y-92844600I225000J0D01*
G01*
X179663300Y-92844600D01*
G75*
G02*
X179888300Y-93069600I0J-225000D01*
G01*
X179888300Y-93569600D01*
G75*
G02*
X179663300Y-93794600I-225000J0D01*
G01*
X179213300Y-93794600D01*
G75*
G02*
X178988300Y-93569600I0J225000D01*
G01*
G37*
G36*
G01*
X177438300Y-93569600D02*
X177438300Y-93069600D01*
G75*
G02*
X177663300Y-92844600I225000J0D01*
G01*
X178113300Y-92844600D01*
G75*
G02*
X178338300Y-93069600I0J-225000D01*
G01*
X178338300Y-93569600D01*
G75*
G02*
X178113300Y-93794600I-225000J0D01*
G01*
X177663300Y-93794600D01*
G75*
G02*
X177438300Y-93569600I0J225000D01*
G01*
G37*
G36*
G01*
X175902500Y-94649100D02*
X175902500Y-94149100D01*
G75*
G02*
X176127500Y-93924100I225000J0D01*
G01*
X176577500Y-93924100D01*
G75*
G02*
X176802500Y-94149100I0J-225000D01*
G01*
X176802500Y-94649100D01*
G75*
G02*
X176577500Y-94874100I-225000J0D01*
G01*
X176127500Y-94874100D01*
G75*
G02*
X175902500Y-94649100I0J225000D01*
G01*
G37*
G36*
G01*
X174352500Y-94649100D02*
X174352500Y-94149100D01*
G75*
G02*
X174577500Y-93924100I225000J0D01*
G01*
X175027500Y-93924100D01*
G75*
G02*
X175252500Y-94149100I0J-225000D01*
G01*
X175252500Y-94649100D01*
G75*
G02*
X175027500Y-94874100I-225000J0D01*
G01*
X174577500Y-94874100D01*
G75*
G02*
X174352500Y-94649100I0J225000D01*
G01*
G37*
G36*
G01*
X164762000Y-92739400D02*
X164762000Y-93239400D01*
G75*
G02*
X164537000Y-93464400I-225000J0D01*
G01*
X164087000Y-93464400D01*
G75*
G02*
X163862000Y-93239400I0J225000D01*
G01*
X163862000Y-92739400D01*
G75*
G02*
X164087000Y-92514400I225000J0D01*
G01*
X164537000Y-92514400D01*
G75*
G02*
X164762000Y-92739400I0J-225000D01*
G01*
G37*
G36*
G01*
X166312000Y-92739400D02*
X166312000Y-93239400D01*
G75*
G02*
X166087000Y-93464400I-225000J0D01*
G01*
X165637000Y-93464400D01*
G75*
G02*
X165412000Y-93239400I0J225000D01*
G01*
X165412000Y-92739400D01*
G75*
G02*
X165637000Y-92514400I225000J0D01*
G01*
X166087000Y-92514400D01*
G75*
G02*
X166312000Y-92739400I0J-225000D01*
G01*
G37*
G36*
G01*
X162742700Y-90021600D02*
X162742700Y-90521600D01*
G75*
G02*
X162517700Y-90746600I-225000J0D01*
G01*
X162067700Y-90746600D01*
G75*
G02*
X161842700Y-90521600I0J225000D01*
G01*
X161842700Y-90021600D01*
G75*
G02*
X162067700Y-89796600I225000J0D01*
G01*
X162517700Y-89796600D01*
G75*
G02*
X162742700Y-90021600I0J-225000D01*
G01*
G37*
G36*
G01*
X164292700Y-90021600D02*
X164292700Y-90521600D01*
G75*
G02*
X164067700Y-90746600I-225000J0D01*
G01*
X163617700Y-90746600D01*
G75*
G02*
X163392700Y-90521600I0J225000D01*
G01*
X163392700Y-90021600D01*
G75*
G02*
X163617700Y-89796600I225000J0D01*
G01*
X164067700Y-89796600D01*
G75*
G02*
X164292700Y-90021600I0J-225000D01*
G01*
G37*
G36*
G01*
X165858000Y-88588000D02*
X165358000Y-88588000D01*
G75*
G02*
X165133000Y-88363000I0J225000D01*
G01*
X165133000Y-87913000D01*
G75*
G02*
X165358000Y-87688000I225000J0D01*
G01*
X165858000Y-87688000D01*
G75*
G02*
X166083000Y-87913000I0J-225000D01*
G01*
X166083000Y-88363000D01*
G75*
G02*
X165858000Y-88588000I-225000J0D01*
G01*
G37*
G36*
G01*
X165858000Y-90138000D02*
X165358000Y-90138000D01*
G75*
G02*
X165133000Y-89913000I0J225000D01*
G01*
X165133000Y-89463000D01*
G75*
G02*
X165358000Y-89238000I225000J0D01*
G01*
X165858000Y-89238000D01*
G75*
G02*
X166083000Y-89463000I0J-225000D01*
G01*
X166083000Y-89913000D01*
G75*
G02*
X165858000Y-90138000I-225000J0D01*
G01*
G37*
X154200000Y-86700000D03*
G36*
G01*
X148650000Y-117750000D02*
X148150000Y-117750000D01*
G75*
G02*
X147925000Y-117525000I0J225000D01*
G01*
X147925000Y-117075000D01*
G75*
G02*
X148150000Y-116850000I225000J0D01*
G01*
X148650000Y-116850000D01*
G75*
G02*
X148875000Y-117075000I0J-225000D01*
G01*
X148875000Y-117525000D01*
G75*
G02*
X148650000Y-117750000I-225000J0D01*
G01*
G37*
G36*
G01*
X148650000Y-119300000D02*
X148150000Y-119300000D01*
G75*
G02*
X147925000Y-119075000I0J225000D01*
G01*
X147925000Y-118625000D01*
G75*
G02*
X148150000Y-118400000I225000J0D01*
G01*
X148650000Y-118400000D01*
G75*
G02*
X148875000Y-118625000I0J-225000D01*
G01*
X148875000Y-119075000D01*
G75*
G02*
X148650000Y-119300000I-225000J0D01*
G01*
G37*
G36*
G01*
X181050000Y-129150000D02*
X180550000Y-129150000D01*
G75*
G02*
X180325000Y-128925000I0J225000D01*
G01*
X180325000Y-128475000D01*
G75*
G02*
X180550000Y-128250000I225000J0D01*
G01*
X181050000Y-128250000D01*
G75*
G02*
X181275000Y-128475000I0J-225000D01*
G01*
X181275000Y-128925000D01*
G75*
G02*
X181050000Y-129150000I-225000J0D01*
G01*
G37*
G36*
G01*
X181050000Y-130700000D02*
X180550000Y-130700000D01*
G75*
G02*
X180325000Y-130475000I0J225000D01*
G01*
X180325000Y-130025000D01*
G75*
G02*
X180550000Y-129800000I225000J0D01*
G01*
X181050000Y-129800000D01*
G75*
G02*
X181275000Y-130025000I0J-225000D01*
G01*
X181275000Y-130475000D01*
G75*
G02*
X181050000Y-130700000I-225000J0D01*
G01*
G37*
G36*
G01*
X113150000Y-123250000D02*
X112650000Y-123250000D01*
G75*
G02*
X112425000Y-123025000I0J225000D01*
G01*
X112425000Y-122575000D01*
G75*
G02*
X112650000Y-122350000I225000J0D01*
G01*
X113150000Y-122350000D01*
G75*
G02*
X113375000Y-122575000I0J-225000D01*
G01*
X113375000Y-123025000D01*
G75*
G02*
X113150000Y-123250000I-225000J0D01*
G01*
G37*
G36*
G01*
X113150000Y-124800000D02*
X112650000Y-124800000D01*
G75*
G02*
X112425000Y-124575000I0J225000D01*
G01*
X112425000Y-124125000D01*
G75*
G02*
X112650000Y-123900000I225000J0D01*
G01*
X113150000Y-123900000D01*
G75*
G02*
X113375000Y-124125000I0J-225000D01*
G01*
X113375000Y-124575000D01*
G75*
G02*
X113150000Y-124800000I-225000J0D01*
G01*
G37*
G36*
G01*
X190250000Y-124700000D02*
X189750000Y-124700000D01*
G75*
G02*
X189525000Y-124475000I0J225000D01*
G01*
X189525000Y-124025000D01*
G75*
G02*
X189750000Y-123800000I225000J0D01*
G01*
X190250000Y-123800000D01*
G75*
G02*
X190475000Y-124025000I0J-225000D01*
G01*
X190475000Y-124475000D01*
G75*
G02*
X190250000Y-124700000I-225000J0D01*
G01*
G37*
G36*
G01*
X190250000Y-126250000D02*
X189750000Y-126250000D01*
G75*
G02*
X189525000Y-126025000I0J225000D01*
G01*
X189525000Y-125575000D01*
G75*
G02*
X189750000Y-125350000I225000J0D01*
G01*
X190250000Y-125350000D01*
G75*
G02*
X190475000Y-125575000I0J-225000D01*
G01*
X190475000Y-126025000D01*
G75*
G02*
X190250000Y-126250000I-225000J0D01*
G01*
G37*
G36*
G01*
X130050000Y-110650000D02*
X129550000Y-110650000D01*
G75*
G02*
X129325000Y-110425000I0J225000D01*
G01*
X129325000Y-109975000D01*
G75*
G02*
X129550000Y-109750000I225000J0D01*
G01*
X130050000Y-109750000D01*
G75*
G02*
X130275000Y-109975000I0J-225000D01*
G01*
X130275000Y-110425000D01*
G75*
G02*
X130050000Y-110650000I-225000J0D01*
G01*
G37*
G36*
G01*
X130050000Y-112200000D02*
X129550000Y-112200000D01*
G75*
G02*
X129325000Y-111975000I0J225000D01*
G01*
X129325000Y-111525000D01*
G75*
G02*
X129550000Y-111300000I225000J0D01*
G01*
X130050000Y-111300000D01*
G75*
G02*
X130275000Y-111525000I0J-225000D01*
G01*
X130275000Y-111975000D01*
G75*
G02*
X130050000Y-112200000I-225000J0D01*
G01*
G37*
G36*
G01*
X175649700Y-115004000D02*
X175149700Y-115004000D01*
G75*
G02*
X174924700Y-114779000I0J225000D01*
G01*
X174924700Y-114329000D01*
G75*
G02*
X175149700Y-114104000I225000J0D01*
G01*
X175649700Y-114104000D01*
G75*
G02*
X175874700Y-114329000I0J-225000D01*
G01*
X175874700Y-114779000D01*
G75*
G02*
X175649700Y-115004000I-225000J0D01*
G01*
G37*
G36*
G01*
X175649700Y-116554000D02*
X175149700Y-116554000D01*
G75*
G02*
X174924700Y-116329000I0J225000D01*
G01*
X174924700Y-115879000D01*
G75*
G02*
X175149700Y-115654000I225000J0D01*
G01*
X175649700Y-115654000D01*
G75*
G02*
X175874700Y-115879000I0J-225000D01*
G01*
X175874700Y-116329000D01*
G75*
G02*
X175649700Y-116554000I-225000J0D01*
G01*
G37*
G36*
G01*
X133150000Y-128150000D02*
X132650000Y-128150000D01*
G75*
G02*
X132425000Y-127925000I0J225000D01*
G01*
X132425000Y-127475000D01*
G75*
G02*
X132650000Y-127250000I225000J0D01*
G01*
X133150000Y-127250000D01*
G75*
G02*
X133375000Y-127475000I0J-225000D01*
G01*
X133375000Y-127925000D01*
G75*
G02*
X133150000Y-128150000I-225000J0D01*
G01*
G37*
G36*
G01*
X133150000Y-129700000D02*
X132650000Y-129700000D01*
G75*
G02*
X132425000Y-129475000I0J225000D01*
G01*
X132425000Y-129025000D01*
G75*
G02*
X132650000Y-128800000I225000J0D01*
G01*
X133150000Y-128800000D01*
G75*
G02*
X133375000Y-129025000I0J-225000D01*
G01*
X133375000Y-129475000D01*
G75*
G02*
X133150000Y-129700000I-225000J0D01*
G01*
G37*
G36*
G01*
X159350000Y-111075000D02*
X158850000Y-111075000D01*
G75*
G02*
X158625000Y-110850000I0J225000D01*
G01*
X158625000Y-110400000D01*
G75*
G02*
X158850000Y-110175000I225000J0D01*
G01*
X159350000Y-110175000D01*
G75*
G02*
X159575000Y-110400000I0J-225000D01*
G01*
X159575000Y-110850000D01*
G75*
G02*
X159350000Y-111075000I-225000J0D01*
G01*
G37*
G36*
G01*
X159350000Y-112625000D02*
X158850000Y-112625000D01*
G75*
G02*
X158625000Y-112400000I0J225000D01*
G01*
X158625000Y-111950000D01*
G75*
G02*
X158850000Y-111725000I225000J0D01*
G01*
X159350000Y-111725000D01*
G75*
G02*
X159575000Y-111950000I0J-225000D01*
G01*
X159575000Y-112400000D01*
G75*
G02*
X159350000Y-112625000I-225000J0D01*
G01*
G37*
D11*
X130617500Y-121725000D03*
G36*
G01*
X132372500Y-123575000D02*
X132672500Y-123575000D01*
G75*
G02*
X132822500Y-123725000I0J-150000D01*
G01*
X132822500Y-125025000D01*
G75*
G02*
X132672500Y-125175000I-150000J0D01*
G01*
X132372500Y-125175000D01*
G75*
G02*
X132222500Y-125025000I0J150000D01*
G01*
X132222500Y-123725000D01*
G75*
G02*
X132372500Y-123575000I150000J0D01*
G01*
G37*
G36*
G01*
X131102500Y-123575000D02*
X131402500Y-123575000D01*
G75*
G02*
X131552500Y-123725000I0J-150000D01*
G01*
X131552500Y-125025000D01*
G75*
G02*
X131402500Y-125175000I-150000J0D01*
G01*
X131102500Y-125175000D01*
G75*
G02*
X130952500Y-125025000I0J150000D01*
G01*
X130952500Y-123725000D01*
G75*
G02*
X131102500Y-123575000I150000J0D01*
G01*
G37*
G36*
G01*
X129832500Y-123575000D02*
X130132500Y-123575000D01*
G75*
G02*
X130282500Y-123725000I0J-150000D01*
G01*
X130282500Y-125025000D01*
G75*
G02*
X130132500Y-125175000I-150000J0D01*
G01*
X129832500Y-125175000D01*
G75*
G02*
X129682500Y-125025000I0J150000D01*
G01*
X129682500Y-123725000D01*
G75*
G02*
X129832500Y-123575000I150000J0D01*
G01*
G37*
G36*
G01*
X128562500Y-123575000D02*
X128862500Y-123575000D01*
G75*
G02*
X129012500Y-123725000I0J-150000D01*
G01*
X129012500Y-125025000D01*
G75*
G02*
X128862500Y-125175000I-150000J0D01*
G01*
X128562500Y-125175000D01*
G75*
G02*
X128412500Y-125025000I0J150000D01*
G01*
X128412500Y-123725000D01*
G75*
G02*
X128562500Y-123575000I150000J0D01*
G01*
G37*
G36*
G01*
X128562500Y-118275000D02*
X128862500Y-118275000D01*
G75*
G02*
X129012500Y-118425000I0J-150000D01*
G01*
X129012500Y-119725000D01*
G75*
G02*
X128862500Y-119875000I-150000J0D01*
G01*
X128562500Y-119875000D01*
G75*
G02*
X128412500Y-119725000I0J150000D01*
G01*
X128412500Y-118425000D01*
G75*
G02*
X128562500Y-118275000I150000J0D01*
G01*
G37*
G36*
G01*
X129832500Y-118275000D02*
X130132500Y-118275000D01*
G75*
G02*
X130282500Y-118425000I0J-150000D01*
G01*
X130282500Y-119725000D01*
G75*
G02*
X130132500Y-119875000I-150000J0D01*
G01*
X129832500Y-119875000D01*
G75*
G02*
X129682500Y-119725000I0J150000D01*
G01*
X129682500Y-118425000D01*
G75*
G02*
X129832500Y-118275000I150000J0D01*
G01*
G37*
G36*
G01*
X131102500Y-118275000D02*
X131402500Y-118275000D01*
G75*
G02*
X131552500Y-118425000I0J-150000D01*
G01*
X131552500Y-119725000D01*
G75*
G02*
X131402500Y-119875000I-150000J0D01*
G01*
X131102500Y-119875000D01*
G75*
G02*
X130952500Y-119725000I0J150000D01*
G01*
X130952500Y-118425000D01*
G75*
G02*
X131102500Y-118275000I150000J0D01*
G01*
G37*
G36*
G01*
X132372500Y-118275000D02*
X132672500Y-118275000D01*
G75*
G02*
X132822500Y-118425000I0J-150000D01*
G01*
X132822500Y-119725000D01*
G75*
G02*
X132672500Y-119875000I-150000J0D01*
G01*
X132372500Y-119875000D01*
G75*
G02*
X132222500Y-119725000I0J150000D01*
G01*
X132222500Y-118425000D01*
G75*
G02*
X132372500Y-118275000I150000J0D01*
G01*
G37*
G36*
G01*
X146237500Y-118325001D02*
X146237500Y-117074999D01*
G75*
G02*
X146487499Y-116825000I249999J0D01*
G01*
X147112501Y-116825000D01*
G75*
G02*
X147362500Y-117074999I0J-249999D01*
G01*
X147362500Y-118325001D01*
G75*
G02*
X147112501Y-118575000I-249999J0D01*
G01*
X146487499Y-118575000D01*
G75*
G02*
X146237500Y-118325001I0J249999D01*
G01*
G37*
G36*
G01*
X143312500Y-118325001D02*
X143312500Y-117074999D01*
G75*
G02*
X143562499Y-116825000I249999J0D01*
G01*
X144187501Y-116825000D01*
G75*
G02*
X144437500Y-117074999I0J-249999D01*
G01*
X144437500Y-118325001D01*
G75*
G02*
X144187501Y-118575000I-249999J0D01*
G01*
X143562499Y-118575000D01*
G75*
G02*
X143312500Y-118325001I0J249999D01*
G01*
G37*
G36*
G01*
X120643750Y-67823079D02*
X121156250Y-67823079D01*
G75*
G02*
X121375000Y-68041829I0J-218750D01*
G01*
X121375000Y-68479329D01*
G75*
G02*
X121156250Y-68698079I-218750J0D01*
G01*
X120643750Y-68698079D01*
G75*
G02*
X120425000Y-68479329I0J218750D01*
G01*
X120425000Y-68041829D01*
G75*
G02*
X120643750Y-67823079I218750J0D01*
G01*
G37*
G36*
G01*
X120643750Y-66248079D02*
X121156250Y-66248079D01*
G75*
G02*
X121375000Y-66466829I0J-218750D01*
G01*
X121375000Y-66904329D01*
G75*
G02*
X121156250Y-67123079I-218750J0D01*
G01*
X120643750Y-67123079D01*
G75*
G02*
X120425000Y-66904329I0J218750D01*
G01*
X120425000Y-66466829D01*
G75*
G02*
X120643750Y-66248079I218750J0D01*
G01*
G37*
G36*
G01*
X117460050Y-67837699D02*
X117972550Y-67837699D01*
G75*
G02*
X118191300Y-68056449I0J-218750D01*
G01*
X118191300Y-68493949D01*
G75*
G02*
X117972550Y-68712699I-218750J0D01*
G01*
X117460050Y-68712699D01*
G75*
G02*
X117241300Y-68493949I0J218750D01*
G01*
X117241300Y-68056449D01*
G75*
G02*
X117460050Y-67837699I218750J0D01*
G01*
G37*
G36*
G01*
X117460050Y-66262699D02*
X117972550Y-66262699D01*
G75*
G02*
X118191300Y-66481449I0J-218750D01*
G01*
X118191300Y-66918949D01*
G75*
G02*
X117972550Y-67137699I-218750J0D01*
G01*
X117460050Y-67137699D01*
G75*
G02*
X117241300Y-66918949I0J218750D01*
G01*
X117241300Y-66481449D01*
G75*
G02*
X117460050Y-66262699I218750J0D01*
G01*
G37*
G36*
G01*
X110532104Y-67835778D02*
X111044604Y-67835778D01*
G75*
G02*
X111263354Y-68054528I0J-218750D01*
G01*
X111263354Y-68492028D01*
G75*
G02*
X111044604Y-68710778I-218750J0D01*
G01*
X110532104Y-68710778D01*
G75*
G02*
X110313354Y-68492028I0J218750D01*
G01*
X110313354Y-68054528D01*
G75*
G02*
X110532104Y-67835778I218750J0D01*
G01*
G37*
G36*
G01*
X110532104Y-66260778D02*
X111044604Y-66260778D01*
G75*
G02*
X111263354Y-66479528I0J-218750D01*
G01*
X111263354Y-66917028D01*
G75*
G02*
X111044604Y-67135778I-218750J0D01*
G01*
X110532104Y-67135778D01*
G75*
G02*
X110313354Y-66917028I0J218750D01*
G01*
X110313354Y-66479528D01*
G75*
G02*
X110532104Y-66260778I218750J0D01*
G01*
G37*
G36*
G01*
X117978600Y-70060000D02*
X117428600Y-70060000D01*
G75*
G02*
X117228600Y-69860000I0J200000D01*
G01*
X117228600Y-69460000D01*
G75*
G02*
X117428600Y-69260000I200000J0D01*
G01*
X117978600Y-69260000D01*
G75*
G02*
X118178600Y-69460000I0J-200000D01*
G01*
X118178600Y-69860000D01*
G75*
G02*
X117978600Y-70060000I-200000J0D01*
G01*
G37*
G36*
G01*
X117978600Y-71710000D02*
X117428600Y-71710000D01*
G75*
G02*
X117228600Y-71510000I0J200000D01*
G01*
X117228600Y-71110000D01*
G75*
G02*
X117428600Y-70910000I200000J0D01*
G01*
X117978600Y-70910000D01*
G75*
G02*
X118178600Y-71110000I0J-200000D01*
G01*
X118178600Y-71510000D01*
G75*
G02*
X117978600Y-71710000I-200000J0D01*
G01*
G37*
D10*
X110286800Y-73863200D03*
G36*
G01*
X184918750Y-83525000D02*
X185681250Y-83525000D01*
G75*
G02*
X185900000Y-83743750I0J-218750D01*
G01*
X185900000Y-84181250D01*
G75*
G02*
X185681250Y-84400000I-218750J0D01*
G01*
X184918750Y-84400000D01*
G75*
G02*
X184700000Y-84181250I0J218750D01*
G01*
X184700000Y-83743750D01*
G75*
G02*
X184918750Y-83525000I218750J0D01*
G01*
G37*
G36*
G01*
X184918750Y-81400000D02*
X185681250Y-81400000D01*
G75*
G02*
X185900000Y-81618750I0J-218750D01*
G01*
X185900000Y-82056250D01*
G75*
G02*
X185681250Y-82275000I-218750J0D01*
G01*
X184918750Y-82275000D01*
G75*
G02*
X184700000Y-82056250I0J218750D01*
G01*
X184700000Y-81618750D01*
G75*
G02*
X184918750Y-81400000I218750J0D01*
G01*
G37*
D12*
X151400000Y-91200000D03*
X155000000Y-91200000D03*
G36*
G01*
X169602450Y-84609000D02*
X168839950Y-84609000D01*
G75*
G02*
X168621200Y-84390250I0J218750D01*
G01*
X168621200Y-83952750D01*
G75*
G02*
X168839950Y-83734000I218750J0D01*
G01*
X169602450Y-83734000D01*
G75*
G02*
X169821200Y-83952750I0J-218750D01*
G01*
X169821200Y-84390250D01*
G75*
G02*
X169602450Y-84609000I-218750J0D01*
G01*
G37*
G36*
G01*
X169602450Y-86734000D02*
X168839950Y-86734000D01*
G75*
G02*
X168621200Y-86515250I0J218750D01*
G01*
X168621200Y-86077750D01*
G75*
G02*
X168839950Y-85859000I218750J0D01*
G01*
X169602450Y-85859000D01*
G75*
G02*
X169821200Y-86077750I0J-218750D01*
G01*
X169821200Y-86515250D01*
G75*
G02*
X169602450Y-86734000I-218750J0D01*
G01*
G37*
D13*
X188950600Y-111252000D03*
X191490600Y-111252000D03*
X188950600Y-108712000D03*
X191490600Y-108712000D03*
X188950600Y-106172000D03*
X191490600Y-106172000D03*
X188950600Y-103632000D03*
X191490600Y-103632000D03*
X188950600Y-101092000D03*
X191490600Y-101092000D03*
X188950600Y-98552000D03*
X191490600Y-98552000D03*
X188950600Y-96012000D03*
X191490600Y-96012000D03*
X188950600Y-93472000D03*
X191490600Y-93472000D03*
X188950600Y-90932000D03*
X191490600Y-90932000D03*
X188950600Y-88392000D03*
X191490600Y-88392000D03*
X188950600Y-85852000D03*
X191490600Y-85852000D03*
X188950600Y-83312000D03*
D14*
X191490600Y-83312000D03*
D15*
X122224800Y-76593700D03*
X115624800Y-76593700D03*
G36*
G01*
X120217250Y-86026600D02*
X119304750Y-86026600D01*
G75*
G02*
X119061000Y-85782850I0J243750D01*
G01*
X119061000Y-85295350D01*
G75*
G02*
X119304750Y-85051600I243750J0D01*
G01*
X120217250Y-85051600D01*
G75*
G02*
X120461000Y-85295350I0J-243750D01*
G01*
X120461000Y-85782850D01*
G75*
G02*
X120217250Y-86026600I-243750J0D01*
G01*
G37*
G36*
G01*
X120217250Y-87901600D02*
X119304750Y-87901600D01*
G75*
G02*
X119061000Y-87657850I0J243750D01*
G01*
X119061000Y-87170350D01*
G75*
G02*
X119304750Y-86926600I243750J0D01*
G01*
X120217250Y-86926600D01*
G75*
G02*
X120461000Y-87170350I0J-243750D01*
G01*
X120461000Y-87657850D01*
G75*
G02*
X120217250Y-87901600I-243750J0D01*
G01*
G37*
D16*
X102909900Y-81447300D03*
X102899900Y-73447300D03*
D17*
X109679900Y-78687300D03*
X109689900Y-76187300D03*
D18*
X192321219Y-75593120D03*
X190421219Y-75593120D03*
X190421219Y-73393120D03*
X191371219Y-73393120D03*
X192321219Y-73393120D03*
D19*
G36*
X186133500Y-80700000D02*
G01*
X186133500Y-77575000D01*
X186550000Y-77575000D01*
X186550000Y-76100000D01*
X187450000Y-76100000D01*
X187450000Y-77575000D01*
X187866500Y-77575000D01*
X187866500Y-80700000D01*
X186133500Y-80700000D01*
G37*
D20*
X185500000Y-76750000D03*
X188500000Y-76750000D03*
G36*
G01*
X173306100Y-88716500D02*
X173306100Y-88516500D01*
G75*
G02*
X173406100Y-88416500I100000J0D01*
G01*
X174681100Y-88416500D01*
G75*
G02*
X174781100Y-88516500I0J-100000D01*
G01*
X174781100Y-88716500D01*
G75*
G02*
X174681100Y-88816500I-100000J0D01*
G01*
X173406100Y-88816500D01*
G75*
G02*
X173306100Y-88716500I0J100000D01*
G01*
G37*
G36*
G01*
X173306100Y-89366500D02*
X173306100Y-89166500D01*
G75*
G02*
X173406100Y-89066500I100000J0D01*
G01*
X174681100Y-89066500D01*
G75*
G02*
X174781100Y-89166500I0J-100000D01*
G01*
X174781100Y-89366500D01*
G75*
G02*
X174681100Y-89466500I-100000J0D01*
G01*
X173406100Y-89466500D01*
G75*
G02*
X173306100Y-89366500I0J100000D01*
G01*
G37*
G36*
G01*
X173306100Y-90016500D02*
X173306100Y-89816500D01*
G75*
G02*
X173406100Y-89716500I100000J0D01*
G01*
X174681100Y-89716500D01*
G75*
G02*
X174781100Y-89816500I0J-100000D01*
G01*
X174781100Y-90016500D01*
G75*
G02*
X174681100Y-90116500I-100000J0D01*
G01*
X173406100Y-90116500D01*
G75*
G02*
X173306100Y-90016500I0J100000D01*
G01*
G37*
G36*
G01*
X173306100Y-90666500D02*
X173306100Y-90466500D01*
G75*
G02*
X173406100Y-90366500I100000J0D01*
G01*
X174681100Y-90366500D01*
G75*
G02*
X174781100Y-90466500I0J-100000D01*
G01*
X174781100Y-90666500D01*
G75*
G02*
X174681100Y-90766500I-100000J0D01*
G01*
X173406100Y-90766500D01*
G75*
G02*
X173306100Y-90666500I0J100000D01*
G01*
G37*
G36*
G01*
X173306100Y-91316500D02*
X173306100Y-91116500D01*
G75*
G02*
X173406100Y-91016500I100000J0D01*
G01*
X174681100Y-91016500D01*
G75*
G02*
X174781100Y-91116500I0J-100000D01*
G01*
X174781100Y-91316500D01*
G75*
G02*
X174681100Y-91416500I-100000J0D01*
G01*
X173406100Y-91416500D01*
G75*
G02*
X173306100Y-91316500I0J100000D01*
G01*
G37*
G36*
G01*
X173306100Y-91966500D02*
X173306100Y-91766500D01*
G75*
G02*
X173406100Y-91666500I100000J0D01*
G01*
X174681100Y-91666500D01*
G75*
G02*
X174781100Y-91766500I0J-100000D01*
G01*
X174781100Y-91966500D01*
G75*
G02*
X174681100Y-92066500I-100000J0D01*
G01*
X173406100Y-92066500D01*
G75*
G02*
X173306100Y-91966500I0J100000D01*
G01*
G37*
G36*
G01*
X173306100Y-92616500D02*
X173306100Y-92416500D01*
G75*
G02*
X173406100Y-92316500I100000J0D01*
G01*
X174681100Y-92316500D01*
G75*
G02*
X174781100Y-92416500I0J-100000D01*
G01*
X174781100Y-92616500D01*
G75*
G02*
X174681100Y-92716500I-100000J0D01*
G01*
X173406100Y-92716500D01*
G75*
G02*
X173306100Y-92616500I0J100000D01*
G01*
G37*
G36*
G01*
X173306100Y-93266500D02*
X173306100Y-93066500D01*
G75*
G02*
X173406100Y-92966500I100000J0D01*
G01*
X174681100Y-92966500D01*
G75*
G02*
X174781100Y-93066500I0J-100000D01*
G01*
X174781100Y-93266500D01*
G75*
G02*
X174681100Y-93366500I-100000J0D01*
G01*
X173406100Y-93366500D01*
G75*
G02*
X173306100Y-93266500I0J100000D01*
G01*
G37*
G36*
G01*
X167581100Y-93266500D02*
X167581100Y-93066500D01*
G75*
G02*
X167681100Y-92966500I100000J0D01*
G01*
X168956100Y-92966500D01*
G75*
G02*
X169056100Y-93066500I0J-100000D01*
G01*
X169056100Y-93266500D01*
G75*
G02*
X168956100Y-93366500I-100000J0D01*
G01*
X167681100Y-93366500D01*
G75*
G02*
X167581100Y-93266500I0J100000D01*
G01*
G37*
G36*
G01*
X167581100Y-92616500D02*
X167581100Y-92416500D01*
G75*
G02*
X167681100Y-92316500I100000J0D01*
G01*
X168956100Y-92316500D01*
G75*
G02*
X169056100Y-92416500I0J-100000D01*
G01*
X169056100Y-92616500D01*
G75*
G02*
X168956100Y-92716500I-100000J0D01*
G01*
X167681100Y-92716500D01*
G75*
G02*
X167581100Y-92616500I0J100000D01*
G01*
G37*
G36*
G01*
X167581100Y-91966500D02*
X167581100Y-91766500D01*
G75*
G02*
X167681100Y-91666500I100000J0D01*
G01*
X168956100Y-91666500D01*
G75*
G02*
X169056100Y-91766500I0J-100000D01*
G01*
X169056100Y-91966500D01*
G75*
G02*
X168956100Y-92066500I-100000J0D01*
G01*
X167681100Y-92066500D01*
G75*
G02*
X167581100Y-91966500I0J100000D01*
G01*
G37*
G36*
G01*
X167581100Y-91316500D02*
X167581100Y-91116500D01*
G75*
G02*
X167681100Y-91016500I100000J0D01*
G01*
X168956100Y-91016500D01*
G75*
G02*
X169056100Y-91116500I0J-100000D01*
G01*
X169056100Y-91316500D01*
G75*
G02*
X168956100Y-91416500I-100000J0D01*
G01*
X167681100Y-91416500D01*
G75*
G02*
X167581100Y-91316500I0J100000D01*
G01*
G37*
G36*
G01*
X167581100Y-90666500D02*
X167581100Y-90466500D01*
G75*
G02*
X167681100Y-90366500I100000J0D01*
G01*
X168956100Y-90366500D01*
G75*
G02*
X169056100Y-90466500I0J-100000D01*
G01*
X169056100Y-90666500D01*
G75*
G02*
X168956100Y-90766500I-100000J0D01*
G01*
X167681100Y-90766500D01*
G75*
G02*
X167581100Y-90666500I0J100000D01*
G01*
G37*
G36*
G01*
X167581100Y-90016500D02*
X167581100Y-89816500D01*
G75*
G02*
X167681100Y-89716500I100000J0D01*
G01*
X168956100Y-89716500D01*
G75*
G02*
X169056100Y-89816500I0J-100000D01*
G01*
X169056100Y-90016500D01*
G75*
G02*
X168956100Y-90116500I-100000J0D01*
G01*
X167681100Y-90116500D01*
G75*
G02*
X167581100Y-90016500I0J100000D01*
G01*
G37*
G36*
G01*
X167581100Y-89366500D02*
X167581100Y-89166500D01*
G75*
G02*
X167681100Y-89066500I100000J0D01*
G01*
X168956100Y-89066500D01*
G75*
G02*
X169056100Y-89166500I0J-100000D01*
G01*
X169056100Y-89366500D01*
G75*
G02*
X168956100Y-89466500I-100000J0D01*
G01*
X167681100Y-89466500D01*
G75*
G02*
X167581100Y-89366500I0J100000D01*
G01*
G37*
G36*
G01*
X167581100Y-88716500D02*
X167581100Y-88516500D01*
G75*
G02*
X167681100Y-88416500I100000J0D01*
G01*
X168956100Y-88416500D01*
G75*
G02*
X169056100Y-88516500I0J-100000D01*
G01*
X169056100Y-88716500D01*
G75*
G02*
X168956100Y-88816500I-100000J0D01*
G01*
X167681100Y-88816500D01*
G75*
G02*
X167581100Y-88716500I0J100000D01*
G01*
G37*
D18*
X144850000Y-119700000D03*
X146750000Y-119700000D03*
X146750000Y-121900000D03*
X145800000Y-121900000D03*
X144850000Y-121900000D03*
X176900000Y-130400000D03*
X178800000Y-130400000D03*
X178800000Y-132600000D03*
X177850000Y-132600000D03*
X176900000Y-132600000D03*
X108900000Y-125200000D03*
X110800000Y-125200000D03*
X110800000Y-127400000D03*
X109850000Y-127400000D03*
X108900000Y-127400000D03*
X186100000Y-126100000D03*
X188000000Y-126100000D03*
X188000000Y-128300000D03*
X187050000Y-128300000D03*
X186100000Y-128300000D03*
X125800000Y-112000000D03*
X127700000Y-112000000D03*
X127700000Y-114200000D03*
X126750000Y-114200000D03*
X125800000Y-114200000D03*
X171850000Y-114700000D03*
X173750000Y-114700000D03*
X173750000Y-116900000D03*
X172800000Y-116900000D03*
X171850000Y-116900000D03*
X128750000Y-129500000D03*
X130650000Y-129500000D03*
X130650000Y-131700000D03*
X129700000Y-131700000D03*
X128750000Y-131700000D03*
X155600000Y-110800000D03*
X157500000Y-110800000D03*
X157500000Y-113000000D03*
X156550000Y-113000000D03*
X155600000Y-113000000D03*
D10*
X193500000Y-99600000D03*
X179200000Y-86200000D03*
G36*
G01*
X119959800Y-82810800D02*
X119409800Y-82810800D01*
G75*
G02*
X119209800Y-82610800I0J200000D01*
G01*
X119209800Y-82210800D01*
G75*
G02*
X119409800Y-82010800I200000J0D01*
G01*
X119959800Y-82010800D01*
G75*
G02*
X120159800Y-82210800I0J-200000D01*
G01*
X120159800Y-82610800D01*
G75*
G02*
X119959800Y-82810800I-200000J0D01*
G01*
G37*
G36*
G01*
X119959800Y-84460800D02*
X119409800Y-84460800D01*
G75*
G02*
X119209800Y-84260800I0J200000D01*
G01*
X119209800Y-83860800D01*
G75*
G02*
X119409800Y-83660800I200000J0D01*
G01*
X119959800Y-83660800D01*
G75*
G02*
X120159800Y-83860800I0J-200000D01*
G01*
X120159800Y-84260800D01*
G75*
G02*
X119959800Y-84460800I-200000J0D01*
G01*
G37*
G36*
G01*
X121175000Y-70034600D02*
X120625000Y-70034600D01*
G75*
G02*
X120425000Y-69834600I0J200000D01*
G01*
X120425000Y-69434600D01*
G75*
G02*
X120625000Y-69234600I200000J0D01*
G01*
X121175000Y-69234600D01*
G75*
G02*
X121375000Y-69434600I0J-200000D01*
G01*
X121375000Y-69834600D01*
G75*
G02*
X121175000Y-70034600I-200000J0D01*
G01*
G37*
G36*
G01*
X121175000Y-71684600D02*
X120625000Y-71684600D01*
G75*
G02*
X120425000Y-71484600I0J200000D01*
G01*
X120425000Y-71084600D01*
G75*
G02*
X120625000Y-70884600I200000J0D01*
G01*
X121175000Y-70884600D01*
G75*
G02*
X121375000Y-71084600I0J-200000D01*
G01*
X121375000Y-71484600D01*
G75*
G02*
X121175000Y-71684600I-200000J0D01*
G01*
G37*
G36*
G01*
X111057100Y-70072200D02*
X110507100Y-70072200D01*
G75*
G02*
X110307100Y-69872200I0J200000D01*
G01*
X110307100Y-69472200D01*
G75*
G02*
X110507100Y-69272200I200000J0D01*
G01*
X111057100Y-69272200D01*
G75*
G02*
X111257100Y-69472200I0J-200000D01*
G01*
X111257100Y-69872200D01*
G75*
G02*
X111057100Y-70072200I-200000J0D01*
G01*
G37*
G36*
G01*
X111057100Y-71722200D02*
X110507100Y-71722200D01*
G75*
G02*
X110307100Y-71522200I0J200000D01*
G01*
X110307100Y-71122200D01*
G75*
G02*
X110507100Y-70922200I200000J0D01*
G01*
X111057100Y-70922200D01*
G75*
G02*
X111257100Y-71122200I0J-200000D01*
G01*
X111257100Y-71522200D01*
G75*
G02*
X111057100Y-71722200I-200000J0D01*
G01*
G37*
G36*
G01*
X148974999Y-77000000D02*
X150225001Y-77000000D01*
G75*
G02*
X150475000Y-77249999I0J-249999D01*
G01*
X150475000Y-77875001D01*
G75*
G02*
X150225001Y-78125000I-249999J0D01*
G01*
X148974999Y-78125000D01*
G75*
G02*
X148725000Y-77875001I0J249999D01*
G01*
X148725000Y-77249999D01*
G75*
G02*
X148974999Y-77000000I249999J0D01*
G01*
G37*
G36*
G01*
X148974999Y-74075000D02*
X150225001Y-74075000D01*
G75*
G02*
X150475000Y-74324999I0J-249999D01*
G01*
X150475000Y-74950001D01*
G75*
G02*
X150225001Y-75200000I-249999J0D01*
G01*
X148974999Y-75200000D01*
G75*
G02*
X148725000Y-74950001I0J249999D01*
G01*
X148725000Y-74324999D01*
G75*
G02*
X148974999Y-74075000I249999J0D01*
G01*
G37*
G36*
G01*
X158975000Y-88450000D02*
X158425000Y-88450000D01*
G75*
G02*
X158225000Y-88250000I0J200000D01*
G01*
X158225000Y-87850000D01*
G75*
G02*
X158425000Y-87650000I200000J0D01*
G01*
X158975000Y-87650000D01*
G75*
G02*
X159175000Y-87850000I0J-200000D01*
G01*
X159175000Y-88250000D01*
G75*
G02*
X158975000Y-88450000I-200000J0D01*
G01*
G37*
G36*
G01*
X158975000Y-90100000D02*
X158425000Y-90100000D01*
G75*
G02*
X158225000Y-89900000I0J200000D01*
G01*
X158225000Y-89500000D01*
G75*
G02*
X158425000Y-89300000I200000J0D01*
G01*
X158975000Y-89300000D01*
G75*
G02*
X159175000Y-89500000I0J-200000D01*
G01*
X159175000Y-89900000D01*
G75*
G02*
X158975000Y-90100000I-200000J0D01*
G01*
G37*
G36*
G01*
X158974200Y-85477800D02*
X158424200Y-85477800D01*
G75*
G02*
X158224200Y-85277800I0J200000D01*
G01*
X158224200Y-84877800D01*
G75*
G02*
X158424200Y-84677800I200000J0D01*
G01*
X158974200Y-84677800D01*
G75*
G02*
X159174200Y-84877800I0J-200000D01*
G01*
X159174200Y-85277800D01*
G75*
G02*
X158974200Y-85477800I-200000J0D01*
G01*
G37*
G36*
G01*
X158974200Y-87127800D02*
X158424200Y-87127800D01*
G75*
G02*
X158224200Y-86927800I0J200000D01*
G01*
X158224200Y-86527800D01*
G75*
G02*
X158424200Y-86327800I200000J0D01*
G01*
X158974200Y-86327800D01*
G75*
G02*
X159174200Y-86527800I0J-200000D01*
G01*
X159174200Y-86927800D01*
G75*
G02*
X158974200Y-87127800I-200000J0D01*
G01*
G37*
G36*
G01*
X178637500Y-129025001D02*
X178637500Y-127774999D01*
G75*
G02*
X178887499Y-127525000I249999J0D01*
G01*
X179512501Y-127525000D01*
G75*
G02*
X179762500Y-127774999I0J-249999D01*
G01*
X179762500Y-129025001D01*
G75*
G02*
X179512501Y-129275000I-249999J0D01*
G01*
X178887499Y-129275000D01*
G75*
G02*
X178637500Y-129025001I0J249999D01*
G01*
G37*
G36*
G01*
X175712500Y-129025001D02*
X175712500Y-127774999D01*
G75*
G02*
X175962499Y-127525000I249999J0D01*
G01*
X176587501Y-127525000D01*
G75*
G02*
X176837500Y-127774999I0J-249999D01*
G01*
X176837500Y-129025001D01*
G75*
G02*
X176587501Y-129275000I-249999J0D01*
G01*
X175962499Y-129275000D01*
G75*
G02*
X175712500Y-129025001I0J249999D01*
G01*
G37*
G36*
G01*
X110700000Y-123825001D02*
X110700000Y-122574999D01*
G75*
G02*
X110949999Y-122325000I249999J0D01*
G01*
X111575001Y-122325000D01*
G75*
G02*
X111825000Y-122574999I0J-249999D01*
G01*
X111825000Y-123825001D01*
G75*
G02*
X111575001Y-124075000I-249999J0D01*
G01*
X110949999Y-124075000D01*
G75*
G02*
X110700000Y-123825001I0J249999D01*
G01*
G37*
G36*
G01*
X107775000Y-123825001D02*
X107775000Y-122574999D01*
G75*
G02*
X108024999Y-122325000I249999J0D01*
G01*
X108650001Y-122325000D01*
G75*
G02*
X108900000Y-122574999I0J-249999D01*
G01*
X108900000Y-123825001D01*
G75*
G02*
X108650001Y-124075000I-249999J0D01*
G01*
X108024999Y-124075000D01*
G75*
G02*
X107775000Y-123825001I0J249999D01*
G01*
G37*
G36*
G01*
X187872400Y-124765301D02*
X187872400Y-123515299D01*
G75*
G02*
X188122399Y-123265300I249999J0D01*
G01*
X188747401Y-123265300D01*
G75*
G02*
X188997400Y-123515299I0J-249999D01*
G01*
X188997400Y-124765301D01*
G75*
G02*
X188747401Y-125015300I-249999J0D01*
G01*
X188122399Y-125015300D01*
G75*
G02*
X187872400Y-124765301I0J249999D01*
G01*
G37*
G36*
G01*
X184947400Y-124765301D02*
X184947400Y-123515299D01*
G75*
G02*
X185197399Y-123265300I249999J0D01*
G01*
X185822401Y-123265300D01*
G75*
G02*
X186072400Y-123515299I0J-249999D01*
G01*
X186072400Y-124765301D01*
G75*
G02*
X185822401Y-125015300I-249999J0D01*
G01*
X185197399Y-125015300D01*
G75*
G02*
X184947400Y-124765301I0J249999D01*
G01*
G37*
G36*
G01*
X127600000Y-110625001D02*
X127600000Y-109374999D01*
G75*
G02*
X127849999Y-109125000I249999J0D01*
G01*
X128475001Y-109125000D01*
G75*
G02*
X128725000Y-109374999I0J-249999D01*
G01*
X128725000Y-110625001D01*
G75*
G02*
X128475001Y-110875000I-249999J0D01*
G01*
X127849999Y-110875000D01*
G75*
G02*
X127600000Y-110625001I0J249999D01*
G01*
G37*
G36*
G01*
X124675000Y-110625001D02*
X124675000Y-109374999D01*
G75*
G02*
X124924999Y-109125000I249999J0D01*
G01*
X125550001Y-109125000D01*
G75*
G02*
X125800000Y-109374999I0J-249999D01*
G01*
X125800000Y-110625001D01*
G75*
G02*
X125550001Y-110875000I-249999J0D01*
G01*
X124924999Y-110875000D01*
G75*
G02*
X124675000Y-110625001I0J249999D01*
G01*
G37*
G36*
G01*
X173737500Y-113325001D02*
X173737500Y-112074999D01*
G75*
G02*
X173987499Y-111825000I249999J0D01*
G01*
X174612501Y-111825000D01*
G75*
G02*
X174862500Y-112074999I0J-249999D01*
G01*
X174862500Y-113325001D01*
G75*
G02*
X174612501Y-113575000I-249999J0D01*
G01*
X173987499Y-113575000D01*
G75*
G02*
X173737500Y-113325001I0J249999D01*
G01*
G37*
G36*
G01*
X170812500Y-113325001D02*
X170812500Y-112074999D01*
G75*
G02*
X171062499Y-111825000I249999J0D01*
G01*
X171687501Y-111825000D01*
G75*
G02*
X171937500Y-112074999I0J-249999D01*
G01*
X171937500Y-113325001D01*
G75*
G02*
X171687501Y-113575000I-249999J0D01*
G01*
X171062499Y-113575000D01*
G75*
G02*
X170812500Y-113325001I0J249999D01*
G01*
G37*
G36*
G01*
X130737500Y-128125001D02*
X130737500Y-126874999D01*
G75*
G02*
X130987499Y-126625000I249999J0D01*
G01*
X131612501Y-126625000D01*
G75*
G02*
X131862500Y-126874999I0J-249999D01*
G01*
X131862500Y-128125001D01*
G75*
G02*
X131612501Y-128375000I-249999J0D01*
G01*
X130987499Y-128375000D01*
G75*
G02*
X130737500Y-128125001I0J249999D01*
G01*
G37*
G36*
G01*
X127812500Y-128125001D02*
X127812500Y-126874999D01*
G75*
G02*
X128062499Y-126625000I249999J0D01*
G01*
X128687501Y-126625000D01*
G75*
G02*
X128937500Y-126874999I0J-249999D01*
G01*
X128937500Y-128125001D01*
G75*
G02*
X128687501Y-128375000I-249999J0D01*
G01*
X128062499Y-128375000D01*
G75*
G02*
X127812500Y-128125001I0J249999D01*
G01*
G37*
G36*
G01*
X157537500Y-109425001D02*
X157537500Y-108174999D01*
G75*
G02*
X157787499Y-107925000I249999J0D01*
G01*
X158412501Y-107925000D01*
G75*
G02*
X158662500Y-108174999I0J-249999D01*
G01*
X158662500Y-109425001D01*
G75*
G02*
X158412501Y-109675000I-249999J0D01*
G01*
X157787499Y-109675000D01*
G75*
G02*
X157537500Y-109425001I0J249999D01*
G01*
G37*
G36*
G01*
X154612500Y-109425001D02*
X154612500Y-108174999D01*
G75*
G02*
X154862499Y-107925000I249999J0D01*
G01*
X155487501Y-107925000D01*
G75*
G02*
X155737500Y-108174999I0J-249999D01*
G01*
X155737500Y-109425001D01*
G75*
G02*
X155487501Y-109675000I-249999J0D01*
G01*
X154862499Y-109675000D01*
G75*
G02*
X154612500Y-109425001I0J249999D01*
G01*
G37*
D21*
X117986800Y-84162900D03*
X115186800Y-84162900D03*
D22*
X116586800Y-83662900D03*
D23*
X115611800Y-85862900D03*
X116261800Y-85862900D03*
X116911800Y-85862900D03*
X117561800Y-85862900D03*
X117561800Y-82462900D03*
X116911800Y-82462900D03*
X116261800Y-82462900D03*
X115611800Y-82462900D03*
G36*
G01*
X191356400Y-71581200D02*
X191356400Y-72081200D01*
G75*
G02*
X191131400Y-72306200I-225000J0D01*
G01*
X190681400Y-72306200D01*
G75*
G02*
X190456400Y-72081200I0J225000D01*
G01*
X190456400Y-71581200D01*
G75*
G02*
X190681400Y-71356200I225000J0D01*
G01*
X191131400Y-71356200D01*
G75*
G02*
X191356400Y-71581200I0J-225000D01*
G01*
G37*
G36*
G01*
X192906400Y-71581200D02*
X192906400Y-72081200D01*
G75*
G02*
X192681400Y-72306200I-225000J0D01*
G01*
X192231400Y-72306200D01*
G75*
G02*
X192006400Y-72081200I0J225000D01*
G01*
X192006400Y-71581200D01*
G75*
G02*
X192231400Y-71356200I225000J0D01*
G01*
X192681400Y-71356200D01*
G75*
G02*
X192906400Y-71581200I0J-225000D01*
G01*
G37*
G36*
G01*
X191358940Y-70092760D02*
X191358940Y-70592760D01*
G75*
G02*
X191133940Y-70817760I-225000J0D01*
G01*
X190683940Y-70817760D01*
G75*
G02*
X190458940Y-70592760I0J225000D01*
G01*
X190458940Y-70092760D01*
G75*
G02*
X190683940Y-69867760I225000J0D01*
G01*
X191133940Y-69867760D01*
G75*
G02*
X191358940Y-70092760I0J-225000D01*
G01*
G37*
G36*
G01*
X192908940Y-70092760D02*
X192908940Y-70592760D01*
G75*
G02*
X192683940Y-70817760I-225000J0D01*
G01*
X192233940Y-70817760D01*
G75*
G02*
X192008940Y-70592760I0J225000D01*
G01*
X192008940Y-70092760D01*
G75*
G02*
X192233940Y-69867760I225000J0D01*
G01*
X192683940Y-69867760D01*
G75*
G02*
X192908940Y-70092760I0J-225000D01*
G01*
G37*
G36*
G01*
X190748080Y-77197640D02*
X190748080Y-77697640D01*
G75*
G02*
X190523080Y-77922640I-225000J0D01*
G01*
X190073080Y-77922640D01*
G75*
G02*
X189848080Y-77697640I0J225000D01*
G01*
X189848080Y-77197640D01*
G75*
G02*
X190073080Y-76972640I225000J0D01*
G01*
X190523080Y-76972640D01*
G75*
G02*
X190748080Y-77197640I0J-225000D01*
G01*
G37*
G36*
G01*
X192298080Y-77197640D02*
X192298080Y-77697640D01*
G75*
G02*
X192073080Y-77922640I-225000J0D01*
G01*
X191623080Y-77922640D01*
G75*
G02*
X191398080Y-77697640I0J225000D01*
G01*
X191398080Y-77197640D01*
G75*
G02*
X191623080Y-76972640I225000J0D01*
G01*
X192073080Y-76972640D01*
G75*
G02*
X192298080Y-77197640I0J-225000D01*
G01*
G37*
G36*
G01*
X190758240Y-78711479D02*
X190758240Y-79211479D01*
G75*
G02*
X190533240Y-79436479I-225000J0D01*
G01*
X190083240Y-79436479D01*
G75*
G02*
X189858240Y-79211479I0J225000D01*
G01*
X189858240Y-78711479D01*
G75*
G02*
X190083240Y-78486479I225000J0D01*
G01*
X190533240Y-78486479D01*
G75*
G02*
X190758240Y-78711479I0J-225000D01*
G01*
G37*
G36*
G01*
X192308240Y-78711479D02*
X192308240Y-79211479D01*
G75*
G02*
X192083240Y-79436479I-225000J0D01*
G01*
X191633240Y-79436479D01*
G75*
G02*
X191408240Y-79211479I0J225000D01*
G01*
X191408240Y-78711479D01*
G75*
G02*
X191633240Y-78486479I225000J0D01*
G01*
X192083240Y-78486479D01*
G75*
G02*
X192308240Y-78711479I0J-225000D01*
G01*
G37*
G36*
G01*
X183450000Y-74725000D02*
X183950000Y-74725000D01*
G75*
G02*
X184175000Y-74950000I0J-225000D01*
G01*
X184175000Y-75400000D01*
G75*
G02*
X183950000Y-75625000I-225000J0D01*
G01*
X183450000Y-75625000D01*
G75*
G02*
X183225000Y-75400000I0J225000D01*
G01*
X183225000Y-74950000D01*
G75*
G02*
X183450000Y-74725000I225000J0D01*
G01*
G37*
G36*
G01*
X183450000Y-73175000D02*
X183950000Y-73175000D01*
G75*
G02*
X184175000Y-73400000I0J-225000D01*
G01*
X184175000Y-73850000D01*
G75*
G02*
X183950000Y-74075000I-225000J0D01*
G01*
X183450000Y-74075000D01*
G75*
G02*
X183225000Y-73850000I0J225000D01*
G01*
X183225000Y-73400000D01*
G75*
G02*
X183450000Y-73175000I225000J0D01*
G01*
G37*
G36*
G01*
X155357400Y-73509901D02*
X155357400Y-72209899D01*
G75*
G02*
X155607399Y-71959900I249999J0D01*
G01*
X156257401Y-71959900D01*
G75*
G02*
X156507400Y-72209899I0J-249999D01*
G01*
X156507400Y-73509901D01*
G75*
G02*
X156257401Y-73759900I-249999J0D01*
G01*
X155607399Y-73759900D01*
G75*
G02*
X155357400Y-73509901I0J249999D01*
G01*
G37*
G36*
G01*
X152407400Y-73509901D02*
X152407400Y-72209899D01*
G75*
G02*
X152657399Y-71959900I249999J0D01*
G01*
X153307401Y-71959900D01*
G75*
G02*
X153557400Y-72209899I0J-249999D01*
G01*
X153557400Y-73509901D01*
G75*
G02*
X153307401Y-73759900I-249999J0D01*
G01*
X152657399Y-73759900D01*
G75*
G02*
X152407400Y-73509901I0J249999D01*
G01*
G37*
G36*
G01*
X186300000Y-73850000D02*
X186300000Y-73350000D01*
G75*
G02*
X186525000Y-73125000I225000J0D01*
G01*
X186975000Y-73125000D01*
G75*
G02*
X187200000Y-73350000I0J-225000D01*
G01*
X187200000Y-73850000D01*
G75*
G02*
X186975000Y-74075000I-225000J0D01*
G01*
X186525000Y-74075000D01*
G75*
G02*
X186300000Y-73850000I0J225000D01*
G01*
G37*
G36*
G01*
X184750000Y-73850000D02*
X184750000Y-73350000D01*
G75*
G02*
X184975000Y-73125000I225000J0D01*
G01*
X185425000Y-73125000D01*
G75*
G02*
X185650000Y-73350000I0J-225000D01*
G01*
X185650000Y-73850000D01*
G75*
G02*
X185425000Y-74075000I-225000J0D01*
G01*
X184975000Y-74075000D01*
G75*
G02*
X184750000Y-73850000I0J225000D01*
G01*
G37*
G36*
G01*
X186325000Y-75350000D02*
X186325000Y-74850000D01*
G75*
G02*
X186550000Y-74625000I225000J0D01*
G01*
X187000000Y-74625000D01*
G75*
G02*
X187225000Y-74850000I0J-225000D01*
G01*
X187225000Y-75350000D01*
G75*
G02*
X187000000Y-75575000I-225000J0D01*
G01*
X186550000Y-75575000D01*
G75*
G02*
X186325000Y-75350000I0J225000D01*
G01*
G37*
G36*
G01*
X184775000Y-75350000D02*
X184775000Y-74850000D01*
G75*
G02*
X185000000Y-74625000I225000J0D01*
G01*
X185450000Y-74625000D01*
G75*
G02*
X185675000Y-74850000I0J-225000D01*
G01*
X185675000Y-75350000D01*
G75*
G02*
X185450000Y-75575000I-225000J0D01*
G01*
X185000000Y-75575000D01*
G75*
G02*
X184775000Y-75350000I0J225000D01*
G01*
G37*
G36*
G01*
X182568300Y-78088100D02*
X182568300Y-78588100D01*
G75*
G02*
X182343300Y-78813100I-225000J0D01*
G01*
X181893300Y-78813100D01*
G75*
G02*
X181668300Y-78588100I0J225000D01*
G01*
X181668300Y-78088100D01*
G75*
G02*
X181893300Y-77863100I225000J0D01*
G01*
X182343300Y-77863100D01*
G75*
G02*
X182568300Y-78088100I0J-225000D01*
G01*
G37*
G36*
G01*
X184118300Y-78088100D02*
X184118300Y-78588100D01*
G75*
G02*
X183893300Y-78813100I-225000J0D01*
G01*
X183443300Y-78813100D01*
G75*
G02*
X183218300Y-78588100I0J225000D01*
G01*
X183218300Y-78088100D01*
G75*
G02*
X183443300Y-77863100I225000J0D01*
G01*
X183893300Y-77863100D01*
G75*
G02*
X184118300Y-78088100I0J-225000D01*
G01*
G37*
G36*
G01*
X182543300Y-79588101D02*
X182543300Y-80088101D01*
G75*
G02*
X182318300Y-80313101I-225000J0D01*
G01*
X181868300Y-80313101D01*
G75*
G02*
X181643300Y-80088101I0J225000D01*
G01*
X181643300Y-79588101D01*
G75*
G02*
X181868300Y-79363101I225000J0D01*
G01*
X182318300Y-79363101D01*
G75*
G02*
X182543300Y-79588101I0J-225000D01*
G01*
G37*
G36*
G01*
X184093300Y-79588101D02*
X184093300Y-80088101D01*
G75*
G02*
X183868300Y-80313101I-225000J0D01*
G01*
X183418300Y-80313101D01*
G75*
G02*
X183193300Y-80088101I0J225000D01*
G01*
X183193300Y-79588101D01*
G75*
G02*
X183418300Y-79363101I225000J0D01*
G01*
X183868300Y-79363101D01*
G75*
G02*
X184093300Y-79588101I0J-225000D01*
G01*
G37*
G36*
G01*
X182450000Y-82350000D02*
X181950000Y-82350000D01*
G75*
G02*
X181725000Y-82125000I0J225000D01*
G01*
X181725000Y-81675000D01*
G75*
G02*
X181950000Y-81450000I225000J0D01*
G01*
X182450000Y-81450000D01*
G75*
G02*
X182675000Y-81675000I0J-225000D01*
G01*
X182675000Y-82125000D01*
G75*
G02*
X182450000Y-82350000I-225000J0D01*
G01*
G37*
G36*
G01*
X182450000Y-83900000D02*
X181950000Y-83900000D01*
G75*
G02*
X181725000Y-83675000I0J225000D01*
G01*
X181725000Y-83225000D01*
G75*
G02*
X181950000Y-83000000I225000J0D01*
G01*
X182450000Y-83000000D01*
G75*
G02*
X182675000Y-83225000I0J-225000D01*
G01*
X182675000Y-83675000D01*
G75*
G02*
X182450000Y-83900000I-225000J0D01*
G01*
G37*
G36*
G01*
X183950000Y-82375000D02*
X183450000Y-82375000D01*
G75*
G02*
X183225000Y-82150000I0J225000D01*
G01*
X183225000Y-81700000D01*
G75*
G02*
X183450000Y-81475000I225000J0D01*
G01*
X183950000Y-81475000D01*
G75*
G02*
X184175000Y-81700000I0J-225000D01*
G01*
X184175000Y-82150000D01*
G75*
G02*
X183950000Y-82375000I-225000J0D01*
G01*
G37*
G36*
G01*
X183950000Y-83925000D02*
X183450000Y-83925000D01*
G75*
G02*
X183225000Y-83700000I0J225000D01*
G01*
X183225000Y-83250000D01*
G75*
G02*
X183450000Y-83025000I225000J0D01*
G01*
X183950000Y-83025000D01*
G75*
G02*
X184175000Y-83250000I0J-225000D01*
G01*
X184175000Y-83700000D01*
G75*
G02*
X183950000Y-83925000I-225000J0D01*
G01*
G37*
G36*
G01*
X176518800Y-90770300D02*
X176018800Y-90770300D01*
G75*
G02*
X175793800Y-90545300I0J225000D01*
G01*
X175793800Y-90095300D01*
G75*
G02*
X176018800Y-89870300I225000J0D01*
G01*
X176518800Y-89870300D01*
G75*
G02*
X176743800Y-90095300I0J-225000D01*
G01*
X176743800Y-90545300D01*
G75*
G02*
X176518800Y-90770300I-225000J0D01*
G01*
G37*
G36*
G01*
X176518800Y-92320300D02*
X176018800Y-92320300D01*
G75*
G02*
X175793800Y-92095300I0J225000D01*
G01*
X175793800Y-91645300D01*
G75*
G02*
X176018800Y-91420300I225000J0D01*
G01*
X176518800Y-91420300D01*
G75*
G02*
X176743800Y-91645300I0J-225000D01*
G01*
X176743800Y-92095300D01*
G75*
G02*
X176518800Y-92320300I-225000J0D01*
G01*
G37*
G36*
G01*
X166309500Y-85159000D02*
X165809500Y-85159000D01*
G75*
G02*
X165584500Y-84934000I0J225000D01*
G01*
X165584500Y-84484000D01*
G75*
G02*
X165809500Y-84259000I225000J0D01*
G01*
X166309500Y-84259000D01*
G75*
G02*
X166534500Y-84484000I0J-225000D01*
G01*
X166534500Y-84934000D01*
G75*
G02*
X166309500Y-85159000I-225000J0D01*
G01*
G37*
G36*
G01*
X166309500Y-86709000D02*
X165809500Y-86709000D01*
G75*
G02*
X165584500Y-86484000I0J225000D01*
G01*
X165584500Y-86034000D01*
G75*
G02*
X165809500Y-85809000I225000J0D01*
G01*
X166309500Y-85809000D01*
G75*
G02*
X166534500Y-86034000I0J-225000D01*
G01*
X166534500Y-86484000D01*
G75*
G02*
X166309500Y-86709000I-225000J0D01*
G01*
G37*
G36*
G01*
X167846200Y-85159000D02*
X167346200Y-85159000D01*
G75*
G02*
X167121200Y-84934000I0J225000D01*
G01*
X167121200Y-84484000D01*
G75*
G02*
X167346200Y-84259000I225000J0D01*
G01*
X167846200Y-84259000D01*
G75*
G02*
X168071200Y-84484000I0J-225000D01*
G01*
X168071200Y-84934000D01*
G75*
G02*
X167846200Y-85159000I-225000J0D01*
G01*
G37*
G36*
G01*
X167846200Y-86709000D02*
X167346200Y-86709000D01*
G75*
G02*
X167121200Y-86484000I0J225000D01*
G01*
X167121200Y-86034000D01*
G75*
G02*
X167346200Y-85809000I225000J0D01*
G01*
X167846200Y-85809000D01*
G75*
G02*
X168071200Y-86034000I0J-225000D01*
G01*
X168071200Y-86484000D01*
G75*
G02*
X167846200Y-86709000I-225000J0D01*
G01*
G37*
G36*
G01*
X172132900Y-85234400D02*
X172632900Y-85234400D01*
G75*
G02*
X172857900Y-85459400I0J-225000D01*
G01*
X172857900Y-85909400D01*
G75*
G02*
X172632900Y-86134400I-225000J0D01*
G01*
X172132900Y-86134400D01*
G75*
G02*
X171907900Y-85909400I0J225000D01*
G01*
X171907900Y-85459400D01*
G75*
G02*
X172132900Y-85234400I225000J0D01*
G01*
G37*
G36*
G01*
X172132900Y-83684400D02*
X172632900Y-83684400D01*
G75*
G02*
X172857900Y-83909400I0J-225000D01*
G01*
X172857900Y-84359400D01*
G75*
G02*
X172632900Y-84584400I-225000J0D01*
G01*
X172132900Y-84584400D01*
G75*
G02*
X171907900Y-84359400I0J225000D01*
G01*
X171907900Y-83909400D01*
G75*
G02*
X172132900Y-83684400I225000J0D01*
G01*
G37*
G36*
G01*
X170608900Y-85246800D02*
X171108900Y-85246800D01*
G75*
G02*
X171333900Y-85471800I0J-225000D01*
G01*
X171333900Y-85921800D01*
G75*
G02*
X171108900Y-86146800I-225000J0D01*
G01*
X170608900Y-86146800D01*
G75*
G02*
X170383900Y-85921800I0J225000D01*
G01*
X170383900Y-85471800D01*
G75*
G02*
X170608900Y-85246800I225000J0D01*
G01*
G37*
G36*
G01*
X170608900Y-83696800D02*
X171108900Y-83696800D01*
G75*
G02*
X171333900Y-83921800I0J-225000D01*
G01*
X171333900Y-84371800D01*
G75*
G02*
X171108900Y-84596800I-225000J0D01*
G01*
X170608900Y-84596800D01*
G75*
G02*
X170383900Y-84371800I0J225000D01*
G01*
X170383900Y-83921800D01*
G75*
G02*
X170608900Y-83696800I225000J0D01*
G01*
G37*
G36*
G01*
X142550000Y-119100000D02*
X142050000Y-119100000D01*
G75*
G02*
X141825000Y-118875000I0J225000D01*
G01*
X141825000Y-118425000D01*
G75*
G02*
X142050000Y-118200000I225000J0D01*
G01*
X142550000Y-118200000D01*
G75*
G02*
X142775000Y-118425000I0J-225000D01*
G01*
X142775000Y-118875000D01*
G75*
G02*
X142550000Y-119100000I-225000J0D01*
G01*
G37*
G36*
G01*
X142550000Y-120650000D02*
X142050000Y-120650000D01*
G75*
G02*
X141825000Y-120425000I0J225000D01*
G01*
X141825000Y-119975000D01*
G75*
G02*
X142050000Y-119750000I225000J0D01*
G01*
X142550000Y-119750000D01*
G75*
G02*
X142775000Y-119975000I0J-225000D01*
G01*
X142775000Y-120425000D01*
G75*
G02*
X142550000Y-120650000I-225000J0D01*
G01*
G37*
G36*
G01*
X174175000Y-130050000D02*
X174175000Y-130550000D01*
G75*
G02*
X173950000Y-130775000I-225000J0D01*
G01*
X173500000Y-130775000D01*
G75*
G02*
X173275000Y-130550000I0J225000D01*
G01*
X173275000Y-130050000D01*
G75*
G02*
X173500000Y-129825000I225000J0D01*
G01*
X173950000Y-129825000D01*
G75*
G02*
X174175000Y-130050000I0J-225000D01*
G01*
G37*
G36*
G01*
X175725000Y-130050000D02*
X175725000Y-130550000D01*
G75*
G02*
X175500000Y-130775000I-225000J0D01*
G01*
X175050000Y-130775000D01*
G75*
G02*
X174825000Y-130550000I0J225000D01*
G01*
X174825000Y-130050000D01*
G75*
G02*
X175050000Y-129825000I225000J0D01*
G01*
X175500000Y-129825000D01*
G75*
G02*
X175725000Y-130050000I0J-225000D01*
G01*
G37*
G36*
G01*
X106950000Y-123975000D02*
X106450000Y-123975000D01*
G75*
G02*
X106225000Y-123750000I0J225000D01*
G01*
X106225000Y-123300000D01*
G75*
G02*
X106450000Y-123075000I225000J0D01*
G01*
X106950000Y-123075000D01*
G75*
G02*
X107175000Y-123300000I0J-225000D01*
G01*
X107175000Y-123750000D01*
G75*
G02*
X106950000Y-123975000I-225000J0D01*
G01*
G37*
G36*
G01*
X106950000Y-125525000D02*
X106450000Y-125525000D01*
G75*
G02*
X106225000Y-125300000I0J225000D01*
G01*
X106225000Y-124850000D01*
G75*
G02*
X106450000Y-124625000I225000J0D01*
G01*
X106950000Y-124625000D01*
G75*
G02*
X107175000Y-124850000I0J-225000D01*
G01*
X107175000Y-125300000D01*
G75*
G02*
X106950000Y-125525000I-225000J0D01*
G01*
G37*
G36*
G01*
X184150000Y-124675000D02*
X183650000Y-124675000D01*
G75*
G02*
X183425000Y-124450000I0J225000D01*
G01*
X183425000Y-124000000D01*
G75*
G02*
X183650000Y-123775000I225000J0D01*
G01*
X184150000Y-123775000D01*
G75*
G02*
X184375000Y-124000000I0J-225000D01*
G01*
X184375000Y-124450000D01*
G75*
G02*
X184150000Y-124675000I-225000J0D01*
G01*
G37*
G36*
G01*
X184150000Y-126225000D02*
X183650000Y-126225000D01*
G75*
G02*
X183425000Y-126000000I0J225000D01*
G01*
X183425000Y-125550000D01*
G75*
G02*
X183650000Y-125325000I225000J0D01*
G01*
X184150000Y-125325000D01*
G75*
G02*
X184375000Y-125550000I0J-225000D01*
G01*
X184375000Y-126000000D01*
G75*
G02*
X184150000Y-126225000I-225000J0D01*
G01*
G37*
G36*
G01*
X123850000Y-110850000D02*
X123350000Y-110850000D01*
G75*
G02*
X123125000Y-110625000I0J225000D01*
G01*
X123125000Y-110175000D01*
G75*
G02*
X123350000Y-109950000I225000J0D01*
G01*
X123850000Y-109950000D01*
G75*
G02*
X124075000Y-110175000I0J-225000D01*
G01*
X124075000Y-110625000D01*
G75*
G02*
X123850000Y-110850000I-225000J0D01*
G01*
G37*
G36*
G01*
X123850000Y-112400000D02*
X123350000Y-112400000D01*
G75*
G02*
X123125000Y-112175000I0J225000D01*
G01*
X123125000Y-111725000D01*
G75*
G02*
X123350000Y-111500000I225000J0D01*
G01*
X123850000Y-111500000D01*
G75*
G02*
X124075000Y-111725000I0J-225000D01*
G01*
X124075000Y-112175000D01*
G75*
G02*
X123850000Y-112400000I-225000J0D01*
G01*
G37*
G36*
G01*
X169150000Y-114350000D02*
X169150000Y-114850000D01*
G75*
G02*
X168925000Y-115075000I-225000J0D01*
G01*
X168475000Y-115075000D01*
G75*
G02*
X168250000Y-114850000I0J225000D01*
G01*
X168250000Y-114350000D01*
G75*
G02*
X168475000Y-114125000I225000J0D01*
G01*
X168925000Y-114125000D01*
G75*
G02*
X169150000Y-114350000I0J-225000D01*
G01*
G37*
G36*
G01*
X170700000Y-114350000D02*
X170700000Y-114850000D01*
G75*
G02*
X170475000Y-115075000I-225000J0D01*
G01*
X170025000Y-115075000D01*
G75*
G02*
X169800000Y-114850000I0J225000D01*
G01*
X169800000Y-114350000D01*
G75*
G02*
X170025000Y-114125000I225000J0D01*
G01*
X170475000Y-114125000D01*
G75*
G02*
X170700000Y-114350000I0J-225000D01*
G01*
G37*
G36*
G01*
X126075000Y-129150000D02*
X126075000Y-129650000D01*
G75*
G02*
X125850000Y-129875000I-225000J0D01*
G01*
X125400000Y-129875000D01*
G75*
G02*
X125175000Y-129650000I0J225000D01*
G01*
X125175000Y-129150000D01*
G75*
G02*
X125400000Y-128925000I225000J0D01*
G01*
X125850000Y-128925000D01*
G75*
G02*
X126075000Y-129150000I0J-225000D01*
G01*
G37*
G36*
G01*
X127625000Y-129150000D02*
X127625000Y-129650000D01*
G75*
G02*
X127400000Y-129875000I-225000J0D01*
G01*
X126950000Y-129875000D01*
G75*
G02*
X126725000Y-129650000I0J225000D01*
G01*
X126725000Y-129150000D01*
G75*
G02*
X126950000Y-128925000I225000J0D01*
G01*
X127400000Y-128925000D01*
G75*
G02*
X127625000Y-129150000I0J-225000D01*
G01*
G37*
G36*
G01*
X152875000Y-110550000D02*
X152875000Y-111050000D01*
G75*
G02*
X152650000Y-111275000I-225000J0D01*
G01*
X152200000Y-111275000D01*
G75*
G02*
X151975000Y-111050000I0J225000D01*
G01*
X151975000Y-110550000D01*
G75*
G02*
X152200000Y-110325000I225000J0D01*
G01*
X152650000Y-110325000D01*
G75*
G02*
X152875000Y-110550000I0J-225000D01*
G01*
G37*
G36*
G01*
X154425000Y-110550000D02*
X154425000Y-111050000D01*
G75*
G02*
X154200000Y-111275000I-225000J0D01*
G01*
X153750000Y-111275000D01*
G75*
G02*
X153525000Y-111050000I0J225000D01*
G01*
X153525000Y-110550000D01*
G75*
G02*
X153750000Y-110325000I225000J0D01*
G01*
X154200000Y-110325000D01*
G75*
G02*
X154425000Y-110550000I0J-225000D01*
G01*
G37*
D24*
X141541500Y-130365500D03*
X144081500Y-130365500D03*
X146621500Y-130365500D03*
X149161500Y-130365500D03*
X151701500Y-130365500D03*
X154241500Y-130365500D03*
X156781500Y-130365500D03*
X159321500Y-130365500D03*
X141541500Y-127825500D03*
X144081500Y-127825500D03*
X146621500Y-127825500D03*
X149161500Y-127825500D03*
X151701500Y-127825500D03*
X154241500Y-127825500D03*
X156781500Y-127825500D03*
G36*
G01*
X158721500Y-126975500D02*
X159921500Y-126975500D01*
G75*
G02*
X160171500Y-127225500I0J-250000D01*
G01*
X160171500Y-128425500D01*
G75*
G02*
X159921500Y-128675500I-250000J0D01*
G01*
X158721500Y-128675500D01*
G75*
G02*
X158471500Y-128425500I0J250000D01*
G01*
X158471500Y-127225500D01*
G75*
G02*
X158721500Y-126975500I250000J0D01*
G01*
G37*
D10*
X166370000Y-126752000D03*
X166306500Y-129413000D03*
D11*
X157493000Y-103025500D03*
G36*
G01*
X159248000Y-104875500D02*
X159548000Y-104875500D01*
G75*
G02*
X159698000Y-105025500I0J-150000D01*
G01*
X159698000Y-106325500D01*
G75*
G02*
X159548000Y-106475500I-150000J0D01*
G01*
X159248000Y-106475500D01*
G75*
G02*
X159098000Y-106325500I0J150000D01*
G01*
X159098000Y-105025500D01*
G75*
G02*
X159248000Y-104875500I150000J0D01*
G01*
G37*
G36*
G01*
X157978000Y-104875500D02*
X158278000Y-104875500D01*
G75*
G02*
X158428000Y-105025500I0J-150000D01*
G01*
X158428000Y-106325500D01*
G75*
G02*
X158278000Y-106475500I-150000J0D01*
G01*
X157978000Y-106475500D01*
G75*
G02*
X157828000Y-106325500I0J150000D01*
G01*
X157828000Y-105025500D01*
G75*
G02*
X157978000Y-104875500I150000J0D01*
G01*
G37*
G36*
G01*
X156708000Y-104875500D02*
X157008000Y-104875500D01*
G75*
G02*
X157158000Y-105025500I0J-150000D01*
G01*
X157158000Y-106325500D01*
G75*
G02*
X157008000Y-106475500I-150000J0D01*
G01*
X156708000Y-106475500D01*
G75*
G02*
X156558000Y-106325500I0J150000D01*
G01*
X156558000Y-105025500D01*
G75*
G02*
X156708000Y-104875500I150000J0D01*
G01*
G37*
G36*
G01*
X155438000Y-104875500D02*
X155738000Y-104875500D01*
G75*
G02*
X155888000Y-105025500I0J-150000D01*
G01*
X155888000Y-106325500D01*
G75*
G02*
X155738000Y-106475500I-150000J0D01*
G01*
X155438000Y-106475500D01*
G75*
G02*
X155288000Y-106325500I0J150000D01*
G01*
X155288000Y-105025500D01*
G75*
G02*
X155438000Y-104875500I150000J0D01*
G01*
G37*
G36*
G01*
X155438000Y-99575500D02*
X155738000Y-99575500D01*
G75*
G02*
X155888000Y-99725500I0J-150000D01*
G01*
X155888000Y-101025500D01*
G75*
G02*
X155738000Y-101175500I-150000J0D01*
G01*
X155438000Y-101175500D01*
G75*
G02*
X155288000Y-101025500I0J150000D01*
G01*
X155288000Y-99725500D01*
G75*
G02*
X155438000Y-99575500I150000J0D01*
G01*
G37*
G36*
G01*
X156708000Y-99575500D02*
X157008000Y-99575500D01*
G75*
G02*
X157158000Y-99725500I0J-150000D01*
G01*
X157158000Y-101025500D01*
G75*
G02*
X157008000Y-101175500I-150000J0D01*
G01*
X156708000Y-101175500D01*
G75*
G02*
X156558000Y-101025500I0J150000D01*
G01*
X156558000Y-99725500D01*
G75*
G02*
X156708000Y-99575500I150000J0D01*
G01*
G37*
G36*
G01*
X157978000Y-99575500D02*
X158278000Y-99575500D01*
G75*
G02*
X158428000Y-99725500I0J-150000D01*
G01*
X158428000Y-101025500D01*
G75*
G02*
X158278000Y-101175500I-150000J0D01*
G01*
X157978000Y-101175500D01*
G75*
G02*
X157828000Y-101025500I0J150000D01*
G01*
X157828000Y-99725500D01*
G75*
G02*
X157978000Y-99575500I150000J0D01*
G01*
G37*
G36*
G01*
X159248000Y-99575500D02*
X159548000Y-99575500D01*
G75*
G02*
X159698000Y-99725500I0J-150000D01*
G01*
X159698000Y-101025500D01*
G75*
G02*
X159548000Y-101175500I-150000J0D01*
G01*
X159248000Y-101175500D01*
G75*
G02*
X159098000Y-101025500I0J150000D01*
G01*
X159098000Y-99725500D01*
G75*
G02*
X159248000Y-99575500I150000J0D01*
G01*
G37*
G36*
G01*
X153674000Y-101150000D02*
X154174000Y-101150000D01*
G75*
G02*
X154399000Y-101375000I0J-225000D01*
G01*
X154399000Y-101825000D01*
G75*
G02*
X154174000Y-102050000I-225000J0D01*
G01*
X153674000Y-102050000D01*
G75*
G02*
X153449000Y-101825000I0J225000D01*
G01*
X153449000Y-101375000D01*
G75*
G02*
X153674000Y-101150000I225000J0D01*
G01*
G37*
G36*
G01*
X153674000Y-99600000D02*
X154174000Y-99600000D01*
G75*
G02*
X154399000Y-99825000I0J-225000D01*
G01*
X154399000Y-100275000D01*
G75*
G02*
X154174000Y-100500000I-225000J0D01*
G01*
X153674000Y-100500000D01*
G75*
G02*
X153449000Y-100275000I0J225000D01*
G01*
X153449000Y-99825000D01*
G75*
G02*
X153674000Y-99600000I225000J0D01*
G01*
G37*
D25*
X146995000Y-103314500D03*
D26*
X150495000Y-103314500D03*
D27*
X104457500Y-131572000D03*
X191262000Y-131572000D03*
X191262000Y-65595500D03*
X104457500Y-65595500D03*
D25*
X184100000Y-66800000D03*
D26*
X184100000Y-70300000D03*
D25*
X148100000Y-65500000D03*
D26*
X148100000Y-69000000D03*
D25*
X115887500Y-93289000D03*
D26*
X115887500Y-89789000D03*
D25*
X106934000Y-93289000D03*
D26*
X106934000Y-89789000D03*
D25*
X135819000Y-112268000D03*
D26*
X139319000Y-112268000D03*
D25*
X168204000Y-122364499D03*
D26*
X171704000Y-122364499D03*
D25*
X109200000Y-103800000D03*
D26*
X109200000Y-107300000D03*
D25*
X181300000Y-107300000D03*
D26*
X181300000Y-110800000D03*
D25*
X116936000Y-104644000D03*
D26*
X120436000Y-104644000D03*
D25*
X163251000Y-107696000D03*
D26*
X166751000Y-107696000D03*
D25*
X119828000Y-122261500D03*
D26*
X123328000Y-122261500D03*
D28*
X144208500Y-87566500D03*
D29*
X134578500Y-90966500D03*
X134578500Y-89266500D03*
X134578500Y-87566500D03*
X134578500Y-85866500D03*
X134578500Y-84166500D03*
G36*
G01*
X153098202Y-78546584D02*
X153098202Y-78846584D01*
G75*
G02*
X152948202Y-78996584I-150000J0D01*
G01*
X151298202Y-78996584D01*
G75*
G02*
X151148202Y-78846584I0J150000D01*
G01*
X151148202Y-78546584D01*
G75*
G02*
X151298202Y-78396584I150000J0D01*
G01*
X152948202Y-78396584D01*
G75*
G02*
X153098202Y-78546584I0J-150000D01*
G01*
G37*
G36*
G01*
X153098202Y-77276584D02*
X153098202Y-77576584D01*
G75*
G02*
X152948202Y-77726584I-150000J0D01*
G01*
X151298202Y-77726584D01*
G75*
G02*
X151148202Y-77576584I0J150000D01*
G01*
X151148202Y-77276584D01*
G75*
G02*
X151298202Y-77126584I150000J0D01*
G01*
X152948202Y-77126584D01*
G75*
G02*
X153098202Y-77276584I0J-150000D01*
G01*
G37*
G36*
G01*
X153098202Y-76006584D02*
X153098202Y-76306584D01*
G75*
G02*
X152948202Y-76456584I-150000J0D01*
G01*
X151298202Y-76456584D01*
G75*
G02*
X151148202Y-76306584I0J150000D01*
G01*
X151148202Y-76006584D01*
G75*
G02*
X151298202Y-75856584I150000J0D01*
G01*
X152948202Y-75856584D01*
G75*
G02*
X153098202Y-76006584I0J-150000D01*
G01*
G37*
G36*
G01*
X153098202Y-74736584D02*
X153098202Y-75036584D01*
G75*
G02*
X152948202Y-75186584I-150000J0D01*
G01*
X151298202Y-75186584D01*
G75*
G02*
X151148202Y-75036584I0J150000D01*
G01*
X151148202Y-74736584D01*
G75*
G02*
X151298202Y-74586584I150000J0D01*
G01*
X152948202Y-74586584D01*
G75*
G02*
X153098202Y-74736584I0J-150000D01*
G01*
G37*
G36*
G01*
X158048202Y-74736584D02*
X158048202Y-75036584D01*
G75*
G02*
X157898202Y-75186584I-150000J0D01*
G01*
X156248202Y-75186584D01*
G75*
G02*
X156098202Y-75036584I0J150000D01*
G01*
X156098202Y-74736584D01*
G75*
G02*
X156248202Y-74586584I150000J0D01*
G01*
X157898202Y-74586584D01*
G75*
G02*
X158048202Y-74736584I0J-150000D01*
G01*
G37*
G36*
G01*
X158048202Y-76006584D02*
X158048202Y-76306584D01*
G75*
G02*
X157898202Y-76456584I-150000J0D01*
G01*
X156248202Y-76456584D01*
G75*
G02*
X156098202Y-76306584I0J150000D01*
G01*
X156098202Y-76006584D01*
G75*
G02*
X156248202Y-75856584I150000J0D01*
G01*
X157898202Y-75856584D01*
G75*
G02*
X158048202Y-76006584I0J-150000D01*
G01*
G37*
G36*
G01*
X158048202Y-77276584D02*
X158048202Y-77576584D01*
G75*
G02*
X157898202Y-77726584I-150000J0D01*
G01*
X156248202Y-77726584D01*
G75*
G02*
X156098202Y-77576584I0J150000D01*
G01*
X156098202Y-77276584D01*
G75*
G02*
X156248202Y-77126584I150000J0D01*
G01*
X157898202Y-77126584D01*
G75*
G02*
X158048202Y-77276584I0J-150000D01*
G01*
G37*
G36*
G01*
X158048202Y-78546584D02*
X158048202Y-78846584D01*
G75*
G02*
X157898202Y-78996584I-150000J0D01*
G01*
X156248202Y-78996584D01*
G75*
G02*
X156098202Y-78846584I0J150000D01*
G01*
X156098202Y-78546584D01*
G75*
G02*
X156248202Y-78396584I150000J0D01*
G01*
X157898202Y-78396584D01*
G75*
G02*
X158048202Y-78546584I0J-150000D01*
G01*
G37*
D11*
X146304000Y-111823500D03*
G36*
G01*
X148059000Y-113673500D02*
X148359000Y-113673500D01*
G75*
G02*
X148509000Y-113823500I0J-150000D01*
G01*
X148509000Y-115123500D01*
G75*
G02*
X148359000Y-115273500I-150000J0D01*
G01*
X148059000Y-115273500D01*
G75*
G02*
X147909000Y-115123500I0J150000D01*
G01*
X147909000Y-113823500D01*
G75*
G02*
X148059000Y-113673500I150000J0D01*
G01*
G37*
G36*
G01*
X146789000Y-113673500D02*
X147089000Y-113673500D01*
G75*
G02*
X147239000Y-113823500I0J-150000D01*
G01*
X147239000Y-115123500D01*
G75*
G02*
X147089000Y-115273500I-150000J0D01*
G01*
X146789000Y-115273500D01*
G75*
G02*
X146639000Y-115123500I0J150000D01*
G01*
X146639000Y-113823500D01*
G75*
G02*
X146789000Y-113673500I150000J0D01*
G01*
G37*
G36*
G01*
X145519000Y-113673500D02*
X145819000Y-113673500D01*
G75*
G02*
X145969000Y-113823500I0J-150000D01*
G01*
X145969000Y-115123500D01*
G75*
G02*
X145819000Y-115273500I-150000J0D01*
G01*
X145519000Y-115273500D01*
G75*
G02*
X145369000Y-115123500I0J150000D01*
G01*
X145369000Y-113823500D01*
G75*
G02*
X145519000Y-113673500I150000J0D01*
G01*
G37*
G36*
G01*
X144249000Y-113673500D02*
X144549000Y-113673500D01*
G75*
G02*
X144699000Y-113823500I0J-150000D01*
G01*
X144699000Y-115123500D01*
G75*
G02*
X144549000Y-115273500I-150000J0D01*
G01*
X144249000Y-115273500D01*
G75*
G02*
X144099000Y-115123500I0J150000D01*
G01*
X144099000Y-113823500D01*
G75*
G02*
X144249000Y-113673500I150000J0D01*
G01*
G37*
G36*
G01*
X144249000Y-108373500D02*
X144549000Y-108373500D01*
G75*
G02*
X144699000Y-108523500I0J-150000D01*
G01*
X144699000Y-109823500D01*
G75*
G02*
X144549000Y-109973500I-150000J0D01*
G01*
X144249000Y-109973500D01*
G75*
G02*
X144099000Y-109823500I0J150000D01*
G01*
X144099000Y-108523500D01*
G75*
G02*
X144249000Y-108373500I150000J0D01*
G01*
G37*
G36*
G01*
X145519000Y-108373500D02*
X145819000Y-108373500D01*
G75*
G02*
X145969000Y-108523500I0J-150000D01*
G01*
X145969000Y-109823500D01*
G75*
G02*
X145819000Y-109973500I-150000J0D01*
G01*
X145519000Y-109973500D01*
G75*
G02*
X145369000Y-109823500I0J150000D01*
G01*
X145369000Y-108523500D01*
G75*
G02*
X145519000Y-108373500I150000J0D01*
G01*
G37*
G36*
G01*
X146789000Y-108373500D02*
X147089000Y-108373500D01*
G75*
G02*
X147239000Y-108523500I0J-150000D01*
G01*
X147239000Y-109823500D01*
G75*
G02*
X147089000Y-109973500I-150000J0D01*
G01*
X146789000Y-109973500D01*
G75*
G02*
X146639000Y-109823500I0J150000D01*
G01*
X146639000Y-108523500D01*
G75*
G02*
X146789000Y-108373500I150000J0D01*
G01*
G37*
G36*
G01*
X148059000Y-108373500D02*
X148359000Y-108373500D01*
G75*
G02*
X148509000Y-108523500I0J-150000D01*
G01*
X148509000Y-109823500D01*
G75*
G02*
X148359000Y-109973500I-150000J0D01*
G01*
X148059000Y-109973500D01*
G75*
G02*
X147909000Y-109823500I0J150000D01*
G01*
X147909000Y-108523500D01*
G75*
G02*
X148059000Y-108373500I150000J0D01*
G01*
G37*
X178676000Y-122647001D03*
G36*
G01*
X180431000Y-124497001D02*
X180731000Y-124497001D01*
G75*
G02*
X180881000Y-124647001I0J-150000D01*
G01*
X180881000Y-125947001D01*
G75*
G02*
X180731000Y-126097001I-150000J0D01*
G01*
X180431000Y-126097001D01*
G75*
G02*
X180281000Y-125947001I0J150000D01*
G01*
X180281000Y-124647001D01*
G75*
G02*
X180431000Y-124497001I150000J0D01*
G01*
G37*
G36*
G01*
X179161000Y-124497001D02*
X179461000Y-124497001D01*
G75*
G02*
X179611000Y-124647001I0J-150000D01*
G01*
X179611000Y-125947001D01*
G75*
G02*
X179461000Y-126097001I-150000J0D01*
G01*
X179161000Y-126097001D01*
G75*
G02*
X179011000Y-125947001I0J150000D01*
G01*
X179011000Y-124647001D01*
G75*
G02*
X179161000Y-124497001I150000J0D01*
G01*
G37*
G36*
G01*
X177891000Y-124497001D02*
X178191000Y-124497001D01*
G75*
G02*
X178341000Y-124647001I0J-150000D01*
G01*
X178341000Y-125947001D01*
G75*
G02*
X178191000Y-126097001I-150000J0D01*
G01*
X177891000Y-126097001D01*
G75*
G02*
X177741000Y-125947001I0J150000D01*
G01*
X177741000Y-124647001D01*
G75*
G02*
X177891000Y-124497001I150000J0D01*
G01*
G37*
G36*
G01*
X176621000Y-124497001D02*
X176921000Y-124497001D01*
G75*
G02*
X177071000Y-124647001I0J-150000D01*
G01*
X177071000Y-125947001D01*
G75*
G02*
X176921000Y-126097001I-150000J0D01*
G01*
X176621000Y-126097001D01*
G75*
G02*
X176471000Y-125947001I0J150000D01*
G01*
X176471000Y-124647001D01*
G75*
G02*
X176621000Y-124497001I150000J0D01*
G01*
G37*
G36*
G01*
X176621000Y-119197001D02*
X176921000Y-119197001D01*
G75*
G02*
X177071000Y-119347001I0J-150000D01*
G01*
X177071000Y-120647001D01*
G75*
G02*
X176921000Y-120797001I-150000J0D01*
G01*
X176621000Y-120797001D01*
G75*
G02*
X176471000Y-120647001I0J150000D01*
G01*
X176471000Y-119347001D01*
G75*
G02*
X176621000Y-119197001I150000J0D01*
G01*
G37*
G36*
G01*
X177891000Y-119197001D02*
X178191000Y-119197001D01*
G75*
G02*
X178341000Y-119347001I0J-150000D01*
G01*
X178341000Y-120647001D01*
G75*
G02*
X178191000Y-120797001I-150000J0D01*
G01*
X177891000Y-120797001D01*
G75*
G02*
X177741000Y-120647001I0J150000D01*
G01*
X177741000Y-119347001D01*
G75*
G02*
X177891000Y-119197001I150000J0D01*
G01*
G37*
G36*
G01*
X179161000Y-119197001D02*
X179461000Y-119197001D01*
G75*
G02*
X179611000Y-119347001I0J-150000D01*
G01*
X179611000Y-120647001D01*
G75*
G02*
X179461000Y-120797001I-150000J0D01*
G01*
X179161000Y-120797001D01*
G75*
G02*
X179011000Y-120647001I0J150000D01*
G01*
X179011000Y-119347001D01*
G75*
G02*
X179161000Y-119197001I150000J0D01*
G01*
G37*
G36*
G01*
X180431000Y-119197001D02*
X180731000Y-119197001D01*
G75*
G02*
X180881000Y-119347001I0J-150000D01*
G01*
X180881000Y-120647001D01*
G75*
G02*
X180731000Y-120797001I-150000J0D01*
G01*
X180431000Y-120797001D01*
G75*
G02*
X180281000Y-120647001I0J150000D01*
G01*
X180281000Y-119347001D01*
G75*
G02*
X180431000Y-119197001I150000J0D01*
G01*
G37*
X110617500Y-117330500D03*
G36*
G01*
X112372500Y-119180500D02*
X112672500Y-119180500D01*
G75*
G02*
X112822500Y-119330500I0J-150000D01*
G01*
X112822500Y-120630500D01*
G75*
G02*
X112672500Y-120780500I-150000J0D01*
G01*
X112372500Y-120780500D01*
G75*
G02*
X112222500Y-120630500I0J150000D01*
G01*
X112222500Y-119330500D01*
G75*
G02*
X112372500Y-119180500I150000J0D01*
G01*
G37*
G36*
G01*
X111102500Y-119180500D02*
X111402500Y-119180500D01*
G75*
G02*
X111552500Y-119330500I0J-150000D01*
G01*
X111552500Y-120630500D01*
G75*
G02*
X111402500Y-120780500I-150000J0D01*
G01*
X111102500Y-120780500D01*
G75*
G02*
X110952500Y-120630500I0J150000D01*
G01*
X110952500Y-119330500D01*
G75*
G02*
X111102500Y-119180500I150000J0D01*
G01*
G37*
G36*
G01*
X109832500Y-119180500D02*
X110132500Y-119180500D01*
G75*
G02*
X110282500Y-119330500I0J-150000D01*
G01*
X110282500Y-120630500D01*
G75*
G02*
X110132500Y-120780500I-150000J0D01*
G01*
X109832500Y-120780500D01*
G75*
G02*
X109682500Y-120630500I0J150000D01*
G01*
X109682500Y-119330500D01*
G75*
G02*
X109832500Y-119180500I150000J0D01*
G01*
G37*
G36*
G01*
X108562500Y-119180500D02*
X108862500Y-119180500D01*
G75*
G02*
X109012500Y-119330500I0J-150000D01*
G01*
X109012500Y-120630500D01*
G75*
G02*
X108862500Y-120780500I-150000J0D01*
G01*
X108562500Y-120780500D01*
G75*
G02*
X108412500Y-120630500I0J150000D01*
G01*
X108412500Y-119330500D01*
G75*
G02*
X108562500Y-119180500I150000J0D01*
G01*
G37*
G36*
G01*
X108562500Y-113880500D02*
X108862500Y-113880500D01*
G75*
G02*
X109012500Y-114030500I0J-150000D01*
G01*
X109012500Y-115330500D01*
G75*
G02*
X108862500Y-115480500I-150000J0D01*
G01*
X108562500Y-115480500D01*
G75*
G02*
X108412500Y-115330500I0J150000D01*
G01*
X108412500Y-114030500D01*
G75*
G02*
X108562500Y-113880500I150000J0D01*
G01*
G37*
G36*
G01*
X109832500Y-113880500D02*
X110132500Y-113880500D01*
G75*
G02*
X110282500Y-114030500I0J-150000D01*
G01*
X110282500Y-115330500D01*
G75*
G02*
X110132500Y-115480500I-150000J0D01*
G01*
X109832500Y-115480500D01*
G75*
G02*
X109682500Y-115330500I0J150000D01*
G01*
X109682500Y-114030500D01*
G75*
G02*
X109832500Y-113880500I150000J0D01*
G01*
G37*
G36*
G01*
X111102500Y-113880500D02*
X111402500Y-113880500D01*
G75*
G02*
X111552500Y-114030500I0J-150000D01*
G01*
X111552500Y-115330500D01*
G75*
G02*
X111402500Y-115480500I-150000J0D01*
G01*
X111102500Y-115480500D01*
G75*
G02*
X110952500Y-115330500I0J150000D01*
G01*
X110952500Y-114030500D01*
G75*
G02*
X111102500Y-113880500I150000J0D01*
G01*
G37*
G36*
G01*
X112372500Y-113880500D02*
X112672500Y-113880500D01*
G75*
G02*
X112822500Y-114030500I0J-150000D01*
G01*
X112822500Y-115330500D01*
G75*
G02*
X112672500Y-115480500I-150000J0D01*
G01*
X112372500Y-115480500D01*
G75*
G02*
X112222500Y-115330500I0J150000D01*
G01*
X112222500Y-114030500D01*
G75*
G02*
X112372500Y-113880500I150000J0D01*
G01*
G37*
X187825000Y-118403000D03*
G36*
G01*
X189580000Y-120253000D02*
X189880000Y-120253000D01*
G75*
G02*
X190030000Y-120403000I0J-150000D01*
G01*
X190030000Y-121703000D01*
G75*
G02*
X189880000Y-121853000I-150000J0D01*
G01*
X189580000Y-121853000D01*
G75*
G02*
X189430000Y-121703000I0J150000D01*
G01*
X189430000Y-120403000D01*
G75*
G02*
X189580000Y-120253000I150000J0D01*
G01*
G37*
G36*
G01*
X188310000Y-120253000D02*
X188610000Y-120253000D01*
G75*
G02*
X188760000Y-120403000I0J-150000D01*
G01*
X188760000Y-121703000D01*
G75*
G02*
X188610000Y-121853000I-150000J0D01*
G01*
X188310000Y-121853000D01*
G75*
G02*
X188160000Y-121703000I0J150000D01*
G01*
X188160000Y-120403000D01*
G75*
G02*
X188310000Y-120253000I150000J0D01*
G01*
G37*
G36*
G01*
X187040000Y-120253000D02*
X187340000Y-120253000D01*
G75*
G02*
X187490000Y-120403000I0J-150000D01*
G01*
X187490000Y-121703000D01*
G75*
G02*
X187340000Y-121853000I-150000J0D01*
G01*
X187040000Y-121853000D01*
G75*
G02*
X186890000Y-121703000I0J150000D01*
G01*
X186890000Y-120403000D01*
G75*
G02*
X187040000Y-120253000I150000J0D01*
G01*
G37*
G36*
G01*
X185770000Y-120253000D02*
X186070000Y-120253000D01*
G75*
G02*
X186220000Y-120403000I0J-150000D01*
G01*
X186220000Y-121703000D01*
G75*
G02*
X186070000Y-121853000I-150000J0D01*
G01*
X185770000Y-121853000D01*
G75*
G02*
X185620000Y-121703000I0J150000D01*
G01*
X185620000Y-120403000D01*
G75*
G02*
X185770000Y-120253000I150000J0D01*
G01*
G37*
G36*
G01*
X185770000Y-114953000D02*
X186070000Y-114953000D01*
G75*
G02*
X186220000Y-115103000I0J-150000D01*
G01*
X186220000Y-116403000D01*
G75*
G02*
X186070000Y-116553000I-150000J0D01*
G01*
X185770000Y-116553000D01*
G75*
G02*
X185620000Y-116403000I0J150000D01*
G01*
X185620000Y-115103000D01*
G75*
G02*
X185770000Y-114953000I150000J0D01*
G01*
G37*
G36*
G01*
X187040000Y-114953000D02*
X187340000Y-114953000D01*
G75*
G02*
X187490000Y-115103000I0J-150000D01*
G01*
X187490000Y-116403000D01*
G75*
G02*
X187340000Y-116553000I-150000J0D01*
G01*
X187040000Y-116553000D01*
G75*
G02*
X186890000Y-116403000I0J150000D01*
G01*
X186890000Y-115103000D01*
G75*
G02*
X187040000Y-114953000I150000J0D01*
G01*
G37*
G36*
G01*
X188310000Y-114953000D02*
X188610000Y-114953000D01*
G75*
G02*
X188760000Y-115103000I0J-150000D01*
G01*
X188760000Y-116403000D01*
G75*
G02*
X188610000Y-116553000I-150000J0D01*
G01*
X188310000Y-116553000D01*
G75*
G02*
X188160000Y-116403000I0J150000D01*
G01*
X188160000Y-115103000D01*
G75*
G02*
X188310000Y-114953000I150000J0D01*
G01*
G37*
G36*
G01*
X189580000Y-114953000D02*
X189880000Y-114953000D01*
G75*
G02*
X190030000Y-115103000I0J-150000D01*
G01*
X190030000Y-116403000D01*
G75*
G02*
X189880000Y-116553000I-150000J0D01*
G01*
X189580000Y-116553000D01*
G75*
G02*
X189430000Y-116403000I0J150000D01*
G01*
X189430000Y-115103000D01*
G75*
G02*
X189580000Y-114953000I150000J0D01*
G01*
G37*
X127484500Y-104263000D03*
G36*
G01*
X129239500Y-106113000D02*
X129539500Y-106113000D01*
G75*
G02*
X129689500Y-106263000I0J-150000D01*
G01*
X129689500Y-107563000D01*
G75*
G02*
X129539500Y-107713000I-150000J0D01*
G01*
X129239500Y-107713000D01*
G75*
G02*
X129089500Y-107563000I0J150000D01*
G01*
X129089500Y-106263000D01*
G75*
G02*
X129239500Y-106113000I150000J0D01*
G01*
G37*
G36*
G01*
X127969500Y-106113000D02*
X128269500Y-106113000D01*
G75*
G02*
X128419500Y-106263000I0J-150000D01*
G01*
X128419500Y-107563000D01*
G75*
G02*
X128269500Y-107713000I-150000J0D01*
G01*
X127969500Y-107713000D01*
G75*
G02*
X127819500Y-107563000I0J150000D01*
G01*
X127819500Y-106263000D01*
G75*
G02*
X127969500Y-106113000I150000J0D01*
G01*
G37*
G36*
G01*
X126699500Y-106113000D02*
X126999500Y-106113000D01*
G75*
G02*
X127149500Y-106263000I0J-150000D01*
G01*
X127149500Y-107563000D01*
G75*
G02*
X126999500Y-107713000I-150000J0D01*
G01*
X126699500Y-107713000D01*
G75*
G02*
X126549500Y-107563000I0J150000D01*
G01*
X126549500Y-106263000D01*
G75*
G02*
X126699500Y-106113000I150000J0D01*
G01*
G37*
G36*
G01*
X125429500Y-106113000D02*
X125729500Y-106113000D01*
G75*
G02*
X125879500Y-106263000I0J-150000D01*
G01*
X125879500Y-107563000D01*
G75*
G02*
X125729500Y-107713000I-150000J0D01*
G01*
X125429500Y-107713000D01*
G75*
G02*
X125279500Y-107563000I0J150000D01*
G01*
X125279500Y-106263000D01*
G75*
G02*
X125429500Y-106113000I150000J0D01*
G01*
G37*
G36*
G01*
X125429500Y-100813000D02*
X125729500Y-100813000D01*
G75*
G02*
X125879500Y-100963000I0J-150000D01*
G01*
X125879500Y-102263000D01*
G75*
G02*
X125729500Y-102413000I-150000J0D01*
G01*
X125429500Y-102413000D01*
G75*
G02*
X125279500Y-102263000I0J150000D01*
G01*
X125279500Y-100963000D01*
G75*
G02*
X125429500Y-100813000I150000J0D01*
G01*
G37*
G36*
G01*
X126699500Y-100813000D02*
X126999500Y-100813000D01*
G75*
G02*
X127149500Y-100963000I0J-150000D01*
G01*
X127149500Y-102263000D01*
G75*
G02*
X126999500Y-102413000I-150000J0D01*
G01*
X126699500Y-102413000D01*
G75*
G02*
X126549500Y-102263000I0J150000D01*
G01*
X126549500Y-100963000D01*
G75*
G02*
X126699500Y-100813000I150000J0D01*
G01*
G37*
G36*
G01*
X127969500Y-100813000D02*
X128269500Y-100813000D01*
G75*
G02*
X128419500Y-100963000I0J-150000D01*
G01*
X128419500Y-102263000D01*
G75*
G02*
X128269500Y-102413000I-150000J0D01*
G01*
X127969500Y-102413000D01*
G75*
G02*
X127819500Y-102263000I0J150000D01*
G01*
X127819500Y-100963000D01*
G75*
G02*
X127969500Y-100813000I150000J0D01*
G01*
G37*
G36*
G01*
X129239500Y-100813000D02*
X129539500Y-100813000D01*
G75*
G02*
X129689500Y-100963000I0J-150000D01*
G01*
X129689500Y-102263000D01*
G75*
G02*
X129539500Y-102413000I-150000J0D01*
G01*
X129239500Y-102413000D01*
G75*
G02*
X129089500Y-102263000I0J150000D01*
G01*
X129089500Y-100963000D01*
G75*
G02*
X129239500Y-100813000I150000J0D01*
G01*
G37*
X173736000Y-106934000D03*
G36*
G01*
X175491000Y-108784000D02*
X175791000Y-108784000D01*
G75*
G02*
X175941000Y-108934000I0J-150000D01*
G01*
X175941000Y-110234000D01*
G75*
G02*
X175791000Y-110384000I-150000J0D01*
G01*
X175491000Y-110384000D01*
G75*
G02*
X175341000Y-110234000I0J150000D01*
G01*
X175341000Y-108934000D01*
G75*
G02*
X175491000Y-108784000I150000J0D01*
G01*
G37*
G36*
G01*
X174221000Y-108784000D02*
X174521000Y-108784000D01*
G75*
G02*
X174671000Y-108934000I0J-150000D01*
G01*
X174671000Y-110234000D01*
G75*
G02*
X174521000Y-110384000I-150000J0D01*
G01*
X174221000Y-110384000D01*
G75*
G02*
X174071000Y-110234000I0J150000D01*
G01*
X174071000Y-108934000D01*
G75*
G02*
X174221000Y-108784000I150000J0D01*
G01*
G37*
G36*
G01*
X172951000Y-108784000D02*
X173251000Y-108784000D01*
G75*
G02*
X173401000Y-108934000I0J-150000D01*
G01*
X173401000Y-110234000D01*
G75*
G02*
X173251000Y-110384000I-150000J0D01*
G01*
X172951000Y-110384000D01*
G75*
G02*
X172801000Y-110234000I0J150000D01*
G01*
X172801000Y-108934000D01*
G75*
G02*
X172951000Y-108784000I150000J0D01*
G01*
G37*
G36*
G01*
X171681000Y-108784000D02*
X171981000Y-108784000D01*
G75*
G02*
X172131000Y-108934000I0J-150000D01*
G01*
X172131000Y-110234000D01*
G75*
G02*
X171981000Y-110384000I-150000J0D01*
G01*
X171681000Y-110384000D01*
G75*
G02*
X171531000Y-110234000I0J150000D01*
G01*
X171531000Y-108934000D01*
G75*
G02*
X171681000Y-108784000I150000J0D01*
G01*
G37*
G36*
G01*
X171681000Y-103484000D02*
X171981000Y-103484000D01*
G75*
G02*
X172131000Y-103634000I0J-150000D01*
G01*
X172131000Y-104934000D01*
G75*
G02*
X171981000Y-105084000I-150000J0D01*
G01*
X171681000Y-105084000D01*
G75*
G02*
X171531000Y-104934000I0J150000D01*
G01*
X171531000Y-103634000D01*
G75*
G02*
X171681000Y-103484000I150000J0D01*
G01*
G37*
G36*
G01*
X172951000Y-103484000D02*
X173251000Y-103484000D01*
G75*
G02*
X173401000Y-103634000I0J-150000D01*
G01*
X173401000Y-104934000D01*
G75*
G02*
X173251000Y-105084000I-150000J0D01*
G01*
X172951000Y-105084000D01*
G75*
G02*
X172801000Y-104934000I0J150000D01*
G01*
X172801000Y-103634000D01*
G75*
G02*
X172951000Y-103484000I150000J0D01*
G01*
G37*
G36*
G01*
X174221000Y-103484000D02*
X174521000Y-103484000D01*
G75*
G02*
X174671000Y-103634000I0J-150000D01*
G01*
X174671000Y-104934000D01*
G75*
G02*
X174521000Y-105084000I-150000J0D01*
G01*
X174221000Y-105084000D01*
G75*
G02*
X174071000Y-104934000I0J150000D01*
G01*
X174071000Y-103634000D01*
G75*
G02*
X174221000Y-103484000I150000J0D01*
G01*
G37*
G36*
G01*
X175491000Y-103484000D02*
X175791000Y-103484000D01*
G75*
G02*
X175941000Y-103634000I0J-150000D01*
G01*
X175941000Y-104934000D01*
G75*
G02*
X175791000Y-105084000I-150000J0D01*
G01*
X175491000Y-105084000D01*
G75*
G02*
X175341000Y-104934000I0J150000D01*
G01*
X175341000Y-103634000D01*
G75*
G02*
X175491000Y-103484000I150000J0D01*
G01*
G37*
D10*
X159400000Y-64800000D03*
X136600000Y-123200000D03*
X136100000Y-130300000D03*
D30*
X138733000Y-95944000D03*
X136193000Y-95944000D03*
X133653000Y-95944000D03*
G36*
G01*
X153549600Y-64930500D02*
X152999600Y-64930500D01*
G75*
G02*
X152799600Y-64730500I0J200000D01*
G01*
X152799600Y-64330500D01*
G75*
G02*
X152999600Y-64130500I200000J0D01*
G01*
X153549600Y-64130500D01*
G75*
G02*
X153749600Y-64330500I0J-200000D01*
G01*
X153749600Y-64730500D01*
G75*
G02*
X153549600Y-64930500I-200000J0D01*
G01*
G37*
G36*
G01*
X153549600Y-66580500D02*
X152999600Y-66580500D01*
G75*
G02*
X152799600Y-66380500I0J200000D01*
G01*
X152799600Y-65980500D01*
G75*
G02*
X152999600Y-65780500I200000J0D01*
G01*
X153549600Y-65780500D01*
G75*
G02*
X153749600Y-65980500I0J-200000D01*
G01*
X153749600Y-66380500D01*
G75*
G02*
X153549600Y-66580500I-200000J0D01*
G01*
G37*
G36*
G01*
X155238400Y-67390600D02*
X155238400Y-67940600D01*
G75*
G02*
X155038400Y-68140600I-200000J0D01*
G01*
X154638400Y-68140600D01*
G75*
G02*
X154438400Y-67940600I0J200000D01*
G01*
X154438400Y-67390600D01*
G75*
G02*
X154638400Y-67190600I200000J0D01*
G01*
X155038400Y-67190600D01*
G75*
G02*
X155238400Y-67390600I0J-200000D01*
G01*
G37*
G36*
G01*
X156888400Y-67390600D02*
X156888400Y-67940600D01*
G75*
G02*
X156688400Y-68140600I-200000J0D01*
G01*
X156288400Y-68140600D01*
G75*
G02*
X156088400Y-67940600I0J200000D01*
G01*
X156088400Y-67390600D01*
G75*
G02*
X156288400Y-67190600I200000J0D01*
G01*
X156688400Y-67190600D01*
G75*
G02*
X156888400Y-67390600I0J-200000D01*
G01*
G37*
G36*
G01*
X134966500Y-99648000D02*
X134966500Y-99098000D01*
G75*
G02*
X135166500Y-98898000I200000J0D01*
G01*
X135566500Y-98898000D01*
G75*
G02*
X135766500Y-99098000I0J-200000D01*
G01*
X135766500Y-99648000D01*
G75*
G02*
X135566500Y-99848000I-200000J0D01*
G01*
X135166500Y-99848000D01*
G75*
G02*
X134966500Y-99648000I0J200000D01*
G01*
G37*
G36*
G01*
X133316500Y-99648000D02*
X133316500Y-99098000D01*
G75*
G02*
X133516500Y-98898000I200000J0D01*
G01*
X133916500Y-98898000D01*
G75*
G02*
X134116500Y-99098000I0J-200000D01*
G01*
X134116500Y-99648000D01*
G75*
G02*
X133916500Y-99848000I-200000J0D01*
G01*
X133516500Y-99848000D01*
G75*
G02*
X133316500Y-99648000I0J200000D01*
G01*
G37*
G36*
G01*
X138078002Y-99648000D02*
X138078002Y-99098000D01*
G75*
G02*
X138278002Y-98898000I200000J0D01*
G01*
X138678002Y-98898000D01*
G75*
G02*
X138878002Y-99098000I0J-200000D01*
G01*
X138878002Y-99648000D01*
G75*
G02*
X138678002Y-99848000I-200000J0D01*
G01*
X138278002Y-99848000D01*
G75*
G02*
X138078002Y-99648000I0J200000D01*
G01*
G37*
G36*
G01*
X136428002Y-99648000D02*
X136428002Y-99098000D01*
G75*
G02*
X136628002Y-98898000I200000J0D01*
G01*
X137028002Y-98898000D01*
G75*
G02*
X137228002Y-99098000I0J-200000D01*
G01*
X137228002Y-99648000D01*
G75*
G02*
X137028002Y-99848000I-200000J0D01*
G01*
X136628002Y-99848000D01*
G75*
G02*
X136428002Y-99648000I0J200000D01*
G01*
G37*
D31*
X171900000Y-78514085D03*
X171900000Y-66314085D03*
D32*
X126746000Y-91439999D03*
X126746000Y-82439999D03*
D33*
X162154702Y-74061085D03*
X162154702Y-78061085D03*
D34*
X143300000Y-95100000D03*
X147300000Y-95100000D03*
G36*
G01*
X156623803Y-65061783D02*
X156123803Y-65061783D01*
G75*
G02*
X155898803Y-64836783I0J225000D01*
G01*
X155898803Y-64386783D01*
G75*
G02*
X156123803Y-64161783I225000J0D01*
G01*
X156623803Y-64161783D01*
G75*
G02*
X156848803Y-64386783I0J-225000D01*
G01*
X156848803Y-64836783D01*
G75*
G02*
X156623803Y-65061783I-225000J0D01*
G01*
G37*
G36*
G01*
X156623803Y-66611783D02*
X156123803Y-66611783D01*
G75*
G02*
X155898803Y-66386783I0J225000D01*
G01*
X155898803Y-65936783D01*
G75*
G02*
X156123803Y-65711783I225000J0D01*
G01*
X156623803Y-65711783D01*
G75*
G02*
X156848803Y-65936783I0J-225000D01*
G01*
X156848803Y-66386783D01*
G75*
G02*
X156623803Y-66611783I-225000J0D01*
G01*
G37*
G36*
G01*
X155099804Y-65061783D02*
X154599804Y-65061783D01*
G75*
G02*
X154374804Y-64836783I0J225000D01*
G01*
X154374804Y-64386783D01*
G75*
G02*
X154599804Y-64161783I225000J0D01*
G01*
X155099804Y-64161783D01*
G75*
G02*
X155324804Y-64386783I0J-225000D01*
G01*
X155324804Y-64836783D01*
G75*
G02*
X155099804Y-65061783I-225000J0D01*
G01*
G37*
G36*
G01*
X155099804Y-66611783D02*
X154599804Y-66611783D01*
G75*
G02*
X154374804Y-66386783I0J225000D01*
G01*
X154374804Y-65936783D01*
G75*
G02*
X154599804Y-65711783I225000J0D01*
G01*
X155099804Y-65711783D01*
G75*
G02*
X155324804Y-65936783I0J-225000D01*
G01*
X155324804Y-66386783D01*
G75*
G02*
X155099804Y-66611783I-225000J0D01*
G01*
G37*
G36*
G01*
X159420202Y-74638084D02*
X158920202Y-74638084D01*
G75*
G02*
X158695202Y-74413084I0J225000D01*
G01*
X158695202Y-73963084D01*
G75*
G02*
X158920202Y-73738084I225000J0D01*
G01*
X159420202Y-73738084D01*
G75*
G02*
X159645202Y-73963084I0J-225000D01*
G01*
X159645202Y-74413084D01*
G75*
G02*
X159420202Y-74638084I-225000J0D01*
G01*
G37*
G36*
G01*
X159420202Y-76188084D02*
X158920202Y-76188084D01*
G75*
G02*
X158695202Y-75963084I0J225000D01*
G01*
X158695202Y-75513084D01*
G75*
G02*
X158920202Y-75288084I225000J0D01*
G01*
X159420202Y-75288084D01*
G75*
G02*
X159645202Y-75513084I0J-225000D01*
G01*
X159645202Y-75963084D01*
G75*
G02*
X159420202Y-76188084I-225000J0D01*
G01*
G37*
D35*
X135500000Y-67000000D03*
D36*
X135500000Y-74500000D03*
G36*
G01*
X143750000Y-77650000D02*
X143250000Y-77650000D01*
G75*
G02*
X143025000Y-77425000I0J225000D01*
G01*
X143025000Y-76975000D01*
G75*
G02*
X143250000Y-76750000I225000J0D01*
G01*
X143750000Y-76750000D01*
G75*
G02*
X143975000Y-76975000I0J-225000D01*
G01*
X143975000Y-77425000D01*
G75*
G02*
X143750000Y-77650000I-225000J0D01*
G01*
G37*
G36*
G01*
X143750000Y-79200000D02*
X143250000Y-79200000D01*
G75*
G02*
X143025000Y-78975000I0J225000D01*
G01*
X143025000Y-78525000D01*
G75*
G02*
X143250000Y-78300000I225000J0D01*
G01*
X143750000Y-78300000D01*
G75*
G02*
X143975000Y-78525000I0J-225000D01*
G01*
X143975000Y-78975000D01*
G75*
G02*
X143750000Y-79200000I-225000J0D01*
G01*
G37*
G36*
G01*
X128989000Y-96262000D02*
X128989000Y-95762000D01*
G75*
G02*
X129214000Y-95537000I225000J0D01*
G01*
X129664000Y-95537000D01*
G75*
G02*
X129889000Y-95762000I0J-225000D01*
G01*
X129889000Y-96262000D01*
G75*
G02*
X129664000Y-96487000I-225000J0D01*
G01*
X129214000Y-96487000D01*
G75*
G02*
X128989000Y-96262000I0J225000D01*
G01*
G37*
G36*
G01*
X127439000Y-96262000D02*
X127439000Y-95762000D01*
G75*
G02*
X127664000Y-95537000I225000J0D01*
G01*
X128114000Y-95537000D01*
G75*
G02*
X128339000Y-95762000I0J-225000D01*
G01*
X128339000Y-96262000D01*
G75*
G02*
X128114000Y-96487000I-225000J0D01*
G01*
X127664000Y-96487000D01*
G75*
G02*
X127439000Y-96262000I0J225000D01*
G01*
G37*
G36*
G01*
X142498000Y-109913000D02*
X142998000Y-109913000D01*
G75*
G02*
X143223000Y-110138000I0J-225000D01*
G01*
X143223000Y-110588000D01*
G75*
G02*
X142998000Y-110813000I-225000J0D01*
G01*
X142498000Y-110813000D01*
G75*
G02*
X142273000Y-110588000I0J225000D01*
G01*
X142273000Y-110138000D01*
G75*
G02*
X142498000Y-109913000I225000J0D01*
G01*
G37*
G36*
G01*
X142498000Y-108363000D02*
X142998000Y-108363000D01*
G75*
G02*
X143223000Y-108588000I0J-225000D01*
G01*
X143223000Y-109038000D01*
G75*
G02*
X142998000Y-109263000I-225000J0D01*
G01*
X142498000Y-109263000D01*
G75*
G02*
X142273000Y-109038000I0J225000D01*
G01*
X142273000Y-108588000D01*
G75*
G02*
X142498000Y-108363000I225000J0D01*
G01*
G37*
G36*
G01*
X174819500Y-120771500D02*
X175319500Y-120771500D01*
G75*
G02*
X175544500Y-120996500I0J-225000D01*
G01*
X175544500Y-121446500D01*
G75*
G02*
X175319500Y-121671500I-225000J0D01*
G01*
X174819500Y-121671500D01*
G75*
G02*
X174594500Y-121446500I0J225000D01*
G01*
X174594500Y-120996500D01*
G75*
G02*
X174819500Y-120771500I225000J0D01*
G01*
G37*
G36*
G01*
X174819500Y-119221500D02*
X175319500Y-119221500D01*
G75*
G02*
X175544500Y-119446500I0J-225000D01*
G01*
X175544500Y-119896500D01*
G75*
G02*
X175319500Y-120121500I-225000J0D01*
G01*
X174819500Y-120121500D01*
G75*
G02*
X174594500Y-119896500I0J225000D01*
G01*
X174594500Y-119446500D01*
G75*
G02*
X174819500Y-119221500I225000J0D01*
G01*
G37*
G36*
G01*
X106748000Y-115559999D02*
X107248000Y-115559999D01*
G75*
G02*
X107473000Y-115784999I0J-225000D01*
G01*
X107473000Y-116234999D01*
G75*
G02*
X107248000Y-116459999I-225000J0D01*
G01*
X106748000Y-116459999D01*
G75*
G02*
X106523000Y-116234999I0J225000D01*
G01*
X106523000Y-115784999D01*
G75*
G02*
X106748000Y-115559999I225000J0D01*
G01*
G37*
G36*
G01*
X106748000Y-114009999D02*
X107248000Y-114009999D01*
G75*
G02*
X107473000Y-114234999I0J-225000D01*
G01*
X107473000Y-114684999D01*
G75*
G02*
X107248000Y-114909999I-225000J0D01*
G01*
X106748000Y-114909999D01*
G75*
G02*
X106523000Y-114684999I0J225000D01*
G01*
X106523000Y-114234999D01*
G75*
G02*
X106748000Y-114009999I225000J0D01*
G01*
G37*
G36*
G01*
X183968500Y-116527500D02*
X184468500Y-116527500D01*
G75*
G02*
X184693500Y-116752500I0J-225000D01*
G01*
X184693500Y-117202500D01*
G75*
G02*
X184468500Y-117427500I-225000J0D01*
G01*
X183968500Y-117427500D01*
G75*
G02*
X183743500Y-117202500I0J225000D01*
G01*
X183743500Y-116752500D01*
G75*
G02*
X183968500Y-116527500I225000J0D01*
G01*
G37*
G36*
G01*
X183968500Y-114977500D02*
X184468500Y-114977500D01*
G75*
G02*
X184693500Y-115202500I0J-225000D01*
G01*
X184693500Y-115652500D01*
G75*
G02*
X184468500Y-115877500I-225000J0D01*
G01*
X183968500Y-115877500D01*
G75*
G02*
X183743500Y-115652500I0J225000D01*
G01*
X183743500Y-115202500D01*
G75*
G02*
X183968500Y-114977500I225000J0D01*
G01*
G37*
G36*
G01*
X123678500Y-102352500D02*
X124178500Y-102352500D01*
G75*
G02*
X124403500Y-102577500I0J-225000D01*
G01*
X124403500Y-103027500D01*
G75*
G02*
X124178500Y-103252500I-225000J0D01*
G01*
X123678500Y-103252500D01*
G75*
G02*
X123453500Y-103027500I0J225000D01*
G01*
X123453500Y-102577500D01*
G75*
G02*
X123678500Y-102352500I225000J0D01*
G01*
G37*
G36*
G01*
X123678500Y-100802500D02*
X124178500Y-100802500D01*
G75*
G02*
X124403500Y-101027500I0J-225000D01*
G01*
X124403500Y-101477500D01*
G75*
G02*
X124178500Y-101702500I-225000J0D01*
G01*
X123678500Y-101702500D01*
G75*
G02*
X123453500Y-101477500I0J225000D01*
G01*
X123453500Y-101027500D01*
G75*
G02*
X123678500Y-100802500I225000J0D01*
G01*
G37*
G36*
G01*
X169930000Y-105100000D02*
X170430000Y-105100000D01*
G75*
G02*
X170655000Y-105325000I0J-225000D01*
G01*
X170655000Y-105775000D01*
G75*
G02*
X170430000Y-106000000I-225000J0D01*
G01*
X169930000Y-106000000D01*
G75*
G02*
X169705000Y-105775000I0J225000D01*
G01*
X169705000Y-105325000D01*
G75*
G02*
X169930000Y-105100000I225000J0D01*
G01*
G37*
G36*
G01*
X169930000Y-103550000D02*
X170430000Y-103550000D01*
G75*
G02*
X170655000Y-103775000I0J-225000D01*
G01*
X170655000Y-104225000D01*
G75*
G02*
X170430000Y-104450000I-225000J0D01*
G01*
X169930000Y-104450000D01*
G75*
G02*
X169705000Y-104225000I0J225000D01*
G01*
X169705000Y-103775000D01*
G75*
G02*
X169930000Y-103550000I225000J0D01*
G01*
G37*
G36*
G01*
X126761000Y-119856000D02*
X127261000Y-119856000D01*
G75*
G02*
X127486000Y-120081000I0J-225000D01*
G01*
X127486000Y-120531000D01*
G75*
G02*
X127261000Y-120756000I-225000J0D01*
G01*
X126761000Y-120756000D01*
G75*
G02*
X126536000Y-120531000I0J225000D01*
G01*
X126536000Y-120081000D01*
G75*
G02*
X126761000Y-119856000I225000J0D01*
G01*
G37*
G36*
G01*
X126761000Y-118306000D02*
X127261000Y-118306000D01*
G75*
G02*
X127486000Y-118531000I0J-225000D01*
G01*
X127486000Y-118981000D01*
G75*
G02*
X127261000Y-119206000I-225000J0D01*
G01*
X126761000Y-119206000D01*
G75*
G02*
X126536000Y-118981000I0J225000D01*
G01*
X126536000Y-118531000D01*
G75*
G02*
X126761000Y-118306000I225000J0D01*
G01*
G37*
M02*
