G04 #@! TF.GenerationSoftware,KiCad,Pcbnew,(5.1.12)-1*
G04 #@! TF.CreationDate,2022-03-29T21:49:19+08:00*
G04 #@! TF.ProjectId,Nozzle,4e6f7a7a-6c65-42e6-9b69-6361645f7063,Gen3.1b*
G04 #@! TF.SameCoordinates,Original*
G04 #@! TF.FileFunction,Legend,Top*
G04 #@! TF.FilePolarity,Positive*
%FSLAX46Y46*%
G04 Gerber Fmt 4.6, Leading zero omitted, Abs format (unit mm)*
G04 Created by KiCad (PCBNEW (5.1.12)-1) date 2022-03-29 21:49:19*
%MOMM*%
%LPD*%
G01*
G04 APERTURE LIST*
%ADD10C,0.150000*%
%ADD11C,0.120000*%
G04 APERTURE END LIST*
D10*
X145542095Y-50236380D02*
X145542095Y-49236380D01*
X146113523Y-50236380D01*
X146113523Y-49236380D01*
X146494476Y-49236380D02*
X147161142Y-49236380D01*
X146732571Y-50236380D01*
X143027495Y-50236380D02*
X143027495Y-49236380D01*
X143598923Y-50236380D01*
X143598923Y-49236380D01*
X144503685Y-49236380D02*
X144313209Y-49236380D01*
X144217971Y-49284000D01*
X144170352Y-49331619D01*
X144075114Y-49474476D01*
X144027495Y-49664952D01*
X144027495Y-50045904D01*
X144075114Y-50141142D01*
X144122733Y-50188761D01*
X144217971Y-50236380D01*
X144408447Y-50236380D01*
X144503685Y-50188761D01*
X144551304Y-50141142D01*
X144598923Y-50045904D01*
X144598923Y-49807809D01*
X144551304Y-49712571D01*
X144503685Y-49664952D01*
X144408447Y-49617333D01*
X144217971Y-49617333D01*
X144122733Y-49664952D01*
X144075114Y-49712571D01*
X144027495Y-49807809D01*
X140512895Y-50236380D02*
X140512895Y-49236380D01*
X141084323Y-50236380D01*
X141084323Y-49236380D01*
X142036704Y-49236380D02*
X141560514Y-49236380D01*
X141512895Y-49712571D01*
X141560514Y-49664952D01*
X141655752Y-49617333D01*
X141893847Y-49617333D01*
X141989085Y-49664952D01*
X142036704Y-49712571D01*
X142084323Y-49807809D01*
X142084323Y-50045904D01*
X142036704Y-50141142D01*
X141989085Y-50188761D01*
X141893847Y-50236380D01*
X141655752Y-50236380D01*
X141560514Y-50188761D01*
X141512895Y-50141142D01*
X137972895Y-50261780D02*
X137972895Y-49261780D01*
X138544323Y-50261780D01*
X138544323Y-49261780D01*
X139449085Y-49595114D02*
X139449085Y-50261780D01*
X139210990Y-49214161D02*
X138972895Y-49928447D01*
X139591942Y-49928447D01*
X135432895Y-50236380D02*
X135432895Y-49236380D01*
X136004323Y-50236380D01*
X136004323Y-49236380D01*
X136385276Y-49236380D02*
X137004323Y-49236380D01*
X136670990Y-49617333D01*
X136813847Y-49617333D01*
X136909085Y-49664952D01*
X136956704Y-49712571D01*
X137004323Y-49807809D01*
X137004323Y-50045904D01*
X136956704Y-50141142D01*
X136909085Y-50188761D01*
X136813847Y-50236380D01*
X136528133Y-50236380D01*
X136432895Y-50188761D01*
X136385276Y-50141142D01*
X132943695Y-50236380D02*
X132943695Y-49236380D01*
X133515123Y-50236380D01*
X133515123Y-49236380D01*
X133943695Y-49331619D02*
X133991314Y-49284000D01*
X134086552Y-49236380D01*
X134324647Y-49236380D01*
X134419885Y-49284000D01*
X134467504Y-49331619D01*
X134515123Y-49426857D01*
X134515123Y-49522095D01*
X134467504Y-49664952D01*
X133896076Y-50236380D01*
X134515123Y-50236380D01*
X130352895Y-50210980D02*
X130352895Y-49210980D01*
X130924323Y-50210980D01*
X130924323Y-49210980D01*
X131924323Y-50210980D02*
X131352895Y-50210980D01*
X131638609Y-50210980D02*
X131638609Y-49210980D01*
X131543371Y-49353838D01*
X131448133Y-49449076D01*
X131352895Y-49496695D01*
X150015676Y-42692580D02*
X150015676Y-41692580D01*
X150349009Y-42406866D01*
X150682342Y-41692580D01*
X150682342Y-42692580D01*
X151110914Y-41787819D02*
X151158533Y-41740200D01*
X151253771Y-41692580D01*
X151491866Y-41692580D01*
X151587104Y-41740200D01*
X151634723Y-41787819D01*
X151682342Y-41883057D01*
X151682342Y-41978295D01*
X151634723Y-42121152D01*
X151063295Y-42692580D01*
X151682342Y-42692580D01*
X127787495Y-50210980D02*
X127787495Y-49210980D01*
X128358923Y-50210980D01*
X128358923Y-49210980D01*
X129025590Y-49210980D02*
X129120828Y-49210980D01*
X129216066Y-49258600D01*
X129263685Y-49306219D01*
X129311304Y-49401457D01*
X129358923Y-49591933D01*
X129358923Y-49830028D01*
X129311304Y-50020504D01*
X129263685Y-50115742D01*
X129216066Y-50163361D01*
X129120828Y-50210980D01*
X129025590Y-50210980D01*
X128930352Y-50163361D01*
X128882733Y-50115742D01*
X128835114Y-50020504D01*
X128787495Y-49830028D01*
X128787495Y-49591933D01*
X128835114Y-49401457D01*
X128882733Y-49306219D01*
X128930352Y-49258600D01*
X129025590Y-49210980D01*
X119511723Y-47690042D02*
X119464104Y-47737661D01*
X119321247Y-47785280D01*
X119226009Y-47785280D01*
X119083152Y-47737661D01*
X118987914Y-47642423D01*
X118940295Y-47547185D01*
X118892676Y-47356709D01*
X118892676Y-47213852D01*
X118940295Y-47023376D01*
X118987914Y-46928138D01*
X119083152Y-46832900D01*
X119226009Y-46785280D01*
X119321247Y-46785280D01*
X119464104Y-46832900D01*
X119511723Y-46880519D01*
D11*
X127194000Y-44704000D02*
X127194000Y-43374000D01*
X127194000Y-43374000D02*
X128524000Y-43374000D01*
X127194000Y-45974000D02*
X129794000Y-45974000D01*
X129794000Y-45974000D02*
X129794000Y-43374000D01*
X129794000Y-43374000D02*
X147634000Y-43374000D01*
X147634000Y-48574000D02*
X147634000Y-43374000D01*
X127194000Y-48574000D02*
X147634000Y-48574000D01*
X127194000Y-48574000D02*
X127194000Y-45974000D01*
D10*
X124939466Y-45146980D02*
X124939466Y-45861266D01*
X124891847Y-46004123D01*
X124796609Y-46099361D01*
X124653752Y-46146980D01*
X124558514Y-46146980D01*
X125939466Y-46146980D02*
X125368038Y-46146980D01*
X125653752Y-46146980D02*
X125653752Y-45146980D01*
X125558514Y-45289838D01*
X125463276Y-45385076D01*
X125368038Y-45432695D01*
M02*
