G04 #@! TF.GenerationSoftware,KiCad,Pcbnew,(5.1.12)-1*
G04 #@! TF.CreationDate,2022-03-29T21:49:19+08:00*
G04 #@! TF.ProjectId,Nozzle,4e6f7a7a-6c65-42e6-9b69-6361645f7063,Gen3.1b*
G04 #@! TF.SameCoordinates,Original*
G04 #@! TF.FileFunction,Legend,Bot*
G04 #@! TF.FilePolarity,Positive*
%FSLAX46Y46*%
G04 Gerber Fmt 4.6, Leading zero omitted, Abs format (unit mm)*
G04 Created by KiCad (PCBNEW (5.1.12)-1) date 2022-03-29 21:49:19*
%MOMM*%
%LPD*%
G01*
G04 APERTURE LIST*
%ADD10C,0.300000*%
%ADD11C,0.120000*%
G04 APERTURE END LIST*
D10*
X143676000Y-50283371D02*
X143390285Y-50283371D01*
X143247428Y-50354800D01*
X143104571Y-50497657D01*
X143033142Y-50783371D01*
X143033142Y-51283371D01*
X143104571Y-51569085D01*
X143247428Y-51711942D01*
X143390285Y-51783371D01*
X143676000Y-51783371D01*
X143818857Y-51711942D01*
X143961714Y-51569085D01*
X144033142Y-51283371D01*
X144033142Y-50783371D01*
X143961714Y-50497657D01*
X143818857Y-50354800D01*
X143676000Y-50283371D01*
X142390285Y-51783371D02*
X142390285Y-50283371D01*
X141818857Y-50283371D01*
X141676000Y-50354800D01*
X141604571Y-50426228D01*
X141533142Y-50569085D01*
X141533142Y-50783371D01*
X141604571Y-50926228D01*
X141676000Y-50997657D01*
X141818857Y-51069085D01*
X142390285Y-51069085D01*
X140461714Y-50283371D02*
X140461714Y-51354800D01*
X140533142Y-51569085D01*
X140676000Y-51711942D01*
X140890285Y-51783371D01*
X141033142Y-51783371D01*
X139747428Y-51640514D02*
X139676000Y-51711942D01*
X139747428Y-51783371D01*
X139818857Y-51711942D01*
X139747428Y-51640514D01*
X139747428Y-51783371D01*
X139747428Y-50854800D02*
X139676000Y-50926228D01*
X139747428Y-50997657D01*
X139818857Y-50926228D01*
X139747428Y-50854800D01*
X139747428Y-50997657D01*
X138104571Y-50283371D02*
X137604571Y-51783371D01*
X137104571Y-50283371D01*
X136747428Y-50283371D02*
X135818857Y-50283371D01*
X136318857Y-50854800D01*
X136104571Y-50854800D01*
X135961714Y-50926228D01*
X135890285Y-50997657D01*
X135818857Y-51140514D01*
X135818857Y-51497657D01*
X135890285Y-51640514D01*
X135961714Y-51711942D01*
X136104571Y-51783371D01*
X136533142Y-51783371D01*
X136676000Y-51711942D01*
X136747428Y-51640514D01*
X135176000Y-51640514D02*
X135104571Y-51711942D01*
X135176000Y-51783371D01*
X135247428Y-51711942D01*
X135176000Y-51640514D01*
X135176000Y-51783371D01*
X133676000Y-51783371D02*
X134533142Y-51783371D01*
X134104571Y-51783371D02*
X134104571Y-50283371D01*
X134247428Y-50497657D01*
X134390285Y-50640514D01*
X134533142Y-50711942D01*
X133033142Y-51783371D02*
X133033142Y-50283371D01*
X133033142Y-50854800D02*
X132890285Y-50783371D01*
X132604571Y-50783371D01*
X132461714Y-50854800D01*
X132390285Y-50926228D01*
X132318857Y-51069085D01*
X132318857Y-51497657D01*
X132390285Y-51640514D01*
X132461714Y-51711942D01*
X132604571Y-51783371D01*
X132890285Y-51783371D01*
X133033142Y-51711942D01*
D11*
X149479000Y-63449200D02*
X152476200Y-63449200D01*
X126796800Y-63449200D02*
X123799600Y-63449200D01*
M02*
