G04 #@! TF.GenerationSoftware,KiCad,Pcbnew,(5.1.12)-1*
G04 #@! TF.CreationDate,2022-03-26T22:13:32+08:00*
G04 #@! TF.ProjectId,Nozzle,4e6f7a7a-6c65-42e6-9b69-6361645f7063,0.5*
G04 #@! TF.SameCoordinates,Original*
G04 #@! TF.FileFunction,Copper,L2,Bot*
G04 #@! TF.FilePolarity,Positive*
%FSLAX46Y46*%
G04 Gerber Fmt 4.6, Leading zero omitted, Abs format (unit mm)*
G04 Created by KiCad (PCBNEW (5.1.12)-1) date 2022-03-26 22:13:32*
%MOMM*%
%LPD*%
G01*
G04 APERTURE LIST*
G04 #@! TA.AperFunction,ComponentPad*
%ADD10O,1.700000X1.700000*%
G04 #@! TD*
G04 #@! TA.AperFunction,ComponentPad*
%ADD11R,1.700000X1.700000*%
G04 #@! TD*
G04 #@! TA.AperFunction,SMDPad,CuDef*
%ADD12R,0.400000X1.500000*%
G04 #@! TD*
G04 #@! TA.AperFunction,Conductor*
%ADD13C,0.500000*%
G04 #@! TD*
G04 #@! TA.AperFunction,Conductor*
%ADD14C,0.400000*%
G04 #@! TD*
G04 APERTURE END LIST*
D10*
X146304000Y-47244000D03*
X146304000Y-44704000D03*
X143764000Y-47244000D03*
X143764000Y-44704000D03*
X141224000Y-47244000D03*
X141224000Y-44704000D03*
X138684000Y-47244000D03*
X138684000Y-44704000D03*
X136144000Y-47244000D03*
X136144000Y-44704000D03*
X133604000Y-47244000D03*
X133604000Y-44704000D03*
X131064000Y-47244000D03*
X131064000Y-44704000D03*
X128524000Y-47244000D03*
D11*
X128524000Y-44704000D03*
D12*
X131247900Y-63636500D03*
X132327900Y-63236500D03*
X133787900Y-63661900D03*
X134867900Y-63261900D03*
X136340600Y-63649200D03*
X137420600Y-63249200D03*
X138893300Y-63649200D03*
X139973300Y-63249200D03*
X128695200Y-63649200D03*
X129775200Y-63249200D03*
X141407900Y-63649200D03*
X142487900Y-63249200D03*
X143935200Y-63649200D03*
X145015200Y-63249200D03*
X146513300Y-63649200D03*
X147593300Y-63249200D03*
D13*
X127406400Y-64897000D02*
X127078367Y-64568967D01*
X128727200Y-63957200D02*
X128727200Y-64565750D01*
X126596622Y-64079273D02*
X126596622Y-46631378D01*
X128752600Y-64591150D02*
X128472675Y-64871075D01*
X126596622Y-46631378D02*
X128524000Y-44704000D01*
X127432325Y-64871075D02*
X127406400Y-64897000D01*
X127078367Y-64568967D02*
X127078367Y-64561018D01*
X127078367Y-64561018D02*
X126596622Y-64079273D01*
X128727200Y-64565750D02*
X128752600Y-64591150D01*
X128472675Y-64871075D02*
X127432325Y-64871075D01*
X129717800Y-62306200D02*
X129768600Y-62357000D01*
X129717800Y-62077600D02*
X129717800Y-62306200D01*
X129768600Y-62357000D02*
X129768600Y-62920508D01*
X128524000Y-47244000D02*
X128524000Y-60883800D01*
X128524000Y-60883800D02*
X129717800Y-62077600D01*
X125896611Y-44821387D02*
X125896611Y-65877683D01*
X129763999Y-43403999D02*
X127313999Y-43403999D01*
X128362645Y-67183000D02*
X129057400Y-67183000D01*
X127313999Y-43403999D02*
X125896611Y-44821387D01*
X125896611Y-65877683D02*
X127201928Y-67183000D01*
X127201928Y-67183000D02*
X128362645Y-67183000D01*
X131064000Y-44704000D02*
X129763999Y-43403999D01*
X131241800Y-64008000D02*
X131241800Y-64998600D01*
X131241800Y-64998600D02*
X129057400Y-67183000D01*
X131573630Y-59945630D02*
X132257800Y-60629800D01*
X130214001Y-58540434D02*
X131573630Y-59900064D01*
X130214001Y-48093999D02*
X130214001Y-58540434D01*
X131064000Y-47244000D02*
X130214001Y-48093999D01*
X131573630Y-59900064D02*
X131573630Y-59945630D01*
X132308600Y-60904494D02*
X132308600Y-62915800D01*
D14*
X132257800Y-60853694D02*
X132308600Y-60904494D01*
D13*
X132257800Y-60629800D02*
X132257800Y-60853694D01*
X131603988Y-42703988D02*
X127024045Y-42703988D01*
X125196600Y-44531433D02*
X125196600Y-66167636D01*
X133807200Y-64973200D02*
X134010400Y-65176400D01*
X133807200Y-63982600D02*
X133807200Y-64973200D01*
X126923164Y-67894200D02*
X132891018Y-67894200D01*
X132891018Y-67894200D02*
X133891694Y-66539706D01*
X125196600Y-66167636D02*
X126923164Y-67894200D01*
X134063676Y-66367723D02*
X134010400Y-65699178D01*
X133891694Y-66539706D02*
X134063676Y-66367723D01*
X134010400Y-65176400D02*
X133858000Y-65024000D01*
X133604000Y-44704000D02*
X131603988Y-42703988D01*
X127024045Y-42703988D02*
X125196600Y-44531433D01*
X134010400Y-65699178D02*
X134010400Y-65176400D01*
X133604000Y-58953400D02*
X133604000Y-47244000D01*
X133604000Y-60644952D02*
X133604000Y-58953400D01*
X134874000Y-62865000D02*
X134874000Y-61914952D01*
X134874000Y-61914952D02*
X133604000Y-60644952D01*
X133443978Y-42003978D02*
X136144000Y-44704000D01*
X124434600Y-66395600D02*
X124434600Y-44297600D01*
X124434600Y-44297600D02*
X126728222Y-42003978D01*
X133883400Y-68605400D02*
X126644400Y-68605400D01*
X136347200Y-63957200D02*
X136347200Y-66141600D01*
X126728222Y-42003978D02*
X133443978Y-42003978D01*
X136347200Y-66141600D02*
X133883400Y-68605400D01*
X126644400Y-68605400D02*
X124434600Y-66395600D01*
X137414000Y-62849645D02*
X137414000Y-61112400D01*
X136144000Y-59842400D02*
X136144000Y-47244000D01*
X137414000Y-61112400D02*
X136144000Y-59842400D01*
X151841200Y-66076278D02*
X149436057Y-68481420D01*
X141430220Y-68481420D02*
X139115800Y-66167000D01*
X139115800Y-65176400D02*
X138887200Y-64947800D01*
X147599400Y-41884600D02*
X151841200Y-46126400D01*
X138684000Y-44704000D02*
X141503400Y-41884600D01*
X149436057Y-68481420D02*
X141430220Y-68481420D01*
X151841200Y-46126400D02*
X151841200Y-66076278D01*
X141503400Y-41884600D02*
X147599400Y-41884600D01*
X138887200Y-64947800D02*
X138887200Y-63957200D01*
X139115800Y-66167000D02*
X139115800Y-65176400D01*
X139827000Y-61789786D02*
X139552236Y-61447236D01*
X139552236Y-61447236D02*
X138684000Y-60579000D01*
X138684000Y-60579000D02*
X138684000Y-58648600D01*
X138684000Y-58648600D02*
X138684000Y-47244000D01*
X139954000Y-62942679D02*
X139954000Y-61925200D01*
X139928600Y-61891386D02*
X139827000Y-61789786D01*
X142669030Y-67157600D02*
X141503400Y-65991970D01*
X141427200Y-65915770D02*
X141503400Y-65991970D01*
X147167600Y-42595800D02*
X151104600Y-46532800D01*
X143292840Y-67781410D02*
X142669030Y-67157600D01*
X149146104Y-67781410D02*
X143292840Y-67781410D01*
X141427200Y-63982600D02*
X141427200Y-65915770D01*
X141224000Y-44704000D02*
X143332200Y-42595800D01*
X151104600Y-46532800D02*
X151104599Y-65822915D01*
X151104599Y-65822915D02*
X149146104Y-67781410D01*
X143332200Y-42595800D02*
X147167600Y-42595800D01*
X141503400Y-65991970D02*
X141480770Y-65991970D01*
X141480770Y-65991970D02*
X141452600Y-65963800D01*
X142494000Y-62865000D02*
X142494000Y-60096400D01*
X141224000Y-58826400D02*
X141224000Y-47244000D01*
X142494000Y-60096400D02*
X141224000Y-58826400D01*
X143891000Y-65074800D02*
X143941800Y-65024000D01*
X150404589Y-65532962D02*
X148856151Y-67081400D01*
X150404589Y-46924989D02*
X150404589Y-65532962D01*
X149225000Y-45745400D02*
X150404589Y-46924989D01*
X149225000Y-45700998D02*
X149225000Y-45745400D01*
X146819813Y-43295811D02*
X149225000Y-45700998D01*
X145172189Y-43295811D02*
X146819813Y-43295811D01*
X148856151Y-67081400D02*
X145897600Y-67081400D01*
X143764000Y-44704000D02*
X145172189Y-43295811D01*
X143941800Y-65024000D02*
X143941800Y-64008000D01*
X145897600Y-67081400D02*
X143891000Y-65074800D01*
D14*
X144932400Y-62230000D02*
X144932400Y-62747989D01*
D13*
X144932400Y-62230000D02*
X144932400Y-61925200D01*
X142611025Y-48396975D02*
X142611025Y-55158825D01*
X143764000Y-47244000D02*
X142611025Y-48396975D01*
X142611025Y-55158825D02*
X142918032Y-55465832D01*
X142918032Y-55465832D02*
X142943432Y-55465832D01*
X142943432Y-55465832D02*
X144348200Y-56870600D01*
X144348200Y-56870600D02*
X144348200Y-61341000D01*
X144348200Y-61341000D02*
X144932400Y-61925200D01*
X145008600Y-62188706D02*
X145008600Y-62941200D01*
X147172389Y-64897000D02*
X146608800Y-64897000D01*
X146532600Y-64820800D02*
X146608800Y-64897000D01*
X146532600Y-63957200D02*
X146532600Y-64820800D01*
X148617308Y-64897000D02*
X147172389Y-64897000D01*
X149704578Y-63809730D02*
X148617308Y-64897000D01*
X149704578Y-48104578D02*
X149704578Y-63809730D01*
X146304000Y-44704000D02*
X149704578Y-48104578D01*
X146304000Y-59080400D02*
X146304000Y-47244000D01*
X147574000Y-60350400D02*
X146304000Y-59080400D01*
X147574000Y-62890400D02*
X147574000Y-60350400D01*
M02*
