M48
; DRILL file {KiCad (5.1.12)-1} date 03/29/22 21:49:22
; FORMAT={3:3/ absolute / metric / suppress leading zeros}
; #@! TF.CreationDate,2022-03-29T21:49:22+08:00
; #@! TF.GenerationSoftware,Kicad,Pcbnew,(5.1.12)-1
FMAT,2
METRIC,TZ
T1C1.000
T2C0.800
T3C1.000
T4C1.270
T5C2.200
%
G90
G05
T1
X128524Y-44704
X128524Y-47244
X131064Y-44704
X131064Y-47244
X133604Y-44704
X133604Y-47244
X136144Y-44704
X136144Y-47244
X138684Y-44704
X138684Y-47244
X141224Y-44704
X141224Y-47244
X143764Y-44704
X143764Y-47244
X146304Y-44704
X146304Y-47244
T2
X127965Y-63449
X130518Y-63449
T3
X133058Y-63449
X135611Y-63449
X138163Y-63449
X140691Y-63449
X143218Y-63449
X145758Y-63449
X148387Y-63449
T4
X127838Y-65989
X130378Y-60909
X132918Y-65989
X135458Y-60909
X137998Y-65989
X140538Y-60909
X143078Y-65989
X145631Y-60909
X148158Y-65964
T5
X121437Y-57950
X121437Y-68948
X121742Y-44425
X131826Y-72149
X131839Y-54750
X144437Y-54750
X144437Y-72149
X154432Y-44374
X154826Y-68948
X154838Y-57950
T0
M30
