G04 #@! TF.GenerationSoftware,KiCad,Pcbnew,(5.1.12)-1*
G04 #@! TF.CreationDate,2022-03-29T12:16:14+08:00*
G04 #@! TF.ProjectId,Nozzle,4e6f7a7a-6c65-42e6-9b69-6361645f7063,Gen3.1a*
G04 #@! TF.SameCoordinates,Original*
G04 #@! TF.FileFunction,Soldermask,Top*
G04 #@! TF.FilePolarity,Negative*
%FSLAX46Y46*%
G04 Gerber Fmt 4.6, Leading zero omitted, Abs format (unit mm)*
G04 Created by KiCad (PCBNEW (5.1.12)-1) date 2022-03-29 12:16:14*
%MOMM*%
%LPD*%
G01*
G04 APERTURE LIST*
%ADD10C,1.000000*%
%ADD11C,0.800000*%
%ADD12C,2.200000*%
%ADD13O,1.700000X1.700000*%
%ADD14R,1.700000X1.700000*%
%ADD15C,1.270000*%
G04 APERTURE END LIST*
D10*
X133057900Y-63449200D03*
X148386800Y-63449200D03*
X145757900Y-63449200D03*
X138163300Y-63449200D03*
D11*
X130517900Y-63449200D03*
D10*
X135610600Y-63449200D03*
X143217900Y-63449200D03*
D11*
X127965200Y-63449200D03*
D10*
X140690600Y-63449200D03*
D12*
X121742200Y-44424600D03*
X154432000Y-44373800D03*
D13*
X146304000Y-47244000D03*
X146304000Y-44704000D03*
X143764000Y-47244000D03*
X143764000Y-44704000D03*
X141224000Y-47244000D03*
X141224000Y-44704000D03*
X138684000Y-47244000D03*
X138684000Y-44704000D03*
X136144000Y-47244000D03*
X136144000Y-44704000D03*
X133604000Y-47244000D03*
X133604000Y-44704000D03*
X131064000Y-47244000D03*
X131064000Y-44704000D03*
X128524000Y-47244000D03*
D14*
X128524000Y-44704000D03*
D15*
X127838200Y-65989200D03*
D12*
X121437400Y-57950100D03*
X131826000Y-72148700D03*
X121437400Y-68948300D03*
X154825700Y-68948300D03*
X154838400Y-57950100D03*
X131838700Y-54749700D03*
X144437100Y-72148700D03*
X144437100Y-54749700D03*
D15*
X140538200Y-60909200D03*
X130378200Y-60909200D03*
X132918200Y-65989200D03*
X137998200Y-65989200D03*
X143078200Y-65989200D03*
X148158200Y-65963800D03*
X145630900Y-60909200D03*
X135458200Y-60909200D03*
M02*
