G04 #@! TF.GenerationSoftware,KiCad,Pcbnew,(5.1.12)-1*
G04 #@! TF.CreationDate,2022-03-26T22:13:32+08:00*
G04 #@! TF.ProjectId,Nozzle,4e6f7a7a-6c65-42e6-9b69-6361645f7063,0.5*
G04 #@! TF.SameCoordinates,Original*
G04 #@! TF.FileFunction,Legend,Bot*
G04 #@! TF.FilePolarity,Positive*
%FSLAX46Y46*%
G04 Gerber Fmt 4.6, Leading zero omitted, Abs format (unit mm)*
G04 Created by KiCad (PCBNEW (5.1.12)-1) date 2022-03-26 22:13:32*
%MOMM*%
%LPD*%
G01*
G04 APERTURE LIST*
%ADD10C,0.300000*%
%ADD11C,0.120000*%
G04 APERTURE END LIST*
D10*
X142997428Y-50283371D02*
X142711714Y-50283371D01*
X142568857Y-50354800D01*
X142426000Y-50497657D01*
X142354571Y-50783371D01*
X142354571Y-51283371D01*
X142426000Y-51569085D01*
X142568857Y-51711942D01*
X142711714Y-51783371D01*
X142997428Y-51783371D01*
X143140285Y-51711942D01*
X143283142Y-51569085D01*
X143354571Y-51283371D01*
X143354571Y-50783371D01*
X143283142Y-50497657D01*
X143140285Y-50354800D01*
X142997428Y-50283371D01*
X141711714Y-51783371D02*
X141711714Y-50283371D01*
X141140285Y-50283371D01*
X140997428Y-50354800D01*
X140926000Y-50426228D01*
X140854571Y-50569085D01*
X140854571Y-50783371D01*
X140926000Y-50926228D01*
X140997428Y-50997657D01*
X141140285Y-51069085D01*
X141711714Y-51069085D01*
X139783142Y-50283371D02*
X139783142Y-51354800D01*
X139854571Y-51569085D01*
X139997428Y-51711942D01*
X140211714Y-51783371D01*
X140354571Y-51783371D01*
X139068857Y-51640514D02*
X138997428Y-51711942D01*
X139068857Y-51783371D01*
X139140285Y-51711942D01*
X139068857Y-51640514D01*
X139068857Y-51783371D01*
X139068857Y-50854800D02*
X138997428Y-50926228D01*
X139068857Y-50997657D01*
X139140285Y-50926228D01*
X139068857Y-50854800D01*
X139068857Y-50997657D01*
X137426000Y-50283371D02*
X136926000Y-51783371D01*
X136426000Y-50283371D01*
X136068857Y-50283371D02*
X135140285Y-50283371D01*
X135640285Y-50854800D01*
X135426000Y-50854800D01*
X135283142Y-50926228D01*
X135211714Y-50997657D01*
X135140285Y-51140514D01*
X135140285Y-51497657D01*
X135211714Y-51640514D01*
X135283142Y-51711942D01*
X135426000Y-51783371D01*
X135854571Y-51783371D01*
X135997428Y-51711942D01*
X136068857Y-51640514D01*
X134497428Y-51640514D02*
X134426000Y-51711942D01*
X134497428Y-51783371D01*
X134568857Y-51711942D01*
X134497428Y-51640514D01*
X134497428Y-51783371D01*
X132997428Y-51783371D02*
X133854571Y-51783371D01*
X133426000Y-51783371D02*
X133426000Y-50283371D01*
X133568857Y-50497657D01*
X133711714Y-50640514D01*
X133854571Y-50711942D01*
D11*
X126796800Y-63449200D02*
X123799600Y-63449200D01*
X149479000Y-63449200D02*
X152476200Y-63449200D01*
M02*
