%MOIN*%
%OFA0B0*%
%FSLAX46Y46*%
%IPPOS*%
%LPD*%
%ADD10C,0.011811023622047244*%
%ADD11C,0.0047244094488188976*%
%ADD22C,0.0047244094488188976*%
%ADD23C,0.0047244094488188976*%
G01*
D10*
X0003110134Y0003177820D02*
X0003098886Y0003177820D01*
X0003093262Y0003175007D01*
X0003087637Y0003169383D01*
X0003084825Y0003158135D01*
X0003084825Y0003138449D01*
X0003087637Y0003127201D01*
X0003093262Y0003121577D01*
X0003098886Y0003118764D01*
X0003110134Y0003118764D01*
X0003115759Y0003121577D01*
X0003121383Y0003127201D01*
X0003124195Y0003138449D01*
X0003124195Y0003158135D01*
X0003121383Y0003169383D01*
X0003115759Y0003175007D01*
X0003110134Y0003177820D01*
X0003059516Y0003118764D02*
X0003059516Y0003177820D01*
X0003037019Y0003177820D01*
X0003031394Y0003175007D01*
X0003028582Y0003172195D01*
X0003025770Y0003166571D01*
X0003025770Y0003158135D01*
X0003028582Y0003152510D01*
X0003031394Y0003149698D01*
X0003037019Y0003146886D01*
X0003059516Y0003146886D01*
X0002983588Y0003177820D02*
X0002983588Y0003135637D01*
X0002986400Y0003127201D01*
X0002992024Y0003121577D01*
X0003000461Y0003118764D01*
X0003006085Y0003118764D01*
X0002955466Y0003124389D02*
X0002952654Y0003121577D01*
X0002955466Y0003118764D01*
X0002958278Y0003121577D01*
X0002955466Y0003124389D01*
X0002955466Y0003118764D01*
X0002955466Y0003155322D02*
X0002952654Y0003152510D01*
X0002955466Y0003149698D01*
X0002958278Y0003152510D01*
X0002955466Y0003155322D01*
X0002955466Y0003149698D01*
X0002890787Y0003177820D02*
X0002871102Y0003118764D01*
X0002851417Y0003177820D01*
X0002837356Y0003177820D02*
X0002800798Y0003177820D01*
X0002820483Y0003155322D01*
X0002812047Y0003155322D01*
X0002806422Y0003152510D01*
X0002803610Y0003149698D01*
X0002800798Y0003144074D01*
X0002800798Y0003130013D01*
X0002803610Y0003124389D01*
X0002806422Y0003121577D01*
X0002812047Y0003118764D01*
X0002828920Y0003118764D01*
X0002834544Y0003121577D01*
X0002837356Y0003124389D01*
X0002775489Y0003124389D02*
X0002772677Y0003121577D01*
X0002775489Y0003118764D01*
X0002778301Y0003121577D01*
X0002775489Y0003124389D01*
X0002775489Y0003118764D01*
X0002716434Y0003118764D02*
X0002750179Y0003118764D01*
X0002733307Y0003118764D02*
X0002733307Y0003177820D01*
X0002738931Y0003169383D01*
X0002744555Y0003163759D01*
X0002750179Y0003160947D01*
D11*
X0002472314Y0002659480D02*
X0002354314Y0002659480D01*
X0003365314Y0002659480D02*
X0003483314Y0002659480D01*
G04 next file*
G04 #@! TF.GenerationSoftware,KiCad,Pcbnew,(5.1.12)-1*
G04 #@! TF.CreationDate,2022-03-26T22:12:51+08:00*
G04 #@! TF.ProjectId,Nozzle,4e6f7a7a-6c65-42e6-9b69-6361645f7063,0.5*
G04 #@! TF.SameCoordinates,Original*
G04 #@! TF.FileFunction,Legend,Bot*
G04 #@! TF.FilePolarity,Positive*
G04 Gerber Fmt 4.6, Leading zero omitted, Abs format (unit mm)*
G04 Created by KiCad (PCBNEW (5.1.12)-1) date 2022-03-26 22:12:51*
G01*
G04 APERTURE LIST*
G04 APERTURE END LIST*
G04 next file*
G04 #@! TF.GenerationSoftware,KiCad,Pcbnew,(5.1.12)-1*
G04 #@! TF.CreationDate,2022-03-26T22:12:51+08:00*
G04 #@! TF.ProjectId,Nozzle,4e6f7a7a-6c65-42e6-9b69-6361645f7063,0.5*
G04 #@! TF.SameCoordinates,Original*
G04 #@! TF.FileFunction,Legend,Bot*
G04 #@! TF.FilePolarity,Positive*
G04 Gerber Fmt 4.6, Leading zero omitted, Abs format (unit mm)*
G04 Created by KiCad (PCBNEW (5.1.12)-1) date 2022-03-26 22:12:51*
G01*
G04 APERTURE LIST*
G04 APERTURE END LIST*
G04 next file*
G04 #@! TF.GenerationSoftware,KiCad,Pcbnew,(5.1.12)-1*
G04 #@! TF.CreationDate,2022-03-26T22:12:51+08:00*
G04 #@! TF.ProjectId,Nozzle,4e6f7a7a-6c65-42e6-9b69-6361645f7063,0.5*
G04 #@! TF.SameCoordinates,Original*
G04 #@! TF.FileFunction,Legend,Bot*
G04 #@! TF.FilePolarity,Positive*
G04 Gerber Fmt 4.6, Leading zero omitted, Abs format (unit mm)*
G04 Created by KiCad (PCBNEW (5.1.12)-1) date 2022-03-26 22:12:51*
G01*
G04 APERTURE LIST*
G04 APERTURE END LIST*
G04 next file*
G04 #@! TF.GenerationSoftware,KiCad,Pcbnew,(5.1.12)-1*
G04 #@! TF.CreationDate,2022-03-26T22:19:29+08:00*
G04 #@! TF.ProjectId,Nozzle,4e6f7a7a-6c65-42e6-9b69-6361645f7063,0.5*
G04 #@! TF.SameCoordinates,Original*
G04 #@! TF.FileFunction,Legend,Bot*
G04 #@! TF.FilePolarity,Positive*
G04 Gerber Fmt 4.6, Leading zero omitted, Abs format (unit mm)*
G04 Created by KiCad (PCBNEW (5.1.12)-1) date 2022-03-26 22:19:29*
G01*
G04 APERTURE LIST*
G04 APERTURE END LIST*
D22*
X0000599837Y0003417066D02*
X0000598524Y0003415754D01*
X0000599837Y0003414442D01*
X0000601149Y0003415754D01*
X0000599837Y0003417066D01*
X0000599837Y0003414442D01*
X0000588026Y0003439376D02*
X0000586713Y0003440688D01*
X0000584089Y0003442001D01*
X0000577527Y0003442001D01*
X0000574902Y0003440688D01*
X0000573590Y0003439376D01*
X0000572278Y0003436751D01*
X0000572278Y0003434127D01*
X0000573590Y0003430190D01*
X0000589338Y0003414442D01*
X0000572278Y0003414442D01*
X0000547343Y0003442001D02*
X0000560467Y0003442001D01*
X0000561779Y0003428877D01*
X0000560467Y0003430190D01*
X0000557842Y0003431502D01*
X0000551280Y0003431502D01*
X0000548656Y0003430190D01*
X0000547343Y0003428877D01*
X0000546031Y0003426253D01*
X0000546031Y0003419691D01*
X0000547343Y0003417066D01*
X0000548656Y0003415754D01*
X0000551280Y0003414442D01*
X0000557842Y0003414442D01*
X0000560467Y0003415754D01*
X0000561779Y0003417066D01*
X0000726713Y0003413566D02*
X0000725401Y0003412254D01*
X0000726713Y0003410942D01*
X0000728026Y0003412254D01*
X0000726713Y0003413566D01*
X0000726713Y0003410942D01*
X0000716215Y0003438501D02*
X0000699154Y0003438501D01*
X0000708341Y0003428002D01*
X0000704404Y0003428002D01*
X0000701779Y0003426690D01*
X0000700467Y0003425377D01*
X0000699154Y0003422753D01*
X0000699154Y0003416191D01*
X0000700467Y0003413566D01*
X0000701779Y0003412254D01*
X0000704404Y0003410942D01*
X0000712278Y0003410942D01*
X0000714902Y0003412254D01*
X0000716215Y0003413566D01*
X0000787213Y0003413566D02*
X0000785901Y0003412254D01*
X0000787213Y0003410942D01*
X0000788526Y0003412254D01*
X0000787213Y0003413566D01*
X0000787213Y0003410942D01*
X0000762279Y0003429314D02*
X0000762279Y0003410942D01*
X0000768841Y0003439813D02*
X0000775402Y0003420128D01*
X0000758342Y0003420128D01*
X0000924713Y0003418066D02*
X0000923401Y0003416754D01*
X0000924713Y0003415442D01*
X0000926026Y0003416754D01*
X0000924713Y0003418066D01*
X0000924713Y0003415442D01*
X0000898467Y0003443001D02*
X0000911590Y0003443001D01*
X0000912902Y0003429877D01*
X0000911590Y0003431190D01*
X0000908965Y0003432502D01*
X0000902404Y0003432502D01*
X0000899779Y0003431190D01*
X0000898467Y0003429877D01*
X0000897154Y0003427253D01*
X0000897154Y0003420691D01*
X0000898467Y0003418066D01*
X0000899779Y0003416754D01*
X0000902404Y0003415442D01*
X0000908965Y0003415442D01*
X0000911590Y0003416754D01*
X0000912902Y0003418066D01*
X0001089460Y0003328066D02*
X0001088148Y0003326754D01*
X0001089460Y0003325442D01*
X0001090772Y0003326754D01*
X0001089460Y0003328066D01*
X0001089460Y0003325442D01*
X0001064526Y0003353001D02*
X0001069775Y0003353001D01*
X0001072400Y0003351688D01*
X0001073712Y0003350376D01*
X0001076337Y0003346439D01*
X0001077649Y0003341190D01*
X0001077649Y0003330691D01*
X0001076337Y0003328066D01*
X0001075024Y0003326754D01*
X0001072400Y0003325442D01*
X0001067150Y0003325442D01*
X0001064526Y0003326754D01*
X0001063213Y0003328066D01*
X0001061901Y0003330691D01*
X0001061901Y0003337253D01*
X0001063213Y0003339877D01*
X0001064526Y0003341190D01*
X0001067150Y0003342502D01*
X0001072400Y0003342502D01*
X0001075024Y0003341190D01*
X0001076337Y0003339877D01*
X0001077649Y0003337253D01*
X0001052715Y0003353001D02*
X0001035654Y0003353001D01*
X0001044841Y0003342502D01*
X0001040904Y0003342502D01*
X0001038279Y0003341190D01*
X0001036967Y0003339877D01*
X0001035654Y0003337253D01*
X0001035654Y0003330691D01*
X0001036967Y0003328066D01*
X0001038279Y0003326754D01*
X0001040904Y0003325442D01*
X0001048778Y0003325442D01*
X0001051402Y0003326754D01*
X0001052715Y0003328066D01*
X0001010720Y0003353001D02*
X0001023843Y0003353001D01*
X0001025156Y0003339877D01*
X0001023843Y0003341190D01*
X0001021219Y0003342502D01*
X0001014657Y0003342502D01*
X0001012032Y0003341190D01*
X0001010720Y0003339877D01*
X0001009408Y0003337253D01*
X0001009408Y0003330691D01*
X0001010720Y0003328066D01*
X0001012032Y0003326754D01*
X0001014657Y0003325442D01*
X0001021219Y0003325442D01*
X0001023843Y0003326754D01*
X0001025156Y0003328066D01*
X0000486960Y0003324566D02*
X0000485648Y0003323254D01*
X0000486960Y0003321942D01*
X0000488272Y0003323254D01*
X0000486960Y0003324566D01*
X0000486960Y0003321942D01*
X0000462026Y0003349501D02*
X0000467275Y0003349501D01*
X0000469900Y0003348188D01*
X0000471212Y0003346876D01*
X0000473837Y0003342939D01*
X0000475149Y0003337690D01*
X0000475149Y0003327191D01*
X0000473837Y0003324566D01*
X0000472524Y0003323254D01*
X0000469900Y0003321942D01*
X0000464650Y0003321942D01*
X0000462026Y0003323254D01*
X0000460713Y0003324566D01*
X0000459401Y0003327191D01*
X0000459401Y0003333753D01*
X0000460713Y0003336377D01*
X0000462026Y0003337690D01*
X0000464650Y0003339002D01*
X0000469900Y0003339002D01*
X0000472524Y0003337690D01*
X0000473837Y0003336377D01*
X0000475149Y0003333753D01*
X0000450215Y0003349501D02*
X0000433154Y0003349501D01*
X0000442341Y0003339002D01*
X0000438404Y0003339002D01*
X0000435779Y0003337690D01*
X0000434467Y0003336377D01*
X0000433154Y0003333753D01*
X0000433154Y0003327191D01*
X0000434467Y0003324566D01*
X0000435779Y0003323254D01*
X0000438404Y0003321942D01*
X0000446278Y0003321942D01*
X0000448902Y0003323254D01*
X0000450215Y0003324566D01*
X0000408220Y0003349501D02*
X0000421343Y0003349501D01*
X0000422656Y0003336377D01*
X0000421343Y0003337690D01*
X0000418719Y0003339002D01*
X0000412157Y0003339002D01*
X0000409532Y0003337690D01*
X0000408220Y0003336377D01*
X0000406908Y0003333753D01*
X0000406908Y0003327191D01*
X0000408220Y0003324566D01*
X0000409532Y0003323254D01*
X0000412157Y0003321942D01*
X0000418719Y0003321942D01*
X0000421343Y0003323254D01*
X0000422656Y0003324566D01*
G04 next file*
G04 #@! TF.GenerationSoftware,KiCad,Pcbnew,(5.1.12)-1*
G04 #@! TF.CreationDate,2022-03-26T22:19:29+08:00*
G04 #@! TF.ProjectId,Nozzle,4e6f7a7a-6c65-42e6-9b69-6361645f7063,0.5*
G04 #@! TF.SameCoordinates,Original*
G04 #@! TF.FileFunction,Legend,Bot*
G04 #@! TF.FilePolarity,Positive*
G04 Gerber Fmt 4.6, Leading zero omitted, Abs format (unit mm)*
G04 Created by KiCad (PCBNEW (5.1.12)-1) date 2022-03-26 22:19:29*
G01*
G04 APERTURE LIST*
G04 APERTURE END LIST*
D23*
X0001819153Y0002489600D02*
X0001820465Y0002488288D01*
X0001821778Y0002489600D01*
X0001820465Y0002490913D01*
X0001819153Y0002489600D01*
X0001821778Y0002489600D01*
X0001796843Y0002477790D02*
X0001795531Y0002476477D01*
X0001794219Y0002473852D01*
X0001794219Y0002467291D01*
X0001795531Y0002464666D01*
X0001796843Y0002463354D01*
X0001799468Y0002462041D01*
X0001802093Y0002462041D01*
X0001806030Y0002463354D01*
X0001821778Y0002479102D01*
X0001821778Y0002462041D01*
X0001794219Y0002437107D02*
X0001794219Y0002450230D01*
X0001807342Y0002451543D01*
X0001806030Y0002450230D01*
X0001804717Y0002447606D01*
X0001804717Y0002441044D01*
X0001806030Y0002438419D01*
X0001807342Y0002437107D01*
X0001809967Y0002435795D01*
X0001816528Y0002435795D01*
X0001819153Y0002437107D01*
X0001820465Y0002438419D01*
X0001821778Y0002441044D01*
X0001821778Y0002447606D01*
X0001820465Y0002450230D01*
X0001819153Y0002451543D01*
X0001822653Y0002616477D02*
X0001823965Y0002615165D01*
X0001825278Y0002616477D01*
X0001823965Y0002617789D01*
X0001822653Y0002616477D01*
X0001825278Y0002616477D01*
X0001797719Y0002605978D02*
X0001797719Y0002588918D01*
X0001808217Y0002598104D01*
X0001808217Y0002594167D01*
X0001809530Y0002591543D01*
X0001810842Y0002590230D01*
X0001813467Y0002588918D01*
X0001820028Y0002588918D01*
X0001822653Y0002590230D01*
X0001823965Y0002591543D01*
X0001825278Y0002594167D01*
X0001825278Y0002602041D01*
X0001823965Y0002604666D01*
X0001822653Y0002605978D01*
X0001822653Y0002676977D02*
X0001823965Y0002675665D01*
X0001825278Y0002676977D01*
X0001823965Y0002678290D01*
X0001822653Y0002676977D01*
X0001825278Y0002676977D01*
X0001806905Y0002652043D02*
X0001825278Y0002652043D01*
X0001796406Y0002658604D02*
X0001816091Y0002665166D01*
X0001816091Y0002648106D01*
X0001818153Y0002814477D02*
X0001819465Y0002813165D01*
X0001820778Y0002814477D01*
X0001819465Y0002815789D01*
X0001818153Y0002814477D01*
X0001820778Y0002814477D01*
X0001793219Y0002788230D02*
X0001793219Y0002801354D01*
X0001806342Y0002802666D01*
X0001805030Y0002801354D01*
X0001803717Y0002798729D01*
X0001803717Y0002792167D01*
X0001805030Y0002789543D01*
X0001806342Y0002788230D01*
X0001808967Y0002786918D01*
X0001815528Y0002786918D01*
X0001818153Y0002788230D01*
X0001819465Y0002789543D01*
X0001820778Y0002792167D01*
X0001820778Y0002798729D01*
X0001819465Y0002801354D01*
X0001818153Y0002802666D01*
X0001908153Y0002979224D02*
X0001909465Y0002977912D01*
X0001910778Y0002979224D01*
X0001909465Y0002980536D01*
X0001908153Y0002979224D01*
X0001910778Y0002979224D01*
X0001883219Y0002954289D02*
X0001883219Y0002959539D01*
X0001884531Y0002962164D01*
X0001885843Y0002963476D01*
X0001889780Y0002966101D01*
X0001895030Y0002967413D01*
X0001905528Y0002967413D01*
X0001908153Y0002966101D01*
X0001909465Y0002964788D01*
X0001910778Y0002962164D01*
X0001910778Y0002956914D01*
X0001909465Y0002954289D01*
X0001908153Y0002952977D01*
X0001905528Y0002951665D01*
X0001898967Y0002951665D01*
X0001896342Y0002952977D01*
X0001895030Y0002954289D01*
X0001893717Y0002956914D01*
X0001893717Y0002962164D01*
X0001895030Y0002964788D01*
X0001896342Y0002966101D01*
X0001898967Y0002967413D01*
X0001883219Y0002942478D02*
X0001883219Y0002925418D01*
X0001893717Y0002934604D01*
X0001893717Y0002930667D01*
X0001895030Y0002928043D01*
X0001896342Y0002926730D01*
X0001898967Y0002925418D01*
X0001905528Y0002925418D01*
X0001908153Y0002926730D01*
X0001909465Y0002928043D01*
X0001910778Y0002930667D01*
X0001910778Y0002938541D01*
X0001909465Y0002941166D01*
X0001908153Y0002942478D01*
X0001883219Y0002900484D02*
X0001883219Y0002913607D01*
X0001896342Y0002914919D01*
X0001895030Y0002913607D01*
X0001893717Y0002910982D01*
X0001893717Y0002904421D01*
X0001895030Y0002901796D01*
X0001896342Y0002900484D01*
X0001898967Y0002899171D01*
X0001905528Y0002899171D01*
X0001908153Y0002900484D01*
X0001909465Y0002901796D01*
X0001910778Y0002904421D01*
X0001910778Y0002910982D01*
X0001909465Y0002913607D01*
X0001908153Y0002914919D01*
X0001911653Y0002376724D02*
X0001912965Y0002375412D01*
X0001914278Y0002376724D01*
X0001912965Y0002378036D01*
X0001911653Y0002376724D01*
X0001914278Y0002376724D01*
X0001886719Y0002351790D02*
X0001886719Y0002357039D01*
X0001888031Y0002359663D01*
X0001889343Y0002360976D01*
X0001893280Y0002363601D01*
X0001898530Y0002364913D01*
X0001909028Y0002364913D01*
X0001911653Y0002363601D01*
X0001912965Y0002362288D01*
X0001914278Y0002359663D01*
X0001914278Y0002354414D01*
X0001912965Y0002351790D01*
X0001911653Y0002350477D01*
X0001909028Y0002349165D01*
X0001902467Y0002349165D01*
X0001899842Y0002350477D01*
X0001898530Y0002351790D01*
X0001897217Y0002354414D01*
X0001897217Y0002359663D01*
X0001898530Y0002362288D01*
X0001899842Y0002363601D01*
X0001902467Y0002364913D01*
X0001886719Y0002339978D02*
X0001886719Y0002322918D01*
X0001897217Y0002332104D01*
X0001897217Y0002328167D01*
X0001898530Y0002325543D01*
X0001899842Y0002324230D01*
X0001902467Y0002322918D01*
X0001909028Y0002322918D01*
X0001911653Y0002324230D01*
X0001912965Y0002325543D01*
X0001914278Y0002328167D01*
X0001914278Y0002336041D01*
X0001912965Y0002338666D01*
X0001911653Y0002339978D01*
X0001886719Y0002297984D02*
X0001886719Y0002311107D01*
X0001899842Y0002312419D01*
X0001898530Y0002311107D01*
X0001897217Y0002308482D01*
X0001897217Y0002301921D01*
X0001898530Y0002299296D01*
X0001899842Y0002297984D01*
X0001902467Y0002296671D01*
X0001909028Y0002296671D01*
X0001911653Y0002297984D01*
X0001912965Y0002299296D01*
X0001914278Y0002301921D01*
X0001914278Y0002308482D01*
X0001912965Y0002311107D01*
X0001911653Y0002312419D01*
G04 next file*
G04 #@! TF.GenerationSoftware,KiCad,Pcbnew,(5.1.12)-1*
G04 #@! TF.CreationDate,2022-03-26T22:23:47+08:00*
G04 #@! TF.ProjectId,Nozzle,4e6f7a7a-6c65-42e6-9b69-6361645f7063,0.5*
G04 #@! TF.SameCoordinates,Original*
G04 #@! TF.FileFunction,Legend,Bot*
G04 #@! TF.FilePolarity,Positive*
G04 Gerber Fmt 4.6, Leading zero omitted, Abs format (unit mm)*
G04 Created by KiCad (PCBNEW (5.1.12)-1) date 2022-03-26 22:23:47*
G01*
G04 APERTURE LIST*
G04 APERTURE END LIST*
G04 next file*
G04 #@! TF.GenerationSoftware,KiCad,Pcbnew,(5.1.12)-1*
G04 #@! TF.CreationDate,2022-03-26T22:12:19+08:00*
G04 #@! TF.ProjectId,Nozzle,4e6f7a7a-6c65-42e6-9b69-6361645f7063,0.5*
G04 #@! TF.SameCoordinates,Original*
G04 #@! TF.FileFunction,Legend,Bot*
G04 #@! TF.FilePolarity,Positive*
G04 Gerber Fmt 4.6, Leading zero omitted, Abs format (unit mm)*
G04 Created by KiCad (PCBNEW (5.1.12)-1) date 2022-03-26 22:12:19*
G01*
G04 APERTURE LIST*
G04 APERTURE END LIST*
M02*