%MOIN*%
%OFA0B0*%
%FSLAX46Y46*%
%IPPOS*%
%LPD*%
%ADD10O,0.066929133858267723X0.066929133858267723*%
%ADD11R,0.066929133858267723X0.066929133858267723*%
%ADD12R,0.015748031496062995X0.059055118110236227*%
%ADD13C,0.01968503937007874*%
%ADD14C,0.015748031496062995*%
%ADD25C,0.01*%
%ADD26C,0.0039370078740157488*%
%ADD27C,0.01*%
%ADD28C,0.0039370078740157488*%
%ADD29C,0.01*%
%ADD30C,0.0039370078740157488*%
%ADD31C,0.033464566929133861*%
%ADD32C,0.01*%
%ADD33C,0.0039370078740157488*%
%ADD34C,0.033464566929133861*%
%ADD35C,0.01*%
%ADD36C,0.0039370078740157488*%
%ADD37C,0.01*%
%ADD38C,0.0039370078740157488*%
%ADD39C,0.23622047244094491*%
%ADD40C,0.01*%
%ADD41C,0.0039370078740157488*%
G01*
D10*
X-0002519685Y0005157480D02*
X0003240314Y0003297480D03*
X0003240314Y0003397480D03*
X0003140314Y0003297480D03*
X0003140314Y0003397480D03*
X0003040314Y0003297480D03*
X0003040314Y0003397480D03*
X0002940314Y0003297480D03*
X0002940314Y0003397480D03*
X0002840314Y0003297480D03*
X0002840314Y0003397480D03*
X0002740314Y0003297480D03*
X0002740314Y0003397480D03*
X0002640314Y0003297480D03*
X0002640314Y0003397480D03*
X0002540314Y0003297480D03*
D11*
X0002540314Y0003397480D03*
D12*
X0002647555Y0002652106D03*
X0002690074Y0002667854D03*
X0002747555Y0002651106D03*
X0002790074Y0002666854D03*
X0002848055Y0002651606D03*
X0002890574Y0002667354D03*
X0002948555Y0002651606D03*
X0002991074Y0002667354D03*
X0002547055Y0002651606D03*
X0002589574Y0002667354D03*
X0003047555Y0002651606D03*
X0003090074Y0002667354D03*
X0003147055Y0002651606D03*
X0003189574Y0002667354D03*
X0003248555Y0002651606D03*
X0003291074Y0002667354D03*
D13*
X0002496314Y0002602480D02*
X0002483400Y0002615395D01*
X0002548314Y0002639480D02*
X0002548314Y0002615521D01*
X0002464433Y0002634674D02*
X0002464433Y0003321599D01*
X0002549314Y0002614521D02*
X0002538294Y0002603500D01*
X0002464433Y0003321599D02*
X0002540314Y0003397480D01*
X0002497335Y0002603500D02*
X0002496314Y0002602480D01*
X0002483400Y0002615395D02*
X0002483400Y0002615707D01*
X0002483400Y0002615707D02*
X0002464433Y0002634674D01*
X0002548314Y0002615521D02*
X0002549314Y0002614521D01*
X0002538294Y0002603500D02*
X0002497335Y0002603500D01*
X0002587314Y0002704480D02*
X0002589314Y0002702480D01*
X0002587314Y0002713480D02*
X0002587314Y0002704480D01*
X0002589314Y0002702480D02*
X0002589314Y0002680294D01*
X0002540314Y0003297480D02*
X0002540314Y0002760480D01*
X0002540314Y0002760480D02*
X0002587314Y0002713480D01*
X0002436874Y0003392858D02*
X0002436874Y0002563870D01*
X0002589133Y0003448661D02*
X0002492677Y0003448661D01*
X0002533962Y0002512480D02*
X0002561314Y0002512480D01*
X0002492677Y0003448661D02*
X0002436874Y0003392858D01*
X0002436874Y0002563870D02*
X0002488264Y0002512480D01*
X0002488264Y0002512480D02*
X0002533962Y0002512480D01*
X0002640314Y0003397480D02*
X0002589133Y0003448661D01*
X0002647314Y0002637480D02*
X0002647314Y0002598480D01*
X0002647314Y0002598480D02*
X0002561314Y0002512480D01*
X0002660379Y0002797416D02*
X0002687314Y0002770480D01*
X0002606850Y0002852738D02*
X0002660379Y0002799210D01*
X0002606850Y0003264015D02*
X0002606850Y0002852738D01*
X0002640314Y0003297480D02*
X0002606850Y0003264015D01*
X0002660379Y0002799210D02*
X0002660379Y0002797416D01*
X0002689314Y0002759665D02*
X0002689314Y0002680480D01*
D14*
X0002687314Y0002761665D02*
X0002689314Y0002759665D01*
D13*
X0002687314Y0002770480D02*
X0002687314Y0002761665D01*
X0002661574Y0003476220D02*
X0002481261Y0003476220D01*
X0002409314Y0003404274D02*
X0002409314Y0002552455D01*
X0002748314Y0002599480D02*
X0002756314Y0002591480D01*
X0002748314Y0002638480D02*
X0002748314Y0002599480D01*
X0002477289Y0002484480D02*
X0002712244Y0002484480D01*
X0002712244Y0002484480D02*
X0002751641Y0002537806D01*
X0002409314Y0002552455D02*
X0002477289Y0002484480D01*
X0002758412Y0002544577D02*
X0002756314Y0002570898D01*
X0002751641Y0002537806D02*
X0002758412Y0002544577D01*
X0002756314Y0002591480D02*
X0002750314Y0002597480D01*
X0002740314Y0003397480D02*
X0002661574Y0003476220D01*
X0002481261Y0003476220D02*
X0002409314Y0003404274D01*
X0002756314Y0002570898D02*
X0002756314Y0002591480D01*
X0002740314Y0002836480D02*
X0002740314Y0003297480D01*
X0002740314Y0002769883D02*
X0002740314Y0002836480D01*
X0002790314Y0002682480D02*
X0002790314Y0002719883D01*
X0002790314Y0002719883D02*
X0002740314Y0002769883D01*
X0002734014Y0003503780D02*
X0002840314Y0003397480D01*
X0002379314Y0002543480D02*
X0002379314Y0003413480D01*
X0002379314Y0003413480D02*
X0002469615Y0003503780D01*
X0002751314Y0002456480D02*
X0002466314Y0002456480D01*
X0002848314Y0002639480D02*
X0002848314Y0002553480D01*
X0002469615Y0003503780D02*
X0002734014Y0003503780D01*
X0002848314Y0002553480D02*
X0002751314Y0002456480D01*
X0002466314Y0002456480D02*
X0002379314Y0002543480D01*
X0002890314Y0002683084D02*
X0002890314Y0002751480D01*
X0002840314Y0002801480D02*
X0002840314Y0003297480D01*
X0002890314Y0002751480D02*
X0002840314Y0002801480D01*
X0003458314Y0002556052D02*
X0003363624Y0002461361D01*
X0003048433Y0002461361D02*
X0002957314Y0002552480D01*
X0002957314Y0002591480D02*
X0002948314Y0002600480D01*
X0003291314Y0003508480D02*
X0003458314Y0003341480D01*
X0002940314Y0003397480D02*
X0003051314Y0003508480D01*
X0003363624Y0002461361D02*
X0003048433Y0002461361D01*
X0003458314Y0003341480D02*
X0003458314Y0002556052D01*
X0003051314Y0003508480D02*
X0003291314Y0003508480D01*
X0002948314Y0002600480D02*
X0002948314Y0002639480D01*
X0002957314Y0002552480D02*
X0002957314Y0002591480D01*
X0002985314Y0002724811D02*
X0002974497Y0002738297D01*
X0002974497Y0002738297D02*
X0002940314Y0002772480D01*
X0002940314Y0002772480D02*
X0002940314Y0002848480D01*
X0002940314Y0002848480D02*
X0002940314Y0003297480D01*
X0002990314Y0002679422D02*
X0002990314Y0002719480D01*
X0002989314Y0002720811D02*
X0002985314Y0002724811D01*
X0003097205Y0002513480D02*
X0003051314Y0002559371D01*
X0003048314Y0002562371D02*
X0003051314Y0002559371D01*
X0003274314Y0003480480D02*
X0003429314Y0003325480D01*
X0003121765Y0002488920D02*
X0003097205Y0002513480D01*
X0003352208Y0002488920D02*
X0003121765Y0002488920D01*
X0003048314Y0002638480D02*
X0003048314Y0002562371D01*
X0003040314Y0003397480D02*
X0003123314Y0003480480D01*
X0003429314Y0003325480D02*
X0003429314Y0002566026D01*
X0003429314Y0002566026D02*
X0003352208Y0002488920D01*
X0003123314Y0003480480D02*
X0003274314Y0003480480D01*
X0003051314Y0002559371D02*
X0003050424Y0002559371D01*
X0003050424Y0002559371D02*
X0003049314Y0002560480D01*
X0003090314Y0002682480D02*
X0003090314Y0002791480D01*
X0003040314Y0002841480D02*
X0003040314Y0003297480D01*
X0003090314Y0002791480D02*
X0003040314Y0002841480D01*
X0003145314Y0002595480D02*
X0003147314Y0002597480D01*
X0003401755Y0002577442D02*
X0003340793Y0002516480D01*
X0003401755Y0003310039D02*
X0003401755Y0002577442D01*
X0003355314Y0003356480D02*
X0003401755Y0003310039D01*
X0003355314Y0003358228D02*
X0003355314Y0003356480D01*
X0003260622Y0003452920D02*
X0003355314Y0003358228D01*
X0003195755Y0003452920D02*
X0003260622Y0003452920D01*
X0003340793Y0002516480D02*
X0003224314Y0002516480D01*
X0003140314Y0003397480D02*
X0003195755Y0003452920D01*
X0003147314Y0002597480D02*
X0003147314Y0002637480D01*
X0003224314Y0002516480D02*
X0003145314Y0002595480D01*
D14*
X0003186314Y0002707480D02*
X0003186314Y0002687087D01*
D13*
X0003186314Y0002707480D02*
X0003186314Y0002719480D01*
X0003094922Y0003252087D02*
X0003094922Y0002985873D01*
X0003140314Y0003297480D02*
X0003094922Y0003252087D01*
X0003094922Y0002985873D02*
X0003107009Y0002973786D01*
X0003107009Y0002973786D02*
X0003108009Y0002973786D01*
X0003108009Y0002973786D02*
X0003163314Y0002918480D01*
X0003163314Y0002918480D02*
X0003163314Y0002742480D01*
X0003163314Y0002742480D02*
X0003186314Y0002719480D01*
X0003189314Y0002709106D02*
X0003189314Y0002679480D01*
X0003274503Y0002602480D02*
X0003252314Y0002602480D01*
X0003249314Y0002605480D02*
X0003252314Y0002602480D01*
X0003249314Y0002639480D02*
X0003249314Y0002605480D01*
X0003331390Y0002602480D02*
X0003274503Y0002602480D01*
X0003374195Y0002645286D02*
X0003331390Y0002602480D01*
X0003374195Y0003263599D02*
X0003374195Y0002645286D01*
X0003240314Y0003397480D02*
X0003374195Y0003263599D01*
X0003240314Y0002831480D02*
X0003240314Y0003297480D01*
X0003290314Y0002781480D02*
X0003240314Y0002831480D01*
X0003290314Y0002681480D02*
X0003290314Y0002781480D01*
G04 next file*
G04 #@! TF.GenerationSoftware,KiCad,Pcbnew,(5.1.12)-1*
G04 #@! TF.CreationDate,2022-03-26T22:12:51+08:00*
G04 #@! TF.ProjectId,Nozzle,4e6f7a7a-6c65-42e6-9b69-6361645f7063,0.5*
G04 #@! TF.SameCoordinates,Original*
G04 #@! TF.FileFunction,Copper,L2,Bot*
G04 #@! TF.FilePolarity,Positive*
G04 Gerber Fmt 4.6, Leading zero omitted, Abs format (unit mm)*
G04 Created by KiCad (PCBNEW (5.1.12)-1) date 2022-03-26 22:12:51*
G01*
G04 APERTURE LIST*
G04 #@! TA.AperFunction,NonConductor*
G04 #@! TD*
G04 #@! TA.AperFunction,NonConductor*
G04 #@! TD*
G04 APERTURE END LIST*
D25*
X0003525923Y0000957141D02*
X0003535756Y0000954172D01*
X0003544826Y0000949350D01*
X0003552786Y0000942858D01*
X0003559333Y0000934943D01*
X0003564219Y0000925908D01*
X0003567256Y0000916095D01*
X0003568456Y0000904682D01*
X0003568456Y0000080011D01*
X0003567329Y0000068517D01*
X0003564360Y0000058684D01*
X0003559538Y0000049614D01*
X0003553046Y0000041654D01*
X0003545131Y0000035106D01*
X0003536096Y0000030221D01*
X0003526283Y0000027183D01*
X0003514870Y0000025984D01*
X0002115475Y0000025984D01*
X0002103982Y0000027111D01*
X0002094148Y0000030080D01*
X0002085079Y0000034902D01*
X0002077119Y0000041394D01*
X0002070571Y0000049309D01*
X0002065686Y0000058344D01*
X0002062648Y0000068157D01*
X0002061448Y0000079570D01*
X0002061448Y0000282448D01*
X0002086672Y0000282448D01*
X0002086672Y0000268992D01*
X0002089297Y0000255796D01*
X0002094447Y0000243365D01*
X0002101922Y0000232177D01*
X0002111436Y0000222662D01*
X0002122624Y0000215187D01*
X0002135055Y0000210038D01*
X0002148252Y0000207413D01*
X0002161707Y0000207413D01*
X0002174904Y0000210038D01*
X0002187335Y0000215187D01*
X0002198523Y0000222662D01*
X0002208037Y0000232177D01*
X0002215513Y0000243365D01*
X0002220662Y0000255796D01*
X0002223287Y0000268992D01*
X0002223287Y0000282448D01*
X0002220662Y0000295645D01*
X0002215513Y0000308076D01*
X0002211765Y0000313684D01*
X0002245700Y0000313684D01*
X0002245812Y0000312544D01*
X0002245809Y0000312055D01*
X0002245844Y0000311694D01*
X0002247451Y0000296411D01*
X0002247924Y0000294106D01*
X0002248366Y0000291791D01*
X0002248470Y0000291444D01*
X0002253015Y0000276763D01*
X0002253927Y0000274592D01*
X0002254810Y0000272409D01*
X0002254980Y0000272088D01*
X0002262289Y0000258571D01*
X0002263605Y0000256620D01*
X0002264895Y0000254647D01*
X0002265125Y0000254366D01*
X0002274920Y0000242526D01*
X0002276591Y0000240867D01*
X0002278239Y0000239183D01*
X0002278519Y0000238952D01*
X0002290428Y0000229240D01*
X0002292389Y0000227936D01*
X0002294332Y0000226606D01*
X0002294651Y0000226433D01*
X0002308220Y0000219219D01*
X0002310397Y0000218321D01*
X0002312562Y0000217393D01*
X0002312909Y0000217286D01*
X0002327620Y0000212844D01*
X0002329931Y0000212387D01*
X0002332234Y0000211897D01*
X0002332595Y0000211859D01*
X0002347889Y0000210360D01*
X0002347889Y0000210360D01*
X0002349148Y0000210236D01*
X0002532098Y0000210236D01*
X0002520936Y0000202778D01*
X0002511422Y0000193263D01*
X0002503947Y0000182076D01*
X0002498797Y0000169645D01*
X0002496172Y0000156448D01*
X0002496172Y0000142992D01*
X0002498797Y0000129796D01*
X0002503947Y0000117365D01*
X0002511422Y0000106177D01*
X0002520936Y0000096662D01*
X0002532124Y0000089187D01*
X0002544555Y0000084038D01*
X0002557752Y0000081413D01*
X0002571207Y0000081413D01*
X0002584404Y0000084038D01*
X0002596835Y0000089187D01*
X0002608023Y0000096662D01*
X0002617537Y0000106177D01*
X0002625013Y0000117365D01*
X0002630162Y0000129796D01*
X0002632787Y0000142992D01*
X0002632787Y0000156448D01*
X0002630162Y0000169645D01*
X0002625013Y0000182076D01*
X0002617537Y0000193263D01*
X0002608023Y0000202778D01*
X0002596861Y0000210236D01*
X0003028098Y0000210236D01*
X0003016936Y0000202778D01*
X0003007422Y0000193263D01*
X0002999947Y0000182076D01*
X0002994797Y0000169645D01*
X0002992172Y0000156448D01*
X0002992172Y0000142992D01*
X0002994797Y0000129796D01*
X0002999947Y0000117365D01*
X0003007422Y0000106177D01*
X0003016936Y0000096662D01*
X0003028124Y0000089187D01*
X0003040555Y0000084038D01*
X0003053752Y0000081413D01*
X0003067207Y0000081413D01*
X0003080404Y0000084038D01*
X0003092835Y0000089187D01*
X0003104023Y0000096662D01*
X0003113537Y0000106177D01*
X0003121013Y0000117365D01*
X0003126162Y0000129796D01*
X0003128787Y0000142992D01*
X0003128787Y0000156448D01*
X0003126162Y0000169645D01*
X0003121013Y0000182076D01*
X0003113537Y0000193263D01*
X0003104023Y0000202778D01*
X0003092861Y0000210236D01*
X0003280756Y0000210236D01*
X0003281896Y0000210348D01*
X0003282384Y0000210345D01*
X0003282745Y0000210380D01*
X0003298029Y0000211986D01*
X0003300334Y0000212460D01*
X0003302649Y0000212901D01*
X0003302996Y0000213006D01*
X0003317676Y0000217550D01*
X0003319848Y0000218463D01*
X0003322031Y0000219345D01*
X0003322351Y0000219516D01*
X0003335869Y0000226825D01*
X0003337820Y0000228141D01*
X0003339792Y0000229431D01*
X0003340074Y0000229661D01*
X0003351914Y0000239456D01*
X0003353573Y0000241127D01*
X0003355256Y0000242775D01*
X0003355488Y0000243054D01*
X0003365200Y0000254963D01*
X0003366504Y0000256925D01*
X0003367834Y0000258868D01*
X0003368007Y0000259187D01*
X0003375221Y0000272756D01*
X0003376119Y0000274933D01*
X0003377046Y0000277098D01*
X0003377154Y0000277444D01*
X0003378664Y0000282448D01*
X0003401172Y0000282448D01*
X0003401172Y0000268992D01*
X0003403797Y0000255796D01*
X0003408947Y0000243365D01*
X0003416422Y0000232177D01*
X0003425936Y0000222662D01*
X0003437124Y0000215187D01*
X0003449555Y0000210038D01*
X0003462752Y0000207413D01*
X0003476207Y0000207413D01*
X0003489404Y0000210038D01*
X0003501835Y0000215187D01*
X0003513023Y0000222662D01*
X0003522537Y0000232177D01*
X0003530013Y0000243365D01*
X0003535162Y0000255796D01*
X0003537787Y0000268992D01*
X0003537787Y0000282448D01*
X0003535162Y0000295645D01*
X0003530013Y0000308076D01*
X0003522537Y0000319263D01*
X0003513023Y0000328778D01*
X0003501835Y0000336253D01*
X0003489404Y0000341402D01*
X0003476207Y0000344027D01*
X0003462752Y0000344027D01*
X0003449555Y0000341402D01*
X0003437124Y0000336253D01*
X0003425936Y0000328778D01*
X0003416422Y0000319263D01*
X0003408947Y0000308076D01*
X0003403797Y0000295645D01*
X0003401172Y0000282448D01*
X0003378664Y0000282448D01*
X0003381595Y0000292156D01*
X0003382053Y0000294466D01*
X0003382542Y0000296770D01*
X0003382580Y0000297131D01*
X0003384080Y0000312425D01*
X0003384080Y0000312425D01*
X0003384204Y0000313684D01*
X0003384204Y0000670567D01*
X0003384092Y0000671707D01*
X0003384095Y0000672196D01*
X0003384060Y0000672557D01*
X0003382453Y0000687840D01*
X0003381980Y0000690145D01*
X0003381539Y0000692460D01*
X0003381434Y0000692808D01*
X0003376889Y0000707488D01*
X0003375977Y0000709659D01*
X0003375095Y0000711842D01*
X0003374924Y0000712163D01*
X0003374924Y0000712163D01*
X0003374924Y0000712163D01*
X0003373148Y0000715448D01*
X0003401672Y0000715448D01*
X0003401672Y0000701992D01*
X0003404297Y0000688796D01*
X0003409447Y0000676365D01*
X0003416922Y0000665177D01*
X0003426436Y0000655662D01*
X0003437624Y0000648187D01*
X0003450055Y0000643038D01*
X0003463252Y0000640413D01*
X0003476707Y0000640413D01*
X0003489904Y0000643038D01*
X0003502335Y0000648187D01*
X0003513523Y0000655662D01*
X0003523037Y0000665177D01*
X0003530513Y0000676365D01*
X0003535662Y0000688796D01*
X0003538287Y0000701992D01*
X0003538287Y0000715448D01*
X0003535662Y0000728645D01*
X0003530513Y0000741076D01*
X0003523037Y0000752263D01*
X0003513523Y0000761778D01*
X0003502335Y0000769253D01*
X0003489904Y0000774402D01*
X0003476707Y0000777027D01*
X0003463252Y0000777027D01*
X0003450055Y0000774402D01*
X0003437624Y0000769253D01*
X0003426436Y0000761778D01*
X0003416922Y0000752263D01*
X0003409447Y0000741076D01*
X0003404297Y0000728645D01*
X0003401672Y0000715448D01*
X0003373148Y0000715448D01*
X0003367615Y0000725681D01*
X0003366298Y0000727633D01*
X0003365009Y0000729604D01*
X0003364779Y0000729885D01*
X0003354984Y0000741726D01*
X0003353313Y0000743385D01*
X0003351665Y0000745068D01*
X0003351385Y0000745299D01*
X0003339477Y0000755012D01*
X0003337515Y0000756315D01*
X0003335572Y0000757645D01*
X0003335253Y0000757818D01*
X0003321684Y0000765033D01*
X0003319507Y0000765930D01*
X0003317342Y0000766858D01*
X0003316995Y0000766965D01*
X0003302284Y0000771407D01*
X0003299973Y0000771864D01*
X0003297670Y0000772354D01*
X0003297309Y0000772392D01*
X0003282015Y0000773891D01*
X0003282015Y0000773891D01*
X0003280756Y0000774015D01*
X0003091920Y0000774015D01*
X0003092335Y0000774187D01*
X0003103523Y0000781662D01*
X0003113037Y0000791177D01*
X0003120513Y0000802365D01*
X0003125662Y0000814796D01*
X0003128287Y0000827992D01*
X0003128287Y0000841448D01*
X0003125662Y0000854645D01*
X0003120513Y0000867076D01*
X0003113037Y0000878263D01*
X0003103523Y0000887778D01*
X0003092335Y0000895253D01*
X0003079904Y0000900402D01*
X0003066707Y0000903027D01*
X0003053252Y0000903027D01*
X0003040055Y0000900402D01*
X0003027624Y0000895253D01*
X0003016436Y0000887778D01*
X0003006922Y0000878263D01*
X0002999447Y0000867076D01*
X0002994297Y0000854645D01*
X0002991672Y0000841448D01*
X0002991672Y0000827992D01*
X0002994297Y0000814796D01*
X0002999447Y0000802365D01*
X0003006922Y0000791177D01*
X0003016436Y0000781662D01*
X0003027624Y0000774187D01*
X0003028039Y0000774015D01*
X0002596920Y0000774015D01*
X0002597335Y0000774187D01*
X0002608523Y0000781662D01*
X0002618037Y0000791177D01*
X0002625513Y0000802365D01*
X0002630662Y0000814796D01*
X0002633287Y0000827992D01*
X0002633287Y0000841448D01*
X0002630662Y0000854645D01*
X0002625513Y0000867076D01*
X0002618037Y0000878263D01*
X0002608523Y0000887778D01*
X0002597335Y0000895253D01*
X0002584904Y0000900402D01*
X0002571707Y0000903027D01*
X0002558252Y0000903027D01*
X0002545055Y0000900402D01*
X0002532624Y0000895253D01*
X0002521436Y0000887778D01*
X0002511922Y0000878263D01*
X0002504447Y0000867076D01*
X0002499297Y0000854645D01*
X0002496672Y0000841448D01*
X0002496672Y0000827992D01*
X0002499297Y0000814796D01*
X0002504447Y0000802365D01*
X0002511922Y0000791177D01*
X0002521436Y0000781662D01*
X0002532624Y0000774187D01*
X0002533039Y0000774015D01*
X0002349148Y0000774015D01*
X0002348008Y0000773903D01*
X0002347520Y0000773906D01*
X0002347159Y0000773871D01*
X0002331875Y0000772265D01*
X0002329570Y0000771791D01*
X0002327255Y0000771350D01*
X0002326908Y0000771245D01*
X0002312228Y0000766701D01*
X0002310056Y0000765788D01*
X0002307873Y0000764906D01*
X0002307553Y0000764736D01*
X0002307553Y0000764736D01*
X0002307553Y0000764735D01*
X0002294035Y0000757426D01*
X0002292082Y0000756109D01*
X0002290112Y0000754820D01*
X0002289831Y0000754591D01*
X0002277990Y0000744795D01*
X0002276331Y0000743124D01*
X0002274648Y0000741476D01*
X0002274416Y0000741197D01*
X0002264704Y0000729288D01*
X0002263401Y0000727327D01*
X0002262070Y0000725383D01*
X0002261897Y0000725064D01*
X0002254683Y0000711495D01*
X0002253785Y0000709318D01*
X0002252858Y0000707153D01*
X0002252750Y0000706807D01*
X0002248309Y0000692095D01*
X0002247851Y0000689785D01*
X0002247362Y0000687481D01*
X0002247324Y0000687121D01*
X0002245824Y0000671827D01*
X0002245824Y0000671826D01*
X0002245700Y0000670567D01*
X0002245700Y0000313684D01*
X0002211765Y0000313684D01*
X0002208037Y0000319263D01*
X0002198523Y0000328778D01*
X0002187335Y0000336253D01*
X0002174904Y0000341402D01*
X0002161707Y0000344027D01*
X0002148252Y0000344027D01*
X0002135055Y0000341402D01*
X0002122624Y0000336253D01*
X0002111436Y0000328778D01*
X0002101922Y0000319263D01*
X0002094447Y0000308076D01*
X0002089297Y0000295645D01*
X0002086672Y0000282448D01*
X0002061448Y0000282448D01*
X0002061448Y0000715448D01*
X0002086672Y0000715448D01*
X0002086672Y0000701992D01*
X0002089297Y0000688796D01*
X0002094447Y0000676365D01*
X0002101922Y0000665177D01*
X0002111436Y0000655662D01*
X0002122624Y0000648187D01*
X0002135055Y0000643038D01*
X0002148252Y0000640413D01*
X0002161707Y0000640413D01*
X0002174904Y0000643038D01*
X0002187335Y0000648187D01*
X0002198523Y0000655662D01*
X0002208037Y0000665177D01*
X0002215513Y0000676365D01*
X0002220662Y0000688796D01*
X0002223287Y0000701992D01*
X0002223287Y0000715448D01*
X0002220662Y0000728645D01*
X0002215513Y0000741076D01*
X0002208037Y0000752263D01*
X0002198523Y0000761778D01*
X0002187335Y0000769253D01*
X0002174904Y0000774402D01*
X0002161707Y0000777027D01*
X0002148252Y0000777027D01*
X0002135055Y0000774402D01*
X0002122624Y0000769253D01*
X0002111436Y0000761778D01*
X0002101922Y0000752263D01*
X0002094447Y0000741076D01*
X0002089297Y0000728645D01*
X0002086672Y0000715448D01*
X0002061448Y0000715448D01*
X0002061448Y0000904241D01*
X0002062575Y0000915735D01*
X0002065544Y0000925568D01*
X0002070367Y0000934638D01*
X0002076859Y0000942598D01*
X0002084773Y0000949146D01*
X0002093809Y0000954031D01*
X0002103622Y0000957069D01*
X0002115035Y0000958268D01*
X0003514429Y0000958268D01*
X0003525923Y0000957141D01*
G04 #@! TA.AperFunction,NonConductor*
D26*
G36*
X0003525923Y0000957141D02*
G01*
X0003535756Y0000954172D01*
X0003544826Y0000949350D01*
X0003552786Y0000942858D01*
X0003559333Y0000934943D01*
X0003564219Y0000925908D01*
X0003567256Y0000916095D01*
X0003568456Y0000904682D01*
X0003568456Y0000080011D01*
X0003567329Y0000068517D01*
X0003564360Y0000058684D01*
X0003559538Y0000049614D01*
X0003553046Y0000041654D01*
X0003545131Y0000035106D01*
X0003536096Y0000030221D01*
X0003526283Y0000027183D01*
X0003514870Y0000025984D01*
X0002115475Y0000025984D01*
X0002103982Y0000027111D01*
X0002094148Y0000030080D01*
X0002085079Y0000034902D01*
X0002077119Y0000041394D01*
X0002070571Y0000049309D01*
X0002065686Y0000058344D01*
X0002062648Y0000068157D01*
X0002061448Y0000079570D01*
X0002061448Y0000282448D01*
X0002086672Y0000282448D01*
X0002086672Y0000268992D01*
X0002089297Y0000255796D01*
X0002094447Y0000243365D01*
X0002101922Y0000232177D01*
X0002111436Y0000222662D01*
X0002122624Y0000215187D01*
X0002135055Y0000210038D01*
X0002148252Y0000207413D01*
X0002161707Y0000207413D01*
X0002174904Y0000210038D01*
X0002187335Y0000215187D01*
X0002198523Y0000222662D01*
X0002208037Y0000232177D01*
X0002215513Y0000243365D01*
X0002220662Y0000255796D01*
X0002223287Y0000268992D01*
X0002223287Y0000282448D01*
X0002220662Y0000295645D01*
X0002215513Y0000308076D01*
X0002211765Y0000313684D01*
X0002245700Y0000313684D01*
X0002245812Y0000312544D01*
X0002245809Y0000312055D01*
X0002245844Y0000311694D01*
X0002247451Y0000296411D01*
X0002247924Y0000294106D01*
X0002248366Y0000291791D01*
X0002248470Y0000291444D01*
X0002253015Y0000276763D01*
X0002253927Y0000274592D01*
X0002254810Y0000272409D01*
X0002254980Y0000272088D01*
X0002262289Y0000258571D01*
X0002263605Y0000256620D01*
X0002264895Y0000254647D01*
X0002265125Y0000254366D01*
X0002274920Y0000242526D01*
X0002276591Y0000240867D01*
X0002278239Y0000239183D01*
X0002278519Y0000238952D01*
X0002290428Y0000229240D01*
X0002292389Y0000227936D01*
X0002294332Y0000226606D01*
X0002294651Y0000226433D01*
X0002308220Y0000219219D01*
X0002310397Y0000218321D01*
X0002312562Y0000217393D01*
X0002312909Y0000217286D01*
X0002327620Y0000212844D01*
X0002329931Y0000212387D01*
X0002332234Y0000211897D01*
X0002332595Y0000211859D01*
X0002347889Y0000210360D01*
X0002347889Y0000210360D01*
X0002349148Y0000210236D01*
X0002532098Y0000210236D01*
X0002520936Y0000202778D01*
X0002511422Y0000193263D01*
X0002503947Y0000182076D01*
X0002498797Y0000169645D01*
X0002496172Y0000156448D01*
X0002496172Y0000142992D01*
X0002498797Y0000129796D01*
X0002503947Y0000117365D01*
X0002511422Y0000106177D01*
X0002520936Y0000096662D01*
X0002532124Y0000089187D01*
X0002544555Y0000084038D01*
X0002557752Y0000081413D01*
X0002571207Y0000081413D01*
X0002584404Y0000084038D01*
X0002596835Y0000089187D01*
X0002608023Y0000096662D01*
X0002617537Y0000106177D01*
X0002625013Y0000117365D01*
X0002630162Y0000129796D01*
X0002632787Y0000142992D01*
X0002632787Y0000156448D01*
X0002630162Y0000169645D01*
X0002625013Y0000182076D01*
X0002617537Y0000193263D01*
X0002608023Y0000202778D01*
X0002596861Y0000210236D01*
X0003028098Y0000210236D01*
X0003016936Y0000202778D01*
X0003007422Y0000193263D01*
X0002999947Y0000182076D01*
X0002994797Y0000169645D01*
X0002992172Y0000156448D01*
X0002992172Y0000142992D01*
X0002994797Y0000129796D01*
X0002999947Y0000117365D01*
X0003007422Y0000106177D01*
X0003016936Y0000096662D01*
X0003028124Y0000089187D01*
X0003040555Y0000084038D01*
X0003053752Y0000081413D01*
X0003067207Y0000081413D01*
X0003080404Y0000084038D01*
X0003092835Y0000089187D01*
X0003104023Y0000096662D01*
X0003113537Y0000106177D01*
X0003121013Y0000117365D01*
X0003126162Y0000129796D01*
X0003128787Y0000142992D01*
X0003128787Y0000156448D01*
X0003126162Y0000169645D01*
X0003121013Y0000182076D01*
X0003113537Y0000193263D01*
X0003104023Y0000202778D01*
X0003092861Y0000210236D01*
X0003280756Y0000210236D01*
X0003281896Y0000210348D01*
X0003282384Y0000210345D01*
X0003282745Y0000210380D01*
X0003298029Y0000211986D01*
X0003300334Y0000212460D01*
X0003302649Y0000212901D01*
X0003302996Y0000213006D01*
X0003317676Y0000217550D01*
X0003319848Y0000218463D01*
X0003322031Y0000219345D01*
X0003322351Y0000219516D01*
X0003335869Y0000226825D01*
X0003337820Y0000228141D01*
X0003339792Y0000229431D01*
X0003340074Y0000229661D01*
X0003351914Y0000239456D01*
X0003353573Y0000241127D01*
X0003355256Y0000242775D01*
X0003355488Y0000243054D01*
X0003365200Y0000254963D01*
X0003366504Y0000256925D01*
X0003367834Y0000258868D01*
X0003368007Y0000259187D01*
X0003375221Y0000272756D01*
X0003376119Y0000274933D01*
X0003377046Y0000277098D01*
X0003377154Y0000277444D01*
X0003378664Y0000282448D01*
X0003401172Y0000282448D01*
X0003401172Y0000268992D01*
X0003403797Y0000255796D01*
X0003408947Y0000243365D01*
X0003416422Y0000232177D01*
X0003425936Y0000222662D01*
X0003437124Y0000215187D01*
X0003449555Y0000210038D01*
X0003462752Y0000207413D01*
X0003476207Y0000207413D01*
X0003489404Y0000210038D01*
X0003501835Y0000215187D01*
X0003513023Y0000222662D01*
X0003522537Y0000232177D01*
X0003530013Y0000243365D01*
X0003535162Y0000255796D01*
X0003537787Y0000268992D01*
X0003537787Y0000282448D01*
X0003535162Y0000295645D01*
X0003530013Y0000308076D01*
X0003522537Y0000319263D01*
X0003513023Y0000328778D01*
X0003501835Y0000336253D01*
X0003489404Y0000341402D01*
X0003476207Y0000344027D01*
X0003462752Y0000344027D01*
X0003449555Y0000341402D01*
X0003437124Y0000336253D01*
X0003425936Y0000328778D01*
X0003416422Y0000319263D01*
X0003408947Y0000308076D01*
X0003403797Y0000295645D01*
X0003401172Y0000282448D01*
X0003378664Y0000282448D01*
X0003381595Y0000292156D01*
X0003382053Y0000294466D01*
X0003382542Y0000296770D01*
X0003382580Y0000297131D01*
X0003384080Y0000312425D01*
X0003384080Y0000312425D01*
X0003384204Y0000313684D01*
X0003384204Y0000670567D01*
X0003384092Y0000671707D01*
X0003384095Y0000672196D01*
X0003384060Y0000672557D01*
X0003382453Y0000687840D01*
X0003381980Y0000690145D01*
X0003381539Y0000692460D01*
X0003381434Y0000692808D01*
X0003376889Y0000707488D01*
X0003375977Y0000709659D01*
X0003375095Y0000711842D01*
X0003374924Y0000712163D01*
X0003374924Y0000712163D01*
X0003374924Y0000712163D01*
X0003373148Y0000715448D01*
X0003401672Y0000715448D01*
X0003401672Y0000701992D01*
X0003404297Y0000688796D01*
X0003409447Y0000676365D01*
X0003416922Y0000665177D01*
X0003426436Y0000655662D01*
X0003437624Y0000648187D01*
X0003450055Y0000643038D01*
X0003463252Y0000640413D01*
X0003476707Y0000640413D01*
X0003489904Y0000643038D01*
X0003502335Y0000648187D01*
X0003513523Y0000655662D01*
X0003523037Y0000665177D01*
X0003530513Y0000676365D01*
X0003535662Y0000688796D01*
X0003538287Y0000701992D01*
X0003538287Y0000715448D01*
X0003535662Y0000728645D01*
X0003530513Y0000741076D01*
X0003523037Y0000752263D01*
X0003513523Y0000761778D01*
X0003502335Y0000769253D01*
X0003489904Y0000774402D01*
X0003476707Y0000777027D01*
X0003463252Y0000777027D01*
X0003450055Y0000774402D01*
X0003437624Y0000769253D01*
X0003426436Y0000761778D01*
X0003416922Y0000752263D01*
X0003409447Y0000741076D01*
X0003404297Y0000728645D01*
X0003401672Y0000715448D01*
X0003373148Y0000715448D01*
X0003367615Y0000725681D01*
X0003366298Y0000727633D01*
X0003365009Y0000729604D01*
X0003364779Y0000729885D01*
X0003354984Y0000741726D01*
X0003353313Y0000743385D01*
X0003351665Y0000745068D01*
X0003351385Y0000745299D01*
X0003339477Y0000755012D01*
X0003337515Y0000756315D01*
X0003335572Y0000757645D01*
X0003335253Y0000757818D01*
X0003321684Y0000765033D01*
X0003319507Y0000765930D01*
X0003317342Y0000766858D01*
X0003316995Y0000766965D01*
X0003302284Y0000771407D01*
X0003299973Y0000771864D01*
X0003297670Y0000772354D01*
X0003297309Y0000772392D01*
X0003282015Y0000773891D01*
X0003282015Y0000773891D01*
X0003280756Y0000774015D01*
X0003091920Y0000774015D01*
X0003092335Y0000774187D01*
X0003103523Y0000781662D01*
X0003113037Y0000791177D01*
X0003120513Y0000802365D01*
X0003125662Y0000814796D01*
X0003128287Y0000827992D01*
X0003128287Y0000841448D01*
X0003125662Y0000854645D01*
X0003120513Y0000867076D01*
X0003113037Y0000878263D01*
X0003103523Y0000887778D01*
X0003092335Y0000895253D01*
X0003079904Y0000900402D01*
X0003066707Y0000903027D01*
X0003053252Y0000903027D01*
X0003040055Y0000900402D01*
X0003027624Y0000895253D01*
X0003016436Y0000887778D01*
X0003006922Y0000878263D01*
X0002999447Y0000867076D01*
X0002994297Y0000854645D01*
X0002991672Y0000841448D01*
X0002991672Y0000827992D01*
X0002994297Y0000814796D01*
X0002999447Y0000802365D01*
X0003006922Y0000791177D01*
X0003016436Y0000781662D01*
X0003027624Y0000774187D01*
X0003028039Y0000774015D01*
X0002596920Y0000774015D01*
X0002597335Y0000774187D01*
X0002608523Y0000781662D01*
X0002618037Y0000791177D01*
X0002625513Y0000802365D01*
X0002630662Y0000814796D01*
X0002633287Y0000827992D01*
X0002633287Y0000841448D01*
X0002630662Y0000854645D01*
X0002625513Y0000867076D01*
X0002618037Y0000878263D01*
X0002608523Y0000887778D01*
X0002597335Y0000895253D01*
X0002584904Y0000900402D01*
X0002571707Y0000903027D01*
X0002558252Y0000903027D01*
X0002545055Y0000900402D01*
X0002532624Y0000895253D01*
X0002521436Y0000887778D01*
X0002511922Y0000878263D01*
X0002504447Y0000867076D01*
X0002499297Y0000854645D01*
X0002496672Y0000841448D01*
X0002496672Y0000827992D01*
X0002499297Y0000814796D01*
X0002504447Y0000802365D01*
X0002511922Y0000791177D01*
X0002521436Y0000781662D01*
X0002532624Y0000774187D01*
X0002533039Y0000774015D01*
X0002349148Y0000774015D01*
X0002348008Y0000773903D01*
X0002347520Y0000773906D01*
X0002347159Y0000773871D01*
X0002331875Y0000772265D01*
X0002329570Y0000771791D01*
X0002327255Y0000771350D01*
X0002326908Y0000771245D01*
X0002312228Y0000766701D01*
X0002310056Y0000765788D01*
X0002307873Y0000764906D01*
X0002307553Y0000764736D01*
X0002307553Y0000764736D01*
X0002307553Y0000764735D01*
X0002294035Y0000757426D01*
X0002292082Y0000756109D01*
X0002290112Y0000754820D01*
X0002289831Y0000754591D01*
X0002277990Y0000744795D01*
X0002276331Y0000743124D01*
X0002274648Y0000741476D01*
X0002274416Y0000741197D01*
X0002264704Y0000729288D01*
X0002263401Y0000727327D01*
X0002262070Y0000725383D01*
X0002261897Y0000725064D01*
X0002254683Y0000711495D01*
X0002253785Y0000709318D01*
X0002252858Y0000707153D01*
X0002252750Y0000706807D01*
X0002248309Y0000692095D01*
X0002247851Y0000689785D01*
X0002247362Y0000687481D01*
X0002247324Y0000687121D01*
X0002245824Y0000671827D01*
X0002245824Y0000671826D01*
X0002245700Y0000670567D01*
X0002245700Y0000313684D01*
X0002211765Y0000313684D01*
X0002208037Y0000319263D01*
X0002198523Y0000328778D01*
X0002187335Y0000336253D01*
X0002174904Y0000341402D01*
X0002161707Y0000344027D01*
X0002148252Y0000344027D01*
X0002135055Y0000341402D01*
X0002122624Y0000336253D01*
X0002111436Y0000328778D01*
X0002101922Y0000319263D01*
X0002094447Y0000308076D01*
X0002089297Y0000295645D01*
X0002086672Y0000282448D01*
X0002061448Y0000282448D01*
X0002061448Y0000715448D01*
X0002086672Y0000715448D01*
X0002086672Y0000701992D01*
X0002089297Y0000688796D01*
X0002094447Y0000676365D01*
X0002101922Y0000665177D01*
X0002111436Y0000655662D01*
X0002122624Y0000648187D01*
X0002135055Y0000643038D01*
X0002148252Y0000640413D01*
X0002161707Y0000640413D01*
X0002174904Y0000643038D01*
X0002187335Y0000648187D01*
X0002198523Y0000655662D01*
X0002208037Y0000665177D01*
X0002215513Y0000676365D01*
X0002220662Y0000688796D01*
X0002223287Y0000701992D01*
X0002223287Y0000715448D01*
X0002220662Y0000728645D01*
X0002215513Y0000741076D01*
X0002208037Y0000752263D01*
X0002198523Y0000761778D01*
X0002187335Y0000769253D01*
X0002174904Y0000774402D01*
X0002161707Y0000777027D01*
X0002148252Y0000777027D01*
X0002135055Y0000774402D01*
X0002122624Y0000769253D01*
X0002111436Y0000761778D01*
X0002101922Y0000752263D01*
X0002094447Y0000741076D01*
X0002089297Y0000728645D01*
X0002086672Y0000715448D01*
X0002061448Y0000715448D01*
X0002061448Y0000904241D01*
X0002062575Y0000915735D01*
X0002065544Y0000925568D01*
X0002070367Y0000934638D01*
X0002076859Y0000942598D01*
X0002084773Y0000949146D01*
X0002093809Y0000954031D01*
X0002103622Y0000957069D01*
X0002115035Y0000958268D01*
X0003514429Y0000958268D01*
X0003525923Y0000957141D01*
G37*
G04 #@! TD.AperFunction*
G04 next file*
G04 #@! TF.GenerationSoftware,KiCad,Pcbnew,(5.1.12)-1*
G04 #@! TF.CreationDate,2022-03-26T22:12:51+08:00*
G04 #@! TF.ProjectId,Nozzle,4e6f7a7a-6c65-42e6-9b69-6361645f7063,0.5*
G04 #@! TF.SameCoordinates,Original*
G04 #@! TF.FileFunction,Copper,L2,Bot*
G04 #@! TF.FilePolarity,Positive*
G04 Gerber Fmt 4.6, Leading zero omitted, Abs format (unit mm)*
G04 Created by KiCad (PCBNEW (5.1.12)-1) date 2022-03-26 22:12:51*
G01*
G04 APERTURE LIST*
G04 #@! TA.AperFunction,NonConductor*
G04 #@! TD*
G04 #@! TA.AperFunction,NonConductor*
G04 #@! TD*
G04 APERTURE END LIST*
D27*
X0001490458Y0003091001D02*
X0001500292Y0003088032D01*
X0001509361Y0003083210D01*
X0001517321Y0003076717D01*
X0001523869Y0003068803D01*
X0001528754Y0003059767D01*
X0001531792Y0003049955D01*
X0001532991Y0003038541D01*
X0001532991Y0002213870D01*
X0001531864Y0002202377D01*
X0001528895Y0002192543D01*
X0001524073Y0002183474D01*
X0001517581Y0002175514D01*
X0001509666Y0002168966D01*
X0001500631Y0002164081D01*
X0001490818Y0002161043D01*
X0001479405Y0002159844D01*
X0000080010Y0002159844D01*
X0000068517Y0002160970D01*
X0000058683Y0002163939D01*
X0000049614Y0002168762D01*
X0000041654Y0002175254D01*
X0000035106Y0002183168D01*
X0000030221Y0002192204D01*
X0000027183Y0002202017D01*
X0000025984Y0002213430D01*
X0000025984Y0002416307D01*
X0000051208Y0002416307D01*
X0000051208Y0002402852D01*
X0000053833Y0002389655D01*
X0000058982Y0002377224D01*
X0000066457Y0002366037D01*
X0000075972Y0002356522D01*
X0000087159Y0002349047D01*
X0000099590Y0002343898D01*
X0000112787Y0002341273D01*
X0000126242Y0002341273D01*
X0000139439Y0002343898D01*
X0000151870Y0002349047D01*
X0000163058Y0002356522D01*
X0000172572Y0002366037D01*
X0000180048Y0002377224D01*
X0000185197Y0002389655D01*
X0000187822Y0002402852D01*
X0000187822Y0002416307D01*
X0000185197Y0002429504D01*
X0000180048Y0002441935D01*
X0000176300Y0002447544D01*
X0000210235Y0002447544D01*
X0000210348Y0002446404D01*
X0000210344Y0002445915D01*
X0000210380Y0002445554D01*
X0000211986Y0002430271D01*
X0000212459Y0002427965D01*
X0000212901Y0002425651D01*
X0000213006Y0002425303D01*
X0000217550Y0002410623D01*
X0000218463Y0002408452D01*
X0000219345Y0002406268D01*
X0000219515Y0002405948D01*
X0000226824Y0002392430D01*
X0000228140Y0002390479D01*
X0000229431Y0002388507D01*
X0000229660Y0002388226D01*
X0000239456Y0002376385D01*
X0000241126Y0002374726D01*
X0000242774Y0002373043D01*
X0000243054Y0002372812D01*
X0000254963Y0002363099D01*
X0000256924Y0002361796D01*
X0000258868Y0002360465D01*
X0000259187Y0002360293D01*
X0000272755Y0002353078D01*
X0000274933Y0002352181D01*
X0000277097Y0002351253D01*
X0000277444Y0002351146D01*
X0000292155Y0002346704D01*
X0000294466Y0002346247D01*
X0000296769Y0002345757D01*
X0000297130Y0002345719D01*
X0000312424Y0002344220D01*
X0000312424Y0002344220D01*
X0000313683Y0002344095D01*
X0000496633Y0002344095D01*
X0000485472Y0002336637D01*
X0000475957Y0002327123D01*
X0000468482Y0002315935D01*
X0000463333Y0002303504D01*
X0000460708Y0002290307D01*
X0000460708Y0002276852D01*
X0000463333Y0002263655D01*
X0000468482Y0002251224D01*
X0000475957Y0002240037D01*
X0000485472Y0002230522D01*
X0000496659Y0002223047D01*
X0000509090Y0002217898D01*
X0000522287Y0002215273D01*
X0000535742Y0002215273D01*
X0000548939Y0002217898D01*
X0000561370Y0002223047D01*
X0000572558Y0002230522D01*
X0000582072Y0002240037D01*
X0000589548Y0002251224D01*
X0000594697Y0002263655D01*
X0000597322Y0002276852D01*
X0000597322Y0002290307D01*
X0000594697Y0002303504D01*
X0000589548Y0002315935D01*
X0000582072Y0002327123D01*
X0000572558Y0002336637D01*
X0000561396Y0002344095D01*
X0000992633Y0002344095D01*
X0000981472Y0002336637D01*
X0000971957Y0002327123D01*
X0000964482Y0002315935D01*
X0000959333Y0002303504D01*
X0000956708Y0002290307D01*
X0000956708Y0002276852D01*
X0000959333Y0002263655D01*
X0000964482Y0002251224D01*
X0000971957Y0002240037D01*
X0000981472Y0002230522D01*
X0000992659Y0002223047D01*
X0001005090Y0002217898D01*
X0001018287Y0002215273D01*
X0001031742Y0002215273D01*
X0001044939Y0002217898D01*
X0001057370Y0002223047D01*
X0001068558Y0002230522D01*
X0001078072Y0002240037D01*
X0001085548Y0002251224D01*
X0001090697Y0002263655D01*
X0001093322Y0002276852D01*
X0001093322Y0002290307D01*
X0001090697Y0002303504D01*
X0001085548Y0002315935D01*
X0001078072Y0002327123D01*
X0001068558Y0002336637D01*
X0001057396Y0002344095D01*
X0001245291Y0002344095D01*
X0001246431Y0002344208D01*
X0001246920Y0002344204D01*
X0001247281Y0002344240D01*
X0001262564Y0002345846D01*
X0001264869Y0002346319D01*
X0001267184Y0002346761D01*
X0001267531Y0002346866D01*
X0001282212Y0002351410D01*
X0001284383Y0002352323D01*
X0001286566Y0002353205D01*
X0001286887Y0002353375D01*
X0001300404Y0002360684D01*
X0001302355Y0002362000D01*
X0001304328Y0002363291D01*
X0001304609Y0002363520D01*
X0001316449Y0002373316D01*
X0001318109Y0002374986D01*
X0001319792Y0002376635D01*
X0001320023Y0002376914D01*
X0001329735Y0002388823D01*
X0001331039Y0002390785D01*
X0001332369Y0002392728D01*
X0001332542Y0002393047D01*
X0001339756Y0002406615D01*
X0001340654Y0002408793D01*
X0001341582Y0002410957D01*
X0001341689Y0002411304D01*
X0001343200Y0002416307D01*
X0001365708Y0002416307D01*
X0001365708Y0002402852D01*
X0001368333Y0002389655D01*
X0001373482Y0002377224D01*
X0001380957Y0002366037D01*
X0001390472Y0002356522D01*
X0001401659Y0002349047D01*
X0001414090Y0002343898D01*
X0001427287Y0002341273D01*
X0001440742Y0002341273D01*
X0001453939Y0002343898D01*
X0001466370Y0002349047D01*
X0001477558Y0002356522D01*
X0001487072Y0002366037D01*
X0001494548Y0002377224D01*
X0001499697Y0002389655D01*
X0001502322Y0002402852D01*
X0001502322Y0002416307D01*
X0001499697Y0002429504D01*
X0001494548Y0002441935D01*
X0001487072Y0002453123D01*
X0001477558Y0002462637D01*
X0001466370Y0002470113D01*
X0001453939Y0002475262D01*
X0001440742Y0002477887D01*
X0001427287Y0002477887D01*
X0001414090Y0002475262D01*
X0001401659Y0002470113D01*
X0001390472Y0002462637D01*
X0001380957Y0002453123D01*
X0001373482Y0002441935D01*
X0001368333Y0002429504D01*
X0001365708Y0002416307D01*
X0001343200Y0002416307D01*
X0001346131Y0002426016D01*
X0001346588Y0002428326D01*
X0001347078Y0002430629D01*
X0001347116Y0002430990D01*
X0001348615Y0002446284D01*
X0001348615Y0002446284D01*
X0001348739Y0002447544D01*
X0001348739Y0002804427D01*
X0001348627Y0002805567D01*
X0001348630Y0002806055D01*
X0001348595Y0002806416D01*
X0001346989Y0002821700D01*
X0001346515Y0002824005D01*
X0001346074Y0002826320D01*
X0001345969Y0002826667D01*
X0001341425Y0002841347D01*
X0001340512Y0002843519D01*
X0001339630Y0002845702D01*
X0001339459Y0002846022D01*
X0001339459Y0002846022D01*
X0001339459Y0002846022D01*
X0001337683Y0002849307D01*
X0001366208Y0002849307D01*
X0001366208Y0002835852D01*
X0001368833Y0002822655D01*
X0001373982Y0002810224D01*
X0001381457Y0002799037D01*
X0001390972Y0002789522D01*
X0001402159Y0002782047D01*
X0001414590Y0002776898D01*
X0001427787Y0002774273D01*
X0001441242Y0002774273D01*
X0001454439Y0002776898D01*
X0001466870Y0002782047D01*
X0001478058Y0002789522D01*
X0001487572Y0002799037D01*
X0001495048Y0002810224D01*
X0001500197Y0002822655D01*
X0001502822Y0002835852D01*
X0001502822Y0002849307D01*
X0001500197Y0002862504D01*
X0001495048Y0002874935D01*
X0001487572Y0002886123D01*
X0001478058Y0002895637D01*
X0001466870Y0002903113D01*
X0001454439Y0002908262D01*
X0001441242Y0002910887D01*
X0001427787Y0002910887D01*
X0001414590Y0002908262D01*
X0001402159Y0002903113D01*
X0001390972Y0002895637D01*
X0001381457Y0002886123D01*
X0001373982Y0002874935D01*
X0001368833Y0002862504D01*
X0001366208Y0002849307D01*
X0001337683Y0002849307D01*
X0001332150Y0002859540D01*
X0001330833Y0002861493D01*
X0001329544Y0002863463D01*
X0001329315Y0002863745D01*
X0001319519Y0002875585D01*
X0001317848Y0002877244D01*
X0001316200Y0002878927D01*
X0001315921Y0002879159D01*
X0001304012Y0002888871D01*
X0001302050Y0002890174D01*
X0001300107Y0002891505D01*
X0001299788Y0002891678D01*
X0001286219Y0002898892D01*
X0001284042Y0002899790D01*
X0001281877Y0002900717D01*
X0001281531Y0002900825D01*
X0001266819Y0002905266D01*
X0001264509Y0002905724D01*
X0001262205Y0002906213D01*
X0001261844Y0002906251D01*
X0001246550Y0002907751D01*
X0001246550Y0002907751D01*
X0001245291Y0002907875D01*
X0001056456Y0002907875D01*
X0001056870Y0002908047D01*
X0001068058Y0002915522D01*
X0001077572Y0002925037D01*
X0001085048Y0002936224D01*
X0001090197Y0002948655D01*
X0001092822Y0002961852D01*
X0001092822Y0002975307D01*
X0001090197Y0002988504D01*
X0001085048Y0003000935D01*
X0001077572Y0003012123D01*
X0001068058Y0003021637D01*
X0001056870Y0003029113D01*
X0001044439Y0003034262D01*
X0001031242Y0003036887D01*
X0001017787Y0003036887D01*
X0001004590Y0003034262D01*
X0000992159Y0003029113D01*
X0000980972Y0003021637D01*
X0000971457Y0003012123D01*
X0000963982Y0003000935D01*
X0000958833Y0002988504D01*
X0000956208Y0002975307D01*
X0000956208Y0002961852D01*
X0000958833Y0002948655D01*
X0000963982Y0002936224D01*
X0000971457Y0002925037D01*
X0000980972Y0002915522D01*
X0000992159Y0002908047D01*
X0000992574Y0002907875D01*
X0000561456Y0002907875D01*
X0000561870Y0002908047D01*
X0000573058Y0002915522D01*
X0000582572Y0002925037D01*
X0000590048Y0002936224D01*
X0000595197Y0002948655D01*
X0000597822Y0002961852D01*
X0000597822Y0002975307D01*
X0000595197Y0002988504D01*
X0000590048Y0003000935D01*
X0000582572Y0003012123D01*
X0000573058Y0003021637D01*
X0000561870Y0003029113D01*
X0000549439Y0003034262D01*
X0000536242Y0003036887D01*
X0000522787Y0003036887D01*
X0000509590Y0003034262D01*
X0000497159Y0003029113D01*
X0000485972Y0003021637D01*
X0000476457Y0003012123D01*
X0000468982Y0003000935D01*
X0000463833Y0002988504D01*
X0000461208Y0002975307D01*
X0000461208Y0002961852D01*
X0000463833Y0002948655D01*
X0000468982Y0002936224D01*
X0000476457Y0002925037D01*
X0000485972Y0002915522D01*
X0000497159Y0002908047D01*
X0000497574Y0002907875D01*
X0000313683Y0002907875D01*
X0000312543Y0002907763D01*
X0000312055Y0002907766D01*
X0000311694Y0002907731D01*
X0000296411Y0002906124D01*
X0000294105Y0002905651D01*
X0000291790Y0002905210D01*
X0000291443Y0002905105D01*
X0000276763Y0002900560D01*
X0000274591Y0002899648D01*
X0000272408Y0002898766D01*
X0000272088Y0002898595D01*
X0000272088Y0002898595D01*
X0000272088Y0002898595D01*
X0000258570Y0002891286D01*
X0000256617Y0002889969D01*
X0000254647Y0002888680D01*
X0000254366Y0002888450D01*
X0000242525Y0002878655D01*
X0000240866Y0002876984D01*
X0000239183Y0002875336D01*
X0000238952Y0002875056D01*
X0000229239Y0002863148D01*
X0000227936Y0002861186D01*
X0000226605Y0002859243D01*
X0000226433Y0002858924D01*
X0000219218Y0002845355D01*
X0000218321Y0002843178D01*
X0000217393Y0002841013D01*
X0000217286Y0002840666D01*
X0000212844Y0002825955D01*
X0000212386Y0002823644D01*
X0000211897Y0002821341D01*
X0000211859Y0002820980D01*
X0000210359Y0002805686D01*
X0000210359Y0002805686D01*
X0000210235Y0002804427D01*
X0000210235Y0002447544D01*
X0000176300Y0002447544D01*
X0000172572Y0002453123D01*
X0000163058Y0002462637D01*
X0000151870Y0002470113D01*
X0000139439Y0002475262D01*
X0000126242Y0002477887D01*
X0000112787Y0002477887D01*
X0000099590Y0002475262D01*
X0000087159Y0002470113D01*
X0000075972Y0002462637D01*
X0000066457Y0002453123D01*
X0000058982Y0002441935D01*
X0000053833Y0002429504D01*
X0000051208Y0002416307D01*
X0000025984Y0002416307D01*
X0000025984Y0002849307D01*
X0000051208Y0002849307D01*
X0000051208Y0002835852D01*
X0000053833Y0002822655D01*
X0000058982Y0002810224D01*
X0000066457Y0002799037D01*
X0000075972Y0002789522D01*
X0000087159Y0002782047D01*
X0000099590Y0002776898D01*
X0000112787Y0002774273D01*
X0000126242Y0002774273D01*
X0000139439Y0002776898D01*
X0000151870Y0002782047D01*
X0000163058Y0002789522D01*
X0000172572Y0002799037D01*
X0000180048Y0002810224D01*
X0000185197Y0002822655D01*
X0000187822Y0002835852D01*
X0000187822Y0002849307D01*
X0000185197Y0002862504D01*
X0000180048Y0002874935D01*
X0000172572Y0002886123D01*
X0000163058Y0002895637D01*
X0000151870Y0002903113D01*
X0000139439Y0002908262D01*
X0000126242Y0002910887D01*
X0000112787Y0002910887D01*
X0000099590Y0002908262D01*
X0000087159Y0002903113D01*
X0000075972Y0002895637D01*
X0000066457Y0002886123D01*
X0000058982Y0002874935D01*
X0000053833Y0002862504D01*
X0000051208Y0002849307D01*
X0000025984Y0002849307D01*
X0000025984Y0003038101D01*
X0000027111Y0003049595D01*
X0000030080Y0003059428D01*
X0000034902Y0003068498D01*
X0000041394Y0003076458D01*
X0000049308Y0003083005D01*
X0000058344Y0003087891D01*
X0000068157Y0003090928D01*
X0000079570Y0003092128D01*
X0001478964Y0003092128D01*
X0001490458Y0003091001D01*
G04 #@! TA.AperFunction,NonConductor*
D28*
G36*
X0001490458Y0003091001D02*
G01*
X0001500292Y0003088032D01*
X0001509361Y0003083210D01*
X0001517321Y0003076717D01*
X0001523869Y0003068803D01*
X0001528754Y0003059767D01*
X0001531792Y0003049955D01*
X0001532991Y0003038541D01*
X0001532991Y0002213870D01*
X0001531864Y0002202377D01*
X0001528895Y0002192543D01*
X0001524073Y0002183474D01*
X0001517581Y0002175514D01*
X0001509666Y0002168966D01*
X0001500631Y0002164081D01*
X0001490818Y0002161043D01*
X0001479405Y0002159844D01*
X0000080010Y0002159844D01*
X0000068517Y0002160970D01*
X0000058683Y0002163939D01*
X0000049614Y0002168762D01*
X0000041654Y0002175254D01*
X0000035106Y0002183168D01*
X0000030221Y0002192204D01*
X0000027183Y0002202017D01*
X0000025984Y0002213430D01*
X0000025984Y0002416307D01*
X0000051208Y0002416307D01*
X0000051208Y0002402852D01*
X0000053833Y0002389655D01*
X0000058982Y0002377224D01*
X0000066457Y0002366037D01*
X0000075972Y0002356522D01*
X0000087159Y0002349047D01*
X0000099590Y0002343898D01*
X0000112787Y0002341273D01*
X0000126242Y0002341273D01*
X0000139439Y0002343898D01*
X0000151870Y0002349047D01*
X0000163058Y0002356522D01*
X0000172572Y0002366037D01*
X0000180048Y0002377224D01*
X0000185197Y0002389655D01*
X0000187822Y0002402852D01*
X0000187822Y0002416307D01*
X0000185197Y0002429504D01*
X0000180048Y0002441935D01*
X0000176300Y0002447544D01*
X0000210235Y0002447544D01*
X0000210348Y0002446404D01*
X0000210344Y0002445915D01*
X0000210380Y0002445554D01*
X0000211986Y0002430271D01*
X0000212459Y0002427965D01*
X0000212901Y0002425651D01*
X0000213006Y0002425303D01*
X0000217550Y0002410623D01*
X0000218463Y0002408452D01*
X0000219345Y0002406268D01*
X0000219515Y0002405948D01*
X0000226824Y0002392430D01*
X0000228140Y0002390479D01*
X0000229431Y0002388507D01*
X0000229660Y0002388226D01*
X0000239456Y0002376385D01*
X0000241126Y0002374726D01*
X0000242774Y0002373043D01*
X0000243054Y0002372812D01*
X0000254963Y0002363099D01*
X0000256924Y0002361796D01*
X0000258868Y0002360465D01*
X0000259187Y0002360293D01*
X0000272755Y0002353078D01*
X0000274933Y0002352181D01*
X0000277097Y0002351253D01*
X0000277444Y0002351146D01*
X0000292155Y0002346704D01*
X0000294466Y0002346247D01*
X0000296769Y0002345757D01*
X0000297130Y0002345719D01*
X0000312424Y0002344220D01*
X0000312424Y0002344220D01*
X0000313683Y0002344095D01*
X0000496633Y0002344095D01*
X0000485472Y0002336637D01*
X0000475957Y0002327123D01*
X0000468482Y0002315935D01*
X0000463333Y0002303504D01*
X0000460708Y0002290307D01*
X0000460708Y0002276852D01*
X0000463333Y0002263655D01*
X0000468482Y0002251224D01*
X0000475957Y0002240037D01*
X0000485472Y0002230522D01*
X0000496659Y0002223047D01*
X0000509090Y0002217898D01*
X0000522287Y0002215273D01*
X0000535742Y0002215273D01*
X0000548939Y0002217898D01*
X0000561370Y0002223047D01*
X0000572558Y0002230522D01*
X0000582072Y0002240037D01*
X0000589548Y0002251224D01*
X0000594697Y0002263655D01*
X0000597322Y0002276852D01*
X0000597322Y0002290307D01*
X0000594697Y0002303504D01*
X0000589548Y0002315935D01*
X0000582072Y0002327123D01*
X0000572558Y0002336637D01*
X0000561396Y0002344095D01*
X0000992633Y0002344095D01*
X0000981472Y0002336637D01*
X0000971957Y0002327123D01*
X0000964482Y0002315935D01*
X0000959333Y0002303504D01*
X0000956708Y0002290307D01*
X0000956708Y0002276852D01*
X0000959333Y0002263655D01*
X0000964482Y0002251224D01*
X0000971957Y0002240037D01*
X0000981472Y0002230522D01*
X0000992659Y0002223047D01*
X0001005090Y0002217898D01*
X0001018287Y0002215273D01*
X0001031742Y0002215273D01*
X0001044939Y0002217898D01*
X0001057370Y0002223047D01*
X0001068558Y0002230522D01*
X0001078072Y0002240037D01*
X0001085548Y0002251224D01*
X0001090697Y0002263655D01*
X0001093322Y0002276852D01*
X0001093322Y0002290307D01*
X0001090697Y0002303504D01*
X0001085548Y0002315935D01*
X0001078072Y0002327123D01*
X0001068558Y0002336637D01*
X0001057396Y0002344095D01*
X0001245291Y0002344095D01*
X0001246431Y0002344208D01*
X0001246920Y0002344204D01*
X0001247281Y0002344240D01*
X0001262564Y0002345846D01*
X0001264869Y0002346319D01*
X0001267184Y0002346761D01*
X0001267531Y0002346866D01*
X0001282212Y0002351410D01*
X0001284383Y0002352323D01*
X0001286566Y0002353205D01*
X0001286887Y0002353375D01*
X0001300404Y0002360684D01*
X0001302355Y0002362000D01*
X0001304328Y0002363291D01*
X0001304609Y0002363520D01*
X0001316449Y0002373316D01*
X0001318109Y0002374986D01*
X0001319792Y0002376635D01*
X0001320023Y0002376914D01*
X0001329735Y0002388823D01*
X0001331039Y0002390785D01*
X0001332369Y0002392728D01*
X0001332542Y0002393047D01*
X0001339756Y0002406615D01*
X0001340654Y0002408793D01*
X0001341582Y0002410957D01*
X0001341689Y0002411304D01*
X0001343200Y0002416307D01*
X0001365708Y0002416307D01*
X0001365708Y0002402852D01*
X0001368333Y0002389655D01*
X0001373482Y0002377224D01*
X0001380957Y0002366037D01*
X0001390472Y0002356522D01*
X0001401659Y0002349047D01*
X0001414090Y0002343898D01*
X0001427287Y0002341273D01*
X0001440742Y0002341273D01*
X0001453939Y0002343898D01*
X0001466370Y0002349047D01*
X0001477558Y0002356522D01*
X0001487072Y0002366037D01*
X0001494548Y0002377224D01*
X0001499697Y0002389655D01*
X0001502322Y0002402852D01*
X0001502322Y0002416307D01*
X0001499697Y0002429504D01*
X0001494548Y0002441935D01*
X0001487072Y0002453123D01*
X0001477558Y0002462637D01*
X0001466370Y0002470113D01*
X0001453939Y0002475262D01*
X0001440742Y0002477887D01*
X0001427287Y0002477887D01*
X0001414090Y0002475262D01*
X0001401659Y0002470113D01*
X0001390472Y0002462637D01*
X0001380957Y0002453123D01*
X0001373482Y0002441935D01*
X0001368333Y0002429504D01*
X0001365708Y0002416307D01*
X0001343200Y0002416307D01*
X0001346131Y0002426016D01*
X0001346588Y0002428326D01*
X0001347078Y0002430629D01*
X0001347116Y0002430990D01*
X0001348615Y0002446284D01*
X0001348615Y0002446284D01*
X0001348739Y0002447544D01*
X0001348739Y0002804427D01*
X0001348627Y0002805567D01*
X0001348630Y0002806055D01*
X0001348595Y0002806416D01*
X0001346989Y0002821700D01*
X0001346515Y0002824005D01*
X0001346074Y0002826320D01*
X0001345969Y0002826667D01*
X0001341425Y0002841347D01*
X0001340512Y0002843519D01*
X0001339630Y0002845702D01*
X0001339459Y0002846022D01*
X0001339459Y0002846022D01*
X0001339459Y0002846022D01*
X0001337683Y0002849307D01*
X0001366208Y0002849307D01*
X0001366208Y0002835852D01*
X0001368833Y0002822655D01*
X0001373982Y0002810224D01*
X0001381457Y0002799037D01*
X0001390972Y0002789522D01*
X0001402159Y0002782047D01*
X0001414590Y0002776898D01*
X0001427787Y0002774273D01*
X0001441242Y0002774273D01*
X0001454439Y0002776898D01*
X0001466870Y0002782047D01*
X0001478058Y0002789522D01*
X0001487572Y0002799037D01*
X0001495048Y0002810224D01*
X0001500197Y0002822655D01*
X0001502822Y0002835852D01*
X0001502822Y0002849307D01*
X0001500197Y0002862504D01*
X0001495048Y0002874935D01*
X0001487572Y0002886123D01*
X0001478058Y0002895637D01*
X0001466870Y0002903113D01*
X0001454439Y0002908262D01*
X0001441242Y0002910887D01*
X0001427787Y0002910887D01*
X0001414590Y0002908262D01*
X0001402159Y0002903113D01*
X0001390972Y0002895637D01*
X0001381457Y0002886123D01*
X0001373982Y0002874935D01*
X0001368833Y0002862504D01*
X0001366208Y0002849307D01*
X0001337683Y0002849307D01*
X0001332150Y0002859540D01*
X0001330833Y0002861493D01*
X0001329544Y0002863463D01*
X0001329315Y0002863745D01*
X0001319519Y0002875585D01*
X0001317848Y0002877244D01*
X0001316200Y0002878927D01*
X0001315921Y0002879159D01*
X0001304012Y0002888871D01*
X0001302050Y0002890174D01*
X0001300107Y0002891505D01*
X0001299788Y0002891678D01*
X0001286219Y0002898892D01*
X0001284042Y0002899790D01*
X0001281877Y0002900717D01*
X0001281531Y0002900825D01*
X0001266819Y0002905266D01*
X0001264509Y0002905724D01*
X0001262205Y0002906213D01*
X0001261844Y0002906251D01*
X0001246550Y0002907751D01*
X0001246550Y0002907751D01*
X0001245291Y0002907875D01*
X0001056456Y0002907875D01*
X0001056870Y0002908047D01*
X0001068058Y0002915522D01*
X0001077572Y0002925037D01*
X0001085048Y0002936224D01*
X0001090197Y0002948655D01*
X0001092822Y0002961852D01*
X0001092822Y0002975307D01*
X0001090197Y0002988504D01*
X0001085048Y0003000935D01*
X0001077572Y0003012123D01*
X0001068058Y0003021637D01*
X0001056870Y0003029113D01*
X0001044439Y0003034262D01*
X0001031242Y0003036887D01*
X0001017787Y0003036887D01*
X0001004590Y0003034262D01*
X0000992159Y0003029113D01*
X0000980972Y0003021637D01*
X0000971457Y0003012123D01*
X0000963982Y0003000935D01*
X0000958833Y0002988504D01*
X0000956208Y0002975307D01*
X0000956208Y0002961852D01*
X0000958833Y0002948655D01*
X0000963982Y0002936224D01*
X0000971457Y0002925037D01*
X0000980972Y0002915522D01*
X0000992159Y0002908047D01*
X0000992574Y0002907875D01*
X0000561456Y0002907875D01*
X0000561870Y0002908047D01*
X0000573058Y0002915522D01*
X0000582572Y0002925037D01*
X0000590048Y0002936224D01*
X0000595197Y0002948655D01*
X0000597822Y0002961852D01*
X0000597822Y0002975307D01*
X0000595197Y0002988504D01*
X0000590048Y0003000935D01*
X0000582572Y0003012123D01*
X0000573058Y0003021637D01*
X0000561870Y0003029113D01*
X0000549439Y0003034262D01*
X0000536242Y0003036887D01*
X0000522787Y0003036887D01*
X0000509590Y0003034262D01*
X0000497159Y0003029113D01*
X0000485972Y0003021637D01*
X0000476457Y0003012123D01*
X0000468982Y0003000935D01*
X0000463833Y0002988504D01*
X0000461208Y0002975307D01*
X0000461208Y0002961852D01*
X0000463833Y0002948655D01*
X0000468982Y0002936224D01*
X0000476457Y0002925037D01*
X0000485972Y0002915522D01*
X0000497159Y0002908047D01*
X0000497574Y0002907875D01*
X0000313683Y0002907875D01*
X0000312543Y0002907763D01*
X0000312055Y0002907766D01*
X0000311694Y0002907731D01*
X0000296411Y0002906124D01*
X0000294105Y0002905651D01*
X0000291790Y0002905210D01*
X0000291443Y0002905105D01*
X0000276763Y0002900560D01*
X0000274591Y0002899648D01*
X0000272408Y0002898766D01*
X0000272088Y0002898595D01*
X0000272088Y0002898595D01*
X0000272088Y0002898595D01*
X0000258570Y0002891286D01*
X0000256617Y0002889969D01*
X0000254647Y0002888680D01*
X0000254366Y0002888450D01*
X0000242525Y0002878655D01*
X0000240866Y0002876984D01*
X0000239183Y0002875336D01*
X0000238952Y0002875056D01*
X0000229239Y0002863148D01*
X0000227936Y0002861186D01*
X0000226605Y0002859243D01*
X0000226433Y0002858924D01*
X0000219218Y0002845355D01*
X0000218321Y0002843178D01*
X0000217393Y0002841013D01*
X0000217286Y0002840666D01*
X0000212844Y0002825955D01*
X0000212386Y0002823644D01*
X0000211897Y0002821341D01*
X0000211859Y0002820980D01*
X0000210359Y0002805686D01*
X0000210359Y0002805686D01*
X0000210235Y0002804427D01*
X0000210235Y0002447544D01*
X0000176300Y0002447544D01*
X0000172572Y0002453123D01*
X0000163058Y0002462637D01*
X0000151870Y0002470113D01*
X0000139439Y0002475262D01*
X0000126242Y0002477887D01*
X0000112787Y0002477887D01*
X0000099590Y0002475262D01*
X0000087159Y0002470113D01*
X0000075972Y0002462637D01*
X0000066457Y0002453123D01*
X0000058982Y0002441935D01*
X0000053833Y0002429504D01*
X0000051208Y0002416307D01*
X0000025984Y0002416307D01*
X0000025984Y0002849307D01*
X0000051208Y0002849307D01*
X0000051208Y0002835852D01*
X0000053833Y0002822655D01*
X0000058982Y0002810224D01*
X0000066457Y0002799037D01*
X0000075972Y0002789522D01*
X0000087159Y0002782047D01*
X0000099590Y0002776898D01*
X0000112787Y0002774273D01*
X0000126242Y0002774273D01*
X0000139439Y0002776898D01*
X0000151870Y0002782047D01*
X0000163058Y0002789522D01*
X0000172572Y0002799037D01*
X0000180048Y0002810224D01*
X0000185197Y0002822655D01*
X0000187822Y0002835852D01*
X0000187822Y0002849307D01*
X0000185197Y0002862504D01*
X0000180048Y0002874935D01*
X0000172572Y0002886123D01*
X0000163058Y0002895637D01*
X0000151870Y0002903113D01*
X0000139439Y0002908262D01*
X0000126242Y0002910887D01*
X0000112787Y0002910887D01*
X0000099590Y0002908262D01*
X0000087159Y0002903113D01*
X0000075972Y0002895637D01*
X0000066457Y0002886123D01*
X0000058982Y0002874935D01*
X0000053833Y0002862504D01*
X0000051208Y0002849307D01*
X0000025984Y0002849307D01*
X0000025984Y0003038101D01*
X0000027111Y0003049595D01*
X0000030080Y0003059428D01*
X0000034902Y0003068498D01*
X0000041394Y0003076458D01*
X0000049308Y0003083005D01*
X0000058344Y0003087891D01*
X0000068157Y0003090928D01*
X0000079570Y0003092128D01*
X0001478964Y0003092128D01*
X0001490458Y0003091001D01*
G37*
G04 #@! TD.AperFunction*
G04 next file*
G04 #@! TF.GenerationSoftware,KiCad,Pcbnew,(5.1.12)-1*
G04 #@! TF.CreationDate,2022-03-26T22:12:51+08:00*
G04 #@! TF.ProjectId,Nozzle,4e6f7a7a-6c65-42e6-9b69-6361645f7063,0.5*
G04 #@! TF.SameCoordinates,Original*
G04 #@! TF.FileFunction,Copper,L2,Bot*
G04 #@! TF.FilePolarity,Positive*
G04 Gerber Fmt 4.6, Leading zero omitted, Abs format (unit mm)*
G04 Created by KiCad (PCBNEW (5.1.12)-1) date 2022-03-26 22:12:51*
G01*
G04 APERTURE LIST*
G04 #@! TA.AperFunction,NonConductor*
G04 #@! TD*
G04 #@! TA.AperFunction,NonConductor*
G04 #@! TD*
G04 APERTURE END LIST*
D29*
X0003525923Y0002024071D02*
X0003535756Y0002021102D01*
X0003544826Y0002016280D01*
X0003552786Y0002009787D01*
X0003559333Y0002001873D01*
X0003564219Y0001992837D01*
X0003567256Y0001983025D01*
X0003568456Y0001971611D01*
X0003568456Y0001146940D01*
X0003567329Y0001135447D01*
X0003564360Y0001125613D01*
X0003559538Y0001116544D01*
X0003553046Y0001108584D01*
X0003545131Y0001102036D01*
X0003536096Y0001097151D01*
X0003526283Y0001094113D01*
X0003514870Y0001092914D01*
X0002115475Y0001092914D01*
X0002103982Y0001094041D01*
X0002094148Y0001097009D01*
X0002085079Y0001101832D01*
X0002077119Y0001108324D01*
X0002070571Y0001116239D01*
X0002065686Y0001125274D01*
X0002062648Y0001135087D01*
X0002061448Y0001146500D01*
X0002061448Y0001349377D01*
X0002086672Y0001349377D01*
X0002086672Y0001335922D01*
X0002089297Y0001322725D01*
X0002094447Y0001310294D01*
X0002101922Y0001299107D01*
X0002111436Y0001289592D01*
X0002122624Y0001282117D01*
X0002135055Y0001276968D01*
X0002148252Y0001274343D01*
X0002161707Y0001274343D01*
X0002174904Y0001276968D01*
X0002187335Y0001282117D01*
X0002198523Y0001289592D01*
X0002208037Y0001299107D01*
X0002215513Y0001310294D01*
X0002220662Y0001322725D01*
X0002223287Y0001335922D01*
X0002223287Y0001349377D01*
X0002220662Y0001362574D01*
X0002215513Y0001375005D01*
X0002211765Y0001380614D01*
X0002245700Y0001380614D01*
X0002245812Y0001379474D01*
X0002245809Y0001378985D01*
X0002245844Y0001378624D01*
X0002247451Y0001363341D01*
X0002247924Y0001361035D01*
X0002248366Y0001358721D01*
X0002248470Y0001358373D01*
X0002253015Y0001343693D01*
X0002253927Y0001341522D01*
X0002254810Y0001339339D01*
X0002254980Y0001339018D01*
X0002262289Y0001325500D01*
X0002263605Y0001323549D01*
X0002264895Y0001321577D01*
X0002265125Y0001321296D01*
X0002274920Y0001309455D01*
X0002276591Y0001307796D01*
X0002278239Y0001306113D01*
X0002278519Y0001305882D01*
X0002290428Y0001296169D01*
X0002292389Y0001294866D01*
X0002294332Y0001293535D01*
X0002294651Y0001293363D01*
X0002308220Y0001286148D01*
X0002310397Y0001285251D01*
X0002312562Y0001284323D01*
X0002312909Y0001284216D01*
X0002327620Y0001279774D01*
X0002329931Y0001279317D01*
X0002332234Y0001278827D01*
X0002332595Y0001278789D01*
X0002347889Y0001277290D01*
X0002347889Y0001277290D01*
X0002349148Y0001277166D01*
X0002532098Y0001277166D01*
X0002520936Y0001269707D01*
X0002511422Y0001260193D01*
X0002503947Y0001249005D01*
X0002498797Y0001236574D01*
X0002496172Y0001223377D01*
X0002496172Y0001209922D01*
X0002498797Y0001196725D01*
X0002503947Y0001184294D01*
X0002511422Y0001173107D01*
X0002520936Y0001163592D01*
X0002532124Y0001156117D01*
X0002544555Y0001150968D01*
X0002557752Y0001148343D01*
X0002571207Y0001148343D01*
X0002584404Y0001150968D01*
X0002596835Y0001156117D01*
X0002608023Y0001163592D01*
X0002617537Y0001173107D01*
X0002625013Y0001184294D01*
X0002630162Y0001196725D01*
X0002632787Y0001209922D01*
X0002632787Y0001223377D01*
X0002630162Y0001236574D01*
X0002625013Y0001249005D01*
X0002617537Y0001260193D01*
X0002608023Y0001269707D01*
X0002596861Y0001277166D01*
X0003028098Y0001277166D01*
X0003016936Y0001269707D01*
X0003007422Y0001260193D01*
X0002999947Y0001249005D01*
X0002994797Y0001236574D01*
X0002992172Y0001223377D01*
X0002992172Y0001209922D01*
X0002994797Y0001196725D01*
X0002999947Y0001184294D01*
X0003007422Y0001173107D01*
X0003016936Y0001163592D01*
X0003028124Y0001156117D01*
X0003040555Y0001150968D01*
X0003053752Y0001148343D01*
X0003067207Y0001148343D01*
X0003080404Y0001150968D01*
X0003092835Y0001156117D01*
X0003104023Y0001163592D01*
X0003113537Y0001173107D01*
X0003121013Y0001184294D01*
X0003126162Y0001196725D01*
X0003128787Y0001209922D01*
X0003128787Y0001223377D01*
X0003126162Y0001236574D01*
X0003121013Y0001249005D01*
X0003113537Y0001260193D01*
X0003104023Y0001269707D01*
X0003092861Y0001277166D01*
X0003280756Y0001277166D01*
X0003281896Y0001277278D01*
X0003282384Y0001277274D01*
X0003282745Y0001277310D01*
X0003298029Y0001278916D01*
X0003300334Y0001279389D01*
X0003302649Y0001279831D01*
X0003302996Y0001279936D01*
X0003317676Y0001284480D01*
X0003319848Y0001285393D01*
X0003322031Y0001286275D01*
X0003322351Y0001286445D01*
X0003335869Y0001293754D01*
X0003337820Y0001295070D01*
X0003339792Y0001296361D01*
X0003340074Y0001296590D01*
X0003351914Y0001306386D01*
X0003353573Y0001308056D01*
X0003355256Y0001309705D01*
X0003355488Y0001309984D01*
X0003365200Y0001321893D01*
X0003366504Y0001323855D01*
X0003367834Y0001325798D01*
X0003368007Y0001326117D01*
X0003375221Y0001339685D01*
X0003376119Y0001341863D01*
X0003377046Y0001344028D01*
X0003377154Y0001344374D01*
X0003378664Y0001349377D01*
X0003401172Y0001349377D01*
X0003401172Y0001335922D01*
X0003403797Y0001322725D01*
X0003408947Y0001310294D01*
X0003416422Y0001299107D01*
X0003425936Y0001289592D01*
X0003437124Y0001282117D01*
X0003449555Y0001276968D01*
X0003462752Y0001274343D01*
X0003476207Y0001274343D01*
X0003489404Y0001276968D01*
X0003501835Y0001282117D01*
X0003513023Y0001289592D01*
X0003522537Y0001299107D01*
X0003530013Y0001310294D01*
X0003535162Y0001322725D01*
X0003537787Y0001335922D01*
X0003537787Y0001349377D01*
X0003535162Y0001362574D01*
X0003530013Y0001375005D01*
X0003522537Y0001386193D01*
X0003513023Y0001395707D01*
X0003501835Y0001403183D01*
X0003489404Y0001408332D01*
X0003476207Y0001410957D01*
X0003462752Y0001410957D01*
X0003449555Y0001408332D01*
X0003437124Y0001403183D01*
X0003425936Y0001395707D01*
X0003416422Y0001386193D01*
X0003408947Y0001375005D01*
X0003403797Y0001362574D01*
X0003401172Y0001349377D01*
X0003378664Y0001349377D01*
X0003381595Y0001359086D01*
X0003382053Y0001361396D01*
X0003382542Y0001363699D01*
X0003382580Y0001364060D01*
X0003384080Y0001379354D01*
X0003384080Y0001379354D01*
X0003384204Y0001380614D01*
X0003384204Y0001737497D01*
X0003384092Y0001738637D01*
X0003384095Y0001739125D01*
X0003384060Y0001739486D01*
X0003382453Y0001754770D01*
X0003381980Y0001757075D01*
X0003381539Y0001759390D01*
X0003381434Y0001759737D01*
X0003376889Y0001774417D01*
X0003375977Y0001776589D01*
X0003375095Y0001778772D01*
X0003374924Y0001779092D01*
X0003374924Y0001779092D01*
X0003374924Y0001779093D01*
X0003373148Y0001782377D01*
X0003401672Y0001782377D01*
X0003401672Y0001768922D01*
X0003404297Y0001755725D01*
X0003409447Y0001743294D01*
X0003416922Y0001732107D01*
X0003426436Y0001722592D01*
X0003437624Y0001715117D01*
X0003450055Y0001709968D01*
X0003463252Y0001707343D01*
X0003476707Y0001707343D01*
X0003489904Y0001709968D01*
X0003502335Y0001715117D01*
X0003513523Y0001722592D01*
X0003523037Y0001732107D01*
X0003530513Y0001743294D01*
X0003535662Y0001755725D01*
X0003538287Y0001768922D01*
X0003538287Y0001782377D01*
X0003535662Y0001795574D01*
X0003530513Y0001808005D01*
X0003523037Y0001819193D01*
X0003513523Y0001828707D01*
X0003502335Y0001836183D01*
X0003489904Y0001841332D01*
X0003476707Y0001843957D01*
X0003463252Y0001843957D01*
X0003450055Y0001841332D01*
X0003437624Y0001836183D01*
X0003426436Y0001828707D01*
X0003416922Y0001819193D01*
X0003409447Y0001808005D01*
X0003404297Y0001795574D01*
X0003401672Y0001782377D01*
X0003373148Y0001782377D01*
X0003367615Y0001792610D01*
X0003366298Y0001794563D01*
X0003365009Y0001796533D01*
X0003364779Y0001796815D01*
X0003354984Y0001808655D01*
X0003353313Y0001810314D01*
X0003351665Y0001811997D01*
X0003351385Y0001812229D01*
X0003339477Y0001821941D01*
X0003337515Y0001823244D01*
X0003335572Y0001824575D01*
X0003335253Y0001824748D01*
X0003321684Y0001831962D01*
X0003319507Y0001832860D01*
X0003317342Y0001833787D01*
X0003316995Y0001833895D01*
X0003302284Y0001838336D01*
X0003299973Y0001838794D01*
X0003297670Y0001839283D01*
X0003297309Y0001839321D01*
X0003282015Y0001840821D01*
X0003282015Y0001840821D01*
X0003280756Y0001840945D01*
X0003091920Y0001840945D01*
X0003092335Y0001841117D01*
X0003103523Y0001848592D01*
X0003113037Y0001858107D01*
X0003120513Y0001869294D01*
X0003125662Y0001881725D01*
X0003128287Y0001894922D01*
X0003128287Y0001908377D01*
X0003125662Y0001921574D01*
X0003120513Y0001934005D01*
X0003113037Y0001945193D01*
X0003103523Y0001954707D01*
X0003092335Y0001962183D01*
X0003079904Y0001967332D01*
X0003066707Y0001969957D01*
X0003053252Y0001969957D01*
X0003040055Y0001967332D01*
X0003027624Y0001962183D01*
X0003016436Y0001954707D01*
X0003006922Y0001945193D01*
X0002999447Y0001934005D01*
X0002994297Y0001921574D01*
X0002991672Y0001908377D01*
X0002991672Y0001894922D01*
X0002994297Y0001881725D01*
X0002999447Y0001869294D01*
X0003006922Y0001858107D01*
X0003016436Y0001848592D01*
X0003027624Y0001841117D01*
X0003028039Y0001840945D01*
X0002596920Y0001840945D01*
X0002597335Y0001841117D01*
X0002608523Y0001848592D01*
X0002618037Y0001858107D01*
X0002625513Y0001869294D01*
X0002630662Y0001881725D01*
X0002633287Y0001894922D01*
X0002633287Y0001908377D01*
X0002630662Y0001921574D01*
X0002625513Y0001934005D01*
X0002618037Y0001945193D01*
X0002608523Y0001954707D01*
X0002597335Y0001962183D01*
X0002584904Y0001967332D01*
X0002571707Y0001969957D01*
X0002558252Y0001969957D01*
X0002545055Y0001967332D01*
X0002532624Y0001962183D01*
X0002521436Y0001954707D01*
X0002511922Y0001945193D01*
X0002504447Y0001934005D01*
X0002499297Y0001921574D01*
X0002496672Y0001908377D01*
X0002496672Y0001894922D01*
X0002499297Y0001881725D01*
X0002504447Y0001869294D01*
X0002511922Y0001858107D01*
X0002521436Y0001848592D01*
X0002532624Y0001841117D01*
X0002533039Y0001840945D01*
X0002349148Y0001840945D01*
X0002348008Y0001840833D01*
X0002347520Y0001840836D01*
X0002347159Y0001840801D01*
X0002331875Y0001839194D01*
X0002329570Y0001838721D01*
X0002327255Y0001838280D01*
X0002326908Y0001838175D01*
X0002312228Y0001833630D01*
X0002310056Y0001832718D01*
X0002307873Y0001831836D01*
X0002307553Y0001831665D01*
X0002307553Y0001831665D01*
X0002307553Y0001831665D01*
X0002294035Y0001824356D01*
X0002292082Y0001823039D01*
X0002290112Y0001821750D01*
X0002289831Y0001821520D01*
X0002277990Y0001811725D01*
X0002276331Y0001810054D01*
X0002274648Y0001808406D01*
X0002274416Y0001808126D01*
X0002264704Y0001796218D01*
X0002263401Y0001794256D01*
X0002262070Y0001792313D01*
X0002261897Y0001791994D01*
X0002254683Y0001778425D01*
X0002253785Y0001776248D01*
X0002252858Y0001774083D01*
X0002252750Y0001773736D01*
X0002248309Y0001759025D01*
X0002247851Y0001756714D01*
X0002247362Y0001754411D01*
X0002247324Y0001754050D01*
X0002245824Y0001738756D01*
X0002245824Y0001738756D01*
X0002245700Y0001737497D01*
X0002245700Y0001380614D01*
X0002211765Y0001380614D01*
X0002208037Y0001386193D01*
X0002198523Y0001395707D01*
X0002187335Y0001403183D01*
X0002174904Y0001408332D01*
X0002161707Y0001410957D01*
X0002148252Y0001410957D01*
X0002135055Y0001408332D01*
X0002122624Y0001403183D01*
X0002111436Y0001395707D01*
X0002101922Y0001386193D01*
X0002094447Y0001375005D01*
X0002089297Y0001362574D01*
X0002086672Y0001349377D01*
X0002061448Y0001349377D01*
X0002061448Y0001782377D01*
X0002086672Y0001782377D01*
X0002086672Y0001768922D01*
X0002089297Y0001755725D01*
X0002094447Y0001743294D01*
X0002101922Y0001732107D01*
X0002111436Y0001722592D01*
X0002122624Y0001715117D01*
X0002135055Y0001709968D01*
X0002148252Y0001707343D01*
X0002161707Y0001707343D01*
X0002174904Y0001709968D01*
X0002187335Y0001715117D01*
X0002198523Y0001722592D01*
X0002208037Y0001732107D01*
X0002215513Y0001743294D01*
X0002220662Y0001755725D01*
X0002223287Y0001768922D01*
X0002223287Y0001782377D01*
X0002220662Y0001795574D01*
X0002215513Y0001808005D01*
X0002208037Y0001819193D01*
X0002198523Y0001828707D01*
X0002187335Y0001836183D01*
X0002174904Y0001841332D01*
X0002161707Y0001843957D01*
X0002148252Y0001843957D01*
X0002135055Y0001841332D01*
X0002122624Y0001836183D01*
X0002111436Y0001828707D01*
X0002101922Y0001819193D01*
X0002094447Y0001808005D01*
X0002089297Y0001795574D01*
X0002086672Y0001782377D01*
X0002061448Y0001782377D01*
X0002061448Y0001971171D01*
X0002062575Y0001982665D01*
X0002065544Y0001992498D01*
X0002070367Y0002001568D01*
X0002076859Y0002009528D01*
X0002084773Y0002016075D01*
X0002093809Y0002020961D01*
X0002103622Y0002023998D01*
X0002115035Y0002025198D01*
X0003514429Y0002025198D01*
X0003525923Y0002024071D01*
G04 #@! TA.AperFunction,NonConductor*
D30*
G36*
X0003525923Y0002024071D02*
G01*
X0003535756Y0002021102D01*
X0003544826Y0002016280D01*
X0003552786Y0002009787D01*
X0003559333Y0002001873D01*
X0003564219Y0001992837D01*
X0003567256Y0001983025D01*
X0003568456Y0001971611D01*
X0003568456Y0001146940D01*
X0003567329Y0001135447D01*
X0003564360Y0001125613D01*
X0003559538Y0001116544D01*
X0003553046Y0001108584D01*
X0003545131Y0001102036D01*
X0003536096Y0001097151D01*
X0003526283Y0001094113D01*
X0003514870Y0001092914D01*
X0002115475Y0001092914D01*
X0002103982Y0001094041D01*
X0002094148Y0001097009D01*
X0002085079Y0001101832D01*
X0002077119Y0001108324D01*
X0002070571Y0001116239D01*
X0002065686Y0001125274D01*
X0002062648Y0001135087D01*
X0002061448Y0001146500D01*
X0002061448Y0001349377D01*
X0002086672Y0001349377D01*
X0002086672Y0001335922D01*
X0002089297Y0001322725D01*
X0002094447Y0001310294D01*
X0002101922Y0001299107D01*
X0002111436Y0001289592D01*
X0002122624Y0001282117D01*
X0002135055Y0001276968D01*
X0002148252Y0001274343D01*
X0002161707Y0001274343D01*
X0002174904Y0001276968D01*
X0002187335Y0001282117D01*
X0002198523Y0001289592D01*
X0002208037Y0001299107D01*
X0002215513Y0001310294D01*
X0002220662Y0001322725D01*
X0002223287Y0001335922D01*
X0002223287Y0001349377D01*
X0002220662Y0001362574D01*
X0002215513Y0001375005D01*
X0002211765Y0001380614D01*
X0002245700Y0001380614D01*
X0002245812Y0001379474D01*
X0002245809Y0001378985D01*
X0002245844Y0001378624D01*
X0002247451Y0001363341D01*
X0002247924Y0001361035D01*
X0002248366Y0001358721D01*
X0002248470Y0001358373D01*
X0002253015Y0001343693D01*
X0002253927Y0001341522D01*
X0002254810Y0001339339D01*
X0002254980Y0001339018D01*
X0002262289Y0001325500D01*
X0002263605Y0001323549D01*
X0002264895Y0001321577D01*
X0002265125Y0001321296D01*
X0002274920Y0001309455D01*
X0002276591Y0001307796D01*
X0002278239Y0001306113D01*
X0002278519Y0001305882D01*
X0002290428Y0001296169D01*
X0002292389Y0001294866D01*
X0002294332Y0001293535D01*
X0002294651Y0001293363D01*
X0002308220Y0001286148D01*
X0002310397Y0001285251D01*
X0002312562Y0001284323D01*
X0002312909Y0001284216D01*
X0002327620Y0001279774D01*
X0002329931Y0001279317D01*
X0002332234Y0001278827D01*
X0002332595Y0001278789D01*
X0002347889Y0001277290D01*
X0002347889Y0001277290D01*
X0002349148Y0001277166D01*
X0002532098Y0001277166D01*
X0002520936Y0001269707D01*
X0002511422Y0001260193D01*
X0002503947Y0001249005D01*
X0002498797Y0001236574D01*
X0002496172Y0001223377D01*
X0002496172Y0001209922D01*
X0002498797Y0001196725D01*
X0002503947Y0001184294D01*
X0002511422Y0001173107D01*
X0002520936Y0001163592D01*
X0002532124Y0001156117D01*
X0002544555Y0001150968D01*
X0002557752Y0001148343D01*
X0002571207Y0001148343D01*
X0002584404Y0001150968D01*
X0002596835Y0001156117D01*
X0002608023Y0001163592D01*
X0002617537Y0001173107D01*
X0002625013Y0001184294D01*
X0002630162Y0001196725D01*
X0002632787Y0001209922D01*
X0002632787Y0001223377D01*
X0002630162Y0001236574D01*
X0002625013Y0001249005D01*
X0002617537Y0001260193D01*
X0002608023Y0001269707D01*
X0002596861Y0001277166D01*
X0003028098Y0001277166D01*
X0003016936Y0001269707D01*
X0003007422Y0001260193D01*
X0002999947Y0001249005D01*
X0002994797Y0001236574D01*
X0002992172Y0001223377D01*
X0002992172Y0001209922D01*
X0002994797Y0001196725D01*
X0002999947Y0001184294D01*
X0003007422Y0001173107D01*
X0003016936Y0001163592D01*
X0003028124Y0001156117D01*
X0003040555Y0001150968D01*
X0003053752Y0001148343D01*
X0003067207Y0001148343D01*
X0003080404Y0001150968D01*
X0003092835Y0001156117D01*
X0003104023Y0001163592D01*
X0003113537Y0001173107D01*
X0003121013Y0001184294D01*
X0003126162Y0001196725D01*
X0003128787Y0001209922D01*
X0003128787Y0001223377D01*
X0003126162Y0001236574D01*
X0003121013Y0001249005D01*
X0003113537Y0001260193D01*
X0003104023Y0001269707D01*
X0003092861Y0001277166D01*
X0003280756Y0001277166D01*
X0003281896Y0001277278D01*
X0003282384Y0001277274D01*
X0003282745Y0001277310D01*
X0003298029Y0001278916D01*
X0003300334Y0001279389D01*
X0003302649Y0001279831D01*
X0003302996Y0001279936D01*
X0003317676Y0001284480D01*
X0003319848Y0001285393D01*
X0003322031Y0001286275D01*
X0003322351Y0001286445D01*
X0003335869Y0001293754D01*
X0003337820Y0001295070D01*
X0003339792Y0001296361D01*
X0003340074Y0001296590D01*
X0003351914Y0001306386D01*
X0003353573Y0001308056D01*
X0003355256Y0001309705D01*
X0003355488Y0001309984D01*
X0003365200Y0001321893D01*
X0003366504Y0001323855D01*
X0003367834Y0001325798D01*
X0003368007Y0001326117D01*
X0003375221Y0001339685D01*
X0003376119Y0001341863D01*
X0003377046Y0001344028D01*
X0003377154Y0001344374D01*
X0003378664Y0001349377D01*
X0003401172Y0001349377D01*
X0003401172Y0001335922D01*
X0003403797Y0001322725D01*
X0003408947Y0001310294D01*
X0003416422Y0001299107D01*
X0003425936Y0001289592D01*
X0003437124Y0001282117D01*
X0003449555Y0001276968D01*
X0003462752Y0001274343D01*
X0003476207Y0001274343D01*
X0003489404Y0001276968D01*
X0003501835Y0001282117D01*
X0003513023Y0001289592D01*
X0003522537Y0001299107D01*
X0003530013Y0001310294D01*
X0003535162Y0001322725D01*
X0003537787Y0001335922D01*
X0003537787Y0001349377D01*
X0003535162Y0001362574D01*
X0003530013Y0001375005D01*
X0003522537Y0001386193D01*
X0003513023Y0001395707D01*
X0003501835Y0001403183D01*
X0003489404Y0001408332D01*
X0003476207Y0001410957D01*
X0003462752Y0001410957D01*
X0003449555Y0001408332D01*
X0003437124Y0001403183D01*
X0003425936Y0001395707D01*
X0003416422Y0001386193D01*
X0003408947Y0001375005D01*
X0003403797Y0001362574D01*
X0003401172Y0001349377D01*
X0003378664Y0001349377D01*
X0003381595Y0001359086D01*
X0003382053Y0001361396D01*
X0003382542Y0001363699D01*
X0003382580Y0001364060D01*
X0003384080Y0001379354D01*
X0003384080Y0001379354D01*
X0003384204Y0001380614D01*
X0003384204Y0001737497D01*
X0003384092Y0001738637D01*
X0003384095Y0001739125D01*
X0003384060Y0001739486D01*
X0003382453Y0001754770D01*
X0003381980Y0001757075D01*
X0003381539Y0001759390D01*
X0003381434Y0001759737D01*
X0003376889Y0001774417D01*
X0003375977Y0001776589D01*
X0003375095Y0001778772D01*
X0003374924Y0001779092D01*
X0003374924Y0001779092D01*
X0003374924Y0001779093D01*
X0003373148Y0001782377D01*
X0003401672Y0001782377D01*
X0003401672Y0001768922D01*
X0003404297Y0001755725D01*
X0003409447Y0001743294D01*
X0003416922Y0001732107D01*
X0003426436Y0001722592D01*
X0003437624Y0001715117D01*
X0003450055Y0001709968D01*
X0003463252Y0001707343D01*
X0003476707Y0001707343D01*
X0003489904Y0001709968D01*
X0003502335Y0001715117D01*
X0003513523Y0001722592D01*
X0003523037Y0001732107D01*
X0003530513Y0001743294D01*
X0003535662Y0001755725D01*
X0003538287Y0001768922D01*
X0003538287Y0001782377D01*
X0003535662Y0001795574D01*
X0003530513Y0001808005D01*
X0003523037Y0001819193D01*
X0003513523Y0001828707D01*
X0003502335Y0001836183D01*
X0003489904Y0001841332D01*
X0003476707Y0001843957D01*
X0003463252Y0001843957D01*
X0003450055Y0001841332D01*
X0003437624Y0001836183D01*
X0003426436Y0001828707D01*
X0003416922Y0001819193D01*
X0003409447Y0001808005D01*
X0003404297Y0001795574D01*
X0003401672Y0001782377D01*
X0003373148Y0001782377D01*
X0003367615Y0001792610D01*
X0003366298Y0001794563D01*
X0003365009Y0001796533D01*
X0003364779Y0001796815D01*
X0003354984Y0001808655D01*
X0003353313Y0001810314D01*
X0003351665Y0001811997D01*
X0003351385Y0001812229D01*
X0003339477Y0001821941D01*
X0003337515Y0001823244D01*
X0003335572Y0001824575D01*
X0003335253Y0001824748D01*
X0003321684Y0001831962D01*
X0003319507Y0001832860D01*
X0003317342Y0001833787D01*
X0003316995Y0001833895D01*
X0003302284Y0001838336D01*
X0003299973Y0001838794D01*
X0003297670Y0001839283D01*
X0003297309Y0001839321D01*
X0003282015Y0001840821D01*
X0003282015Y0001840821D01*
X0003280756Y0001840945D01*
X0003091920Y0001840945D01*
X0003092335Y0001841117D01*
X0003103523Y0001848592D01*
X0003113037Y0001858107D01*
X0003120513Y0001869294D01*
X0003125662Y0001881725D01*
X0003128287Y0001894922D01*
X0003128287Y0001908377D01*
X0003125662Y0001921574D01*
X0003120513Y0001934005D01*
X0003113037Y0001945193D01*
X0003103523Y0001954707D01*
X0003092335Y0001962183D01*
X0003079904Y0001967332D01*
X0003066707Y0001969957D01*
X0003053252Y0001969957D01*
X0003040055Y0001967332D01*
X0003027624Y0001962183D01*
X0003016436Y0001954707D01*
X0003006922Y0001945193D01*
X0002999447Y0001934005D01*
X0002994297Y0001921574D01*
X0002991672Y0001908377D01*
X0002991672Y0001894922D01*
X0002994297Y0001881725D01*
X0002999447Y0001869294D01*
X0003006922Y0001858107D01*
X0003016436Y0001848592D01*
X0003027624Y0001841117D01*
X0003028039Y0001840945D01*
X0002596920Y0001840945D01*
X0002597335Y0001841117D01*
X0002608523Y0001848592D01*
X0002618037Y0001858107D01*
X0002625513Y0001869294D01*
X0002630662Y0001881725D01*
X0002633287Y0001894922D01*
X0002633287Y0001908377D01*
X0002630662Y0001921574D01*
X0002625513Y0001934005D01*
X0002618037Y0001945193D01*
X0002608523Y0001954707D01*
X0002597335Y0001962183D01*
X0002584904Y0001967332D01*
X0002571707Y0001969957D01*
X0002558252Y0001969957D01*
X0002545055Y0001967332D01*
X0002532624Y0001962183D01*
X0002521436Y0001954707D01*
X0002511922Y0001945193D01*
X0002504447Y0001934005D01*
X0002499297Y0001921574D01*
X0002496672Y0001908377D01*
X0002496672Y0001894922D01*
X0002499297Y0001881725D01*
X0002504447Y0001869294D01*
X0002511922Y0001858107D01*
X0002521436Y0001848592D01*
X0002532624Y0001841117D01*
X0002533039Y0001840945D01*
X0002349148Y0001840945D01*
X0002348008Y0001840833D01*
X0002347520Y0001840836D01*
X0002347159Y0001840801D01*
X0002331875Y0001839194D01*
X0002329570Y0001838721D01*
X0002327255Y0001838280D01*
X0002326908Y0001838175D01*
X0002312228Y0001833630D01*
X0002310056Y0001832718D01*
X0002307873Y0001831836D01*
X0002307553Y0001831665D01*
X0002307553Y0001831665D01*
X0002307553Y0001831665D01*
X0002294035Y0001824356D01*
X0002292082Y0001823039D01*
X0002290112Y0001821750D01*
X0002289831Y0001821520D01*
X0002277990Y0001811725D01*
X0002276331Y0001810054D01*
X0002274648Y0001808406D01*
X0002274416Y0001808126D01*
X0002264704Y0001796218D01*
X0002263401Y0001794256D01*
X0002262070Y0001792313D01*
X0002261897Y0001791994D01*
X0002254683Y0001778425D01*
X0002253785Y0001776248D01*
X0002252858Y0001774083D01*
X0002252750Y0001773736D01*
X0002248309Y0001759025D01*
X0002247851Y0001756714D01*
X0002247362Y0001754411D01*
X0002247324Y0001754050D01*
X0002245824Y0001738756D01*
X0002245824Y0001738756D01*
X0002245700Y0001737497D01*
X0002245700Y0001380614D01*
X0002211765Y0001380614D01*
X0002208037Y0001386193D01*
X0002198523Y0001395707D01*
X0002187335Y0001403183D01*
X0002174904Y0001408332D01*
X0002161707Y0001410957D01*
X0002148252Y0001410957D01*
X0002135055Y0001408332D01*
X0002122624Y0001403183D01*
X0002111436Y0001395707D01*
X0002101922Y0001386193D01*
X0002094447Y0001375005D01*
X0002089297Y0001362574D01*
X0002086672Y0001349377D01*
X0002061448Y0001349377D01*
X0002061448Y0001782377D01*
X0002086672Y0001782377D01*
X0002086672Y0001768922D01*
X0002089297Y0001755725D01*
X0002094447Y0001743294D01*
X0002101922Y0001732107D01*
X0002111436Y0001722592D01*
X0002122624Y0001715117D01*
X0002135055Y0001709968D01*
X0002148252Y0001707343D01*
X0002161707Y0001707343D01*
X0002174904Y0001709968D01*
X0002187335Y0001715117D01*
X0002198523Y0001722592D01*
X0002208037Y0001732107D01*
X0002215513Y0001743294D01*
X0002220662Y0001755725D01*
X0002223287Y0001768922D01*
X0002223287Y0001782377D01*
X0002220662Y0001795574D01*
X0002215513Y0001808005D01*
X0002208037Y0001819193D01*
X0002198523Y0001828707D01*
X0002187335Y0001836183D01*
X0002174904Y0001841332D01*
X0002161707Y0001843957D01*
X0002148252Y0001843957D01*
X0002135055Y0001841332D01*
X0002122624Y0001836183D01*
X0002111436Y0001828707D01*
X0002101922Y0001819193D01*
X0002094447Y0001808005D01*
X0002089297Y0001795574D01*
X0002086672Y0001782377D01*
X0002061448Y0001782377D01*
X0002061448Y0001971171D01*
X0002062575Y0001982665D01*
X0002065544Y0001992498D01*
X0002070367Y0002001568D01*
X0002076859Y0002009528D01*
X0002084773Y0002016075D01*
X0002093809Y0002020961D01*
X0002103622Y0002023998D01*
X0002115035Y0002025198D01*
X0003514429Y0002025198D01*
X0003525923Y0002024071D01*
G37*
G04 #@! TD.AperFunction*
G04 next file*
G04 #@! TF.GenerationSoftware,KiCad,Pcbnew,(5.1.12)-1*
G04 #@! TF.CreationDate,2022-03-26T22:19:29+08:00*
G04 #@! TF.ProjectId,Nozzle,4e6f7a7a-6c65-42e6-9b69-6361645f7063,0.5*
G04 #@! TF.SameCoordinates,Original*
G04 #@! TF.FileFunction,Copper,L2,Bot*
G04 #@! TF.FilePolarity,Positive*
G04 Gerber Fmt 4.6, Leading zero omitted, Abs format (unit mm)*
G04 Created by KiCad (PCBNEW (5.1.12)-1) date 2022-03-26 22:19:29*
G01*
G04 APERTURE LIST*
G04 #@! TA.AperFunction,ComponentPad*
G04 #@! TD*
G04 #@! TA.AperFunction,NonConductor*
G04 #@! TD*
G04 #@! TA.AperFunction,NonConductor*
G04 #@! TD*
G04 APERTURE END LIST*
D31*
X-0004724409Y0004724409D02*
X0001090590Y0003383409D03*
X0000490590Y0003382909D03*
X0000990590Y0003382909D03*
X0000390590Y0003382909D03*
D32*
X0001216389Y0003222893D02*
X0000260574Y0003222893D01*
X0000260574Y0003287834D01*
X0000285590Y0003287834D01*
X0000285590Y0003277984D01*
X0000287512Y0003268325D01*
X0000291281Y0003259225D01*
X0000296752Y0003251036D01*
X0000303717Y0003244071D01*
X0000311906Y0003238600D01*
X0000321006Y0003234830D01*
X0000330665Y0003232909D01*
X0000340515Y0003232909D01*
X0000350174Y0003234830D01*
X0000359274Y0003238600D01*
X0000367463Y0003244071D01*
X0000374428Y0003251036D01*
X0000379899Y0003259225D01*
X0000383669Y0003268325D01*
X0000385590Y0003277984D01*
X0000385590Y0003287834D01*
X0000485590Y0003287834D01*
X0000485590Y0003277984D01*
X0000487511Y0003268325D01*
X0000491281Y0003259225D01*
X0000496752Y0003251036D01*
X0000503717Y0003244071D01*
X0000511906Y0003238600D01*
X0000521006Y0003234830D01*
X0000530665Y0003232909D01*
X0000540515Y0003232909D01*
X0000550175Y0003234830D01*
X0000559274Y0003238600D01*
X0000567463Y0003244071D01*
X0000574428Y0003251036D01*
X0000579899Y0003259225D01*
X0000583669Y0003268325D01*
X0000585590Y0003277984D01*
X0000585590Y0003287834D01*
X0000685590Y0003287834D01*
X0000685590Y0003277984D01*
X0000687512Y0003268325D01*
X0000691281Y0003259225D01*
X0000696753Y0003251036D01*
X0000703717Y0003244071D01*
X0000711906Y0003238600D01*
X0000721006Y0003234830D01*
X0000730665Y0003232909D01*
X0000740515Y0003232909D01*
X0000750174Y0003234830D01*
X0000759274Y0003238600D01*
X0000767463Y0003244071D01*
X0000774428Y0003251036D01*
X0000779899Y0003259225D01*
X0000783669Y0003268325D01*
X0000785590Y0003277984D01*
X0000785590Y0003287834D01*
X0000785491Y0003288334D01*
X0000885590Y0003288334D01*
X0000885590Y0003278484D01*
X0000887511Y0003268825D01*
X0000891281Y0003259725D01*
X0000896752Y0003251536D01*
X0000903717Y0003244571D01*
X0000911906Y0003239100D01*
X0000921006Y0003235330D01*
X0000930665Y0003233409D01*
X0000940515Y0003233409D01*
X0000950175Y0003235330D01*
X0000959274Y0003239100D01*
X0000967463Y0003244571D01*
X0000974428Y0003251536D01*
X0000979899Y0003259725D01*
X0000983669Y0003268825D01*
X0000985590Y0003278484D01*
X0000985590Y0003288334D01*
X0001085590Y0003288334D01*
X0001085590Y0003278484D01*
X0001087512Y0003268825D01*
X0001091281Y0003259725D01*
X0001096753Y0003251536D01*
X0001103717Y0003244571D01*
X0001111906Y0003239100D01*
X0001121006Y0003235330D01*
X0001130665Y0003233409D01*
X0001140515Y0003233409D01*
X0001150175Y0003235330D01*
X0001159274Y0003239100D01*
X0001167463Y0003244571D01*
X0001174428Y0003251536D01*
X0001179899Y0003259725D01*
X0001183669Y0003268825D01*
X0001185590Y0003278484D01*
X0001185590Y0003288334D01*
X0001183669Y0003297993D01*
X0001179899Y0003307093D01*
X0001174428Y0003315282D01*
X0001167463Y0003322246D01*
X0001159274Y0003327718D01*
X0001150175Y0003331487D01*
X0001140515Y0003333409D01*
X0001130665Y0003333409D01*
X0001121006Y0003331487D01*
X0001111906Y0003327718D01*
X0001103717Y0003322246D01*
X0001096753Y0003315282D01*
X0001091281Y0003307093D01*
X0001087512Y0003297993D01*
X0001085590Y0003288334D01*
X0000985590Y0003288334D01*
X0000983669Y0003297993D01*
X0000979899Y0003307093D01*
X0000974428Y0003315282D01*
X0000967463Y0003322246D01*
X0000959274Y0003327718D01*
X0000950175Y0003331487D01*
X0000940515Y0003333409D01*
X0000930665Y0003333409D01*
X0000921006Y0003331487D01*
X0000911906Y0003327718D01*
X0000903717Y0003322246D01*
X0000896752Y0003315282D01*
X0000891281Y0003307093D01*
X0000887511Y0003297993D01*
X0000885590Y0003288334D01*
X0000785491Y0003288334D01*
X0000783669Y0003297493D01*
X0000779899Y0003306593D01*
X0000774428Y0003314782D01*
X0000767463Y0003321746D01*
X0000759274Y0003327218D01*
X0000750174Y0003330987D01*
X0000740515Y0003332909D01*
X0000730665Y0003332909D01*
X0000721006Y0003330987D01*
X0000711906Y0003327218D01*
X0000703717Y0003321746D01*
X0000696753Y0003314782D01*
X0000691281Y0003306593D01*
X0000687512Y0003297493D01*
X0000685590Y0003287834D01*
X0000585590Y0003287834D01*
X0000583669Y0003297493D01*
X0000579899Y0003306593D01*
X0000574428Y0003314782D01*
X0000567463Y0003321746D01*
X0000559274Y0003327218D01*
X0000550175Y0003330987D01*
X0000540515Y0003332909D01*
X0000530665Y0003332909D01*
X0000521006Y0003330987D01*
X0000511906Y0003327218D01*
X0000503717Y0003321746D01*
X0000496752Y0003314782D01*
X0000491281Y0003306593D01*
X0000487511Y0003297493D01*
X0000485590Y0003287834D01*
X0000385590Y0003287834D01*
X0000383669Y0003297493D01*
X0000379899Y0003306593D01*
X0000374428Y0003314782D01*
X0000367463Y0003321746D01*
X0000359274Y0003327218D01*
X0000350174Y0003330987D01*
X0000340515Y0003332909D01*
X0000330665Y0003332909D01*
X0000321006Y0003330987D01*
X0000311906Y0003327218D01*
X0000303717Y0003321746D01*
X0000296752Y0003314782D01*
X0000291281Y0003306593D01*
X0000287512Y0003297493D01*
X0000285590Y0003287834D01*
X0000260574Y0003287834D01*
X0000260574Y0003387019D01*
X0000348858Y0003387019D01*
X0000348858Y0003378799D01*
X0000350462Y0003370736D01*
X0000353607Y0003363141D01*
X0000358174Y0003356306D01*
X0000363987Y0003350493D01*
X0000370822Y0003345926D01*
X0000378417Y0003342780D01*
X0000386480Y0003341177D01*
X0000394700Y0003341177D01*
X0000402763Y0003342780D01*
X0000410358Y0003345926D01*
X0000417193Y0003350493D01*
X0000423006Y0003356306D01*
X0000427573Y0003363141D01*
X0000430719Y0003370736D01*
X0000432322Y0003378799D01*
X0000432322Y0003387019D01*
X0000448858Y0003387019D01*
X0000448858Y0003378799D01*
X0000450461Y0003370736D01*
X0000453607Y0003363141D01*
X0000458174Y0003356306D01*
X0000463987Y0003350493D01*
X0000470822Y0003345926D01*
X0000478417Y0003342780D01*
X0000486480Y0003341177D01*
X0000494700Y0003341177D01*
X0000502763Y0003342780D01*
X0000510358Y0003345926D01*
X0000517193Y0003350493D01*
X0000523006Y0003356306D01*
X0000527573Y0003363141D01*
X0000530719Y0003370736D01*
X0000532322Y0003378799D01*
X0000532322Y0003385856D01*
X0000561669Y0003385856D01*
X0000561669Y0003379962D01*
X0000562819Y0003374181D01*
X0000565074Y0003368736D01*
X0000568349Y0003363835D01*
X0000572516Y0003359668D01*
X0000577417Y0003356393D01*
X0000582862Y0003354138D01*
X0000588643Y0003352988D01*
X0000594537Y0003352988D01*
X0000600318Y0003354138D01*
X0000605763Y0003356393D01*
X0000610664Y0003359668D01*
X0000614831Y0003363835D01*
X0000618106Y0003368736D01*
X0000620361Y0003374181D01*
X0000621511Y0003379962D01*
X0000621511Y0003385856D01*
X0000621492Y0003385953D01*
X0000660685Y0003385953D01*
X0000660685Y0003379865D01*
X0000661872Y0003373894D01*
X0000664202Y0003368270D01*
X0000667584Y0003363208D01*
X0000671889Y0003358903D01*
X0000676951Y0003355521D01*
X0000682575Y0003353191D01*
X0000688546Y0003352003D01*
X0000694634Y0003352003D01*
X0000700605Y0003353191D01*
X0000706229Y0003355521D01*
X0000711291Y0003358903D01*
X0000715596Y0003363208D01*
X0000718978Y0003368270D01*
X0000721308Y0003373894D01*
X0000722496Y0003379865D01*
X0000722496Y0003385953D01*
X0000722358Y0003386647D01*
X0000758716Y0003386647D01*
X0000758716Y0003380171D01*
X0000759979Y0003373820D01*
X0000762457Y0003367837D01*
X0000766055Y0003362453D01*
X0000770634Y0003357874D01*
X0000776018Y0003354276D01*
X0000782001Y0003351798D01*
X0000788352Y0003350535D01*
X0000794828Y0003350535D01*
X0000801179Y0003351798D01*
X0000807162Y0003354276D01*
X0000812546Y0003357874D01*
X0000817125Y0003362453D01*
X0000820723Y0003367837D01*
X0000823201Y0003373820D01*
X0000824464Y0003380171D01*
X0000824464Y0003386647D01*
X0000824227Y0003387841D01*
X0000856748Y0003387841D01*
X0000856748Y0003380977D01*
X0000858087Y0003374246D01*
X0000860713Y0003367905D01*
X0000864526Y0003362198D01*
X0000869379Y0003357345D01*
X0000875086Y0003353532D01*
X0000881427Y0003350905D01*
X0000888158Y0003349566D01*
X0000895022Y0003349566D01*
X0000901753Y0003350905D01*
X0000908094Y0003353532D01*
X0000913801Y0003357345D01*
X0000918654Y0003362198D01*
X0000922467Y0003367905D01*
X0000925094Y0003374246D01*
X0000926433Y0003380977D01*
X0000926433Y0003387019D01*
X0000948858Y0003387019D01*
X0000948858Y0003378799D01*
X0000950462Y0003370736D01*
X0000953607Y0003363141D01*
X0000958174Y0003356306D01*
X0000963987Y0003350493D01*
X0000970822Y0003345926D01*
X0000978417Y0003342780D01*
X0000986480Y0003341177D01*
X0000994700Y0003341177D01*
X0001002763Y0003342780D01*
X0001010358Y0003345926D01*
X0001017193Y0003350493D01*
X0001023006Y0003356306D01*
X0001027573Y0003363141D01*
X0001030719Y0003370736D01*
X0001032322Y0003378799D01*
X0001032322Y0003387019D01*
X0001032223Y0003387519D01*
X0001048858Y0003387519D01*
X0001048858Y0003379299D01*
X0001050462Y0003371236D01*
X0001053607Y0003363641D01*
X0001058174Y0003356806D01*
X0001063987Y0003350993D01*
X0001070822Y0003346426D01*
X0001078417Y0003343280D01*
X0001086480Y0003341677D01*
X0001094700Y0003341677D01*
X0001102763Y0003343280D01*
X0001110358Y0003346426D01*
X0001117193Y0003350993D01*
X0001123006Y0003356806D01*
X0001127573Y0003363641D01*
X0001130719Y0003371236D01*
X0001132322Y0003379299D01*
X0001132322Y0003387519D01*
X0001130719Y0003395582D01*
X0001127573Y0003403177D01*
X0001123006Y0003410012D01*
X0001117193Y0003415825D01*
X0001110358Y0003420392D01*
X0001102763Y0003423537D01*
X0001094700Y0003425141D01*
X0001086480Y0003425141D01*
X0001078417Y0003423537D01*
X0001070822Y0003420392D01*
X0001063987Y0003415825D01*
X0001058174Y0003410012D01*
X0001053607Y0003403177D01*
X0001050462Y0003395582D01*
X0001048858Y0003387519D01*
X0001032223Y0003387519D01*
X0001030719Y0003395082D01*
X0001027573Y0003402677D01*
X0001023006Y0003409512D01*
X0001017193Y0003415325D01*
X0001010358Y0003419892D01*
X0001002763Y0003423037D01*
X0000994700Y0003424641D01*
X0000986480Y0003424641D01*
X0000978417Y0003423037D01*
X0000970822Y0003419892D01*
X0000963987Y0003415325D01*
X0000958174Y0003409512D01*
X0000953607Y0003402677D01*
X0000950462Y0003395082D01*
X0000948858Y0003387019D01*
X0000926433Y0003387019D01*
X0000926433Y0003387841D01*
X0000925094Y0003394572D01*
X0000922467Y0003400913D01*
X0000918654Y0003406620D01*
X0000913801Y0003411473D01*
X0000908094Y0003415286D01*
X0000901753Y0003417912D01*
X0000895022Y0003419251D01*
X0000888158Y0003419251D01*
X0000881427Y0003417912D01*
X0000875086Y0003415286D01*
X0000869379Y0003411473D01*
X0000864526Y0003406620D01*
X0000860713Y0003400913D01*
X0000858087Y0003394572D01*
X0000856748Y0003387841D01*
X0000824227Y0003387841D01*
X0000823201Y0003392998D01*
X0000820723Y0003398981D01*
X0000817125Y0003404365D01*
X0000812546Y0003408944D01*
X0000807162Y0003412542D01*
X0000801179Y0003415020D01*
X0000794828Y0003416283D01*
X0000788352Y0003416283D01*
X0000782001Y0003415020D01*
X0000776018Y0003412542D01*
X0000770634Y0003408944D01*
X0000766055Y0003404365D01*
X0000762457Y0003398981D01*
X0000759979Y0003392998D01*
X0000758716Y0003386647D01*
X0000722358Y0003386647D01*
X0000721308Y0003391924D01*
X0000718978Y0003397548D01*
X0000715596Y0003402610D01*
X0000711291Y0003406915D01*
X0000706229Y0003410297D01*
X0000700605Y0003412627D01*
X0000694634Y0003413814D01*
X0000688546Y0003413814D01*
X0000682575Y0003412627D01*
X0000676951Y0003410297D01*
X0000671889Y0003406915D01*
X0000667584Y0003402610D01*
X0000664202Y0003397548D01*
X0000661872Y0003391924D01*
X0000660685Y0003385953D01*
X0000621492Y0003385953D01*
X0000620361Y0003391637D01*
X0000618106Y0003397082D01*
X0000614831Y0003401983D01*
X0000610664Y0003406150D01*
X0000605763Y0003409425D01*
X0000600318Y0003411680D01*
X0000594537Y0003412830D01*
X0000588643Y0003412830D01*
X0000582862Y0003411680D01*
X0000577417Y0003409425D01*
X0000572516Y0003406150D01*
X0000568349Y0003401983D01*
X0000565074Y0003397082D01*
X0000562819Y0003391637D01*
X0000561669Y0003385856D01*
X0000532322Y0003385856D01*
X0000532322Y0003387019D01*
X0000530719Y0003395082D01*
X0000527573Y0003402677D01*
X0000523006Y0003409512D01*
X0000517193Y0003415325D01*
X0000510358Y0003419892D01*
X0000502763Y0003423037D01*
X0000494700Y0003424641D01*
X0000486480Y0003424641D01*
X0000478417Y0003423037D01*
X0000470822Y0003419892D01*
X0000463987Y0003415325D01*
X0000458174Y0003409512D01*
X0000453607Y0003402677D01*
X0000450461Y0003395082D01*
X0000448858Y0003387019D01*
X0000432322Y0003387019D01*
X0000430719Y0003395082D01*
X0000427573Y0003402677D01*
X0000423006Y0003409512D01*
X0000417193Y0003415325D01*
X0000410358Y0003419892D01*
X0000402763Y0003423037D01*
X0000394700Y0003424641D01*
X0000386480Y0003424641D01*
X0000378417Y0003423037D01*
X0000370822Y0003419892D01*
X0000363987Y0003415325D01*
X0000358174Y0003409512D01*
X0000353607Y0003402677D01*
X0000350462Y0003395082D01*
X0000348858Y0003387019D01*
X0000260574Y0003387019D01*
X0000260574Y0003487833D01*
X0000385590Y0003487833D01*
X0000385590Y0003477984D01*
X0000387511Y0003468325D01*
X0000391281Y0003459225D01*
X0000396753Y0003451036D01*
X0000403717Y0003444071D01*
X0000411906Y0003438600D01*
X0000421006Y0003434830D01*
X0000430665Y0003432909D01*
X0000440515Y0003432909D01*
X0000450175Y0003434830D01*
X0000459274Y0003438600D01*
X0000467463Y0003444071D01*
X0000474428Y0003451036D01*
X0000479899Y0003459225D01*
X0000483669Y0003468325D01*
X0000485590Y0003477984D01*
X0000485590Y0003487833D01*
X0000585590Y0003487833D01*
X0000585590Y0003477984D01*
X0000587512Y0003468325D01*
X0000591281Y0003459225D01*
X0000596752Y0003451036D01*
X0000603717Y0003444071D01*
X0000611906Y0003438600D01*
X0000621006Y0003434830D01*
X0000630665Y0003432909D01*
X0000640515Y0003432909D01*
X0000650174Y0003434830D01*
X0000659274Y0003438600D01*
X0000667463Y0003444071D01*
X0000674428Y0003451036D01*
X0000679899Y0003459225D01*
X0000683669Y0003468325D01*
X0000685590Y0003477984D01*
X0000685590Y0003487833D01*
X0000785590Y0003487833D01*
X0000785590Y0003477984D01*
X0000787511Y0003468325D01*
X0000791281Y0003459225D01*
X0000796753Y0003451036D01*
X0000803717Y0003444071D01*
X0000811906Y0003438600D01*
X0000821006Y0003434830D01*
X0000830665Y0003432909D01*
X0000840515Y0003432909D01*
X0000850175Y0003434830D01*
X0000859274Y0003438600D01*
X0000867463Y0003444071D01*
X0000874428Y0003451036D01*
X0000879899Y0003459225D01*
X0000883669Y0003468325D01*
X0000885590Y0003477984D01*
X0000885590Y0003487833D01*
X0000985590Y0003487833D01*
X0000985590Y0003477984D01*
X0000987512Y0003468325D01*
X0000991281Y0003459225D01*
X0000996753Y0003451036D01*
X0001003717Y0003444071D01*
X0001011906Y0003438600D01*
X0001021006Y0003434830D01*
X0001030665Y0003432909D01*
X0001040515Y0003432909D01*
X0001050174Y0003434830D01*
X0001059274Y0003438600D01*
X0001067463Y0003444071D01*
X0001074428Y0003451036D01*
X0001079899Y0003459225D01*
X0001083669Y0003468325D01*
X0001085590Y0003477984D01*
X0001085590Y0003487833D01*
X0001083669Y0003497493D01*
X0001079899Y0003506593D01*
X0001074428Y0003514782D01*
X0001067463Y0003521746D01*
X0001059274Y0003527218D01*
X0001050174Y0003530987D01*
X0001040515Y0003532909D01*
X0001030665Y0003532909D01*
X0001021006Y0003530987D01*
X0001011906Y0003527218D01*
X0001003717Y0003521746D01*
X0000996753Y0003514782D01*
X0000991281Y0003506593D01*
X0000987512Y0003497493D01*
X0000985590Y0003487833D01*
X0000885590Y0003487833D01*
X0000883669Y0003497493D01*
X0000879899Y0003506593D01*
X0000874428Y0003514782D01*
X0000867463Y0003521746D01*
X0000859274Y0003527218D01*
X0000850175Y0003530987D01*
X0000840515Y0003532909D01*
X0000830665Y0003532909D01*
X0000821006Y0003530987D01*
X0000811906Y0003527218D01*
X0000803717Y0003521746D01*
X0000796753Y0003514782D01*
X0000791281Y0003506593D01*
X0000787511Y0003497493D01*
X0000785590Y0003487833D01*
X0000685590Y0003487833D01*
X0000683669Y0003497493D01*
X0000679899Y0003506593D01*
X0000674428Y0003514782D01*
X0000667463Y0003521746D01*
X0000659274Y0003527218D01*
X0000650174Y0003530987D01*
X0000640515Y0003532909D01*
X0000630665Y0003532909D01*
X0000621006Y0003530987D01*
X0000611906Y0003527218D01*
X0000603717Y0003521746D01*
X0000596752Y0003514782D01*
X0000591281Y0003506593D01*
X0000587512Y0003497493D01*
X0000585590Y0003487833D01*
X0000485590Y0003487833D01*
X0000483669Y0003497493D01*
X0000479899Y0003506593D01*
X0000474428Y0003514782D01*
X0000467463Y0003521746D01*
X0000459274Y0003527218D01*
X0000450175Y0003530987D01*
X0000440515Y0003532909D01*
X0000430665Y0003532909D01*
X0000421006Y0003530987D01*
X0000411906Y0003527218D01*
X0000403717Y0003521746D01*
X0000396753Y0003514782D01*
X0000391281Y0003506593D01*
X0000387511Y0003497493D01*
X0000385590Y0003487833D01*
X0000260574Y0003487833D01*
X0000260574Y0003546515D01*
X0001216389Y0003546515D01*
X0001216389Y0003222893D01*
G04 #@! TA.AperFunction,NonConductor*
D33*
G36*
X0001216389Y0003222893D02*
G01*
X0000260574Y0003222893D01*
X0000260574Y0003287834D01*
X0000285590Y0003287834D01*
X0000285590Y0003277984D01*
X0000287512Y0003268325D01*
X0000291281Y0003259225D01*
X0000296752Y0003251036D01*
X0000303717Y0003244071D01*
X0000311906Y0003238600D01*
X0000321006Y0003234830D01*
X0000330665Y0003232909D01*
X0000340515Y0003232909D01*
X0000350174Y0003234830D01*
X0000359274Y0003238600D01*
X0000367463Y0003244071D01*
X0000374428Y0003251036D01*
X0000379899Y0003259225D01*
X0000383669Y0003268325D01*
X0000385590Y0003277984D01*
X0000385590Y0003287834D01*
X0000485590Y0003287834D01*
X0000485590Y0003277984D01*
X0000487511Y0003268325D01*
X0000491281Y0003259225D01*
X0000496752Y0003251036D01*
X0000503717Y0003244071D01*
X0000511906Y0003238600D01*
X0000521006Y0003234830D01*
X0000530665Y0003232909D01*
X0000540515Y0003232909D01*
X0000550175Y0003234830D01*
X0000559274Y0003238600D01*
X0000567463Y0003244071D01*
X0000574428Y0003251036D01*
X0000579899Y0003259225D01*
X0000583669Y0003268325D01*
X0000585590Y0003277984D01*
X0000585590Y0003287834D01*
X0000685590Y0003287834D01*
X0000685590Y0003277984D01*
X0000687512Y0003268325D01*
X0000691281Y0003259225D01*
X0000696753Y0003251036D01*
X0000703717Y0003244071D01*
X0000711906Y0003238600D01*
X0000721006Y0003234830D01*
X0000730665Y0003232909D01*
X0000740515Y0003232909D01*
X0000750174Y0003234830D01*
X0000759274Y0003238600D01*
X0000767463Y0003244071D01*
X0000774428Y0003251036D01*
X0000779899Y0003259225D01*
X0000783669Y0003268325D01*
X0000785590Y0003277984D01*
X0000785590Y0003287834D01*
X0000785491Y0003288334D01*
X0000885590Y0003288334D01*
X0000885590Y0003278484D01*
X0000887511Y0003268825D01*
X0000891281Y0003259725D01*
X0000896752Y0003251536D01*
X0000903717Y0003244571D01*
X0000911906Y0003239100D01*
X0000921006Y0003235330D01*
X0000930665Y0003233409D01*
X0000940515Y0003233409D01*
X0000950175Y0003235330D01*
X0000959274Y0003239100D01*
X0000967463Y0003244571D01*
X0000974428Y0003251536D01*
X0000979899Y0003259725D01*
X0000983669Y0003268825D01*
X0000985590Y0003278484D01*
X0000985590Y0003288334D01*
X0001085590Y0003288334D01*
X0001085590Y0003278484D01*
X0001087512Y0003268825D01*
X0001091281Y0003259725D01*
X0001096753Y0003251536D01*
X0001103717Y0003244571D01*
X0001111906Y0003239100D01*
X0001121006Y0003235330D01*
X0001130665Y0003233409D01*
X0001140515Y0003233409D01*
X0001150175Y0003235330D01*
X0001159274Y0003239100D01*
X0001167463Y0003244571D01*
X0001174428Y0003251536D01*
X0001179899Y0003259725D01*
X0001183669Y0003268825D01*
X0001185590Y0003278484D01*
X0001185590Y0003288334D01*
X0001183669Y0003297993D01*
X0001179899Y0003307093D01*
X0001174428Y0003315282D01*
X0001167463Y0003322246D01*
X0001159274Y0003327718D01*
X0001150175Y0003331487D01*
X0001140515Y0003333409D01*
X0001130665Y0003333409D01*
X0001121006Y0003331487D01*
X0001111906Y0003327718D01*
X0001103717Y0003322246D01*
X0001096753Y0003315282D01*
X0001091281Y0003307093D01*
X0001087512Y0003297993D01*
X0001085590Y0003288334D01*
X0000985590Y0003288334D01*
X0000983669Y0003297993D01*
X0000979899Y0003307093D01*
X0000974428Y0003315282D01*
X0000967463Y0003322246D01*
X0000959274Y0003327718D01*
X0000950175Y0003331487D01*
X0000940515Y0003333409D01*
X0000930665Y0003333409D01*
X0000921006Y0003331487D01*
X0000911906Y0003327718D01*
X0000903717Y0003322246D01*
X0000896752Y0003315282D01*
X0000891281Y0003307093D01*
X0000887511Y0003297993D01*
X0000885590Y0003288334D01*
X0000785491Y0003288334D01*
X0000783669Y0003297493D01*
X0000779899Y0003306593D01*
X0000774428Y0003314782D01*
X0000767463Y0003321746D01*
X0000759274Y0003327218D01*
X0000750174Y0003330987D01*
X0000740515Y0003332909D01*
X0000730665Y0003332909D01*
X0000721006Y0003330987D01*
X0000711906Y0003327218D01*
X0000703717Y0003321746D01*
X0000696753Y0003314782D01*
X0000691281Y0003306593D01*
X0000687512Y0003297493D01*
X0000685590Y0003287834D01*
X0000585590Y0003287834D01*
X0000583669Y0003297493D01*
X0000579899Y0003306593D01*
X0000574428Y0003314782D01*
X0000567463Y0003321746D01*
X0000559274Y0003327218D01*
X0000550175Y0003330987D01*
X0000540515Y0003332909D01*
X0000530665Y0003332909D01*
X0000521006Y0003330987D01*
X0000511906Y0003327218D01*
X0000503717Y0003321746D01*
X0000496752Y0003314782D01*
X0000491281Y0003306593D01*
X0000487511Y0003297493D01*
X0000485590Y0003287834D01*
X0000385590Y0003287834D01*
X0000383669Y0003297493D01*
X0000379899Y0003306593D01*
X0000374428Y0003314782D01*
X0000367463Y0003321746D01*
X0000359274Y0003327218D01*
X0000350174Y0003330987D01*
X0000340515Y0003332909D01*
X0000330665Y0003332909D01*
X0000321006Y0003330987D01*
X0000311906Y0003327218D01*
X0000303717Y0003321746D01*
X0000296752Y0003314782D01*
X0000291281Y0003306593D01*
X0000287512Y0003297493D01*
X0000285590Y0003287834D01*
X0000260574Y0003287834D01*
X0000260574Y0003387019D01*
X0000348858Y0003387019D01*
X0000348858Y0003378799D01*
X0000350462Y0003370736D01*
X0000353607Y0003363141D01*
X0000358174Y0003356306D01*
X0000363987Y0003350493D01*
X0000370822Y0003345926D01*
X0000378417Y0003342780D01*
X0000386480Y0003341177D01*
X0000394700Y0003341177D01*
X0000402763Y0003342780D01*
X0000410358Y0003345926D01*
X0000417193Y0003350493D01*
X0000423006Y0003356306D01*
X0000427573Y0003363141D01*
X0000430719Y0003370736D01*
X0000432322Y0003378799D01*
X0000432322Y0003387019D01*
X0000448858Y0003387019D01*
X0000448858Y0003378799D01*
X0000450461Y0003370736D01*
X0000453607Y0003363141D01*
X0000458174Y0003356306D01*
X0000463987Y0003350493D01*
X0000470822Y0003345926D01*
X0000478417Y0003342780D01*
X0000486480Y0003341177D01*
X0000494700Y0003341177D01*
X0000502763Y0003342780D01*
X0000510358Y0003345926D01*
X0000517193Y0003350493D01*
X0000523006Y0003356306D01*
X0000527573Y0003363141D01*
X0000530719Y0003370736D01*
X0000532322Y0003378799D01*
X0000532322Y0003385856D01*
X0000561669Y0003385856D01*
X0000561669Y0003379962D01*
X0000562819Y0003374181D01*
X0000565074Y0003368736D01*
X0000568349Y0003363835D01*
X0000572516Y0003359668D01*
X0000577417Y0003356393D01*
X0000582862Y0003354138D01*
X0000588643Y0003352988D01*
X0000594537Y0003352988D01*
X0000600318Y0003354138D01*
X0000605763Y0003356393D01*
X0000610664Y0003359668D01*
X0000614831Y0003363835D01*
X0000618106Y0003368736D01*
X0000620361Y0003374181D01*
X0000621511Y0003379962D01*
X0000621511Y0003385856D01*
X0000621492Y0003385953D01*
X0000660685Y0003385953D01*
X0000660685Y0003379865D01*
X0000661872Y0003373894D01*
X0000664202Y0003368270D01*
X0000667584Y0003363208D01*
X0000671889Y0003358903D01*
X0000676951Y0003355521D01*
X0000682575Y0003353191D01*
X0000688546Y0003352003D01*
X0000694634Y0003352003D01*
X0000700605Y0003353191D01*
X0000706229Y0003355521D01*
X0000711291Y0003358903D01*
X0000715596Y0003363208D01*
X0000718978Y0003368270D01*
X0000721308Y0003373894D01*
X0000722496Y0003379865D01*
X0000722496Y0003385953D01*
X0000722358Y0003386647D01*
X0000758716Y0003386647D01*
X0000758716Y0003380171D01*
X0000759979Y0003373820D01*
X0000762457Y0003367837D01*
X0000766055Y0003362453D01*
X0000770634Y0003357874D01*
X0000776018Y0003354276D01*
X0000782001Y0003351798D01*
X0000788352Y0003350535D01*
X0000794828Y0003350535D01*
X0000801179Y0003351798D01*
X0000807162Y0003354276D01*
X0000812546Y0003357874D01*
X0000817125Y0003362453D01*
X0000820723Y0003367837D01*
X0000823201Y0003373820D01*
X0000824464Y0003380171D01*
X0000824464Y0003386647D01*
X0000824227Y0003387841D01*
X0000856748Y0003387841D01*
X0000856748Y0003380977D01*
X0000858087Y0003374246D01*
X0000860713Y0003367905D01*
X0000864526Y0003362198D01*
X0000869379Y0003357345D01*
X0000875086Y0003353532D01*
X0000881427Y0003350905D01*
X0000888158Y0003349566D01*
X0000895022Y0003349566D01*
X0000901753Y0003350905D01*
X0000908094Y0003353532D01*
X0000913801Y0003357345D01*
X0000918654Y0003362198D01*
X0000922467Y0003367905D01*
X0000925094Y0003374246D01*
X0000926433Y0003380977D01*
X0000926433Y0003387019D01*
X0000948858Y0003387019D01*
X0000948858Y0003378799D01*
X0000950462Y0003370736D01*
X0000953607Y0003363141D01*
X0000958174Y0003356306D01*
X0000963987Y0003350493D01*
X0000970822Y0003345926D01*
X0000978417Y0003342780D01*
X0000986480Y0003341177D01*
X0000994700Y0003341177D01*
X0001002763Y0003342780D01*
X0001010358Y0003345926D01*
X0001017193Y0003350493D01*
X0001023006Y0003356306D01*
X0001027573Y0003363141D01*
X0001030719Y0003370736D01*
X0001032322Y0003378799D01*
X0001032322Y0003387019D01*
X0001032223Y0003387519D01*
X0001048858Y0003387519D01*
X0001048858Y0003379299D01*
X0001050462Y0003371236D01*
X0001053607Y0003363641D01*
X0001058174Y0003356806D01*
X0001063987Y0003350993D01*
X0001070822Y0003346426D01*
X0001078417Y0003343280D01*
X0001086480Y0003341677D01*
X0001094700Y0003341677D01*
X0001102763Y0003343280D01*
X0001110358Y0003346426D01*
X0001117193Y0003350993D01*
X0001123006Y0003356806D01*
X0001127573Y0003363641D01*
X0001130719Y0003371236D01*
X0001132322Y0003379299D01*
X0001132322Y0003387519D01*
X0001130719Y0003395582D01*
X0001127573Y0003403177D01*
X0001123006Y0003410012D01*
X0001117193Y0003415825D01*
X0001110358Y0003420392D01*
X0001102763Y0003423537D01*
X0001094700Y0003425141D01*
X0001086480Y0003425141D01*
X0001078417Y0003423537D01*
X0001070822Y0003420392D01*
X0001063987Y0003415825D01*
X0001058174Y0003410012D01*
X0001053607Y0003403177D01*
X0001050462Y0003395582D01*
X0001048858Y0003387519D01*
X0001032223Y0003387519D01*
X0001030719Y0003395082D01*
X0001027573Y0003402677D01*
X0001023006Y0003409512D01*
X0001017193Y0003415325D01*
X0001010358Y0003419892D01*
X0001002763Y0003423037D01*
X0000994700Y0003424641D01*
X0000986480Y0003424641D01*
X0000978417Y0003423037D01*
X0000970822Y0003419892D01*
X0000963987Y0003415325D01*
X0000958174Y0003409512D01*
X0000953607Y0003402677D01*
X0000950462Y0003395082D01*
X0000948858Y0003387019D01*
X0000926433Y0003387019D01*
X0000926433Y0003387841D01*
X0000925094Y0003394572D01*
X0000922467Y0003400913D01*
X0000918654Y0003406620D01*
X0000913801Y0003411473D01*
X0000908094Y0003415286D01*
X0000901753Y0003417912D01*
X0000895022Y0003419251D01*
X0000888158Y0003419251D01*
X0000881427Y0003417912D01*
X0000875086Y0003415286D01*
X0000869379Y0003411473D01*
X0000864526Y0003406620D01*
X0000860713Y0003400913D01*
X0000858087Y0003394572D01*
X0000856748Y0003387841D01*
X0000824227Y0003387841D01*
X0000823201Y0003392998D01*
X0000820723Y0003398981D01*
X0000817125Y0003404365D01*
X0000812546Y0003408944D01*
X0000807162Y0003412542D01*
X0000801179Y0003415020D01*
X0000794828Y0003416283D01*
X0000788352Y0003416283D01*
X0000782001Y0003415020D01*
X0000776018Y0003412542D01*
X0000770634Y0003408944D01*
X0000766055Y0003404365D01*
X0000762457Y0003398981D01*
X0000759979Y0003392998D01*
X0000758716Y0003386647D01*
X0000722358Y0003386647D01*
X0000721308Y0003391924D01*
X0000718978Y0003397548D01*
X0000715596Y0003402610D01*
X0000711291Y0003406915D01*
X0000706229Y0003410297D01*
X0000700605Y0003412627D01*
X0000694634Y0003413814D01*
X0000688546Y0003413814D01*
X0000682575Y0003412627D01*
X0000676951Y0003410297D01*
X0000671889Y0003406915D01*
X0000667584Y0003402610D01*
X0000664202Y0003397548D01*
X0000661872Y0003391924D01*
X0000660685Y0003385953D01*
X0000621492Y0003385953D01*
X0000620361Y0003391637D01*
X0000618106Y0003397082D01*
X0000614831Y0003401983D01*
X0000610664Y0003406150D01*
X0000605763Y0003409425D01*
X0000600318Y0003411680D01*
X0000594537Y0003412830D01*
X0000588643Y0003412830D01*
X0000582862Y0003411680D01*
X0000577417Y0003409425D01*
X0000572516Y0003406150D01*
X0000568349Y0003401983D01*
X0000565074Y0003397082D01*
X0000562819Y0003391637D01*
X0000561669Y0003385856D01*
X0000532322Y0003385856D01*
X0000532322Y0003387019D01*
X0000530719Y0003395082D01*
X0000527573Y0003402677D01*
X0000523006Y0003409512D01*
X0000517193Y0003415325D01*
X0000510358Y0003419892D01*
X0000502763Y0003423037D01*
X0000494700Y0003424641D01*
X0000486480Y0003424641D01*
X0000478417Y0003423037D01*
X0000470822Y0003419892D01*
X0000463987Y0003415325D01*
X0000458174Y0003409512D01*
X0000453607Y0003402677D01*
X0000450461Y0003395082D01*
X0000448858Y0003387019D01*
X0000432322Y0003387019D01*
X0000430719Y0003395082D01*
X0000427573Y0003402677D01*
X0000423006Y0003409512D01*
X0000417193Y0003415325D01*
X0000410358Y0003419892D01*
X0000402763Y0003423037D01*
X0000394700Y0003424641D01*
X0000386480Y0003424641D01*
X0000378417Y0003423037D01*
X0000370822Y0003419892D01*
X0000363987Y0003415325D01*
X0000358174Y0003409512D01*
X0000353607Y0003402677D01*
X0000350462Y0003395082D01*
X0000348858Y0003387019D01*
X0000260574Y0003387019D01*
X0000260574Y0003487833D01*
X0000385590Y0003487833D01*
X0000385590Y0003477984D01*
X0000387511Y0003468325D01*
X0000391281Y0003459225D01*
X0000396753Y0003451036D01*
X0000403717Y0003444071D01*
X0000411906Y0003438600D01*
X0000421006Y0003434830D01*
X0000430665Y0003432909D01*
X0000440515Y0003432909D01*
X0000450175Y0003434830D01*
X0000459274Y0003438600D01*
X0000467463Y0003444071D01*
X0000474428Y0003451036D01*
X0000479899Y0003459225D01*
X0000483669Y0003468325D01*
X0000485590Y0003477984D01*
X0000485590Y0003487833D01*
X0000585590Y0003487833D01*
X0000585590Y0003477984D01*
X0000587512Y0003468325D01*
X0000591281Y0003459225D01*
X0000596752Y0003451036D01*
X0000603717Y0003444071D01*
X0000611906Y0003438600D01*
X0000621006Y0003434830D01*
X0000630665Y0003432909D01*
X0000640515Y0003432909D01*
X0000650174Y0003434830D01*
X0000659274Y0003438600D01*
X0000667463Y0003444071D01*
X0000674428Y0003451036D01*
X0000679899Y0003459225D01*
X0000683669Y0003468325D01*
X0000685590Y0003477984D01*
X0000685590Y0003487833D01*
X0000785590Y0003487833D01*
X0000785590Y0003477984D01*
X0000787511Y0003468325D01*
X0000791281Y0003459225D01*
X0000796753Y0003451036D01*
X0000803717Y0003444071D01*
X0000811906Y0003438600D01*
X0000821006Y0003434830D01*
X0000830665Y0003432909D01*
X0000840515Y0003432909D01*
X0000850175Y0003434830D01*
X0000859274Y0003438600D01*
X0000867463Y0003444071D01*
X0000874428Y0003451036D01*
X0000879899Y0003459225D01*
X0000883669Y0003468325D01*
X0000885590Y0003477984D01*
X0000885590Y0003487833D01*
X0000985590Y0003487833D01*
X0000985590Y0003477984D01*
X0000987512Y0003468325D01*
X0000991281Y0003459225D01*
X0000996753Y0003451036D01*
X0001003717Y0003444071D01*
X0001011906Y0003438600D01*
X0001021006Y0003434830D01*
X0001030665Y0003432909D01*
X0001040515Y0003432909D01*
X0001050174Y0003434830D01*
X0001059274Y0003438600D01*
X0001067463Y0003444071D01*
X0001074428Y0003451036D01*
X0001079899Y0003459225D01*
X0001083669Y0003468325D01*
X0001085590Y0003477984D01*
X0001085590Y0003487833D01*
X0001083669Y0003497493D01*
X0001079899Y0003506593D01*
X0001074428Y0003514782D01*
X0001067463Y0003521746D01*
X0001059274Y0003527218D01*
X0001050174Y0003530987D01*
X0001040515Y0003532909D01*
X0001030665Y0003532909D01*
X0001021006Y0003530987D01*
X0001011906Y0003527218D01*
X0001003717Y0003521746D01*
X0000996753Y0003514782D01*
X0000991281Y0003506593D01*
X0000987512Y0003497493D01*
X0000985590Y0003487833D01*
X0000885590Y0003487833D01*
X0000883669Y0003497493D01*
X0000879899Y0003506593D01*
X0000874428Y0003514782D01*
X0000867463Y0003521746D01*
X0000859274Y0003527218D01*
X0000850175Y0003530987D01*
X0000840515Y0003532909D01*
X0000830665Y0003532909D01*
X0000821006Y0003530987D01*
X0000811906Y0003527218D01*
X0000803717Y0003521746D01*
X0000796753Y0003514782D01*
X0000791281Y0003506593D01*
X0000787511Y0003497493D01*
X0000785590Y0003487833D01*
X0000685590Y0003487833D01*
X0000683669Y0003497493D01*
X0000679899Y0003506593D01*
X0000674428Y0003514782D01*
X0000667463Y0003521746D01*
X0000659274Y0003527218D01*
X0000650174Y0003530987D01*
X0000640515Y0003532909D01*
X0000630665Y0003532909D01*
X0000621006Y0003530987D01*
X0000611906Y0003527218D01*
X0000603717Y0003521746D01*
X0000596752Y0003514782D01*
X0000591281Y0003506593D01*
X0000587512Y0003497493D01*
X0000585590Y0003487833D01*
X0000485590Y0003487833D01*
X0000483669Y0003497493D01*
X0000479899Y0003506593D01*
X0000474428Y0003514782D01*
X0000467463Y0003521746D01*
X0000459274Y0003527218D01*
X0000450175Y0003530987D01*
X0000440515Y0003532909D01*
X0000430665Y0003532909D01*
X0000421006Y0003530987D01*
X0000411906Y0003527218D01*
X0000403717Y0003521746D01*
X0000396753Y0003514782D01*
X0000391281Y0003506593D01*
X0000387511Y0003497493D01*
X0000385590Y0003487833D01*
X0000260574Y0003487833D01*
X0000260574Y0003546515D01*
X0001216389Y0003546515D01*
X0001216389Y0003222893D01*
G37*
G04 #@! TD.AperFunction*
G04 next file*
G04 #@! TF.GenerationSoftware,KiCad,Pcbnew,(5.1.12)-1*
G04 #@! TF.CreationDate,2022-03-26T22:19:29+08:00*
G04 #@! TF.ProjectId,Nozzle,4e6f7a7a-6c65-42e6-9b69-6361645f7063,0.5*
G04 #@! TF.SameCoordinates,Original*
G04 #@! TF.FileFunction,Copper,L2,Bot*
G04 #@! TF.FilePolarity,Positive*
G04 Gerber Fmt 4.6, Leading zero omitted, Abs format (unit mm)*
G04 Created by KiCad (PCBNEW (5.1.12)-1) date 2022-03-26 22:19:29*
G01*
G04 APERTURE LIST*
G04 #@! TA.AperFunction,ComponentPad*
G04 #@! TD*
G04 #@! TA.AperFunction,NonConductor*
G04 #@! TD*
G04 #@! TA.AperFunction,NonConductor*
G04 #@! TD*
G04 APERTURE END LIST*
D34*
X0000511811Y-0002834645D02*
X0001852811Y0002980354D03*
X0001853311Y0002380354D03*
X0001853311Y0002880354D03*
X0001853311Y0002280354D03*
D35*
X0002013326Y0003106153D02*
X0002013326Y0002150338D01*
X0001948386Y0002150338D01*
X0001948386Y0002175354D01*
X0001958235Y0002175354D01*
X0001967895Y0002177275D01*
X0001976994Y0002181044D01*
X0001985184Y0002186516D01*
X0001992148Y0002193481D01*
X0001997620Y0002201670D01*
X0002001389Y0002210769D01*
X0002003311Y0002220429D01*
X0002003311Y0002230278D01*
X0002001389Y0002239938D01*
X0001997620Y0002249038D01*
X0001992148Y0002257227D01*
X0001985184Y0002264191D01*
X0001976994Y0002269663D01*
X0001967895Y0002273432D01*
X0001958235Y0002275354D01*
X0001948386Y0002275354D01*
X0001948386Y0002375354D01*
X0001958235Y0002375354D01*
X0001967895Y0002377275D01*
X0001976994Y0002381044D01*
X0001985184Y0002386516D01*
X0001992148Y0002393481D01*
X0001997620Y0002401670D01*
X0002001389Y0002410769D01*
X0002003311Y0002420429D01*
X0002003311Y0002430278D01*
X0002001389Y0002439938D01*
X0001997620Y0002449038D01*
X0001992148Y0002457227D01*
X0001985184Y0002464191D01*
X0001976994Y0002469663D01*
X0001967895Y0002473432D01*
X0001958235Y0002475354D01*
X0001948386Y0002475354D01*
X0001948386Y0002575354D01*
X0001958235Y0002575354D01*
X0001967895Y0002577275D01*
X0001976994Y0002581044D01*
X0001985184Y0002586516D01*
X0001992148Y0002593481D01*
X0001997620Y0002601670D01*
X0002001389Y0002610769D01*
X0002003311Y0002620429D01*
X0002003311Y0002630278D01*
X0002001389Y0002639938D01*
X0001997620Y0002649038D01*
X0001992148Y0002657227D01*
X0001985184Y0002664191D01*
X0001976994Y0002669663D01*
X0001967895Y0002673432D01*
X0001958235Y0002675354D01*
X0001948386Y0002675354D01*
X0001947886Y0002675254D01*
X0001947886Y0002775354D01*
X0001957735Y0002775354D01*
X0001967395Y0002777275D01*
X0001976494Y0002781044D01*
X0001984684Y0002786516D01*
X0001991648Y0002793481D01*
X0001997120Y0002801670D01*
X0002000889Y0002810769D01*
X0002002811Y0002820429D01*
X0002002811Y0002830278D01*
X0002000889Y0002839938D01*
X0001997120Y0002849038D01*
X0001991648Y0002857227D01*
X0001984684Y0002864191D01*
X0001976494Y0002869663D01*
X0001967395Y0002873432D01*
X0001957735Y0002875354D01*
X0001947886Y0002875354D01*
X0001947886Y0002975354D01*
X0001957735Y0002975354D01*
X0001967395Y0002977275D01*
X0001976494Y0002981044D01*
X0001984684Y0002986516D01*
X0001991648Y0002993481D01*
X0001997120Y0003001670D01*
X0002000889Y0003010769D01*
X0002002811Y0003020429D01*
X0002002811Y0003030278D01*
X0002000889Y0003039938D01*
X0001997120Y0003049038D01*
X0001991648Y0003057227D01*
X0001984684Y0003064191D01*
X0001976494Y0003069663D01*
X0001967395Y0003073432D01*
X0001957735Y0003075354D01*
X0001947886Y0003075354D01*
X0001938226Y0003073432D01*
X0001929127Y0003069663D01*
X0001920937Y0003064191D01*
X0001913973Y0003057227D01*
X0001908501Y0003049038D01*
X0001904732Y0003039938D01*
X0001902811Y0003030278D01*
X0001902811Y0003020429D01*
X0001904732Y0003010769D01*
X0001908501Y0003001670D01*
X0001913973Y0002993481D01*
X0001920937Y0002986516D01*
X0001929127Y0002981044D01*
X0001938226Y0002977275D01*
X0001947886Y0002975354D01*
X0001947886Y0002875354D01*
X0001938226Y0002873432D01*
X0001929127Y0002869663D01*
X0001920937Y0002864191D01*
X0001913973Y0002857227D01*
X0001908501Y0002849038D01*
X0001904732Y0002839938D01*
X0001902811Y0002830278D01*
X0001902811Y0002820429D01*
X0001904732Y0002810769D01*
X0001908501Y0002801670D01*
X0001913973Y0002793481D01*
X0001920937Y0002786516D01*
X0001929127Y0002781044D01*
X0001938226Y0002777275D01*
X0001947886Y0002775354D01*
X0001947886Y0002675254D01*
X0001938726Y0002673432D01*
X0001929627Y0002669663D01*
X0001921437Y0002664191D01*
X0001914473Y0002657227D01*
X0001909001Y0002649038D01*
X0001905232Y0002639938D01*
X0001903311Y0002630278D01*
X0001903311Y0002620429D01*
X0001905232Y0002610769D01*
X0001909001Y0002601670D01*
X0001914473Y0002593481D01*
X0001921437Y0002586516D01*
X0001929627Y0002581044D01*
X0001938726Y0002577275D01*
X0001948386Y0002575354D01*
X0001948386Y0002475354D01*
X0001938726Y0002473432D01*
X0001929627Y0002469663D01*
X0001921437Y0002464191D01*
X0001914473Y0002457227D01*
X0001909001Y0002449038D01*
X0001905232Y0002439938D01*
X0001903311Y0002430278D01*
X0001903311Y0002420429D01*
X0001905232Y0002410769D01*
X0001909001Y0002401670D01*
X0001914473Y0002393481D01*
X0001921437Y0002386516D01*
X0001929627Y0002381044D01*
X0001938726Y0002377275D01*
X0001948386Y0002375354D01*
X0001948386Y0002275354D01*
X0001938726Y0002273432D01*
X0001929627Y0002269663D01*
X0001921437Y0002264191D01*
X0001914473Y0002257227D01*
X0001909001Y0002249038D01*
X0001905232Y0002239938D01*
X0001903311Y0002230278D01*
X0001903311Y0002220429D01*
X0001905232Y0002210769D01*
X0001909001Y0002201670D01*
X0001914473Y0002193481D01*
X0001921437Y0002186516D01*
X0001929627Y0002181044D01*
X0001938726Y0002177275D01*
X0001948386Y0002175354D01*
X0001948386Y0002150338D01*
X0001849200Y0002150338D01*
X0001849200Y0002238622D01*
X0001857421Y0002238622D01*
X0001865483Y0002240225D01*
X0001873078Y0002243371D01*
X0001879913Y0002247938D01*
X0001885726Y0002253751D01*
X0001890293Y0002260586D01*
X0001893439Y0002268181D01*
X0001895043Y0002276244D01*
X0001895043Y0002284464D01*
X0001893439Y0002292527D01*
X0001890293Y0002300121D01*
X0001885726Y0002306957D01*
X0001879913Y0002312769D01*
X0001873078Y0002317336D01*
X0001865483Y0002320482D01*
X0001857421Y0002322086D01*
X0001849200Y0002322086D01*
X0001849200Y0002338622D01*
X0001857421Y0002338622D01*
X0001865483Y0002340225D01*
X0001873078Y0002343371D01*
X0001879913Y0002347938D01*
X0001885726Y0002353751D01*
X0001890293Y0002360586D01*
X0001893439Y0002368181D01*
X0001895043Y0002376244D01*
X0001895043Y0002384464D01*
X0001893439Y0002392527D01*
X0001890293Y0002400121D01*
X0001885726Y0002406957D01*
X0001879913Y0002412769D01*
X0001873078Y0002417337D01*
X0001865483Y0002420482D01*
X0001857421Y0002422086D01*
X0001850364Y0002422086D01*
X0001850364Y0002451433D01*
X0001856257Y0002451433D01*
X0001862038Y0002452582D01*
X0001867484Y0002454838D01*
X0001872384Y0002458112D01*
X0001876552Y0002462280D01*
X0001879826Y0002467181D01*
X0001882082Y0002472626D01*
X0001883232Y0002478407D01*
X0001883232Y0002484301D01*
X0001882082Y0002490082D01*
X0001879826Y0002495527D01*
X0001876552Y0002500428D01*
X0001872384Y0002504595D01*
X0001867484Y0002507870D01*
X0001862038Y0002510125D01*
X0001856257Y0002511275D01*
X0001850364Y0002511275D01*
X0001850267Y0002511256D01*
X0001850267Y0002550448D01*
X0001856354Y0002550448D01*
X0001862325Y0002551636D01*
X0001867950Y0002553966D01*
X0001873012Y0002557348D01*
X0001877316Y0002561653D01*
X0001880699Y0002566715D01*
X0001883028Y0002572339D01*
X0001884216Y0002578310D01*
X0001884216Y0002584398D01*
X0001883028Y0002590369D01*
X0001880699Y0002595993D01*
X0001877316Y0002601055D01*
X0001873012Y0002605360D01*
X0001867950Y0002608742D01*
X0001862325Y0002611072D01*
X0001856354Y0002612259D01*
X0001850267Y0002612259D01*
X0001849573Y0002612121D01*
X0001849573Y0002648480D01*
X0001856048Y0002648480D01*
X0001862400Y0002649743D01*
X0001868382Y0002652221D01*
X0001873766Y0002655819D01*
X0001878345Y0002660398D01*
X0001881943Y0002665782D01*
X0001884421Y0002671765D01*
X0001885685Y0002678116D01*
X0001885685Y0002684592D01*
X0001884421Y0002690943D01*
X0001881943Y0002696926D01*
X0001878345Y0002702310D01*
X0001873766Y0002706889D01*
X0001868382Y0002710486D01*
X0001862400Y0002712965D01*
X0001856048Y0002714228D01*
X0001849573Y0002714228D01*
X0001848379Y0002713990D01*
X0001848379Y0002746511D01*
X0001855242Y0002746511D01*
X0001861974Y0002747850D01*
X0001868315Y0002750477D01*
X0001874021Y0002754290D01*
X0001878874Y0002759143D01*
X0001882688Y0002764850D01*
X0001885314Y0002771191D01*
X0001886653Y0002777922D01*
X0001886653Y0002784786D01*
X0001885314Y0002791517D01*
X0001882688Y0002797858D01*
X0001878874Y0002803565D01*
X0001874021Y0002808418D01*
X0001868315Y0002812231D01*
X0001861974Y0002814857D01*
X0001855242Y0002816196D01*
X0001849200Y0002816196D01*
X0001849200Y0002838622D01*
X0001857421Y0002838622D01*
X0001865483Y0002840225D01*
X0001873078Y0002843371D01*
X0001879913Y0002847938D01*
X0001885726Y0002853751D01*
X0001890293Y0002860586D01*
X0001893439Y0002868181D01*
X0001895043Y0002876244D01*
X0001895043Y0002884464D01*
X0001893439Y0002892527D01*
X0001890293Y0002900121D01*
X0001885726Y0002906957D01*
X0001879913Y0002912769D01*
X0001873078Y0002917337D01*
X0001865483Y0002920482D01*
X0001857421Y0002922086D01*
X0001849200Y0002922086D01*
X0001848700Y0002921987D01*
X0001848700Y0002938622D01*
X0001856921Y0002938622D01*
X0001864983Y0002940225D01*
X0001872578Y0002943371D01*
X0001879413Y0002947938D01*
X0001885226Y0002953751D01*
X0001889793Y0002960586D01*
X0001892939Y0002968181D01*
X0001894543Y0002976244D01*
X0001894543Y0002984464D01*
X0001892939Y0002992527D01*
X0001889793Y0003000121D01*
X0001885226Y0003006957D01*
X0001879413Y0003012769D01*
X0001872578Y0003017336D01*
X0001864983Y0003020482D01*
X0001856921Y0003022086D01*
X0001848700Y0003022086D01*
X0001840638Y0003020482D01*
X0001833043Y0003017336D01*
X0001826208Y0003012769D01*
X0001820395Y0003006957D01*
X0001815828Y0003000121D01*
X0001812682Y0002992527D01*
X0001811078Y0002984464D01*
X0001811078Y0002976244D01*
X0001812682Y0002968181D01*
X0001815828Y0002960586D01*
X0001820395Y0002953751D01*
X0001826208Y0002947938D01*
X0001833043Y0002943371D01*
X0001840638Y0002940225D01*
X0001848700Y0002938622D01*
X0001848700Y0002921987D01*
X0001841138Y0002920482D01*
X0001833543Y0002917337D01*
X0001826708Y0002912769D01*
X0001820895Y0002906957D01*
X0001816328Y0002900121D01*
X0001813182Y0002892527D01*
X0001811578Y0002884464D01*
X0001811578Y0002876244D01*
X0001813182Y0002868181D01*
X0001816328Y0002860586D01*
X0001820895Y0002853751D01*
X0001826708Y0002847938D01*
X0001833543Y0002843371D01*
X0001841138Y0002840225D01*
X0001849200Y0002838622D01*
X0001849200Y0002816196D01*
X0001848379Y0002816196D01*
X0001841647Y0002814857D01*
X0001835306Y0002812231D01*
X0001829600Y0002808418D01*
X0001824747Y0002803565D01*
X0001820933Y0002797858D01*
X0001818307Y0002791517D01*
X0001816968Y0002784786D01*
X0001816968Y0002777922D01*
X0001818307Y0002771191D01*
X0001820933Y0002764850D01*
X0001824747Y0002759143D01*
X0001829600Y0002754290D01*
X0001835306Y0002750477D01*
X0001841647Y0002747850D01*
X0001848379Y0002746511D01*
X0001848379Y0002713990D01*
X0001843222Y0002712965D01*
X0001837239Y0002710486D01*
X0001831855Y0002706889D01*
X0001827276Y0002702310D01*
X0001823678Y0002696926D01*
X0001821200Y0002690943D01*
X0001819937Y0002684592D01*
X0001819937Y0002678116D01*
X0001821200Y0002671765D01*
X0001823678Y0002665782D01*
X0001827276Y0002660398D01*
X0001831855Y0002655819D01*
X0001837239Y0002652221D01*
X0001843222Y0002649743D01*
X0001849573Y0002648480D01*
X0001849573Y0002612121D01*
X0001844296Y0002611072D01*
X0001838671Y0002608742D01*
X0001833609Y0002605360D01*
X0001829305Y0002601055D01*
X0001825922Y0002595993D01*
X0001823593Y0002590369D01*
X0001822405Y0002584398D01*
X0001822405Y0002578310D01*
X0001823593Y0002572339D01*
X0001825922Y0002566715D01*
X0001829305Y0002561653D01*
X0001833609Y0002557348D01*
X0001838671Y0002553966D01*
X0001844296Y0002551636D01*
X0001850267Y0002550448D01*
X0001850267Y0002511256D01*
X0001844583Y0002510125D01*
X0001839137Y0002507870D01*
X0001834237Y0002504595D01*
X0001830069Y0002500428D01*
X0001826795Y0002495527D01*
X0001824539Y0002490082D01*
X0001823389Y0002484301D01*
X0001823389Y0002478407D01*
X0001824539Y0002472626D01*
X0001826795Y0002467181D01*
X0001830069Y0002462280D01*
X0001834237Y0002458112D01*
X0001839137Y0002454838D01*
X0001844583Y0002452582D01*
X0001850364Y0002451433D01*
X0001850364Y0002422086D01*
X0001849200Y0002422086D01*
X0001841138Y0002420482D01*
X0001833543Y0002417337D01*
X0001826708Y0002412769D01*
X0001820895Y0002406957D01*
X0001816328Y0002400121D01*
X0001813182Y0002392527D01*
X0001811578Y0002384464D01*
X0001811578Y0002376244D01*
X0001813182Y0002368181D01*
X0001816328Y0002360586D01*
X0001820895Y0002353751D01*
X0001826708Y0002347938D01*
X0001833543Y0002343371D01*
X0001841138Y0002340225D01*
X0001849200Y0002338622D01*
X0001849200Y0002322086D01*
X0001841138Y0002320482D01*
X0001833543Y0002317336D01*
X0001826708Y0002312769D01*
X0001820895Y0002306957D01*
X0001816328Y0002300121D01*
X0001813182Y0002292527D01*
X0001811578Y0002284464D01*
X0001811578Y0002276244D01*
X0001813182Y0002268181D01*
X0001816328Y0002260586D01*
X0001820895Y0002253751D01*
X0001826708Y0002247938D01*
X0001833543Y0002243371D01*
X0001841138Y0002240225D01*
X0001849200Y0002238622D01*
X0001849200Y0002150338D01*
X0001748386Y0002150338D01*
X0001748386Y0002275354D01*
X0001758235Y0002275354D01*
X0001767895Y0002277275D01*
X0001776994Y0002281044D01*
X0001785184Y0002286516D01*
X0001792148Y0002293481D01*
X0001797620Y0002301670D01*
X0001801389Y0002310769D01*
X0001803311Y0002320429D01*
X0001803311Y0002330278D01*
X0001801389Y0002339938D01*
X0001797620Y0002349038D01*
X0001792148Y0002357227D01*
X0001785184Y0002364191D01*
X0001776994Y0002369663D01*
X0001767895Y0002373432D01*
X0001758235Y0002375354D01*
X0001748386Y0002375354D01*
X0001748386Y0002475354D01*
X0001758235Y0002475354D01*
X0001767895Y0002477275D01*
X0001776994Y0002481044D01*
X0001785184Y0002486516D01*
X0001792148Y0002493481D01*
X0001797620Y0002501670D01*
X0001801389Y0002510769D01*
X0001803311Y0002520429D01*
X0001803311Y0002530278D01*
X0001801389Y0002539938D01*
X0001797620Y0002549038D01*
X0001792148Y0002557227D01*
X0001785184Y0002564191D01*
X0001776994Y0002569663D01*
X0001767895Y0002573432D01*
X0001758235Y0002575354D01*
X0001748386Y0002575354D01*
X0001748386Y0002675354D01*
X0001758235Y0002675354D01*
X0001767895Y0002677275D01*
X0001776994Y0002681044D01*
X0001785184Y0002686516D01*
X0001792148Y0002693481D01*
X0001797620Y0002701670D01*
X0001801389Y0002710769D01*
X0001803311Y0002720429D01*
X0001803311Y0002730278D01*
X0001801389Y0002739938D01*
X0001797620Y0002749038D01*
X0001792148Y0002757227D01*
X0001785184Y0002764191D01*
X0001776994Y0002769663D01*
X0001767895Y0002773432D01*
X0001758235Y0002775354D01*
X0001748386Y0002775354D01*
X0001748386Y0002875354D01*
X0001758235Y0002875354D01*
X0001767895Y0002877275D01*
X0001776994Y0002881044D01*
X0001785184Y0002886516D01*
X0001792148Y0002893481D01*
X0001797620Y0002901670D01*
X0001801389Y0002910769D01*
X0001803311Y0002920429D01*
X0001803311Y0002930278D01*
X0001801389Y0002939938D01*
X0001797620Y0002949038D01*
X0001792148Y0002957227D01*
X0001785184Y0002964191D01*
X0001776994Y0002969663D01*
X0001767895Y0002973432D01*
X0001758235Y0002975354D01*
X0001748386Y0002975354D01*
X0001738726Y0002973432D01*
X0001729627Y0002969663D01*
X0001721437Y0002964191D01*
X0001714473Y0002957227D01*
X0001709001Y0002949038D01*
X0001705232Y0002939938D01*
X0001703311Y0002930278D01*
X0001703311Y0002920429D01*
X0001705232Y0002910769D01*
X0001709001Y0002901670D01*
X0001714473Y0002893481D01*
X0001721437Y0002886516D01*
X0001729627Y0002881044D01*
X0001738726Y0002877275D01*
X0001748386Y0002875354D01*
X0001748386Y0002775354D01*
X0001738726Y0002773432D01*
X0001729627Y0002769663D01*
X0001721437Y0002764191D01*
X0001714473Y0002757227D01*
X0001709001Y0002749038D01*
X0001705232Y0002739938D01*
X0001703311Y0002730278D01*
X0001703311Y0002720429D01*
X0001705232Y0002710769D01*
X0001709001Y0002701670D01*
X0001714473Y0002693481D01*
X0001721437Y0002686516D01*
X0001729627Y0002681044D01*
X0001738726Y0002677275D01*
X0001748386Y0002675354D01*
X0001748386Y0002575354D01*
X0001738726Y0002573432D01*
X0001729627Y0002569663D01*
X0001721437Y0002564191D01*
X0001714473Y0002557227D01*
X0001709001Y0002549038D01*
X0001705232Y0002539938D01*
X0001703311Y0002530278D01*
X0001703311Y0002520429D01*
X0001705232Y0002510769D01*
X0001709001Y0002501670D01*
X0001714473Y0002493481D01*
X0001721437Y0002486516D01*
X0001729627Y0002481044D01*
X0001738726Y0002477275D01*
X0001748386Y0002475354D01*
X0001748386Y0002375354D01*
X0001738726Y0002373432D01*
X0001729627Y0002369663D01*
X0001721437Y0002364191D01*
X0001714473Y0002357227D01*
X0001709001Y0002349038D01*
X0001705232Y0002339938D01*
X0001703311Y0002330278D01*
X0001703311Y0002320429D01*
X0001705232Y0002310769D01*
X0001709001Y0002301670D01*
X0001714473Y0002293481D01*
X0001721437Y0002286516D01*
X0001729627Y0002281044D01*
X0001738726Y0002277275D01*
X0001748386Y0002275354D01*
X0001748386Y0002150338D01*
X0001689705Y0002150338D01*
X0001689705Y0003106153D01*
X0002013326Y0003106153D01*
G04 #@! TA.AperFunction,NonConductor*
D36*
G36*
X0002013326Y0003106153D02*
G01*
X0002013326Y0002150338D01*
X0001948386Y0002150338D01*
X0001948386Y0002175354D01*
X0001958235Y0002175354D01*
X0001967895Y0002177275D01*
X0001976994Y0002181044D01*
X0001985184Y0002186516D01*
X0001992148Y0002193481D01*
X0001997620Y0002201670D01*
X0002001389Y0002210769D01*
X0002003311Y0002220429D01*
X0002003311Y0002230278D01*
X0002001389Y0002239938D01*
X0001997620Y0002249038D01*
X0001992148Y0002257227D01*
X0001985184Y0002264191D01*
X0001976994Y0002269663D01*
X0001967895Y0002273432D01*
X0001958235Y0002275354D01*
X0001948386Y0002275354D01*
X0001948386Y0002375354D01*
X0001958235Y0002375354D01*
X0001967895Y0002377275D01*
X0001976994Y0002381044D01*
X0001985184Y0002386516D01*
X0001992148Y0002393481D01*
X0001997620Y0002401670D01*
X0002001389Y0002410769D01*
X0002003311Y0002420429D01*
X0002003311Y0002430278D01*
X0002001389Y0002439938D01*
X0001997620Y0002449038D01*
X0001992148Y0002457227D01*
X0001985184Y0002464191D01*
X0001976994Y0002469663D01*
X0001967895Y0002473432D01*
X0001958235Y0002475354D01*
X0001948386Y0002475354D01*
X0001948386Y0002575354D01*
X0001958235Y0002575354D01*
X0001967895Y0002577275D01*
X0001976994Y0002581044D01*
X0001985184Y0002586516D01*
X0001992148Y0002593481D01*
X0001997620Y0002601670D01*
X0002001389Y0002610769D01*
X0002003311Y0002620429D01*
X0002003311Y0002630278D01*
X0002001389Y0002639938D01*
X0001997620Y0002649038D01*
X0001992148Y0002657227D01*
X0001985184Y0002664191D01*
X0001976994Y0002669663D01*
X0001967895Y0002673432D01*
X0001958235Y0002675354D01*
X0001948386Y0002675354D01*
X0001947886Y0002675254D01*
X0001947886Y0002775354D01*
X0001957735Y0002775354D01*
X0001967395Y0002777275D01*
X0001976494Y0002781044D01*
X0001984684Y0002786516D01*
X0001991648Y0002793481D01*
X0001997120Y0002801670D01*
X0002000889Y0002810769D01*
X0002002811Y0002820429D01*
X0002002811Y0002830278D01*
X0002000889Y0002839938D01*
X0001997120Y0002849038D01*
X0001991648Y0002857227D01*
X0001984684Y0002864191D01*
X0001976494Y0002869663D01*
X0001967395Y0002873432D01*
X0001957735Y0002875354D01*
X0001947886Y0002875354D01*
X0001947886Y0002975354D01*
X0001957735Y0002975354D01*
X0001967395Y0002977275D01*
X0001976494Y0002981044D01*
X0001984684Y0002986516D01*
X0001991648Y0002993481D01*
X0001997120Y0003001670D01*
X0002000889Y0003010769D01*
X0002002811Y0003020429D01*
X0002002811Y0003030278D01*
X0002000889Y0003039938D01*
X0001997120Y0003049038D01*
X0001991648Y0003057227D01*
X0001984684Y0003064191D01*
X0001976494Y0003069663D01*
X0001967395Y0003073432D01*
X0001957735Y0003075354D01*
X0001947886Y0003075354D01*
X0001938226Y0003073432D01*
X0001929127Y0003069663D01*
X0001920937Y0003064191D01*
X0001913973Y0003057227D01*
X0001908501Y0003049038D01*
X0001904732Y0003039938D01*
X0001902811Y0003030278D01*
X0001902811Y0003020429D01*
X0001904732Y0003010769D01*
X0001908501Y0003001670D01*
X0001913973Y0002993481D01*
X0001920937Y0002986516D01*
X0001929127Y0002981044D01*
X0001938226Y0002977275D01*
X0001947886Y0002975354D01*
X0001947886Y0002875354D01*
X0001938226Y0002873432D01*
X0001929127Y0002869663D01*
X0001920937Y0002864191D01*
X0001913973Y0002857227D01*
X0001908501Y0002849038D01*
X0001904732Y0002839938D01*
X0001902811Y0002830278D01*
X0001902811Y0002820429D01*
X0001904732Y0002810769D01*
X0001908501Y0002801670D01*
X0001913973Y0002793481D01*
X0001920937Y0002786516D01*
X0001929127Y0002781044D01*
X0001938226Y0002777275D01*
X0001947886Y0002775354D01*
X0001947886Y0002675254D01*
X0001938726Y0002673432D01*
X0001929627Y0002669663D01*
X0001921437Y0002664191D01*
X0001914473Y0002657227D01*
X0001909001Y0002649038D01*
X0001905232Y0002639938D01*
X0001903311Y0002630278D01*
X0001903311Y0002620429D01*
X0001905232Y0002610769D01*
X0001909001Y0002601670D01*
X0001914473Y0002593481D01*
X0001921437Y0002586516D01*
X0001929627Y0002581044D01*
X0001938726Y0002577275D01*
X0001948386Y0002575354D01*
X0001948386Y0002475354D01*
X0001938726Y0002473432D01*
X0001929627Y0002469663D01*
X0001921437Y0002464191D01*
X0001914473Y0002457227D01*
X0001909001Y0002449038D01*
X0001905232Y0002439938D01*
X0001903311Y0002430278D01*
X0001903311Y0002420429D01*
X0001905232Y0002410769D01*
X0001909001Y0002401670D01*
X0001914473Y0002393481D01*
X0001921437Y0002386516D01*
X0001929627Y0002381044D01*
X0001938726Y0002377275D01*
X0001948386Y0002375354D01*
X0001948386Y0002275354D01*
X0001938726Y0002273432D01*
X0001929627Y0002269663D01*
X0001921437Y0002264191D01*
X0001914473Y0002257227D01*
X0001909001Y0002249038D01*
X0001905232Y0002239938D01*
X0001903311Y0002230278D01*
X0001903311Y0002220429D01*
X0001905232Y0002210769D01*
X0001909001Y0002201670D01*
X0001914473Y0002193481D01*
X0001921437Y0002186516D01*
X0001929627Y0002181044D01*
X0001938726Y0002177275D01*
X0001948386Y0002175354D01*
X0001948386Y0002150338D01*
X0001849200Y0002150338D01*
X0001849200Y0002238622D01*
X0001857421Y0002238622D01*
X0001865483Y0002240225D01*
X0001873078Y0002243371D01*
X0001879913Y0002247938D01*
X0001885726Y0002253751D01*
X0001890293Y0002260586D01*
X0001893439Y0002268181D01*
X0001895043Y0002276244D01*
X0001895043Y0002284464D01*
X0001893439Y0002292527D01*
X0001890293Y0002300121D01*
X0001885726Y0002306957D01*
X0001879913Y0002312769D01*
X0001873078Y0002317336D01*
X0001865483Y0002320482D01*
X0001857421Y0002322086D01*
X0001849200Y0002322086D01*
X0001849200Y0002338622D01*
X0001857421Y0002338622D01*
X0001865483Y0002340225D01*
X0001873078Y0002343371D01*
X0001879913Y0002347938D01*
X0001885726Y0002353751D01*
X0001890293Y0002360586D01*
X0001893439Y0002368181D01*
X0001895043Y0002376244D01*
X0001895043Y0002384464D01*
X0001893439Y0002392527D01*
X0001890293Y0002400121D01*
X0001885726Y0002406957D01*
X0001879913Y0002412769D01*
X0001873078Y0002417337D01*
X0001865483Y0002420482D01*
X0001857421Y0002422086D01*
X0001850364Y0002422086D01*
X0001850364Y0002451433D01*
X0001856257Y0002451433D01*
X0001862038Y0002452582D01*
X0001867484Y0002454838D01*
X0001872384Y0002458112D01*
X0001876552Y0002462280D01*
X0001879826Y0002467181D01*
X0001882082Y0002472626D01*
X0001883232Y0002478407D01*
X0001883232Y0002484301D01*
X0001882082Y0002490082D01*
X0001879826Y0002495527D01*
X0001876552Y0002500428D01*
X0001872384Y0002504595D01*
X0001867484Y0002507870D01*
X0001862038Y0002510125D01*
X0001856257Y0002511275D01*
X0001850364Y0002511275D01*
X0001850267Y0002511256D01*
X0001850267Y0002550448D01*
X0001856354Y0002550448D01*
X0001862325Y0002551636D01*
X0001867950Y0002553966D01*
X0001873012Y0002557348D01*
X0001877316Y0002561653D01*
X0001880699Y0002566715D01*
X0001883028Y0002572339D01*
X0001884216Y0002578310D01*
X0001884216Y0002584398D01*
X0001883028Y0002590369D01*
X0001880699Y0002595993D01*
X0001877316Y0002601055D01*
X0001873012Y0002605360D01*
X0001867950Y0002608742D01*
X0001862325Y0002611072D01*
X0001856354Y0002612259D01*
X0001850267Y0002612259D01*
X0001849573Y0002612121D01*
X0001849573Y0002648480D01*
X0001856048Y0002648480D01*
X0001862400Y0002649743D01*
X0001868382Y0002652221D01*
X0001873766Y0002655819D01*
X0001878345Y0002660398D01*
X0001881943Y0002665782D01*
X0001884421Y0002671765D01*
X0001885685Y0002678116D01*
X0001885685Y0002684592D01*
X0001884421Y0002690943D01*
X0001881943Y0002696926D01*
X0001878345Y0002702310D01*
X0001873766Y0002706889D01*
X0001868382Y0002710486D01*
X0001862400Y0002712965D01*
X0001856048Y0002714228D01*
X0001849573Y0002714228D01*
X0001848379Y0002713990D01*
X0001848379Y0002746511D01*
X0001855242Y0002746511D01*
X0001861974Y0002747850D01*
X0001868315Y0002750477D01*
X0001874021Y0002754290D01*
X0001878874Y0002759143D01*
X0001882688Y0002764850D01*
X0001885314Y0002771191D01*
X0001886653Y0002777922D01*
X0001886653Y0002784786D01*
X0001885314Y0002791517D01*
X0001882688Y0002797858D01*
X0001878874Y0002803565D01*
X0001874021Y0002808418D01*
X0001868315Y0002812231D01*
X0001861974Y0002814857D01*
X0001855242Y0002816196D01*
X0001849200Y0002816196D01*
X0001849200Y0002838622D01*
X0001857421Y0002838622D01*
X0001865483Y0002840225D01*
X0001873078Y0002843371D01*
X0001879913Y0002847938D01*
X0001885726Y0002853751D01*
X0001890293Y0002860586D01*
X0001893439Y0002868181D01*
X0001895043Y0002876244D01*
X0001895043Y0002884464D01*
X0001893439Y0002892527D01*
X0001890293Y0002900121D01*
X0001885726Y0002906957D01*
X0001879913Y0002912769D01*
X0001873078Y0002917337D01*
X0001865483Y0002920482D01*
X0001857421Y0002922086D01*
X0001849200Y0002922086D01*
X0001848700Y0002921987D01*
X0001848700Y0002938622D01*
X0001856921Y0002938622D01*
X0001864983Y0002940225D01*
X0001872578Y0002943371D01*
X0001879413Y0002947938D01*
X0001885226Y0002953751D01*
X0001889793Y0002960586D01*
X0001892939Y0002968181D01*
X0001894543Y0002976244D01*
X0001894543Y0002984464D01*
X0001892939Y0002992527D01*
X0001889793Y0003000121D01*
X0001885226Y0003006957D01*
X0001879413Y0003012769D01*
X0001872578Y0003017336D01*
X0001864983Y0003020482D01*
X0001856921Y0003022086D01*
X0001848700Y0003022086D01*
X0001840638Y0003020482D01*
X0001833043Y0003017336D01*
X0001826208Y0003012769D01*
X0001820395Y0003006957D01*
X0001815828Y0003000121D01*
X0001812682Y0002992527D01*
X0001811078Y0002984464D01*
X0001811078Y0002976244D01*
X0001812682Y0002968181D01*
X0001815828Y0002960586D01*
X0001820395Y0002953751D01*
X0001826208Y0002947938D01*
X0001833043Y0002943371D01*
X0001840638Y0002940225D01*
X0001848700Y0002938622D01*
X0001848700Y0002921987D01*
X0001841138Y0002920482D01*
X0001833543Y0002917337D01*
X0001826708Y0002912769D01*
X0001820895Y0002906957D01*
X0001816328Y0002900121D01*
X0001813182Y0002892527D01*
X0001811578Y0002884464D01*
X0001811578Y0002876244D01*
X0001813182Y0002868181D01*
X0001816328Y0002860586D01*
X0001820895Y0002853751D01*
X0001826708Y0002847938D01*
X0001833543Y0002843371D01*
X0001841138Y0002840225D01*
X0001849200Y0002838622D01*
X0001849200Y0002816196D01*
X0001848379Y0002816196D01*
X0001841647Y0002814857D01*
X0001835306Y0002812231D01*
X0001829600Y0002808418D01*
X0001824747Y0002803565D01*
X0001820933Y0002797858D01*
X0001818307Y0002791517D01*
X0001816968Y0002784786D01*
X0001816968Y0002777922D01*
X0001818307Y0002771191D01*
X0001820933Y0002764850D01*
X0001824747Y0002759143D01*
X0001829600Y0002754290D01*
X0001835306Y0002750477D01*
X0001841647Y0002747850D01*
X0001848379Y0002746511D01*
X0001848379Y0002713990D01*
X0001843222Y0002712965D01*
X0001837239Y0002710486D01*
X0001831855Y0002706889D01*
X0001827276Y0002702310D01*
X0001823678Y0002696926D01*
X0001821200Y0002690943D01*
X0001819937Y0002684592D01*
X0001819937Y0002678116D01*
X0001821200Y0002671765D01*
X0001823678Y0002665782D01*
X0001827276Y0002660398D01*
X0001831855Y0002655819D01*
X0001837239Y0002652221D01*
X0001843222Y0002649743D01*
X0001849573Y0002648480D01*
X0001849573Y0002612121D01*
X0001844296Y0002611072D01*
X0001838671Y0002608742D01*
X0001833609Y0002605360D01*
X0001829305Y0002601055D01*
X0001825922Y0002595993D01*
X0001823593Y0002590369D01*
X0001822405Y0002584398D01*
X0001822405Y0002578310D01*
X0001823593Y0002572339D01*
X0001825922Y0002566715D01*
X0001829305Y0002561653D01*
X0001833609Y0002557348D01*
X0001838671Y0002553966D01*
X0001844296Y0002551636D01*
X0001850267Y0002550448D01*
X0001850267Y0002511256D01*
X0001844583Y0002510125D01*
X0001839137Y0002507870D01*
X0001834237Y0002504595D01*
X0001830069Y0002500428D01*
X0001826795Y0002495527D01*
X0001824539Y0002490082D01*
X0001823389Y0002484301D01*
X0001823389Y0002478407D01*
X0001824539Y0002472626D01*
X0001826795Y0002467181D01*
X0001830069Y0002462280D01*
X0001834237Y0002458112D01*
X0001839137Y0002454838D01*
X0001844583Y0002452582D01*
X0001850364Y0002451433D01*
X0001850364Y0002422086D01*
X0001849200Y0002422086D01*
X0001841138Y0002420482D01*
X0001833543Y0002417337D01*
X0001826708Y0002412769D01*
X0001820895Y0002406957D01*
X0001816328Y0002400121D01*
X0001813182Y0002392527D01*
X0001811578Y0002384464D01*
X0001811578Y0002376244D01*
X0001813182Y0002368181D01*
X0001816328Y0002360586D01*
X0001820895Y0002353751D01*
X0001826708Y0002347938D01*
X0001833543Y0002343371D01*
X0001841138Y0002340225D01*
X0001849200Y0002338622D01*
X0001849200Y0002322086D01*
X0001841138Y0002320482D01*
X0001833543Y0002317336D01*
X0001826708Y0002312769D01*
X0001820895Y0002306957D01*
X0001816328Y0002300121D01*
X0001813182Y0002292527D01*
X0001811578Y0002284464D01*
X0001811578Y0002276244D01*
X0001813182Y0002268181D01*
X0001816328Y0002260586D01*
X0001820895Y0002253751D01*
X0001826708Y0002247938D01*
X0001833543Y0002243371D01*
X0001841138Y0002240225D01*
X0001849200Y0002238622D01*
X0001849200Y0002150338D01*
X0001748386Y0002150338D01*
X0001748386Y0002275354D01*
X0001758235Y0002275354D01*
X0001767895Y0002277275D01*
X0001776994Y0002281044D01*
X0001785184Y0002286516D01*
X0001792148Y0002293481D01*
X0001797620Y0002301670D01*
X0001801389Y0002310769D01*
X0001803311Y0002320429D01*
X0001803311Y0002330278D01*
X0001801389Y0002339938D01*
X0001797620Y0002349038D01*
X0001792148Y0002357227D01*
X0001785184Y0002364191D01*
X0001776994Y0002369663D01*
X0001767895Y0002373432D01*
X0001758235Y0002375354D01*
X0001748386Y0002375354D01*
X0001748386Y0002475354D01*
X0001758235Y0002475354D01*
X0001767895Y0002477275D01*
X0001776994Y0002481044D01*
X0001785184Y0002486516D01*
X0001792148Y0002493481D01*
X0001797620Y0002501670D01*
X0001801389Y0002510769D01*
X0001803311Y0002520429D01*
X0001803311Y0002530278D01*
X0001801389Y0002539938D01*
X0001797620Y0002549038D01*
X0001792148Y0002557227D01*
X0001785184Y0002564191D01*
X0001776994Y0002569663D01*
X0001767895Y0002573432D01*
X0001758235Y0002575354D01*
X0001748386Y0002575354D01*
X0001748386Y0002675354D01*
X0001758235Y0002675354D01*
X0001767895Y0002677275D01*
X0001776994Y0002681044D01*
X0001785184Y0002686516D01*
X0001792148Y0002693481D01*
X0001797620Y0002701670D01*
X0001801389Y0002710769D01*
X0001803311Y0002720429D01*
X0001803311Y0002730278D01*
X0001801389Y0002739938D01*
X0001797620Y0002749038D01*
X0001792148Y0002757227D01*
X0001785184Y0002764191D01*
X0001776994Y0002769663D01*
X0001767895Y0002773432D01*
X0001758235Y0002775354D01*
X0001748386Y0002775354D01*
X0001748386Y0002875354D01*
X0001758235Y0002875354D01*
X0001767895Y0002877275D01*
X0001776994Y0002881044D01*
X0001785184Y0002886516D01*
X0001792148Y0002893481D01*
X0001797620Y0002901670D01*
X0001801389Y0002910769D01*
X0001803311Y0002920429D01*
X0001803311Y0002930278D01*
X0001801389Y0002939938D01*
X0001797620Y0002949038D01*
X0001792148Y0002957227D01*
X0001785184Y0002964191D01*
X0001776994Y0002969663D01*
X0001767895Y0002973432D01*
X0001758235Y0002975354D01*
X0001748386Y0002975354D01*
X0001738726Y0002973432D01*
X0001729627Y0002969663D01*
X0001721437Y0002964191D01*
X0001714473Y0002957227D01*
X0001709001Y0002949038D01*
X0001705232Y0002939938D01*
X0001703311Y0002930278D01*
X0001703311Y0002920429D01*
X0001705232Y0002910769D01*
X0001709001Y0002901670D01*
X0001714473Y0002893481D01*
X0001721437Y0002886516D01*
X0001729627Y0002881044D01*
X0001738726Y0002877275D01*
X0001748386Y0002875354D01*
X0001748386Y0002775354D01*
X0001738726Y0002773432D01*
X0001729627Y0002769663D01*
X0001721437Y0002764191D01*
X0001714473Y0002757227D01*
X0001709001Y0002749038D01*
X0001705232Y0002739938D01*
X0001703311Y0002730278D01*
X0001703311Y0002720429D01*
X0001705232Y0002710769D01*
X0001709001Y0002701670D01*
X0001714473Y0002693481D01*
X0001721437Y0002686516D01*
X0001729627Y0002681044D01*
X0001738726Y0002677275D01*
X0001748386Y0002675354D01*
X0001748386Y0002575354D01*
X0001738726Y0002573432D01*
X0001729627Y0002569663D01*
X0001721437Y0002564191D01*
X0001714473Y0002557227D01*
X0001709001Y0002549038D01*
X0001705232Y0002539938D01*
X0001703311Y0002530278D01*
X0001703311Y0002520429D01*
X0001705232Y0002510769D01*
X0001709001Y0002501670D01*
X0001714473Y0002493481D01*
X0001721437Y0002486516D01*
X0001729627Y0002481044D01*
X0001738726Y0002477275D01*
X0001748386Y0002475354D01*
X0001748386Y0002375354D01*
X0001738726Y0002373432D01*
X0001729627Y0002369663D01*
X0001721437Y0002364191D01*
X0001714473Y0002357227D01*
X0001709001Y0002349038D01*
X0001705232Y0002339938D01*
X0001703311Y0002330278D01*
X0001703311Y0002320429D01*
X0001705232Y0002310769D01*
X0001709001Y0002301670D01*
X0001714473Y0002293481D01*
X0001721437Y0002286516D01*
X0001729627Y0002281044D01*
X0001738726Y0002277275D01*
X0001748386Y0002275354D01*
X0001748386Y0002150338D01*
X0001689705Y0002150338D01*
X0001689705Y0003106153D01*
X0002013326Y0003106153D01*
G37*
G04 #@! TD.AperFunction*
G04 next file*
G04 #@! TF.GenerationSoftware,KiCad,Pcbnew,(5.1.12)-1*
G04 #@! TF.CreationDate,2022-03-26T22:23:47+08:00*
G04 #@! TF.ProjectId,Nozzle,4e6f7a7a-6c65-42e6-9b69-6361645f7063,0.5*
G04 #@! TF.SameCoordinates,Original*
G04 #@! TF.FileFunction,Copper,L2,Bot*
G04 #@! TF.FilePolarity,Positive*
G04 Gerber Fmt 4.6, Leading zero omitted, Abs format (unit mm)*
G04 Created by KiCad (PCBNEW (5.1.12)-1) date 2022-03-26 22:23:47*
G01*
G04 APERTURE LIST*
G04 #@! TA.AperFunction,NonConductor*
G04 #@! TD*
G04 #@! TA.AperFunction,NonConductor*
G04 #@! TD*
G04 APERTURE END LIST*
D37*
X0001883909Y0000957138D02*
X0001893776Y0000954159D01*
X0001902875Y0000949320D01*
X0001910862Y0000942806D01*
X0001917432Y0000934865D01*
X0001922334Y0000925799D01*
X0001925381Y0000915954D01*
X0001926585Y0000904504D01*
X0001926803Y0000080318D01*
X0001925670Y0000068767D01*
X0001922684Y0000058875D01*
X0001917833Y0000049752D01*
X0001911302Y0000041745D01*
X0001903341Y0000035158D01*
X0001894252Y0000030244D01*
X0001884381Y0000027188D01*
X0001872918Y0000025984D01*
X0001675959Y0000025984D01*
X0001675959Y0000025984D01*
X0000080011Y0000025984D01*
X0000068517Y0000027111D01*
X0000058683Y0000030080D01*
X0000049614Y0000034902D01*
X0000041654Y0000041394D01*
X0000035106Y0000049309D01*
X0000030221Y0000058344D01*
X0000027183Y0000068156D01*
X0000025984Y0000079570D01*
X0000025984Y0000156417D01*
X0000660345Y0000156417D01*
X0000660345Y0000142961D01*
X0000662970Y0000129765D01*
X0000668119Y0000117333D01*
X0000675594Y0000106146D01*
X0000685109Y0000096631D01*
X0000696297Y0000089156D01*
X0000708728Y0000084007D01*
X0000721924Y0000081382D01*
X0000735380Y0000081382D01*
X0000748577Y0000084007D01*
X0000761008Y0000089156D01*
X0000772195Y0000096631D01*
X0000781710Y0000106146D01*
X0000789185Y0000117333D01*
X0000794334Y0000129765D01*
X0000796959Y0000142961D01*
X0000796959Y0000156417D01*
X0001156345Y0000156417D01*
X0001156345Y0000142961D01*
X0001158970Y0000129765D01*
X0001164119Y0000117333D01*
X0001171594Y0000106146D01*
X0001181109Y0000096631D01*
X0001192297Y0000089156D01*
X0001204728Y0000084007D01*
X0001217924Y0000081382D01*
X0001231380Y0000081382D01*
X0001244577Y0000084007D01*
X0001257008Y0000089156D01*
X0001268195Y0000096631D01*
X0001277710Y0000106146D01*
X0001285185Y0000117333D01*
X0001290334Y0000129765D01*
X0001292959Y0000142961D01*
X0001292959Y0000156417D01*
X0001290334Y0000169613D01*
X0001285185Y0000182044D01*
X0001277710Y0000193232D01*
X0001268195Y0000202747D01*
X0001257008Y0000210222D01*
X0001244577Y0000215371D01*
X0001231380Y0000217996D01*
X0001217924Y0000217996D01*
X0001204728Y0000215371D01*
X0001192297Y0000210222D01*
X0001181109Y0000202747D01*
X0001171594Y0000193232D01*
X0001164119Y0000182044D01*
X0001158970Y0000169613D01*
X0001156345Y0000156417D01*
X0000796959Y0000156417D01*
X0000794334Y0000169613D01*
X0000789185Y0000182044D01*
X0000781710Y0000193232D01*
X0000772195Y0000202747D01*
X0000761008Y0000210222D01*
X0000748577Y0000215371D01*
X0000735380Y0000217996D01*
X0000721924Y0000217996D01*
X0000708728Y0000215371D01*
X0000696297Y0000210222D01*
X0000685109Y0000202747D01*
X0000675594Y0000193232D01*
X0000668119Y0000182044D01*
X0000662970Y0000169613D01*
X0000660345Y0000156417D01*
X0000025984Y0000156417D01*
X0000025984Y0000282417D01*
X0000246845Y0000282417D01*
X0000246845Y0000268961D01*
X0000249470Y0000255765D01*
X0000254619Y0000243333D01*
X0000262094Y0000232146D01*
X0000271609Y0000222631D01*
X0000282797Y0000215156D01*
X0000295228Y0000210007D01*
X0000308424Y0000207382D01*
X0000321880Y0000207382D01*
X0000335077Y0000210007D01*
X0000347508Y0000215156D01*
X0000358695Y0000222631D01*
X0000368210Y0000232146D01*
X0000375685Y0000243333D01*
X0000380834Y0000255765D01*
X0000383459Y0000268961D01*
X0000383459Y0000282417D01*
X0001569345Y0000282417D01*
X0001569345Y0000268961D01*
X0001571970Y0000255765D01*
X0001577119Y0000243333D01*
X0001584594Y0000232146D01*
X0001594109Y0000222631D01*
X0001605297Y0000215156D01*
X0001617728Y0000210007D01*
X0001630924Y0000207382D01*
X0001644380Y0000207382D01*
X0001657577Y0000210007D01*
X0001670008Y0000215156D01*
X0001681195Y0000222631D01*
X0001690710Y0000232146D01*
X0001698185Y0000243333D01*
X0001703334Y0000255765D01*
X0001705959Y0000268961D01*
X0001705959Y0000282417D01*
X0001703334Y0000295613D01*
X0001698185Y0000308045D01*
X0001690710Y0000319232D01*
X0001681195Y0000328747D01*
X0001670008Y0000336222D01*
X0001657577Y0000341371D01*
X0001644380Y0000343996D01*
X0001630924Y0000343996D01*
X0001617728Y0000341371D01*
X0001605297Y0000336222D01*
X0001594109Y0000328747D01*
X0001584594Y0000319232D01*
X0001577119Y0000308045D01*
X0001571970Y0000295613D01*
X0001569345Y0000282417D01*
X0000383459Y0000282417D01*
X0000380834Y0000295613D01*
X0000375685Y0000308045D01*
X0000368210Y0000319232D01*
X0000358695Y0000328747D01*
X0000347508Y0000336222D01*
X0000335077Y0000341371D01*
X0000321880Y0000343996D01*
X0000308424Y0000343996D01*
X0000295228Y0000341371D01*
X0000282797Y0000336222D01*
X0000271609Y0000328747D01*
X0000262094Y0000319232D01*
X0000254619Y0000308045D01*
X0000249470Y0000295613D01*
X0000246845Y0000282417D01*
X0000025984Y0000282417D01*
X0000025984Y0000497917D01*
X0000051345Y0000497917D01*
X0000051345Y0000484461D01*
X0000053970Y0000471265D01*
X0000059119Y0000458833D01*
X0000066594Y0000447646D01*
X0000076109Y0000438131D01*
X0000087297Y0000430656D01*
X0000099728Y0000425507D01*
X0000112924Y0000422882D01*
X0000126380Y0000422882D01*
X0000139577Y0000425507D01*
X0000152008Y0000430656D01*
X0000163195Y0000438131D01*
X0000172710Y0000447646D01*
X0000180185Y0000458833D01*
X0000185334Y0000471265D01*
X0000187959Y0000484461D01*
X0000187959Y0000497917D01*
X0001768345Y0000497917D01*
X0001768345Y0000484461D01*
X0001770970Y0000471265D01*
X0001776119Y0000458833D01*
X0001783594Y0000447646D01*
X0001793109Y0000438131D01*
X0001804297Y0000430656D01*
X0001816728Y0000425507D01*
X0001829924Y0000422882D01*
X0001843380Y0000422882D01*
X0001856577Y0000425507D01*
X0001869008Y0000430656D01*
X0001880195Y0000438131D01*
X0001889710Y0000447646D01*
X0001897185Y0000458833D01*
X0001902334Y0000471265D01*
X0001904959Y0000484461D01*
X0001904959Y0000497917D01*
X0001902334Y0000511113D01*
X0001897185Y0000523545D01*
X0001889710Y0000534732D01*
X0001880195Y0000544247D01*
X0001869008Y0000551722D01*
X0001856577Y0000556871D01*
X0001843380Y0000559496D01*
X0001829924Y0000559496D01*
X0001816728Y0000556871D01*
X0001804297Y0000551722D01*
X0001793109Y0000544247D01*
X0001783594Y0000534732D01*
X0001776119Y0000523545D01*
X0001770970Y0000511113D01*
X0001768345Y0000497917D01*
X0000187959Y0000497917D01*
X0000185334Y0000511113D01*
X0000180185Y0000523545D01*
X0000172710Y0000534732D01*
X0000163195Y0000544247D01*
X0000152008Y0000551722D01*
X0000139577Y0000556871D01*
X0000126380Y0000559496D01*
X0000112924Y0000559496D01*
X0000099728Y0000556871D01*
X0000087297Y0000551722D01*
X0000076109Y0000544247D01*
X0000066594Y0000534732D01*
X0000059119Y0000523545D01*
X0000053970Y0000511113D01*
X0000051345Y0000497917D01*
X0000025984Y0000497917D01*
X0000025984Y0000715417D01*
X0000246845Y0000715417D01*
X0000246845Y0000701961D01*
X0000249470Y0000688765D01*
X0000254619Y0000676333D01*
X0000262094Y0000665146D01*
X0000271609Y0000655631D01*
X0000282797Y0000648156D01*
X0000295228Y0000643007D01*
X0000308424Y0000640382D01*
X0000321880Y0000640382D01*
X0000335077Y0000643007D01*
X0000347508Y0000648156D01*
X0000358695Y0000655631D01*
X0000368210Y0000665146D01*
X0000375685Y0000676333D01*
X0000380834Y0000688765D01*
X0000383459Y0000701961D01*
X0000383459Y0000715417D01*
X0001569345Y0000715417D01*
X0001569345Y0000701961D01*
X0001571970Y0000688765D01*
X0001577119Y0000676333D01*
X0001584594Y0000665146D01*
X0001594109Y0000655631D01*
X0001605297Y0000648156D01*
X0001617728Y0000643007D01*
X0001630924Y0000640382D01*
X0001644380Y0000640382D01*
X0001657577Y0000643007D01*
X0001670008Y0000648156D01*
X0001681195Y0000655631D01*
X0001690710Y0000665146D01*
X0001698185Y0000676333D01*
X0001703334Y0000688765D01*
X0001705959Y0000701961D01*
X0001705959Y0000715417D01*
X0001703334Y0000728613D01*
X0001698185Y0000741045D01*
X0001690710Y0000752232D01*
X0001681195Y0000761747D01*
X0001670008Y0000769222D01*
X0001657577Y0000774371D01*
X0001644380Y0000776996D01*
X0001630924Y0000776996D01*
X0001617728Y0000774371D01*
X0001605297Y0000769222D01*
X0001594109Y0000761747D01*
X0001584594Y0000752232D01*
X0001577119Y0000741045D01*
X0001571970Y0000728613D01*
X0001569345Y0000715417D01*
X0000383459Y0000715417D01*
X0000380834Y0000728613D01*
X0000375685Y0000741045D01*
X0000368210Y0000752232D01*
X0000358695Y0000761747D01*
X0000347508Y0000769222D01*
X0000335077Y0000774371D01*
X0000321880Y0000776996D01*
X0000308424Y0000776996D01*
X0000295228Y0000774371D01*
X0000282797Y0000769222D01*
X0000271609Y0000761747D01*
X0000262094Y0000752232D01*
X0000254619Y0000741045D01*
X0000249470Y0000728613D01*
X0000246845Y0000715417D01*
X0000025984Y0000715417D01*
X0000025984Y0000841417D01*
X0000660345Y0000841417D01*
X0000660345Y0000827961D01*
X0000662970Y0000814765D01*
X0000668119Y0000802333D01*
X0000675594Y0000791146D01*
X0000685109Y0000781631D01*
X0000696297Y0000774156D01*
X0000708728Y0000769007D01*
X0000721924Y0000766382D01*
X0000735380Y0000766382D01*
X0000748577Y0000769007D01*
X0000761008Y0000774156D01*
X0000772195Y0000781631D01*
X0000781710Y0000791146D01*
X0000789185Y0000802333D01*
X0000794334Y0000814765D01*
X0000796959Y0000827961D01*
X0000796959Y0000841417D01*
X0001156345Y0000841417D01*
X0001156345Y0000827961D01*
X0001158970Y0000814765D01*
X0001164119Y0000802333D01*
X0001171594Y0000791146D01*
X0001181109Y0000781631D01*
X0001192297Y0000774156D01*
X0001204728Y0000769007D01*
X0001217924Y0000766382D01*
X0001231380Y0000766382D01*
X0001244577Y0000769007D01*
X0001257008Y0000774156D01*
X0001268195Y0000781631D01*
X0001277710Y0000791146D01*
X0001285185Y0000802333D01*
X0001290334Y0000814765D01*
X0001292959Y0000827961D01*
X0001292959Y0000841417D01*
X0001290334Y0000854613D01*
X0001285185Y0000867045D01*
X0001277710Y0000878232D01*
X0001268195Y0000887747D01*
X0001257008Y0000895222D01*
X0001244577Y0000900371D01*
X0001231380Y0000902996D01*
X0001217924Y0000902996D01*
X0001204728Y0000900371D01*
X0001192297Y0000895222D01*
X0001181109Y0000887747D01*
X0001171594Y0000878232D01*
X0001164119Y0000867045D01*
X0001158970Y0000854613D01*
X0001156345Y0000841417D01*
X0000796959Y0000841417D01*
X0000794334Y0000854613D01*
X0000789185Y0000867045D01*
X0000781710Y0000878232D01*
X0000772195Y0000887747D01*
X0000761008Y0000895222D01*
X0000748577Y0000900371D01*
X0000735380Y0000902996D01*
X0000721924Y0000902996D01*
X0000708728Y0000900371D01*
X0000696297Y0000895222D01*
X0000685109Y0000887747D01*
X0000675594Y0000878232D01*
X0000668119Y0000867045D01*
X0000662970Y0000854613D01*
X0000660345Y0000841417D01*
X0000025984Y0000841417D01*
X0000025984Y0000904241D01*
X0000027111Y0000915735D01*
X0000030080Y0000925568D01*
X0000034902Y0000934638D01*
X0000041394Y0000942598D01*
X0000049309Y0000949145D01*
X0000058344Y0000954031D01*
X0000068157Y0000957068D01*
X0000079570Y0000958268D01*
X0001872381Y0000958268D01*
X0001883909Y0000957138D01*
G04 #@! TA.AperFunction,NonConductor*
D38*
G36*
X0001883909Y0000957138D02*
G01*
X0001893776Y0000954159D01*
X0001902875Y0000949320D01*
X0001910862Y0000942806D01*
X0001917432Y0000934865D01*
X0001922334Y0000925799D01*
X0001925381Y0000915954D01*
X0001926585Y0000904504D01*
X0001926803Y0000080318D01*
X0001925670Y0000068767D01*
X0001922684Y0000058875D01*
X0001917833Y0000049752D01*
X0001911302Y0000041745D01*
X0001903341Y0000035158D01*
X0001894252Y0000030244D01*
X0001884381Y0000027188D01*
X0001872918Y0000025984D01*
X0001675959Y0000025984D01*
X0001675959Y0000025984D01*
X0000080011Y0000025984D01*
X0000068517Y0000027111D01*
X0000058683Y0000030080D01*
X0000049614Y0000034902D01*
X0000041654Y0000041394D01*
X0000035106Y0000049309D01*
X0000030221Y0000058344D01*
X0000027183Y0000068156D01*
X0000025984Y0000079570D01*
X0000025984Y0000156417D01*
X0000660345Y0000156417D01*
X0000660345Y0000142961D01*
X0000662970Y0000129765D01*
X0000668119Y0000117333D01*
X0000675594Y0000106146D01*
X0000685109Y0000096631D01*
X0000696297Y0000089156D01*
X0000708728Y0000084007D01*
X0000721924Y0000081382D01*
X0000735380Y0000081382D01*
X0000748577Y0000084007D01*
X0000761008Y0000089156D01*
X0000772195Y0000096631D01*
X0000781710Y0000106146D01*
X0000789185Y0000117333D01*
X0000794334Y0000129765D01*
X0000796959Y0000142961D01*
X0000796959Y0000156417D01*
X0001156345Y0000156417D01*
X0001156345Y0000142961D01*
X0001158970Y0000129765D01*
X0001164119Y0000117333D01*
X0001171594Y0000106146D01*
X0001181109Y0000096631D01*
X0001192297Y0000089156D01*
X0001204728Y0000084007D01*
X0001217924Y0000081382D01*
X0001231380Y0000081382D01*
X0001244577Y0000084007D01*
X0001257008Y0000089156D01*
X0001268195Y0000096631D01*
X0001277710Y0000106146D01*
X0001285185Y0000117333D01*
X0001290334Y0000129765D01*
X0001292959Y0000142961D01*
X0001292959Y0000156417D01*
X0001290334Y0000169613D01*
X0001285185Y0000182044D01*
X0001277710Y0000193232D01*
X0001268195Y0000202747D01*
X0001257008Y0000210222D01*
X0001244577Y0000215371D01*
X0001231380Y0000217996D01*
X0001217924Y0000217996D01*
X0001204728Y0000215371D01*
X0001192297Y0000210222D01*
X0001181109Y0000202747D01*
X0001171594Y0000193232D01*
X0001164119Y0000182044D01*
X0001158970Y0000169613D01*
X0001156345Y0000156417D01*
X0000796959Y0000156417D01*
X0000794334Y0000169613D01*
X0000789185Y0000182044D01*
X0000781710Y0000193232D01*
X0000772195Y0000202747D01*
X0000761008Y0000210222D01*
X0000748577Y0000215371D01*
X0000735380Y0000217996D01*
X0000721924Y0000217996D01*
X0000708728Y0000215371D01*
X0000696297Y0000210222D01*
X0000685109Y0000202747D01*
X0000675594Y0000193232D01*
X0000668119Y0000182044D01*
X0000662970Y0000169613D01*
X0000660345Y0000156417D01*
X0000025984Y0000156417D01*
X0000025984Y0000282417D01*
X0000246845Y0000282417D01*
X0000246845Y0000268961D01*
X0000249470Y0000255765D01*
X0000254619Y0000243333D01*
X0000262094Y0000232146D01*
X0000271609Y0000222631D01*
X0000282797Y0000215156D01*
X0000295228Y0000210007D01*
X0000308424Y0000207382D01*
X0000321880Y0000207382D01*
X0000335077Y0000210007D01*
X0000347508Y0000215156D01*
X0000358695Y0000222631D01*
X0000368210Y0000232146D01*
X0000375685Y0000243333D01*
X0000380834Y0000255765D01*
X0000383459Y0000268961D01*
X0000383459Y0000282417D01*
X0001569345Y0000282417D01*
X0001569345Y0000268961D01*
X0001571970Y0000255765D01*
X0001577119Y0000243333D01*
X0001584594Y0000232146D01*
X0001594109Y0000222631D01*
X0001605297Y0000215156D01*
X0001617728Y0000210007D01*
X0001630924Y0000207382D01*
X0001644380Y0000207382D01*
X0001657577Y0000210007D01*
X0001670008Y0000215156D01*
X0001681195Y0000222631D01*
X0001690710Y0000232146D01*
X0001698185Y0000243333D01*
X0001703334Y0000255765D01*
X0001705959Y0000268961D01*
X0001705959Y0000282417D01*
X0001703334Y0000295613D01*
X0001698185Y0000308045D01*
X0001690710Y0000319232D01*
X0001681195Y0000328747D01*
X0001670008Y0000336222D01*
X0001657577Y0000341371D01*
X0001644380Y0000343996D01*
X0001630924Y0000343996D01*
X0001617728Y0000341371D01*
X0001605297Y0000336222D01*
X0001594109Y0000328747D01*
X0001584594Y0000319232D01*
X0001577119Y0000308045D01*
X0001571970Y0000295613D01*
X0001569345Y0000282417D01*
X0000383459Y0000282417D01*
X0000380834Y0000295613D01*
X0000375685Y0000308045D01*
X0000368210Y0000319232D01*
X0000358695Y0000328747D01*
X0000347508Y0000336222D01*
X0000335077Y0000341371D01*
X0000321880Y0000343996D01*
X0000308424Y0000343996D01*
X0000295228Y0000341371D01*
X0000282797Y0000336222D01*
X0000271609Y0000328747D01*
X0000262094Y0000319232D01*
X0000254619Y0000308045D01*
X0000249470Y0000295613D01*
X0000246845Y0000282417D01*
X0000025984Y0000282417D01*
X0000025984Y0000497917D01*
X0000051345Y0000497917D01*
X0000051345Y0000484461D01*
X0000053970Y0000471265D01*
X0000059119Y0000458833D01*
X0000066594Y0000447646D01*
X0000076109Y0000438131D01*
X0000087297Y0000430656D01*
X0000099728Y0000425507D01*
X0000112924Y0000422882D01*
X0000126380Y0000422882D01*
X0000139577Y0000425507D01*
X0000152008Y0000430656D01*
X0000163195Y0000438131D01*
X0000172710Y0000447646D01*
X0000180185Y0000458833D01*
X0000185334Y0000471265D01*
X0000187959Y0000484461D01*
X0000187959Y0000497917D01*
X0001768345Y0000497917D01*
X0001768345Y0000484461D01*
X0001770970Y0000471265D01*
X0001776119Y0000458833D01*
X0001783594Y0000447646D01*
X0001793109Y0000438131D01*
X0001804297Y0000430656D01*
X0001816728Y0000425507D01*
X0001829924Y0000422882D01*
X0001843380Y0000422882D01*
X0001856577Y0000425507D01*
X0001869008Y0000430656D01*
X0001880195Y0000438131D01*
X0001889710Y0000447646D01*
X0001897185Y0000458833D01*
X0001902334Y0000471265D01*
X0001904959Y0000484461D01*
X0001904959Y0000497917D01*
X0001902334Y0000511113D01*
X0001897185Y0000523545D01*
X0001889710Y0000534732D01*
X0001880195Y0000544247D01*
X0001869008Y0000551722D01*
X0001856577Y0000556871D01*
X0001843380Y0000559496D01*
X0001829924Y0000559496D01*
X0001816728Y0000556871D01*
X0001804297Y0000551722D01*
X0001793109Y0000544247D01*
X0001783594Y0000534732D01*
X0001776119Y0000523545D01*
X0001770970Y0000511113D01*
X0001768345Y0000497917D01*
X0000187959Y0000497917D01*
X0000185334Y0000511113D01*
X0000180185Y0000523545D01*
X0000172710Y0000534732D01*
X0000163195Y0000544247D01*
X0000152008Y0000551722D01*
X0000139577Y0000556871D01*
X0000126380Y0000559496D01*
X0000112924Y0000559496D01*
X0000099728Y0000556871D01*
X0000087297Y0000551722D01*
X0000076109Y0000544247D01*
X0000066594Y0000534732D01*
X0000059119Y0000523545D01*
X0000053970Y0000511113D01*
X0000051345Y0000497917D01*
X0000025984Y0000497917D01*
X0000025984Y0000715417D01*
X0000246845Y0000715417D01*
X0000246845Y0000701961D01*
X0000249470Y0000688765D01*
X0000254619Y0000676333D01*
X0000262094Y0000665146D01*
X0000271609Y0000655631D01*
X0000282797Y0000648156D01*
X0000295228Y0000643007D01*
X0000308424Y0000640382D01*
X0000321880Y0000640382D01*
X0000335077Y0000643007D01*
X0000347508Y0000648156D01*
X0000358695Y0000655631D01*
X0000368210Y0000665146D01*
X0000375685Y0000676333D01*
X0000380834Y0000688765D01*
X0000383459Y0000701961D01*
X0000383459Y0000715417D01*
X0001569345Y0000715417D01*
X0001569345Y0000701961D01*
X0001571970Y0000688765D01*
X0001577119Y0000676333D01*
X0001584594Y0000665146D01*
X0001594109Y0000655631D01*
X0001605297Y0000648156D01*
X0001617728Y0000643007D01*
X0001630924Y0000640382D01*
X0001644380Y0000640382D01*
X0001657577Y0000643007D01*
X0001670008Y0000648156D01*
X0001681195Y0000655631D01*
X0001690710Y0000665146D01*
X0001698185Y0000676333D01*
X0001703334Y0000688765D01*
X0001705959Y0000701961D01*
X0001705959Y0000715417D01*
X0001703334Y0000728613D01*
X0001698185Y0000741045D01*
X0001690710Y0000752232D01*
X0001681195Y0000761747D01*
X0001670008Y0000769222D01*
X0001657577Y0000774371D01*
X0001644380Y0000776996D01*
X0001630924Y0000776996D01*
X0001617728Y0000774371D01*
X0001605297Y0000769222D01*
X0001594109Y0000761747D01*
X0001584594Y0000752232D01*
X0001577119Y0000741045D01*
X0001571970Y0000728613D01*
X0001569345Y0000715417D01*
X0000383459Y0000715417D01*
X0000380834Y0000728613D01*
X0000375685Y0000741045D01*
X0000368210Y0000752232D01*
X0000358695Y0000761747D01*
X0000347508Y0000769222D01*
X0000335077Y0000774371D01*
X0000321880Y0000776996D01*
X0000308424Y0000776996D01*
X0000295228Y0000774371D01*
X0000282797Y0000769222D01*
X0000271609Y0000761747D01*
X0000262094Y0000752232D01*
X0000254619Y0000741045D01*
X0000249470Y0000728613D01*
X0000246845Y0000715417D01*
X0000025984Y0000715417D01*
X0000025984Y0000841417D01*
X0000660345Y0000841417D01*
X0000660345Y0000827961D01*
X0000662970Y0000814765D01*
X0000668119Y0000802333D01*
X0000675594Y0000791146D01*
X0000685109Y0000781631D01*
X0000696297Y0000774156D01*
X0000708728Y0000769007D01*
X0000721924Y0000766382D01*
X0000735380Y0000766382D01*
X0000748577Y0000769007D01*
X0000761008Y0000774156D01*
X0000772195Y0000781631D01*
X0000781710Y0000791146D01*
X0000789185Y0000802333D01*
X0000794334Y0000814765D01*
X0000796959Y0000827961D01*
X0000796959Y0000841417D01*
X0001156345Y0000841417D01*
X0001156345Y0000827961D01*
X0001158970Y0000814765D01*
X0001164119Y0000802333D01*
X0001171594Y0000791146D01*
X0001181109Y0000781631D01*
X0001192297Y0000774156D01*
X0001204728Y0000769007D01*
X0001217924Y0000766382D01*
X0001231380Y0000766382D01*
X0001244577Y0000769007D01*
X0001257008Y0000774156D01*
X0001268195Y0000781631D01*
X0001277710Y0000791146D01*
X0001285185Y0000802333D01*
X0001290334Y0000814765D01*
X0001292959Y0000827961D01*
X0001292959Y0000841417D01*
X0001290334Y0000854613D01*
X0001285185Y0000867045D01*
X0001277710Y0000878232D01*
X0001268195Y0000887747D01*
X0001257008Y0000895222D01*
X0001244577Y0000900371D01*
X0001231380Y0000902996D01*
X0001217924Y0000902996D01*
X0001204728Y0000900371D01*
X0001192297Y0000895222D01*
X0001181109Y0000887747D01*
X0001171594Y0000878232D01*
X0001164119Y0000867045D01*
X0001158970Y0000854613D01*
X0001156345Y0000841417D01*
X0000796959Y0000841417D01*
X0000794334Y0000854613D01*
X0000789185Y0000867045D01*
X0000781710Y0000878232D01*
X0000772195Y0000887747D01*
X0000761008Y0000895222D01*
X0000748577Y0000900371D01*
X0000735380Y0000902996D01*
X0000721924Y0000902996D01*
X0000708728Y0000900371D01*
X0000696297Y0000895222D01*
X0000685109Y0000887747D01*
X0000675594Y0000878232D01*
X0000668119Y0000867045D01*
X0000662970Y0000854613D01*
X0000660345Y0000841417D01*
X0000025984Y0000841417D01*
X0000025984Y0000904241D01*
X0000027111Y0000915735D01*
X0000030080Y0000925568D01*
X0000034902Y0000934638D01*
X0000041394Y0000942598D01*
X0000049309Y0000949145D01*
X0000058344Y0000954031D01*
X0000068157Y0000957068D01*
X0000079570Y0000958268D01*
X0001872381Y0000958268D01*
X0001883909Y0000957138D01*
G37*
G04 #@! TD.AperFunction*
G04 next file*
G04 #@! TF.GenerationSoftware,KiCad,Pcbnew,(5.1.12)-1*
G04 #@! TF.CreationDate,2022-03-26T22:12:19+08:00*
G04 #@! TF.ProjectId,Nozzle,4e6f7a7a-6c65-42e6-9b69-6361645f7063,0.5*
G04 #@! TF.SameCoordinates,Original*
G04 #@! TF.FileFunction,Copper,L2,Bot*
G04 #@! TF.FilePolarity,Positive*
G04 Gerber Fmt 4.6, Leading zero omitted, Abs format (unit mm)*
G04 Created by KiCad (PCBNEW (5.1.12)-1) date 2022-03-26 22:12:19*
G01*
G04 APERTURE LIST*
G04 #@! TA.AperFunction,ComponentPad*
G04 #@! TD*
G04 #@! TA.AperFunction,NonConductor*
G04 #@! TD*
G04 #@! TA.AperFunction,NonConductor*
G04 #@! TD*
G04 APERTURE END LIST*
D39*
X-0004461847Y0006260119D02*
X0001399152Y0001434119D03*
X0000567152Y0001685119D03*
D40*
X0001883909Y0002024068D02*
X0001893776Y0002021089D01*
X0001902875Y0002016250D01*
X0001910862Y0002009736D01*
X0001917432Y0002001795D01*
X0001922334Y0001992729D01*
X0001925381Y0001982884D01*
X0001926585Y0001971434D01*
X0001926803Y0001147248D01*
X0001925670Y0001135697D01*
X0001922684Y0001125805D01*
X0001917833Y0001116682D01*
X0001911302Y0001108675D01*
X0001903341Y0001102088D01*
X0001894252Y0001097174D01*
X0001884381Y0001094118D01*
X0001872918Y0001092914D01*
X0001675959Y0001092914D01*
X0001675959Y0001092914D01*
X0000080011Y0001092914D01*
X0000068517Y0001094041D01*
X0000058683Y0001097010D01*
X0000049614Y0001101832D01*
X0000041654Y0001108324D01*
X0000035106Y0001116239D01*
X0000030221Y0001125274D01*
X0000027183Y0001135086D01*
X0000025984Y0001146500D01*
X0000025984Y0001223347D01*
X0000660345Y0001223347D01*
X0000660345Y0001209891D01*
X0000662970Y0001196695D01*
X0000668119Y0001184263D01*
X0000675594Y0001173076D01*
X0000685109Y0001163561D01*
X0000696297Y0001156086D01*
X0000708728Y0001150937D01*
X0000721924Y0001148312D01*
X0000735380Y0001148312D01*
X0000748577Y0001150937D01*
X0000761008Y0001156086D01*
X0000772195Y0001163561D01*
X0000781710Y0001173076D01*
X0000789185Y0001184263D01*
X0000794334Y0001196695D01*
X0000796959Y0001209891D01*
X0000796959Y0001223347D01*
X0001156345Y0001223347D01*
X0001156345Y0001209891D01*
X0001158970Y0001196695D01*
X0001164119Y0001184263D01*
X0001171594Y0001173076D01*
X0001181109Y0001163561D01*
X0001192297Y0001156086D01*
X0001204728Y0001150937D01*
X0001217924Y0001148312D01*
X0001231380Y0001148312D01*
X0001244577Y0001150937D01*
X0001257008Y0001156086D01*
X0001268195Y0001163561D01*
X0001277710Y0001173076D01*
X0001285185Y0001184263D01*
X0001290334Y0001196695D01*
X0001292959Y0001209891D01*
X0001292959Y0001223347D01*
X0001290334Y0001236543D01*
X0001285185Y0001248975D01*
X0001277710Y0001260162D01*
X0001268195Y0001269677D01*
X0001257008Y0001277152D01*
X0001244577Y0001282301D01*
X0001231380Y0001284926D01*
X0001217924Y0001284926D01*
X0001204728Y0001282301D01*
X0001192297Y0001277152D01*
X0001181109Y0001269677D01*
X0001171594Y0001260162D01*
X0001164119Y0001248975D01*
X0001158970Y0001236543D01*
X0001156345Y0001223347D01*
X0000796959Y0001223347D01*
X0000794334Y0001236543D01*
X0000789185Y0001248975D01*
X0000781710Y0001260162D01*
X0000772195Y0001269677D01*
X0000761008Y0001277152D01*
X0000748577Y0001282301D01*
X0000735380Y0001284926D01*
X0000721924Y0001284926D01*
X0000708728Y0001282301D01*
X0000696297Y0001277152D01*
X0000685109Y0001269677D01*
X0000675594Y0001260162D01*
X0000668119Y0001248975D01*
X0000662970Y0001236543D01*
X0000660345Y0001223347D01*
X0000025984Y0001223347D01*
X0000025984Y0001349347D01*
X0000246845Y0001349347D01*
X0000246845Y0001335891D01*
X0000249470Y0001322695D01*
X0000254619Y0001310263D01*
X0000262094Y0001299076D01*
X0000271609Y0001289561D01*
X0000282797Y0001282086D01*
X0000295228Y0001276937D01*
X0000308424Y0001274312D01*
X0000321880Y0001274312D01*
X0000335077Y0001276937D01*
X0000347508Y0001282086D01*
X0000358695Y0001289561D01*
X0000368210Y0001299076D01*
X0000375685Y0001310263D01*
X0000380834Y0001322695D01*
X0000383459Y0001335891D01*
X0000383459Y0001349347D01*
X0000380834Y0001362543D01*
X0000375685Y0001374975D01*
X0000368210Y0001386162D01*
X0000358695Y0001395677D01*
X0000347508Y0001403152D01*
X0000335077Y0001408301D01*
X0000321880Y0001410926D01*
X0000308424Y0001410926D01*
X0000295228Y0001408301D01*
X0000282797Y0001403152D01*
X0000271609Y0001395677D01*
X0000262094Y0001386162D01*
X0000254619Y0001374975D01*
X0000249470Y0001362543D01*
X0000246845Y0001349347D01*
X0000025984Y0001349347D01*
X0000025984Y0001448214D01*
X0001256042Y0001448214D01*
X0001256042Y0001420024D01*
X0001261541Y0001392375D01*
X0001272329Y0001366331D01*
X0001287991Y0001342892D01*
X0001307925Y0001322958D01*
X0001331364Y0001307296D01*
X0001357408Y0001296508D01*
X0001385057Y0001291009D01*
X0001413247Y0001291009D01*
X0001440896Y0001296508D01*
X0001466940Y0001307296D01*
X0001490380Y0001322958D01*
X0001510313Y0001342892D01*
X0001514626Y0001349347D01*
X0001569345Y0001349347D01*
X0001569345Y0001335891D01*
X0001571970Y0001322695D01*
X0001577119Y0001310263D01*
X0001584594Y0001299076D01*
X0001594109Y0001289561D01*
X0001605297Y0001282086D01*
X0001617728Y0001276937D01*
X0001630924Y0001274312D01*
X0001644380Y0001274312D01*
X0001657577Y0001276937D01*
X0001670008Y0001282086D01*
X0001681195Y0001289561D01*
X0001690710Y0001299076D01*
X0001698185Y0001310263D01*
X0001703334Y0001322695D01*
X0001705959Y0001335891D01*
X0001705959Y0001349347D01*
X0001703334Y0001362543D01*
X0001698185Y0001374975D01*
X0001690710Y0001386162D01*
X0001681195Y0001395677D01*
X0001670008Y0001403152D01*
X0001657577Y0001408301D01*
X0001644380Y0001410926D01*
X0001630924Y0001410926D01*
X0001617728Y0001408301D01*
X0001605297Y0001403152D01*
X0001594109Y0001395677D01*
X0001584594Y0001386162D01*
X0001577119Y0001374975D01*
X0001571970Y0001362543D01*
X0001569345Y0001349347D01*
X0001514626Y0001349347D01*
X0001525975Y0001366331D01*
X0001536763Y0001392375D01*
X0001542262Y0001420024D01*
X0001542262Y0001448214D01*
X0001536763Y0001475863D01*
X0001525975Y0001501907D01*
X0001510313Y0001525346D01*
X0001490380Y0001545280D01*
X0001466940Y0001560942D01*
X0001457513Y0001564847D01*
X0001768345Y0001564847D01*
X0001768345Y0001551391D01*
X0001770970Y0001538195D01*
X0001776119Y0001525763D01*
X0001783594Y0001514576D01*
X0001793109Y0001505061D01*
X0001804297Y0001497586D01*
X0001816728Y0001492437D01*
X0001829924Y0001489812D01*
X0001843380Y0001489812D01*
X0001856577Y0001492437D01*
X0001869008Y0001497586D01*
X0001880195Y0001505061D01*
X0001889710Y0001514576D01*
X0001897185Y0001525763D01*
X0001902334Y0001538195D01*
X0001904959Y0001551391D01*
X0001904959Y0001564847D01*
X0001902334Y0001578043D01*
X0001897185Y0001590475D01*
X0001889710Y0001601662D01*
X0001880195Y0001611177D01*
X0001869008Y0001618652D01*
X0001856577Y0001623801D01*
X0001843380Y0001626426D01*
X0001829924Y0001626426D01*
X0001816728Y0001623801D01*
X0001804297Y0001618652D01*
X0001793109Y0001611177D01*
X0001783594Y0001601662D01*
X0001776119Y0001590475D01*
X0001770970Y0001578043D01*
X0001768345Y0001564847D01*
X0001457513Y0001564847D01*
X0001440896Y0001571730D01*
X0001413247Y0001577229D01*
X0001385057Y0001577229D01*
X0001357408Y0001571730D01*
X0001331364Y0001560942D01*
X0001307925Y0001545280D01*
X0001287991Y0001525346D01*
X0001272329Y0001501907D01*
X0001261541Y0001475863D01*
X0001256042Y0001448214D01*
X0000025984Y0001448214D01*
X0000025984Y0001564847D01*
X0000051345Y0001564847D01*
X0000051345Y0001551391D01*
X0000053970Y0001538195D01*
X0000059119Y0001525763D01*
X0000066594Y0001514576D01*
X0000076109Y0001505061D01*
X0000087297Y0001497586D01*
X0000099728Y0001492437D01*
X0000112924Y0001489812D01*
X0000126380Y0001489812D01*
X0000139577Y0001492437D01*
X0000152008Y0001497586D01*
X0000163195Y0001505061D01*
X0000172710Y0001514576D01*
X0000180185Y0001525763D01*
X0000185334Y0001538195D01*
X0000187959Y0001551391D01*
X0000187959Y0001564847D01*
X0000185334Y0001578043D01*
X0000180185Y0001590475D01*
X0000172710Y0001601662D01*
X0000163195Y0001611177D01*
X0000152008Y0001618652D01*
X0000139577Y0001623801D01*
X0000126380Y0001626426D01*
X0000112924Y0001626426D01*
X0000099728Y0001623801D01*
X0000087297Y0001618652D01*
X0000076109Y0001611177D01*
X0000066594Y0001601662D01*
X0000059119Y0001590475D01*
X0000053970Y0001578043D01*
X0000051345Y0001564847D01*
X0000025984Y0001564847D01*
X0000025984Y0001699214D01*
X0000424042Y0001699214D01*
X0000424042Y0001671024D01*
X0000429541Y0001643375D01*
X0000440329Y0001617331D01*
X0000455991Y0001593892D01*
X0000475925Y0001573958D01*
X0000499364Y0001558296D01*
X0000525408Y0001547508D01*
X0000553057Y0001542009D01*
X0000581247Y0001542009D01*
X0000608896Y0001547508D01*
X0000634940Y0001558296D01*
X0000658380Y0001573958D01*
X0000678313Y0001593892D01*
X0000693975Y0001617331D01*
X0000704763Y0001643375D01*
X0000710262Y0001671024D01*
X0000710262Y0001699214D01*
X0000704763Y0001726863D01*
X0000693975Y0001752907D01*
X0000678313Y0001776346D01*
X0000672313Y0001782347D01*
X0001569345Y0001782347D01*
X0001569345Y0001768891D01*
X0001571970Y0001755695D01*
X0001577119Y0001743263D01*
X0001584594Y0001732076D01*
X0001594109Y0001722561D01*
X0001605297Y0001715086D01*
X0001617728Y0001709937D01*
X0001630924Y0001707312D01*
X0001644380Y0001707312D01*
X0001657577Y0001709937D01*
X0001670008Y0001715086D01*
X0001681195Y0001722561D01*
X0001690710Y0001732076D01*
X0001698185Y0001743263D01*
X0001703334Y0001755695D01*
X0001705959Y0001768891D01*
X0001705959Y0001782347D01*
X0001703334Y0001795543D01*
X0001698185Y0001807975D01*
X0001690710Y0001819162D01*
X0001681195Y0001828677D01*
X0001670008Y0001836152D01*
X0001657577Y0001841301D01*
X0001644380Y0001843926D01*
X0001630924Y0001843926D01*
X0001617728Y0001841301D01*
X0001605297Y0001836152D01*
X0001594109Y0001828677D01*
X0001584594Y0001819162D01*
X0001577119Y0001807975D01*
X0001571970Y0001795543D01*
X0001569345Y0001782347D01*
X0000672313Y0001782347D01*
X0000658380Y0001796280D01*
X0000634940Y0001811942D01*
X0000608896Y0001822730D01*
X0000581247Y0001828229D01*
X0000553057Y0001828229D01*
X0000525408Y0001822730D01*
X0000499364Y0001811942D01*
X0000475925Y0001796280D01*
X0000455991Y0001776346D01*
X0000440329Y0001752907D01*
X0000429541Y0001726863D01*
X0000424042Y0001699214D01*
X0000025984Y0001699214D01*
X0000025984Y0001782347D01*
X0000246845Y0001782347D01*
X0000246845Y0001768891D01*
X0000249470Y0001755695D01*
X0000254619Y0001743263D01*
X0000262094Y0001732076D01*
X0000271609Y0001722561D01*
X0000282797Y0001715086D01*
X0000295228Y0001709937D01*
X0000308424Y0001707312D01*
X0000321880Y0001707312D01*
X0000335077Y0001709937D01*
X0000347508Y0001715086D01*
X0000358695Y0001722561D01*
X0000368210Y0001732076D01*
X0000375685Y0001743263D01*
X0000380834Y0001755695D01*
X0000383459Y0001768891D01*
X0000383459Y0001782347D01*
X0000380834Y0001795543D01*
X0000375685Y0001807975D01*
X0000368210Y0001819162D01*
X0000358695Y0001828677D01*
X0000347508Y0001836152D01*
X0000335077Y0001841301D01*
X0000321880Y0001843926D01*
X0000308424Y0001843926D01*
X0000295228Y0001841301D01*
X0000282797Y0001836152D01*
X0000271609Y0001828677D01*
X0000262094Y0001819162D01*
X0000254619Y0001807975D01*
X0000249470Y0001795543D01*
X0000246845Y0001782347D01*
X0000025984Y0001782347D01*
X0000025984Y0001908347D01*
X0000660345Y0001908347D01*
X0000660345Y0001894891D01*
X0000662970Y0001881695D01*
X0000668119Y0001869263D01*
X0000675594Y0001858076D01*
X0000685109Y0001848561D01*
X0000696297Y0001841086D01*
X0000708728Y0001835937D01*
X0000721924Y0001833312D01*
X0000735380Y0001833312D01*
X0000748577Y0001835937D01*
X0000761008Y0001841086D01*
X0000772195Y0001848561D01*
X0000781710Y0001858076D01*
X0000789185Y0001869263D01*
X0000794334Y0001881695D01*
X0000796959Y0001894891D01*
X0000796959Y0001908347D01*
X0001156345Y0001908347D01*
X0001156345Y0001894891D01*
X0001158970Y0001881695D01*
X0001164119Y0001869263D01*
X0001171594Y0001858076D01*
X0001181109Y0001848561D01*
X0001192297Y0001841086D01*
X0001204728Y0001835937D01*
X0001217924Y0001833312D01*
X0001231380Y0001833312D01*
X0001244577Y0001835937D01*
X0001257008Y0001841086D01*
X0001268195Y0001848561D01*
X0001277710Y0001858076D01*
X0001285185Y0001869263D01*
X0001290334Y0001881695D01*
X0001292959Y0001894891D01*
X0001292959Y0001908347D01*
X0001290334Y0001921543D01*
X0001285185Y0001933975D01*
X0001277710Y0001945162D01*
X0001268195Y0001954677D01*
X0001257008Y0001962152D01*
X0001244577Y0001967301D01*
X0001231380Y0001969926D01*
X0001217924Y0001969926D01*
X0001204728Y0001967301D01*
X0001192297Y0001962152D01*
X0001181109Y0001954677D01*
X0001171594Y0001945162D01*
X0001164119Y0001933975D01*
X0001158970Y0001921543D01*
X0001156345Y0001908347D01*
X0000796959Y0001908347D01*
X0000794334Y0001921543D01*
X0000789185Y0001933975D01*
X0000781710Y0001945162D01*
X0000772195Y0001954677D01*
X0000761008Y0001962152D01*
X0000748577Y0001967301D01*
X0000735380Y0001969926D01*
X0000721924Y0001969926D01*
X0000708728Y0001967301D01*
X0000696297Y0001962152D01*
X0000685109Y0001954677D01*
X0000675594Y0001945162D01*
X0000668119Y0001933975D01*
X0000662970Y0001921543D01*
X0000660345Y0001908347D01*
X0000025984Y0001908347D01*
X0000025984Y0001971171D01*
X0000027111Y0001982665D01*
X0000030080Y0001992498D01*
X0000034902Y0002001568D01*
X0000041394Y0002009528D01*
X0000049309Y0002016075D01*
X0000058344Y0002020961D01*
X0000068157Y0002023998D01*
X0000079570Y0002025198D01*
X0001872381Y0002025198D01*
X0001883909Y0002024068D01*
G04 #@! TA.AperFunction,NonConductor*
D41*
G36*
X0001883909Y0002024068D02*
G01*
X0001893776Y0002021089D01*
X0001902875Y0002016250D01*
X0001910862Y0002009736D01*
X0001917432Y0002001795D01*
X0001922334Y0001992729D01*
X0001925381Y0001982884D01*
X0001926585Y0001971434D01*
X0001926803Y0001147248D01*
X0001925670Y0001135697D01*
X0001922684Y0001125805D01*
X0001917833Y0001116682D01*
X0001911302Y0001108675D01*
X0001903341Y0001102088D01*
X0001894252Y0001097174D01*
X0001884381Y0001094118D01*
X0001872918Y0001092914D01*
X0001675959Y0001092914D01*
X0001675959Y0001092914D01*
X0000080011Y0001092914D01*
X0000068517Y0001094041D01*
X0000058683Y0001097010D01*
X0000049614Y0001101832D01*
X0000041654Y0001108324D01*
X0000035106Y0001116239D01*
X0000030221Y0001125274D01*
X0000027183Y0001135086D01*
X0000025984Y0001146500D01*
X0000025984Y0001223347D01*
X0000660345Y0001223347D01*
X0000660345Y0001209891D01*
X0000662970Y0001196695D01*
X0000668119Y0001184263D01*
X0000675594Y0001173076D01*
X0000685109Y0001163561D01*
X0000696297Y0001156086D01*
X0000708728Y0001150937D01*
X0000721924Y0001148312D01*
X0000735380Y0001148312D01*
X0000748577Y0001150937D01*
X0000761008Y0001156086D01*
X0000772195Y0001163561D01*
X0000781710Y0001173076D01*
X0000789185Y0001184263D01*
X0000794334Y0001196695D01*
X0000796959Y0001209891D01*
X0000796959Y0001223347D01*
X0001156345Y0001223347D01*
X0001156345Y0001209891D01*
X0001158970Y0001196695D01*
X0001164119Y0001184263D01*
X0001171594Y0001173076D01*
X0001181109Y0001163561D01*
X0001192297Y0001156086D01*
X0001204728Y0001150937D01*
X0001217924Y0001148312D01*
X0001231380Y0001148312D01*
X0001244577Y0001150937D01*
X0001257008Y0001156086D01*
X0001268195Y0001163561D01*
X0001277710Y0001173076D01*
X0001285185Y0001184263D01*
X0001290334Y0001196695D01*
X0001292959Y0001209891D01*
X0001292959Y0001223347D01*
X0001290334Y0001236543D01*
X0001285185Y0001248975D01*
X0001277710Y0001260162D01*
X0001268195Y0001269677D01*
X0001257008Y0001277152D01*
X0001244577Y0001282301D01*
X0001231380Y0001284926D01*
X0001217924Y0001284926D01*
X0001204728Y0001282301D01*
X0001192297Y0001277152D01*
X0001181109Y0001269677D01*
X0001171594Y0001260162D01*
X0001164119Y0001248975D01*
X0001158970Y0001236543D01*
X0001156345Y0001223347D01*
X0000796959Y0001223347D01*
X0000794334Y0001236543D01*
X0000789185Y0001248975D01*
X0000781710Y0001260162D01*
X0000772195Y0001269677D01*
X0000761008Y0001277152D01*
X0000748577Y0001282301D01*
X0000735380Y0001284926D01*
X0000721924Y0001284926D01*
X0000708728Y0001282301D01*
X0000696297Y0001277152D01*
X0000685109Y0001269677D01*
X0000675594Y0001260162D01*
X0000668119Y0001248975D01*
X0000662970Y0001236543D01*
X0000660345Y0001223347D01*
X0000025984Y0001223347D01*
X0000025984Y0001349347D01*
X0000246845Y0001349347D01*
X0000246845Y0001335891D01*
X0000249470Y0001322695D01*
X0000254619Y0001310263D01*
X0000262094Y0001299076D01*
X0000271609Y0001289561D01*
X0000282797Y0001282086D01*
X0000295228Y0001276937D01*
X0000308424Y0001274312D01*
X0000321880Y0001274312D01*
X0000335077Y0001276937D01*
X0000347508Y0001282086D01*
X0000358695Y0001289561D01*
X0000368210Y0001299076D01*
X0000375685Y0001310263D01*
X0000380834Y0001322695D01*
X0000383459Y0001335891D01*
X0000383459Y0001349347D01*
X0000380834Y0001362543D01*
X0000375685Y0001374975D01*
X0000368210Y0001386162D01*
X0000358695Y0001395677D01*
X0000347508Y0001403152D01*
X0000335077Y0001408301D01*
X0000321880Y0001410926D01*
X0000308424Y0001410926D01*
X0000295228Y0001408301D01*
X0000282797Y0001403152D01*
X0000271609Y0001395677D01*
X0000262094Y0001386162D01*
X0000254619Y0001374975D01*
X0000249470Y0001362543D01*
X0000246845Y0001349347D01*
X0000025984Y0001349347D01*
X0000025984Y0001448214D01*
X0001256042Y0001448214D01*
X0001256042Y0001420024D01*
X0001261541Y0001392375D01*
X0001272329Y0001366331D01*
X0001287991Y0001342892D01*
X0001307925Y0001322958D01*
X0001331364Y0001307296D01*
X0001357408Y0001296508D01*
X0001385057Y0001291009D01*
X0001413247Y0001291009D01*
X0001440896Y0001296508D01*
X0001466940Y0001307296D01*
X0001490380Y0001322958D01*
X0001510313Y0001342892D01*
X0001514626Y0001349347D01*
X0001569345Y0001349347D01*
X0001569345Y0001335891D01*
X0001571970Y0001322695D01*
X0001577119Y0001310263D01*
X0001584594Y0001299076D01*
X0001594109Y0001289561D01*
X0001605297Y0001282086D01*
X0001617728Y0001276937D01*
X0001630924Y0001274312D01*
X0001644380Y0001274312D01*
X0001657577Y0001276937D01*
X0001670008Y0001282086D01*
X0001681195Y0001289561D01*
X0001690710Y0001299076D01*
X0001698185Y0001310263D01*
X0001703334Y0001322695D01*
X0001705959Y0001335891D01*
X0001705959Y0001349347D01*
X0001703334Y0001362543D01*
X0001698185Y0001374975D01*
X0001690710Y0001386162D01*
X0001681195Y0001395677D01*
X0001670008Y0001403152D01*
X0001657577Y0001408301D01*
X0001644380Y0001410926D01*
X0001630924Y0001410926D01*
X0001617728Y0001408301D01*
X0001605297Y0001403152D01*
X0001594109Y0001395677D01*
X0001584594Y0001386162D01*
X0001577119Y0001374975D01*
X0001571970Y0001362543D01*
X0001569345Y0001349347D01*
X0001514626Y0001349347D01*
X0001525975Y0001366331D01*
X0001536763Y0001392375D01*
X0001542262Y0001420024D01*
X0001542262Y0001448214D01*
X0001536763Y0001475863D01*
X0001525975Y0001501907D01*
X0001510313Y0001525346D01*
X0001490380Y0001545280D01*
X0001466940Y0001560942D01*
X0001457513Y0001564847D01*
X0001768345Y0001564847D01*
X0001768345Y0001551391D01*
X0001770970Y0001538195D01*
X0001776119Y0001525763D01*
X0001783594Y0001514576D01*
X0001793109Y0001505061D01*
X0001804297Y0001497586D01*
X0001816728Y0001492437D01*
X0001829924Y0001489812D01*
X0001843380Y0001489812D01*
X0001856577Y0001492437D01*
X0001869008Y0001497586D01*
X0001880195Y0001505061D01*
X0001889710Y0001514576D01*
X0001897185Y0001525763D01*
X0001902334Y0001538195D01*
X0001904959Y0001551391D01*
X0001904959Y0001564847D01*
X0001902334Y0001578043D01*
X0001897185Y0001590475D01*
X0001889710Y0001601662D01*
X0001880195Y0001611177D01*
X0001869008Y0001618652D01*
X0001856577Y0001623801D01*
X0001843380Y0001626426D01*
X0001829924Y0001626426D01*
X0001816728Y0001623801D01*
X0001804297Y0001618652D01*
X0001793109Y0001611177D01*
X0001783594Y0001601662D01*
X0001776119Y0001590475D01*
X0001770970Y0001578043D01*
X0001768345Y0001564847D01*
X0001457513Y0001564847D01*
X0001440896Y0001571730D01*
X0001413247Y0001577229D01*
X0001385057Y0001577229D01*
X0001357408Y0001571730D01*
X0001331364Y0001560942D01*
X0001307925Y0001545280D01*
X0001287991Y0001525346D01*
X0001272329Y0001501907D01*
X0001261541Y0001475863D01*
X0001256042Y0001448214D01*
X0000025984Y0001448214D01*
X0000025984Y0001564847D01*
X0000051345Y0001564847D01*
X0000051345Y0001551391D01*
X0000053970Y0001538195D01*
X0000059119Y0001525763D01*
X0000066594Y0001514576D01*
X0000076109Y0001505061D01*
X0000087297Y0001497586D01*
X0000099728Y0001492437D01*
X0000112924Y0001489812D01*
X0000126380Y0001489812D01*
X0000139577Y0001492437D01*
X0000152008Y0001497586D01*
X0000163195Y0001505061D01*
X0000172710Y0001514576D01*
X0000180185Y0001525763D01*
X0000185334Y0001538195D01*
X0000187959Y0001551391D01*
X0000187959Y0001564847D01*
X0000185334Y0001578043D01*
X0000180185Y0001590475D01*
X0000172710Y0001601662D01*
X0000163195Y0001611177D01*
X0000152008Y0001618652D01*
X0000139577Y0001623801D01*
X0000126380Y0001626426D01*
X0000112924Y0001626426D01*
X0000099728Y0001623801D01*
X0000087297Y0001618652D01*
X0000076109Y0001611177D01*
X0000066594Y0001601662D01*
X0000059119Y0001590475D01*
X0000053970Y0001578043D01*
X0000051345Y0001564847D01*
X0000025984Y0001564847D01*
X0000025984Y0001699214D01*
X0000424042Y0001699214D01*
X0000424042Y0001671024D01*
X0000429541Y0001643375D01*
X0000440329Y0001617331D01*
X0000455991Y0001593892D01*
X0000475925Y0001573958D01*
X0000499364Y0001558296D01*
X0000525408Y0001547508D01*
X0000553057Y0001542009D01*
X0000581247Y0001542009D01*
X0000608896Y0001547508D01*
X0000634940Y0001558296D01*
X0000658380Y0001573958D01*
X0000678313Y0001593892D01*
X0000693975Y0001617331D01*
X0000704763Y0001643375D01*
X0000710262Y0001671024D01*
X0000710262Y0001699214D01*
X0000704763Y0001726863D01*
X0000693975Y0001752907D01*
X0000678313Y0001776346D01*
X0000672313Y0001782347D01*
X0001569345Y0001782347D01*
X0001569345Y0001768891D01*
X0001571970Y0001755695D01*
X0001577119Y0001743263D01*
X0001584594Y0001732076D01*
X0001594109Y0001722561D01*
X0001605297Y0001715086D01*
X0001617728Y0001709937D01*
X0001630924Y0001707312D01*
X0001644380Y0001707312D01*
X0001657577Y0001709937D01*
X0001670008Y0001715086D01*
X0001681195Y0001722561D01*
X0001690710Y0001732076D01*
X0001698185Y0001743263D01*
X0001703334Y0001755695D01*
X0001705959Y0001768891D01*
X0001705959Y0001782347D01*
X0001703334Y0001795543D01*
X0001698185Y0001807975D01*
X0001690710Y0001819162D01*
X0001681195Y0001828677D01*
X0001670008Y0001836152D01*
X0001657577Y0001841301D01*
X0001644380Y0001843926D01*
X0001630924Y0001843926D01*
X0001617728Y0001841301D01*
X0001605297Y0001836152D01*
X0001594109Y0001828677D01*
X0001584594Y0001819162D01*
X0001577119Y0001807975D01*
X0001571970Y0001795543D01*
X0001569345Y0001782347D01*
X0000672313Y0001782347D01*
X0000658380Y0001796280D01*
X0000634940Y0001811942D01*
X0000608896Y0001822730D01*
X0000581247Y0001828229D01*
X0000553057Y0001828229D01*
X0000525408Y0001822730D01*
X0000499364Y0001811942D01*
X0000475925Y0001796280D01*
X0000455991Y0001776346D01*
X0000440329Y0001752907D01*
X0000429541Y0001726863D01*
X0000424042Y0001699214D01*
X0000025984Y0001699214D01*
X0000025984Y0001782347D01*
X0000246845Y0001782347D01*
X0000246845Y0001768891D01*
X0000249470Y0001755695D01*
X0000254619Y0001743263D01*
X0000262094Y0001732076D01*
X0000271609Y0001722561D01*
X0000282797Y0001715086D01*
X0000295228Y0001709937D01*
X0000308424Y0001707312D01*
X0000321880Y0001707312D01*
X0000335077Y0001709937D01*
X0000347508Y0001715086D01*
X0000358695Y0001722561D01*
X0000368210Y0001732076D01*
X0000375685Y0001743263D01*
X0000380834Y0001755695D01*
X0000383459Y0001768891D01*
X0000383459Y0001782347D01*
X0000380834Y0001795543D01*
X0000375685Y0001807975D01*
X0000368210Y0001819162D01*
X0000358695Y0001828677D01*
X0000347508Y0001836152D01*
X0000335077Y0001841301D01*
X0000321880Y0001843926D01*
X0000308424Y0001843926D01*
X0000295228Y0001841301D01*
X0000282797Y0001836152D01*
X0000271609Y0001828677D01*
X0000262094Y0001819162D01*
X0000254619Y0001807975D01*
X0000249470Y0001795543D01*
X0000246845Y0001782347D01*
X0000025984Y0001782347D01*
X0000025984Y0001908347D01*
X0000660345Y0001908347D01*
X0000660345Y0001894891D01*
X0000662970Y0001881695D01*
X0000668119Y0001869263D01*
X0000675594Y0001858076D01*
X0000685109Y0001848561D01*
X0000696297Y0001841086D01*
X0000708728Y0001835937D01*
X0000721924Y0001833312D01*
X0000735380Y0001833312D01*
X0000748577Y0001835937D01*
X0000761008Y0001841086D01*
X0000772195Y0001848561D01*
X0000781710Y0001858076D01*
X0000789185Y0001869263D01*
X0000794334Y0001881695D01*
X0000796959Y0001894891D01*
X0000796959Y0001908347D01*
X0001156345Y0001908347D01*
X0001156345Y0001894891D01*
X0001158970Y0001881695D01*
X0001164119Y0001869263D01*
X0001171594Y0001858076D01*
X0001181109Y0001848561D01*
X0001192297Y0001841086D01*
X0001204728Y0001835937D01*
X0001217924Y0001833312D01*
X0001231380Y0001833312D01*
X0001244577Y0001835937D01*
X0001257008Y0001841086D01*
X0001268195Y0001848561D01*
X0001277710Y0001858076D01*
X0001285185Y0001869263D01*
X0001290334Y0001881695D01*
X0001292959Y0001894891D01*
X0001292959Y0001908347D01*
X0001290334Y0001921543D01*
X0001285185Y0001933975D01*
X0001277710Y0001945162D01*
X0001268195Y0001954677D01*
X0001257008Y0001962152D01*
X0001244577Y0001967301D01*
X0001231380Y0001969926D01*
X0001217924Y0001969926D01*
X0001204728Y0001967301D01*
X0001192297Y0001962152D01*
X0001181109Y0001954677D01*
X0001171594Y0001945162D01*
X0001164119Y0001933975D01*
X0001158970Y0001921543D01*
X0001156345Y0001908347D01*
X0000796959Y0001908347D01*
X0000794334Y0001921543D01*
X0000789185Y0001933975D01*
X0000781710Y0001945162D01*
X0000772195Y0001954677D01*
X0000761008Y0001962152D01*
X0000748577Y0001967301D01*
X0000735380Y0001969926D01*
X0000721924Y0001969926D01*
X0000708728Y0001967301D01*
X0000696297Y0001962152D01*
X0000685109Y0001954677D01*
X0000675594Y0001945162D01*
X0000668119Y0001933975D01*
X0000662970Y0001921543D01*
X0000660345Y0001908347D01*
X0000025984Y0001908347D01*
X0000025984Y0001971171D01*
X0000027111Y0001982665D01*
X0000030080Y0001992498D01*
X0000034902Y0002001568D01*
X0000041394Y0002009528D01*
X0000049309Y0002016075D01*
X0000058344Y0002020961D01*
X0000068157Y0002023998D01*
X0000079570Y0002025198D01*
X0001872381Y0002025198D01*
X0001883909Y0002024068D01*
G37*
G04 #@! TD.AperFunction*
M02*