%
M48
METRIC,000.000
T01C0.50
%
T01
X007279Y053950
X008279Y053950
X009279Y053950
X010279Y053950
X011279Y053950
X012279Y053950
X012648Y052350
X011648Y052350
X010648Y052350
X009648Y052350
X008648Y052350
X007648Y052350
X013659Y079450
X012659Y079450
X011659Y079450
X010659Y079450
X009659Y079450
X008659Y079450
X008710Y080951
X009710Y080951
X010710Y080951
X011710Y080951
X012710Y080951
X013710Y080951
X039847Y064669
X039847Y065669
X039847Y066669
X039847Y067669
X039847Y068669
X039847Y069669
X042008Y068871
X042008Y067871
X042008Y066871
X042008Y065871
X042008Y064871
X042008Y063871
X051450Y042290
X051450Y041290
X051450Y040290
X051450Y039290
X051450Y038290
X051450Y037290
X051450Y036290
X049848Y036575
X049848Y037575
X049848Y038575
X049848Y039575
X049847Y040575
X049847Y041575
X081544Y054802
X082544Y054802
X083544Y054802
X084544Y054802
X085544Y054802
X086544Y054802
X086360Y052350
X085360Y052350
X084360Y052350
X083360Y052350
X082360Y052350
X081360Y052350
X054014Y070242
X054014Y069242
X054014Y068242
X054014Y067242
X054014Y066242
X054014Y065242
X052048Y065565
X052048Y066565
X052048Y067565
X052048Y068565
X052048Y069565
X052048Y070565
X028659Y079450
X027659Y079450
X026659Y079450
X025659Y079450
X024659Y079450
X023659Y079450
X023710Y080951
X024710Y080951
X025710Y080951
X026710Y080951
X027710Y080951
X028710Y080951
X030279Y053950
X031279Y053950
X032279Y053950
X033279Y053950
X034279Y053950
X035279Y053950
X035648Y052350
X034648Y052350
X033648Y052350
X032648Y052350
X031648Y052350
X030648Y052350
X059544Y054802
X060544Y054802
X061544Y054802
X062544Y054802
X063544Y054802
X064544Y054802
X064360Y052350
X063360Y052350
X062360Y052350
X061360Y052350
X060360Y052350
X060360Y025250
X059360Y025250
X058360Y025250
X057360Y025250
X056360Y025250
X055360Y025250
X055980Y026850
X056980Y026850
X057980Y026850
X058980Y026850
X059980Y026850
X084360Y025250
X083360Y025250
X082360Y025250
X081360Y025250
X080360Y025250
X079360Y025250
X079980Y026850
X080980Y026850
X081980Y026850
X082980Y026850
X083980Y026850
X013648Y025250
X012648Y025250
X011648Y025250
X010648Y025250
X009648Y025250
X008648Y025250
X008289Y026850
X009289Y026850
X010289Y026850
X011289Y026850
X012289Y026850
X013289Y026850
X036648Y025250
X035648Y025250
X034648Y025250
X033648Y025250
X032648Y025250
X031648Y025250
X031289Y026850
X032289Y026850
X033289Y026850
X034289Y026850
X035289Y026850
X036289Y026850
X051450Y015190
X051450Y014190
X051450Y013190
X051450Y012190
X051450Y011190
X051450Y010190
X049848Y010475
X049848Y011475
X049848Y012475
X049847Y013475
X049847Y014475
X049847Y015475
M30