%
M48
METRIC,000.000
T01C1.00
T02C1.27
T03C2.20
T10C0.64
T11C0.25
T12C0.30
T13C0.40
T14C0.50
T15C3.20
%
T01
X064524Y086295
X064524Y083756
X067064Y086295
X067064Y083756
X069604Y086295
X069604Y083756
X072144Y086295
X072144Y083756
X074684Y086295
X074684Y083756
X077223Y086295
X077223Y083756
X079764Y086295
X079764Y083756
X082304Y086295
X082304Y083756
T02
X063837Y065010
X063965Y067551
X066377Y070091
X066518Y067551
X068918Y065010
X069058Y067551
X071458Y070091
X071598Y067551
X073997Y065010
X074138Y067551
X076538Y070091
X076664Y067551
X079078Y065010
X079217Y067551
X081631Y070091
X081745Y067551
X084157Y065036
X084298Y067551
X008524Y083386
X011063Y088466
X013604Y083386
X016143Y088466
X018683Y083386
X021223Y088466
X023764Y083399
X026304Y088466
X028843Y083399
X049614Y056524
X044534Y059063
X049614Y061604
X044534Y064144
X049614Y066684
X044534Y069223
X049601Y071764
X044534Y074304
X049601Y076844
T03
X057437Y073050
X057437Y062052
X057742Y086575
X067826Y058851
X067839Y076250
X080437Y076250
X080437Y058851
X090431Y086626
X090826Y062052
X090838Y073050
X054736Y018001
X054736Y007003
X065138Y003802
X065150Y021201
X077723Y021201
X077736Y003802
X088125Y007003
X088137Y018001
X003035Y072201
X003035Y061203
X013437Y058002
X013449Y075401
X026022Y075401
X026035Y058002
X036424Y061203
X036436Y072201
X054736Y045101
X054736Y034103
X065138Y030902
X065150Y048301
X077723Y048301
X077736Y030902
X088125Y034103
X088137Y045101
X003039Y012476
X008005Y018001
X008005Y007002
X018508Y021201
X018508Y003802
X031106Y021201
X031106Y003802
X041596Y018001
X041596Y007002
X046651Y012476
X003039Y039576
X008005Y045101
X008005Y034102
X018508Y048301
X018508Y030902
X031106Y048301
X031106Y030902
X041596Y045101
X041596Y034102
X046651Y039576
T10
X009920Y085926
X012461Y085926
X025161Y085926
X027700Y085939
X047074Y057920
X047074Y060461
X047074Y073161
X047061Y075701
T11
X015026Y085926
X047074Y063026
T12
X017566Y085926
X047074Y065566
T13
X020105Y085939
X047061Y068106
T14
X022645Y085964
X047036Y070645
T15
X014406Y042802
X035538Y036427
M30