G04 #@! TF.GenerationSoftware,KiCad,Pcbnew,(5.1.12)-1*
G04 #@! TF.CreationDate,2022-03-26T22:23:47+08:00*
G04 #@! TF.ProjectId,Nozzle,4e6f7a7a-6c65-42e6-9b69-6361645f7063,0.5*
G04 #@! TF.SameCoordinates,Original*
G04 #@! TF.FileFunction,Legend,Top*
G04 #@! TF.FilePolarity,Positive*
%FSLAX46Y46*%
G04 Gerber Fmt 4.6, Leading zero omitted, Abs format (unit mm)*
G04 Created by KiCad (PCBNEW (5.1.12)-1) date 2022-03-26 22:23:47*
%MOMM*%
%LPD*%
G01*
G04 APERTURE LIST*
%ADD10C,0.150000*%
G04 APERTURE END LIST*
D10*
X147577276Y-109025180D02*
X147577276Y-108025180D01*
X147910609Y-108739466D01*
X148243942Y-108025180D01*
X148243942Y-109025180D01*
X148672514Y-108120419D02*
X148720133Y-108072800D01*
X148815371Y-108025180D01*
X149053466Y-108025180D01*
X149148704Y-108072800D01*
X149196323Y-108120419D01*
X149243942Y-108215657D01*
X149243942Y-108310895D01*
X149196323Y-108453752D01*
X148624895Y-109025180D01*
X149243942Y-109025180D01*
X147053466Y-110151371D02*
X147196323Y-110198990D01*
X147243942Y-110246609D01*
X147291561Y-110341847D01*
X147291561Y-110484704D01*
X147243942Y-110579942D01*
X147196323Y-110627561D01*
X147101085Y-110675180D01*
X146720133Y-110675180D01*
X146720133Y-109675180D01*
X147053466Y-109675180D01*
X147148704Y-109722800D01*
X147196323Y-109770419D01*
X147243942Y-109865657D01*
X147243942Y-109960895D01*
X147196323Y-110056133D01*
X147148704Y-110103752D01*
X147053466Y-110151371D01*
X146720133Y-110151371D01*
X147862990Y-110675180D02*
X147767752Y-110627561D01*
X147720133Y-110579942D01*
X147672514Y-110484704D01*
X147672514Y-110198990D01*
X147720133Y-110103752D01*
X147767752Y-110056133D01*
X147862990Y-110008514D01*
X148005847Y-110008514D01*
X148101085Y-110056133D01*
X148148704Y-110103752D01*
X148196323Y-110198990D01*
X148196323Y-110484704D01*
X148148704Y-110579942D01*
X148101085Y-110627561D01*
X148005847Y-110675180D01*
X147862990Y-110675180D01*
X148767752Y-110675180D02*
X148672514Y-110627561D01*
X148624895Y-110532323D01*
X148624895Y-109675180D01*
X149005847Y-110008514D02*
X149386800Y-110008514D01*
X149148704Y-109675180D02*
X149148704Y-110532323D01*
X149196323Y-110627561D01*
X149291561Y-110675180D01*
X149386800Y-110675180D01*
X149672514Y-110627561D02*
X149767752Y-110675180D01*
X149958228Y-110675180D01*
X150053466Y-110627561D01*
X150101085Y-110532323D01*
X150101085Y-110484704D01*
X150053466Y-110389466D01*
X149958228Y-110341847D01*
X149815371Y-110341847D01*
X149720133Y-110294228D01*
X149672514Y-110198990D01*
X149672514Y-110151371D01*
X149720133Y-110056133D01*
X149815371Y-110008514D01*
X149958228Y-110008514D01*
X150053466Y-110056133D01*
X133958580Y-117258580D02*
X134149057Y-117258580D01*
X134244295Y-117306200D01*
X134339533Y-117401438D01*
X134387152Y-117591914D01*
X134387152Y-117925247D01*
X134339533Y-118115723D01*
X134244295Y-118210961D01*
X134149057Y-118258580D01*
X133958580Y-118258580D01*
X133863342Y-118210961D01*
X133768104Y-118115723D01*
X133720485Y-117925247D01*
X133720485Y-117591914D01*
X133768104Y-117401438D01*
X133863342Y-117306200D01*
X133958580Y-117258580D01*
X134815723Y-117591914D02*
X134815723Y-118591914D01*
X134815723Y-117639533D02*
X134910961Y-117591914D01*
X135101438Y-117591914D01*
X135196676Y-117639533D01*
X135244295Y-117687152D01*
X135291914Y-117782390D01*
X135291914Y-118068104D01*
X135244295Y-118163342D01*
X135196676Y-118210961D01*
X135101438Y-118258580D01*
X134910961Y-118258580D01*
X134815723Y-118210961D01*
X136101438Y-118210961D02*
X136006200Y-118258580D01*
X135815723Y-118258580D01*
X135720485Y-118210961D01*
X135672866Y-118115723D01*
X135672866Y-117734771D01*
X135720485Y-117639533D01*
X135815723Y-117591914D01*
X136006200Y-117591914D01*
X136101438Y-117639533D01*
X136149057Y-117734771D01*
X136149057Y-117830009D01*
X135672866Y-117925247D01*
X136577628Y-117591914D02*
X136577628Y-118258580D01*
X136577628Y-117687152D02*
X136625247Y-117639533D01*
X136720485Y-117591914D01*
X136863342Y-117591914D01*
X136958580Y-117639533D01*
X137006200Y-117734771D01*
X137006200Y-118258580D01*
X138244295Y-118258580D02*
X138244295Y-117258580D01*
X138625247Y-117258580D01*
X138720485Y-117306200D01*
X138768104Y-117353819D01*
X138815723Y-117449057D01*
X138815723Y-117591914D01*
X138768104Y-117687152D01*
X138720485Y-117734771D01*
X138625247Y-117782390D01*
X138244295Y-117782390D01*
X139149057Y-117591914D02*
X139387152Y-118258580D01*
X139625247Y-117591914D02*
X139387152Y-118258580D01*
X139291914Y-118496676D01*
X139244295Y-118544295D01*
X139149057Y-118591914D01*
X140006200Y-118258580D02*
X140006200Y-117591914D01*
X140006200Y-117782390D02*
X140053819Y-117687152D01*
X140101438Y-117639533D01*
X140196676Y-117591914D01*
X140291914Y-117591914D01*
X140768104Y-118258580D02*
X140672866Y-118210961D01*
X140625247Y-118163342D01*
X140577628Y-118068104D01*
X140577628Y-117782390D01*
X140625247Y-117687152D01*
X140672866Y-117639533D01*
X140768104Y-117591914D01*
X140910961Y-117591914D01*
X141006200Y-117639533D01*
X141053819Y-117687152D01*
X141101438Y-117782390D01*
X141101438Y-118068104D01*
X141053819Y-118163342D01*
X141006200Y-118210961D01*
X140910961Y-118258580D01*
X140768104Y-118258580D01*
X141815723Y-117258580D02*
X141815723Y-117972866D01*
X141768104Y-118115723D01*
X141672866Y-118210961D01*
X141530009Y-118258580D01*
X141434771Y-118258580D01*
X142672866Y-118210961D02*
X142577628Y-118258580D01*
X142387152Y-118258580D01*
X142291914Y-118210961D01*
X142244295Y-118115723D01*
X142244295Y-117734771D01*
X142291914Y-117639533D01*
X142387152Y-117591914D01*
X142577628Y-117591914D01*
X142672866Y-117639533D01*
X142720485Y-117734771D01*
X142720485Y-117830009D01*
X142244295Y-117925247D01*
X143006200Y-117591914D02*
X143387152Y-117591914D01*
X143149057Y-117258580D02*
X143149057Y-118115723D01*
X143196676Y-118210961D01*
X143291914Y-118258580D01*
X143387152Y-118258580D01*
X135101438Y-119908580D02*
X135101438Y-118908580D01*
X135482390Y-118908580D01*
X135577628Y-118956200D01*
X135625247Y-119003819D01*
X135672866Y-119099057D01*
X135672866Y-119241914D01*
X135625247Y-119337152D01*
X135577628Y-119384771D01*
X135482390Y-119432390D01*
X135101438Y-119432390D01*
X136101438Y-119908580D02*
X136101438Y-119241914D01*
X136101438Y-119432390D02*
X136149057Y-119337152D01*
X136196676Y-119289533D01*
X136291914Y-119241914D01*
X136387152Y-119241914D01*
X136720485Y-119908580D02*
X136720485Y-119241914D01*
X136720485Y-118908580D02*
X136672866Y-118956200D01*
X136720485Y-119003819D01*
X136768104Y-118956200D01*
X136720485Y-118908580D01*
X136720485Y-119003819D01*
X137196676Y-119241914D02*
X137196676Y-119908580D01*
X137196676Y-119337152D02*
X137244295Y-119289533D01*
X137339533Y-119241914D01*
X137482390Y-119241914D01*
X137577628Y-119289533D01*
X137625247Y-119384771D01*
X137625247Y-119908580D01*
X137958580Y-119241914D02*
X138339533Y-119241914D01*
X138101438Y-118908580D02*
X138101438Y-119765723D01*
X138149057Y-119860961D01*
X138244295Y-119908580D01*
X138339533Y-119908580D01*
X138672866Y-119908580D02*
X138672866Y-118908580D01*
X138672866Y-119384771D02*
X139244295Y-119384771D01*
X139244295Y-119908580D02*
X139244295Y-118908580D01*
X140101438Y-119860961D02*
X140006200Y-119908580D01*
X139815723Y-119908580D01*
X139720485Y-119860961D01*
X139672866Y-119765723D01*
X139672866Y-119384771D01*
X139720485Y-119289533D01*
X139815723Y-119241914D01*
X140006200Y-119241914D01*
X140101438Y-119289533D01*
X140149057Y-119384771D01*
X140149057Y-119480009D01*
X139672866Y-119575247D01*
X141006200Y-119908580D02*
X141006200Y-119384771D01*
X140958580Y-119289533D01*
X140863342Y-119241914D01*
X140672866Y-119241914D01*
X140577628Y-119289533D01*
X141006200Y-119860961D02*
X140910961Y-119908580D01*
X140672866Y-119908580D01*
X140577628Y-119860961D01*
X140530009Y-119765723D01*
X140530009Y-119670485D01*
X140577628Y-119575247D01*
X140672866Y-119527628D01*
X140910961Y-119527628D01*
X141006200Y-119480009D01*
X141910961Y-119908580D02*
X141910961Y-118908580D01*
X141910961Y-119860961D02*
X141815723Y-119908580D01*
X141625247Y-119908580D01*
X141530009Y-119860961D01*
X141482390Y-119813342D01*
X141434771Y-119718104D01*
X141434771Y-119432390D01*
X141482390Y-119337152D01*
X141530009Y-119289533D01*
X141625247Y-119241914D01*
X141815723Y-119241914D01*
X141910961Y-119289533D01*
X136696676Y-120606200D02*
X136601438Y-120558580D01*
X136458580Y-120558580D01*
X136315723Y-120606200D01*
X136220485Y-120701438D01*
X136172866Y-120796676D01*
X136125247Y-120987152D01*
X136125247Y-121130009D01*
X136172866Y-121320485D01*
X136220485Y-121415723D01*
X136315723Y-121510961D01*
X136458580Y-121558580D01*
X136553819Y-121558580D01*
X136696676Y-121510961D01*
X136744295Y-121463342D01*
X136744295Y-121130009D01*
X136553819Y-121130009D01*
X137553819Y-121510961D02*
X137458580Y-121558580D01*
X137268104Y-121558580D01*
X137172866Y-121510961D01*
X137125247Y-121415723D01*
X137125247Y-121034771D01*
X137172866Y-120939533D01*
X137268104Y-120891914D01*
X137458580Y-120891914D01*
X137553819Y-120939533D01*
X137601438Y-121034771D01*
X137601438Y-121130009D01*
X137125247Y-121225247D01*
X138030009Y-120891914D02*
X138030009Y-121558580D01*
X138030009Y-120987152D02*
X138077628Y-120939533D01*
X138172866Y-120891914D01*
X138315723Y-120891914D01*
X138410961Y-120939533D01*
X138458580Y-121034771D01*
X138458580Y-121558580D01*
X138839533Y-120558580D02*
X139458580Y-120558580D01*
X139125247Y-120939533D01*
X139268104Y-120939533D01*
X139363342Y-120987152D01*
X139410961Y-121034771D01*
X139458580Y-121130009D01*
X139458580Y-121368104D01*
X139410961Y-121463342D01*
X139363342Y-121510961D01*
X139268104Y-121558580D01*
X138982390Y-121558580D01*
X138887152Y-121510961D01*
X138839533Y-121463342D01*
X139887152Y-121463342D02*
X139934771Y-121510961D01*
X139887152Y-121558580D01*
X139839533Y-121510961D01*
X139887152Y-121463342D01*
X139887152Y-121558580D01*
X140887152Y-121558580D02*
X140315723Y-121558580D01*
X140601438Y-121558580D02*
X140601438Y-120558580D01*
X140506200Y-120701438D01*
X140410961Y-120796676D01*
X140315723Y-120844295D01*
M02*
