%MOIN*%
%OFA0B0*%
%FSLAX44Y44*%
%IPPOS*%
%LPD*%
%ADD10C,0*%
D10*
X00015589Y00012992D02*
X00015589Y00012992D01*
X00015579Y00013115D01*
X00015551Y00013235D01*
X00015503Y00013349D01*
X00015439Y00013454D01*
X00015359Y00013548D01*
X00015265Y00013629D01*
X00015159Y00013693D01*
X00015045Y00013740D01*
X00014925Y00013769D01*
X00014802Y00013779D01*
X00008991Y00013779D01*
X00008954Y00013781D01*
X00008917Y00013786D01*
X00008881Y00013795D01*
X00008846Y00013807D01*
X00008812Y00013822D01*
X00008780Y00013841D01*
X00008749Y00013862D01*
X00008721Y00013886D01*
X00008695Y00013913D01*
X00008672Y00013942D01*
X00008652Y00013973D01*
X00008634Y00014006D01*
X00008620Y00014040D01*
X00008609Y00014076D01*
X00008602Y00014112D01*
X00008598Y00014149D01*
X00008598Y00014186D01*
X00008601Y00014223D01*
X00008607Y00014260D01*
X00008617Y00014296D01*
X00008617Y00014296D01*
X00008626Y00014319D01*
X00008635Y00014342D01*
X00008647Y00014363D01*
X00008659Y00014385D01*
X00008673Y00014405D01*
X00008688Y00014424D01*
X00008705Y00014443D01*
X00008722Y00014460D01*
X00008741Y00014477D01*
X00008760Y00014492D01*
X00008781Y00014506D01*
X00008802Y00014518D01*
X00008824Y00014529D01*
X00008847Y00014539D01*
X00008870Y00014547D01*
X00008893Y00014554D01*
X00008918Y00014560D01*
X00008942Y00014563D01*
X00008966Y00014566D01*
X00008991Y00014566D01*
X00014802Y00014566D01*
X00014925Y00014576D01*
X00015045Y00014605D01*
X00015159Y00014652D01*
X00015265Y00014717D01*
X00015359Y00014797D01*
X00015439Y00014891D01*
X00015503Y00014996D01*
X00015551Y00015111D01*
X00015579Y00015231D01*
X00015589Y00015354D01*
X00015589Y00020259D01*
X00015589Y00020259D01*
X00015594Y00020321D01*
X00015608Y00020381D01*
X00015632Y00020438D01*
X00015664Y00020491D01*
X00015704Y00020538D01*
X00015751Y00020578D01*
X00015804Y00020610D01*
X00015861Y00020634D01*
X00015921Y00020648D01*
X00015983Y00020653D01*
X00016044Y00020648D01*
X00016105Y00020634D01*
X00016162Y00020610D01*
X00016214Y00020578D01*
X00016261Y00020538D01*
X00016301Y00020491D01*
X00016334Y00020438D01*
X00016357Y00020381D01*
X00016372Y00020321D01*
X00016377Y00020259D01*
X00016377Y00015354D01*
X00016386Y00015231D01*
X00016415Y00015111D01*
X00016462Y00014996D01*
X00016527Y00014891D01*
X00016607Y00014797D01*
X00016701Y00014717D01*
X00016806Y00014652D01*
X00016921Y00014605D01*
X00017041Y00014576D01*
X00017164Y00014566D01*
X00022975Y00014566D01*
X00022999Y00014566D01*
X00023024Y00014563D01*
X00023048Y00014560D01*
X00023072Y00014554D01*
X00023096Y00014547D01*
X00023119Y00014539D01*
X00023142Y00014529D01*
X00023164Y00014518D01*
X00023185Y00014506D01*
X00023205Y00014492D01*
X00023225Y00014477D01*
X00023243Y00014460D01*
X00023261Y00014443D01*
X00023277Y00014424D01*
X00023292Y00014405D01*
X00023306Y00014385D01*
X00023319Y00014363D01*
X00023330Y00014342D01*
X00023340Y00014319D01*
X00023349Y00014296D01*
X00023349Y00014296D01*
X00023359Y00014260D01*
X00023365Y00014223D01*
X00023368Y00014186D01*
X00023368Y00014149D01*
X00023364Y00014112D01*
X00023356Y00014076D01*
X00023345Y00014040D01*
X00023331Y00014006D01*
X00023314Y00013973D01*
X00023294Y00013942D01*
X00023270Y00013913D01*
X00023245Y00013886D01*
X00023216Y00013862D01*
X00023186Y00013841D01*
X00023154Y00013822D01*
X00023120Y00013807D01*
X00023085Y00013795D01*
X00023049Y00013786D01*
X00023012Y00013781D01*
X00022975Y00013779D01*
X00017164Y00013779D01*
X00017041Y00013769D01*
X00016921Y00013740D01*
X00016806Y00013693D01*
X00016701Y00013629D01*
X00016607Y00013548D01*
X00016527Y00013454D01*
X00016462Y00013349D01*
X00016415Y00013235D01*
X00016386Y00013115D01*
X00016377Y00012992D01*
X00016377Y00008086D01*
X00016372Y00008024D01*
X00016357Y00007964D01*
X00016334Y00007907D01*
X00016301Y00007855D01*
X00016261Y00007808D01*
X00016214Y00007768D01*
X00016162Y00007735D01*
X00016105Y00007712D01*
X00016044Y00007697D01*
X00015983Y00007692D01*
X00015921Y00007697D01*
X00015861Y00007712D01*
X00015804Y00007735D01*
X00015751Y00007768D01*
X00015704Y00007808D01*
X00015664Y00007855D01*
X00015632Y00007907D01*
X00015608Y00007964D01*
X00015594Y00008024D01*
X00015983Y00008086D01*
X00015589Y00008086D01*
X00015589Y00012992D01*
X00014802Y00000000D02*
X00014802Y00000000D01*
X00014925Y00000009D01*
X00015045Y00000038D01*
X00015159Y00000085D01*
X00015265Y00000150D01*
X00015359Y00000230D01*
X00015439Y00000324D01*
X00015503Y00000429D01*
X00015551Y00000544D01*
X00015579Y00000664D01*
X00015589Y00000787D01*
X00015589Y00005693D01*
X00015589Y00005693D01*
X00015594Y00005754D01*
X00015608Y00005814D01*
X00015632Y00005871D01*
X00015664Y00005924D01*
X00015704Y00005971D01*
X00015751Y00006011D01*
X00015804Y00006043D01*
X00015861Y00006067D01*
X00015921Y00006081D01*
X00015983Y00006086D01*
X00016044Y00006081D01*
X00016105Y00006067D01*
X00016162Y00006043D01*
X00016214Y00006011D01*
X00016261Y00005971D01*
X00016301Y00005924D01*
X00016334Y00005871D01*
X00016357Y00005814D01*
X00016372Y00005754D01*
X00016377Y00005693D01*
X00016377Y00000787D01*
X00016386Y00000664D01*
X00016415Y00000544D01*
X00016462Y00000429D01*
X00016527Y00000324D01*
X00016607Y00000230D01*
X00016701Y00000150D01*
X00016806Y00000085D01*
X00016921Y00000038D01*
X00017041Y00000009D01*
X00017164Y00000000D01*
X00031179Y00000000D01*
X00031302Y00000009D01*
X00031422Y00000038D01*
X00031536Y00000085D01*
X00031642Y00000150D01*
X00031736Y00000230D01*
X00031816Y00000324D01*
X00031880Y00000429D01*
X00031928Y00000544D01*
X00031956Y00000664D01*
X00031966Y00000787D01*
X00031966Y00012992D01*
X00031956Y00013115D01*
X00031928Y00013235D01*
X00031880Y00013349D01*
X00031816Y00013454D01*
X00031736Y00013548D01*
X00031642Y00013629D01*
X00031536Y00013693D01*
X00031422Y00013740D01*
X00031302Y00013769D01*
X00031179Y00013779D01*
X00025368Y00013779D01*
X00025331Y00013781D01*
X00025294Y00013786D01*
X00025258Y00013795D01*
X00025223Y00013807D01*
X00025189Y00013822D01*
X00025157Y00013841D01*
X00025126Y00013862D01*
X00025098Y00013886D01*
X00025072Y00013913D01*
X00025049Y00013942D01*
X00025029Y00013973D01*
X00025012Y00014006D01*
X00024997Y00014040D01*
X00024987Y00014076D01*
X00024979Y00014112D01*
X00024975Y00014149D01*
X00024975Y00014186D01*
X00024978Y00014223D01*
X00024984Y00014260D01*
X00024994Y00014296D01*
X00024994Y00014296D01*
X00025003Y00014319D01*
X00025012Y00014342D01*
X00025024Y00014363D01*
X00025036Y00014385D01*
X00025050Y00014405D01*
X00025065Y00014424D01*
X00025082Y00014443D01*
X00025099Y00014460D01*
X00025118Y00014477D01*
X00025137Y00014492D01*
X00025158Y00014506D01*
X00025179Y00014518D01*
X00025201Y00014529D01*
X00025224Y00014539D01*
X00025247Y00014547D01*
X00025270Y00014554D01*
X00025295Y00014560D01*
X00025319Y00014563D01*
X00025343Y00014566D01*
X00025368Y00014566D01*
X00031179Y00014566D01*
X00031302Y00014576D01*
X00031422Y00014605D01*
X00031536Y00014652D01*
X00031642Y00014717D01*
X00031736Y00014797D01*
X00031816Y00014891D01*
X00031880Y00014996D01*
X00031928Y00015111D01*
X00031956Y00015231D01*
X00031966Y00015354D01*
X00031966Y00027559D01*
X00031956Y00027682D01*
X00031928Y00027802D01*
X00031880Y00027916D01*
X00031816Y00028021D01*
X00031736Y00028115D01*
X00031642Y00028196D01*
X00031536Y00028260D01*
X00031422Y00028307D01*
X00031302Y00028336D01*
X00031179Y00028346D01*
X00017164Y00028346D01*
X00017041Y00028336D01*
X00016921Y00028307D01*
X00016806Y00028260D01*
X00016701Y00028196D01*
X00016607Y00028115D01*
X00016527Y00028021D01*
X00016462Y00027916D01*
X00016415Y00027802D01*
X00016386Y00027682D01*
X00016377Y00027559D01*
X00016377Y00022653D01*
X00016372Y00022591D01*
X00016357Y00022531D01*
X00016334Y00022474D01*
X00016301Y00022422D01*
X00016261Y00022375D01*
X00016214Y00022334D01*
X00016162Y00022302D01*
X00016105Y00022279D01*
X00016044Y00022264D01*
X00015983Y00022259D01*
X00015921Y00022264D01*
X00015861Y00022279D01*
X00015804Y00022302D01*
X00015751Y00022334D01*
X00015704Y00022375D01*
X00015664Y00022422D01*
X00015632Y00022474D01*
X00015608Y00022531D01*
X00015594Y00022591D01*
X00015983Y00022653D01*
X00015589Y00022653D01*
X00015589Y00027559D01*
X00015579Y00027682D01*
X00015551Y00027802D01*
X00015503Y00027916D01*
X00015439Y00028021D01*
X00015359Y00028115D01*
X00015265Y00028196D01*
X00015159Y00028260D01*
X00015045Y00028307D01*
X00014925Y00028336D01*
X00014802Y00028346D01*
X00000787Y00028346D01*
X00000664Y00028336D01*
X00000544Y00028307D01*
X00000429Y00028260D01*
X00000324Y00028196D01*
X00000230Y00028115D01*
X00000150Y00028021D01*
X00000085Y00027916D01*
X00000038Y00027802D01*
X00000009Y00027682D01*
X00000000Y00027559D01*
X00000000Y00015354D01*
X00000009Y00015231D01*
X00000038Y00015111D01*
X00000085Y00014996D01*
X00000150Y00014891D01*
X00000230Y00014797D01*
X00000324Y00014717D01*
X00000429Y00014652D01*
X00000544Y00014605D01*
X00000664Y00014576D01*
X00000787Y00014566D01*
X00006598Y00014566D01*
X00006622Y00014566D01*
X00006647Y00014563D01*
X00006671Y00014560D01*
X00006695Y00014554D01*
X00006719Y00014547D01*
X00006742Y00014539D01*
X00006765Y00014529D01*
X00006787Y00014518D01*
X00006808Y00014506D01*
X00006828Y00014492D01*
X00006848Y00014477D01*
X00006866Y00014460D01*
X00006884Y00014443D01*
X00006900Y00014424D01*
X00006915Y00014405D01*
X00006929Y00014385D01*
X00006942Y00014363D01*
X00006953Y00014342D01*
X00006963Y00014319D01*
X00006972Y00014296D01*
X00006972Y00014296D01*
X00006981Y00014260D01*
X00006988Y00014223D01*
X00006991Y00014186D01*
X00006991Y00014149D01*
X00006987Y00014112D01*
X00006979Y00014076D01*
X00006968Y00014040D01*
X00006954Y00014006D01*
X00006937Y00013973D01*
X00006917Y00013942D01*
X00006893Y00013913D01*
X00006868Y00013886D01*
X00006839Y00013862D01*
X00006809Y00013841D01*
X00006777Y00013822D01*
X00006743Y00013807D01*
X00006708Y00013795D01*
X00006671Y00013786D01*
X00006635Y00013781D01*
X00006598Y00013779D01*
X00000787Y00013779D01*
X00000664Y00013769D01*
X00000544Y00013740D01*
X00000429Y00013693D01*
X00000324Y00013629D01*
X00000230Y00013548D01*
X00000150Y00013454D01*
X00000085Y00013349D01*
X00000038Y00013235D01*
X00000009Y00013115D01*
X00000000Y00012992D01*
X00000000Y00000787D01*
X00000009Y00000664D01*
X00000038Y00000544D01*
X00000085Y00000429D01*
X00000150Y00000324D01*
X00000230Y00000230D01*
X00000324Y00000150D01*
X00000429Y00000085D01*
X00000544Y00000038D01*
X00000664Y00000009D01*
X00000787Y00000000D01*
X00014802Y00000000D01*
M02*