%
M48
METRIC,000.000
T01C0.50
%
T01
X022659Y035250
X021659Y035250
X020659Y035250
X019659Y035250
X018659Y035250
X017659Y035250
X017279Y036750
X018279Y036750
X019279Y036750
X020279Y036750
X021279Y036750
X022279Y036750
X039847Y014469
X039847Y015469
X039847Y016469
X039847Y017469
X039847Y018469
X039847Y019469
X039847Y020469
X041347Y020189
X041347Y019189
X041347Y018189
X041347Y017189
X041347Y016189
X041347Y015189
X039847Y051469
X039847Y052469
X039847Y053469
X039847Y054469
X039847Y055469
X039847Y056469
X039847Y057469
X041347Y057189
X041347Y056189
X041347Y055189
X041347Y054189
X041347Y053189
X041347Y052189
X064256Y035250
X063256Y035250
X062256Y035250
X061256Y035250
X060256Y035250
X059256Y035250
X058877Y036750
X059877Y036750
X060877Y036750
X061877Y036750
X062877Y036750
X063877Y036750
M30