%MOIN*%
%OFA0B0*%
%FSLAX46Y46*%
%IPPOS*%
%LPD*%
%ADD10C,0.011811023622047244*%
%ADD11C,0.0047244094488188976*%
%ADD22C,0.011811023622047244*%
%ADD23C,0.0047244094488188976*%
%ADD24C,0.011811023622047244*%
%ADD25C,0.0047244094488188976*%
%ADD26C,0.011811023622047244*%
%ADD27C,0.0047244094488188976*%
G01*
D10*
X0001000433Y0001010391D02*
X0000989184Y0001010391D01*
X0000983560Y0001007579D01*
X0000977936Y0001001955D01*
X0000975124Y0000990706D01*
X0000975124Y0000971021D01*
X0000977936Y0000959773D01*
X0000983560Y0000954148D01*
X0000989184Y0000951336D01*
X0001000433Y0000951336D01*
X0001006057Y0000954148D01*
X0001011681Y0000959773D01*
X0001014494Y0000971021D01*
X0001014494Y0000990706D01*
X0001011681Y0001001955D01*
X0001006057Y0001007579D01*
X0001000433Y0001010391D01*
X0000949814Y0000951336D02*
X0000949814Y0001010391D01*
X0000927317Y0001010391D01*
X0000921693Y0001007579D01*
X0000918881Y0001004767D01*
X0000916068Y0000999143D01*
X0000916068Y0000990706D01*
X0000918881Y0000985082D01*
X0000921693Y0000982270D01*
X0000927317Y0000979458D01*
X0000949814Y0000979458D01*
X0000873886Y0001010391D02*
X0000873886Y0000968209D01*
X0000876698Y0000959773D01*
X0000882323Y0000954148D01*
X0000890759Y0000951336D01*
X0000896383Y0000951336D01*
X0000845765Y0000956961D02*
X0000842953Y0000954148D01*
X0000845765Y0000951336D01*
X0000848577Y0000954148D01*
X0000845765Y0000956961D01*
X0000845765Y0000951336D01*
X0000845765Y0000987894D02*
X0000842953Y0000985082D01*
X0000845765Y0000982270D01*
X0000848577Y0000985082D01*
X0000845765Y0000987894D01*
X0000845765Y0000982270D01*
X0000781085Y0001010391D02*
X0000761400Y0000951336D01*
X0000741715Y0001010391D01*
X0000727654Y0001010391D02*
X0000691097Y0001010391D01*
X0000710782Y0000987894D01*
X0000702345Y0000987894D01*
X0000696721Y0000985082D01*
X0000693909Y0000982270D01*
X0000691097Y0000976646D01*
X0000691097Y0000962585D01*
X0000693909Y0000956961D01*
X0000696721Y0000954148D01*
X0000702345Y0000951336D01*
X0000719218Y0000951336D01*
X0000724842Y0000954148D01*
X0000727654Y0000956961D01*
X0000665787Y0000956961D02*
X0000662975Y0000954148D01*
X0000665787Y0000951336D01*
X0000668599Y0000954148D01*
X0000665787Y0000956961D01*
X0000665787Y0000951336D01*
X0000606732Y0000951336D02*
X0000640478Y0000951336D01*
X0000623605Y0000951336D02*
X0000623605Y0001010391D01*
X0000629229Y0001001955D01*
X0000634854Y0000996331D01*
X0000640478Y0000993519D01*
X0000556113Y0000951336D02*
X0000556113Y0000982270D01*
X0000558926Y0000987894D01*
X0000564550Y0000990706D01*
X0000575798Y0000990706D01*
X0000581423Y0000987894D01*
X0000556113Y0000954148D02*
X0000561738Y0000951336D01*
X0000575798Y0000951336D01*
X0000581423Y0000954148D01*
X0000584235Y0000959773D01*
X0000584235Y0000965397D01*
X0000581423Y0000971021D01*
X0000575798Y0000973834D01*
X0000561738Y0000973834D01*
X0000556113Y0000976646D01*
D11*
X0000335897Y0000492052D02*
X0000217897Y0000492052D01*
X0001228897Y0000492052D02*
X0001346897Y0000492052D01*
G04 next file*
G04 #@! TF.GenerationSoftware,KiCad,Pcbnew,(5.1.12)-1*
G04 #@! TF.CreationDate,2022-03-29T12:16:14+08:00*
G04 #@! TF.ProjectId,Nozzle,4e6f7a7a-6c65-42e6-9b69-6361645f7063,Gen3.1a*
G04 #@! TF.SameCoordinates,Original*
G04 #@! TF.FileFunction,Legend,Bot*
G04 #@! TF.FilePolarity,Positive*
G04 Gerber Fmt 4.6, Leading zero omitted, Abs format (unit mm)*
G04 Created by KiCad (PCBNEW (5.1.12)-1) date 2022-03-29 12:16:14*
G01*
G04 APERTURE LIST*
G04 APERTURE END LIST*
D22*
X0002638137Y0001010391D02*
X0002626889Y0001010391D01*
X0002621264Y0001007579D01*
X0002615640Y0001001955D01*
X0002612828Y0000990706D01*
X0002612828Y0000971021D01*
X0002615640Y0000959773D01*
X0002621264Y0000954148D01*
X0002626889Y0000951336D01*
X0002638137Y0000951336D01*
X0002643762Y0000954148D01*
X0002649386Y0000959773D01*
X0002652198Y0000971021D01*
X0002652198Y0000990706D01*
X0002649386Y0001001955D01*
X0002643762Y0001007579D01*
X0002638137Y0001010391D01*
X0002587519Y0000951336D02*
X0002587519Y0001010391D01*
X0002565022Y0001010391D01*
X0002559397Y0001007579D01*
X0002556585Y0001004767D01*
X0002553773Y0000999143D01*
X0002553773Y0000990706D01*
X0002556585Y0000985082D01*
X0002559397Y0000982270D01*
X0002565022Y0000979458D01*
X0002587519Y0000979458D01*
X0002511591Y0001010391D02*
X0002511591Y0000968209D01*
X0002514403Y0000959773D01*
X0002520027Y0000954148D01*
X0002528464Y0000951336D01*
X0002534088Y0000951336D01*
X0002483469Y0000956961D02*
X0002480657Y0000954148D01*
X0002483469Y0000951336D01*
X0002486281Y0000954148D01*
X0002483469Y0000956961D01*
X0002483469Y0000951336D01*
X0002483469Y0000987894D02*
X0002480657Y0000985082D01*
X0002483469Y0000982270D01*
X0002486281Y0000985082D01*
X0002483469Y0000987894D01*
X0002483469Y0000982270D01*
X0002418790Y0001010391D02*
X0002399105Y0000951336D01*
X0002379420Y0001010391D01*
X0002365359Y0001010391D02*
X0002328801Y0001010391D01*
X0002348486Y0000987894D01*
X0002340050Y0000987894D01*
X0002334425Y0000985082D01*
X0002331613Y0000982270D01*
X0002328801Y0000976646D01*
X0002328801Y0000962585D01*
X0002331613Y0000956961D01*
X0002334425Y0000954148D01*
X0002340050Y0000951336D01*
X0002356922Y0000951336D01*
X0002362547Y0000954148D01*
X0002365359Y0000956961D01*
X0002303492Y0000956961D02*
X0002300680Y0000954148D01*
X0002303492Y0000951336D01*
X0002306304Y0000954148D01*
X0002303492Y0000956961D01*
X0002303492Y0000951336D01*
X0002244437Y0000951336D02*
X0002278182Y0000951336D01*
X0002261309Y0000951336D02*
X0002261309Y0001010391D01*
X0002266934Y0001001955D01*
X0002272558Y0000996331D01*
X0002278182Y0000993519D01*
X0002193818Y0000951336D02*
X0002193818Y0000982270D01*
X0002196630Y0000987894D01*
X0002202254Y0000990706D01*
X0002213503Y0000990706D01*
X0002219127Y0000987894D01*
X0002193818Y0000954148D02*
X0002199442Y0000951336D01*
X0002213503Y0000951336D01*
X0002219127Y0000954148D01*
X0002221939Y0000959773D01*
X0002221939Y0000965397D01*
X0002219127Y0000971021D01*
X0002213503Y0000973834D01*
X0002199442Y0000973834D01*
X0002193818Y0000976646D01*
D23*
X0001973602Y0000492052D02*
X0001855602Y0000492052D01*
X0002866602Y0000492052D02*
X0002984602Y0000492052D01*
G04 next file*
G04 #@! TF.GenerationSoftware,KiCad,Pcbnew,(5.1.12)-1*
G04 #@! TF.CreationDate,2022-03-29T12:16:14+08:00*
G04 #@! TF.ProjectId,Nozzle,4e6f7a7a-6c65-42e6-9b69-6361645f7063,Gen3.1a*
G04 #@! TF.SameCoordinates,Original*
G04 #@! TF.FileFunction,Legend,Bot*
G04 #@! TF.FilePolarity,Positive*
G04 Gerber Fmt 4.6, Leading zero omitted, Abs format (unit mm)*
G04 Created by KiCad (PCBNEW (5.1.12)-1) date 2022-03-29 12:16:14*
G01*
G04 APERTURE LIST*
G04 APERTURE END LIST*
D24*
X0001000433Y0002467085D02*
X0000989184Y0002467085D01*
X0000983560Y0002464273D01*
X0000977936Y0002458649D01*
X0000975124Y0002447400D01*
X0000975124Y0002427715D01*
X0000977936Y0002416467D01*
X0000983560Y0002410842D01*
X0000989184Y0002408030D01*
X0001000433Y0002408030D01*
X0001006057Y0002410842D01*
X0001011681Y0002416467D01*
X0001014494Y0002427715D01*
X0001014494Y0002447400D01*
X0001011681Y0002458649D01*
X0001006057Y0002464273D01*
X0001000433Y0002467085D01*
X0000949814Y0002408030D02*
X0000949814Y0002467085D01*
X0000927317Y0002467085D01*
X0000921693Y0002464273D01*
X0000918881Y0002461461D01*
X0000916068Y0002455837D01*
X0000916068Y0002447400D01*
X0000918881Y0002441776D01*
X0000921693Y0002438964D01*
X0000927317Y0002436152D01*
X0000949814Y0002436152D01*
X0000873886Y0002467085D02*
X0000873886Y0002424903D01*
X0000876698Y0002416467D01*
X0000882323Y0002410842D01*
X0000890759Y0002408030D01*
X0000896383Y0002408030D01*
X0000845765Y0002413654D02*
X0000842953Y0002410842D01*
X0000845765Y0002408030D01*
X0000848577Y0002410842D01*
X0000845765Y0002413654D01*
X0000845765Y0002408030D01*
X0000845765Y0002444588D02*
X0000842953Y0002441776D01*
X0000845765Y0002438964D01*
X0000848577Y0002441776D01*
X0000845765Y0002444588D01*
X0000845765Y0002438964D01*
X0000781085Y0002467085D02*
X0000761400Y0002408030D01*
X0000741715Y0002467085D01*
X0000727654Y0002467085D02*
X0000691097Y0002467085D01*
X0000710782Y0002444588D01*
X0000702345Y0002444588D01*
X0000696721Y0002441776D01*
X0000693909Y0002438964D01*
X0000691097Y0002433339D01*
X0000691097Y0002419279D01*
X0000693909Y0002413654D01*
X0000696721Y0002410842D01*
X0000702345Y0002408030D01*
X0000719218Y0002408030D01*
X0000724842Y0002410842D01*
X0000727654Y0002413654D01*
X0000665787Y0002413654D02*
X0000662975Y0002410842D01*
X0000665787Y0002408030D01*
X0000668599Y0002410842D01*
X0000665787Y0002413654D01*
X0000665787Y0002408030D01*
X0000606732Y0002408030D02*
X0000640478Y0002408030D01*
X0000623605Y0002408030D02*
X0000623605Y0002467085D01*
X0000629229Y0002458649D01*
X0000634854Y0002453025D01*
X0000640478Y0002450212D01*
X0000556113Y0002408030D02*
X0000556113Y0002438964D01*
X0000558926Y0002444588D01*
X0000564550Y0002447400D01*
X0000575798Y0002447400D01*
X0000581423Y0002444588D01*
X0000556113Y0002410842D02*
X0000561738Y0002408030D01*
X0000575798Y0002408030D01*
X0000581423Y0002410842D01*
X0000584235Y0002416467D01*
X0000584235Y0002422091D01*
X0000581423Y0002427715D01*
X0000575798Y0002430527D01*
X0000561738Y0002430527D01*
X0000556113Y0002433339D01*
D25*
X0000335897Y0001948746D02*
X0000217897Y0001948746D01*
X0001228897Y0001948746D02*
X0001346897Y0001948746D01*
G04 next file*
G04 #@! TF.GenerationSoftware,KiCad,Pcbnew,(5.1.12)-1*
G04 #@! TF.CreationDate,2022-03-29T12:16:14+08:00*
G04 #@! TF.ProjectId,Nozzle,4e6f7a7a-6c65-42e6-9b69-6361645f7063,Gen3.1a*
G04 #@! TF.SameCoordinates,Original*
G04 #@! TF.FileFunction,Legend,Bot*
G04 #@! TF.FilePolarity,Positive*
G04 Gerber Fmt 4.6, Leading zero omitted, Abs format (unit mm)*
G04 Created by KiCad (PCBNEW (5.1.12)-1) date 2022-03-29 12:16:14*
G01*
G04 APERTURE LIST*
G04 APERTURE END LIST*
D26*
X0002638137Y0002467085D02*
X0002626889Y0002467085D01*
X0002621264Y0002464273D01*
X0002615640Y0002458649D01*
X0002612828Y0002447400D01*
X0002612828Y0002427715D01*
X0002615640Y0002416467D01*
X0002621264Y0002410842D01*
X0002626889Y0002408030D01*
X0002638137Y0002408030D01*
X0002643762Y0002410842D01*
X0002649386Y0002416467D01*
X0002652198Y0002427715D01*
X0002652198Y0002447400D01*
X0002649386Y0002458649D01*
X0002643762Y0002464273D01*
X0002638137Y0002467085D01*
X0002587519Y0002408030D02*
X0002587519Y0002467085D01*
X0002565022Y0002467085D01*
X0002559397Y0002464273D01*
X0002556585Y0002461461D01*
X0002553773Y0002455837D01*
X0002553773Y0002447400D01*
X0002556585Y0002441776D01*
X0002559397Y0002438964D01*
X0002565022Y0002436152D01*
X0002587519Y0002436152D01*
X0002511591Y0002467085D02*
X0002511591Y0002424903D01*
X0002514403Y0002416467D01*
X0002520027Y0002410842D01*
X0002528464Y0002408030D01*
X0002534088Y0002408030D01*
X0002483469Y0002413654D02*
X0002480657Y0002410842D01*
X0002483469Y0002408030D01*
X0002486281Y0002410842D01*
X0002483469Y0002413654D01*
X0002483469Y0002408030D01*
X0002483469Y0002444588D02*
X0002480657Y0002441776D01*
X0002483469Y0002438964D01*
X0002486281Y0002441776D01*
X0002483469Y0002444588D01*
X0002483469Y0002438964D01*
X0002418790Y0002467085D02*
X0002399105Y0002408030D01*
X0002379420Y0002467085D01*
X0002365359Y0002467085D02*
X0002328801Y0002467085D01*
X0002348486Y0002444588D01*
X0002340050Y0002444588D01*
X0002334425Y0002441776D01*
X0002331613Y0002438964D01*
X0002328801Y0002433339D01*
X0002328801Y0002419279D01*
X0002331613Y0002413654D01*
X0002334425Y0002410842D01*
X0002340050Y0002408030D01*
X0002356922Y0002408030D01*
X0002362547Y0002410842D01*
X0002365359Y0002413654D01*
X0002303492Y0002413654D02*
X0002300680Y0002410842D01*
X0002303492Y0002408030D01*
X0002306304Y0002410842D01*
X0002303492Y0002413654D01*
X0002303492Y0002408030D01*
X0002244437Y0002408030D02*
X0002278182Y0002408030D01*
X0002261309Y0002408030D02*
X0002261309Y0002467085D01*
X0002266934Y0002458649D01*
X0002272558Y0002453025D01*
X0002278182Y0002450212D01*
X0002193818Y0002408030D02*
X0002193818Y0002438964D01*
X0002196630Y0002444588D01*
X0002202254Y0002447400D01*
X0002213503Y0002447400D01*
X0002219127Y0002444588D01*
X0002193818Y0002410842D02*
X0002199442Y0002408030D01*
X0002213503Y0002408030D01*
X0002219127Y0002410842D01*
X0002221939Y0002416467D01*
X0002221939Y0002422091D01*
X0002219127Y0002427715D01*
X0002213503Y0002430527D01*
X0002199442Y0002430527D01*
X0002193818Y0002433339D01*
D27*
X0001973602Y0001948746D02*
X0001855602Y0001948746D01*
X0002866602Y0001948746D02*
X0002984602Y0001948746D01*
M02*