%MOIN*%
%OFA0B0*%
%FSLAX46Y46*%
%IPPOS*%
%LPD*%
%ADD10C,0.005905511811023622*%
%ADD11C,0.0047244094488188976*%
%ADD22C,0.005905511811023622*%
%ADD23C,0.0047244094488188976*%
%ADD24C,0.005905511811023622*%
%ADD25C,0.0047244094488188976*%
%ADD26C,0.005905511811023622*%
%ADD27C,0.0047244094488188976*%
G01*
D10*
X0001073901Y0001012241D02*
X0001073901Y0001051612D01*
X0001096398Y0001012241D01*
X0001096398Y0001051612D01*
X0001111397Y0001051612D02*
X0001137643Y0001051612D01*
X0001120770Y0001012241D01*
X0000974901Y0001012241D02*
X0000974901Y0001051612D01*
X0000997398Y0001012241D01*
X0000997398Y0001051612D01*
X0001033019Y0001051612D02*
X0001025520Y0001051612D01*
X0001021770Y0001049737D01*
X0001019896Y0001047862D01*
X0001016146Y0001042238D01*
X0001014271Y0001034739D01*
X0001014271Y0001019741D01*
X0001016146Y0001015991D01*
X0001018021Y0001014116D01*
X0001021770Y0001012241D01*
X0001029269Y0001012241D01*
X0001033019Y0001014116D01*
X0001034894Y0001015991D01*
X0001036768Y0001019741D01*
X0001036768Y0001029114D01*
X0001034894Y0001032864D01*
X0001033019Y0001034739D01*
X0001029269Y0001036613D01*
X0001021770Y0001036613D01*
X0001018021Y0001034739D01*
X0001016146Y0001032864D01*
X0001014271Y0001029114D01*
X0000875901Y0001012241D02*
X0000875901Y0001051612D01*
X0000898398Y0001012241D01*
X0000898398Y0001051612D01*
X0000935894Y0001051612D02*
X0000917146Y0001051612D01*
X0000915271Y0001032864D01*
X0000917146Y0001034739D01*
X0000920896Y0001036613D01*
X0000930269Y0001036613D01*
X0000934019Y0001034739D01*
X0000935894Y0001032864D01*
X0000937768Y0001029114D01*
X0000937768Y0001019741D01*
X0000935894Y0001015991D01*
X0000934019Y0001014116D01*
X0000930269Y0001012241D01*
X0000920896Y0001012241D01*
X0000917146Y0001014116D01*
X0000915271Y0001015991D01*
X0000775901Y0001011241D02*
X0000775901Y0001050612D01*
X0000798398Y0001011241D01*
X0000798398Y0001050612D01*
X0000834019Y0001037488D02*
X0000834019Y0001011241D01*
X0000824645Y0001052486D02*
X0000815271Y0001024365D01*
X0000839643Y0001024365D01*
X0000675901Y0001012241D02*
X0000675901Y0001051612D01*
X0000698398Y0001012241D01*
X0000698398Y0001051612D01*
X0000713397Y0001051612D02*
X0000737768Y0001051612D01*
X0000724645Y0001036613D01*
X0000730269Y0001036613D01*
X0000734019Y0001034739D01*
X0000735894Y0001032864D01*
X0000737768Y0001029114D01*
X0000737768Y0001019741D01*
X0000735894Y0001015991D01*
X0000734019Y0001014116D01*
X0000730269Y0001012241D01*
X0000719021Y0001012241D01*
X0000715271Y0001014116D01*
X0000713397Y0001015991D01*
X0000577901Y0001012241D02*
X0000577901Y0001051612D01*
X0000600398Y0001012241D01*
X0000600398Y0001051612D01*
X0000617271Y0001047862D02*
X0000619146Y0001049737D01*
X0000622896Y0001051612D01*
X0000632269Y0001051612D01*
X0000636019Y0001049737D01*
X0000637894Y0001047862D01*
X0000639768Y0001044112D01*
X0000639768Y0001040363D01*
X0000637894Y0001034739D01*
X0000615397Y0001012241D01*
X0000639768Y0001012241D01*
X0000475901Y0001013241D02*
X0000475901Y0001052612D01*
X0000498398Y0001013241D01*
X0000498398Y0001052612D01*
X0000537768Y0001013241D02*
X0000515271Y0001013241D01*
X0000526520Y0001013241D02*
X0000526520Y0001052612D01*
X0000522770Y0001046987D01*
X0000519021Y0001043238D01*
X0000515271Y0001041363D01*
X0000374901Y0001013241D02*
X0000374901Y0001052612D01*
X0000397398Y0001013241D01*
X0000397398Y0001052612D01*
X0000423645Y0001052612D02*
X0000427395Y0001052612D01*
X0000431144Y0001050737D01*
X0000433019Y0001048862D01*
X0000434894Y0001045112D01*
X0000436768Y0001037613D01*
X0000436768Y0001028240D01*
X0000434894Y0001020741D01*
X0000433019Y0001016991D01*
X0000431144Y0001015116D01*
X0000427395Y0001013241D01*
X0000423645Y0001013241D01*
X0000419896Y0001015116D01*
X0000418021Y0001016991D01*
X0000416146Y0001020741D01*
X0000414271Y0001028240D01*
X0000414271Y0001037613D01*
X0000416146Y0001045112D01*
X0000418021Y0001048862D01*
X0000419896Y0001050737D01*
X0000423645Y0001052612D01*
X0001250026Y0001309241D02*
X0001250026Y0001348612D01*
X0001263150Y0001320490D01*
X0001276273Y0001348612D01*
X0001276273Y0001309241D01*
X0001293146Y0001344862D02*
X0001295021Y0001346737D01*
X0001298770Y0001348612D01*
X0001308144Y0001348612D01*
X0001311894Y0001346737D01*
X0001313768Y0001344862D01*
X0001315643Y0001341112D01*
X0001315643Y0001337363D01*
X0001313768Y0001331739D01*
X0001291271Y0001309241D01*
X0001315643Y0001309241D01*
D11*
X0000351535Y0001077690D02*
X0000351535Y0001180052D01*
X0000351535Y0001077690D02*
X0001156260Y0001077690D01*
X0001156260Y0001077690D02*
X0001156260Y0001282414D01*
X0000453897Y0001282414D02*
X0001156260Y0001282414D01*
X0000453897Y0001180052D02*
X0000453897Y0001282414D01*
X0000351535Y0001180052D02*
X0000453897Y0001180052D01*
X0000351535Y0001282414D02*
X0000403897Y0001282414D01*
X0000351535Y0001230052D02*
X0000351535Y0001282414D01*
D10*
X0000262774Y0001212612D02*
X0000262774Y0001184490D01*
X0000260899Y0001178866D01*
X0000257150Y0001175116D01*
X0000251525Y0001173241D01*
X0000247776Y0001173241D01*
X0000302144Y0001173241D02*
X0000279647Y0001173241D01*
X0000290896Y0001173241D02*
X0000290896Y0001212612D01*
X0000287146Y0001206987D01*
X0000283397Y0001203238D01*
X0000279647Y0001201363D01*
G04 next file*
G04 #@! TF.GenerationSoftware,KiCad,Pcbnew,(5.1.12)-1*
G04 #@! TF.CreationDate,2022-03-29T12:16:14+08:00*
G04 #@! TF.ProjectId,Nozzle,4e6f7a7a-6c65-42e6-9b69-6361645f7063,Gen3.1a*
G04 #@! TF.SameCoordinates,Original*
G04 #@! TF.FileFunction,Legend,Top*
G04 #@! TF.FilePolarity,Positive*
G04 Gerber Fmt 4.6, Leading zero omitted, Abs format (unit mm)*
G04 Created by KiCad (PCBNEW (5.1.12)-1) date 2022-03-29 12:16:14*
G01*
G04 APERTURE LIST*
G04 APERTURE END LIST*
D22*
X0002711606Y0001012241D02*
X0002711606Y0001051612D01*
X0002734103Y0001012241D01*
X0002734103Y0001051612D01*
X0002749101Y0001051612D02*
X0002775348Y0001051612D01*
X0002758475Y0001012241D01*
X0002612606Y0001012241D02*
X0002612606Y0001051612D01*
X0002635103Y0001012241D01*
X0002635103Y0001051612D01*
X0002670723Y0001051612D02*
X0002663224Y0001051612D01*
X0002659475Y0001049737D01*
X0002657600Y0001047862D01*
X0002653851Y0001042238D01*
X0002651976Y0001034739D01*
X0002651976Y0001019741D01*
X0002653851Y0001015991D01*
X0002655725Y0001014116D01*
X0002659475Y0001012241D01*
X0002666974Y0001012241D01*
X0002670723Y0001014116D01*
X0002672598Y0001015991D01*
X0002674473Y0001019741D01*
X0002674473Y0001029114D01*
X0002672598Y0001032864D01*
X0002670723Y0001034739D01*
X0002666974Y0001036613D01*
X0002659475Y0001036613D01*
X0002655725Y0001034739D01*
X0002653851Y0001032864D01*
X0002651976Y0001029114D01*
X0002513606Y0001012241D02*
X0002513606Y0001051612D01*
X0002536103Y0001012241D01*
X0002536103Y0001051612D01*
X0002573598Y0001051612D02*
X0002554851Y0001051612D01*
X0002552976Y0001032864D01*
X0002554851Y0001034739D01*
X0002558600Y0001036613D01*
X0002567974Y0001036613D01*
X0002571723Y0001034739D01*
X0002573598Y0001032864D01*
X0002575473Y0001029114D01*
X0002575473Y0001019741D01*
X0002573598Y0001015991D01*
X0002571723Y0001014116D01*
X0002567974Y0001012241D01*
X0002558600Y0001012241D01*
X0002554851Y0001014116D01*
X0002552976Y0001015991D01*
X0002413606Y0001011241D02*
X0002413606Y0001050612D01*
X0002436103Y0001011241D01*
X0002436103Y0001050612D01*
X0002471723Y0001037488D02*
X0002471723Y0001011241D01*
X0002462350Y0001052486D02*
X0002452976Y0001024365D01*
X0002477348Y0001024365D01*
X0002313606Y0001012241D02*
X0002313606Y0001051612D01*
X0002336103Y0001012241D01*
X0002336103Y0001051612D01*
X0002351101Y0001051612D02*
X0002375473Y0001051612D01*
X0002362350Y0001036613D01*
X0002367974Y0001036613D01*
X0002371723Y0001034739D01*
X0002373598Y0001032864D01*
X0002375473Y0001029114D01*
X0002375473Y0001019741D01*
X0002373598Y0001015991D01*
X0002371723Y0001014116D01*
X0002367974Y0001012241D01*
X0002356725Y0001012241D01*
X0002352976Y0001014116D01*
X0002351101Y0001015991D01*
X0002215606Y0001012241D02*
X0002215606Y0001051612D01*
X0002238103Y0001012241D01*
X0002238103Y0001051612D01*
X0002254976Y0001047862D02*
X0002256851Y0001049737D01*
X0002260600Y0001051612D01*
X0002269974Y0001051612D01*
X0002273723Y0001049737D01*
X0002275598Y0001047862D01*
X0002277473Y0001044112D01*
X0002277473Y0001040363D01*
X0002275598Y0001034739D01*
X0002253101Y0001012241D01*
X0002277473Y0001012241D01*
X0002113606Y0001013241D02*
X0002113606Y0001052612D01*
X0002136103Y0001013241D01*
X0002136103Y0001052612D01*
X0002175473Y0001013241D02*
X0002152976Y0001013241D01*
X0002164224Y0001013241D02*
X0002164224Y0001052612D01*
X0002160475Y0001046987D01*
X0002156725Y0001043238D01*
X0002152976Y0001041363D01*
X0002012606Y0001013241D02*
X0002012606Y0001052612D01*
X0002035103Y0001013241D01*
X0002035103Y0001052612D01*
X0002061350Y0001052612D02*
X0002065099Y0001052612D01*
X0002068849Y0001050737D01*
X0002070723Y0001048862D01*
X0002072598Y0001045112D01*
X0002074473Y0001037613D01*
X0002074473Y0001028240D01*
X0002072598Y0001020741D01*
X0002070723Y0001016991D01*
X0002068849Y0001015116D01*
X0002065099Y0001013241D01*
X0002061350Y0001013241D01*
X0002057600Y0001015116D01*
X0002055725Y0001016991D01*
X0002053851Y0001020741D01*
X0002051976Y0001028240D01*
X0002051976Y0001037613D01*
X0002053851Y0001045112D01*
X0002055725Y0001048862D01*
X0002057600Y0001050737D01*
X0002061350Y0001052612D01*
X0002887731Y0001309241D02*
X0002887731Y0001348612D01*
X0002900854Y0001320490D01*
X0002913978Y0001348612D01*
X0002913978Y0001309241D01*
X0002930851Y0001344862D02*
X0002932725Y0001346737D01*
X0002936475Y0001348612D01*
X0002945849Y0001348612D01*
X0002949598Y0001346737D01*
X0002951473Y0001344862D01*
X0002953348Y0001341112D01*
X0002953348Y0001337363D01*
X0002951473Y0001331739D01*
X0002928976Y0001309241D01*
X0002953348Y0001309241D01*
D23*
X0001989240Y0001077690D02*
X0001989240Y0001180052D01*
X0001989240Y0001077690D02*
X0002793964Y0001077690D01*
X0002793964Y0001077690D02*
X0002793964Y0001282414D01*
X0002091602Y0001282414D02*
X0002793964Y0001282414D01*
X0002091602Y0001180052D02*
X0002091602Y0001282414D01*
X0001989240Y0001180052D02*
X0002091602Y0001180052D01*
X0001989240Y0001282414D02*
X0002041602Y0001282414D01*
X0001989240Y0001230052D02*
X0001989240Y0001282414D01*
D22*
X0001900479Y0001212612D02*
X0001900479Y0001184490D01*
X0001898604Y0001178866D01*
X0001894854Y0001175116D01*
X0001889230Y0001173241D01*
X0001885480Y0001173241D01*
X0001939849Y0001173241D02*
X0001917351Y0001173241D01*
X0001928600Y0001173241D02*
X0001928600Y0001212612D01*
X0001924851Y0001206987D01*
X0001921101Y0001203238D01*
X0001917351Y0001201363D01*
G04 next file*
G04 #@! TF.GenerationSoftware,KiCad,Pcbnew,(5.1.12)-1*
G04 #@! TF.CreationDate,2022-03-29T12:16:14+08:00*
G04 #@! TF.ProjectId,Nozzle,4e6f7a7a-6c65-42e6-9b69-6361645f7063,Gen3.1a*
G04 #@! TF.SameCoordinates,Original*
G04 #@! TF.FileFunction,Legend,Top*
G04 #@! TF.FilePolarity,Positive*
G04 Gerber Fmt 4.6, Leading zero omitted, Abs format (unit mm)*
G04 Created by KiCad (PCBNEW (5.1.12)-1) date 2022-03-29 12:16:14*
G01*
G04 APERTURE LIST*
G04 APERTURE END LIST*
D24*
X0001073901Y0002468935D02*
X0001073901Y0002508305D01*
X0001096398Y0002468935D01*
X0001096398Y0002508305D01*
X0001111397Y0002508305D02*
X0001137643Y0002508305D01*
X0001120770Y0002468935D01*
X0000974901Y0002468935D02*
X0000974901Y0002508305D01*
X0000997398Y0002468935D01*
X0000997398Y0002508305D01*
X0001033019Y0002508305D02*
X0001025520Y0002508305D01*
X0001021770Y0002506431D01*
X0001019896Y0002504556D01*
X0001016146Y0002498932D01*
X0001014271Y0002491432D01*
X0001014271Y0002476434D01*
X0001016146Y0002472685D01*
X0001018021Y0002470810D01*
X0001021770Y0002468935D01*
X0001029269Y0002468935D01*
X0001033019Y0002470810D01*
X0001034894Y0002472685D01*
X0001036768Y0002476434D01*
X0001036768Y0002485808D01*
X0001034894Y0002489558D01*
X0001033019Y0002491432D01*
X0001029269Y0002493307D01*
X0001021770Y0002493307D01*
X0001018021Y0002491432D01*
X0001016146Y0002489558D01*
X0001014271Y0002485808D01*
X0000875901Y0002468935D02*
X0000875901Y0002508305D01*
X0000898398Y0002468935D01*
X0000898398Y0002508305D01*
X0000935894Y0002508305D02*
X0000917146Y0002508305D01*
X0000915271Y0002489558D01*
X0000917146Y0002491432D01*
X0000920896Y0002493307D01*
X0000930269Y0002493307D01*
X0000934019Y0002491432D01*
X0000935894Y0002489558D01*
X0000937768Y0002485808D01*
X0000937768Y0002476434D01*
X0000935894Y0002472685D01*
X0000934019Y0002470810D01*
X0000930269Y0002468935D01*
X0000920896Y0002468935D01*
X0000917146Y0002470810D01*
X0000915271Y0002472685D01*
X0000775901Y0002467935D02*
X0000775901Y0002507305D01*
X0000798398Y0002467935D01*
X0000798398Y0002507305D01*
X0000834019Y0002494182D02*
X0000834019Y0002467935D01*
X0000824645Y0002509180D02*
X0000815271Y0002481059D01*
X0000839643Y0002481059D01*
X0000675901Y0002468935D02*
X0000675901Y0002508305D01*
X0000698398Y0002468935D01*
X0000698398Y0002508305D01*
X0000713397Y0002508305D02*
X0000737768Y0002508305D01*
X0000724645Y0002493307D01*
X0000730269Y0002493307D01*
X0000734019Y0002491432D01*
X0000735894Y0002489558D01*
X0000737768Y0002485808D01*
X0000737768Y0002476434D01*
X0000735894Y0002472685D01*
X0000734019Y0002470810D01*
X0000730269Y0002468935D01*
X0000719021Y0002468935D01*
X0000715271Y0002470810D01*
X0000713397Y0002472685D01*
X0000577901Y0002468935D02*
X0000577901Y0002508305D01*
X0000600398Y0002468935D01*
X0000600398Y0002508305D01*
X0000617271Y0002504556D02*
X0000619146Y0002506431D01*
X0000622896Y0002508305D01*
X0000632269Y0002508305D01*
X0000636019Y0002506431D01*
X0000637894Y0002504556D01*
X0000639768Y0002500806D01*
X0000639768Y0002497057D01*
X0000637894Y0002491432D01*
X0000615397Y0002468935D01*
X0000639768Y0002468935D01*
X0000475901Y0002469935D02*
X0000475901Y0002509305D01*
X0000498398Y0002469935D01*
X0000498398Y0002509305D01*
X0000537768Y0002469935D02*
X0000515271Y0002469935D01*
X0000526520Y0002469935D02*
X0000526520Y0002509305D01*
X0000522770Y0002503681D01*
X0000519021Y0002499932D01*
X0000515271Y0002498057D01*
X0000374901Y0002469935D02*
X0000374901Y0002509305D01*
X0000397398Y0002469935D01*
X0000397398Y0002509305D01*
X0000423645Y0002509305D02*
X0000427395Y0002509305D01*
X0000431144Y0002507431D01*
X0000433019Y0002505556D01*
X0000434894Y0002501806D01*
X0000436768Y0002494307D01*
X0000436768Y0002484933D01*
X0000434894Y0002477434D01*
X0000433019Y0002473685D01*
X0000431144Y0002471810D01*
X0000427395Y0002469935D01*
X0000423645Y0002469935D01*
X0000419896Y0002471810D01*
X0000418021Y0002473685D01*
X0000416146Y0002477434D01*
X0000414271Y0002484933D01*
X0000414271Y0002494307D01*
X0000416146Y0002501806D01*
X0000418021Y0002505556D01*
X0000419896Y0002507431D01*
X0000423645Y0002509305D01*
X0001250026Y0002765935D02*
X0001250026Y0002805305D01*
X0001263150Y0002777184D01*
X0001276273Y0002805305D01*
X0001276273Y0002765935D01*
X0001293146Y0002801556D02*
X0001295021Y0002803431D01*
X0001298770Y0002805305D01*
X0001308144Y0002805305D01*
X0001311894Y0002803431D01*
X0001313768Y0002801556D01*
X0001315643Y0002797806D01*
X0001315643Y0002794057D01*
X0001313768Y0002788432D01*
X0001291271Y0002765935D01*
X0001315643Y0002765935D01*
D25*
X0000351535Y0002534383D02*
X0000351535Y0002636746D01*
X0000351535Y0002534383D02*
X0001156260Y0002534383D01*
X0001156260Y0002534383D02*
X0001156260Y0002739108D01*
X0000453897Y0002739108D02*
X0001156260Y0002739108D01*
X0000453897Y0002636746D02*
X0000453897Y0002739108D01*
X0000351535Y0002636746D02*
X0000453897Y0002636746D01*
X0000351535Y0002739108D02*
X0000403897Y0002739108D01*
X0000351535Y0002686746D02*
X0000351535Y0002739108D01*
D24*
X0000262774Y0002669305D02*
X0000262774Y0002641184D01*
X0000260899Y0002635560D01*
X0000257150Y0002631810D01*
X0000251525Y0002629935D01*
X0000247776Y0002629935D01*
X0000302144Y0002629935D02*
X0000279647Y0002629935D01*
X0000290896Y0002629935D02*
X0000290896Y0002669305D01*
X0000287146Y0002663681D01*
X0000283397Y0002659932D01*
X0000279647Y0002658057D01*
G04 next file*
G04 #@! TF.GenerationSoftware,KiCad,Pcbnew,(5.1.12)-1*
G04 #@! TF.CreationDate,2022-03-29T12:16:14+08:00*
G04 #@! TF.ProjectId,Nozzle,4e6f7a7a-6c65-42e6-9b69-6361645f7063,Gen3.1a*
G04 #@! TF.SameCoordinates,Original*
G04 #@! TF.FileFunction,Legend,Top*
G04 #@! TF.FilePolarity,Positive*
G04 Gerber Fmt 4.6, Leading zero omitted, Abs format (unit mm)*
G04 Created by KiCad (PCBNEW (5.1.12)-1) date 2022-03-29 12:16:14*
G01*
G04 APERTURE LIST*
G04 APERTURE END LIST*
D26*
X0002711606Y0002468935D02*
X0002711606Y0002508305D01*
X0002734103Y0002468935D01*
X0002734103Y0002508305D01*
X0002749101Y0002508305D02*
X0002775348Y0002508305D01*
X0002758475Y0002468935D01*
X0002612606Y0002468935D02*
X0002612606Y0002508305D01*
X0002635103Y0002468935D01*
X0002635103Y0002508305D01*
X0002670723Y0002508305D02*
X0002663224Y0002508305D01*
X0002659475Y0002506431D01*
X0002657600Y0002504556D01*
X0002653851Y0002498932D01*
X0002651976Y0002491432D01*
X0002651976Y0002476434D01*
X0002653851Y0002472685D01*
X0002655725Y0002470810D01*
X0002659475Y0002468935D01*
X0002666974Y0002468935D01*
X0002670723Y0002470810D01*
X0002672598Y0002472685D01*
X0002674473Y0002476434D01*
X0002674473Y0002485808D01*
X0002672598Y0002489558D01*
X0002670723Y0002491432D01*
X0002666974Y0002493307D01*
X0002659475Y0002493307D01*
X0002655725Y0002491432D01*
X0002653851Y0002489558D01*
X0002651976Y0002485808D01*
X0002513606Y0002468935D02*
X0002513606Y0002508305D01*
X0002536103Y0002468935D01*
X0002536103Y0002508305D01*
X0002573598Y0002508305D02*
X0002554851Y0002508305D01*
X0002552976Y0002489558D01*
X0002554851Y0002491432D01*
X0002558600Y0002493307D01*
X0002567974Y0002493307D01*
X0002571723Y0002491432D01*
X0002573598Y0002489558D01*
X0002575473Y0002485808D01*
X0002575473Y0002476434D01*
X0002573598Y0002472685D01*
X0002571723Y0002470810D01*
X0002567974Y0002468935D01*
X0002558600Y0002468935D01*
X0002554851Y0002470810D01*
X0002552976Y0002472685D01*
X0002413606Y0002467935D02*
X0002413606Y0002507305D01*
X0002436103Y0002467935D01*
X0002436103Y0002507305D01*
X0002471723Y0002494182D02*
X0002471723Y0002467935D01*
X0002462350Y0002509180D02*
X0002452976Y0002481059D01*
X0002477348Y0002481059D01*
X0002313606Y0002468935D02*
X0002313606Y0002508305D01*
X0002336103Y0002468935D01*
X0002336103Y0002508305D01*
X0002351101Y0002508305D02*
X0002375473Y0002508305D01*
X0002362350Y0002493307D01*
X0002367974Y0002493307D01*
X0002371723Y0002491432D01*
X0002373598Y0002489558D01*
X0002375473Y0002485808D01*
X0002375473Y0002476434D01*
X0002373598Y0002472685D01*
X0002371723Y0002470810D01*
X0002367974Y0002468935D01*
X0002356725Y0002468935D01*
X0002352976Y0002470810D01*
X0002351101Y0002472685D01*
X0002215606Y0002468935D02*
X0002215606Y0002508305D01*
X0002238103Y0002468935D01*
X0002238103Y0002508305D01*
X0002254976Y0002504556D02*
X0002256851Y0002506431D01*
X0002260600Y0002508305D01*
X0002269974Y0002508305D01*
X0002273723Y0002506431D01*
X0002275598Y0002504556D01*
X0002277473Y0002500806D01*
X0002277473Y0002497057D01*
X0002275598Y0002491432D01*
X0002253101Y0002468935D01*
X0002277473Y0002468935D01*
X0002113606Y0002469935D02*
X0002113606Y0002509305D01*
X0002136103Y0002469935D01*
X0002136103Y0002509305D01*
X0002175473Y0002469935D02*
X0002152976Y0002469935D01*
X0002164224Y0002469935D02*
X0002164224Y0002509305D01*
X0002160475Y0002503681D01*
X0002156725Y0002499932D01*
X0002152976Y0002498057D01*
X0002012606Y0002469935D02*
X0002012606Y0002509305D01*
X0002035103Y0002469935D01*
X0002035103Y0002509305D01*
X0002061350Y0002509305D02*
X0002065099Y0002509305D01*
X0002068849Y0002507431D01*
X0002070723Y0002505556D01*
X0002072598Y0002501806D01*
X0002074473Y0002494307D01*
X0002074473Y0002484933D01*
X0002072598Y0002477434D01*
X0002070723Y0002473685D01*
X0002068849Y0002471810D01*
X0002065099Y0002469935D01*
X0002061350Y0002469935D01*
X0002057600Y0002471810D01*
X0002055725Y0002473685D01*
X0002053851Y0002477434D01*
X0002051976Y0002484933D01*
X0002051976Y0002494307D01*
X0002053851Y0002501806D01*
X0002055725Y0002505556D01*
X0002057600Y0002507431D01*
X0002061350Y0002509305D01*
X0002887731Y0002765935D02*
X0002887731Y0002805305D01*
X0002900854Y0002777184D01*
X0002913978Y0002805305D01*
X0002913978Y0002765935D01*
X0002930851Y0002801556D02*
X0002932725Y0002803431D01*
X0002936475Y0002805305D01*
X0002945849Y0002805305D01*
X0002949598Y0002803431D01*
X0002951473Y0002801556D01*
X0002953348Y0002797806D01*
X0002953348Y0002794057D01*
X0002951473Y0002788432D01*
X0002928976Y0002765935D01*
X0002953348Y0002765935D01*
D27*
X0001989240Y0002534383D02*
X0001989240Y0002636746D01*
X0001989240Y0002534383D02*
X0002793964Y0002534383D01*
X0002793964Y0002534383D02*
X0002793964Y0002739108D01*
X0002091602Y0002739108D02*
X0002793964Y0002739108D01*
X0002091602Y0002636746D02*
X0002091602Y0002739108D01*
X0001989240Y0002636746D02*
X0002091602Y0002636746D01*
X0001989240Y0002739108D02*
X0002041602Y0002739108D01*
X0001989240Y0002686746D02*
X0001989240Y0002739108D01*
D26*
X0001900479Y0002669305D02*
X0001900479Y0002641184D01*
X0001898604Y0002635560D01*
X0001894854Y0002631810D01*
X0001889230Y0002629935D01*
X0001885480Y0002629935D01*
X0001939849Y0002629935D02*
X0001917351Y0002629935D01*
X0001928600Y0002629935D02*
X0001928600Y0002669305D01*
X0001924851Y0002663681D01*
X0001921101Y0002659932D01*
X0001917351Y0002658057D01*
M02*