G04 #@! TF.GenerationSoftware,KiCad,Pcbnew,(5.1.12)-1*
G04 #@! TF.CreationDate,2022-03-26T22:19:29+08:00*
G04 #@! TF.ProjectId,Nozzle,4e6f7a7a-6c65-42e6-9b69-6361645f7063,0.5*
G04 #@! TF.SameCoordinates,Original*
G04 #@! TF.FileFunction,Copper,L2,Bot*
G04 #@! TF.FilePolarity,Positive*
%FSLAX46Y46*%
G04 Gerber Fmt 4.6, Leading zero omitted, Abs format (unit mm)*
G04 Created by KiCad (PCBNEW (5.1.12)-1) date 2022-03-26 22:19:29*
%MOMM*%
%LPD*%
G01*
G04 APERTURE LIST*
G04 #@! TA.AperFunction,ComponentPad*
%ADD10C,0.850000*%
G04 #@! TD*
G04 #@! TA.AperFunction,NonConductor*
%ADD11C,0.254000*%
G04 #@! TD*
G04 #@! TA.AperFunction,NonConductor*
%ADD12C,0.100000*%
G04 #@! TD*
G04 APERTURE END LIST*
D10*
X147701000Y-34061400D03*
X132461000Y-34074100D03*
X145161000Y-34074100D03*
X129921000Y-34074100D03*
D11*
X150896295Y-38138500D02*
X126618600Y-38138500D01*
X126618600Y-36489016D01*
X127254000Y-36489016D01*
X127254000Y-36739184D01*
X127302805Y-36984545D01*
X127398541Y-37215671D01*
X127537527Y-37423678D01*
X127714422Y-37600573D01*
X127922429Y-37739559D01*
X128153555Y-37835295D01*
X128398916Y-37884100D01*
X128649084Y-37884100D01*
X128894445Y-37835295D01*
X129125571Y-37739559D01*
X129333578Y-37600573D01*
X129510473Y-37423678D01*
X129649459Y-37215671D01*
X129745195Y-36984545D01*
X129794000Y-36739184D01*
X129794000Y-36489016D01*
X132334000Y-36489016D01*
X132334000Y-36739184D01*
X132382805Y-36984545D01*
X132478541Y-37215671D01*
X132617527Y-37423678D01*
X132794422Y-37600573D01*
X133002429Y-37739559D01*
X133233555Y-37835295D01*
X133478916Y-37884100D01*
X133729084Y-37884100D01*
X133974445Y-37835295D01*
X134205571Y-37739559D01*
X134413578Y-37600573D01*
X134590473Y-37423678D01*
X134729459Y-37215671D01*
X134825195Y-36984545D01*
X134874000Y-36739184D01*
X134874000Y-36489016D01*
X137414000Y-36489016D01*
X137414000Y-36739184D01*
X137462805Y-36984545D01*
X137558541Y-37215671D01*
X137697527Y-37423678D01*
X137874422Y-37600573D01*
X138082429Y-37739559D01*
X138313555Y-37835295D01*
X138558916Y-37884100D01*
X138809084Y-37884100D01*
X139054445Y-37835295D01*
X139285571Y-37739559D01*
X139493578Y-37600573D01*
X139670473Y-37423678D01*
X139809459Y-37215671D01*
X139905195Y-36984545D01*
X139954000Y-36739184D01*
X139954000Y-36489016D01*
X139951474Y-36476316D01*
X142494000Y-36476316D01*
X142494000Y-36726484D01*
X142542805Y-36971845D01*
X142638541Y-37202971D01*
X142777527Y-37410978D01*
X142954422Y-37587873D01*
X143162429Y-37726859D01*
X143393555Y-37822595D01*
X143638916Y-37871400D01*
X143889084Y-37871400D01*
X144134445Y-37822595D01*
X144365571Y-37726859D01*
X144573578Y-37587873D01*
X144750473Y-37410978D01*
X144889459Y-37202971D01*
X144985195Y-36971845D01*
X145034000Y-36726484D01*
X145034000Y-36476316D01*
X147574000Y-36476316D01*
X147574000Y-36726484D01*
X147622805Y-36971845D01*
X147718541Y-37202971D01*
X147857527Y-37410978D01*
X148034422Y-37587873D01*
X148242429Y-37726859D01*
X148473555Y-37822595D01*
X148718916Y-37871400D01*
X148969084Y-37871400D01*
X149214445Y-37822595D01*
X149445571Y-37726859D01*
X149653578Y-37587873D01*
X149830473Y-37410978D01*
X149969459Y-37202971D01*
X150065195Y-36971845D01*
X150114000Y-36726484D01*
X150114000Y-36476316D01*
X150065195Y-36230955D01*
X149969459Y-35999829D01*
X149830473Y-35791822D01*
X149653578Y-35614927D01*
X149445571Y-35475941D01*
X149214445Y-35380205D01*
X148969084Y-35331400D01*
X148718916Y-35331400D01*
X148473555Y-35380205D01*
X148242429Y-35475941D01*
X148034422Y-35614927D01*
X147857527Y-35791822D01*
X147718541Y-35999829D01*
X147622805Y-36230955D01*
X147574000Y-36476316D01*
X145034000Y-36476316D01*
X144985195Y-36230955D01*
X144889459Y-35999829D01*
X144750473Y-35791822D01*
X144573578Y-35614927D01*
X144365571Y-35475941D01*
X144134445Y-35380205D01*
X143889084Y-35331400D01*
X143638916Y-35331400D01*
X143393555Y-35380205D01*
X143162429Y-35475941D01*
X142954422Y-35614927D01*
X142777527Y-35791822D01*
X142638541Y-35999829D01*
X142542805Y-36230955D01*
X142494000Y-36476316D01*
X139951474Y-36476316D01*
X139905195Y-36243655D01*
X139809459Y-36012529D01*
X139670473Y-35804522D01*
X139493578Y-35627627D01*
X139285571Y-35488641D01*
X139054445Y-35392905D01*
X138809084Y-35344100D01*
X138558916Y-35344100D01*
X138313555Y-35392905D01*
X138082429Y-35488641D01*
X137874422Y-35627627D01*
X137697527Y-35804522D01*
X137558541Y-36012529D01*
X137462805Y-36243655D01*
X137414000Y-36489016D01*
X134874000Y-36489016D01*
X134825195Y-36243655D01*
X134729459Y-36012529D01*
X134590473Y-35804522D01*
X134413578Y-35627627D01*
X134205571Y-35488641D01*
X133974445Y-35392905D01*
X133729084Y-35344100D01*
X133478916Y-35344100D01*
X133233555Y-35392905D01*
X133002429Y-35488641D01*
X132794422Y-35627627D01*
X132617527Y-35804522D01*
X132478541Y-36012529D01*
X132382805Y-36243655D01*
X132334000Y-36489016D01*
X129794000Y-36489016D01*
X129745195Y-36243655D01*
X129649459Y-36012529D01*
X129510473Y-35804522D01*
X129333578Y-35627627D01*
X129125571Y-35488641D01*
X128894445Y-35392905D01*
X128649084Y-35344100D01*
X128398916Y-35344100D01*
X128153555Y-35392905D01*
X127922429Y-35488641D01*
X127714422Y-35627627D01*
X127537527Y-35804522D01*
X127398541Y-36012529D01*
X127302805Y-36243655D01*
X127254000Y-36489016D01*
X126618600Y-36489016D01*
X126618600Y-33969699D01*
X128861000Y-33969699D01*
X128861000Y-34178501D01*
X128901735Y-34383291D01*
X128981640Y-34576198D01*
X129097644Y-34749811D01*
X129245289Y-34897456D01*
X129418902Y-35013460D01*
X129611809Y-35093365D01*
X129816599Y-35134100D01*
X130025401Y-35134100D01*
X130230191Y-35093365D01*
X130423098Y-35013460D01*
X130596711Y-34897456D01*
X130744356Y-34749811D01*
X130860360Y-34576198D01*
X130940265Y-34383291D01*
X130981000Y-34178501D01*
X130981000Y-33969699D01*
X131401000Y-33969699D01*
X131401000Y-34178501D01*
X131441735Y-34383291D01*
X131521640Y-34576198D01*
X131637644Y-34749811D01*
X131785289Y-34897456D01*
X131958902Y-35013460D01*
X132151809Y-35093365D01*
X132356599Y-35134100D01*
X132565401Y-35134100D01*
X132770191Y-35093365D01*
X132963098Y-35013460D01*
X133136711Y-34897456D01*
X133284356Y-34749811D01*
X133400360Y-34576198D01*
X133480265Y-34383291D01*
X133521000Y-34178501D01*
X133521000Y-33999247D01*
X134266400Y-33999247D01*
X134266400Y-34148953D01*
X134295607Y-34295784D01*
X134352897Y-34434095D01*
X134436070Y-34558572D01*
X134541928Y-34664430D01*
X134666405Y-34747603D01*
X134804716Y-34804893D01*
X134951547Y-34834100D01*
X135101253Y-34834100D01*
X135248084Y-34804893D01*
X135386395Y-34747603D01*
X135510872Y-34664430D01*
X135616730Y-34558572D01*
X135699903Y-34434095D01*
X135757193Y-34295784D01*
X135786400Y-34148953D01*
X135786400Y-33999247D01*
X135785911Y-33996784D01*
X136781400Y-33996784D01*
X136781400Y-34151416D01*
X136811567Y-34303076D01*
X136870742Y-34445937D01*
X136956651Y-34574508D01*
X137065992Y-34683849D01*
X137194563Y-34769758D01*
X137337424Y-34828933D01*
X137489084Y-34859100D01*
X137643716Y-34859100D01*
X137795376Y-34828933D01*
X137938237Y-34769758D01*
X138066808Y-34683849D01*
X138176149Y-34574508D01*
X138262058Y-34445937D01*
X138321233Y-34303076D01*
X138351400Y-34151416D01*
X138351400Y-33996784D01*
X138347895Y-33979160D01*
X139271400Y-33979160D01*
X139271400Y-34143640D01*
X139303489Y-34304960D01*
X139366433Y-34456921D01*
X139457813Y-34593681D01*
X139574119Y-34709987D01*
X139710879Y-34801367D01*
X139862840Y-34864311D01*
X140024160Y-34896400D01*
X140188640Y-34896400D01*
X140349960Y-34864311D01*
X140501921Y-34801367D01*
X140638681Y-34709987D01*
X140754987Y-34593681D01*
X140846367Y-34456921D01*
X140909311Y-34304960D01*
X140941400Y-34143640D01*
X140941400Y-33979160D01*
X140935368Y-33948835D01*
X141761400Y-33948835D01*
X141761400Y-34123165D01*
X141795410Y-34294145D01*
X141862123Y-34455205D01*
X141958976Y-34600155D01*
X142082245Y-34723424D01*
X142227195Y-34820277D01*
X142388255Y-34886990D01*
X142559235Y-34921000D01*
X142733565Y-34921000D01*
X142904545Y-34886990D01*
X143065605Y-34820277D01*
X143210555Y-34723424D01*
X143333824Y-34600155D01*
X143430677Y-34455205D01*
X143497390Y-34294145D01*
X143531400Y-34123165D01*
X143531400Y-33969699D01*
X144101000Y-33969699D01*
X144101000Y-34178501D01*
X144141735Y-34383291D01*
X144221640Y-34576198D01*
X144337644Y-34749811D01*
X144485289Y-34897456D01*
X144658902Y-35013460D01*
X144851809Y-35093365D01*
X145056599Y-35134100D01*
X145265401Y-35134100D01*
X145470191Y-35093365D01*
X145663098Y-35013460D01*
X145836711Y-34897456D01*
X145984356Y-34749811D01*
X146100360Y-34576198D01*
X146180265Y-34383291D01*
X146221000Y-34178501D01*
X146221000Y-33969699D01*
X146218474Y-33956999D01*
X146641000Y-33956999D01*
X146641000Y-34165801D01*
X146681735Y-34370591D01*
X146761640Y-34563498D01*
X146877644Y-34737111D01*
X147025289Y-34884756D01*
X147198902Y-35000760D01*
X147391809Y-35080665D01*
X147596599Y-35121400D01*
X147805401Y-35121400D01*
X148010191Y-35080665D01*
X148203098Y-35000760D01*
X148376711Y-34884756D01*
X148524356Y-34737111D01*
X148640360Y-34563498D01*
X148720265Y-34370591D01*
X148761000Y-34165801D01*
X148761000Y-33956999D01*
X148720265Y-33752209D01*
X148640360Y-33559302D01*
X148524356Y-33385689D01*
X148376711Y-33238044D01*
X148203098Y-33122040D01*
X148010191Y-33042135D01*
X147805401Y-33001400D01*
X147596599Y-33001400D01*
X147391809Y-33042135D01*
X147198902Y-33122040D01*
X147025289Y-33238044D01*
X146877644Y-33385689D01*
X146761640Y-33559302D01*
X146681735Y-33752209D01*
X146641000Y-33956999D01*
X146218474Y-33956999D01*
X146180265Y-33764909D01*
X146100360Y-33572002D01*
X145984356Y-33398389D01*
X145836711Y-33250744D01*
X145663098Y-33134740D01*
X145470191Y-33054835D01*
X145265401Y-33014100D01*
X145056599Y-33014100D01*
X144851809Y-33054835D01*
X144658902Y-33134740D01*
X144485289Y-33250744D01*
X144337644Y-33398389D01*
X144221640Y-33572002D01*
X144141735Y-33764909D01*
X144101000Y-33969699D01*
X143531400Y-33969699D01*
X143531400Y-33948835D01*
X143497390Y-33777855D01*
X143430677Y-33616795D01*
X143333824Y-33471845D01*
X143210555Y-33348576D01*
X143065605Y-33251723D01*
X142904545Y-33185010D01*
X142733565Y-33151000D01*
X142559235Y-33151000D01*
X142388255Y-33185010D01*
X142227195Y-33251723D01*
X142082245Y-33348576D01*
X141958976Y-33471845D01*
X141862123Y-33616795D01*
X141795410Y-33777855D01*
X141761400Y-33948835D01*
X140935368Y-33948835D01*
X140909311Y-33817840D01*
X140846367Y-33665879D01*
X140754987Y-33529119D01*
X140638681Y-33412813D01*
X140501921Y-33321433D01*
X140349960Y-33258489D01*
X140188640Y-33226400D01*
X140024160Y-33226400D01*
X139862840Y-33258489D01*
X139710879Y-33321433D01*
X139574119Y-33412813D01*
X139457813Y-33529119D01*
X139366433Y-33665879D01*
X139303489Y-33817840D01*
X139271400Y-33979160D01*
X138347895Y-33979160D01*
X138321233Y-33845124D01*
X138262058Y-33702263D01*
X138176149Y-33573692D01*
X138066808Y-33464351D01*
X137938237Y-33378442D01*
X137795376Y-33319267D01*
X137643716Y-33289100D01*
X137489084Y-33289100D01*
X137337424Y-33319267D01*
X137194563Y-33378442D01*
X137065992Y-33464351D01*
X136956651Y-33573692D01*
X136870742Y-33702263D01*
X136811567Y-33845124D01*
X136781400Y-33996784D01*
X135785911Y-33996784D01*
X135757193Y-33852416D01*
X135699903Y-33714105D01*
X135616730Y-33589628D01*
X135510872Y-33483770D01*
X135386395Y-33400597D01*
X135248084Y-33343307D01*
X135101253Y-33314100D01*
X134951547Y-33314100D01*
X134804716Y-33343307D01*
X134666405Y-33400597D01*
X134541928Y-33483770D01*
X134436070Y-33589628D01*
X134352897Y-33714105D01*
X134295607Y-33852416D01*
X134266400Y-33999247D01*
X133521000Y-33999247D01*
X133521000Y-33969699D01*
X133480265Y-33764909D01*
X133400360Y-33572002D01*
X133284356Y-33398389D01*
X133136711Y-33250744D01*
X132963098Y-33134740D01*
X132770191Y-33054835D01*
X132565401Y-33014100D01*
X132356599Y-33014100D01*
X132151809Y-33054835D01*
X131958902Y-33134740D01*
X131785289Y-33250744D01*
X131637644Y-33398389D01*
X131521640Y-33572002D01*
X131441735Y-33764909D01*
X131401000Y-33969699D01*
X130981000Y-33969699D01*
X130940265Y-33764909D01*
X130860360Y-33572002D01*
X130744356Y-33398389D01*
X130596711Y-33250744D01*
X130423098Y-33134740D01*
X130230191Y-33054835D01*
X130025401Y-33014100D01*
X129816599Y-33014100D01*
X129611809Y-33054835D01*
X129418902Y-33134740D01*
X129245289Y-33250744D01*
X129097644Y-33398389D01*
X128981640Y-33572002D01*
X128901735Y-33764909D01*
X128861000Y-33969699D01*
X126618600Y-33969699D01*
X126618600Y-31409016D01*
X129794000Y-31409016D01*
X129794000Y-31659184D01*
X129842805Y-31904545D01*
X129938541Y-32135671D01*
X130077527Y-32343678D01*
X130254422Y-32520573D01*
X130462429Y-32659559D01*
X130693555Y-32755295D01*
X130938916Y-32804100D01*
X131189084Y-32804100D01*
X131434445Y-32755295D01*
X131665571Y-32659559D01*
X131873578Y-32520573D01*
X132050473Y-32343678D01*
X132189459Y-32135671D01*
X132285195Y-31904545D01*
X132334000Y-31659184D01*
X132334000Y-31409016D01*
X134874000Y-31409016D01*
X134874000Y-31659184D01*
X134922805Y-31904545D01*
X135018541Y-32135671D01*
X135157527Y-32343678D01*
X135334422Y-32520573D01*
X135542429Y-32659559D01*
X135773555Y-32755295D01*
X136018916Y-32804100D01*
X136269084Y-32804100D01*
X136514445Y-32755295D01*
X136745571Y-32659559D01*
X136953578Y-32520573D01*
X137130473Y-32343678D01*
X137269459Y-32135671D01*
X137365195Y-31904545D01*
X137414000Y-31659184D01*
X137414000Y-31409016D01*
X139954000Y-31409016D01*
X139954000Y-31659184D01*
X140002805Y-31904545D01*
X140098541Y-32135671D01*
X140237527Y-32343678D01*
X140414422Y-32520573D01*
X140622429Y-32659559D01*
X140853555Y-32755295D01*
X141098916Y-32804100D01*
X141349084Y-32804100D01*
X141594445Y-32755295D01*
X141825571Y-32659559D01*
X142033578Y-32520573D01*
X142210473Y-32343678D01*
X142349459Y-32135671D01*
X142445195Y-31904545D01*
X142494000Y-31659184D01*
X142494000Y-31409016D01*
X145034000Y-31409016D01*
X145034000Y-31659184D01*
X145082805Y-31904545D01*
X145178541Y-32135671D01*
X145317527Y-32343678D01*
X145494422Y-32520573D01*
X145702429Y-32659559D01*
X145933555Y-32755295D01*
X146178916Y-32804100D01*
X146429084Y-32804100D01*
X146674445Y-32755295D01*
X146905571Y-32659559D01*
X147113578Y-32520573D01*
X147290473Y-32343678D01*
X147429459Y-32135671D01*
X147525195Y-31904545D01*
X147574000Y-31659184D01*
X147574000Y-31409016D01*
X147525195Y-31163655D01*
X147429459Y-30932529D01*
X147290473Y-30724522D01*
X147113578Y-30547627D01*
X146905571Y-30408641D01*
X146674445Y-30312905D01*
X146429084Y-30264100D01*
X146178916Y-30264100D01*
X145933555Y-30312905D01*
X145702429Y-30408641D01*
X145494422Y-30547627D01*
X145317527Y-30724522D01*
X145178541Y-30932529D01*
X145082805Y-31163655D01*
X145034000Y-31409016D01*
X142494000Y-31409016D01*
X142445195Y-31163655D01*
X142349459Y-30932529D01*
X142210473Y-30724522D01*
X142033578Y-30547627D01*
X141825571Y-30408641D01*
X141594445Y-30312905D01*
X141349084Y-30264100D01*
X141098916Y-30264100D01*
X140853555Y-30312905D01*
X140622429Y-30408641D01*
X140414422Y-30547627D01*
X140237527Y-30724522D01*
X140098541Y-30932529D01*
X140002805Y-31163655D01*
X139954000Y-31409016D01*
X137414000Y-31409016D01*
X137365195Y-31163655D01*
X137269459Y-30932529D01*
X137130473Y-30724522D01*
X136953578Y-30547627D01*
X136745571Y-30408641D01*
X136514445Y-30312905D01*
X136269084Y-30264100D01*
X136018916Y-30264100D01*
X135773555Y-30312905D01*
X135542429Y-30408641D01*
X135334422Y-30547627D01*
X135157527Y-30724522D01*
X135018541Y-30932529D01*
X134922805Y-31163655D01*
X134874000Y-31409016D01*
X132334000Y-31409016D01*
X132285195Y-31163655D01*
X132189459Y-30932529D01*
X132050473Y-30724522D01*
X131873578Y-30547627D01*
X131665571Y-30408641D01*
X131434445Y-30312905D01*
X131189084Y-30264100D01*
X130938916Y-30264100D01*
X130693555Y-30312905D01*
X130462429Y-30408641D01*
X130254422Y-30547627D01*
X130077527Y-30724522D01*
X129938541Y-30932529D01*
X129842805Y-31163655D01*
X129794000Y-31409016D01*
X126618600Y-31409016D01*
X126618600Y-29918510D01*
X150896296Y-29918510D01*
X150896295Y-38138500D01*
G04 #@! TA.AperFunction,NonConductor*
D12*
G36*
X150896295Y-38138500D02*
G01*
X126618600Y-38138500D01*
X126618600Y-36489016D01*
X127254000Y-36489016D01*
X127254000Y-36739184D01*
X127302805Y-36984545D01*
X127398541Y-37215671D01*
X127537527Y-37423678D01*
X127714422Y-37600573D01*
X127922429Y-37739559D01*
X128153555Y-37835295D01*
X128398916Y-37884100D01*
X128649084Y-37884100D01*
X128894445Y-37835295D01*
X129125571Y-37739559D01*
X129333578Y-37600573D01*
X129510473Y-37423678D01*
X129649459Y-37215671D01*
X129745195Y-36984545D01*
X129794000Y-36739184D01*
X129794000Y-36489016D01*
X132334000Y-36489016D01*
X132334000Y-36739184D01*
X132382805Y-36984545D01*
X132478541Y-37215671D01*
X132617527Y-37423678D01*
X132794422Y-37600573D01*
X133002429Y-37739559D01*
X133233555Y-37835295D01*
X133478916Y-37884100D01*
X133729084Y-37884100D01*
X133974445Y-37835295D01*
X134205571Y-37739559D01*
X134413578Y-37600573D01*
X134590473Y-37423678D01*
X134729459Y-37215671D01*
X134825195Y-36984545D01*
X134874000Y-36739184D01*
X134874000Y-36489016D01*
X137414000Y-36489016D01*
X137414000Y-36739184D01*
X137462805Y-36984545D01*
X137558541Y-37215671D01*
X137697527Y-37423678D01*
X137874422Y-37600573D01*
X138082429Y-37739559D01*
X138313555Y-37835295D01*
X138558916Y-37884100D01*
X138809084Y-37884100D01*
X139054445Y-37835295D01*
X139285571Y-37739559D01*
X139493578Y-37600573D01*
X139670473Y-37423678D01*
X139809459Y-37215671D01*
X139905195Y-36984545D01*
X139954000Y-36739184D01*
X139954000Y-36489016D01*
X139951474Y-36476316D01*
X142494000Y-36476316D01*
X142494000Y-36726484D01*
X142542805Y-36971845D01*
X142638541Y-37202971D01*
X142777527Y-37410978D01*
X142954422Y-37587873D01*
X143162429Y-37726859D01*
X143393555Y-37822595D01*
X143638916Y-37871400D01*
X143889084Y-37871400D01*
X144134445Y-37822595D01*
X144365571Y-37726859D01*
X144573578Y-37587873D01*
X144750473Y-37410978D01*
X144889459Y-37202971D01*
X144985195Y-36971845D01*
X145034000Y-36726484D01*
X145034000Y-36476316D01*
X147574000Y-36476316D01*
X147574000Y-36726484D01*
X147622805Y-36971845D01*
X147718541Y-37202971D01*
X147857527Y-37410978D01*
X148034422Y-37587873D01*
X148242429Y-37726859D01*
X148473555Y-37822595D01*
X148718916Y-37871400D01*
X148969084Y-37871400D01*
X149214445Y-37822595D01*
X149445571Y-37726859D01*
X149653578Y-37587873D01*
X149830473Y-37410978D01*
X149969459Y-37202971D01*
X150065195Y-36971845D01*
X150114000Y-36726484D01*
X150114000Y-36476316D01*
X150065195Y-36230955D01*
X149969459Y-35999829D01*
X149830473Y-35791822D01*
X149653578Y-35614927D01*
X149445571Y-35475941D01*
X149214445Y-35380205D01*
X148969084Y-35331400D01*
X148718916Y-35331400D01*
X148473555Y-35380205D01*
X148242429Y-35475941D01*
X148034422Y-35614927D01*
X147857527Y-35791822D01*
X147718541Y-35999829D01*
X147622805Y-36230955D01*
X147574000Y-36476316D01*
X145034000Y-36476316D01*
X144985195Y-36230955D01*
X144889459Y-35999829D01*
X144750473Y-35791822D01*
X144573578Y-35614927D01*
X144365571Y-35475941D01*
X144134445Y-35380205D01*
X143889084Y-35331400D01*
X143638916Y-35331400D01*
X143393555Y-35380205D01*
X143162429Y-35475941D01*
X142954422Y-35614927D01*
X142777527Y-35791822D01*
X142638541Y-35999829D01*
X142542805Y-36230955D01*
X142494000Y-36476316D01*
X139951474Y-36476316D01*
X139905195Y-36243655D01*
X139809459Y-36012529D01*
X139670473Y-35804522D01*
X139493578Y-35627627D01*
X139285571Y-35488641D01*
X139054445Y-35392905D01*
X138809084Y-35344100D01*
X138558916Y-35344100D01*
X138313555Y-35392905D01*
X138082429Y-35488641D01*
X137874422Y-35627627D01*
X137697527Y-35804522D01*
X137558541Y-36012529D01*
X137462805Y-36243655D01*
X137414000Y-36489016D01*
X134874000Y-36489016D01*
X134825195Y-36243655D01*
X134729459Y-36012529D01*
X134590473Y-35804522D01*
X134413578Y-35627627D01*
X134205571Y-35488641D01*
X133974445Y-35392905D01*
X133729084Y-35344100D01*
X133478916Y-35344100D01*
X133233555Y-35392905D01*
X133002429Y-35488641D01*
X132794422Y-35627627D01*
X132617527Y-35804522D01*
X132478541Y-36012529D01*
X132382805Y-36243655D01*
X132334000Y-36489016D01*
X129794000Y-36489016D01*
X129745195Y-36243655D01*
X129649459Y-36012529D01*
X129510473Y-35804522D01*
X129333578Y-35627627D01*
X129125571Y-35488641D01*
X128894445Y-35392905D01*
X128649084Y-35344100D01*
X128398916Y-35344100D01*
X128153555Y-35392905D01*
X127922429Y-35488641D01*
X127714422Y-35627627D01*
X127537527Y-35804522D01*
X127398541Y-36012529D01*
X127302805Y-36243655D01*
X127254000Y-36489016D01*
X126618600Y-36489016D01*
X126618600Y-33969699D01*
X128861000Y-33969699D01*
X128861000Y-34178501D01*
X128901735Y-34383291D01*
X128981640Y-34576198D01*
X129097644Y-34749811D01*
X129245289Y-34897456D01*
X129418902Y-35013460D01*
X129611809Y-35093365D01*
X129816599Y-35134100D01*
X130025401Y-35134100D01*
X130230191Y-35093365D01*
X130423098Y-35013460D01*
X130596711Y-34897456D01*
X130744356Y-34749811D01*
X130860360Y-34576198D01*
X130940265Y-34383291D01*
X130981000Y-34178501D01*
X130981000Y-33969699D01*
X131401000Y-33969699D01*
X131401000Y-34178501D01*
X131441735Y-34383291D01*
X131521640Y-34576198D01*
X131637644Y-34749811D01*
X131785289Y-34897456D01*
X131958902Y-35013460D01*
X132151809Y-35093365D01*
X132356599Y-35134100D01*
X132565401Y-35134100D01*
X132770191Y-35093365D01*
X132963098Y-35013460D01*
X133136711Y-34897456D01*
X133284356Y-34749811D01*
X133400360Y-34576198D01*
X133480265Y-34383291D01*
X133521000Y-34178501D01*
X133521000Y-33999247D01*
X134266400Y-33999247D01*
X134266400Y-34148953D01*
X134295607Y-34295784D01*
X134352897Y-34434095D01*
X134436070Y-34558572D01*
X134541928Y-34664430D01*
X134666405Y-34747603D01*
X134804716Y-34804893D01*
X134951547Y-34834100D01*
X135101253Y-34834100D01*
X135248084Y-34804893D01*
X135386395Y-34747603D01*
X135510872Y-34664430D01*
X135616730Y-34558572D01*
X135699903Y-34434095D01*
X135757193Y-34295784D01*
X135786400Y-34148953D01*
X135786400Y-33999247D01*
X135785911Y-33996784D01*
X136781400Y-33996784D01*
X136781400Y-34151416D01*
X136811567Y-34303076D01*
X136870742Y-34445937D01*
X136956651Y-34574508D01*
X137065992Y-34683849D01*
X137194563Y-34769758D01*
X137337424Y-34828933D01*
X137489084Y-34859100D01*
X137643716Y-34859100D01*
X137795376Y-34828933D01*
X137938237Y-34769758D01*
X138066808Y-34683849D01*
X138176149Y-34574508D01*
X138262058Y-34445937D01*
X138321233Y-34303076D01*
X138351400Y-34151416D01*
X138351400Y-33996784D01*
X138347895Y-33979160D01*
X139271400Y-33979160D01*
X139271400Y-34143640D01*
X139303489Y-34304960D01*
X139366433Y-34456921D01*
X139457813Y-34593681D01*
X139574119Y-34709987D01*
X139710879Y-34801367D01*
X139862840Y-34864311D01*
X140024160Y-34896400D01*
X140188640Y-34896400D01*
X140349960Y-34864311D01*
X140501921Y-34801367D01*
X140638681Y-34709987D01*
X140754987Y-34593681D01*
X140846367Y-34456921D01*
X140909311Y-34304960D01*
X140941400Y-34143640D01*
X140941400Y-33979160D01*
X140935368Y-33948835D01*
X141761400Y-33948835D01*
X141761400Y-34123165D01*
X141795410Y-34294145D01*
X141862123Y-34455205D01*
X141958976Y-34600155D01*
X142082245Y-34723424D01*
X142227195Y-34820277D01*
X142388255Y-34886990D01*
X142559235Y-34921000D01*
X142733565Y-34921000D01*
X142904545Y-34886990D01*
X143065605Y-34820277D01*
X143210555Y-34723424D01*
X143333824Y-34600155D01*
X143430677Y-34455205D01*
X143497390Y-34294145D01*
X143531400Y-34123165D01*
X143531400Y-33969699D01*
X144101000Y-33969699D01*
X144101000Y-34178501D01*
X144141735Y-34383291D01*
X144221640Y-34576198D01*
X144337644Y-34749811D01*
X144485289Y-34897456D01*
X144658902Y-35013460D01*
X144851809Y-35093365D01*
X145056599Y-35134100D01*
X145265401Y-35134100D01*
X145470191Y-35093365D01*
X145663098Y-35013460D01*
X145836711Y-34897456D01*
X145984356Y-34749811D01*
X146100360Y-34576198D01*
X146180265Y-34383291D01*
X146221000Y-34178501D01*
X146221000Y-33969699D01*
X146218474Y-33956999D01*
X146641000Y-33956999D01*
X146641000Y-34165801D01*
X146681735Y-34370591D01*
X146761640Y-34563498D01*
X146877644Y-34737111D01*
X147025289Y-34884756D01*
X147198902Y-35000760D01*
X147391809Y-35080665D01*
X147596599Y-35121400D01*
X147805401Y-35121400D01*
X148010191Y-35080665D01*
X148203098Y-35000760D01*
X148376711Y-34884756D01*
X148524356Y-34737111D01*
X148640360Y-34563498D01*
X148720265Y-34370591D01*
X148761000Y-34165801D01*
X148761000Y-33956999D01*
X148720265Y-33752209D01*
X148640360Y-33559302D01*
X148524356Y-33385689D01*
X148376711Y-33238044D01*
X148203098Y-33122040D01*
X148010191Y-33042135D01*
X147805401Y-33001400D01*
X147596599Y-33001400D01*
X147391809Y-33042135D01*
X147198902Y-33122040D01*
X147025289Y-33238044D01*
X146877644Y-33385689D01*
X146761640Y-33559302D01*
X146681735Y-33752209D01*
X146641000Y-33956999D01*
X146218474Y-33956999D01*
X146180265Y-33764909D01*
X146100360Y-33572002D01*
X145984356Y-33398389D01*
X145836711Y-33250744D01*
X145663098Y-33134740D01*
X145470191Y-33054835D01*
X145265401Y-33014100D01*
X145056599Y-33014100D01*
X144851809Y-33054835D01*
X144658902Y-33134740D01*
X144485289Y-33250744D01*
X144337644Y-33398389D01*
X144221640Y-33572002D01*
X144141735Y-33764909D01*
X144101000Y-33969699D01*
X143531400Y-33969699D01*
X143531400Y-33948835D01*
X143497390Y-33777855D01*
X143430677Y-33616795D01*
X143333824Y-33471845D01*
X143210555Y-33348576D01*
X143065605Y-33251723D01*
X142904545Y-33185010D01*
X142733565Y-33151000D01*
X142559235Y-33151000D01*
X142388255Y-33185010D01*
X142227195Y-33251723D01*
X142082245Y-33348576D01*
X141958976Y-33471845D01*
X141862123Y-33616795D01*
X141795410Y-33777855D01*
X141761400Y-33948835D01*
X140935368Y-33948835D01*
X140909311Y-33817840D01*
X140846367Y-33665879D01*
X140754987Y-33529119D01*
X140638681Y-33412813D01*
X140501921Y-33321433D01*
X140349960Y-33258489D01*
X140188640Y-33226400D01*
X140024160Y-33226400D01*
X139862840Y-33258489D01*
X139710879Y-33321433D01*
X139574119Y-33412813D01*
X139457813Y-33529119D01*
X139366433Y-33665879D01*
X139303489Y-33817840D01*
X139271400Y-33979160D01*
X138347895Y-33979160D01*
X138321233Y-33845124D01*
X138262058Y-33702263D01*
X138176149Y-33573692D01*
X138066808Y-33464351D01*
X137938237Y-33378442D01*
X137795376Y-33319267D01*
X137643716Y-33289100D01*
X137489084Y-33289100D01*
X137337424Y-33319267D01*
X137194563Y-33378442D01*
X137065992Y-33464351D01*
X136956651Y-33573692D01*
X136870742Y-33702263D01*
X136811567Y-33845124D01*
X136781400Y-33996784D01*
X135785911Y-33996784D01*
X135757193Y-33852416D01*
X135699903Y-33714105D01*
X135616730Y-33589628D01*
X135510872Y-33483770D01*
X135386395Y-33400597D01*
X135248084Y-33343307D01*
X135101253Y-33314100D01*
X134951547Y-33314100D01*
X134804716Y-33343307D01*
X134666405Y-33400597D01*
X134541928Y-33483770D01*
X134436070Y-33589628D01*
X134352897Y-33714105D01*
X134295607Y-33852416D01*
X134266400Y-33999247D01*
X133521000Y-33999247D01*
X133521000Y-33969699D01*
X133480265Y-33764909D01*
X133400360Y-33572002D01*
X133284356Y-33398389D01*
X133136711Y-33250744D01*
X132963098Y-33134740D01*
X132770191Y-33054835D01*
X132565401Y-33014100D01*
X132356599Y-33014100D01*
X132151809Y-33054835D01*
X131958902Y-33134740D01*
X131785289Y-33250744D01*
X131637644Y-33398389D01*
X131521640Y-33572002D01*
X131441735Y-33764909D01*
X131401000Y-33969699D01*
X130981000Y-33969699D01*
X130940265Y-33764909D01*
X130860360Y-33572002D01*
X130744356Y-33398389D01*
X130596711Y-33250744D01*
X130423098Y-33134740D01*
X130230191Y-33054835D01*
X130025401Y-33014100D01*
X129816599Y-33014100D01*
X129611809Y-33054835D01*
X129418902Y-33134740D01*
X129245289Y-33250744D01*
X129097644Y-33398389D01*
X128981640Y-33572002D01*
X128901735Y-33764909D01*
X128861000Y-33969699D01*
X126618600Y-33969699D01*
X126618600Y-31409016D01*
X129794000Y-31409016D01*
X129794000Y-31659184D01*
X129842805Y-31904545D01*
X129938541Y-32135671D01*
X130077527Y-32343678D01*
X130254422Y-32520573D01*
X130462429Y-32659559D01*
X130693555Y-32755295D01*
X130938916Y-32804100D01*
X131189084Y-32804100D01*
X131434445Y-32755295D01*
X131665571Y-32659559D01*
X131873578Y-32520573D01*
X132050473Y-32343678D01*
X132189459Y-32135671D01*
X132285195Y-31904545D01*
X132334000Y-31659184D01*
X132334000Y-31409016D01*
X134874000Y-31409016D01*
X134874000Y-31659184D01*
X134922805Y-31904545D01*
X135018541Y-32135671D01*
X135157527Y-32343678D01*
X135334422Y-32520573D01*
X135542429Y-32659559D01*
X135773555Y-32755295D01*
X136018916Y-32804100D01*
X136269084Y-32804100D01*
X136514445Y-32755295D01*
X136745571Y-32659559D01*
X136953578Y-32520573D01*
X137130473Y-32343678D01*
X137269459Y-32135671D01*
X137365195Y-31904545D01*
X137414000Y-31659184D01*
X137414000Y-31409016D01*
X139954000Y-31409016D01*
X139954000Y-31659184D01*
X140002805Y-31904545D01*
X140098541Y-32135671D01*
X140237527Y-32343678D01*
X140414422Y-32520573D01*
X140622429Y-32659559D01*
X140853555Y-32755295D01*
X141098916Y-32804100D01*
X141349084Y-32804100D01*
X141594445Y-32755295D01*
X141825571Y-32659559D01*
X142033578Y-32520573D01*
X142210473Y-32343678D01*
X142349459Y-32135671D01*
X142445195Y-31904545D01*
X142494000Y-31659184D01*
X142494000Y-31409016D01*
X145034000Y-31409016D01*
X145034000Y-31659184D01*
X145082805Y-31904545D01*
X145178541Y-32135671D01*
X145317527Y-32343678D01*
X145494422Y-32520573D01*
X145702429Y-32659559D01*
X145933555Y-32755295D01*
X146178916Y-32804100D01*
X146429084Y-32804100D01*
X146674445Y-32755295D01*
X146905571Y-32659559D01*
X147113578Y-32520573D01*
X147290473Y-32343678D01*
X147429459Y-32135671D01*
X147525195Y-31904545D01*
X147574000Y-31659184D01*
X147574000Y-31409016D01*
X147525195Y-31163655D01*
X147429459Y-30932529D01*
X147290473Y-30724522D01*
X147113578Y-30547627D01*
X146905571Y-30408641D01*
X146674445Y-30312905D01*
X146429084Y-30264100D01*
X146178916Y-30264100D01*
X145933555Y-30312905D01*
X145702429Y-30408641D01*
X145494422Y-30547627D01*
X145317527Y-30724522D01*
X145178541Y-30932529D01*
X145082805Y-31163655D01*
X145034000Y-31409016D01*
X142494000Y-31409016D01*
X142445195Y-31163655D01*
X142349459Y-30932529D01*
X142210473Y-30724522D01*
X142033578Y-30547627D01*
X141825571Y-30408641D01*
X141594445Y-30312905D01*
X141349084Y-30264100D01*
X141098916Y-30264100D01*
X140853555Y-30312905D01*
X140622429Y-30408641D01*
X140414422Y-30547627D01*
X140237527Y-30724522D01*
X140098541Y-30932529D01*
X140002805Y-31163655D01*
X139954000Y-31409016D01*
X137414000Y-31409016D01*
X137365195Y-31163655D01*
X137269459Y-30932529D01*
X137130473Y-30724522D01*
X136953578Y-30547627D01*
X136745571Y-30408641D01*
X136514445Y-30312905D01*
X136269084Y-30264100D01*
X136018916Y-30264100D01*
X135773555Y-30312905D01*
X135542429Y-30408641D01*
X135334422Y-30547627D01*
X135157527Y-30724522D01*
X135018541Y-30932529D01*
X134922805Y-31163655D01*
X134874000Y-31409016D01*
X132334000Y-31409016D01*
X132285195Y-31163655D01*
X132189459Y-30932529D01*
X132050473Y-30724522D01*
X131873578Y-30547627D01*
X131665571Y-30408641D01*
X131434445Y-30312905D01*
X131189084Y-30264100D01*
X130938916Y-30264100D01*
X130693555Y-30312905D01*
X130462429Y-30408641D01*
X130254422Y-30547627D01*
X130077527Y-30724522D01*
X129938541Y-30932529D01*
X129842805Y-31163655D01*
X129794000Y-31409016D01*
X126618600Y-31409016D01*
X126618600Y-29918510D01*
X150896296Y-29918510D01*
X150896295Y-38138500D01*
G37*
G04 #@! TD.AperFunction*
M02*
