G04 #@! TF.GenerationSoftware,KiCad,Pcbnew,(5.1.12)-1*
G04 #@! TF.CreationDate,2022-03-29T21:33:58+08:00*
G04 #@! TF.ProjectId,Nozzle,4e6f7a7a-6c65-42e6-9b69-6361645f7063,Gen3.1b*
G04 #@! TF.SameCoordinates,Original*
G04 #@! TF.FileFunction,Copper,L2,Bot*
G04 #@! TF.FilePolarity,Positive*
%FSLAX46Y46*%
G04 Gerber Fmt 4.6, Leading zero omitted, Abs format (unit mm)*
G04 Created by KiCad (PCBNEW (5.1.12)-1) date 2022-03-29 21:33:58*
%MOMM*%
%LPD*%
G01*
G04 APERTURE LIST*
G04 #@! TA.AperFunction,ComponentPad*
%ADD10C,0.850000*%
G04 #@! TD*
G04 #@! TA.AperFunction,NonConductor*
%ADD11C,0.254000*%
G04 #@! TD*
G04 #@! TA.AperFunction,NonConductor*
%ADD12C,0.100000*%
G04 #@! TD*
G04 APERTURE END LIST*
D10*
X146494500Y-33108900D03*
X131254500Y-33121600D03*
X143954500Y-33121600D03*
X128714500Y-33121600D03*
D11*
X149689795Y-37186000D02*
X125412100Y-37186000D01*
X125412100Y-35567787D01*
X126365000Y-35567787D01*
X126365000Y-35755413D01*
X126401604Y-35939434D01*
X126473405Y-36112778D01*
X126577645Y-36268784D01*
X126710316Y-36401455D01*
X126866322Y-36505695D01*
X127039666Y-36577496D01*
X127223687Y-36614100D01*
X127411313Y-36614100D01*
X127595334Y-36577496D01*
X127768678Y-36505695D01*
X127924684Y-36401455D01*
X128057355Y-36268784D01*
X128161595Y-36112778D01*
X128233396Y-35939434D01*
X128270000Y-35755413D01*
X128270000Y-35567787D01*
X131445000Y-35567787D01*
X131445000Y-35755413D01*
X131481604Y-35939434D01*
X131553405Y-36112778D01*
X131657645Y-36268784D01*
X131790316Y-36401455D01*
X131946322Y-36505695D01*
X132119666Y-36577496D01*
X132303687Y-36614100D01*
X132491313Y-36614100D01*
X132675334Y-36577496D01*
X132848678Y-36505695D01*
X133004684Y-36401455D01*
X133137355Y-36268784D01*
X133241595Y-36112778D01*
X133313396Y-35939434D01*
X133350000Y-35755413D01*
X133350000Y-35567787D01*
X136525000Y-35567787D01*
X136525000Y-35755413D01*
X136561604Y-35939434D01*
X136633405Y-36112778D01*
X136737645Y-36268784D01*
X136870316Y-36401455D01*
X137026322Y-36505695D01*
X137199666Y-36577496D01*
X137383687Y-36614100D01*
X137571313Y-36614100D01*
X137755334Y-36577496D01*
X137928678Y-36505695D01*
X138084684Y-36401455D01*
X138217355Y-36268784D01*
X138321595Y-36112778D01*
X138393396Y-35939434D01*
X138430000Y-35755413D01*
X138430000Y-35567787D01*
X138427474Y-35555087D01*
X141605000Y-35555087D01*
X141605000Y-35742713D01*
X141641604Y-35926734D01*
X141713405Y-36100078D01*
X141817645Y-36256084D01*
X141950316Y-36388755D01*
X142106322Y-36492995D01*
X142279666Y-36564796D01*
X142463687Y-36601400D01*
X142651313Y-36601400D01*
X142835334Y-36564796D01*
X143008678Y-36492995D01*
X143164684Y-36388755D01*
X143297355Y-36256084D01*
X143401595Y-36100078D01*
X143473396Y-35926734D01*
X143510000Y-35742713D01*
X143510000Y-35555087D01*
X146685000Y-35555087D01*
X146685000Y-35742713D01*
X146721604Y-35926734D01*
X146793405Y-36100078D01*
X146897645Y-36256084D01*
X147030316Y-36388755D01*
X147186322Y-36492995D01*
X147359666Y-36564796D01*
X147543687Y-36601400D01*
X147731313Y-36601400D01*
X147915334Y-36564796D01*
X148088678Y-36492995D01*
X148244684Y-36388755D01*
X148377355Y-36256084D01*
X148481595Y-36100078D01*
X148553396Y-35926734D01*
X148590000Y-35742713D01*
X148590000Y-35555087D01*
X148553396Y-35371066D01*
X148481595Y-35197722D01*
X148377355Y-35041716D01*
X148244684Y-34909045D01*
X148088678Y-34804805D01*
X147915334Y-34733004D01*
X147731313Y-34696400D01*
X147543687Y-34696400D01*
X147359666Y-34733004D01*
X147186322Y-34804805D01*
X147030316Y-34909045D01*
X146897645Y-35041716D01*
X146793405Y-35197722D01*
X146721604Y-35371066D01*
X146685000Y-35555087D01*
X143510000Y-35555087D01*
X143473396Y-35371066D01*
X143401595Y-35197722D01*
X143297355Y-35041716D01*
X143164684Y-34909045D01*
X143008678Y-34804805D01*
X142835334Y-34733004D01*
X142651313Y-34696400D01*
X142463687Y-34696400D01*
X142279666Y-34733004D01*
X142106322Y-34804805D01*
X141950316Y-34909045D01*
X141817645Y-35041716D01*
X141713405Y-35197722D01*
X141641604Y-35371066D01*
X141605000Y-35555087D01*
X138427474Y-35555087D01*
X138393396Y-35383766D01*
X138321595Y-35210422D01*
X138217355Y-35054416D01*
X138084684Y-34921745D01*
X137928678Y-34817505D01*
X137755334Y-34745704D01*
X137571313Y-34709100D01*
X137383687Y-34709100D01*
X137199666Y-34745704D01*
X137026322Y-34817505D01*
X136870316Y-34921745D01*
X136737645Y-35054416D01*
X136633405Y-35210422D01*
X136561604Y-35383766D01*
X136525000Y-35567787D01*
X133350000Y-35567787D01*
X133313396Y-35383766D01*
X133241595Y-35210422D01*
X133137355Y-35054416D01*
X133004684Y-34921745D01*
X132848678Y-34817505D01*
X132675334Y-34745704D01*
X132491313Y-34709100D01*
X132303687Y-34709100D01*
X132119666Y-34745704D01*
X131946322Y-34817505D01*
X131790316Y-34921745D01*
X131657645Y-35054416D01*
X131553405Y-35210422D01*
X131481604Y-35383766D01*
X131445000Y-35567787D01*
X128270000Y-35567787D01*
X128233396Y-35383766D01*
X128161595Y-35210422D01*
X128057355Y-35054416D01*
X127924684Y-34921745D01*
X127768678Y-34817505D01*
X127595334Y-34745704D01*
X127411313Y-34709100D01*
X127223687Y-34709100D01*
X127039666Y-34745704D01*
X126866322Y-34817505D01*
X126710316Y-34921745D01*
X126577645Y-35054416D01*
X126473405Y-35210422D01*
X126401604Y-35383766D01*
X126365000Y-35567787D01*
X125412100Y-35567787D01*
X125412100Y-33017199D01*
X127654500Y-33017199D01*
X127654500Y-33226001D01*
X127695235Y-33430791D01*
X127775140Y-33623698D01*
X127891144Y-33797311D01*
X128038789Y-33944956D01*
X128212402Y-34060960D01*
X128405309Y-34140865D01*
X128610099Y-34181600D01*
X128818901Y-34181600D01*
X129023691Y-34140865D01*
X129216598Y-34060960D01*
X129390211Y-33944956D01*
X129537856Y-33797311D01*
X129653860Y-33623698D01*
X129733765Y-33430791D01*
X129774500Y-33226001D01*
X129774500Y-33017199D01*
X130194500Y-33017199D01*
X130194500Y-33226001D01*
X130235235Y-33430791D01*
X130315140Y-33623698D01*
X130431144Y-33797311D01*
X130578789Y-33944956D01*
X130752402Y-34060960D01*
X130945309Y-34140865D01*
X131150099Y-34181600D01*
X131358901Y-34181600D01*
X131563691Y-34140865D01*
X131756598Y-34060960D01*
X131930211Y-33944956D01*
X132077856Y-33797311D01*
X132193860Y-33623698D01*
X132273765Y-33430791D01*
X132314500Y-33226001D01*
X132314500Y-33046747D01*
X133059900Y-33046747D01*
X133059900Y-33196453D01*
X133089107Y-33343284D01*
X133146397Y-33481595D01*
X133229570Y-33606072D01*
X133335428Y-33711930D01*
X133459905Y-33795103D01*
X133598216Y-33852393D01*
X133745047Y-33881600D01*
X133894753Y-33881600D01*
X134041584Y-33852393D01*
X134179895Y-33795103D01*
X134304372Y-33711930D01*
X134410230Y-33606072D01*
X134493403Y-33481595D01*
X134550693Y-33343284D01*
X134579900Y-33196453D01*
X134579900Y-33046747D01*
X134579411Y-33044284D01*
X135574900Y-33044284D01*
X135574900Y-33198916D01*
X135605067Y-33350576D01*
X135664242Y-33493437D01*
X135750151Y-33622008D01*
X135859492Y-33731349D01*
X135988063Y-33817258D01*
X136130924Y-33876433D01*
X136282584Y-33906600D01*
X136437216Y-33906600D01*
X136588876Y-33876433D01*
X136731737Y-33817258D01*
X136860308Y-33731349D01*
X136969649Y-33622008D01*
X137055558Y-33493437D01*
X137114733Y-33350576D01*
X137144900Y-33198916D01*
X137144900Y-33044284D01*
X137141395Y-33026660D01*
X138064900Y-33026660D01*
X138064900Y-33191140D01*
X138096989Y-33352460D01*
X138159933Y-33504421D01*
X138251313Y-33641181D01*
X138367619Y-33757487D01*
X138504379Y-33848867D01*
X138656340Y-33911811D01*
X138817660Y-33943900D01*
X138982140Y-33943900D01*
X139143460Y-33911811D01*
X139295421Y-33848867D01*
X139432181Y-33757487D01*
X139548487Y-33641181D01*
X139639867Y-33504421D01*
X139702811Y-33352460D01*
X139734900Y-33191140D01*
X139734900Y-33026660D01*
X139728868Y-32996335D01*
X140554900Y-32996335D01*
X140554900Y-33170665D01*
X140588910Y-33341645D01*
X140655623Y-33502705D01*
X140752476Y-33647655D01*
X140875745Y-33770924D01*
X141020695Y-33867777D01*
X141181755Y-33934490D01*
X141352735Y-33968500D01*
X141527065Y-33968500D01*
X141698045Y-33934490D01*
X141859105Y-33867777D01*
X142004055Y-33770924D01*
X142127324Y-33647655D01*
X142224177Y-33502705D01*
X142290890Y-33341645D01*
X142324900Y-33170665D01*
X142324900Y-33017199D01*
X142894500Y-33017199D01*
X142894500Y-33226001D01*
X142935235Y-33430791D01*
X143015140Y-33623698D01*
X143131144Y-33797311D01*
X143278789Y-33944956D01*
X143452402Y-34060960D01*
X143645309Y-34140865D01*
X143850099Y-34181600D01*
X144058901Y-34181600D01*
X144263691Y-34140865D01*
X144456598Y-34060960D01*
X144630211Y-33944956D01*
X144777856Y-33797311D01*
X144893860Y-33623698D01*
X144973765Y-33430791D01*
X145014500Y-33226001D01*
X145014500Y-33017199D01*
X145011974Y-33004499D01*
X145434500Y-33004499D01*
X145434500Y-33213301D01*
X145475235Y-33418091D01*
X145555140Y-33610998D01*
X145671144Y-33784611D01*
X145818789Y-33932256D01*
X145992402Y-34048260D01*
X146185309Y-34128165D01*
X146390099Y-34168900D01*
X146598901Y-34168900D01*
X146803691Y-34128165D01*
X146996598Y-34048260D01*
X147170211Y-33932256D01*
X147317856Y-33784611D01*
X147433860Y-33610998D01*
X147513765Y-33418091D01*
X147554500Y-33213301D01*
X147554500Y-33004499D01*
X147513765Y-32799709D01*
X147433860Y-32606802D01*
X147317856Y-32433189D01*
X147170211Y-32285544D01*
X146996598Y-32169540D01*
X146803691Y-32089635D01*
X146598901Y-32048900D01*
X146390099Y-32048900D01*
X146185309Y-32089635D01*
X145992402Y-32169540D01*
X145818789Y-32285544D01*
X145671144Y-32433189D01*
X145555140Y-32606802D01*
X145475235Y-32799709D01*
X145434500Y-33004499D01*
X145011974Y-33004499D01*
X144973765Y-32812409D01*
X144893860Y-32619502D01*
X144777856Y-32445889D01*
X144630211Y-32298244D01*
X144456598Y-32182240D01*
X144263691Y-32102335D01*
X144058901Y-32061600D01*
X143850099Y-32061600D01*
X143645309Y-32102335D01*
X143452402Y-32182240D01*
X143278789Y-32298244D01*
X143131144Y-32445889D01*
X143015140Y-32619502D01*
X142935235Y-32812409D01*
X142894500Y-33017199D01*
X142324900Y-33017199D01*
X142324900Y-32996335D01*
X142290890Y-32825355D01*
X142224177Y-32664295D01*
X142127324Y-32519345D01*
X142004055Y-32396076D01*
X141859105Y-32299223D01*
X141698045Y-32232510D01*
X141527065Y-32198500D01*
X141352735Y-32198500D01*
X141181755Y-32232510D01*
X141020695Y-32299223D01*
X140875745Y-32396076D01*
X140752476Y-32519345D01*
X140655623Y-32664295D01*
X140588910Y-32825355D01*
X140554900Y-32996335D01*
X139728868Y-32996335D01*
X139702811Y-32865340D01*
X139639867Y-32713379D01*
X139548487Y-32576619D01*
X139432181Y-32460313D01*
X139295421Y-32368933D01*
X139143460Y-32305989D01*
X138982140Y-32273900D01*
X138817660Y-32273900D01*
X138656340Y-32305989D01*
X138504379Y-32368933D01*
X138367619Y-32460313D01*
X138251313Y-32576619D01*
X138159933Y-32713379D01*
X138096989Y-32865340D01*
X138064900Y-33026660D01*
X137141395Y-33026660D01*
X137114733Y-32892624D01*
X137055558Y-32749763D01*
X136969649Y-32621192D01*
X136860308Y-32511851D01*
X136731737Y-32425942D01*
X136588876Y-32366767D01*
X136437216Y-32336600D01*
X136282584Y-32336600D01*
X136130924Y-32366767D01*
X135988063Y-32425942D01*
X135859492Y-32511851D01*
X135750151Y-32621192D01*
X135664242Y-32749763D01*
X135605067Y-32892624D01*
X135574900Y-33044284D01*
X134579411Y-33044284D01*
X134550693Y-32899916D01*
X134493403Y-32761605D01*
X134410230Y-32637128D01*
X134304372Y-32531270D01*
X134179895Y-32448097D01*
X134041584Y-32390807D01*
X133894753Y-32361600D01*
X133745047Y-32361600D01*
X133598216Y-32390807D01*
X133459905Y-32448097D01*
X133335428Y-32531270D01*
X133229570Y-32637128D01*
X133146397Y-32761605D01*
X133089107Y-32899916D01*
X133059900Y-33046747D01*
X132314500Y-33046747D01*
X132314500Y-33017199D01*
X132273765Y-32812409D01*
X132193860Y-32619502D01*
X132077856Y-32445889D01*
X131930211Y-32298244D01*
X131756598Y-32182240D01*
X131563691Y-32102335D01*
X131358901Y-32061600D01*
X131150099Y-32061600D01*
X130945309Y-32102335D01*
X130752402Y-32182240D01*
X130578789Y-32298244D01*
X130431144Y-32445889D01*
X130315140Y-32619502D01*
X130235235Y-32812409D01*
X130194500Y-33017199D01*
X129774500Y-33017199D01*
X129733765Y-32812409D01*
X129653860Y-32619502D01*
X129537856Y-32445889D01*
X129390211Y-32298244D01*
X129216598Y-32182240D01*
X129023691Y-32102335D01*
X128818901Y-32061600D01*
X128610099Y-32061600D01*
X128405309Y-32102335D01*
X128212402Y-32182240D01*
X128038789Y-32298244D01*
X127891144Y-32445889D01*
X127775140Y-32619502D01*
X127695235Y-32812409D01*
X127654500Y-33017199D01*
X125412100Y-33017199D01*
X125412100Y-30487787D01*
X128905000Y-30487787D01*
X128905000Y-30675413D01*
X128941604Y-30859434D01*
X129013405Y-31032778D01*
X129117645Y-31188784D01*
X129250316Y-31321455D01*
X129406322Y-31425695D01*
X129579666Y-31497496D01*
X129763687Y-31534100D01*
X129951313Y-31534100D01*
X130135334Y-31497496D01*
X130308678Y-31425695D01*
X130464684Y-31321455D01*
X130597355Y-31188784D01*
X130701595Y-31032778D01*
X130773396Y-30859434D01*
X130810000Y-30675413D01*
X130810000Y-30487787D01*
X133985000Y-30487787D01*
X133985000Y-30675413D01*
X134021604Y-30859434D01*
X134093405Y-31032778D01*
X134197645Y-31188784D01*
X134330316Y-31321455D01*
X134486322Y-31425695D01*
X134659666Y-31497496D01*
X134843687Y-31534100D01*
X135031313Y-31534100D01*
X135215334Y-31497496D01*
X135388678Y-31425695D01*
X135544684Y-31321455D01*
X135677355Y-31188784D01*
X135781595Y-31032778D01*
X135853396Y-30859434D01*
X135890000Y-30675413D01*
X135890000Y-30487787D01*
X139065000Y-30487787D01*
X139065000Y-30675413D01*
X139101604Y-30859434D01*
X139173405Y-31032778D01*
X139277645Y-31188784D01*
X139410316Y-31321455D01*
X139566322Y-31425695D01*
X139739666Y-31497496D01*
X139923687Y-31534100D01*
X140111313Y-31534100D01*
X140295334Y-31497496D01*
X140468678Y-31425695D01*
X140624684Y-31321455D01*
X140757355Y-31188784D01*
X140861595Y-31032778D01*
X140933396Y-30859434D01*
X140970000Y-30675413D01*
X140970000Y-30487787D01*
X144145000Y-30487787D01*
X144145000Y-30675413D01*
X144181604Y-30859434D01*
X144253405Y-31032778D01*
X144357645Y-31188784D01*
X144490316Y-31321455D01*
X144646322Y-31425695D01*
X144819666Y-31497496D01*
X145003687Y-31534100D01*
X145191313Y-31534100D01*
X145375334Y-31497496D01*
X145548678Y-31425695D01*
X145704684Y-31321455D01*
X145837355Y-31188784D01*
X145941595Y-31032778D01*
X146013396Y-30859434D01*
X146050000Y-30675413D01*
X146050000Y-30487787D01*
X146013396Y-30303766D01*
X145941595Y-30130422D01*
X145837355Y-29974416D01*
X145704684Y-29841745D01*
X145548678Y-29737505D01*
X145375334Y-29665704D01*
X145191313Y-29629100D01*
X145003687Y-29629100D01*
X144819666Y-29665704D01*
X144646322Y-29737505D01*
X144490316Y-29841745D01*
X144357645Y-29974416D01*
X144253405Y-30130422D01*
X144181604Y-30303766D01*
X144145000Y-30487787D01*
X140970000Y-30487787D01*
X140933396Y-30303766D01*
X140861595Y-30130422D01*
X140757355Y-29974416D01*
X140624684Y-29841745D01*
X140468678Y-29737505D01*
X140295334Y-29665704D01*
X140111313Y-29629100D01*
X139923687Y-29629100D01*
X139739666Y-29665704D01*
X139566322Y-29737505D01*
X139410316Y-29841745D01*
X139277645Y-29974416D01*
X139173405Y-30130422D01*
X139101604Y-30303766D01*
X139065000Y-30487787D01*
X135890000Y-30487787D01*
X135853396Y-30303766D01*
X135781595Y-30130422D01*
X135677355Y-29974416D01*
X135544684Y-29841745D01*
X135388678Y-29737505D01*
X135215334Y-29665704D01*
X135031313Y-29629100D01*
X134843687Y-29629100D01*
X134659666Y-29665704D01*
X134486322Y-29737505D01*
X134330316Y-29841745D01*
X134197645Y-29974416D01*
X134093405Y-30130422D01*
X134021604Y-30303766D01*
X133985000Y-30487787D01*
X130810000Y-30487787D01*
X130773396Y-30303766D01*
X130701595Y-30130422D01*
X130597355Y-29974416D01*
X130464684Y-29841745D01*
X130308678Y-29737505D01*
X130135334Y-29665704D01*
X129951313Y-29629100D01*
X129763687Y-29629100D01*
X129579666Y-29665704D01*
X129406322Y-29737505D01*
X129250316Y-29841745D01*
X129117645Y-29974416D01*
X129013405Y-30130422D01*
X128941604Y-30303766D01*
X128905000Y-30487787D01*
X125412100Y-30487787D01*
X125412100Y-28966010D01*
X149689796Y-28966010D01*
X149689795Y-37186000D01*
G04 #@! TA.AperFunction,NonConductor*
D12*
G36*
X149689795Y-37186000D02*
G01*
X125412100Y-37186000D01*
X125412100Y-35567787D01*
X126365000Y-35567787D01*
X126365000Y-35755413D01*
X126401604Y-35939434D01*
X126473405Y-36112778D01*
X126577645Y-36268784D01*
X126710316Y-36401455D01*
X126866322Y-36505695D01*
X127039666Y-36577496D01*
X127223687Y-36614100D01*
X127411313Y-36614100D01*
X127595334Y-36577496D01*
X127768678Y-36505695D01*
X127924684Y-36401455D01*
X128057355Y-36268784D01*
X128161595Y-36112778D01*
X128233396Y-35939434D01*
X128270000Y-35755413D01*
X128270000Y-35567787D01*
X131445000Y-35567787D01*
X131445000Y-35755413D01*
X131481604Y-35939434D01*
X131553405Y-36112778D01*
X131657645Y-36268784D01*
X131790316Y-36401455D01*
X131946322Y-36505695D01*
X132119666Y-36577496D01*
X132303687Y-36614100D01*
X132491313Y-36614100D01*
X132675334Y-36577496D01*
X132848678Y-36505695D01*
X133004684Y-36401455D01*
X133137355Y-36268784D01*
X133241595Y-36112778D01*
X133313396Y-35939434D01*
X133350000Y-35755413D01*
X133350000Y-35567787D01*
X136525000Y-35567787D01*
X136525000Y-35755413D01*
X136561604Y-35939434D01*
X136633405Y-36112778D01*
X136737645Y-36268784D01*
X136870316Y-36401455D01*
X137026322Y-36505695D01*
X137199666Y-36577496D01*
X137383687Y-36614100D01*
X137571313Y-36614100D01*
X137755334Y-36577496D01*
X137928678Y-36505695D01*
X138084684Y-36401455D01*
X138217355Y-36268784D01*
X138321595Y-36112778D01*
X138393396Y-35939434D01*
X138430000Y-35755413D01*
X138430000Y-35567787D01*
X138427474Y-35555087D01*
X141605000Y-35555087D01*
X141605000Y-35742713D01*
X141641604Y-35926734D01*
X141713405Y-36100078D01*
X141817645Y-36256084D01*
X141950316Y-36388755D01*
X142106322Y-36492995D01*
X142279666Y-36564796D01*
X142463687Y-36601400D01*
X142651313Y-36601400D01*
X142835334Y-36564796D01*
X143008678Y-36492995D01*
X143164684Y-36388755D01*
X143297355Y-36256084D01*
X143401595Y-36100078D01*
X143473396Y-35926734D01*
X143510000Y-35742713D01*
X143510000Y-35555087D01*
X146685000Y-35555087D01*
X146685000Y-35742713D01*
X146721604Y-35926734D01*
X146793405Y-36100078D01*
X146897645Y-36256084D01*
X147030316Y-36388755D01*
X147186322Y-36492995D01*
X147359666Y-36564796D01*
X147543687Y-36601400D01*
X147731313Y-36601400D01*
X147915334Y-36564796D01*
X148088678Y-36492995D01*
X148244684Y-36388755D01*
X148377355Y-36256084D01*
X148481595Y-36100078D01*
X148553396Y-35926734D01*
X148590000Y-35742713D01*
X148590000Y-35555087D01*
X148553396Y-35371066D01*
X148481595Y-35197722D01*
X148377355Y-35041716D01*
X148244684Y-34909045D01*
X148088678Y-34804805D01*
X147915334Y-34733004D01*
X147731313Y-34696400D01*
X147543687Y-34696400D01*
X147359666Y-34733004D01*
X147186322Y-34804805D01*
X147030316Y-34909045D01*
X146897645Y-35041716D01*
X146793405Y-35197722D01*
X146721604Y-35371066D01*
X146685000Y-35555087D01*
X143510000Y-35555087D01*
X143473396Y-35371066D01*
X143401595Y-35197722D01*
X143297355Y-35041716D01*
X143164684Y-34909045D01*
X143008678Y-34804805D01*
X142835334Y-34733004D01*
X142651313Y-34696400D01*
X142463687Y-34696400D01*
X142279666Y-34733004D01*
X142106322Y-34804805D01*
X141950316Y-34909045D01*
X141817645Y-35041716D01*
X141713405Y-35197722D01*
X141641604Y-35371066D01*
X141605000Y-35555087D01*
X138427474Y-35555087D01*
X138393396Y-35383766D01*
X138321595Y-35210422D01*
X138217355Y-35054416D01*
X138084684Y-34921745D01*
X137928678Y-34817505D01*
X137755334Y-34745704D01*
X137571313Y-34709100D01*
X137383687Y-34709100D01*
X137199666Y-34745704D01*
X137026322Y-34817505D01*
X136870316Y-34921745D01*
X136737645Y-35054416D01*
X136633405Y-35210422D01*
X136561604Y-35383766D01*
X136525000Y-35567787D01*
X133350000Y-35567787D01*
X133313396Y-35383766D01*
X133241595Y-35210422D01*
X133137355Y-35054416D01*
X133004684Y-34921745D01*
X132848678Y-34817505D01*
X132675334Y-34745704D01*
X132491313Y-34709100D01*
X132303687Y-34709100D01*
X132119666Y-34745704D01*
X131946322Y-34817505D01*
X131790316Y-34921745D01*
X131657645Y-35054416D01*
X131553405Y-35210422D01*
X131481604Y-35383766D01*
X131445000Y-35567787D01*
X128270000Y-35567787D01*
X128233396Y-35383766D01*
X128161595Y-35210422D01*
X128057355Y-35054416D01*
X127924684Y-34921745D01*
X127768678Y-34817505D01*
X127595334Y-34745704D01*
X127411313Y-34709100D01*
X127223687Y-34709100D01*
X127039666Y-34745704D01*
X126866322Y-34817505D01*
X126710316Y-34921745D01*
X126577645Y-35054416D01*
X126473405Y-35210422D01*
X126401604Y-35383766D01*
X126365000Y-35567787D01*
X125412100Y-35567787D01*
X125412100Y-33017199D01*
X127654500Y-33017199D01*
X127654500Y-33226001D01*
X127695235Y-33430791D01*
X127775140Y-33623698D01*
X127891144Y-33797311D01*
X128038789Y-33944956D01*
X128212402Y-34060960D01*
X128405309Y-34140865D01*
X128610099Y-34181600D01*
X128818901Y-34181600D01*
X129023691Y-34140865D01*
X129216598Y-34060960D01*
X129390211Y-33944956D01*
X129537856Y-33797311D01*
X129653860Y-33623698D01*
X129733765Y-33430791D01*
X129774500Y-33226001D01*
X129774500Y-33017199D01*
X130194500Y-33017199D01*
X130194500Y-33226001D01*
X130235235Y-33430791D01*
X130315140Y-33623698D01*
X130431144Y-33797311D01*
X130578789Y-33944956D01*
X130752402Y-34060960D01*
X130945309Y-34140865D01*
X131150099Y-34181600D01*
X131358901Y-34181600D01*
X131563691Y-34140865D01*
X131756598Y-34060960D01*
X131930211Y-33944956D01*
X132077856Y-33797311D01*
X132193860Y-33623698D01*
X132273765Y-33430791D01*
X132314500Y-33226001D01*
X132314500Y-33046747D01*
X133059900Y-33046747D01*
X133059900Y-33196453D01*
X133089107Y-33343284D01*
X133146397Y-33481595D01*
X133229570Y-33606072D01*
X133335428Y-33711930D01*
X133459905Y-33795103D01*
X133598216Y-33852393D01*
X133745047Y-33881600D01*
X133894753Y-33881600D01*
X134041584Y-33852393D01*
X134179895Y-33795103D01*
X134304372Y-33711930D01*
X134410230Y-33606072D01*
X134493403Y-33481595D01*
X134550693Y-33343284D01*
X134579900Y-33196453D01*
X134579900Y-33046747D01*
X134579411Y-33044284D01*
X135574900Y-33044284D01*
X135574900Y-33198916D01*
X135605067Y-33350576D01*
X135664242Y-33493437D01*
X135750151Y-33622008D01*
X135859492Y-33731349D01*
X135988063Y-33817258D01*
X136130924Y-33876433D01*
X136282584Y-33906600D01*
X136437216Y-33906600D01*
X136588876Y-33876433D01*
X136731737Y-33817258D01*
X136860308Y-33731349D01*
X136969649Y-33622008D01*
X137055558Y-33493437D01*
X137114733Y-33350576D01*
X137144900Y-33198916D01*
X137144900Y-33044284D01*
X137141395Y-33026660D01*
X138064900Y-33026660D01*
X138064900Y-33191140D01*
X138096989Y-33352460D01*
X138159933Y-33504421D01*
X138251313Y-33641181D01*
X138367619Y-33757487D01*
X138504379Y-33848867D01*
X138656340Y-33911811D01*
X138817660Y-33943900D01*
X138982140Y-33943900D01*
X139143460Y-33911811D01*
X139295421Y-33848867D01*
X139432181Y-33757487D01*
X139548487Y-33641181D01*
X139639867Y-33504421D01*
X139702811Y-33352460D01*
X139734900Y-33191140D01*
X139734900Y-33026660D01*
X139728868Y-32996335D01*
X140554900Y-32996335D01*
X140554900Y-33170665D01*
X140588910Y-33341645D01*
X140655623Y-33502705D01*
X140752476Y-33647655D01*
X140875745Y-33770924D01*
X141020695Y-33867777D01*
X141181755Y-33934490D01*
X141352735Y-33968500D01*
X141527065Y-33968500D01*
X141698045Y-33934490D01*
X141859105Y-33867777D01*
X142004055Y-33770924D01*
X142127324Y-33647655D01*
X142224177Y-33502705D01*
X142290890Y-33341645D01*
X142324900Y-33170665D01*
X142324900Y-33017199D01*
X142894500Y-33017199D01*
X142894500Y-33226001D01*
X142935235Y-33430791D01*
X143015140Y-33623698D01*
X143131144Y-33797311D01*
X143278789Y-33944956D01*
X143452402Y-34060960D01*
X143645309Y-34140865D01*
X143850099Y-34181600D01*
X144058901Y-34181600D01*
X144263691Y-34140865D01*
X144456598Y-34060960D01*
X144630211Y-33944956D01*
X144777856Y-33797311D01*
X144893860Y-33623698D01*
X144973765Y-33430791D01*
X145014500Y-33226001D01*
X145014500Y-33017199D01*
X145011974Y-33004499D01*
X145434500Y-33004499D01*
X145434500Y-33213301D01*
X145475235Y-33418091D01*
X145555140Y-33610998D01*
X145671144Y-33784611D01*
X145818789Y-33932256D01*
X145992402Y-34048260D01*
X146185309Y-34128165D01*
X146390099Y-34168900D01*
X146598901Y-34168900D01*
X146803691Y-34128165D01*
X146996598Y-34048260D01*
X147170211Y-33932256D01*
X147317856Y-33784611D01*
X147433860Y-33610998D01*
X147513765Y-33418091D01*
X147554500Y-33213301D01*
X147554500Y-33004499D01*
X147513765Y-32799709D01*
X147433860Y-32606802D01*
X147317856Y-32433189D01*
X147170211Y-32285544D01*
X146996598Y-32169540D01*
X146803691Y-32089635D01*
X146598901Y-32048900D01*
X146390099Y-32048900D01*
X146185309Y-32089635D01*
X145992402Y-32169540D01*
X145818789Y-32285544D01*
X145671144Y-32433189D01*
X145555140Y-32606802D01*
X145475235Y-32799709D01*
X145434500Y-33004499D01*
X145011974Y-33004499D01*
X144973765Y-32812409D01*
X144893860Y-32619502D01*
X144777856Y-32445889D01*
X144630211Y-32298244D01*
X144456598Y-32182240D01*
X144263691Y-32102335D01*
X144058901Y-32061600D01*
X143850099Y-32061600D01*
X143645309Y-32102335D01*
X143452402Y-32182240D01*
X143278789Y-32298244D01*
X143131144Y-32445889D01*
X143015140Y-32619502D01*
X142935235Y-32812409D01*
X142894500Y-33017199D01*
X142324900Y-33017199D01*
X142324900Y-32996335D01*
X142290890Y-32825355D01*
X142224177Y-32664295D01*
X142127324Y-32519345D01*
X142004055Y-32396076D01*
X141859105Y-32299223D01*
X141698045Y-32232510D01*
X141527065Y-32198500D01*
X141352735Y-32198500D01*
X141181755Y-32232510D01*
X141020695Y-32299223D01*
X140875745Y-32396076D01*
X140752476Y-32519345D01*
X140655623Y-32664295D01*
X140588910Y-32825355D01*
X140554900Y-32996335D01*
X139728868Y-32996335D01*
X139702811Y-32865340D01*
X139639867Y-32713379D01*
X139548487Y-32576619D01*
X139432181Y-32460313D01*
X139295421Y-32368933D01*
X139143460Y-32305989D01*
X138982140Y-32273900D01*
X138817660Y-32273900D01*
X138656340Y-32305989D01*
X138504379Y-32368933D01*
X138367619Y-32460313D01*
X138251313Y-32576619D01*
X138159933Y-32713379D01*
X138096989Y-32865340D01*
X138064900Y-33026660D01*
X137141395Y-33026660D01*
X137114733Y-32892624D01*
X137055558Y-32749763D01*
X136969649Y-32621192D01*
X136860308Y-32511851D01*
X136731737Y-32425942D01*
X136588876Y-32366767D01*
X136437216Y-32336600D01*
X136282584Y-32336600D01*
X136130924Y-32366767D01*
X135988063Y-32425942D01*
X135859492Y-32511851D01*
X135750151Y-32621192D01*
X135664242Y-32749763D01*
X135605067Y-32892624D01*
X135574900Y-33044284D01*
X134579411Y-33044284D01*
X134550693Y-32899916D01*
X134493403Y-32761605D01*
X134410230Y-32637128D01*
X134304372Y-32531270D01*
X134179895Y-32448097D01*
X134041584Y-32390807D01*
X133894753Y-32361600D01*
X133745047Y-32361600D01*
X133598216Y-32390807D01*
X133459905Y-32448097D01*
X133335428Y-32531270D01*
X133229570Y-32637128D01*
X133146397Y-32761605D01*
X133089107Y-32899916D01*
X133059900Y-33046747D01*
X132314500Y-33046747D01*
X132314500Y-33017199D01*
X132273765Y-32812409D01*
X132193860Y-32619502D01*
X132077856Y-32445889D01*
X131930211Y-32298244D01*
X131756598Y-32182240D01*
X131563691Y-32102335D01*
X131358901Y-32061600D01*
X131150099Y-32061600D01*
X130945309Y-32102335D01*
X130752402Y-32182240D01*
X130578789Y-32298244D01*
X130431144Y-32445889D01*
X130315140Y-32619502D01*
X130235235Y-32812409D01*
X130194500Y-33017199D01*
X129774500Y-33017199D01*
X129733765Y-32812409D01*
X129653860Y-32619502D01*
X129537856Y-32445889D01*
X129390211Y-32298244D01*
X129216598Y-32182240D01*
X129023691Y-32102335D01*
X128818901Y-32061600D01*
X128610099Y-32061600D01*
X128405309Y-32102335D01*
X128212402Y-32182240D01*
X128038789Y-32298244D01*
X127891144Y-32445889D01*
X127775140Y-32619502D01*
X127695235Y-32812409D01*
X127654500Y-33017199D01*
X125412100Y-33017199D01*
X125412100Y-30487787D01*
X128905000Y-30487787D01*
X128905000Y-30675413D01*
X128941604Y-30859434D01*
X129013405Y-31032778D01*
X129117645Y-31188784D01*
X129250316Y-31321455D01*
X129406322Y-31425695D01*
X129579666Y-31497496D01*
X129763687Y-31534100D01*
X129951313Y-31534100D01*
X130135334Y-31497496D01*
X130308678Y-31425695D01*
X130464684Y-31321455D01*
X130597355Y-31188784D01*
X130701595Y-31032778D01*
X130773396Y-30859434D01*
X130810000Y-30675413D01*
X130810000Y-30487787D01*
X133985000Y-30487787D01*
X133985000Y-30675413D01*
X134021604Y-30859434D01*
X134093405Y-31032778D01*
X134197645Y-31188784D01*
X134330316Y-31321455D01*
X134486322Y-31425695D01*
X134659666Y-31497496D01*
X134843687Y-31534100D01*
X135031313Y-31534100D01*
X135215334Y-31497496D01*
X135388678Y-31425695D01*
X135544684Y-31321455D01*
X135677355Y-31188784D01*
X135781595Y-31032778D01*
X135853396Y-30859434D01*
X135890000Y-30675413D01*
X135890000Y-30487787D01*
X139065000Y-30487787D01*
X139065000Y-30675413D01*
X139101604Y-30859434D01*
X139173405Y-31032778D01*
X139277645Y-31188784D01*
X139410316Y-31321455D01*
X139566322Y-31425695D01*
X139739666Y-31497496D01*
X139923687Y-31534100D01*
X140111313Y-31534100D01*
X140295334Y-31497496D01*
X140468678Y-31425695D01*
X140624684Y-31321455D01*
X140757355Y-31188784D01*
X140861595Y-31032778D01*
X140933396Y-30859434D01*
X140970000Y-30675413D01*
X140970000Y-30487787D01*
X144145000Y-30487787D01*
X144145000Y-30675413D01*
X144181604Y-30859434D01*
X144253405Y-31032778D01*
X144357645Y-31188784D01*
X144490316Y-31321455D01*
X144646322Y-31425695D01*
X144819666Y-31497496D01*
X145003687Y-31534100D01*
X145191313Y-31534100D01*
X145375334Y-31497496D01*
X145548678Y-31425695D01*
X145704684Y-31321455D01*
X145837355Y-31188784D01*
X145941595Y-31032778D01*
X146013396Y-30859434D01*
X146050000Y-30675413D01*
X146050000Y-30487787D01*
X146013396Y-30303766D01*
X145941595Y-30130422D01*
X145837355Y-29974416D01*
X145704684Y-29841745D01*
X145548678Y-29737505D01*
X145375334Y-29665704D01*
X145191313Y-29629100D01*
X145003687Y-29629100D01*
X144819666Y-29665704D01*
X144646322Y-29737505D01*
X144490316Y-29841745D01*
X144357645Y-29974416D01*
X144253405Y-30130422D01*
X144181604Y-30303766D01*
X144145000Y-30487787D01*
X140970000Y-30487787D01*
X140933396Y-30303766D01*
X140861595Y-30130422D01*
X140757355Y-29974416D01*
X140624684Y-29841745D01*
X140468678Y-29737505D01*
X140295334Y-29665704D01*
X140111313Y-29629100D01*
X139923687Y-29629100D01*
X139739666Y-29665704D01*
X139566322Y-29737505D01*
X139410316Y-29841745D01*
X139277645Y-29974416D01*
X139173405Y-30130422D01*
X139101604Y-30303766D01*
X139065000Y-30487787D01*
X135890000Y-30487787D01*
X135853396Y-30303766D01*
X135781595Y-30130422D01*
X135677355Y-29974416D01*
X135544684Y-29841745D01*
X135388678Y-29737505D01*
X135215334Y-29665704D01*
X135031313Y-29629100D01*
X134843687Y-29629100D01*
X134659666Y-29665704D01*
X134486322Y-29737505D01*
X134330316Y-29841745D01*
X134197645Y-29974416D01*
X134093405Y-30130422D01*
X134021604Y-30303766D01*
X133985000Y-30487787D01*
X130810000Y-30487787D01*
X130773396Y-30303766D01*
X130701595Y-30130422D01*
X130597355Y-29974416D01*
X130464684Y-29841745D01*
X130308678Y-29737505D01*
X130135334Y-29665704D01*
X129951313Y-29629100D01*
X129763687Y-29629100D01*
X129579666Y-29665704D01*
X129406322Y-29737505D01*
X129250316Y-29841745D01*
X129117645Y-29974416D01*
X129013405Y-30130422D01*
X128941604Y-30303766D01*
X128905000Y-30487787D01*
X125412100Y-30487787D01*
X125412100Y-28966010D01*
X149689796Y-28966010D01*
X149689795Y-37186000D01*
G37*
G04 #@! TD.AperFunction*
M02*
