G04 #@! TF.GenerationSoftware,KiCad,Pcbnew,(5.1.12)-1*
G04 #@! TF.CreationDate,2022-03-26T22:19:29+08:00*
G04 #@! TF.ProjectId,Nozzle,4e6f7a7a-6c65-42e6-9b69-6361645f7063,0.5*
G04 #@! TF.SameCoordinates,Original*
G04 #@! TF.FileFunction,Legend,Bot*
G04 #@! TF.FilePolarity,Positive*
%FSLAX46Y46*%
G04 Gerber Fmt 4.6, Leading zero omitted, Abs format (unit mm)*
G04 Created by KiCad (PCBNEW (5.1.12)-1) date 2022-03-26 22:19:29*
%MOMM*%
%LPD*%
G01*
G04 APERTURE LIST*
%ADD10C,0.120000*%
G04 APERTURE END LIST*
D10*
X135235866Y-33206500D02*
X135202533Y-33239833D01*
X135235866Y-33273166D01*
X135269200Y-33239833D01*
X135235866Y-33206500D01*
X135235866Y-33273166D01*
X134935866Y-32639833D02*
X134902533Y-32606500D01*
X134835866Y-32573166D01*
X134669200Y-32573166D01*
X134602533Y-32606500D01*
X134569200Y-32639833D01*
X134535866Y-32706500D01*
X134535866Y-32773166D01*
X134569200Y-32873166D01*
X134969200Y-33273166D01*
X134535866Y-33273166D01*
X133902533Y-32573166D02*
X134235866Y-32573166D01*
X134269200Y-32906500D01*
X134235866Y-32873166D01*
X134169200Y-32839833D01*
X134002533Y-32839833D01*
X133935866Y-32873166D01*
X133902533Y-32906500D01*
X133869200Y-32973166D01*
X133869200Y-33139833D01*
X133902533Y-33206500D01*
X133935866Y-33239833D01*
X134002533Y-33273166D01*
X134169200Y-33273166D01*
X134235866Y-33239833D01*
X134269200Y-33206500D01*
X138458533Y-33295400D02*
X138425200Y-33328733D01*
X138458533Y-33362066D01*
X138491866Y-33328733D01*
X138458533Y-33295400D01*
X138458533Y-33362066D01*
X138191866Y-32662066D02*
X137758533Y-32662066D01*
X137991866Y-32928733D01*
X137891866Y-32928733D01*
X137825200Y-32962066D01*
X137791866Y-32995400D01*
X137758533Y-33062066D01*
X137758533Y-33228733D01*
X137791866Y-33295400D01*
X137825200Y-33328733D01*
X137891866Y-33362066D01*
X138091866Y-33362066D01*
X138158533Y-33328733D01*
X138191866Y-33295400D01*
X139995233Y-33295400D02*
X139961900Y-33328733D01*
X139995233Y-33362066D01*
X140028566Y-33328733D01*
X139995233Y-33295400D01*
X139995233Y-33362066D01*
X139361900Y-32895400D02*
X139361900Y-33362066D01*
X139528566Y-32628733D02*
X139695233Y-33128733D01*
X139261900Y-33128733D01*
X143487733Y-33181100D02*
X143454400Y-33214433D01*
X143487733Y-33247766D01*
X143521066Y-33214433D01*
X143487733Y-33181100D01*
X143487733Y-33247766D01*
X142821066Y-32547766D02*
X143154400Y-32547766D01*
X143187733Y-32881100D01*
X143154400Y-32847766D01*
X143087733Y-32814433D01*
X142921066Y-32814433D01*
X142854400Y-32847766D01*
X142821066Y-32881100D01*
X142787733Y-32947766D01*
X142787733Y-33114433D01*
X142821066Y-33181100D01*
X142854400Y-33214433D01*
X142921066Y-33247766D01*
X143087733Y-33247766D01*
X143154400Y-33214433D01*
X143187733Y-33181100D01*
X147672300Y-35467100D02*
X147638966Y-35500433D01*
X147672300Y-35533766D01*
X147705633Y-35500433D01*
X147672300Y-35467100D01*
X147672300Y-35533766D01*
X147038966Y-34833766D02*
X147172300Y-34833766D01*
X147238966Y-34867100D01*
X147272300Y-34900433D01*
X147338966Y-35000433D01*
X147372300Y-35133766D01*
X147372300Y-35400433D01*
X147338966Y-35467100D01*
X147305633Y-35500433D01*
X147238966Y-35533766D01*
X147105633Y-35533766D01*
X147038966Y-35500433D01*
X147005633Y-35467100D01*
X146972300Y-35400433D01*
X146972300Y-35233766D01*
X147005633Y-35167100D01*
X147038966Y-35133766D01*
X147105633Y-35100433D01*
X147238966Y-35100433D01*
X147305633Y-35133766D01*
X147338966Y-35167100D01*
X147372300Y-35233766D01*
X146738966Y-34833766D02*
X146305633Y-34833766D01*
X146538966Y-35100433D01*
X146438966Y-35100433D01*
X146372300Y-35133766D01*
X146338966Y-35167100D01*
X146305633Y-35233766D01*
X146305633Y-35400433D01*
X146338966Y-35467100D01*
X146372300Y-35500433D01*
X146438966Y-35533766D01*
X146638966Y-35533766D01*
X146705633Y-35500433D01*
X146738966Y-35467100D01*
X145672300Y-34833766D02*
X146005633Y-34833766D01*
X146038966Y-35167100D01*
X146005633Y-35133766D01*
X145938966Y-35100433D01*
X145772300Y-35100433D01*
X145705633Y-35133766D01*
X145672300Y-35167100D01*
X145638966Y-35233766D01*
X145638966Y-35400433D01*
X145672300Y-35467100D01*
X145705633Y-35500433D01*
X145772300Y-35533766D01*
X145938966Y-35533766D01*
X146005633Y-35500433D01*
X146038966Y-35467100D01*
X132368800Y-35556000D02*
X132335466Y-35589333D01*
X132368800Y-35622666D01*
X132402133Y-35589333D01*
X132368800Y-35556000D01*
X132368800Y-35622666D01*
X131735466Y-34922666D02*
X131868800Y-34922666D01*
X131935466Y-34956000D01*
X131968800Y-34989333D01*
X132035466Y-35089333D01*
X132068800Y-35222666D01*
X132068800Y-35489333D01*
X132035466Y-35556000D01*
X132002133Y-35589333D01*
X131935466Y-35622666D01*
X131802133Y-35622666D01*
X131735466Y-35589333D01*
X131702133Y-35556000D01*
X131668800Y-35489333D01*
X131668800Y-35322666D01*
X131702133Y-35256000D01*
X131735466Y-35222666D01*
X131802133Y-35189333D01*
X131935466Y-35189333D01*
X132002133Y-35222666D01*
X132035466Y-35256000D01*
X132068800Y-35322666D01*
X131435466Y-34922666D02*
X131002133Y-34922666D01*
X131235466Y-35189333D01*
X131135466Y-35189333D01*
X131068800Y-35222666D01*
X131035466Y-35256000D01*
X131002133Y-35322666D01*
X131002133Y-35489333D01*
X131035466Y-35556000D01*
X131068800Y-35589333D01*
X131135466Y-35622666D01*
X131335466Y-35622666D01*
X131402133Y-35589333D01*
X131435466Y-35556000D01*
X130368800Y-34922666D02*
X130702133Y-34922666D01*
X130735466Y-35256000D01*
X130702133Y-35222666D01*
X130635466Y-35189333D01*
X130468800Y-35189333D01*
X130402133Y-35222666D01*
X130368800Y-35256000D01*
X130335466Y-35322666D01*
X130335466Y-35489333D01*
X130368800Y-35556000D01*
X130402133Y-35589333D01*
X130468800Y-35622666D01*
X130635466Y-35622666D01*
X130702133Y-35589333D01*
X130735466Y-35556000D01*
M02*
