%MOIN*%
%OFA0B0*%
%FSLAX44Y44*%
%IPPOS*%
%LPD*%
%ADD10C,0*%
D10*
X00014074Y00033937D02*
X00014074Y00033937D01*
X00017815Y00033937D01*
X00017845Y00033936D01*
X00017874Y00033933D01*
X00017904Y00033927D01*
X00017932Y00033919D01*
X00017960Y00033909D01*
X00017988Y00033897D01*
X00018014Y00033883D01*
X00018039Y00033867D01*
X00018063Y00033849D01*
X00018085Y00033830D01*
X00018106Y00033808D01*
X00018125Y00033786D01*
X00018143Y00033761D01*
X00018158Y00033736D01*
X00018172Y00033709D01*
X00018183Y00033682D01*
X00018193Y00033654D01*
X00018200Y00033625D01*
X00018205Y00033595D01*
X00018208Y00033566D01*
X00018218Y00033384D01*
X00018219Y00033352D01*
X00018217Y00033320D01*
X00018212Y00033288D01*
X00018205Y00033257D01*
X00018195Y00033227D01*
X00018183Y00033197D01*
X00018168Y00033169D01*
X00018151Y00033141D01*
X00018132Y00033116D01*
X00018111Y00033091D01*
X00018089Y00033069D01*
X00018064Y00033049D01*
X00018038Y00033030D01*
X00018010Y00033014D01*
X00017981Y00033000D01*
X00017951Y00032989D01*
X00017920Y00032980D01*
X00017889Y00032973D01*
X00017857Y00032969D01*
X00017825Y00032968D01*
X00016416Y00032968D01*
X00016416Y00032295D01*
X00016415Y00032275D01*
X00016414Y00032256D01*
X00016412Y00032237D01*
X00016408Y00032217D01*
X00016404Y00032198D01*
X00016399Y00032180D01*
X00016393Y00032161D01*
X00016385Y00032143D01*
X00016377Y00032125D01*
X00016369Y00032108D01*
X00016359Y00032091D01*
X00016348Y00032074D01*
X00016337Y00032059D01*
X00016325Y00032043D01*
X00016312Y00032029D01*
X00016299Y00032015D01*
X00016284Y00032001D01*
X00016270Y00031989D01*
X00016254Y00031977D01*
X00016238Y00031966D01*
X00016182Y00031929D01*
X00016146Y00031908D01*
X00016107Y00031891D01*
X00016067Y00031878D01*
X00016025Y00031869D01*
X00015983Y00031865D01*
X00015941Y00031865D01*
X00015899Y00031871D01*
X00015858Y00031880D01*
X00015818Y00031894D01*
X00015779Y00031912D01*
X00015743Y00031934D01*
X00015710Y00031960D01*
X00015679Y00031989D01*
X00015652Y00032022D01*
X00015628Y00032057D01*
X00015609Y00032094D01*
X00015593Y00032134D01*
X00015582Y00032174D01*
X00015575Y00032216D01*
X00015573Y00032258D01*
X00015573Y00032969D01*
X00014064Y00032969D01*
X00014032Y00032970D01*
X00014000Y00032974D01*
X00013969Y00032980D01*
X00013938Y00032989D01*
X00013908Y00033001D01*
X00013879Y00033015D01*
X00013852Y00033031D01*
X00013825Y00033049D01*
X00013801Y00033069D01*
X00013778Y00033092D01*
X00013757Y00033116D01*
X00013738Y00033142D01*
X00013721Y00033169D01*
X00013706Y00033197D01*
X00013694Y00033227D01*
X00013684Y00033257D01*
X00013677Y00033289D01*
X00013672Y00033320D01*
X00013670Y00033352D01*
X00013671Y00033384D01*
X00013681Y00033565D01*
X00013684Y00033595D01*
X00013689Y00033624D01*
X00013696Y00033653D01*
X00013705Y00033682D01*
X00013717Y00033709D01*
X00013730Y00033736D01*
X00013746Y00033761D01*
X00013763Y00033785D01*
X00013782Y00033808D01*
X00013803Y00033829D01*
X00013826Y00033849D01*
X00013850Y00033867D01*
X00013875Y00033883D01*
X00013901Y00033897D01*
X00013928Y00033909D01*
X00013956Y00033919D01*
X00013985Y00033927D01*
X00014014Y00033933D01*
X00014044Y00033936D01*
X00014074Y00033937D01*
X00015589Y00027598D02*
X00015589Y00027598D01*
X00015579Y00027721D01*
X00015551Y00027841D01*
X00015503Y00027955D01*
X00015439Y00028061D01*
X00015359Y00028155D01*
X00015265Y00028235D01*
X00015159Y00028300D01*
X00015045Y00028347D01*
X00014925Y00028376D01*
X00014802Y00028385D01*
X00011070Y00028385D01*
X00011039Y00028387D01*
X00011008Y00028390D01*
X00010978Y00028396D01*
X00010948Y00028405D01*
X00010919Y00028415D01*
X00010891Y00028428D01*
X00010864Y00028443D01*
X00010838Y00028461D01*
X00010814Y00028480D01*
X00010791Y00028501D01*
X00010770Y00028523D01*
X00010751Y00028548D01*
X00010734Y00028573D01*
X00010719Y00028600D01*
X00010706Y00028628D01*
X00010695Y00028657D01*
X00010687Y00028687D01*
X00010681Y00028717D01*
X00010677Y00028748D01*
X00010676Y00028779D01*
X00010676Y00028819D01*
X00010677Y00028850D01*
X00010681Y00028881D01*
X00010687Y00028911D01*
X00010695Y00028941D01*
X00010706Y00028970D01*
X00010719Y00028998D01*
X00010734Y00029025D01*
X00010751Y00029050D01*
X00010770Y00029075D01*
X00010791Y00029097D01*
X00010814Y00029118D01*
X00010838Y00029138D01*
X00010864Y00029155D01*
X00010891Y00029170D01*
X00010919Y00029183D01*
X00010948Y00029193D01*
X00010978Y00029202D01*
X00011008Y00029208D01*
X00011039Y00029211D01*
X00011070Y00029213D01*
X00015573Y00029213D01*
X00015573Y00029923D01*
X00015575Y00029965D01*
X00015582Y00030007D01*
X00015593Y00030048D01*
X00015609Y00030087D01*
X00015628Y00030125D01*
X00015652Y00030160D01*
X00015679Y00030192D01*
X00015710Y00030221D01*
X00015743Y00030247D01*
X00015779Y00030269D01*
X00015818Y00030287D01*
X00015858Y00030301D01*
X00015899Y00030311D01*
X00015941Y00030316D01*
X00015983Y00030316D01*
X00016025Y00030312D01*
X00016067Y00030304D01*
X00016107Y00030291D01*
X00016146Y00030273D01*
X00016182Y00030252D01*
X00016238Y00030216D01*
X00016254Y00030205D01*
X00016270Y00030193D01*
X00016284Y00030180D01*
X00016299Y00030167D01*
X00016312Y00030153D01*
X00016325Y00030138D01*
X00016337Y00030123D01*
X00016348Y00030107D01*
X00016359Y00030090D01*
X00016369Y00030073D01*
X00016377Y00030056D01*
X00016385Y00030038D01*
X00016393Y00030020D01*
X00016399Y00030002D01*
X00016404Y00029983D01*
X00016408Y00029964D01*
X00016412Y00029945D01*
X00016414Y00029925D01*
X00016415Y00029906D01*
X00016416Y00029886D01*
X00016416Y00029212D01*
X00021001Y00029212D01*
X00021032Y00029211D01*
X00021062Y00029207D01*
X00021093Y00029201D01*
X00021122Y00029193D01*
X00021151Y00029182D01*
X00021179Y00029169D01*
X00021206Y00029154D01*
X00021232Y00029137D01*
X00021256Y00029118D01*
X00021279Y00029098D01*
X00021300Y00029075D01*
X00021319Y00029051D01*
X00021336Y00029025D01*
X00021351Y00028998D01*
X00021364Y00028970D01*
X00021375Y00028942D01*
X00021383Y00028912D01*
X00021390Y00028882D01*
X00021393Y00028851D01*
X00021395Y00028820D01*
X00021395Y00028781D01*
X00021394Y00028750D01*
X00021390Y00028719D01*
X00021384Y00028689D01*
X00021376Y00028659D01*
X00021366Y00028630D01*
X00021353Y00028602D01*
X00021338Y00028574D01*
X00021320Y00028549D01*
X00021301Y00028524D01*
X00021280Y00028501D01*
X00021258Y00028480D01*
X00021233Y00028461D01*
X00021208Y00028444D01*
X00021180Y00028429D01*
X00021152Y00028416D01*
X00021123Y00028405D01*
X00021093Y00028396D01*
X00021063Y00028390D01*
X00021032Y00028387D01*
X00021001Y00028385D01*
X00017203Y00028385D01*
X00017080Y00028376D01*
X00016960Y00028347D01*
X00016846Y00028300D01*
X00016740Y00028235D01*
X00016647Y00028155D01*
X00016566Y00028061D01*
X00016502Y00027955D01*
X00016454Y00027841D01*
X00016426Y00027721D01*
X00016416Y00027598D01*
X00016416Y00022686D01*
X00016415Y00022655D01*
X00016411Y00022624D01*
X00016405Y00022594D01*
X00016397Y00022564D01*
X00016386Y00022535D01*
X00016373Y00022507D01*
X00016358Y00022480D01*
X00016341Y00022454D01*
X00016322Y00022430D01*
X00016301Y00022407D01*
X00016278Y00022386D01*
X00016254Y00022367D01*
X00016228Y00022350D01*
X00016201Y00022335D01*
X00016173Y00022322D01*
X00016144Y00022311D01*
X00016114Y00022303D01*
X00016084Y00022297D01*
X00016053Y00022293D01*
X00016022Y00022292D01*
X00015983Y00022292D01*
X00015952Y00022293D01*
X00015921Y00022297D01*
X00015891Y00022303D01*
X00015861Y00022311D01*
X00015832Y00022322D01*
X00015804Y00022335D01*
X00015777Y00022350D01*
X00015751Y00022367D01*
X00015727Y00022386D01*
X00015704Y00022407D01*
X00015683Y00022430D01*
X00015664Y00022454D01*
X00015647Y00022480D01*
X00015632Y00022507D01*
X00015619Y00022535D01*
X00015608Y00022564D01*
X00015600Y00022594D01*
X00015594Y00022624D01*
X00015590Y00022655D01*
X00015589Y00022686D01*
X00015589Y00027598D01*
X00027149Y00013779D02*
X00027149Y00013779D01*
X00021192Y00013779D01*
X00021168Y00013780D01*
X00021144Y00013782D01*
X00021121Y00013786D01*
X00021097Y00013791D01*
X00021074Y00013797D01*
X00021052Y00013805D01*
X00021030Y00013814D01*
X00021008Y00013824D01*
X00020987Y00013836D01*
X00020967Y00013849D01*
X00020948Y00013863D01*
X00020930Y00013879D01*
X00020913Y00013895D01*
X00020896Y00013913D01*
X00020881Y00013931D01*
X00020867Y00013950D01*
X00020854Y00013970D01*
X00020842Y00013991D01*
X00020832Y00014013D01*
X00020823Y00014035D01*
X00020808Y00014074D01*
X00020797Y00014110D01*
X00020789Y00014147D01*
X00020784Y00014185D01*
X00020784Y00014223D01*
X00020786Y00014261D01*
X00020793Y00014298D01*
X00020803Y00014335D01*
X00020817Y00014370D01*
X00020833Y00014404D01*
X00020854Y00014437D01*
X00020877Y00014467D01*
X00020903Y00014494D01*
X00020931Y00014519D01*
X00020962Y00014542D01*
X00020995Y00014561D01*
X00021029Y00014577D01*
X00021065Y00014589D01*
X00021102Y00014599D01*
X00021139Y00014604D01*
X00021177Y00014606D01*
X00027163Y00014606D01*
X00027200Y00014604D01*
X00027237Y00014599D01*
X00027274Y00014590D01*
X00027309Y00014578D01*
X00027343Y00014562D01*
X00027376Y00014543D01*
X00027406Y00014521D01*
X00027435Y00014497D01*
X00027461Y00014470D01*
X00027484Y00014440D01*
X00027504Y00014409D01*
X00027521Y00014375D01*
X00027535Y00014341D01*
X00027546Y00014305D01*
X00027553Y00014268D01*
X00027556Y00014230D01*
X00027556Y00014193D01*
X00027553Y00014156D01*
X00027545Y00014119D01*
X00027535Y00014083D01*
X00027521Y00014043D01*
X00027512Y00014021D01*
X00027502Y00013999D01*
X00027491Y00013977D01*
X00027478Y00013956D01*
X00027464Y00013936D01*
X00027449Y00013917D01*
X00027433Y00013899D01*
X00027415Y00013882D01*
X00027397Y00013867D01*
X00027377Y00013852D01*
X00027357Y00013838D01*
X00027336Y00013826D01*
X00027314Y00013815D01*
X00027292Y00013806D01*
X00027269Y00013798D01*
X00027246Y00013791D01*
X00027222Y00013786D01*
X00027198Y00013782D01*
X00027174Y00013780D01*
X00027149Y00013779D01*
X00015589Y00012992D02*
X00015589Y00012992D01*
X00015579Y00013115D01*
X00015551Y00013235D01*
X00015503Y00013349D01*
X00015439Y00013454D01*
X00015359Y00013548D01*
X00015265Y00013629D01*
X00015159Y00013693D01*
X00015045Y00013740D01*
X00014925Y00013769D01*
X00014802Y00013779D01*
X00012614Y00013779D01*
X00012589Y00013780D01*
X00012565Y00013782D01*
X00012541Y00013786D01*
X00012517Y00013791D01*
X00012494Y00013798D01*
X00012471Y00013806D01*
X00012448Y00013815D01*
X00012427Y00013826D01*
X00012406Y00013838D01*
X00012385Y00013852D01*
X00012366Y00013867D01*
X00012348Y00013882D01*
X00012330Y00013899D01*
X00012314Y00013917D01*
X00012299Y00013936D01*
X00012285Y00013956D01*
X00012272Y00013977D01*
X00012260Y00013999D01*
X00012250Y00014021D01*
X00012242Y00014043D01*
X00012228Y00014083D01*
X00012217Y00014119D01*
X00012210Y00014156D01*
X00012207Y00014193D01*
X00012207Y00014230D01*
X00012210Y00014268D01*
X00012217Y00014305D01*
X00012228Y00014341D01*
X00012242Y00014375D01*
X00012259Y00014409D01*
X00012279Y00014440D01*
X00012302Y00014470D01*
X00012328Y00014497D01*
X00012356Y00014521D01*
X00012387Y00014543D01*
X00012419Y00014562D01*
X00012453Y00014578D01*
X00012489Y00014590D01*
X00012525Y00014599D01*
X00012562Y00014604D01*
X00012600Y00014606D01*
X00014802Y00014606D01*
X00014925Y00014616D01*
X00015045Y00014644D01*
X00015159Y00014692D01*
X00015265Y00014756D01*
X00015359Y00014836D01*
X00015439Y00014930D01*
X00015503Y00015036D01*
X00015551Y00015150D01*
X00015579Y00015270D01*
X00015589Y00015393D01*
X00015589Y00020305D01*
X00015590Y00020336D01*
X00015594Y00020367D01*
X00015600Y00020397D01*
X00015608Y00020427D01*
X00015619Y00020456D01*
X00015632Y00020484D01*
X00015647Y00020511D01*
X00015664Y00020537D01*
X00015683Y00020561D01*
X00015704Y00020584D01*
X00015727Y00020605D01*
X00015751Y00020624D01*
X00015777Y00020641D01*
X00015804Y00020656D01*
X00015832Y00020669D01*
X00015861Y00020680D01*
X00015891Y00020688D01*
X00015921Y00020694D01*
X00015952Y00020698D01*
X00015983Y00020699D01*
X00016022Y00020699D01*
X00016053Y00020698D01*
X00016084Y00020694D01*
X00016114Y00020688D01*
X00016144Y00020680D01*
X00016173Y00020669D01*
X00016201Y00020656D01*
X00016228Y00020641D01*
X00016254Y00020624D01*
X00016278Y00020605D01*
X00016301Y00020584D01*
X00016322Y00020561D01*
X00016341Y00020537D01*
X00016358Y00020511D01*
X00016373Y00020484D01*
X00016386Y00020456D01*
X00016397Y00020427D01*
X00016405Y00020397D01*
X00016411Y00020367D01*
X00016415Y00020336D01*
X00016416Y00020305D01*
X00016416Y00015393D01*
X00016426Y00015270D01*
X00016454Y00015150D01*
X00016502Y00015036D01*
X00016566Y00014930D01*
X00016647Y00014836D01*
X00016740Y00014756D01*
X00016846Y00014692D01*
X00016960Y00014644D01*
X00017080Y00014616D01*
X00017203Y00014606D01*
X00018979Y00014606D01*
X00019017Y00014604D01*
X00019055Y00014599D01*
X00019092Y00014589D01*
X00019128Y00014577D01*
X00019162Y00014561D01*
X00019195Y00014542D01*
X00019225Y00014519D01*
X00019254Y00014494D01*
X00019280Y00014467D01*
X00019303Y00014437D01*
X00019323Y00014404D01*
X00019340Y00014370D01*
X00019353Y00014335D01*
X00019364Y00014298D01*
X00019370Y00014261D01*
X00019373Y00014223D01*
X00019372Y00014185D01*
X00019368Y00014147D01*
X00019360Y00014110D01*
X00019348Y00014074D01*
X00019333Y00014035D01*
X00019324Y00014013D01*
X00019314Y00013991D01*
X00019302Y00013970D01*
X00019290Y00013950D01*
X00019275Y00013931D01*
X00019260Y00013913D01*
X00019244Y00013895D01*
X00019227Y00013879D01*
X00019208Y00013863D01*
X00019189Y00013849D01*
X00019169Y00013836D01*
X00019148Y00013824D01*
X00019127Y00013814D01*
X00019105Y00013805D01*
X00019082Y00013797D01*
X00019059Y00013791D01*
X00019036Y00013786D01*
X00019012Y00013782D01*
X00018989Y00013780D01*
X00018965Y00013779D01*
X00017203Y00013779D01*
X00017080Y00013769D01*
X00016960Y00013740D01*
X00016846Y00013693D01*
X00016740Y00013629D01*
X00016647Y00013548D01*
X00016566Y00013454D01*
X00016502Y00013349D01*
X00016454Y00013235D01*
X00016426Y00013115D01*
X00016416Y00012992D01*
X00016416Y00008079D01*
X00016415Y00008048D01*
X00016411Y00008018D01*
X00016405Y00007987D01*
X00016397Y00007958D01*
X00016386Y00007929D01*
X00016373Y00007901D01*
X00016358Y00007874D01*
X00016341Y00007848D01*
X00016322Y00007824D01*
X00016301Y00007801D01*
X00016278Y00007780D01*
X00016254Y00007761D01*
X00016228Y00007744D01*
X00016201Y00007729D01*
X00016173Y00007716D01*
X00016144Y00007705D01*
X00016114Y00007697D01*
X00016084Y00007691D01*
X00016053Y00007687D01*
X00016022Y00007686D01*
X00015983Y00007686D01*
X00015952Y00007687D01*
X00015921Y00007691D01*
X00015891Y00007697D01*
X00015861Y00007705D01*
X00015832Y00007716D01*
X00015804Y00007729D01*
X00015777Y00007744D01*
X00015751Y00007761D01*
X00015727Y00007780D01*
X00015704Y00007801D01*
X00015683Y00007824D01*
X00015664Y00007848D01*
X00015647Y00007874D01*
X00015632Y00007901D01*
X00015619Y00007929D01*
X00015608Y00007958D01*
X00015600Y00007987D01*
X00015594Y00008018D01*
X00015590Y00008048D01*
X00015589Y00008079D01*
X00015589Y00012992D01*
X00002360Y00014606D02*
X00002360Y00014606D01*
X00002397Y00014604D01*
X00002434Y00014599D01*
X00002471Y00014590D01*
X00002506Y00014578D01*
X00002540Y00014562D01*
X00002573Y00014543D01*
X00002603Y00014521D01*
X00002632Y00014497D01*
X00002657Y00014470D01*
X00002681Y00014440D01*
X00002701Y00014409D01*
X00002718Y00014375D01*
X00002732Y00014341D01*
X00002742Y00014305D01*
X00002749Y00014268D01*
X00002753Y00014230D01*
X00002753Y00014193D01*
X00002749Y00014156D01*
X00002742Y00014119D01*
X00002732Y00014083D01*
X00002718Y00014043D01*
X00002709Y00014021D01*
X00002699Y00013999D01*
X00002688Y00013977D01*
X00002675Y00013956D01*
X00002661Y00013936D01*
X00002646Y00013917D01*
X00002629Y00013899D01*
X00002612Y00013882D01*
X00002594Y00013867D01*
X00002574Y00013852D01*
X00002554Y00013838D01*
X00002533Y00013826D01*
X00002511Y00013815D01*
X00002489Y00013806D01*
X00002466Y00013798D01*
X00002442Y00013791D01*
X00002419Y00013786D01*
X00002395Y00013782D01*
X00002370Y00013780D01*
X00002346Y00013779D01*
X00000787Y00013779D01*
X00000664Y00013769D01*
X00000544Y00013740D01*
X00000429Y00013693D01*
X00000324Y00013629D01*
X00000230Y00013548D01*
X00000150Y00013454D01*
X00000085Y00013349D01*
X00000038Y00013235D01*
X00000009Y00013115D01*
X00000000Y00012992D01*
X00000000Y00000787D01*
X00000009Y00000664D01*
X00000038Y00000544D01*
X00000085Y00000429D01*
X00000150Y00000324D01*
X00000230Y00000230D01*
X00000324Y00000150D01*
X00000429Y00000085D01*
X00000544Y00000038D01*
X00000664Y00000009D01*
X00000787Y00000000D01*
X00014802Y00000000D01*
X00014925Y00000009D01*
X00015045Y00000038D01*
X00015159Y00000085D01*
X00015265Y00000150D01*
X00015359Y00000230D01*
X00015439Y00000324D01*
X00015503Y00000429D01*
X00015551Y00000544D01*
X00015579Y00000664D01*
X00015589Y00000787D01*
X00015589Y00005699D01*
X00015590Y00005730D01*
X00015594Y00005761D01*
X00015600Y00005791D01*
X00015608Y00005821D01*
X00015619Y00005850D01*
X00015632Y00005878D01*
X00015647Y00005905D01*
X00015664Y00005931D01*
X00015683Y00005955D01*
X00015704Y00005978D01*
X00015727Y00005999D01*
X00015751Y00006018D01*
X00015777Y00006035D01*
X00015804Y00006050D01*
X00015832Y00006063D01*
X00015861Y00006074D01*
X00015891Y00006082D01*
X00015921Y00006088D01*
X00015952Y00006092D01*
X00015983Y00006093D01*
X00016022Y00006093D01*
X00016053Y00006092D01*
X00016084Y00006088D01*
X00016114Y00006082D01*
X00016144Y00006074D01*
X00016173Y00006063D01*
X00016201Y00006050D01*
X00016228Y00006035D01*
X00016254Y00006018D01*
X00016278Y00005999D01*
X00016301Y00005978D01*
X00016322Y00005955D01*
X00016341Y00005931D01*
X00016358Y00005905D01*
X00016373Y00005878D01*
X00016386Y00005850D01*
X00016397Y00005821D01*
X00016405Y00005791D01*
X00016411Y00005761D01*
X00016415Y00005730D01*
X00016416Y00005699D01*
X00016416Y00000787D01*
X00016426Y00000664D01*
X00016454Y00000544D01*
X00016502Y00000429D01*
X00016566Y00000324D01*
X00016647Y00000230D01*
X00016740Y00000150D01*
X00016846Y00000085D01*
X00016960Y00000038D01*
X00017080Y00000009D01*
X00017203Y00000000D01*
X00031218Y00000000D01*
X00031341Y00000009D01*
X00031461Y00000038D01*
X00031576Y00000085D01*
X00031681Y00000150D01*
X00031775Y00000230D01*
X00031855Y00000324D01*
X00031920Y00000429D01*
X00031967Y00000544D01*
X00031996Y00000664D01*
X00032006Y00000787D01*
X00032006Y00012992D01*
X00031996Y00013115D01*
X00031967Y00013235D01*
X00031920Y00013349D01*
X00031855Y00013454D01*
X00031775Y00013548D01*
X00031681Y00013629D01*
X00031576Y00013693D01*
X00031461Y00013740D01*
X00031341Y00013769D01*
X00031218Y00013779D01*
X00029543Y00013779D01*
X00029518Y00013780D01*
X00029494Y00013782D01*
X00029470Y00013786D01*
X00029446Y00013791D01*
X00029423Y00013798D01*
X00029400Y00013806D01*
X00029378Y00013815D01*
X00029356Y00013826D01*
X00029335Y00013838D01*
X00029315Y00013852D01*
X00029295Y00013867D01*
X00029277Y00013882D01*
X00029259Y00013899D01*
X00029243Y00013917D01*
X00029228Y00013936D01*
X00029214Y00013956D01*
X00029201Y00013977D01*
X00029190Y00013999D01*
X00029180Y00014021D01*
X00029171Y00014043D01*
X00029157Y00014083D01*
X00029147Y00014119D01*
X00029139Y00014156D01*
X00029136Y00014193D01*
X00029136Y00014230D01*
X00029139Y00014268D01*
X00029146Y00014305D01*
X00029157Y00014341D01*
X00029171Y00014375D01*
X00029188Y00014409D01*
X00029208Y00014440D01*
X00029231Y00014470D01*
X00029257Y00014497D01*
X00029286Y00014521D01*
X00029316Y00014543D01*
X00029349Y00014562D01*
X00029383Y00014578D01*
X00029418Y00014590D01*
X00029454Y00014599D01*
X00029492Y00014604D01*
X00029529Y00014606D01*
X00031218Y00014606D01*
X00031341Y00014616D01*
X00031461Y00014644D01*
X00031576Y00014692D01*
X00031681Y00014756D01*
X00031775Y00014836D01*
X00031855Y00014930D01*
X00031920Y00015036D01*
X00031967Y00015150D01*
X00031996Y00015270D01*
X00032006Y00015393D01*
X00032006Y00027598D01*
X00031996Y00027721D01*
X00031967Y00027841D01*
X00031920Y00027955D01*
X00031855Y00028061D01*
X00031775Y00028155D01*
X00031681Y00028235D01*
X00031576Y00028300D01*
X00031461Y00028347D01*
X00031341Y00028376D01*
X00031218Y00028385D01*
X00023381Y00028385D01*
X00023350Y00028387D01*
X00023319Y00028390D01*
X00023289Y00028396D01*
X00023259Y00028405D01*
X00023230Y00028416D01*
X00023202Y00028429D01*
X00023175Y00028444D01*
X00023149Y00028461D01*
X00023125Y00028480D01*
X00023102Y00028501D01*
X00023081Y00028524D01*
X00023062Y00028549D01*
X00023045Y00028574D01*
X00023030Y00028602D01*
X00023017Y00028630D01*
X00023006Y00028659D01*
X00022998Y00028689D01*
X00022992Y00028719D01*
X00022989Y00028750D01*
X00022988Y00028781D01*
X00022988Y00028820D01*
X00022989Y00028851D01*
X00022993Y00028882D01*
X00022999Y00028912D01*
X00023007Y00028942D01*
X00023018Y00028970D01*
X00023031Y00028998D01*
X00023046Y00029025D01*
X00023064Y00029051D01*
X00023083Y00029075D01*
X00023104Y00029098D01*
X00023126Y00029118D01*
X00023151Y00029137D01*
X00023176Y00029154D01*
X00023203Y00029169D01*
X00023231Y00029182D01*
X00023260Y00029193D01*
X00023290Y00029201D01*
X00023320Y00029207D01*
X00023351Y00029211D01*
X00023381Y00029212D01*
X00026494Y00029212D01*
X00026494Y00032968D01*
X00019969Y00032968D01*
X00019937Y00032969D01*
X00019905Y00032973D01*
X00019874Y00032980D01*
X00019843Y00032989D01*
X00019813Y00033000D01*
X00019784Y00033014D01*
X00019757Y00033030D01*
X00019730Y00033049D01*
X00019706Y00033069D01*
X00019683Y00033091D01*
X00019662Y00033116D01*
X00019643Y00033141D01*
X00019626Y00033169D01*
X00019611Y00033197D01*
X00019599Y00033227D01*
X00019589Y00033257D01*
X00019582Y00033288D01*
X00019578Y00033320D01*
X00019575Y00033352D01*
X00019576Y00033384D01*
X00019586Y00033566D01*
X00019589Y00033595D01*
X00019594Y00033625D01*
X00019601Y00033654D01*
X00019611Y00033682D01*
X00019622Y00033709D01*
X00019636Y00033736D01*
X00019652Y00033761D01*
X00019669Y00033786D01*
X00019688Y00033808D01*
X00019709Y00033830D01*
X00019731Y00033849D01*
X00019755Y00033867D01*
X00019780Y00033883D01*
X00019807Y00033897D01*
X00019834Y00033909D01*
X00019862Y00033919D01*
X00019891Y00033927D01*
X00019920Y00033933D01*
X00019950Y00033936D01*
X00019979Y00033937D01*
X00021478Y00033937D01*
X00021478Y00037693D01*
X00011401Y00037693D01*
X00011401Y00033937D01*
X00011909Y00033937D01*
X00011939Y00033936D01*
X00011969Y00033933D01*
X00011998Y00033927D01*
X00012027Y00033919D01*
X00012055Y00033909D01*
X00012082Y00033897D01*
X00012109Y00033883D01*
X00012134Y00033867D01*
X00012158Y00033849D01*
X00012180Y00033829D01*
X00012201Y00033808D01*
X00012220Y00033785D01*
X00012237Y00033761D01*
X00012253Y00033736D01*
X00012267Y00033709D01*
X00012278Y00033682D01*
X00012287Y00033653D01*
X00012295Y00033624D01*
X00012300Y00033595D01*
X00012302Y00033565D01*
X00012313Y00033384D01*
X00012313Y00033352D01*
X00012311Y00033320D01*
X00012306Y00033289D01*
X00012299Y00033257D01*
X00012289Y00033227D01*
X00012277Y00033197D01*
X00012262Y00033169D01*
X00012246Y00033142D01*
X00012227Y00033116D01*
X00012206Y00033092D01*
X00012183Y00033069D01*
X00012158Y00033049D01*
X00012132Y00033031D01*
X00012104Y00033015D01*
X00012075Y00033001D01*
X00012045Y00032989D01*
X00012015Y00032980D01*
X00011983Y00032974D01*
X00011951Y00032970D01*
X00011919Y00032969D01*
X00005495Y00032969D01*
X00005495Y00029213D01*
X00008690Y00029213D01*
X00008721Y00029211D01*
X00008751Y00029208D01*
X00008782Y00029202D01*
X00008811Y00029193D01*
X00008840Y00029183D01*
X00008868Y00029170D01*
X00008895Y00029155D01*
X00008921Y00029138D01*
X00008945Y00029118D01*
X00008968Y00029097D01*
X00008989Y00029075D01*
X00009008Y00029050D01*
X00009025Y00029025D01*
X00009040Y00028998D01*
X00009053Y00028970D01*
X00009064Y00028941D01*
X00009072Y00028911D01*
X00009078Y00028881D01*
X00009082Y00028850D01*
X00009083Y00028819D01*
X00009083Y00028779D01*
X00009082Y00028748D01*
X00009078Y00028717D01*
X00009072Y00028687D01*
X00009064Y00028657D01*
X00009053Y00028628D01*
X00009040Y00028600D01*
X00009025Y00028573D01*
X00009008Y00028548D01*
X00008989Y00028523D01*
X00008968Y00028501D01*
X00008945Y00028480D01*
X00008921Y00028461D01*
X00008895Y00028443D01*
X00008868Y00028428D01*
X00008840Y00028415D01*
X00008811Y00028405D01*
X00008782Y00028396D01*
X00008751Y00028390D01*
X00008721Y00028387D01*
X00008690Y00028385D01*
X00000787Y00028385D01*
X00000664Y00028376D01*
X00000544Y00028347D01*
X00000429Y00028300D01*
X00000324Y00028235D01*
X00000230Y00028155D01*
X00000150Y00028061D01*
X00000085Y00027955D01*
X00000038Y00027841D01*
X00000009Y00027721D01*
X00000000Y00027598D01*
X00000000Y00015393D01*
X00000009Y00015270D01*
X00000038Y00015150D01*
X00000085Y00015036D01*
X00000150Y00014930D01*
X00000230Y00014836D01*
X00000324Y00014756D01*
X00000429Y00014692D01*
X00000544Y00014644D01*
X00000664Y00014616D01*
X00000787Y00014606D01*
X00002360Y00014606D01*
X00010234Y00014606D02*
X00010234Y00014606D01*
X00010271Y00014604D01*
X00010308Y00014599D01*
X00010345Y00014590D01*
X00010380Y00014578D01*
X00010414Y00014562D01*
X00010447Y00014543D01*
X00010477Y00014521D01*
X00010506Y00014497D01*
X00010531Y00014470D01*
X00010555Y00014440D01*
X00010575Y00014409D01*
X00010592Y00014375D01*
X00010606Y00014341D01*
X00010616Y00014305D01*
X00010624Y00014268D01*
X00010627Y00014230D01*
X00010627Y00014193D01*
X00010623Y00014156D01*
X00010616Y00014119D01*
X00010606Y00014083D01*
X00010592Y00014043D01*
X00010583Y00014021D01*
X00010573Y00013999D01*
X00010562Y00013977D01*
X00010549Y00013956D01*
X00010535Y00013936D01*
X00010520Y00013917D01*
X00010503Y00013899D01*
X00010486Y00013882D01*
X00010468Y00013867D01*
X00010448Y00013852D01*
X00010428Y00013838D01*
X00010407Y00013826D01*
X00010385Y00013815D01*
X00010363Y00013806D01*
X00010340Y00013798D01*
X00010316Y00013791D01*
X00010293Y00013786D01*
X00010269Y00013782D01*
X00010244Y00013780D01*
X00010220Y00013779D01*
X00004740Y00013779D01*
X00004715Y00013780D01*
X00004691Y00013782D01*
X00004667Y00013786D01*
X00004643Y00013791D01*
X00004620Y00013798D01*
X00004597Y00013806D01*
X00004574Y00013815D01*
X00004553Y00013826D01*
X00004532Y00013838D01*
X00004511Y00013852D01*
X00004492Y00013867D01*
X00004474Y00013882D01*
X00004456Y00013899D01*
X00004440Y00013917D01*
X00004425Y00013936D01*
X00004411Y00013956D01*
X00004398Y00013977D01*
X00004386Y00013999D01*
X00004376Y00014021D01*
X00004368Y00014043D01*
X00004354Y00014083D01*
X00004343Y00014119D01*
X00004336Y00014156D01*
X00004333Y00014193D01*
X00004333Y00014230D01*
X00004336Y00014268D01*
X00004343Y00014305D01*
X00004354Y00014341D01*
X00004368Y00014375D01*
X00004385Y00014409D01*
X00004405Y00014440D01*
X00004428Y00014470D01*
X00004454Y00014497D01*
X00004482Y00014521D01*
X00004513Y00014543D01*
X00004545Y00014562D01*
X00004579Y00014578D01*
X00004615Y00014590D01*
X00004651Y00014599D01*
X00004688Y00014604D01*
X00004726Y00014606D01*
X00010234Y00014606D01*
M02*