%
M48
METRIC,000.000
T01C1.00
T02C1.27
T03C2.20
T10C0.64
T11C0.25
T12C0.30
T13C0.40
T14C0.50
%
T01
X010259Y031243
X010259Y028703
X012799Y031243
X012799Y028703
X015339Y031243
X015339Y028703
X017879Y031243
X017879Y028703
X020419Y031243
X020419Y028703
X022959Y031243
X022959Y028703
X025499Y031243
X025499Y028703
X028039Y031243
X028039Y028703
X051956Y031243
X051956Y028703
X054496Y031243
X054496Y028703
X057036Y031243
X057036Y028703
X059576Y031243
X059576Y028703
X062116Y031243
X062116Y028703
X064656Y031243
X064656Y028703
X067196Y031243
X067196Y028703
X069736Y031243
X069736Y028703
X010259Y068343
X010259Y065803
X012799Y068343
X012799Y065803
X015339Y068343
X015339Y065803
X017879Y068343
X017879Y065803
X020419Y068343
X020419Y065803
X022959Y068343
X022959Y065803
X025499Y068343
X025499Y065803
X028039Y068343
X028039Y065803
X051956Y068343
X051956Y065803
X054496Y068343
X054496Y065803
X057036Y068343
X057036Y065803
X059576Y068343
X059576Y065803
X062116Y068343
X062116Y065803
X064656Y068343
X064656Y065803
X067196Y068343
X067196Y065803
X069736Y068343
X069736Y065803
T02
X009573Y009958
X009700Y012498
X012113Y015038
X012253Y012498
X014653Y009958
X014793Y012498
X017193Y015038
X017333Y012498
X019733Y009958
X019873Y012498
X022273Y015038
X022400Y012498
X024813Y009958
X024953Y012498
X027366Y015038
X027480Y012498
X029893Y009983
X030033Y012498
X051270Y009958
X051397Y012498
X053810Y015038
X053950Y012498
X056350Y009958
X056490Y012498
X058890Y015038
X059030Y012498
X061430Y009958
X061570Y012498
X063970Y015038
X064096Y012498
X066510Y009958
X066650Y012498
X069063Y015038
X069177Y012498
X071590Y009983
X071730Y012498
X009573Y047058
X009700Y049598
X012113Y052138
X012253Y049598
X014653Y047058
X014793Y049598
X017193Y052138
X017333Y049598
X019733Y047058
X019873Y049598
X022273Y052138
X022400Y049598
X024813Y047058
X024953Y049598
X027366Y052138
X027480Y049598
X029893Y047083
X030033Y049598
X051270Y047058
X051397Y049598
X053810Y052138
X053950Y049598
X056350Y047058
X056490Y049598
X058890Y052138
X059030Y049598
X061430Y047058
X061570Y049598
X063970Y052138
X064096Y049598
X066510Y047058
X066650Y049598
X069063Y052138
X069177Y049598
X071590Y047083
X071730Y049598
X016524Y076386
X019063Y081466
X021604Y076386
X024144Y081466
X026683Y076386
X029223Y081466
X031764Y076399
X034304Y081466
X036843Y076399
X031524Y088386
X034063Y093466
X036604Y088386
X039144Y093466
X041684Y088386
X044223Y093466
X046764Y088399
X049304Y093466
X051843Y088399
X044263Y076384
X046803Y081464
X049343Y076384
X051883Y081464
X054423Y076384
X056963Y081464
X059503Y076397
X062043Y081464
X064583Y076397
T03
X003172Y017997
X003172Y006999
X003477Y031522
X013561Y003798
X013574Y021197
X026172Y021197
X026172Y003798
X036167Y031573
X036561Y006999
X036573Y017997
X044869Y017997
X044869Y006999
X045174Y031522
X055258Y003798
X055271Y021197
X067869Y021197
X067869Y003798
X077864Y031573
X078258Y006999
X078270Y017997
X003172Y055097
X003172Y044099
X003477Y068622
X013561Y040898
X013574Y058297
X026172Y058297
X026172Y040898
X036167Y068673
X036561Y044099
X036573Y055097
X044869Y055097
X044869Y044099
X045174Y068622
X055258Y040898
X055271Y058297
X067869Y058297
X067869Y040898
X077864Y068673
X078258Y044099
X078270Y055097
T10
X017920Y078926
X020461Y078926
X033161Y078926
X035700Y078939
X032920Y090926
X035461Y090926
X048161Y090926
X050700Y090939
X045660Y078924
X048200Y078924
X060900Y078924
X063440Y078937
T11
X023026Y078926
X038026Y090926
X050765Y078924
T12
X025566Y078926
X040566Y090926
X053305Y078924
T13
X028105Y078939
X043105Y090939
X055845Y078937
T14
X030645Y078964
X045645Y090964
X058385Y078962
M30