%
M48
METRIC,000.000
T01C0.50
%
T01
X039847Y051569
X039847Y052569
X039847Y053569
X039847Y054569
X039847Y055569
X039847Y056569
X039847Y057569
X041447Y057289
X041447Y056289
X041447Y055289
X041447Y054289
X041447Y053289
X041447Y052289
X027659Y072350
X026659Y072350
X025659Y072350
X024659Y072350
X023659Y072350
X022659Y072350
X022710Y073951
X023710Y073951
X024710Y073951
X025710Y073951
X026710Y073951
X027710Y073951
X031659Y035250
X030659Y035250
X029659Y035250
X028659Y035250
X027659Y035250
X026659Y035250
X026279Y036850
X027279Y036850
X028279Y036850
X029279Y036850
X030279Y036850
X031279Y036850
X011659Y035250
X010659Y035250
X009659Y035250
X008659Y035250
X007659Y035250
X006659Y035250
X006279Y036850
X007279Y036850
X008279Y036850
X009279Y036850
X010279Y036850
X011279Y036850
X039847Y014469
X039847Y015469
X039847Y016469
X039847Y017469
X039847Y018469
X039847Y019469
X039847Y020469
X041447Y020189
X041447Y019189
X041447Y018189
X041447Y017189
X041447Y016189
X041447Y015189
X059356Y072350
X058356Y072350
X057356Y072350
X056356Y072350
X055356Y072350
X054356Y072350
X053356Y072350
X053449Y073950
X054449Y073950
X055449Y073950
X056449Y073950
X057449Y073950
X058449Y073950
X059449Y073950
X039806Y076808
X039806Y077808
X039806Y078808
X039806Y079808
X039806Y080808
X039806Y081808
X041447Y082055
X041447Y081055
X041447Y080055
X041447Y079055
X041447Y078055
X041447Y077055
X041447Y076055
X074356Y035250
X073356Y035250
X072356Y035250
X071356Y035250
X070356Y035250
X069356Y035250
X068977Y036850
X069977Y036850
X070977Y036850
X071977Y036850
X072977Y036850
X073977Y036850
X074977Y036850
X053356Y035250
X052356Y035250
X051356Y035250
X050356Y035250
X049356Y035250
X048356Y035250
X048977Y036850
X049977Y036850
X050977Y036850
X051977Y036850
X052977Y036850
X034881Y083991
X033881Y083991
X032881Y083991
X031881Y083991
X030881Y083991
X030710Y085951
X031710Y085951
X032710Y085951
X033710Y085951
X034710Y085951
X035710Y085951
X045710Y085951
X046710Y085951
X047710Y085951
X048710Y085951
X049710Y085951
X050710Y085951
X050620Y083990
X049620Y083990
X048620Y083990
X047620Y083990
X046620Y083990
X045620Y083990
M30