%
M48
METRIC,000.000
T01C0.64
T02C0.25
T03C0.30
T04C0.40
T05C0.50
T06C1.27
T10C1.00
T11C0.80
T12C2.20
%
T01
X017920Y078926
X020461Y078926
X033161Y078926
X035700Y078939
X017920Y090926
X020461Y090926
X033161Y090926
X035700Y090939
X045560Y078724
X048100Y078724
X060800Y078724
X063340Y078737
X045920Y090926
X048461Y090926
X061161Y090926
X063700Y090939
T02
X023026Y078926
X023026Y090926
X050665Y078724
X051026Y090926
T03
X025566Y078926
X025566Y090926
X053205Y078724
X053566Y090926
T04
X028105Y078939
X028105Y090939
X055745Y078737
X056105Y090939
T05
X030645Y078964
X030645Y090964
X058285Y078762
X058645Y090964
T06
X016524Y076386
X019063Y081466
X021604Y076386
X024144Y081466
X026683Y076386
X029223Y081466
X031764Y076399
X034304Y081466
X036843Y076399
X016524Y088386
X019063Y093466
X021604Y088386
X024144Y093466
X026683Y088386
X029223Y093466
X031764Y088399
X034304Y093466
X036843Y088399
X009573Y009958
X012113Y015038
X014653Y009958
X017193Y015038
X019733Y009958
X022273Y015038
X024813Y009958
X027366Y015038
X029893Y009983
X051170Y009958
X053710Y015038
X056250Y009958
X058790Y015038
X061330Y009958
X063870Y015038
X066410Y009958
X068963Y015038
X071490Y009983
X009573Y046958
X012113Y052038
X014653Y046958
X017193Y052038
X019733Y046958
X022273Y052038
X024813Y046958
X027366Y052038
X029893Y046983
X051170Y046958
X053710Y052038
X056250Y046958
X058790Y052038
X061330Y046958
X063870Y052038
X066410Y046958
X068963Y052038
X071490Y046983
X044163Y076184
X046703Y081264
X049243Y076184
X051783Y081264
X054323Y076184
X056863Y081264
X059403Y076197
X061943Y081264
X064483Y076197
X044524Y088386
X047063Y093466
X049604Y088386
X052144Y093466
X054684Y088386
X057223Y093466
X059764Y088399
X062304Y093466
X064843Y088399
T10
X010259Y031243
X010259Y028703
X012799Y031243
X012799Y028703
X015339Y031243
X015339Y028703
X017879Y031243
X017879Y028703
X020419Y031243
X020419Y028703
X022959Y031243
X022959Y028703
X025499Y031243
X025499Y028703
X028039Y031243
X028039Y028703
X014793Y012498
X017346Y012498
X019898Y012498
X022426Y012498
X024953Y012498
X027493Y012498
X030122Y012498
X051856Y031243
X051856Y028703
X054396Y031243
X054396Y028703
X056936Y031243
X056936Y028703
X059476Y031243
X059476Y028703
X062016Y031243
X062016Y028703
X064556Y031243
X064556Y028703
X067096Y031243
X067096Y028703
X069636Y031243
X069636Y028703
X056390Y012498
X058943Y012498
X061495Y012498
X064022Y012498
X066550Y012498
X069090Y012498
X071719Y012498
X010259Y068243
X010259Y065703
X012799Y068243
X012799Y065703
X015339Y068243
X015339Y065703
X017879Y068243
X017879Y065703
X020419Y068243
X020419Y065703
X022959Y068243
X022959Y065703
X025499Y068243
X025499Y065703
X028039Y068243
X028039Y065703
X014793Y049498
X017346Y049498
X019898Y049498
X022426Y049498
X024953Y049498
X027493Y049498
X030122Y049498
X051856Y068243
X051856Y065703
X054396Y068243
X054396Y065703
X056936Y068243
X056936Y065703
X059476Y068243
X059476Y065703
X062016Y068243
X062016Y065703
X064556Y068243
X064556Y065703
X067096Y068243
X067096Y065703
X069636Y068243
X069636Y065703
X056390Y049498
X058943Y049498
X061495Y049498
X064022Y049498
X066550Y049498
X069090Y049498
X071719Y049498
T11
X009700Y012498
X012253Y012498
X051297Y012498
X053850Y012498
X009700Y049498
X012253Y049498
X051297Y049498
X053850Y049498
T12
X003172Y017997
X003172Y006999
X003477Y031522
X013561Y003798
X013574Y021197
X026172Y021197
X026172Y003798
X036167Y031573
X036561Y006999
X036573Y017997
X044769Y017997
X044769Y006999
X045074Y031522
X055158Y003798
X055171Y021197
X067769Y021197
X067769Y003798
X077764Y031573
X078158Y006999
X078170Y017997
X003172Y054997
X003172Y043999
X003477Y068522
X013561Y040798
X013574Y058197
X026172Y058197
X026172Y040798
X036167Y068573
X036561Y043999
X036573Y054997
X044769Y054997
X044769Y043999
X045074Y068522
X055158Y040798
X055171Y058197
X067769Y058197
X067769Y040798
X077764Y068573
X078158Y043999
X078170Y054997
M30