%
M48
METRIC,000.000
T01C0.50
%
T01
X022659Y035250
X021659Y035250
X020659Y035250
X019659Y035250
X018659Y035250
X017659Y035250
X017279Y036750
X018279Y036750
X019279Y036750
X020279Y036750
X021279Y036750
X022279Y036750
X021503Y073904
X022503Y073904
X023503Y073904
X024503Y073904
X025503Y073904
X026503Y073904
X026659Y072250
X025659Y072250
X024659Y072250
X023659Y072250
X022659Y072250
X021659Y072250
X039847Y014469
X039847Y015469
X039847Y016469
X039847Y017469
X039847Y018469
X039847Y019469
X039847Y020469
X041347Y020189
X041347Y019189
X041347Y018189
X041347Y017189
X041347Y016189
X041347Y015189
X039599Y076761
X039599Y077761
X039599Y078761
X039599Y079761
X039599Y080761
X039599Y081761
X041347Y081855
X041347Y080855
X041347Y079855
X041347Y078855
X041347Y077855
X041347Y076855
X026675Y083943
X025675Y083943
X024675Y083943
X023675Y083943
X022675Y083943
X021675Y083943
X021503Y085904
X022503Y085904
X023503Y085904
X024503Y085904
X025503Y085904
X026503Y085904
X039599Y087761
X039599Y088761
X039599Y089761
X039599Y090761
X039599Y091761
X039599Y092761
X041347Y092395
X041347Y091395
X041347Y090395
X041347Y089395
X041347Y088395
X041347Y087395
X039847Y051469
X039847Y052469
X039847Y053469
X039847Y054469
X039847Y055469
X039847Y056469
X039847Y057469
X041347Y057189
X041347Y056189
X041347Y055189
X041347Y054189
X041347Y053189
X041347Y052189
X064256Y035250
X063256Y035250
X062256Y035250
X061256Y035250
X060256Y035250
X059256Y035250
X058877Y036750
X059877Y036750
X060877Y036750
X061877Y036750
X062877Y036750
X063877Y036750
X055256Y072250
X054256Y072250
X053256Y072250
X052256Y072250
X051256Y072250
X050256Y072250
X050349Y073750
X051349Y073750
X052349Y073750
X053349Y073750
X054349Y073750
X055349Y073750
X055520Y083790
X054520Y083790
X053520Y083790
X052520Y083790
X051520Y083790
X050520Y083790
X050349Y085290
X051349Y085290
X052349Y085290
X053349Y085290
X054349Y085290
X055349Y085290
M30