%MOIN*%
%OFA0B0*%
%FSLAX46Y46*%
%IPPOS*%
%LPD*%
%ADD10C,0.05*%
%ADD11C,0.01968503937007874*%
%ADD12C,0.015748031496062995*%
%ADD13C,0.011811023622047244*%
%ADD14C,0.00984251968503937*%
%ADD15C,0.033464566929133861*%
%ADD26C,0.05*%
%ADD27C,0.01968503937007874*%
%ADD28C,0.015748031496062995*%
%ADD29C,0.011811023622047244*%
%ADD30C,0.00984251968503937*%
%ADD31C,0.033464566929133861*%
%ADD32C,0.0039370078740157488*%
%ADD33C,0.03937007874015748*%
%ADD34C,0.031496062992125991*%
%ADD35C,0.086614173228346469*%
%ADD36O,0.066929133858267723X0.066929133858267723*%
%ADD37R,0.066929133858267723X0.066929133858267723*%
%ADD38R,0.015748031496062995X0.059055118110236227*%
%ADD39C,0.05*%
%ADD40C,0.0039370078740157488*%
%ADD41C,0.03937007874015748*%
%ADD42C,0.031496062992125991*%
%ADD43C,0.086614173228346469*%
%ADD44O,0.066929133858267723X0.066929133858267723*%
%ADD45R,0.066929133858267723X0.066929133858267723*%
%ADD46R,0.015748031496062995X0.059055118110236227*%
%ADD47C,0.05*%
%ADD48C,0.0039370078740157488*%
%ADD49C,0.03937007874015748*%
%ADD50C,0.031496062992125991*%
%ADD51C,0.086614173228346469*%
%ADD52O,0.066929133858267723X0.066929133858267723*%
%ADD53R,0.066929133858267723X0.066929133858267723*%
%ADD54R,0.015748031496062995X0.059055118110236227*%
%ADD55C,0.05*%
%ADD56C,0.0039370078740157488*%
%ADD57C,0.03937007874015748*%
%ADD58C,0.031496062992125991*%
%ADD59C,0.086614173228346469*%
%ADD60O,0.066929133858267723X0.066929133858267723*%
%ADD61R,0.066929133858267723X0.066929133858267723*%
%ADD62R,0.015748031496062995X0.059055118110236227*%
%ADD63C,0.05*%
%ADD64C,0.05*%
%ADD65C,0.01968503937007874*%
%ADD66C,0.015748031496062995*%
%ADD67C,0.011811023622047244*%
%ADD68C,0.00984251968503937*%
%ADD69C,0.033464566929133861*%
%ADD70C,0.05*%
%ADD71C,0.01968503937007874*%
%ADD72C,0.015748031496062995*%
%ADD73C,0.011811023622047244*%
%ADD74C,0.00984251968503937*%
%ADD75C,0.033464566929133861*%
G01*
D10*
X-0004409448Y0004448818D02*
X0001450551Y0003007818D03*
X0000850551Y0003007318D03*
X0001050551Y0003007318D03*
X0001250551Y0003007818D03*
X0000650551Y0003007318D03*
X0000750551Y0003207318D03*
X0000950551Y0003207318D03*
X0001350551Y0003207318D03*
X0001150551Y0003207318D03*
D11*
X0001206551Y0003108818D03*
D12*
X0001106551Y0003107818D03*
D13*
X0001006551Y0003107318D03*
D14*
X0000906551Y0003107318D03*
D15*
X0001405551Y0003107818D03*
X0000805551Y0003107318D03*
X0001305551Y0003107318D03*
X0000705551Y0003107318D03*
G04 next file*
G04 #@! TF.GenerationSoftware,KiCad,Pcbnew,(5.1.12)-1*
G04 #@! TF.CreationDate,2022-03-26T22:19:29+08:00*
G04 #@! TF.ProjectId,Nozzle,4e6f7a7a-6c65-42e6-9b69-6361645f7063,0.5*
G04 #@! TF.SameCoordinates,Original*
G04 #@! TF.FileFunction,Soldermask,Bot*
G04 #@! TF.FilePolarity,Negative*
G04 Gerber Fmt 4.6, Leading zero omitted, Abs format (unit mm)*
G04 Created by KiCad (PCBNEW (5.1.12)-1) date 2022-03-26 22:19:29*
G01*
G04 APERTURE LIST*
G04 APERTURE END LIST*
D26*
X-0004409448Y0004921259D02*
X0001450551Y0003480259D03*
X0000850551Y0003479759D03*
X0001050551Y0003479759D03*
X0001250551Y0003480259D03*
X0000650551Y0003479759D03*
X0000750551Y0003679759D03*
X0000950551Y0003679759D03*
X0001350551Y0003679759D03*
X0001150551Y0003679759D03*
D27*
X0001206551Y0003581259D03*
D28*
X0001106551Y0003580259D03*
D29*
X0001006551Y0003579759D03*
D30*
X0000906551Y0003579759D03*
D31*
X0001405551Y0003580259D03*
X0000805551Y0003579759D03*
X0001305551Y0003579759D03*
X0000705551Y0003579759D03*
G04 next file*
G04 #@! TF.GenerationSoftware,KiCad,Pcbnew,(5.1.12)-1*
G04 #@! TF.CreationDate,2022-03-29T12:16:14+08:00*
G04 #@! TF.ProjectId,Nozzle,4e6f7a7a-6c65-42e6-9b69-6361645f7063,Gen3.1a*
G04 #@! TF.SameCoordinates,Original*
G04 #@! TF.FileFunction,Soldermask,Bot*
G04 #@! TF.FilePolarity,Negative*
G04 Gerber Fmt 4.6, Leading zero omitted, Abs format (unit mm)*
G04 Created by KiCad (PCBNEW (5.1.12)-1) date 2022-03-29 12:16:14*
G01*
G04 APERTURE LIST*
G04 APERTURE END LIST*
D32*
G36*
X0000503264Y0000514205D02*
G01*
X0000519012Y0000514205D01*
X0000519012Y0000455150D01*
X0000503264Y0000455150D01*
X0000503264Y0000514205D01*
G37*
X0000503264Y0000514205D02*
X0000519012Y0000514205D01*
X0000519012Y0000455150D01*
X0000503264Y0000455150D01*
X0000503264Y0000514205D01*
G36*
X0000545783Y0000529953D02*
G01*
X0000561531Y0000529953D01*
X0000561531Y0000470898D01*
X0000545783Y0000470898D01*
X0000545783Y0000529953D01*
G37*
X0000545783Y0000529953D02*
X0000561531Y0000529953D01*
X0000561531Y0000470898D01*
X0000545783Y0000470898D01*
X0000545783Y0000529953D01*
G36*
X0000603264Y0000513205D02*
G01*
X0000619012Y0000513205D01*
X0000619012Y0000454150D01*
X0000603264Y0000454150D01*
X0000603264Y0000513205D01*
G37*
X0000603264Y0000513205D02*
X0000619012Y0000513205D01*
X0000619012Y0000454150D01*
X0000603264Y0000454150D01*
X0000603264Y0000513205D01*
G36*
X0000645783Y0000528953D02*
G01*
X0000661531Y0000528953D01*
X0000661531Y0000469898D01*
X0000645783Y0000469898D01*
X0000645783Y0000528953D01*
G37*
X0000645783Y0000528953D02*
X0000661531Y0000528953D01*
X0000661531Y0000469898D01*
X0000645783Y0000469898D01*
X0000645783Y0000528953D01*
G36*
X0000703764Y0000513705D02*
G01*
X0000719512Y0000513705D01*
X0000719512Y0000454650D01*
X0000703764Y0000454650D01*
X0000703764Y0000513705D01*
G37*
X0000703764Y0000513705D02*
X0000719512Y0000513705D01*
X0000719512Y0000454650D01*
X0000703764Y0000454650D01*
X0000703764Y0000513705D01*
G36*
X0000746283Y0000529453D02*
G01*
X0000762031Y0000529453D01*
X0000762031Y0000470398D01*
X0000746283Y0000470398D01*
X0000746283Y0000529453D01*
G37*
X0000746283Y0000529453D02*
X0000762031Y0000529453D01*
X0000762031Y0000470398D01*
X0000746283Y0000470398D01*
X0000746283Y0000529453D01*
G36*
X0000804264Y0000513705D02*
G01*
X0000820012Y0000513705D01*
X0000820012Y0000454650D01*
X0000804264Y0000454650D01*
X0000804264Y0000513705D01*
G37*
X0000804264Y0000513705D02*
X0000820012Y0000513705D01*
X0000820012Y0000454650D01*
X0000804264Y0000454650D01*
X0000804264Y0000513705D01*
G36*
X0000846783Y0000529453D02*
G01*
X0000862531Y0000529453D01*
X0000862531Y0000470398D01*
X0000846783Y0000470398D01*
X0000846783Y0000529453D01*
G37*
X0000846783Y0000529453D02*
X0000862531Y0000529453D01*
X0000862531Y0000470398D01*
X0000846783Y0000470398D01*
X0000846783Y0000529453D01*
G36*
X0000402764Y0000513705D02*
G01*
X0000418512Y0000513705D01*
X0000418512Y0000454650D01*
X0000402764Y0000454650D01*
X0000402764Y0000513705D01*
G37*
X0000402764Y0000513705D02*
X0000418512Y0000513705D01*
X0000418512Y0000454650D01*
X0000402764Y0000454650D01*
X0000402764Y0000513705D01*
G36*
X0000445283Y0000529453D02*
G01*
X0000461031Y0000529453D01*
X0000461031Y0000470398D01*
X0000445283Y0000470398D01*
X0000445283Y0000529453D01*
G37*
X0000445283Y0000529453D02*
X0000461031Y0000529453D01*
X0000461031Y0000470398D01*
X0000445283Y0000470398D01*
X0000445283Y0000529453D01*
G36*
X0000903264Y0000513705D02*
G01*
X0000919012Y0000513705D01*
X0000919012Y0000454650D01*
X0000903264Y0000454650D01*
X0000903264Y0000513705D01*
G37*
X0000903264Y0000513705D02*
X0000919012Y0000513705D01*
X0000919012Y0000454650D01*
X0000903264Y0000454650D01*
X0000903264Y0000513705D01*
G36*
X0000945783Y0000529453D02*
G01*
X0000961531Y0000529453D01*
X0000961531Y0000470398D01*
X0000945783Y0000470398D01*
X0000945783Y0000529453D01*
G37*
X0000945783Y0000529453D02*
X0000961531Y0000529453D01*
X0000961531Y0000470398D01*
X0000945783Y0000470398D01*
X0000945783Y0000529453D01*
G36*
X0001002764Y0000513705D02*
G01*
X0001018512Y0000513705D01*
X0001018512Y0000454650D01*
X0001002764Y0000454650D01*
X0001002764Y0000513705D01*
G37*
X0001002764Y0000513705D02*
X0001018512Y0000513705D01*
X0001018512Y0000454650D01*
X0001002764Y0000454650D01*
X0001002764Y0000513705D01*
G36*
X0001045283Y0000529453D02*
G01*
X0001061031Y0000529453D01*
X0001061031Y0000470398D01*
X0001045283Y0000470398D01*
X0001045283Y0000529453D01*
G37*
X0001045283Y0000529453D02*
X0001061031Y0000529453D01*
X0001061031Y0000470398D01*
X0001045283Y0000470398D01*
X0001045283Y0000529453D01*
G36*
X0001104264Y0000513705D02*
G01*
X0001120012Y0000513705D01*
X0001120012Y0000454650D01*
X0001104264Y0000454650D01*
X0001104264Y0000513705D01*
G37*
X0001104264Y0000513705D02*
X0001120012Y0000513705D01*
X0001120012Y0000454650D01*
X0001104264Y0000454650D01*
X0001104264Y0000513705D01*
G36*
X0001146783Y0000529453D02*
G01*
X0001162531Y0000529453D01*
X0001162531Y0000470398D01*
X0001146783Y0000470398D01*
X0001146783Y0000529453D01*
G37*
X0001146783Y0000529453D02*
X0001162531Y0000529453D01*
X0001162531Y0000470398D01*
X0001146783Y0000470398D01*
X0001146783Y0000529453D01*
D33*
X0000582397Y0000492052D03*
X0001185897Y0000492052D03*
X0001082397Y0000492052D03*
X0000783397Y0000492052D03*
D34*
X0000482397Y0000492052D03*
D33*
X0000682897Y0000492052D03*
X0000982397Y0000492052D03*
D34*
X0000381897Y0000492052D03*
D33*
X0000882897Y0000492052D03*
D35*
X0000136897Y0001241052D03*
X0001423897Y0001243052D03*
D36*
X0001103897Y0001130052D03*
X0001103897Y0001230052D03*
X0001003897Y0001130052D03*
X0001003897Y0001230052D03*
X0000903897Y0001130052D03*
X0000903897Y0001230052D03*
X0000803897Y0001130052D03*
X0000803897Y0001230052D03*
X0000703897Y0001130052D03*
X0000703897Y0001230052D03*
X0000603897Y0001130052D03*
X0000603897Y0001230052D03*
X0000503897Y0001130052D03*
X0000503897Y0001230052D03*
X0000403897Y0001130052D03*
D37*
X0000403897Y0001230052D03*
D38*
X0000511138Y0000484678D03*
X0000553657Y0000500426D03*
X0000611138Y0000483678D03*
X0000653657Y0000499426D03*
X0000711638Y0000484178D03*
X0000754157Y0000499926D03*
X0000812138Y0000484178D03*
X0000854657Y0000499926D03*
X0000410638Y0000484178D03*
X0000453157Y0000499926D03*
D39*
X0000376897Y0000392052D03*
D38*
X0000911138Y0000484178D03*
X0000953657Y0000499926D03*
D35*
X0000124897Y0000708552D03*
X0000533897Y0000149552D03*
X0000124897Y0000275552D03*
X0001439397Y0000275552D03*
X0001439897Y0000708552D03*
X0000534397Y0000834552D03*
X0001030397Y0000149552D03*
X0001030397Y0000834552D03*
D39*
X0000876897Y0000592052D03*
X0000476897Y0000592052D03*
X0000576897Y0000392052D03*
X0000776897Y0000392052D03*
X0000976897Y0000392052D03*
X0001176897Y0000393052D03*
X0001077397Y0000592052D03*
X0000676897Y0000592052D03*
D38*
X0001010638Y0000484178D03*
X0001053157Y0000499926D03*
X0001112138Y0000484178D03*
X0001154657Y0000499926D03*
G04 next file*
G04 #@! TF.GenerationSoftware,KiCad,Pcbnew,(5.1.12)-1*
G04 #@! TF.CreationDate,2022-03-29T12:16:14+08:00*
G04 #@! TF.ProjectId,Nozzle,4e6f7a7a-6c65-42e6-9b69-6361645f7063,Gen3.1a*
G04 #@! TF.SameCoordinates,Original*
G04 #@! TF.FileFunction,Soldermask,Bot*
G04 #@! TF.FilePolarity,Negative*
G04 Gerber Fmt 4.6, Leading zero omitted, Abs format (unit mm)*
G04 Created by KiCad (PCBNEW (5.1.12)-1) date 2022-03-29 12:16:14*
G01*
G04 APERTURE LIST*
G04 APERTURE END LIST*
D40*
G36*
X0002140968Y0000514205D02*
G01*
X0002156716Y0000514205D01*
X0002156716Y0000455150D01*
X0002140968Y0000455150D01*
X0002140968Y0000514205D01*
G37*
X0002140968Y0000514205D02*
X0002156716Y0000514205D01*
X0002156716Y0000455150D01*
X0002140968Y0000455150D01*
X0002140968Y0000514205D01*
G36*
X0002183488Y0000529953D02*
G01*
X0002199236Y0000529953D01*
X0002199236Y0000470898D01*
X0002183488Y0000470898D01*
X0002183488Y0000529953D01*
G37*
X0002183488Y0000529953D02*
X0002199236Y0000529953D01*
X0002199236Y0000470898D01*
X0002183488Y0000470898D01*
X0002183488Y0000529953D01*
G36*
X0002240968Y0000513205D02*
G01*
X0002256716Y0000513205D01*
X0002256716Y0000454150D01*
X0002240968Y0000454150D01*
X0002240968Y0000513205D01*
G37*
X0002240968Y0000513205D02*
X0002256716Y0000513205D01*
X0002256716Y0000454150D01*
X0002240968Y0000454150D01*
X0002240968Y0000513205D01*
G36*
X0002283488Y0000528953D02*
G01*
X0002299236Y0000528953D01*
X0002299236Y0000469898D01*
X0002283488Y0000469898D01*
X0002283488Y0000528953D01*
G37*
X0002283488Y0000528953D02*
X0002299236Y0000528953D01*
X0002299236Y0000469898D01*
X0002283488Y0000469898D01*
X0002283488Y0000528953D01*
G36*
X0002341468Y0000513705D02*
G01*
X0002357216Y0000513705D01*
X0002357216Y0000454650D01*
X0002341468Y0000454650D01*
X0002341468Y0000513705D01*
G37*
X0002341468Y0000513705D02*
X0002357216Y0000513705D01*
X0002357216Y0000454650D01*
X0002341468Y0000454650D01*
X0002341468Y0000513705D01*
G36*
X0002383988Y0000529453D02*
G01*
X0002399736Y0000529453D01*
X0002399736Y0000470398D01*
X0002383988Y0000470398D01*
X0002383988Y0000529453D01*
G37*
X0002383988Y0000529453D02*
X0002399736Y0000529453D01*
X0002399736Y0000470398D01*
X0002383988Y0000470398D01*
X0002383988Y0000529453D01*
G36*
X0002441968Y0000513705D02*
G01*
X0002457716Y0000513705D01*
X0002457716Y0000454650D01*
X0002441968Y0000454650D01*
X0002441968Y0000513705D01*
G37*
X0002441968Y0000513705D02*
X0002457716Y0000513705D01*
X0002457716Y0000454650D01*
X0002441968Y0000454650D01*
X0002441968Y0000513705D01*
G36*
X0002484488Y0000529453D02*
G01*
X0002500236Y0000529453D01*
X0002500236Y0000470398D01*
X0002484488Y0000470398D01*
X0002484488Y0000529453D01*
G37*
X0002484488Y0000529453D02*
X0002500236Y0000529453D01*
X0002500236Y0000470398D01*
X0002484488Y0000470398D01*
X0002484488Y0000529453D01*
G36*
X0002040468Y0000513705D02*
G01*
X0002056216Y0000513705D01*
X0002056216Y0000454650D01*
X0002040468Y0000454650D01*
X0002040468Y0000513705D01*
G37*
X0002040468Y0000513705D02*
X0002056216Y0000513705D01*
X0002056216Y0000454650D01*
X0002040468Y0000454650D01*
X0002040468Y0000513705D01*
G36*
X0002082988Y0000529453D02*
G01*
X0002098736Y0000529453D01*
X0002098736Y0000470398D01*
X0002082988Y0000470398D01*
X0002082988Y0000529453D01*
G37*
X0002082988Y0000529453D02*
X0002098736Y0000529453D01*
X0002098736Y0000470398D01*
X0002082988Y0000470398D01*
X0002082988Y0000529453D01*
G36*
X0002540968Y0000513705D02*
G01*
X0002556716Y0000513705D01*
X0002556716Y0000454650D01*
X0002540968Y0000454650D01*
X0002540968Y0000513705D01*
G37*
X0002540968Y0000513705D02*
X0002556716Y0000513705D01*
X0002556716Y0000454650D01*
X0002540968Y0000454650D01*
X0002540968Y0000513705D01*
G36*
X0002583488Y0000529453D02*
G01*
X0002599236Y0000529453D01*
X0002599236Y0000470398D01*
X0002583488Y0000470398D01*
X0002583488Y0000529453D01*
G37*
X0002583488Y0000529453D02*
X0002599236Y0000529453D01*
X0002599236Y0000470398D01*
X0002583488Y0000470398D01*
X0002583488Y0000529453D01*
G36*
X0002640468Y0000513705D02*
G01*
X0002656216Y0000513705D01*
X0002656216Y0000454650D01*
X0002640468Y0000454650D01*
X0002640468Y0000513705D01*
G37*
X0002640468Y0000513705D02*
X0002656216Y0000513705D01*
X0002656216Y0000454650D01*
X0002640468Y0000454650D01*
X0002640468Y0000513705D01*
G36*
X0002682988Y0000529453D02*
G01*
X0002698736Y0000529453D01*
X0002698736Y0000470398D01*
X0002682988Y0000470398D01*
X0002682988Y0000529453D01*
G37*
X0002682988Y0000529453D02*
X0002698736Y0000529453D01*
X0002698736Y0000470398D01*
X0002682988Y0000470398D01*
X0002682988Y0000529453D01*
G36*
X0002741968Y0000513705D02*
G01*
X0002757716Y0000513705D01*
X0002757716Y0000454650D01*
X0002741968Y0000454650D01*
X0002741968Y0000513705D01*
G37*
X0002741968Y0000513705D02*
X0002757716Y0000513705D01*
X0002757716Y0000454650D01*
X0002741968Y0000454650D01*
X0002741968Y0000513705D01*
G36*
X0002784488Y0000529453D02*
G01*
X0002800236Y0000529453D01*
X0002800236Y0000470398D01*
X0002784488Y0000470398D01*
X0002784488Y0000529453D01*
G37*
X0002784488Y0000529453D02*
X0002800236Y0000529453D01*
X0002800236Y0000470398D01*
X0002784488Y0000470398D01*
X0002784488Y0000529453D01*
D41*
X0002220102Y0000492052D03*
X0002823602Y0000492052D03*
X0002720102Y0000492052D03*
X0002421102Y0000492052D03*
D42*
X0002120102Y0000492052D03*
D41*
X0002320602Y0000492052D03*
X0002620102Y0000492052D03*
D42*
X0002019602Y0000492052D03*
D41*
X0002520602Y0000492052D03*
D43*
X0001774602Y0001241052D03*
X0003061602Y0001243052D03*
D44*
X0002741602Y0001130052D03*
X0002741602Y0001230052D03*
X0002641602Y0001130052D03*
X0002641602Y0001230052D03*
X0002541602Y0001130052D03*
X0002541602Y0001230052D03*
X0002441602Y0001130052D03*
X0002441602Y0001230052D03*
X0002341602Y0001130052D03*
X0002341602Y0001230052D03*
X0002241602Y0001130052D03*
X0002241602Y0001230052D03*
X0002141602Y0001130052D03*
X0002141602Y0001230052D03*
X0002041602Y0001130052D03*
D45*
X0002041602Y0001230052D03*
D46*
X0002148842Y0000484678D03*
X0002191362Y0000500426D03*
X0002248842Y0000483678D03*
X0002291362Y0000499426D03*
X0002349342Y0000484178D03*
X0002391862Y0000499926D03*
X0002449842Y0000484178D03*
X0002492362Y0000499926D03*
X0002048342Y0000484178D03*
X0002090862Y0000499926D03*
D47*
X0002014602Y0000392052D03*
D46*
X0002548842Y0000484178D03*
X0002591362Y0000499926D03*
D43*
X0001762602Y0000708552D03*
X0002171602Y0000149552D03*
X0001762602Y0000275552D03*
X0003077102Y0000275552D03*
X0003077602Y0000708552D03*
X0002172102Y0000834552D03*
X0002668102Y0000149552D03*
X0002668102Y0000834552D03*
D47*
X0002514602Y0000592052D03*
X0002114602Y0000592052D03*
X0002214602Y0000392052D03*
X0002414602Y0000392052D03*
X0002614602Y0000392052D03*
X0002814602Y0000393052D03*
X0002715102Y0000592052D03*
X0002314602Y0000592052D03*
D46*
X0002648342Y0000484178D03*
X0002690862Y0000499926D03*
X0002749842Y0000484178D03*
X0002792362Y0000499926D03*
G04 next file*
G04 #@! TF.GenerationSoftware,KiCad,Pcbnew,(5.1.12)-1*
G04 #@! TF.CreationDate,2022-03-29T12:16:14+08:00*
G04 #@! TF.ProjectId,Nozzle,4e6f7a7a-6c65-42e6-9b69-6361645f7063,Gen3.1a*
G04 #@! TF.SameCoordinates,Original*
G04 #@! TF.FileFunction,Soldermask,Bot*
G04 #@! TF.FilePolarity,Negative*
G04 Gerber Fmt 4.6, Leading zero omitted, Abs format (unit mm)*
G04 Created by KiCad (PCBNEW (5.1.12)-1) date 2022-03-29 12:16:14*
G01*
G04 APERTURE LIST*
G04 APERTURE END LIST*
D48*
G36*
X0000503264Y0001970899D02*
G01*
X0000519012Y0001970899D01*
X0000519012Y0001911844D01*
X0000503264Y0001911844D01*
X0000503264Y0001970899D01*
G37*
X0000503264Y0001970899D02*
X0000519012Y0001970899D01*
X0000519012Y0001911844D01*
X0000503264Y0001911844D01*
X0000503264Y0001970899D01*
G36*
X0000545783Y0001986647D02*
G01*
X0000561531Y0001986647D01*
X0000561531Y0001927592D01*
X0000545783Y0001927592D01*
X0000545783Y0001986647D01*
G37*
X0000545783Y0001986647D02*
X0000561531Y0001986647D01*
X0000561531Y0001927592D01*
X0000545783Y0001927592D01*
X0000545783Y0001986647D01*
G36*
X0000603264Y0001969899D02*
G01*
X0000619012Y0001969899D01*
X0000619012Y0001910844D01*
X0000603264Y0001910844D01*
X0000603264Y0001969899D01*
G37*
X0000603264Y0001969899D02*
X0000619012Y0001969899D01*
X0000619012Y0001910844D01*
X0000603264Y0001910844D01*
X0000603264Y0001969899D01*
G36*
X0000645783Y0001985647D02*
G01*
X0000661531Y0001985647D01*
X0000661531Y0001926592D01*
X0000645783Y0001926592D01*
X0000645783Y0001985647D01*
G37*
X0000645783Y0001985647D02*
X0000661531Y0001985647D01*
X0000661531Y0001926592D01*
X0000645783Y0001926592D01*
X0000645783Y0001985647D01*
G36*
X0000703764Y0001970399D02*
G01*
X0000719512Y0001970399D01*
X0000719512Y0001911344D01*
X0000703764Y0001911344D01*
X0000703764Y0001970399D01*
G37*
X0000703764Y0001970399D02*
X0000719512Y0001970399D01*
X0000719512Y0001911344D01*
X0000703764Y0001911344D01*
X0000703764Y0001970399D01*
G36*
X0000746283Y0001986147D02*
G01*
X0000762031Y0001986147D01*
X0000762031Y0001927092D01*
X0000746283Y0001927092D01*
X0000746283Y0001986147D01*
G37*
X0000746283Y0001986147D02*
X0000762031Y0001986147D01*
X0000762031Y0001927092D01*
X0000746283Y0001927092D01*
X0000746283Y0001986147D01*
G36*
X0000804264Y0001970399D02*
G01*
X0000820012Y0001970399D01*
X0000820012Y0001911344D01*
X0000804264Y0001911344D01*
X0000804264Y0001970399D01*
G37*
X0000804264Y0001970399D02*
X0000820012Y0001970399D01*
X0000820012Y0001911344D01*
X0000804264Y0001911344D01*
X0000804264Y0001970399D01*
G36*
X0000846783Y0001986147D02*
G01*
X0000862531Y0001986147D01*
X0000862531Y0001927092D01*
X0000846783Y0001927092D01*
X0000846783Y0001986147D01*
G37*
X0000846783Y0001986147D02*
X0000862531Y0001986147D01*
X0000862531Y0001927092D01*
X0000846783Y0001927092D01*
X0000846783Y0001986147D01*
G36*
X0000402764Y0001970399D02*
G01*
X0000418512Y0001970399D01*
X0000418512Y0001911344D01*
X0000402764Y0001911344D01*
X0000402764Y0001970399D01*
G37*
X0000402764Y0001970399D02*
X0000418512Y0001970399D01*
X0000418512Y0001911344D01*
X0000402764Y0001911344D01*
X0000402764Y0001970399D01*
G36*
X0000445283Y0001986147D02*
G01*
X0000461031Y0001986147D01*
X0000461031Y0001927092D01*
X0000445283Y0001927092D01*
X0000445283Y0001986147D01*
G37*
X0000445283Y0001986147D02*
X0000461031Y0001986147D01*
X0000461031Y0001927092D01*
X0000445283Y0001927092D01*
X0000445283Y0001986147D01*
G36*
X0000903264Y0001970399D02*
G01*
X0000919012Y0001970399D01*
X0000919012Y0001911344D01*
X0000903264Y0001911344D01*
X0000903264Y0001970399D01*
G37*
X0000903264Y0001970399D02*
X0000919012Y0001970399D01*
X0000919012Y0001911344D01*
X0000903264Y0001911344D01*
X0000903264Y0001970399D01*
G36*
X0000945783Y0001986147D02*
G01*
X0000961531Y0001986147D01*
X0000961531Y0001927092D01*
X0000945783Y0001927092D01*
X0000945783Y0001986147D01*
G37*
X0000945783Y0001986147D02*
X0000961531Y0001986147D01*
X0000961531Y0001927092D01*
X0000945783Y0001927092D01*
X0000945783Y0001986147D01*
G36*
X0001002764Y0001970399D02*
G01*
X0001018512Y0001970399D01*
X0001018512Y0001911344D01*
X0001002764Y0001911344D01*
X0001002764Y0001970399D01*
G37*
X0001002764Y0001970399D02*
X0001018512Y0001970399D01*
X0001018512Y0001911344D01*
X0001002764Y0001911344D01*
X0001002764Y0001970399D01*
G36*
X0001045283Y0001986147D02*
G01*
X0001061031Y0001986147D01*
X0001061031Y0001927092D01*
X0001045283Y0001927092D01*
X0001045283Y0001986147D01*
G37*
X0001045283Y0001986147D02*
X0001061031Y0001986147D01*
X0001061031Y0001927092D01*
X0001045283Y0001927092D01*
X0001045283Y0001986147D01*
G36*
X0001104264Y0001970399D02*
G01*
X0001120012Y0001970399D01*
X0001120012Y0001911344D01*
X0001104264Y0001911344D01*
X0001104264Y0001970399D01*
G37*
X0001104264Y0001970399D02*
X0001120012Y0001970399D01*
X0001120012Y0001911344D01*
X0001104264Y0001911344D01*
X0001104264Y0001970399D01*
G36*
X0001146783Y0001986147D02*
G01*
X0001162531Y0001986147D01*
X0001162531Y0001927092D01*
X0001146783Y0001927092D01*
X0001146783Y0001986147D01*
G37*
X0001146783Y0001986147D02*
X0001162531Y0001986147D01*
X0001162531Y0001927092D01*
X0001146783Y0001927092D01*
X0001146783Y0001986147D01*
D49*
X0000582397Y0001948746D03*
X0001185897Y0001948746D03*
X0001082397Y0001948746D03*
X0000783397Y0001948746D03*
D50*
X0000482397Y0001948746D03*
D49*
X0000682897Y0001948746D03*
X0000982397Y0001948746D03*
D50*
X0000381897Y0001948746D03*
D49*
X0000882897Y0001948746D03*
D51*
X0000136897Y0002697746D03*
X0001423897Y0002699746D03*
D52*
X0001103897Y0002586746D03*
X0001103897Y0002686746D03*
X0001003897Y0002586746D03*
X0001003897Y0002686746D03*
X0000903897Y0002586746D03*
X0000903897Y0002686746D03*
X0000803897Y0002586746D03*
X0000803897Y0002686746D03*
X0000703897Y0002586746D03*
X0000703897Y0002686746D03*
X0000603897Y0002586746D03*
X0000603897Y0002686746D03*
X0000503897Y0002586746D03*
X0000503897Y0002686746D03*
X0000403897Y0002586746D03*
D53*
X0000403897Y0002686746D03*
D54*
X0000511138Y0001941372D03*
X0000553657Y0001957120D03*
X0000611138Y0001940372D03*
X0000653657Y0001956120D03*
X0000711638Y0001940872D03*
X0000754157Y0001956620D03*
X0000812138Y0001940872D03*
X0000854657Y0001956620D03*
X0000410638Y0001940872D03*
X0000453157Y0001956620D03*
D55*
X0000376897Y0001848746D03*
D54*
X0000911138Y0001940872D03*
X0000953657Y0001956620D03*
D51*
X0000124897Y0002165246D03*
X0000533897Y0001606246D03*
X0000124897Y0001732246D03*
X0001439397Y0001732246D03*
X0001439897Y0002165246D03*
X0000534397Y0002291246D03*
X0001030397Y0001606246D03*
X0001030397Y0002291246D03*
D55*
X0000876897Y0002048746D03*
X0000476897Y0002048746D03*
X0000576897Y0001848746D03*
X0000776897Y0001848746D03*
X0000976897Y0001848746D03*
X0001176897Y0001849746D03*
X0001077397Y0002048746D03*
X0000676897Y0002048746D03*
D54*
X0001010638Y0001940872D03*
X0001053157Y0001956620D03*
X0001112138Y0001940872D03*
X0001154657Y0001956620D03*
G04 next file*
G04 #@! TF.GenerationSoftware,KiCad,Pcbnew,(5.1.12)-1*
G04 #@! TF.CreationDate,2022-03-29T12:16:14+08:00*
G04 #@! TF.ProjectId,Nozzle,4e6f7a7a-6c65-42e6-9b69-6361645f7063,Gen3.1a*
G04 #@! TF.SameCoordinates,Original*
G04 #@! TF.FileFunction,Soldermask,Bot*
G04 #@! TF.FilePolarity,Negative*
G04 Gerber Fmt 4.6, Leading zero omitted, Abs format (unit mm)*
G04 Created by KiCad (PCBNEW (5.1.12)-1) date 2022-03-29 12:16:14*
G01*
G04 APERTURE LIST*
G04 APERTURE END LIST*
D56*
G36*
X0002140968Y0001970899D02*
G01*
X0002156716Y0001970899D01*
X0002156716Y0001911844D01*
X0002140968Y0001911844D01*
X0002140968Y0001970899D01*
G37*
X0002140968Y0001970899D02*
X0002156716Y0001970899D01*
X0002156716Y0001911844D01*
X0002140968Y0001911844D01*
X0002140968Y0001970899D01*
G36*
X0002183488Y0001986647D02*
G01*
X0002199236Y0001986647D01*
X0002199236Y0001927592D01*
X0002183488Y0001927592D01*
X0002183488Y0001986647D01*
G37*
X0002183488Y0001986647D02*
X0002199236Y0001986647D01*
X0002199236Y0001927592D01*
X0002183488Y0001927592D01*
X0002183488Y0001986647D01*
G36*
X0002240968Y0001969899D02*
G01*
X0002256716Y0001969899D01*
X0002256716Y0001910844D01*
X0002240968Y0001910844D01*
X0002240968Y0001969899D01*
G37*
X0002240968Y0001969899D02*
X0002256716Y0001969899D01*
X0002256716Y0001910844D01*
X0002240968Y0001910844D01*
X0002240968Y0001969899D01*
G36*
X0002283488Y0001985647D02*
G01*
X0002299236Y0001985647D01*
X0002299236Y0001926592D01*
X0002283488Y0001926592D01*
X0002283488Y0001985647D01*
G37*
X0002283488Y0001985647D02*
X0002299236Y0001985647D01*
X0002299236Y0001926592D01*
X0002283488Y0001926592D01*
X0002283488Y0001985647D01*
G36*
X0002341468Y0001970399D02*
G01*
X0002357216Y0001970399D01*
X0002357216Y0001911344D01*
X0002341468Y0001911344D01*
X0002341468Y0001970399D01*
G37*
X0002341468Y0001970399D02*
X0002357216Y0001970399D01*
X0002357216Y0001911344D01*
X0002341468Y0001911344D01*
X0002341468Y0001970399D01*
G36*
X0002383988Y0001986147D02*
G01*
X0002399736Y0001986147D01*
X0002399736Y0001927092D01*
X0002383988Y0001927092D01*
X0002383988Y0001986147D01*
G37*
X0002383988Y0001986147D02*
X0002399736Y0001986147D01*
X0002399736Y0001927092D01*
X0002383988Y0001927092D01*
X0002383988Y0001986147D01*
G36*
X0002441968Y0001970399D02*
G01*
X0002457716Y0001970399D01*
X0002457716Y0001911344D01*
X0002441968Y0001911344D01*
X0002441968Y0001970399D01*
G37*
X0002441968Y0001970399D02*
X0002457716Y0001970399D01*
X0002457716Y0001911344D01*
X0002441968Y0001911344D01*
X0002441968Y0001970399D01*
G36*
X0002484488Y0001986147D02*
G01*
X0002500236Y0001986147D01*
X0002500236Y0001927092D01*
X0002484488Y0001927092D01*
X0002484488Y0001986147D01*
G37*
X0002484488Y0001986147D02*
X0002500236Y0001986147D01*
X0002500236Y0001927092D01*
X0002484488Y0001927092D01*
X0002484488Y0001986147D01*
G36*
X0002040468Y0001970399D02*
G01*
X0002056216Y0001970399D01*
X0002056216Y0001911344D01*
X0002040468Y0001911344D01*
X0002040468Y0001970399D01*
G37*
X0002040468Y0001970399D02*
X0002056216Y0001970399D01*
X0002056216Y0001911344D01*
X0002040468Y0001911344D01*
X0002040468Y0001970399D01*
G36*
X0002082988Y0001986147D02*
G01*
X0002098736Y0001986147D01*
X0002098736Y0001927092D01*
X0002082988Y0001927092D01*
X0002082988Y0001986147D01*
G37*
X0002082988Y0001986147D02*
X0002098736Y0001986147D01*
X0002098736Y0001927092D01*
X0002082988Y0001927092D01*
X0002082988Y0001986147D01*
G36*
X0002540968Y0001970399D02*
G01*
X0002556716Y0001970399D01*
X0002556716Y0001911344D01*
X0002540968Y0001911344D01*
X0002540968Y0001970399D01*
G37*
X0002540968Y0001970399D02*
X0002556716Y0001970399D01*
X0002556716Y0001911344D01*
X0002540968Y0001911344D01*
X0002540968Y0001970399D01*
G36*
X0002583488Y0001986147D02*
G01*
X0002599236Y0001986147D01*
X0002599236Y0001927092D01*
X0002583488Y0001927092D01*
X0002583488Y0001986147D01*
G37*
X0002583488Y0001986147D02*
X0002599236Y0001986147D01*
X0002599236Y0001927092D01*
X0002583488Y0001927092D01*
X0002583488Y0001986147D01*
G36*
X0002640468Y0001970399D02*
G01*
X0002656216Y0001970399D01*
X0002656216Y0001911344D01*
X0002640468Y0001911344D01*
X0002640468Y0001970399D01*
G37*
X0002640468Y0001970399D02*
X0002656216Y0001970399D01*
X0002656216Y0001911344D01*
X0002640468Y0001911344D01*
X0002640468Y0001970399D01*
G36*
X0002682988Y0001986147D02*
G01*
X0002698736Y0001986147D01*
X0002698736Y0001927092D01*
X0002682988Y0001927092D01*
X0002682988Y0001986147D01*
G37*
X0002682988Y0001986147D02*
X0002698736Y0001986147D01*
X0002698736Y0001927092D01*
X0002682988Y0001927092D01*
X0002682988Y0001986147D01*
G36*
X0002741968Y0001970399D02*
G01*
X0002757716Y0001970399D01*
X0002757716Y0001911344D01*
X0002741968Y0001911344D01*
X0002741968Y0001970399D01*
G37*
X0002741968Y0001970399D02*
X0002757716Y0001970399D01*
X0002757716Y0001911344D01*
X0002741968Y0001911344D01*
X0002741968Y0001970399D01*
G36*
X0002784488Y0001986147D02*
G01*
X0002800236Y0001986147D01*
X0002800236Y0001927092D01*
X0002784488Y0001927092D01*
X0002784488Y0001986147D01*
G37*
X0002784488Y0001986147D02*
X0002800236Y0001986147D01*
X0002800236Y0001927092D01*
X0002784488Y0001927092D01*
X0002784488Y0001986147D01*
D57*
X0002220102Y0001948746D03*
X0002823602Y0001948746D03*
X0002720102Y0001948746D03*
X0002421102Y0001948746D03*
D58*
X0002120102Y0001948746D03*
D57*
X0002320602Y0001948746D03*
X0002620102Y0001948746D03*
D58*
X0002019602Y0001948746D03*
D57*
X0002520602Y0001948746D03*
D59*
X0001774602Y0002697746D03*
X0003061602Y0002699746D03*
D60*
X0002741602Y0002586746D03*
X0002741602Y0002686746D03*
X0002641602Y0002586746D03*
X0002641602Y0002686746D03*
X0002541602Y0002586746D03*
X0002541602Y0002686746D03*
X0002441602Y0002586746D03*
X0002441602Y0002686746D03*
X0002341602Y0002586746D03*
X0002341602Y0002686746D03*
X0002241602Y0002586746D03*
X0002241602Y0002686746D03*
X0002141602Y0002586746D03*
X0002141602Y0002686746D03*
X0002041602Y0002586746D03*
D61*
X0002041602Y0002686746D03*
D62*
X0002148842Y0001941372D03*
X0002191362Y0001957120D03*
X0002248842Y0001940372D03*
X0002291362Y0001956120D03*
X0002349342Y0001940872D03*
X0002391862Y0001956620D03*
X0002449842Y0001940872D03*
X0002492362Y0001956620D03*
X0002048342Y0001940872D03*
X0002090862Y0001956620D03*
D63*
X0002014602Y0001848746D03*
D62*
X0002548842Y0001940872D03*
X0002591362Y0001956620D03*
D59*
X0001762602Y0002165246D03*
X0002171602Y0001606246D03*
X0001762602Y0001732246D03*
X0003077102Y0001732246D03*
X0003077602Y0002165246D03*
X0002172102Y0002291246D03*
X0002668102Y0001606246D03*
X0002668102Y0002291246D03*
D63*
X0002514602Y0002048746D03*
X0002114602Y0002048746D03*
X0002214602Y0001848746D03*
X0002414602Y0001848746D03*
X0002614602Y0001848746D03*
X0002814602Y0001849746D03*
X0002715102Y0002048746D03*
X0002314602Y0002048746D03*
D62*
X0002648342Y0001940872D03*
X0002690862Y0001956620D03*
X0002749842Y0001940872D03*
X0002792362Y0001956620D03*
G04 next file*
G04 #@! TF.GenerationSoftware,KiCad,Pcbnew,(5.1.12)-1*
G04 #@! TF.CreationDate,2022-03-26T22:19:29+08:00*
G04 #@! TF.ProjectId,Nozzle,4e6f7a7a-6c65-42e6-9b69-6361645f7063,0.5*
G04 #@! TF.SameCoordinates,Original*
G04 #@! TF.FileFunction,Soldermask,Bot*
G04 #@! TF.FilePolarity,Negative*
G04 Gerber Fmt 4.6, Leading zero omitted, Abs format (unit mm)*
G04 Created by KiCad (PCBNEW (5.1.12)-1) date 2022-03-26 22:19:29*
G01*
G04 APERTURE LIST*
G04 APERTURE END LIST*
D64*
X-0003321295Y0004440887D02*
X0002538704Y0002999887D03*
X0001938704Y0002999387D03*
X0002138704Y0002999387D03*
X0002338704Y0002999887D03*
X0001738704Y0002999387D03*
X0001838704Y0003199387D03*
X0002038704Y0003199387D03*
X0002438704Y0003199387D03*
X0002238704Y0003199387D03*
D65*
X0002294704Y0003100887D03*
D66*
X0002194704Y0003099887D03*
D67*
X0002094704Y0003099387D03*
D68*
X0001994704Y0003099387D03*
D69*
X0002493704Y0003099887D03*
X0001893704Y0003099387D03*
X0002393704Y0003099387D03*
X0001793704Y0003099387D03*
G04 next file*
G04 #@! TF.GenerationSoftware,KiCad,Pcbnew,(5.1.12)-1*
G04 #@! TF.CreationDate,2022-03-26T22:19:29+08:00*
G04 #@! TF.ProjectId,Nozzle,4e6f7a7a-6c65-42e6-9b69-6361645f7063,0.5*
G04 #@! TF.SameCoordinates,Original*
G04 #@! TF.FileFunction,Soldermask,Bot*
G04 #@! TF.FilePolarity,Negative*
G04 Gerber Fmt 4.6, Leading zero omitted, Abs format (unit mm)*
G04 Created by KiCad (PCBNEW (5.1.12)-1) date 2022-03-26 22:19:29*
G01*
G04 APERTURE LIST*
G04 APERTURE END LIST*
D70*
X-0003307086Y0004921259D02*
X0002552913Y0003480259D03*
X0001952913Y0003479759D03*
X0002152913Y0003479759D03*
X0002352913Y0003480259D03*
X0001752913Y0003479759D03*
X0001852913Y0003679759D03*
X0002052913Y0003679759D03*
X0002452913Y0003679759D03*
X0002252913Y0003679759D03*
D71*
X0002308913Y0003581259D03*
D72*
X0002208913Y0003580259D03*
D73*
X0002108913Y0003579759D03*
D74*
X0002008913Y0003579759D03*
D75*
X0002507913Y0003580259D03*
X0001907913Y0003579759D03*
X0002407913Y0003579759D03*
X0001807913Y0003579759D03*
M02*