%MOIN*%
%OFA0B0*%
%FSLAX46Y46*%
%IPPOS*%
%LPD*%
%ADD10C,0.025*%
%ADD11C,0.01968503937007874*%
%ADD12C,0.015748031496062995*%
%ADD13C,0.011811023622047244*%
%ADD14C,0.00984251968503937*%
%ADD15C,0.033464566929133861*%
%ADD26C,0.025*%
%ADD27C,0.01968503937007874*%
%ADD28C,0.015748031496062995*%
%ADD29C,0.011811023622047244*%
%ADD30C,0.00984251968503937*%
%ADD31C,0.033464566929133861*%
%ADD32C,0.031496062992125991*%
%ADD33O,0.066929133858267723X0.066929133858267723*%
%ADD34R,0.066929133858267723X0.066929133858267723*%
%ADD35C,0.086614173228346469*%
%ADD36C,0.05*%
%ADD37C,0.03937007874015748*%
%ADD38C,0.031496062992125991*%
%ADD39O,0.066929133858267723X0.066929133858267723*%
%ADD40R,0.066929133858267723X0.066929133858267723*%
%ADD41C,0.086614173228346469*%
%ADD42C,0.05*%
%ADD43C,0.03937007874015748*%
%ADD44C,0.031496062992125991*%
%ADD45O,0.066929133858267723X0.066929133858267723*%
%ADD46R,0.066929133858267723X0.066929133858267723*%
%ADD47C,0.086614173228346469*%
%ADD48C,0.05*%
%ADD49C,0.03937007874015748*%
%ADD50C,0.031496062992125991*%
%ADD51O,0.066929133858267723X0.066929133858267723*%
%ADD52R,0.066929133858267723X0.066929133858267723*%
%ADD53C,0.086614173228346469*%
%ADD54C,0.05*%
%ADD55C,0.03937007874015748*%
%ADD56C,0.025*%
%ADD57C,0.01968503937007874*%
%ADD58C,0.015748031496062995*%
%ADD59C,0.011811023622047244*%
%ADD60C,0.00984251968503937*%
%ADD61C,0.033464566929133861*%
%ADD62C,0.025*%
%ADD63C,0.01968503937007874*%
%ADD64C,0.015748031496062995*%
%ADD65C,0.011811023622047244*%
%ADD66C,0.00984251968503937*%
%ADD67C,0.033464566929133861*%
G01*
D10*
X-0004370078Y0004409448D02*
X0001442421Y0003005948D03*
X0000842421Y0003005448D03*
X0001042421Y0003005448D03*
X0001242421Y0003005948D03*
X0000642421Y0003005448D03*
X0000742421Y0003205448D03*
X0000942421Y0003205448D03*
X0001342421Y0003205448D03*
X0001142421Y0003205448D03*
D11*
X0001198421Y0003106948D03*
D12*
X0001098421Y0003105948D03*
D13*
X0000998421Y0003105448D03*
D14*
X0000898421Y0003105448D03*
D15*
X0001397421Y0003105948D03*
X0000797421Y0003105448D03*
X0001297421Y0003105448D03*
X0000697421Y0003105448D03*
G04 next file*
G04 #@! TF.GenerationSoftware,KiCad,Pcbnew,(5.1.12)-1*
G04 #@! TF.CreationDate,2022-03-29T21:33:58+08:00*
G04 #@! TF.ProjectId,Nozzle,4e6f7a7a-6c65-42e6-9b69-6361645f7063,Gen3.1b*
G04 #@! TF.SameCoordinates,Original*
G04 #@! TF.FileFunction,Soldermask,Top*
G04 #@! TF.FilePolarity,Negative*
G04 Gerber Fmt 4.6, Leading zero omitted, Abs format (unit mm)*
G04 Created by KiCad (PCBNEW (5.1.12)-1) date 2022-03-29 21:33:58*
G01*
G04 APERTURE LIST*
G04 APERTURE END LIST*
D26*
X-0004370078Y0004881889D02*
X0001442421Y0003478389D03*
X0000842421Y0003477889D03*
X0001042421Y0003477889D03*
X0001242421Y0003478389D03*
X0000642421Y0003477889D03*
X0000742421Y0003677889D03*
X0000942421Y0003677889D03*
X0001342421Y0003677889D03*
X0001142421Y0003677889D03*
D27*
X0001198421Y0003579389D03*
D28*
X0001098421Y0003578389D03*
D29*
X0000998421Y0003577889D03*
D30*
X0000898421Y0003577889D03*
D31*
X0001397421Y0003578389D03*
X0000797421Y0003577889D03*
X0001297421Y0003577889D03*
X0000697421Y0003577889D03*
G04 next file*
G04 #@! TF.GenerationSoftware,KiCad,Pcbnew,(5.1.12)-1*
G04 #@! TF.CreationDate,2022-03-29T21:49:19+08:00*
G04 #@! TF.ProjectId,Nozzle,4e6f7a7a-6c65-42e6-9b69-6361645f7063,Gen3.1b*
G04 #@! TF.SameCoordinates,Original*
G04 #@! TF.FileFunction,Soldermask,Top*
G04 #@! TF.FilePolarity,Negative*
G04 Gerber Fmt 4.6, Leading zero omitted, Abs format (unit mm)*
G04 Created by KiCad (PCBNEW (5.1.12)-1) date 2022-03-29 21:49:19*
G01*
G04 APERTURE LIST*
G04 APERTURE END LIST*
D32*
X-0004656102Y0002990052D02*
X0000381897Y0000492052D03*
D33*
X0001103897Y0001130052D03*
X0001103897Y0001230052D03*
X0001003897Y0001130052D03*
X0001003897Y0001230052D03*
X0000903897Y0001130052D03*
X0000903897Y0001230052D03*
X0000803897Y0001130052D03*
X0000803897Y0001230052D03*
X0000703897Y0001130052D03*
X0000703897Y0001230052D03*
X0000603897Y0001130052D03*
X0000603897Y0001230052D03*
X0000503897Y0001130052D03*
X0000503897Y0001230052D03*
X0000403897Y0001130052D03*
D34*
X0000403897Y0001230052D03*
D35*
X0001423897Y0001243052D03*
X0000136897Y0001241052D03*
D36*
X0000676897Y0000592052D03*
X0001077397Y0000592052D03*
X0001176897Y0000393052D03*
X0000976897Y0000392052D03*
X0000776897Y0000392052D03*
X0000576897Y0000392052D03*
X0000476897Y0000592052D03*
X0000876897Y0000592052D03*
D35*
X0001030397Y0000834552D03*
X0001030397Y0000149552D03*
X0000534397Y0000834552D03*
X0001439897Y0000708552D03*
X0001439397Y0000275552D03*
X0000124897Y0000275552D03*
X0000533897Y0000149552D03*
X0000124897Y0000708552D03*
D36*
X0000376897Y0000392052D03*
D37*
X0000882897Y0000492052D03*
X0000982397Y0000492052D03*
X0000682897Y0000492052D03*
D32*
X0000482397Y0000492052D03*
D37*
X0000783397Y0000492052D03*
X0001082397Y0000492052D03*
X0001185897Y0000492052D03*
X0000582397Y0000492052D03*
G04 next file*
G04 #@! TF.GenerationSoftware,KiCad,Pcbnew,(5.1.12)-1*
G04 #@! TF.CreationDate,2022-03-29T21:49:19+08:00*
G04 #@! TF.ProjectId,Nozzle,4e6f7a7a-6c65-42e6-9b69-6361645f7063,Gen3.1b*
G04 #@! TF.SameCoordinates,Original*
G04 #@! TF.FileFunction,Soldermask,Top*
G04 #@! TF.FilePolarity,Negative*
G04 Gerber Fmt 4.6, Leading zero omitted, Abs format (unit mm)*
G04 Created by KiCad (PCBNEW (5.1.12)-1) date 2022-03-29 21:49:19*
G01*
G04 APERTURE LIST*
G04 APERTURE END LIST*
D38*
X-0003018397Y0002990052D02*
X0002019602Y0000492052D03*
D39*
X0002741602Y0001130052D03*
X0002741602Y0001230052D03*
X0002641602Y0001130052D03*
X0002641602Y0001230052D03*
X0002541602Y0001130052D03*
X0002541602Y0001230052D03*
X0002441602Y0001130052D03*
X0002441602Y0001230052D03*
X0002341602Y0001130052D03*
X0002341602Y0001230052D03*
X0002241602Y0001130052D03*
X0002241602Y0001230052D03*
X0002141602Y0001130052D03*
X0002141602Y0001230052D03*
X0002041602Y0001130052D03*
D40*
X0002041602Y0001230052D03*
D41*
X0003061602Y0001243052D03*
X0001774602Y0001241052D03*
D42*
X0002314602Y0000592052D03*
X0002715102Y0000592052D03*
X0002814602Y0000393052D03*
X0002614602Y0000392052D03*
X0002414602Y0000392052D03*
X0002214602Y0000392052D03*
X0002114602Y0000592052D03*
X0002514602Y0000592052D03*
D41*
X0002668102Y0000834552D03*
X0002668102Y0000149552D03*
X0002172102Y0000834552D03*
X0003077602Y0000708552D03*
X0003077102Y0000275552D03*
X0001762602Y0000275552D03*
X0002171602Y0000149552D03*
X0001762602Y0000708552D03*
D42*
X0002014602Y0000392052D03*
D43*
X0002520602Y0000492052D03*
X0002620102Y0000492052D03*
X0002320602Y0000492052D03*
D38*
X0002120102Y0000492052D03*
D43*
X0002421102Y0000492052D03*
X0002720102Y0000492052D03*
X0002823602Y0000492052D03*
X0002220102Y0000492052D03*
G04 next file*
G04 #@! TF.GenerationSoftware,KiCad,Pcbnew,(5.1.12)-1*
G04 #@! TF.CreationDate,2022-03-29T21:49:19+08:00*
G04 #@! TF.ProjectId,Nozzle,4e6f7a7a-6c65-42e6-9b69-6361645f7063,Gen3.1b*
G04 #@! TF.SameCoordinates,Original*
G04 #@! TF.FileFunction,Soldermask,Top*
G04 #@! TF.FilePolarity,Negative*
G04 Gerber Fmt 4.6, Leading zero omitted, Abs format (unit mm)*
G04 Created by KiCad (PCBNEW (5.1.12)-1) date 2022-03-29 21:49:19*
G01*
G04 APERTURE LIST*
G04 APERTURE END LIST*
D44*
X-0004656102Y0004446746D02*
X0000381897Y0001948746D03*
D45*
X0001103897Y0002586746D03*
X0001103897Y0002686746D03*
X0001003897Y0002586746D03*
X0001003897Y0002686746D03*
X0000903897Y0002586746D03*
X0000903897Y0002686746D03*
X0000803897Y0002586746D03*
X0000803897Y0002686746D03*
X0000703897Y0002586746D03*
X0000703897Y0002686746D03*
X0000603897Y0002586746D03*
X0000603897Y0002686746D03*
X0000503897Y0002586746D03*
X0000503897Y0002686746D03*
X0000403897Y0002586746D03*
D46*
X0000403897Y0002686746D03*
D47*
X0001423897Y0002699746D03*
X0000136897Y0002697746D03*
D48*
X0000676897Y0002048746D03*
X0001077397Y0002048746D03*
X0001176897Y0001849746D03*
X0000976897Y0001848746D03*
X0000776897Y0001848746D03*
X0000576897Y0001848746D03*
X0000476897Y0002048746D03*
X0000876897Y0002048746D03*
D47*
X0001030397Y0002291246D03*
X0001030397Y0001606246D03*
X0000534397Y0002291246D03*
X0001439897Y0002165246D03*
X0001439397Y0001732246D03*
X0000124897Y0001732246D03*
X0000533897Y0001606246D03*
X0000124897Y0002165246D03*
D48*
X0000376897Y0001848746D03*
D49*
X0000882897Y0001948746D03*
X0000982397Y0001948746D03*
X0000682897Y0001948746D03*
D44*
X0000482397Y0001948746D03*
D49*
X0000783397Y0001948746D03*
X0001082397Y0001948746D03*
X0001185897Y0001948746D03*
X0000582397Y0001948746D03*
G04 next file*
G04 #@! TF.GenerationSoftware,KiCad,Pcbnew,(5.1.12)-1*
G04 #@! TF.CreationDate,2022-03-29T21:49:19+08:00*
G04 #@! TF.ProjectId,Nozzle,4e6f7a7a-6c65-42e6-9b69-6361645f7063,Gen3.1b*
G04 #@! TF.SameCoordinates,Original*
G04 #@! TF.FileFunction,Soldermask,Top*
G04 #@! TF.FilePolarity,Negative*
G04 Gerber Fmt 4.6, Leading zero omitted, Abs format (unit mm)*
G04 Created by KiCad (PCBNEW (5.1.12)-1) date 2022-03-29 21:49:19*
G01*
G04 APERTURE LIST*
G04 APERTURE END LIST*
D50*
X-0003018397Y0004446746D02*
X0002019602Y0001948746D03*
D51*
X0002741602Y0002586746D03*
X0002741602Y0002686746D03*
X0002641602Y0002586746D03*
X0002641602Y0002686746D03*
X0002541602Y0002586746D03*
X0002541602Y0002686746D03*
X0002441602Y0002586746D03*
X0002441602Y0002686746D03*
X0002341602Y0002586746D03*
X0002341602Y0002686746D03*
X0002241602Y0002586746D03*
X0002241602Y0002686746D03*
X0002141602Y0002586746D03*
X0002141602Y0002686746D03*
X0002041602Y0002586746D03*
D52*
X0002041602Y0002686746D03*
D53*
X0003061602Y0002699746D03*
X0001774602Y0002697746D03*
D54*
X0002314602Y0002048746D03*
X0002715102Y0002048746D03*
X0002814602Y0001849746D03*
X0002614602Y0001848746D03*
X0002414602Y0001848746D03*
X0002214602Y0001848746D03*
X0002114602Y0002048746D03*
X0002514602Y0002048746D03*
D53*
X0002668102Y0002291246D03*
X0002668102Y0001606246D03*
X0002172102Y0002291246D03*
X0003077602Y0002165246D03*
X0003077102Y0001732246D03*
X0001762602Y0001732246D03*
X0002171602Y0001606246D03*
X0001762602Y0002165246D03*
D54*
X0002014602Y0001848746D03*
D55*
X0002520602Y0001948746D03*
X0002620102Y0001948746D03*
X0002320602Y0001948746D03*
D50*
X0002120102Y0001948746D03*
D55*
X0002421102Y0001948746D03*
X0002720102Y0001948746D03*
X0002823602Y0001948746D03*
X0002220102Y0001948746D03*
G04 next file*
G04 #@! TF.GenerationSoftware,KiCad,Pcbnew,(5.1.12)-1*
G04 #@! TF.CreationDate,2022-03-29T21:33:58+08:00*
G04 #@! TF.ProjectId,Nozzle,4e6f7a7a-6c65-42e6-9b69-6361645f7063,Gen3.1b*
G04 #@! TF.SameCoordinates,Original*
G04 #@! TF.FileFunction,Soldermask,Top*
G04 #@! TF.FilePolarity,Negative*
G04 Gerber Fmt 4.6, Leading zero omitted, Abs format (unit mm)*
G04 Created by KiCad (PCBNEW (5.1.12)-1) date 2022-03-29 21:33:58*
G01*
G04 APERTURE LIST*
G04 APERTURE END LIST*
D56*
X-0003273795Y0004403387D02*
X0002538704Y0002999887D03*
X0001938704Y0002999387D03*
X0002138704Y0002999387D03*
X0002338704Y0002999887D03*
X0001738704Y0002999387D03*
X0001838704Y0003199387D03*
X0002038704Y0003199387D03*
X0002438704Y0003199387D03*
X0002238704Y0003199387D03*
D57*
X0002294704Y0003100887D03*
D58*
X0002194704Y0003099887D03*
D59*
X0002094704Y0003099387D03*
D60*
X0001994704Y0003099387D03*
D61*
X0002493704Y0003099887D03*
X0001893704Y0003099387D03*
X0002393704Y0003099387D03*
X0001793704Y0003099387D03*
G04 next file*
G04 #@! TF.GenerationSoftware,KiCad,Pcbnew,(5.1.12)-1*
G04 #@! TF.CreationDate,2022-03-29T21:33:58+08:00*
G04 #@! TF.ProjectId,Nozzle,4e6f7a7a-6c65-42e6-9b69-6361645f7063,Gen3.1b*
G04 #@! TF.SameCoordinates,Original*
G04 #@! TF.FileFunction,Soldermask,Top*
G04 #@! TF.FilePolarity,Negative*
G04 Gerber Fmt 4.6, Leading zero omitted, Abs format (unit mm)*
G04 Created by KiCad (PCBNEW (5.1.12)-1) date 2022-03-29 21:33:58*
G01*
G04 APERTURE LIST*
G04 APERTURE END LIST*
D62*
X-0003273795Y0004857717D02*
X0002538704Y0003454217D03*
X0001938704Y0003453717D03*
X0002138704Y0003453717D03*
X0002338704Y0003454217D03*
X0001738704Y0003453717D03*
X0001838704Y0003653717D03*
X0002038704Y0003653717D03*
X0002438704Y0003653717D03*
X0002238704Y0003653717D03*
D63*
X0002294704Y0003555217D03*
D64*
X0002194704Y0003554217D03*
D65*
X0002094704Y0003553717D03*
D66*
X0001994704Y0003553717D03*
D67*
X0002493704Y0003554217D03*
X0001893704Y0003553717D03*
X0002393704Y0003553717D03*
X0001793704Y0003553717D03*
M02*