%MOIN*%
%OFA0B0*%
%FSLAX44Y44*%
%IPPOS*%
%LPD*%
%ADD10C,0*%
D10*
X00015589Y00012992D02*
X00015589Y00012992D01*
X00015579Y00013115D01*
X00015551Y00013235D01*
X00015503Y00013349D01*
X00015439Y00013454D01*
X00015359Y00013548D01*
X00015265Y00013629D01*
X00015159Y00013693D01*
X00015045Y00013740D01*
X00014925Y00013769D01*
X00014802Y00013779D01*
X00008991Y00013779D01*
X00008954Y00013781D01*
X00008917Y00013786D01*
X00008881Y00013795D01*
X00008846Y00013807D01*
X00008812Y00013822D01*
X00008780Y00013841D01*
X00008749Y00013862D01*
X00008721Y00013886D01*
X00008695Y00013913D01*
X00008672Y00013942D01*
X00008652Y00013973D01*
X00008634Y00014006D01*
X00008620Y00014040D01*
X00008609Y00014076D01*
X00008602Y00014112D01*
X00008598Y00014149D01*
X00008598Y00014186D01*
X00008601Y00014223D01*
X00008607Y00014260D01*
X00008617Y00014296D01*
X00008617Y00014296D01*
X00008626Y00014319D01*
X00008635Y00014342D01*
X00008647Y00014363D01*
X00008659Y00014385D01*
X00008673Y00014405D01*
X00008688Y00014424D01*
X00008705Y00014443D01*
X00008722Y00014460D01*
X00008741Y00014477D01*
X00008760Y00014492D01*
X00008781Y00014506D01*
X00008802Y00014518D01*
X00008824Y00014529D01*
X00008847Y00014539D01*
X00008870Y00014547D01*
X00008893Y00014554D01*
X00008918Y00014560D01*
X00008942Y00014563D01*
X00008966Y00014566D01*
X00008991Y00014566D01*
X00014802Y00014566D01*
X00014925Y00014576D01*
X00015045Y00014605D01*
X00015159Y00014652D01*
X00015265Y00014717D01*
X00015359Y00014797D01*
X00015439Y00014891D01*
X00015503Y00014996D01*
X00015551Y00015111D01*
X00015579Y00015231D01*
X00015589Y00015354D01*
X00015589Y00020259D01*
X00015589Y00020259D01*
X00015594Y00020321D01*
X00015608Y00020381D01*
X00015632Y00020438D01*
X00015664Y00020491D01*
X00015704Y00020538D01*
X00015751Y00020578D01*
X00015804Y00020610D01*
X00015861Y00020634D01*
X00015921Y00020648D01*
X00015983Y00020653D01*
X00016044Y00020648D01*
X00016105Y00020634D01*
X00016162Y00020610D01*
X00016214Y00020578D01*
X00016261Y00020538D01*
X00016301Y00020491D01*
X00016334Y00020438D01*
X00016357Y00020381D01*
X00016372Y00020321D01*
X00016377Y00020259D01*
X00016377Y00015354D01*
X00016386Y00015231D01*
X00016415Y00015111D01*
X00016462Y00014996D01*
X00016527Y00014891D01*
X00016607Y00014797D01*
X00016701Y00014717D01*
X00016806Y00014652D01*
X00016921Y00014605D01*
X00017041Y00014576D01*
X00017164Y00014566D01*
X00022975Y00014566D01*
X00022999Y00014566D01*
X00023024Y00014563D01*
X00023048Y00014560D01*
X00023072Y00014554D01*
X00023096Y00014547D01*
X00023119Y00014539D01*
X00023142Y00014529D01*
X00023164Y00014518D01*
X00023185Y00014506D01*
X00023205Y00014492D01*
X00023225Y00014477D01*
X00023243Y00014460D01*
X00023261Y00014443D01*
X00023277Y00014424D01*
X00023292Y00014405D01*
X00023306Y00014385D01*
X00023319Y00014363D01*
X00023330Y00014342D01*
X00023340Y00014319D01*
X00023349Y00014296D01*
X00023349Y00014296D01*
X00023359Y00014260D01*
X00023365Y00014223D01*
X00023368Y00014186D01*
X00023368Y00014149D01*
X00023364Y00014112D01*
X00023356Y00014076D01*
X00023345Y00014040D01*
X00023331Y00014006D01*
X00023314Y00013973D01*
X00023294Y00013942D01*
X00023270Y00013913D01*
X00023245Y00013886D01*
X00023216Y00013862D01*
X00023186Y00013841D01*
X00023154Y00013822D01*
X00023120Y00013807D01*
X00023085Y00013795D01*
X00023049Y00013786D01*
X00023012Y00013781D01*
X00022975Y00013779D01*
X00017164Y00013779D01*
X00017041Y00013769D01*
X00016921Y00013740D01*
X00016806Y00013693D01*
X00016701Y00013629D01*
X00016607Y00013548D01*
X00016527Y00013454D01*
X00016462Y00013349D01*
X00016415Y00013235D01*
X00016386Y00013115D01*
X00016377Y00012992D01*
X00016377Y00008086D01*
X00016372Y00008024D01*
X00016357Y00007964D01*
X00016334Y00007907D01*
X00016301Y00007855D01*
X00016261Y00007808D01*
X00016214Y00007768D01*
X00016162Y00007735D01*
X00016105Y00007712D01*
X00016044Y00007697D01*
X00015983Y00007692D01*
X00015921Y00007697D01*
X00015861Y00007712D01*
X00015804Y00007735D01*
X00015751Y00007768D01*
X00015704Y00007808D01*
X00015664Y00007855D01*
X00015632Y00007907D01*
X00015608Y00007964D01*
X00015594Y00008024D01*
X00015983Y00008086D01*
X00015589Y00008086D01*
X00015589Y00012992D01*
X00015573Y00032137D02*
X00015573Y00032137D01*
X00015573Y00032969D01*
X00011308Y00032969D01*
X00011276Y00032970D01*
X00011244Y00032974D01*
X00011213Y00032980D01*
X00011182Y00032989D01*
X00011152Y00033001D01*
X00011123Y00033015D01*
X00011096Y00033031D01*
X00011069Y00033049D01*
X00011045Y00033069D01*
X00011022Y00033092D01*
X00011001Y00033116D01*
X00010982Y00033142D01*
X00010965Y00033169D01*
X00010950Y00033197D01*
X00010938Y00033227D01*
X00010928Y00033257D01*
X00010921Y00033289D01*
X00010916Y00033320D01*
X00010914Y00033352D01*
X00010915Y00033384D01*
X00010925Y00033565D01*
X00010928Y00033595D01*
X00010933Y00033624D01*
X00010940Y00033653D01*
X00010949Y00033682D01*
X00010961Y00033709D01*
X00010974Y00033736D01*
X00010990Y00033761D01*
X00011007Y00033785D01*
X00011027Y00033808D01*
X00011047Y00033829D01*
X00011070Y00033849D01*
X00011094Y00033867D01*
X00011119Y00033883D01*
X00011145Y00033897D01*
X00011172Y00033909D01*
X00011200Y00033919D01*
X00011229Y00033927D01*
X00011259Y00033933D01*
X00011288Y00033936D01*
X00011318Y00033937D01*
X00015573Y00033937D01*
X00015573Y00034397D01*
X00015575Y00034438D01*
X00015581Y00034478D01*
X00015591Y00034517D01*
X00015606Y00034555D01*
X00015624Y00034591D01*
X00015645Y00034625D01*
X00015671Y00034657D01*
X00015699Y00034686D01*
X00015730Y00034712D01*
X00015763Y00034735D01*
X00015799Y00034754D01*
X00015837Y00034769D01*
X00015876Y00034780D01*
X00015915Y00034788D01*
X00015956Y00034791D01*
X00015996Y00034790D01*
X00016036Y00034785D01*
X00016076Y00034775D01*
X00016114Y00034762D01*
X00016151Y00034745D01*
X00016309Y00034661D01*
X00016328Y00034651D01*
X00016346Y00034639D01*
X00016363Y00034627D01*
X00016380Y00034614D01*
X00016396Y00034599D01*
X00016411Y00034584D01*
X00016425Y00034568D01*
X00016438Y00034552D01*
X00016451Y00034534D01*
X00016462Y00034516D01*
X00016473Y00034498D01*
X00016482Y00034479D01*
X00016491Y00034459D01*
X00016498Y00034439D01*
X00016504Y00034419D01*
X00016509Y00034398D01*
X00016513Y00034377D01*
X00016516Y00034356D01*
X00016518Y00034335D01*
X00016519Y00034313D01*
X00016519Y00033937D01*
X00019783Y00033937D01*
X00019811Y00033936D01*
X00019838Y00033933D01*
X00019864Y00033929D01*
X00019891Y00033922D01*
X00019917Y00033914D01*
X00019942Y00033904D01*
X00019966Y00033892D01*
X00019990Y00033879D01*
X00020012Y00033864D01*
X00020034Y00033847D01*
X00020054Y00033829D01*
X00020073Y00033810D01*
X00020091Y00033789D01*
X00020107Y00033767D01*
X00020122Y00033745D01*
X00020135Y00033721D01*
X00020146Y00033696D01*
X00020156Y00033671D01*
X00020164Y00033645D01*
X00020170Y00033618D01*
X00020220Y00033358D01*
X00020225Y00033324D01*
X00020227Y00033289D01*
X00020226Y00033254D01*
X00020222Y00033220D01*
X00020215Y00033186D01*
X00020205Y00033153D01*
X00020192Y00033120D01*
X00020177Y00033090D01*
X00020158Y00033060D01*
X00020138Y00033032D01*
X00020114Y00033007D01*
X00020089Y00032983D01*
X00020062Y00032962D01*
X00020032Y00032943D01*
X00020002Y00032927D01*
X00019970Y00032913D01*
X00019937Y00032903D01*
X00019903Y00032895D01*
X00019868Y00032891D01*
X00019834Y00032889D01*
X00016377Y00032889D01*
X00016377Y00032259D01*
X00016377Y00032257D01*
X00016377Y00032254D01*
X00016376Y00032251D01*
X00016376Y00032249D01*
X00016376Y00032246D01*
X00016376Y00032244D01*
X00016376Y00032241D01*
X00016376Y00032238D01*
X00016376Y00032236D01*
X00016376Y00032233D01*
X00016375Y00032231D01*
X00016375Y00032228D01*
X00016375Y00032225D01*
X00016375Y00032223D01*
X00016375Y00032220D01*
X00016374Y00032218D01*
X00016374Y00032215D01*
X00016374Y00032212D01*
X00016373Y00032210D01*
X00016373Y00032207D01*
X00016357Y00032085D01*
X00016345Y00032027D01*
X00016324Y00031972D01*
X00016295Y00031920D01*
X00016259Y00031873D01*
X00016216Y00031833D01*
X00016167Y00031799D01*
X00016114Y00031772D01*
X00016058Y00031754D01*
X00016000Y00031745D01*
X00015940Y00031744D01*
X00015882Y00031753D01*
X00015825Y00031770D01*
X00015772Y00031795D01*
X00015723Y00031828D01*
X00015679Y00031868D01*
X00015642Y00031914D01*
X00015612Y00031965D01*
X00015591Y00032021D01*
X00015577Y00032078D01*
X00015573Y00032137D01*
X00011403Y00029213D02*
X00011403Y00029213D01*
X00015573Y00029213D01*
X00015573Y00030067D01*
X00015577Y00030126D01*
X00015591Y00030183D01*
X00015612Y00030238D01*
X00015642Y00030289D01*
X00015679Y00030336D01*
X00015723Y00030376D01*
X00015772Y00030409D01*
X00015825Y00030434D01*
X00015882Y00030451D01*
X00015940Y00030459D01*
X00016000Y00030459D01*
X00016058Y00030449D01*
X00016114Y00030431D01*
X00016167Y00030405D01*
X00016216Y00030371D01*
X00016259Y00030330D01*
X00016295Y00030284D01*
X00016324Y00030232D01*
X00016345Y00030177D01*
X00016357Y00030119D01*
X00016373Y00029997D01*
X00016373Y00029994D01*
X00016374Y00029991D01*
X00016374Y00029989D01*
X00016374Y00029986D01*
X00016375Y00029984D01*
X00016375Y00029981D01*
X00016375Y00029978D01*
X00016375Y00029976D01*
X00016375Y00029973D01*
X00016376Y00029971D01*
X00016376Y00029968D01*
X00016376Y00029965D01*
X00016376Y00029963D01*
X00016376Y00029960D01*
X00016376Y00029958D01*
X00016376Y00029955D01*
X00016376Y00029952D01*
X00016377Y00029950D01*
X00016377Y00029947D01*
X00016377Y00029944D01*
X00016377Y00029133D01*
X00019669Y00029133D01*
X00019730Y00029129D01*
X00019791Y00029114D01*
X00019848Y00029090D01*
X00019900Y00029058D01*
X00019947Y00029018D01*
X00019987Y00028971D01*
X00020020Y00028918D01*
X00020043Y00028861D01*
X00020058Y00028801D01*
X00020063Y00028740D01*
X00020058Y00028678D01*
X00020043Y00028618D01*
X00020020Y00028561D01*
X00019987Y00028508D01*
X00019947Y00028461D01*
X00019900Y00028421D01*
X00019848Y00028389D01*
X00019791Y00028365D01*
X00019730Y00028351D01*
X00019669Y00028346D01*
X00019669Y00028346D01*
X00017164Y00028346D01*
X00017041Y00028336D01*
X00016921Y00028307D01*
X00016806Y00028260D01*
X00016701Y00028196D01*
X00016607Y00028115D01*
X00016527Y00028021D01*
X00016462Y00027916D01*
X00016415Y00027802D01*
X00016386Y00027682D01*
X00016377Y00027559D01*
X00016377Y00022653D01*
X00016372Y00022591D01*
X00016357Y00022531D01*
X00016334Y00022474D01*
X00016301Y00022422D01*
X00016261Y00022375D01*
X00016214Y00022334D01*
X00016162Y00022302D01*
X00016105Y00022279D01*
X00016044Y00022264D01*
X00015983Y00022259D01*
X00015921Y00022264D01*
X00015861Y00022279D01*
X00015804Y00022302D01*
X00015751Y00022334D01*
X00015704Y00022375D01*
X00015664Y00022422D01*
X00015632Y00022474D01*
X00015608Y00022531D01*
X00015594Y00022591D01*
X00015983Y00022653D01*
X00015589Y00022653D01*
X00015589Y00027559D01*
X00015579Y00027682D01*
X00015551Y00027802D01*
X00015503Y00027916D01*
X00015439Y00028021D01*
X00015359Y00028115D01*
X00015265Y00028196D01*
X00015159Y00028260D01*
X00015045Y00028307D01*
X00014925Y00028336D01*
X00014802Y00028346D01*
X00011432Y00028346D01*
X00011408Y00028347D01*
X00011385Y00028349D01*
X00011361Y00028353D01*
X00011337Y00028358D01*
X00011314Y00028364D01*
X00011292Y00028372D01*
X00011270Y00028381D01*
X00011248Y00028392D01*
X00011227Y00028404D01*
X00011207Y00028417D01*
X00011188Y00028431D01*
X00011169Y00028447D01*
X00011152Y00028463D01*
X00011136Y00028481D01*
X00011121Y00028499D01*
X00011107Y00028519D01*
X00011094Y00028539D01*
X00011082Y00028560D01*
X00011072Y00028582D01*
X00011063Y00028604D01*
X00011034Y00028683D01*
X00011022Y00028720D01*
X00011015Y00028757D01*
X00011010Y00028794D01*
X00011010Y00028832D01*
X00011013Y00028870D01*
X00011020Y00028907D01*
X00011030Y00028943D01*
X00011043Y00028979D01*
X00011060Y00029012D01*
X00011081Y00029044D01*
X00011104Y00029074D01*
X00011130Y00029102D01*
X00011158Y00029127D01*
X00011189Y00029149D01*
X00011221Y00029168D01*
X00011256Y00029184D01*
X00011291Y00029196D01*
X00011328Y00029205D01*
X00011366Y00029211D01*
X00011403Y00029213D01*
X00005495Y00032969D02*
X00005495Y00032969D01*
X00005495Y00029213D01*
X00009068Y00029213D01*
X00009106Y00029211D01*
X00009143Y00029205D01*
X00009180Y00029196D01*
X00009216Y00029184D01*
X00009250Y00029168D01*
X00009283Y00029149D01*
X00009313Y00029127D01*
X00009342Y00029102D01*
X00009368Y00029074D01*
X00009391Y00029044D01*
X00009411Y00029012D01*
X00009428Y00028979D01*
X00009442Y00028943D01*
X00009452Y00028907D01*
X00009458Y00028870D01*
X00009462Y00028832D01*
X00009461Y00028794D01*
X00009457Y00028757D01*
X00009449Y00028720D01*
X00009438Y00028683D01*
X00009409Y00028604D01*
X00009400Y00028582D01*
X00009389Y00028560D01*
X00009378Y00028539D01*
X00009365Y00028519D01*
X00009351Y00028499D01*
X00009336Y00028481D01*
X00009319Y00028463D01*
X00009302Y00028447D01*
X00009284Y00028431D01*
X00009264Y00028417D01*
X00009244Y00028404D01*
X00009223Y00028392D01*
X00009202Y00028381D01*
X00009180Y00028372D01*
X00009157Y00028364D01*
X00009134Y00028358D01*
X00009111Y00028353D01*
X00009087Y00028349D01*
X00009063Y00028347D01*
X00009039Y00028346D01*
X00000787Y00028346D01*
X00000664Y00028336D01*
X00000544Y00028307D01*
X00000429Y00028260D01*
X00000324Y00028196D01*
X00000230Y00028115D01*
X00000150Y00028021D01*
X00000085Y00027916D01*
X00000038Y00027802D01*
X00000009Y00027682D01*
X00000000Y00027559D01*
X00000000Y00015354D01*
X00000009Y00015231D01*
X00000038Y00015111D01*
X00000085Y00014996D01*
X00000150Y00014891D01*
X00000230Y00014797D01*
X00000324Y00014717D01*
X00000429Y00014652D01*
X00000544Y00014605D01*
X00000664Y00014576D01*
X00000787Y00014566D01*
X00006598Y00014566D01*
X00006622Y00014566D01*
X00006647Y00014563D01*
X00006671Y00014560D01*
X00006695Y00014554D01*
X00006719Y00014547D01*
X00006742Y00014539D01*
X00006765Y00014529D01*
X00006787Y00014518D01*
X00006808Y00014506D01*
X00006828Y00014492D01*
X00006848Y00014477D01*
X00006866Y00014460D01*
X00006884Y00014443D01*
X00006900Y00014424D01*
X00006915Y00014405D01*
X00006929Y00014385D01*
X00006942Y00014363D01*
X00006953Y00014342D01*
X00006963Y00014319D01*
X00006972Y00014296D01*
X00006972Y00014296D01*
X00006981Y00014260D01*
X00006988Y00014223D01*
X00006991Y00014186D01*
X00006991Y00014149D01*
X00006987Y00014112D01*
X00006979Y00014076D01*
X00006968Y00014040D01*
X00006954Y00014006D01*
X00006937Y00013973D01*
X00006917Y00013942D01*
X00006893Y00013913D01*
X00006868Y00013886D01*
X00006839Y00013862D01*
X00006809Y00013841D01*
X00006777Y00013822D01*
X00006743Y00013807D01*
X00006708Y00013795D01*
X00006671Y00013786D01*
X00006635Y00013781D01*
X00006598Y00013779D01*
X00000787Y00013779D01*
X00000664Y00013769D01*
X00000544Y00013740D01*
X00000429Y00013693D01*
X00000324Y00013629D01*
X00000230Y00013548D01*
X00000150Y00013454D01*
X00000085Y00013349D01*
X00000038Y00013235D01*
X00000009Y00013115D01*
X00000000Y00012992D01*
X00000000Y00000787D01*
X00000009Y00000664D01*
X00000038Y00000544D01*
X00000085Y00000429D01*
X00000150Y00000324D01*
X00000230Y00000230D01*
X00000324Y00000150D01*
X00000429Y00000085D01*
X00000544Y00000038D01*
X00000664Y00000009D01*
X00000787Y00000000D01*
X00014802Y00000000D01*
X00014925Y00000009D01*
X00015045Y00000038D01*
X00015159Y00000085D01*
X00015265Y00000150D01*
X00015359Y00000230D01*
X00015439Y00000324D01*
X00015503Y00000429D01*
X00015551Y00000544D01*
X00015579Y00000664D01*
X00015589Y00000787D01*
X00015589Y00005693D01*
X00015589Y00005693D01*
X00015594Y00005754D01*
X00015608Y00005814D01*
X00015632Y00005871D01*
X00015664Y00005924D01*
X00015704Y00005971D01*
X00015751Y00006011D01*
X00015804Y00006043D01*
X00015861Y00006067D01*
X00015921Y00006081D01*
X00015983Y00006086D01*
X00016044Y00006081D01*
X00016105Y00006067D01*
X00016162Y00006043D01*
X00016214Y00006011D01*
X00016261Y00005971D01*
X00016301Y00005924D01*
X00016334Y00005871D01*
X00016357Y00005814D01*
X00016372Y00005754D01*
X00016377Y00005693D01*
X00016377Y00000787D01*
X00016386Y00000664D01*
X00016415Y00000544D01*
X00016462Y00000429D01*
X00016527Y00000324D01*
X00016607Y00000230D01*
X00016701Y00000150D01*
X00016806Y00000085D01*
X00016921Y00000038D01*
X00017041Y00000009D01*
X00017164Y00000000D01*
X00031179Y00000000D01*
X00031302Y00000009D01*
X00031422Y00000038D01*
X00031536Y00000085D01*
X00031642Y00000150D01*
X00031736Y00000230D01*
X00031816Y00000324D01*
X00031880Y00000429D01*
X00031928Y00000544D01*
X00031956Y00000664D01*
X00031966Y00000787D01*
X00031966Y00012992D01*
X00031956Y00013115D01*
X00031928Y00013235D01*
X00031880Y00013349D01*
X00031816Y00013454D01*
X00031736Y00013548D01*
X00031642Y00013629D01*
X00031536Y00013693D01*
X00031422Y00013740D01*
X00031302Y00013769D01*
X00031179Y00013779D01*
X00025368Y00013779D01*
X00025331Y00013781D01*
X00025294Y00013786D01*
X00025258Y00013795D01*
X00025223Y00013807D01*
X00025189Y00013822D01*
X00025157Y00013841D01*
X00025126Y00013862D01*
X00025098Y00013886D01*
X00025072Y00013913D01*
X00025049Y00013942D01*
X00025029Y00013973D01*
X00025012Y00014006D01*
X00024997Y00014040D01*
X00024987Y00014076D01*
X00024979Y00014112D01*
X00024975Y00014149D01*
X00024975Y00014186D01*
X00024978Y00014223D01*
X00024984Y00014260D01*
X00024994Y00014296D01*
X00024994Y00014296D01*
X00025003Y00014319D01*
X00025012Y00014342D01*
X00025024Y00014363D01*
X00025036Y00014385D01*
X00025050Y00014405D01*
X00025065Y00014424D01*
X00025082Y00014443D01*
X00025099Y00014460D01*
X00025118Y00014477D01*
X00025137Y00014492D01*
X00025158Y00014506D01*
X00025179Y00014518D01*
X00025201Y00014529D01*
X00025224Y00014539D01*
X00025247Y00014547D01*
X00025270Y00014554D01*
X00025295Y00014560D01*
X00025319Y00014563D01*
X00025343Y00014566D01*
X00025368Y00014566D01*
X00031179Y00014566D01*
X00031302Y00014576D01*
X00031422Y00014605D01*
X00031536Y00014652D01*
X00031642Y00014717D01*
X00031736Y00014797D01*
X00031816Y00014891D01*
X00031880Y00014996D01*
X00031928Y00015111D01*
X00031956Y00015231D01*
X00031966Y00015354D01*
X00031966Y00027559D01*
X00031956Y00027682D01*
X00031928Y00027802D01*
X00031880Y00027916D01*
X00031816Y00028021D01*
X00031736Y00028115D01*
X00031642Y00028196D01*
X00031536Y00028260D01*
X00031422Y00028307D01*
X00031302Y00028336D01*
X00031179Y00028346D01*
X00022062Y00028346D01*
X00022062Y00028346D01*
X00022001Y00028351D01*
X00021941Y00028365D01*
X00021884Y00028389D01*
X00021831Y00028421D01*
X00021784Y00028461D01*
X00021744Y00028508D01*
X00021712Y00028561D01*
X00021688Y00028618D01*
X00021674Y00028678D01*
X00021669Y00028740D01*
X00021674Y00028801D01*
X00021688Y00028861D01*
X00021712Y00028918D01*
X00021744Y00028971D01*
X00021784Y00029018D01*
X00021831Y00029058D01*
X00021884Y00029090D01*
X00021941Y00029114D01*
X00022001Y00029129D01*
X00022062Y00029133D01*
X00026454Y00029133D01*
X00026454Y00032889D01*
X00021897Y00032889D01*
X00021863Y00032891D01*
X00021828Y00032895D01*
X00021795Y00032903D01*
X00021762Y00032913D01*
X00021730Y00032927D01*
X00021699Y00032943D01*
X00021670Y00032962D01*
X00021642Y00032983D01*
X00021617Y00033007D01*
X00021594Y00033032D01*
X00021573Y00033060D01*
X00021555Y00033090D01*
X00021539Y00033120D01*
X00021526Y00033153D01*
X00021516Y00033186D01*
X00021509Y00033220D01*
X00021505Y00033254D01*
X00021504Y00033289D01*
X00021506Y00033324D01*
X00021511Y00033358D01*
X00021561Y00033618D01*
X00021567Y00033645D01*
X00021575Y00033671D01*
X00021585Y00033696D01*
X00021596Y00033721D01*
X00021609Y00033745D01*
X00021624Y00033767D01*
X00021640Y00033789D01*
X00021658Y00033810D01*
X00021677Y00033829D01*
X00021697Y00033847D01*
X00021719Y00033864D01*
X00021741Y00033879D01*
X00021765Y00033892D01*
X00021790Y00033904D01*
X00021815Y00033914D01*
X00021841Y00033922D01*
X00021867Y00033929D01*
X00021894Y00033933D01*
X00021921Y00033936D01*
X00021948Y00033937D01*
X00026596Y00033937D01*
X00026596Y00037693D01*
X00016519Y00037693D01*
X00016519Y00036552D01*
X00016518Y00036530D01*
X00016516Y00036509D01*
X00016513Y00036488D01*
X00016509Y00036467D01*
X00016504Y00036446D01*
X00016498Y00036426D01*
X00016491Y00036406D01*
X00016482Y00036386D01*
X00016473Y00036367D01*
X00016462Y00036349D01*
X00016451Y00036331D01*
X00016438Y00036313D01*
X00016425Y00036297D01*
X00016411Y00036281D01*
X00016396Y00036266D01*
X00016380Y00036252D01*
X00016363Y00036238D01*
X00016346Y00036226D01*
X00016328Y00036214D01*
X00016309Y00036204D01*
X00016151Y00036120D01*
X00016114Y00036103D01*
X00016076Y00036090D01*
X00016036Y00036080D01*
X00015996Y00036075D01*
X00015956Y00036074D01*
X00015915Y00036078D01*
X00015876Y00036085D01*
X00015837Y00036096D01*
X00015799Y00036112D01*
X00015763Y00036131D01*
X00015730Y00036153D01*
X00015699Y00036179D01*
X00015671Y00036208D01*
X00015645Y00036240D01*
X00015624Y00036274D01*
X00015606Y00036310D01*
X00015591Y00036348D01*
X00015581Y00036387D01*
X00015575Y00036427D01*
X00015573Y00036468D01*
X00015573Y00037693D01*
X00005495Y00037693D01*
X00005495Y00033937D01*
X00009153Y00033937D01*
X00009183Y00033936D01*
X00009213Y00033933D01*
X00009242Y00033927D01*
X00009271Y00033919D01*
X00009299Y00033909D01*
X00009326Y00033897D01*
X00009353Y00033883D01*
X00009378Y00033867D01*
X00009402Y00033849D01*
X00009424Y00033829D01*
X00009445Y00033808D01*
X00009464Y00033785D01*
X00009482Y00033761D01*
X00009497Y00033736D01*
X00009511Y00033709D01*
X00009522Y00033682D01*
X00009532Y00033653D01*
X00009539Y00033624D01*
X00009544Y00033595D01*
X00009547Y00033565D01*
X00009557Y00033384D01*
X00009557Y00033352D01*
X00009555Y00033320D01*
X00009550Y00033289D01*
X00009543Y00033257D01*
X00009533Y00033227D01*
X00009521Y00033197D01*
X00009506Y00033169D01*
X00009490Y00033142D01*
X00009471Y00033116D01*
X00009450Y00033092D01*
X00009427Y00033069D01*
X00009402Y00033049D01*
X00009376Y00033031D01*
X00009348Y00033015D01*
X00009319Y00033001D01*
X00009289Y00032989D01*
X00009259Y00032980D01*
X00009227Y00032974D01*
X00009196Y00032970D01*
X00009164Y00032969D01*
X00005495Y00032969D01*
M02*