%
M48
METRIC,000.000
T01C0.50
%
T01
X022659Y035250
X021659Y035250
X020659Y035250
X019659Y035250
X018659Y035250
X017659Y035250
X017279Y036750
X018279Y036750
X019279Y036750
X020279Y036750
X021279Y036750
X022279Y036750
X039847Y014469
X039847Y015469
X039847Y016469
X039847Y017469
X039847Y018469
X039847Y019469
X039847Y020469
X041347Y020189
X041347Y019189
X041347Y018189
X041347Y017189
X041347Y016189
X041347Y015189
X055256Y072250
X054256Y072250
X053256Y072250
X052256Y072250
X051256Y072250
X050256Y072250
X050349Y073750
X051349Y073750
X052349Y073750
X053349Y073750
X054349Y073750
X055349Y073750
X039847Y051469
X039847Y052469
X039847Y053469
X039847Y054469
X039847Y055469
X039847Y056469
X039847Y057469
X041347Y057189
X041347Y056189
X041347Y055189
X041347Y054189
X041347Y053189
X041347Y052189
X064256Y035250
X063256Y035250
X062256Y035250
X061256Y035250
X060256Y035250
X059256Y035250
X058877Y036750
X059877Y036750
X060877Y036750
X061877Y036750
X062877Y036750
X063877Y036750
X023710Y073951
X024710Y073951
X025710Y073951
X026710Y073951
X027710Y073951
X028710Y073951
X028659Y072250
X027659Y072250
X026659Y072250
X025659Y072250
X024659Y072250
X023659Y072250
X027881Y083991
X026881Y083991
X025881Y083991
X024881Y083991
X023881Y083991
X023710Y085951
X024710Y085951
X025710Y085951
X026710Y085951
X027710Y085951
X028710Y085951
X055520Y083790
X054520Y083790
X053520Y083790
X052520Y083790
X051520Y083790
X050520Y083790
X050710Y085951
X051710Y085951
X052710Y085951
X053710Y085951
X054710Y085951
X055710Y085951
X039806Y087808
X039806Y088808
X039806Y089808
X039806Y090808
X039806Y091808
X041708Y092057
X041708Y091057
X041708Y090057
X041708Y089057
X041708Y088057
X039806Y076808
X039806Y077808
X039806Y078808
X039806Y079808
X039806Y080808
X041347Y081855
X041347Y080855
X041347Y079855
X041347Y078855
X041347Y077855
X041347Y076855
M30