%MOIN*%
%OFA0B0*%
%FSLAX46Y46*%
%IPPOS*%
%LPD*%
%ADD10C,0.086614173228346469*%
%ADD21C,0.0039370078740157488*%
%ADD22C,0.086614173228346469*%
%ADD23O,0.066929133858267723X0.066929133858267723*%
%ADD24R,0.066929133858267723X0.066929133858267723*%
%ADD25R,0.015748031496062995X0.059055118110236227*%
%ADD26C,0.05*%
%ADD27C,0.086614173228346469*%
%ADD28C,0.086614173228346469*%
%ADD29C,0.086614173228346469*%
%ADD30C,0.05*%
%ADD31C,0.01968503937007874*%
%ADD32C,0.015748031496062995*%
%ADD33C,0.011811023622047244*%
%ADD34C,0.00984251968503937*%
%ADD35C,0.033464566929133861*%
%ADD36C,0.05*%
%ADD37C,0.01968503937007874*%
%ADD38C,0.015748031496062995*%
%ADD39C,0.011811023622047244*%
%ADD40C,0.00984251968503937*%
%ADD41C,0.033464566929133861*%
%ADD42C,0.086614173228346469*%
G01*
D10*
X-0004461811Y0005196850D02*
X0001836688Y0000494850D03*
X0000119688Y0000494850D03*
X0001224688Y0000153350D03*
X0000315188Y0000279350D03*
X0001637688Y0000712350D03*
X0001224688Y0000838350D03*
X0000315188Y0000712350D03*
X0000728688Y0000838350D03*
X0000728688Y0000153350D03*
X0001637688Y0000279350D03*
G04 next file*
G04 #@! TF.GenerationSoftware,KiCad,Pcbnew,(5.1.12)-1*
G04 #@! TF.CreationDate,2022-03-26T22:13:32+08:00*
G04 #@! TF.ProjectId,Nozzle,4e6f7a7a-6c65-42e6-9b69-6361645f7063,0.5*
G04 #@! TF.SameCoordinates,Original*
G04 #@! TF.FileFunction,Soldermask,Bot*
G04 #@! TF.FilePolarity,Negative*
G04 Gerber Fmt 4.6, Leading zero omitted, Abs format (unit mm)*
G04 Created by KiCad (PCBNEW (5.1.12)-1) date 2022-03-26 22:13:32*
G01*
G04 APERTURE LIST*
G04 APERTURE END LIST*
D21*
G36*
X0002682200Y0002697381D02*
G01*
X0002697948Y0002697381D01*
X0002697948Y0002638326D01*
X0002682200Y0002638326D01*
X0002682200Y0002697381D01*
G37*
X0002682200Y0002697381D02*
X0002697948Y0002697381D01*
X0002697948Y0002638326D01*
X0002682200Y0002638326D01*
X0002682200Y0002697381D01*
G36*
X0002639681Y0002681633D02*
G01*
X0002655429Y0002681633D01*
X0002655429Y0002622578D01*
X0002639681Y0002622578D01*
X0002639681Y0002681633D01*
G37*
X0002639681Y0002681633D02*
X0002655429Y0002681633D01*
X0002655429Y0002622578D01*
X0002639681Y0002622578D01*
X0002639681Y0002681633D01*
G36*
X0002782200Y0002696381D02*
G01*
X0002797948Y0002696381D01*
X0002797948Y0002637326D01*
X0002782200Y0002637326D01*
X0002782200Y0002696381D01*
G37*
X0002782200Y0002696381D02*
X0002797948Y0002696381D01*
X0002797948Y0002637326D01*
X0002782200Y0002637326D01*
X0002782200Y0002696381D01*
G36*
X0002739681Y0002680633D02*
G01*
X0002755429Y0002680633D01*
X0002755429Y0002621578D01*
X0002739681Y0002621578D01*
X0002739681Y0002680633D01*
G37*
X0002739681Y0002680633D02*
X0002755429Y0002680633D01*
X0002755429Y0002621578D01*
X0002739681Y0002621578D01*
X0002739681Y0002680633D01*
G36*
X0002882700Y0002696881D02*
G01*
X0002898448Y0002696881D01*
X0002898448Y0002637826D01*
X0002882700Y0002637826D01*
X0002882700Y0002696881D01*
G37*
X0002882700Y0002696881D02*
X0002898448Y0002696881D01*
X0002898448Y0002637826D01*
X0002882700Y0002637826D01*
X0002882700Y0002696881D01*
G36*
X0002840181Y0002681133D02*
G01*
X0002855929Y0002681133D01*
X0002855929Y0002622078D01*
X0002840181Y0002622078D01*
X0002840181Y0002681133D01*
G37*
X0002840181Y0002681133D02*
X0002855929Y0002681133D01*
X0002855929Y0002622078D01*
X0002840181Y0002622078D01*
X0002840181Y0002681133D01*
G36*
X0002983200Y0002696881D02*
G01*
X0002998948Y0002696881D01*
X0002998948Y0002637826D01*
X0002983200Y0002637826D01*
X0002983200Y0002696881D01*
G37*
X0002983200Y0002696881D02*
X0002998948Y0002696881D01*
X0002998948Y0002637826D01*
X0002983200Y0002637826D01*
X0002983200Y0002696881D01*
G36*
X0002940681Y0002681133D02*
G01*
X0002956429Y0002681133D01*
X0002956429Y0002622078D01*
X0002940681Y0002622078D01*
X0002940681Y0002681133D01*
G37*
X0002940681Y0002681133D02*
X0002956429Y0002681133D01*
X0002956429Y0002622078D01*
X0002940681Y0002622078D01*
X0002940681Y0002681133D01*
G36*
X0002581700Y0002696881D02*
G01*
X0002597448Y0002696881D01*
X0002597448Y0002637826D01*
X0002581700Y0002637826D01*
X0002581700Y0002696881D01*
G37*
X0002581700Y0002696881D02*
X0002597448Y0002696881D01*
X0002597448Y0002637826D01*
X0002581700Y0002637826D01*
X0002581700Y0002696881D01*
G36*
X0002539181Y0002681133D02*
G01*
X0002554929Y0002681133D01*
X0002554929Y0002622078D01*
X0002539181Y0002622078D01*
X0002539181Y0002681133D01*
G37*
X0002539181Y0002681133D02*
X0002554929Y0002681133D01*
X0002554929Y0002622078D01*
X0002539181Y0002622078D01*
X0002539181Y0002681133D01*
G36*
X0003082200Y0002696881D02*
G01*
X0003097948Y0002696881D01*
X0003097948Y0002637826D01*
X0003082200Y0002637826D01*
X0003082200Y0002696881D01*
G37*
X0003082200Y0002696881D02*
X0003097948Y0002696881D01*
X0003097948Y0002637826D01*
X0003082200Y0002637826D01*
X0003082200Y0002696881D01*
G36*
X0003039681Y0002681133D02*
G01*
X0003055429Y0002681133D01*
X0003055429Y0002622078D01*
X0003039681Y0002622078D01*
X0003039681Y0002681133D01*
G37*
X0003039681Y0002681133D02*
X0003055429Y0002681133D01*
X0003055429Y0002622078D01*
X0003039681Y0002622078D01*
X0003039681Y0002681133D01*
G36*
X0003181700Y0002696881D02*
G01*
X0003197448Y0002696881D01*
X0003197448Y0002637826D01*
X0003181700Y0002637826D01*
X0003181700Y0002696881D01*
G37*
X0003181700Y0002696881D02*
X0003197448Y0002696881D01*
X0003197448Y0002637826D01*
X0003181700Y0002637826D01*
X0003181700Y0002696881D01*
G36*
X0003139181Y0002681133D02*
G01*
X0003154929Y0002681133D01*
X0003154929Y0002622078D01*
X0003139181Y0002622078D01*
X0003139181Y0002681133D01*
G37*
X0003139181Y0002681133D02*
X0003154929Y0002681133D01*
X0003154929Y0002622078D01*
X0003139181Y0002622078D01*
X0003139181Y0002681133D01*
G36*
X0003283200Y0002696881D02*
G01*
X0003298948Y0002696881D01*
X0003298948Y0002637826D01*
X0003283200Y0002637826D01*
X0003283200Y0002696881D01*
G37*
X0003283200Y0002696881D02*
X0003298948Y0002696881D01*
X0003298948Y0002637826D01*
X0003283200Y0002637826D01*
X0003283200Y0002696881D01*
G36*
X0003240681Y0002681133D02*
G01*
X0003256429Y0002681133D01*
X0003256429Y0002622078D01*
X0003240681Y0002622078D01*
X0003240681Y0002681133D01*
G37*
X0003240681Y0002681133D02*
X0003256429Y0002681133D01*
X0003256429Y0002622078D01*
X0003240681Y0002622078D01*
X0003240681Y0002681133D01*
D22*
X0002273314Y0003408480D03*
X0003560314Y0003410480D03*
D23*
X0003240314Y0003297480D03*
X0003240314Y0003397480D03*
X0003140314Y0003297480D03*
X0003140314Y0003397480D03*
X0003040314Y0003297480D03*
X0003040314Y0003397480D03*
X0002940314Y0003297480D03*
X0002940314Y0003397480D03*
X0002840314Y0003297480D03*
X0002840314Y0003397480D03*
X0002740314Y0003297480D03*
X0002740314Y0003397480D03*
X0002640314Y0003297480D03*
X0002640314Y0003397480D03*
X0002540314Y0003297480D03*
D24*
X0002540314Y0003397480D03*
D25*
X0002647555Y0002652106D03*
X0002690074Y0002667854D03*
X0002747555Y0002651106D03*
X0002790074Y0002666854D03*
X0002848055Y0002651606D03*
X0002890574Y0002667354D03*
X0002948555Y0002651606D03*
X0002991074Y0002667354D03*
X0002547055Y0002651606D03*
X0002589574Y0002667354D03*
D26*
X0002513314Y0002559480D03*
X0002518314Y0002659480D03*
D25*
X0003047555Y0002651606D03*
X0003090074Y0002667354D03*
D22*
X0002261314Y0002875980D03*
X0002670314Y0002316980D03*
X0002261314Y0002442980D03*
X0003575814Y0002442980D03*
X0003576314Y0002875980D03*
X0002670814Y0003001980D03*
X0003166814Y0002316980D03*
X0003166814Y0003001980D03*
D26*
X0002718814Y0002659480D03*
X0003013314Y0002759480D03*
X0002613314Y0002759480D03*
X0002818814Y0002659480D03*
X0002713314Y0002559480D03*
X0002618814Y0002659480D03*
X0003318814Y0002659480D03*
X0002913314Y0002559480D03*
X0003113314Y0002559480D03*
X0003313314Y0002560480D03*
X0003118814Y0002659480D03*
X0002918814Y0002659480D03*
X0003218314Y0002659480D03*
X0003213814Y0002759480D03*
X0003018314Y0002659480D03*
X0002813314Y0002759480D03*
D25*
X0003147055Y0002651606D03*
X0003189574Y0002667354D03*
X0003248555Y0002651606D03*
X0003291074Y0002667354D03*
G04 next file*
G04 #@! TF.GenerationSoftware,KiCad,Pcbnew,(5.1.12)-1*
G04 #@! TF.CreationDate,2022-03-26T22:12:51+08:00*
G04 #@! TF.ProjectId,Nozzle,4e6f7a7a-6c65-42e6-9b69-6361645f7063,0.5*
G04 #@! TF.SameCoordinates,Original*
G04 #@! TF.FileFunction,Soldermask,Bot*
G04 #@! TF.FilePolarity,Negative*
G04 Gerber Fmt 4.6, Leading zero omitted, Abs format (unit mm)*
G04 Created by KiCad (PCBNEW (5.1.12)-1) date 2022-03-26 22:12:51*
G01*
G04 APERTURE LIST*
G04 APERTURE END LIST*
D27*
X-0002614519Y0004115220D02*
X0002154980Y0000275720D03*
X0002154980Y0000708720D03*
X0003060480Y0000149720D03*
X0003469980Y0000708720D03*
X0002564480Y0000149720D03*
X0003469480Y0000275720D03*
X0003059980Y0000834720D03*
X0002564980Y0000834720D03*
G04 next file*
G04 #@! TF.GenerationSoftware,KiCad,Pcbnew,(5.1.12)-1*
G04 #@! TF.CreationDate,2022-03-26T22:12:51+08:00*
G04 #@! TF.ProjectId,Nozzle,4e6f7a7a-6c65-42e6-9b69-6361645f7063,0.5*
G04 #@! TF.SameCoordinates,Original*
G04 #@! TF.FileFunction,Soldermask,Bot*
G04 #@! TF.FilePolarity,Negative*
G04 Gerber Fmt 4.6, Leading zero omitted, Abs format (unit mm)*
G04 Created by KiCad (PCBNEW (5.1.12)-1) date 2022-03-26 22:12:51*
G01*
G04 APERTURE LIST*
G04 APERTURE END LIST*
D28*
X-0004649984Y0006249080D02*
X0000119515Y0002409580D03*
X0000119515Y0002842580D03*
X0001025015Y0002283580D03*
X0001434515Y0002842580D03*
X0000529015Y0002283580D03*
X0001434015Y0002409580D03*
X0001024515Y0002968580D03*
X0000529515Y0002968580D03*
G04 next file*
G04 #@! TF.GenerationSoftware,KiCad,Pcbnew,(5.1.12)-1*
G04 #@! TF.CreationDate,2022-03-26T22:12:51+08:00*
G04 #@! TF.ProjectId,Nozzle,4e6f7a7a-6c65-42e6-9b69-6361645f7063,0.5*
G04 #@! TF.SameCoordinates,Original*
G04 #@! TF.FileFunction,Soldermask,Bot*
G04 #@! TF.FilePolarity,Negative*
G04 Gerber Fmt 4.6, Leading zero omitted, Abs format (unit mm)*
G04 Created by KiCad (PCBNEW (5.1.12)-1) date 2022-03-26 22:12:51*
G01*
G04 APERTURE LIST*
G04 APERTURE END LIST*
D29*
X-0002598425Y0005196850D02*
X0002171074Y0001357350D03*
X0002171074Y0001790350D03*
X0003076574Y0001231350D03*
X0003486074Y0001790350D03*
X0002580574Y0001231350D03*
X0003485574Y0001357350D03*
X0003076074Y0001916350D03*
X0002581074Y0001916350D03*
G04 next file*
G04 #@! TF.GenerationSoftware,KiCad,Pcbnew,(5.1.12)-1*
G04 #@! TF.CreationDate,2022-03-26T22:19:29+08:00*
G04 #@! TF.ProjectId,Nozzle,4e6f7a7a-6c65-42e6-9b69-6361645f7063,0.5*
G04 #@! TF.SameCoordinates,Original*
G04 #@! TF.FileFunction,Soldermask,Bot*
G04 #@! TF.FilePolarity,Negative*
G04 Gerber Fmt 4.6, Leading zero omitted, Abs format (unit mm)*
G04 Created by KiCad (PCBNEW (5.1.12)-1) date 2022-03-26 22:19:29*
G01*
G04 APERTURE LIST*
G04 APERTURE END LIST*
D30*
X0000511811Y-0002834645D02*
X0001952811Y0003025354D03*
X0001953311Y0002425354D03*
X0001953311Y0002625354D03*
X0001952811Y0002825354D03*
X0001953311Y0002225354D03*
X0001753311Y0002325354D03*
X0001753311Y0002525354D03*
X0001753311Y0002925354D03*
X0001753311Y0002725354D03*
D31*
X0001851811Y0002781354D03*
D32*
X0001852811Y0002681354D03*
D33*
X0001853311Y0002581354D03*
D34*
X0001853311Y0002481354D03*
D35*
X0001852811Y0002980354D03*
X0001853311Y0002380354D03*
X0001853311Y0002880354D03*
X0001853311Y0002280354D03*
G04 next file*
G04 #@! TF.GenerationSoftware,KiCad,Pcbnew,(5.1.12)-1*
G04 #@! TF.CreationDate,2022-03-26T22:19:29+08:00*
G04 #@! TF.ProjectId,Nozzle,4e6f7a7a-6c65-42e6-9b69-6361645f7063,0.5*
G04 #@! TF.SameCoordinates,Original*
G04 #@! TF.FileFunction,Soldermask,Bot*
G04 #@! TF.FilePolarity,Negative*
G04 Gerber Fmt 4.6, Leading zero omitted, Abs format (unit mm)*
G04 Created by KiCad (PCBNEW (5.1.12)-1) date 2022-03-26 22:19:29*
G01*
G04 APERTURE LIST*
G04 APERTURE END LIST*
D36*
X-0004724409Y0004724409D02*
X0001135590Y0003283409D03*
X0000535590Y0003282909D03*
X0000735590Y0003282909D03*
X0000935590Y0003283409D03*
X0000335590Y0003282909D03*
X0000435590Y0003482909D03*
X0000635590Y0003482909D03*
X0001035590Y0003482909D03*
X0000835590Y0003482909D03*
D37*
X0000891590Y0003384409D03*
D38*
X0000791590Y0003383409D03*
D39*
X0000691590Y0003382909D03*
D40*
X0000591590Y0003382909D03*
D41*
X0001090590Y0003383409D03*
X0000490590Y0003382909D03*
X0000990590Y0003382909D03*
X0000390590Y0003382909D03*
G04 next file*
G04 #@! TF.GenerationSoftware,KiCad,Pcbnew,(5.1.12)-1*
G04 #@! TF.CreationDate,2022-03-26T22:23:47+08:00*
G04 #@! TF.ProjectId,Nozzle,4e6f7a7a-6c65-42e6-9b69-6361645f7063,0.5*
G04 #@! TF.SameCoordinates,Original*
G04 #@! TF.FileFunction,Soldermask,Bot*
G04 #@! TF.FilePolarity,Negative*
G04 Gerber Fmt 4.6, Leading zero omitted, Abs format (unit mm)*
G04 Created by KiCad (PCBNEW (5.1.12)-1) date 2022-03-26 22:23:47*
G01*
G04 APERTURE LIST*
G04 APERTURE END LIST*
D42*
X-0004461847Y0006260119D02*
X0001836652Y0001558119D03*
X0000119652Y0001558119D03*
X0001224652Y0001216619D03*
X0000315152Y0001342619D03*
X0001637652Y0001775619D03*
X0001224652Y0001901619D03*
X0000315152Y0001775619D03*
X0000728652Y0001901619D03*
X0000728652Y0001216619D03*
X0001637652Y0001342619D03*
M02*