%
M48
METRIC,000.000
T01C0.50
%
T01
X011649Y025343
X010649Y025343
X009649Y025343
X008649Y025343
X007649Y025343
X006649Y025343
X006289Y026850
X007289Y026850
X008289Y026850
X009289Y026850
X010289Y026850
X011289Y026850
X049849Y009568
X049849Y010568
X049849Y011568
X049848Y012568
X049848Y013568
X049848Y014568
X049848Y015568
X051450Y015190
X051450Y014190
X051450Y013190
X051450Y012190
X051450Y011190
X051450Y010190
X007279Y053950
X008279Y053950
X009279Y053950
X010279Y053950
X011279Y053950
X012279Y053950
X012648Y052350
X011648Y052350
X010648Y052350
X009648Y052350
X008648Y052350
X007648Y052350
X013659Y079450
X012659Y079450
X011659Y079450
X010659Y079450
X009659Y079450
X008659Y079450
X008710Y080951
X009710Y080951
X010710Y080951
X011710Y080951
X012710Y080951
X013710Y080951
X039847Y064669
X039847Y065669
X039847Y066669
X039847Y067669
X039847Y068669
X039847Y069669
X042008Y068871
X042008Y067871
X042008Y066871
X042008Y065871
X042008Y064871
X042008Y063871
X051859Y041663
X051859Y040663
X051859Y039663
X051859Y038663
X051859Y037663
X051859Y036663
X049848Y036575
X049848Y037575
X049848Y038575
X049848Y039575
X049847Y040575
X049847Y041575
X081544Y054802
X082544Y054802
X083544Y054802
X084544Y054802
X085544Y054802
X086544Y054802
X086768Y052723
X085768Y052723
X084768Y052723
X083768Y052723
X082768Y052723
X081768Y052723
X054014Y070242
X054014Y069242
X054014Y068242
X054014Y067242
X054014Y066242
X054014Y065242
X052048Y065565
X052048Y066565
X052048Y067565
X052048Y068565
X052048Y069565
X052048Y070565
X028659Y079450
X027659Y079450
X026659Y079450
X025659Y079450
X024659Y079450
X023659Y079450
X023710Y080951
X024710Y080951
X025710Y080951
X026710Y080951
X027710Y080951
X028710Y080951
X030279Y053950
X031279Y053950
X032279Y053950
X033279Y053950
X034279Y053950
X035279Y053950
X035648Y052350
X034648Y052350
X033648Y052350
X032648Y052350
X031648Y052350
X030648Y052350
X059544Y054802
X060544Y054802
X061544Y054802
X062544Y054802
X063544Y054802
X064544Y054802
X063768Y052723
X062768Y052723
X061768Y052723
X060768Y052723
X059768Y052723
X041649Y025343
X040649Y025343
X039649Y025343
X038649Y025343
X037649Y025343
X036649Y025343
X036289Y026850
X037289Y026850
X038289Y026850
X039289Y026850
X040289Y026850
X041289Y026850
X060360Y025250
X059360Y025250
X058360Y025250
X057360Y025250
X056360Y025250
X055360Y025250
X055388Y027223
X056388Y027223
X057388Y027223
X058388Y027223
X059388Y027223
X060388Y027223
X084360Y025250
X083360Y025250
X082360Y025250
X081360Y025250
X080360Y025250
X079360Y025250
X079388Y027223
X080388Y027223
X081388Y027223
X082388Y027223
X083388Y027223
X084388Y027223
M30