%MOIN*%
%OFA0B0*%
%FSLAX44Y44*%
%IPPOS*%
%LPD*%
%ADD10C,0*%
D10*
X00023665Y00013178D02*
X00023665Y00013178D01*
X00023542Y00013188D01*
X00023421Y00013217D01*
X00023307Y00013264D01*
X00023202Y00013328D01*
X00023108Y00013409D01*
X00023028Y00013503D01*
X00022963Y00013608D01*
X00022916Y00013722D01*
X00022887Y00013842D01*
X00022877Y00013965D01*
X00022877Y00017509D01*
X00022887Y00017632D01*
X00022916Y00017752D01*
X00022963Y00017866D01*
X00023028Y00017972D01*
X00023108Y00018065D01*
X00023202Y00018146D01*
X00023307Y00018210D01*
X00023421Y00018258D01*
X00023542Y00018286D01*
X00023665Y00018296D01*
X00032955Y00018296D01*
X00033078Y00018286D01*
X00033199Y00018258D01*
X00033313Y00018210D01*
X00033418Y00018146D01*
X00033512Y00018065D01*
X00033592Y00017972D01*
X00033657Y00017866D01*
X00033704Y00017752D01*
X00033733Y00017632D01*
X00033743Y00017509D01*
X00033743Y00013965D01*
X00033733Y00013842D01*
X00033704Y00013722D01*
X00033657Y00013608D01*
X00033592Y00013503D01*
X00033512Y00013409D01*
X00033418Y00013328D01*
X00033313Y00013264D01*
X00033199Y00013217D01*
X00033078Y00013188D01*
X00032955Y00013178D01*
X00023665Y00013178D01*
X00003149Y00023700D02*
X00003149Y00023700D01*
X00003026Y00023710D01*
X00002906Y00023739D01*
X00002792Y00023786D01*
X00002686Y00023851D01*
X00002592Y00023931D01*
X00002512Y00024025D01*
X00002448Y00024130D01*
X00002400Y00024244D01*
X00002371Y00024365D01*
X00002362Y00024488D01*
X00002362Y00028031D01*
X00002371Y00028154D01*
X00002400Y00028274D01*
X00002448Y00028388D01*
X00002512Y00028494D01*
X00002592Y00028588D01*
X00002686Y00028668D01*
X00002792Y00028733D01*
X00002906Y00028780D01*
X00003026Y00028809D01*
X00003149Y00028818D01*
X00012440Y00028818D01*
X00012563Y00028809D01*
X00012683Y00028780D01*
X00012797Y00028733D01*
X00012902Y00028668D01*
X00012996Y00028588D01*
X00013077Y00028494D01*
X00013141Y00028388D01*
X00013189Y00028274D01*
X00013217Y00028154D01*
X00013227Y00028031D01*
X00013227Y00024488D01*
X00013217Y00024365D01*
X00013189Y00024244D01*
X00013141Y00024130D01*
X00013077Y00024025D01*
X00012996Y00023931D01*
X00012902Y00023851D01*
X00012797Y00023786D01*
X00012683Y00023739D01*
X00012563Y00023710D01*
X00012440Y00023700D01*
X00003149Y00023700D01*
X00023504Y00002362D02*
X00023504Y00002362D01*
X00023381Y00002371D01*
X00023260Y00002400D01*
X00023146Y00002448D01*
X00023041Y00002512D01*
X00022947Y00002592D01*
X00022867Y00002686D01*
X00022802Y00002792D01*
X00022755Y00002906D01*
X00022726Y00003026D01*
X00022716Y00003149D01*
X00022716Y00006692D01*
X00022726Y00006816D01*
X00022755Y00006936D01*
X00022802Y00007050D01*
X00022867Y00007155D01*
X00022947Y00007249D01*
X00023041Y00007329D01*
X00023146Y00007394D01*
X00023260Y00007441D01*
X00023381Y00007470D01*
X00023504Y00007480D01*
X00032794Y00007480D01*
X00032917Y00007470D01*
X00033038Y00007441D01*
X00033152Y00007394D01*
X00033257Y00007329D01*
X00033351Y00007249D01*
X00033431Y00007155D01*
X00033496Y00007050D01*
X00033543Y00006936D01*
X00033572Y00006816D01*
X00033582Y00006692D01*
X00033582Y00003149D01*
X00033572Y00003026D01*
X00033543Y00002906D01*
X00033496Y00002792D01*
X00033431Y00002686D01*
X00033351Y00002592D01*
X00033257Y00002512D01*
X00033152Y00002448D01*
X00033038Y00002400D01*
X00032917Y00002371D01*
X00032794Y00002362D01*
X00023504Y00002362D01*
X00018736Y00009879D02*
X00018736Y00009879D01*
X00016480Y00009879D01*
X00016478Y00009879D01*
X00016476Y00009879D01*
X00016474Y00009879D01*
X00016472Y00009879D01*
X00016470Y00009879D01*
X00016468Y00009879D01*
X00016466Y00009879D01*
X00016464Y00009879D01*
X00016462Y00009879D01*
X00016460Y00009879D01*
X00016458Y00009879D01*
X00016456Y00009879D01*
X00016454Y00009880D01*
X00016452Y00009880D01*
X00016450Y00009880D01*
X00016448Y00009880D01*
X00016446Y00009880D01*
X00016444Y00009880D01*
X00016442Y00009880D01*
X00016440Y00009881D01*
X00016413Y00009883D01*
X00016354Y00009894D01*
X00016297Y00009913D01*
X00016244Y00009941D01*
X00016196Y00009976D01*
X00016154Y00010019D01*
X00016118Y00010067D01*
X00016091Y00010120D01*
X00016072Y00010177D01*
X00016061Y00010235D01*
X00016059Y00010295D01*
X00016067Y00010354D01*
X00016084Y00010412D01*
X00016108Y00010466D01*
X00016141Y00010516D01*
X00016181Y00010560D01*
X00016228Y00010598D01*
X00016279Y00010629D01*
X00016335Y00010651D01*
X00016393Y00010664D01*
X00016453Y00010669D01*
X00018741Y00010669D01*
X00018864Y00010679D01*
X00018984Y00010709D01*
X00019098Y00010756D01*
X00019204Y00010821D01*
X00019297Y00010902D01*
X00019377Y00010996D01*
X00019442Y00011102D01*
X00019489Y00011216D01*
X00019518Y00011336D01*
X00019527Y00011459D01*
X00019527Y00014295D01*
X00019528Y00014326D01*
X00019531Y00014356D01*
X00019537Y00014387D01*
X00019546Y00014416D01*
X00019557Y00014445D01*
X00019569Y00014473D01*
X00019585Y00014500D01*
X00019602Y00014526D01*
X00019621Y00014550D01*
X00019642Y00014573D01*
X00019665Y00014594D01*
X00019689Y00014613D01*
X00019715Y00014630D01*
X00019742Y00014646D01*
X00019770Y00014659D01*
X00019799Y00014669D01*
X00019828Y00014678D01*
X00019859Y00014684D01*
X00019889Y00014687D01*
X00019920Y00014689D01*
X00020121Y00014689D01*
X00020152Y00014687D01*
X00020183Y00014684D01*
X00020213Y00014678D01*
X00020243Y00014669D01*
X00020272Y00014659D01*
X00020300Y00014646D01*
X00020327Y00014631D01*
X00020353Y00014613D01*
X00020377Y00014594D01*
X00020400Y00014573D01*
X00020421Y00014551D01*
X00020440Y00014526D01*
X00020457Y00014501D01*
X00020472Y00014474D01*
X00020485Y00014446D01*
X00020496Y00014417D01*
X00020504Y00014387D01*
X00020510Y00014356D01*
X00020514Y00014326D01*
X00020515Y00014295D01*
X00020515Y00011603D01*
X00020525Y00011480D01*
X00020554Y00011360D01*
X00020601Y00011246D01*
X00020665Y00011140D01*
X00020746Y00011046D01*
X00020840Y00010966D01*
X00020945Y00010902D01*
X00021059Y00010854D01*
X00021179Y00010825D01*
X00021302Y00010816D01*
X00021805Y00010816D01*
X00021845Y00010814D01*
X00021883Y00010808D01*
X00021922Y00010798D01*
X00021958Y00010785D01*
X00021994Y00010768D01*
X00022027Y00010747D01*
X00022059Y00010723D01*
X00022087Y00010697D01*
X00022113Y00010667D01*
X00022136Y00010635D01*
X00022156Y00010601D01*
X00022172Y00010565D01*
X00022184Y00010528D01*
X00022193Y00010490D01*
X00022198Y00010451D01*
X00022199Y00010411D01*
X00022196Y00010372D01*
X00022189Y00010334D01*
X00022178Y00010296D01*
X00022164Y00010259D01*
X00022079Y00010073D01*
X00022069Y00010053D01*
X00022058Y00010033D01*
X00022046Y00010014D01*
X00022033Y00009996D01*
X00022018Y00009978D01*
X00022003Y00009962D01*
X00021987Y00009946D01*
X00021970Y00009931D01*
X00021952Y00009917D01*
X00021934Y00009905D01*
X00021914Y00009893D01*
X00021895Y00009883D01*
X00021874Y00009873D01*
X00021853Y00009865D01*
X00021832Y00009858D01*
X00021810Y00009852D01*
X00021788Y00009848D01*
X00021766Y00009845D01*
X00021743Y00009843D01*
X00021721Y00009842D01*
X00021142Y00009842D01*
X00021018Y00009832D01*
X00020898Y00009803D01*
X00020784Y00009756D01*
X00020679Y00009692D01*
X00020585Y00009611D01*
X00020505Y00009517D01*
X00020440Y00009412D01*
X00020393Y00009298D01*
X00020364Y00009178D01*
X00020354Y00009055D01*
X00020354Y00006127D01*
X00020353Y00006096D01*
X00020349Y00006065D01*
X00020343Y00006035D01*
X00020335Y00006005D01*
X00020324Y00005976D01*
X00020311Y00005948D01*
X00020296Y00005921D01*
X00020279Y00005896D01*
X00020260Y00005871D01*
X00020239Y00005849D01*
X00020216Y00005828D01*
X00020192Y00005809D01*
X00020166Y00005791D01*
X00020139Y00005776D01*
X00020111Y00005763D01*
X00020082Y00005753D01*
X00020052Y00005744D01*
X00020022Y00005738D01*
X00019991Y00005735D01*
X00019961Y00005733D01*
X00019920Y00005733D01*
X00019889Y00005735D01*
X00019859Y00005738D01*
X00019828Y00005744D01*
X00019798Y00005753D01*
X00019769Y00005763D01*
X00019741Y00005776D01*
X00019714Y00005791D01*
X00019689Y00005809D01*
X00019664Y00005828D01*
X00019642Y00005849D01*
X00019621Y00005871D01*
X00019602Y00005896D01*
X00019584Y00005921D01*
X00019569Y00005948D01*
X00019556Y00005976D01*
X00019546Y00006005D01*
X00019537Y00006035D01*
X00019531Y00006065D01*
X00019528Y00006096D01*
X00019526Y00006127D01*
X00019526Y00009089D01*
X00019516Y00009213D01*
X00019487Y00009333D01*
X00019440Y00009448D01*
X00019375Y00009553D01*
X00019294Y00009647D01*
X00019200Y00009728D01*
X00019095Y00009793D01*
X00018980Y00009840D01*
X00018860Y00009869D01*
X00018736Y00009879D01*
X00023948Y00009842D02*
X00023948Y00009842D01*
X00023925Y00009843D01*
X00023903Y00009845D01*
X00023880Y00009848D01*
X00023858Y00009852D01*
X00023837Y00009858D01*
X00023815Y00009865D01*
X00023794Y00009873D01*
X00023774Y00009883D01*
X00023754Y00009893D01*
X00023735Y00009905D01*
X00023716Y00009917D01*
X00023698Y00009931D01*
X00023681Y00009946D01*
X00023665Y00009962D01*
X00023650Y00009978D01*
X00023636Y00009996D01*
X00023622Y00010014D01*
X00023610Y00010033D01*
X00023599Y00010053D01*
X00023589Y00010073D01*
X00023505Y00010259D01*
X00023490Y00010296D01*
X00023479Y00010334D01*
X00023472Y00010372D01*
X00023469Y00010411D01*
X00023470Y00010451D01*
X00023475Y00010490D01*
X00023484Y00010528D01*
X00023496Y00010565D01*
X00023512Y00010601D01*
X00023532Y00010635D01*
X00023555Y00010667D01*
X00023581Y00010697D01*
X00023610Y00010723D01*
X00023641Y00010747D01*
X00023674Y00010768D01*
X00023710Y00010785D01*
X00023747Y00010798D01*
X00023785Y00010808D01*
X00023824Y00010814D01*
X00023863Y00010816D01*
X00031254Y00010816D01*
X00031293Y00010814D01*
X00031332Y00010808D01*
X00031370Y00010798D01*
X00031407Y00010785D01*
X00031443Y00010768D01*
X00031476Y00010747D01*
X00031507Y00010723D01*
X00031536Y00010697D01*
X00031562Y00010667D01*
X00031585Y00010635D01*
X00031605Y00010601D01*
X00031621Y00010565D01*
X00031633Y00010528D01*
X00031642Y00010490D01*
X00031647Y00010451D01*
X00031648Y00010411D01*
X00031645Y00010372D01*
X00031638Y00010334D01*
X00031627Y00010296D01*
X00031613Y00010259D01*
X00031528Y00010073D01*
X00031518Y00010053D01*
X00031507Y00010033D01*
X00031495Y00010014D01*
X00031482Y00009996D01*
X00031467Y00009978D01*
X00031452Y00009962D01*
X00031436Y00009946D01*
X00031419Y00009931D01*
X00031401Y00009917D01*
X00031383Y00009905D01*
X00031363Y00009893D01*
X00031343Y00009883D01*
X00031323Y00009873D01*
X00031302Y00009865D01*
X00031280Y00009858D01*
X00031259Y00009852D01*
X00031237Y00009848D01*
X00031214Y00009845D01*
X00031192Y00009843D01*
X00031169Y00009842D01*
X00023948Y00009842D01*
X00023303Y00021674D02*
X00023303Y00021674D01*
X00023327Y00021673D01*
X00023350Y00021671D01*
X00023373Y00021667D01*
X00023396Y00021663D01*
X00023419Y00021656D01*
X00023441Y00021649D01*
X00023463Y00021640D01*
X00023484Y00021629D01*
X00023505Y00021618D01*
X00023525Y00021605D01*
X00023544Y00021591D01*
X00023562Y00021576D01*
X00023579Y00021560D01*
X00023596Y00021543D01*
X00023611Y00021525D01*
X00023625Y00021506D01*
X00023638Y00021487D01*
X00023650Y00021466D01*
X00023660Y00021445D01*
X00023670Y00021424D01*
X00023759Y00021196D01*
X00023771Y00021159D01*
X00023780Y00021122D01*
X00023785Y00021084D01*
X00023786Y00021046D01*
X00023783Y00021008D01*
X00023777Y00020970D01*
X00023767Y00020933D01*
X00023754Y00020897D01*
X00023737Y00020863D01*
X00023717Y00020830D01*
X00023694Y00020800D01*
X00023668Y00020771D01*
X00023640Y00020746D01*
X00023609Y00020723D01*
X00023576Y00020704D01*
X00023541Y00020688D01*
X00023505Y00020675D01*
X00023468Y00020666D01*
X00023430Y00020660D01*
X00023392Y00020658D01*
X00021302Y00020658D01*
X00021179Y00020649D01*
X00021059Y00020620D01*
X00020945Y00020573D01*
X00020840Y00020508D01*
X00020746Y00020428D01*
X00020665Y00020334D01*
X00020601Y00020228D01*
X00020554Y00020114D01*
X00020525Y00019994D01*
X00020515Y00019871D01*
X00020515Y00016612D01*
X00020514Y00016582D01*
X00020510Y00016551D01*
X00020504Y00016521D01*
X00020496Y00016491D01*
X00020485Y00016462D01*
X00020472Y00016434D01*
X00020457Y00016407D01*
X00020440Y00016381D01*
X00020421Y00016357D01*
X00020400Y00016334D01*
X00020377Y00016313D01*
X00020353Y00016294D01*
X00020327Y00016277D01*
X00020300Y00016262D01*
X00020272Y00016249D01*
X00020243Y00016238D01*
X00020213Y00016230D01*
X00020183Y00016224D01*
X00020152Y00016220D01*
X00020121Y00016219D01*
X00019920Y00016219D01*
X00019889Y00016220D01*
X00019858Y00016224D01*
X00019828Y00016230D01*
X00019798Y00016238D01*
X00019769Y00016249D01*
X00019741Y00016262D01*
X00019714Y00016277D01*
X00019688Y00016294D01*
X00019664Y00016313D01*
X00019641Y00016334D01*
X00019620Y00016357D01*
X00019601Y00016381D01*
X00019584Y00016407D01*
X00019569Y00016434D01*
X00019556Y00016462D01*
X00019545Y00016491D01*
X00019537Y00016520D01*
X00019531Y00016551D01*
X00019527Y00016581D01*
X00019526Y00016612D01*
X00019525Y00019722D01*
X00019515Y00019846D01*
X00019487Y00019966D01*
X00019439Y00020080D01*
X00019374Y00020186D01*
X00019294Y00020280D01*
X00019200Y00020361D01*
X00019094Y00020425D01*
X00018980Y00020473D01*
X00018859Y00020502D01*
X00018736Y00020511D01*
X00014118Y00020511D01*
X00014104Y00020512D01*
X00014090Y00020512D01*
X00014075Y00020514D01*
X00014061Y00020515D01*
X00014047Y00020518D01*
X00014033Y00020521D01*
X00014019Y00020524D01*
X00014005Y00020528D01*
X00013992Y00020532D01*
X00013978Y00020537D01*
X00013965Y00020542D01*
X00013952Y00020548D01*
X00013939Y00020555D01*
X00013926Y00020561D01*
X00013914Y00020568D01*
X00013902Y00020576D01*
X00013890Y00020584D01*
X00013879Y00020593D01*
X00013867Y00020602D01*
X00013857Y00020611D01*
X00013812Y00020650D01*
X00013779Y00020684D01*
X00013750Y00020721D01*
X00013725Y00020762D01*
X00013706Y00020806D01*
X00013692Y00020851D01*
X00013683Y00020898D01*
X00013680Y00020945D01*
X00013683Y00020992D01*
X00013692Y00021039D01*
X00013706Y00021084D01*
X00013726Y00021128D01*
X00013750Y00021168D01*
X00013780Y00021206D01*
X00013813Y00021239D01*
X00013851Y00021269D01*
X00013891Y00021293D01*
X00013935Y00021313D01*
X00013980Y00021327D01*
X00014027Y00021335D01*
X00014074Y00021338D01*
X00014802Y00021338D01*
X00014925Y00021348D01*
X00015045Y00021377D01*
X00015159Y00021424D01*
X00015265Y00021488D01*
X00015359Y00021569D01*
X00015439Y00021663D01*
X00015503Y00021768D01*
X00015551Y00021882D01*
X00015580Y00022002D01*
X00015589Y00022125D01*
X00015589Y00025131D01*
X00015590Y00025162D01*
X00015594Y00025193D01*
X00015600Y00025223D01*
X00015609Y00025253D01*
X00015619Y00025282D01*
X00015632Y00025310D01*
X00015647Y00025337D01*
X00015664Y00025362D01*
X00015684Y00025387D01*
X00015705Y00025409D01*
X00015727Y00025430D01*
X00015752Y00025450D01*
X00015777Y00025467D01*
X00015804Y00025482D01*
X00015832Y00025495D01*
X00015861Y00025506D01*
X00015891Y00025514D01*
X00015921Y00025520D01*
X00015952Y00025524D01*
X00015983Y00025525D01*
X00016243Y00025525D01*
X00016274Y00025524D01*
X00016305Y00025520D01*
X00016335Y00025514D01*
X00016365Y00025506D01*
X00016394Y00025495D01*
X00016422Y00025482D01*
X00016449Y00025467D01*
X00016474Y00025450D01*
X00016499Y00025430D01*
X00016521Y00025409D01*
X00016542Y00025387D01*
X00016562Y00025362D01*
X00016579Y00025337D01*
X00016594Y00025310D01*
X00016607Y00025282D01*
X00016617Y00025253D01*
X00016626Y00025223D01*
X00016632Y00025193D01*
X00016635Y00025162D01*
X00016637Y00025131D01*
X00016637Y00021243D01*
X00020393Y00021243D01*
X00020393Y00025539D01*
X00020394Y00025570D01*
X00020397Y00025600D01*
X00020403Y00025631D01*
X00020412Y00025660D01*
X00020423Y00025689D01*
X00020436Y00025717D01*
X00020451Y00025744D01*
X00020468Y00025770D01*
X00020487Y00025794D01*
X00020508Y00025817D01*
X00020531Y00025838D01*
X00020555Y00025857D01*
X00020581Y00025874D01*
X00020608Y00025889D01*
X00020636Y00025902D01*
X00020665Y00025913D01*
X00020694Y00025921D01*
X00020725Y00025927D01*
X00020755Y00025931D01*
X00020786Y00025932D01*
X00020970Y00025932D01*
X00021001Y00025931D01*
X00021032Y00025927D01*
X00021062Y00025921D01*
X00021092Y00025913D01*
X00021121Y00025902D01*
X00021149Y00025889D01*
X00021176Y00025874D01*
X00021201Y00025857D01*
X00021226Y00025838D01*
X00021248Y00025817D01*
X00021269Y00025794D01*
X00021288Y00025770D01*
X00021306Y00025744D01*
X00021321Y00025717D01*
X00021334Y00025689D01*
X00021344Y00025660D01*
X00021353Y00025631D01*
X00021359Y00025600D01*
X00021362Y00025570D01*
X00021364Y00025539D01*
X00021364Y00022461D01*
X00021373Y00022338D01*
X00021402Y00022218D01*
X00021449Y00022104D01*
X00021514Y00021998D01*
X00021594Y00021904D01*
X00021688Y00021824D01*
X00021794Y00021760D01*
X00021908Y00021712D01*
X00022028Y00021683D01*
X00022151Y00021674D01*
X00023303Y00021674D01*
X00031881Y00021674D02*
X00031881Y00021674D01*
X00031905Y00021673D01*
X00031929Y00021671D01*
X00031953Y00021667D01*
X00031976Y00021662D01*
X00031999Y00021656D01*
X00032022Y00021648D01*
X00032044Y00021638D01*
X00032066Y00021628D01*
X00032087Y00021616D01*
X00032107Y00021602D01*
X00032126Y00021588D01*
X00032144Y00021572D01*
X00032162Y00021556D01*
X00032178Y00021538D01*
X00032193Y00021519D01*
X00032207Y00021500D01*
X00032220Y00021479D01*
X00032232Y00021458D01*
X00032242Y00021436D01*
X00032251Y00021414D01*
X00032333Y00021186D01*
X00032344Y00021150D01*
X00032352Y00021113D01*
X00032356Y00021075D01*
X00032357Y00021038D01*
X00032353Y00021000D01*
X00032347Y00020963D01*
X00032336Y00020927D01*
X00032323Y00020891D01*
X00032306Y00020858D01*
X00032285Y00020826D01*
X00032262Y00020796D01*
X00032236Y00020769D01*
X00032208Y00020744D01*
X00032177Y00020722D01*
X00032145Y00020703D01*
X00032110Y00020687D01*
X00032075Y00020675D01*
X00032038Y00020666D01*
X00032001Y00020660D01*
X00031963Y00020658D01*
X00025426Y00020658D01*
X00025387Y00020660D01*
X00025350Y00020666D01*
X00025313Y00020675D01*
X00025276Y00020688D01*
X00025242Y00020704D01*
X00025209Y00020723D01*
X00025178Y00020746D01*
X00025150Y00020771D01*
X00025124Y00020800D01*
X00025101Y00020830D01*
X00025081Y00020863D01*
X00025064Y00020897D01*
X00025050Y00020933D01*
X00025041Y00020970D01*
X00025035Y00021008D01*
X00025032Y00021046D01*
X00025033Y00021084D01*
X00025038Y00021122D01*
X00025047Y00021159D01*
X00025059Y00021196D01*
X00025148Y00021424D01*
X00025158Y00021445D01*
X00025168Y00021466D01*
X00025180Y00021487D01*
X00025193Y00021506D01*
X00025207Y00021525D01*
X00025222Y00021543D01*
X00025238Y00021560D01*
X00025256Y00021576D01*
X00025274Y00021591D01*
X00025293Y00021605D01*
X00025313Y00021618D01*
X00025333Y00021629D01*
X00025355Y00021640D01*
X00025377Y00021649D01*
X00025399Y00021656D01*
X00025422Y00021663D01*
X00025445Y00021667D01*
X00025468Y00021671D01*
X00025491Y00021673D01*
X00025515Y00021674D01*
X00031881Y00021674D01*
X00005550Y00031181D02*
X00005550Y00031181D01*
X00005550Y00031181D01*
X00005550Y00031181D01*
X00005549Y00031181D01*
X00005549Y00031181D01*
X00005549Y00031181D01*
X00005549Y00031181D01*
X00005549Y00031181D01*
X00005548Y00031181D01*
X00005548Y00031181D01*
X00005548Y00031181D01*
X00005548Y00031181D01*
X00005547Y00031181D01*
X00005547Y00031181D01*
X00005547Y00031181D01*
X00005547Y00031181D01*
X00005547Y00031181D01*
X00005546Y00031181D01*
X00005546Y00031181D01*
X00005546Y00031181D01*
X00005546Y00031181D01*
X00005494Y00031181D01*
X00005432Y00031187D01*
X00005373Y00031202D01*
X00005316Y00031226D01*
X00005264Y00031258D01*
X00005217Y00031299D01*
X00005178Y00031346D01*
X00005146Y00031399D01*
X00005123Y00031456D01*
X00005109Y00031516D01*
X00005104Y00031577D01*
X00005109Y00031638D01*
X00005124Y00031698D01*
X00005148Y00031755D01*
X00005180Y00031807D01*
X00005220Y00031854D01*
X00005267Y00031894D01*
X00005320Y00031926D01*
X00005377Y00031949D01*
X00005436Y00031964D01*
X00005498Y00031969D01*
X00009153Y00031969D01*
X00009215Y00031964D01*
X00009275Y00031949D01*
X00009332Y00031926D01*
X00009384Y00031894D01*
X00009431Y00031854D01*
X00009471Y00031807D01*
X00009504Y00031755D01*
X00009527Y00031698D01*
X00009542Y00031638D01*
X00009547Y00031577D01*
X00009543Y00031515D01*
X00009529Y00031456D01*
X00009505Y00031398D01*
X00009474Y00031346D01*
X00009434Y00031299D01*
X00009387Y00031258D01*
X00009335Y00031226D01*
X00009279Y00031202D01*
X00009219Y00031187D01*
X00009157Y00031181D01*
X00009101Y00031181D01*
X00009101Y00031181D01*
X00009101Y00031181D01*
X00009101Y00031181D01*
X00009101Y00031181D01*
X00009100Y00031181D01*
X00009100Y00031181D01*
X00009100Y00031181D01*
X00009100Y00031181D01*
X00009100Y00031181D01*
X00009099Y00031181D01*
X00009099Y00031181D01*
X00009099Y00031181D01*
X00009099Y00031181D01*
X00009099Y00031181D01*
X00009098Y00031181D01*
X00009098Y00031181D01*
X00009098Y00031181D01*
X00009098Y00031181D01*
X00009098Y00031181D01*
X00009097Y00031181D01*
X00005550Y00031181D01*
X00005146Y00020511D02*
X00005146Y00020511D01*
X00005130Y00020512D01*
X00005115Y00020512D01*
X00005100Y00020514D01*
X00005086Y00020516D01*
X00005071Y00020518D01*
X00005056Y00020522D01*
X00005041Y00020525D01*
X00005027Y00020530D01*
X00005013Y00020534D01*
X00004999Y00020540D01*
X00004985Y00020546D01*
X00004971Y00020552D01*
X00004958Y00020559D01*
X00004945Y00020566D01*
X00004932Y00020574D01*
X00004920Y00020583D01*
X00004907Y00020591D01*
X00004896Y00020601D01*
X00004884Y00020611D01*
X00004873Y00020621D01*
X00004832Y00020660D01*
X00004800Y00020694D01*
X00004773Y00020732D01*
X00004750Y00020773D01*
X00004732Y00020816D01*
X00004720Y00020861D01*
X00004712Y00020908D01*
X00004711Y00020954D01*
X00004715Y00021001D01*
X00004724Y00021047D01*
X00004739Y00021091D01*
X00004759Y00021133D01*
X00004784Y00021173D01*
X00004813Y00021209D01*
X00004847Y00021242D01*
X00004884Y00021271D01*
X00004924Y00021294D01*
X00004967Y00021313D01*
X00005012Y00021327D01*
X00005058Y00021335D01*
X00005104Y00021338D01*
X00011909Y00021338D01*
X00011957Y00021335D01*
X00012003Y00021327D01*
X00012049Y00021313D01*
X00012092Y00021293D01*
X00012133Y00021269D01*
X00012170Y00021239D01*
X00012204Y00021206D01*
X00012233Y00021168D01*
X00012258Y00021128D01*
X00012277Y00021084D01*
X00012291Y00021039D01*
X00012300Y00020992D01*
X00012303Y00020945D01*
X00012300Y00020898D01*
X00012292Y00020851D01*
X00012278Y00020806D01*
X00012258Y00020762D01*
X00012234Y00020721D01*
X00012204Y00020684D01*
X00012171Y00020650D01*
X00012127Y00020611D01*
X00012116Y00020602D01*
X00012105Y00020593D01*
X00012093Y00020584D01*
X00012081Y00020576D01*
X00012069Y00020568D01*
X00012057Y00020561D01*
X00012044Y00020555D01*
X00012031Y00020548D01*
X00012018Y00020542D01*
X00012005Y00020537D01*
X00011992Y00020532D01*
X00011978Y00020528D01*
X00011964Y00020524D01*
X00011950Y00020521D01*
X00011936Y00020518D01*
X00011922Y00020515D01*
X00011908Y00020514D01*
X00011894Y00020512D01*
X00011879Y00020512D01*
X00011865Y00020511D01*
X00005146Y00020511D01*
X00004751Y00009879D02*
X00004751Y00009879D01*
X00004749Y00009879D01*
X00004747Y00009879D01*
X00004745Y00009879D01*
X00004742Y00009879D01*
X00004740Y00009879D01*
X00004738Y00009879D01*
X00004736Y00009879D01*
X00004734Y00009879D01*
X00004732Y00009879D01*
X00004729Y00009879D01*
X00004727Y00009879D01*
X00004725Y00009879D01*
X00004723Y00009880D01*
X00004721Y00009880D01*
X00004719Y00009880D01*
X00004717Y00009880D01*
X00004714Y00009880D01*
X00004712Y00009881D01*
X00004710Y00009881D01*
X00004708Y00009881D01*
X00004683Y00009884D01*
X00004624Y00009895D01*
X00004568Y00009914D01*
X00004515Y00009942D01*
X00004467Y00009978D01*
X00004426Y00010020D01*
X00004391Y00010069D01*
X00004363Y00010122D01*
X00004344Y00010178D01*
X00004334Y00010237D01*
X00004333Y00010297D01*
X00004341Y00010356D01*
X00004357Y00010413D01*
X00004382Y00010467D01*
X00004415Y00010517D01*
X00004455Y00010561D01*
X00004501Y00010599D01*
X00004553Y00010629D01*
X00004608Y00010651D01*
X00004666Y00010664D01*
X00004726Y00010669D01*
X00014255Y00010669D01*
X00014315Y00010664D01*
X00014373Y00010651D01*
X00014428Y00010629D01*
X00014480Y00010598D01*
X00014526Y00010560D01*
X00014566Y00010516D01*
X00014599Y00010466D01*
X00014624Y00010412D01*
X00014641Y00010354D01*
X00014648Y00010295D01*
X00014647Y00010235D01*
X00014636Y00010177D01*
X00014617Y00010120D01*
X00014589Y00010067D01*
X00014554Y00010019D01*
X00014512Y00009976D01*
X00014463Y00009941D01*
X00014410Y00009913D01*
X00014354Y00009894D01*
X00014295Y00009883D01*
X00014268Y00009881D01*
X00014266Y00009880D01*
X00014264Y00009880D01*
X00014262Y00009880D01*
X00014260Y00009880D01*
X00014258Y00009880D01*
X00014256Y00009880D01*
X00014254Y00009880D01*
X00014252Y00009879D01*
X00014250Y00009879D01*
X00014248Y00009879D01*
X00014246Y00009879D01*
X00014244Y00009879D01*
X00014242Y00009879D01*
X00014240Y00009879D01*
X00014238Y00009879D01*
X00014236Y00009879D01*
X00014234Y00009879D01*
X00014232Y00009879D01*
X00014230Y00009879D01*
X00014228Y00009879D01*
X00004751Y00009879D01*
X00002360Y00010669D02*
X00002360Y00010669D01*
X00002419Y00010664D01*
X00002477Y00010651D01*
X00002533Y00010629D01*
X00002584Y00010599D01*
X00002630Y00010561D01*
X00002670Y00010517D01*
X00002703Y00010467D01*
X00002728Y00010413D01*
X00002745Y00010356D01*
X00002753Y00010297D01*
X00002752Y00010237D01*
X00002741Y00010178D01*
X00002722Y00010122D01*
X00002695Y00010069D01*
X00002660Y00010020D01*
X00002618Y00009978D01*
X00002570Y00009942D01*
X00002518Y00009914D01*
X00002461Y00009895D01*
X00002403Y00009884D01*
X00002378Y00009881D01*
X00002376Y00009881D01*
X00002373Y00009881D01*
X00002371Y00009880D01*
X00002369Y00009880D01*
X00002367Y00009880D01*
X00002365Y00009880D01*
X00002363Y00009880D01*
X00002360Y00009879D01*
X00002358Y00009879D01*
X00002356Y00009879D01*
X00002354Y00009879D01*
X00002352Y00009879D01*
X00002350Y00009879D01*
X00002348Y00009879D01*
X00002345Y00009879D01*
X00002343Y00009879D01*
X00002341Y00009879D01*
X00002339Y00009879D01*
X00002337Y00009879D01*
X00002335Y00009879D01*
X00000787Y00009879D01*
X00000664Y00009869D01*
X00000544Y00009840D01*
X00000430Y00009793D01*
X00000324Y00009728D01*
X00000230Y00009648D01*
X00000150Y00009554D01*
X00000086Y00009449D01*
X00000038Y00009335D01*
X00000010Y00009214D01*
X00000000Y00009091D01*
X00000000Y00000824D01*
X00000010Y00000700D01*
X00000038Y00000580D01*
X00000086Y00000466D01*
X00000150Y00000361D01*
X00000230Y00000267D01*
X00000324Y00000186D01*
X00000430Y00000122D01*
X00000544Y00000075D01*
X00000664Y00000046D01*
X00000787Y00000036D01*
X00018741Y00000036D01*
X00018865Y00000046D01*
X00018985Y00000076D01*
X00019099Y00000124D01*
X00019204Y00000189D01*
X00019298Y00000269D01*
X00019378Y00000363D01*
X00019442Y00000469D01*
X00019489Y00000583D01*
X00019518Y00000703D01*
X00019528Y00000827D01*
X00019527Y00003747D01*
X00019528Y00003778D01*
X00019532Y00003809D01*
X00019538Y00003839D01*
X00019546Y00003869D01*
X00019557Y00003898D01*
X00019570Y00003926D01*
X00019585Y00003953D01*
X00019602Y00003978D01*
X00019621Y00004003D01*
X00019642Y00004025D01*
X00019665Y00004046D01*
X00019689Y00004066D01*
X00019715Y00004083D01*
X00019742Y00004098D01*
X00019770Y00004111D01*
X00019799Y00004122D01*
X00019829Y00004130D01*
X00019859Y00004136D01*
X00019890Y00004140D01*
X00019921Y00004141D01*
X00019960Y00004141D01*
X00019991Y00004140D01*
X00020022Y00004136D01*
X00020052Y00004130D01*
X00020082Y00004122D01*
X00020111Y00004111D01*
X00020139Y00004098D01*
X00020166Y00004083D01*
X00020192Y00004066D01*
X00020216Y00004047D01*
X00020239Y00004026D01*
X00020260Y00004003D01*
X00020279Y00003979D01*
X00020296Y00003953D01*
X00020311Y00003926D01*
X00020324Y00003898D01*
X00020335Y00003869D01*
X00020343Y00003839D01*
X00020349Y00003809D01*
X00020353Y00003778D01*
X00020354Y00003747D01*
X00020354Y00000787D01*
X00020364Y00000664D01*
X00020393Y00000544D01*
X00020440Y00000429D01*
X00020505Y00000324D01*
X00020585Y00000230D01*
X00020679Y00000150D01*
X00020784Y00000085D01*
X00020898Y00000038D01*
X00021018Y00000009D01*
X00021142Y00000000D01*
X00035157Y00000000D01*
X00035280Y00000009D01*
X00035400Y00000038D01*
X00035514Y00000085D01*
X00035619Y00000150D01*
X00035713Y00000230D01*
X00035794Y00000324D01*
X00035858Y00000429D01*
X00035905Y00000544D01*
X00035934Y00000664D01*
X00035944Y00000787D01*
X00035944Y00009055D01*
X00035934Y00009178D01*
X00035905Y00009298D01*
X00035858Y00009412D01*
X00035794Y00009517D01*
X00035713Y00009611D01*
X00035619Y00009692D01*
X00035514Y00009756D01*
X00035400Y00009803D01*
X00035280Y00009832D01*
X00035157Y00009842D01*
X00033397Y00009842D01*
X00033374Y00009843D01*
X00033352Y00009845D01*
X00033329Y00009848D01*
X00033307Y00009852D01*
X00033285Y00009858D01*
X00033264Y00009865D01*
X00033243Y00009873D01*
X00033223Y00009883D01*
X00033203Y00009893D01*
X00033183Y00009905D01*
X00033165Y00009917D01*
X00033147Y00009931D01*
X00033130Y00009946D01*
X00033114Y00009962D01*
X00033099Y00009978D01*
X00033084Y00009996D01*
X00033071Y00010014D01*
X00033059Y00010033D01*
X00033048Y00010053D01*
X00033038Y00010073D01*
X00032953Y00010259D01*
X00032939Y00010296D01*
X00032928Y00010334D01*
X00032921Y00010372D01*
X00032918Y00010411D01*
X00032919Y00010451D01*
X00032924Y00010490D01*
X00032933Y00010528D01*
X00032945Y00010565D01*
X00032961Y00010601D01*
X00032981Y00010635D01*
X00033004Y00010667D01*
X00033030Y00010697D01*
X00033058Y00010723D01*
X00033090Y00010747D01*
X00033123Y00010768D01*
X00033159Y00010785D01*
X00033196Y00010798D01*
X00033234Y00010808D01*
X00033273Y00010814D01*
X00033312Y00010816D01*
X00035317Y00010816D01*
X00035441Y00010825D01*
X00035561Y00010854D01*
X00035675Y00010902D01*
X00035780Y00010966D01*
X00035874Y00011046D01*
X00035954Y00011140D01*
X00036019Y00011246D01*
X00036066Y00011360D01*
X00036095Y00011480D01*
X00036105Y00011603D01*
X00036105Y00019871D01*
X00036095Y00019994D01*
X00036066Y00020114D01*
X00036019Y00020228D01*
X00035954Y00020334D01*
X00035874Y00020428D01*
X00035780Y00020508D01*
X00035675Y00020573D01*
X00035561Y00020620D01*
X00035441Y00020649D01*
X00035317Y00020658D01*
X00034178Y00020658D01*
X00034140Y00020660D01*
X00034103Y00020666D01*
X00034066Y00020675D01*
X00034030Y00020687D01*
X00033996Y00020703D01*
X00033963Y00020722D01*
X00033933Y00020744D01*
X00033904Y00020769D01*
X00033878Y00020796D01*
X00033855Y00020826D01*
X00033835Y00020858D01*
X00033818Y00020891D01*
X00033804Y00020927D01*
X00033794Y00020963D01*
X00033787Y00021000D01*
X00033784Y00021038D01*
X00033785Y00021075D01*
X00033789Y00021113D01*
X00033796Y00021150D01*
X00033807Y00021186D01*
X00033890Y00021414D01*
X00033899Y00021436D01*
X00033909Y00021458D01*
X00033921Y00021479D01*
X00033933Y00021500D01*
X00033947Y00021519D01*
X00033963Y00021538D01*
X00033979Y00021556D01*
X00033996Y00021572D01*
X00034015Y00021588D01*
X00034034Y00021602D01*
X00034054Y00021616D01*
X00034075Y00021628D01*
X00034097Y00021638D01*
X00034119Y00021648D01*
X00034142Y00021656D01*
X00034165Y00021662D01*
X00034188Y00021667D01*
X00034212Y00021671D01*
X00034236Y00021673D01*
X00034260Y00021674D01*
X00036166Y00021674D01*
X00036289Y00021683D01*
X00036409Y00021712D01*
X00036523Y00021760D01*
X00036629Y00021824D01*
X00036723Y00021904D01*
X00036803Y00021998D01*
X00036867Y00022104D01*
X00036915Y00022218D01*
X00036944Y00022338D01*
X00036953Y00022461D01*
X00036953Y00034666D01*
X00036944Y00034789D01*
X00036915Y00034909D01*
X00036867Y00035023D01*
X00036803Y00035129D01*
X00036723Y00035223D01*
X00036629Y00035303D01*
X00036523Y00035367D01*
X00036409Y00035415D01*
X00036289Y00035444D01*
X00036166Y00035453D01*
X00022151Y00035453D01*
X00022028Y00035444D01*
X00021908Y00035415D01*
X00021794Y00035367D01*
X00021688Y00035303D01*
X00021594Y00035223D01*
X00021514Y00035129D01*
X00021449Y00035023D01*
X00021402Y00034909D01*
X00021373Y00034789D01*
X00021364Y00034666D01*
X00021364Y00027864D01*
X00021362Y00027833D01*
X00021359Y00027802D01*
X00021353Y00027772D01*
X00021344Y00027742D01*
X00021334Y00027713D01*
X00021321Y00027685D01*
X00021306Y00027658D01*
X00021288Y00027632D01*
X00021269Y00027608D01*
X00021248Y00027585D01*
X00021226Y00027564D01*
X00021201Y00027545D01*
X00021176Y00027528D01*
X00021149Y00027513D01*
X00021121Y00027500D01*
X00021092Y00027489D01*
X00021062Y00027481D01*
X00021032Y00027475D01*
X00021001Y00027471D01*
X00020970Y00027470D01*
X00020786Y00027470D01*
X00020755Y00027471D01*
X00020725Y00027475D01*
X00020694Y00027481D01*
X00020665Y00027489D01*
X00020636Y00027500D01*
X00020608Y00027513D01*
X00020581Y00027528D01*
X00020555Y00027545D01*
X00020531Y00027564D01*
X00020508Y00027585D01*
X00020487Y00027608D01*
X00020468Y00027632D01*
X00020451Y00027658D01*
X00020436Y00027685D01*
X00020423Y00027713D01*
X00020412Y00027742D01*
X00020403Y00027772D01*
X00020397Y00027802D01*
X00020394Y00027833D01*
X00020393Y00027864D01*
X00020393Y00031321D01*
X00016637Y00031321D01*
X00016637Y00027423D01*
X00016635Y00027392D01*
X00016632Y00027361D01*
X00016626Y00027331D01*
X00016617Y00027301D01*
X00016607Y00027272D01*
X00016594Y00027244D01*
X00016579Y00027217D01*
X00016562Y00027191D01*
X00016542Y00027167D01*
X00016521Y00027144D01*
X00016499Y00027123D01*
X00016474Y00027104D01*
X00016449Y00027087D01*
X00016422Y00027072D01*
X00016394Y00027059D01*
X00016365Y00027048D01*
X00016335Y00027040D01*
X00016305Y00027034D01*
X00016274Y00027030D01*
X00016243Y00027029D01*
X00015983Y00027029D01*
X00015952Y00027030D01*
X00015921Y00027034D01*
X00015891Y00027040D01*
X00015861Y00027048D01*
X00015832Y00027059D01*
X00015804Y00027072D01*
X00015777Y00027087D01*
X00015752Y00027104D01*
X00015727Y00027123D01*
X00015705Y00027144D01*
X00015684Y00027167D01*
X00015664Y00027191D01*
X00015647Y00027217D01*
X00015632Y00027244D01*
X00015619Y00027272D01*
X00015609Y00027301D01*
X00015600Y00027331D01*
X00015594Y00027361D01*
X00015590Y00027392D01*
X00015589Y00027423D01*
X00015589Y00030393D01*
X00015580Y00030516D01*
X00015551Y00030637D01*
X00015503Y00030751D01*
X00015439Y00030856D01*
X00015359Y00030950D01*
X00015265Y00031030D01*
X00015159Y00031095D01*
X00015045Y00031142D01*
X00014925Y00031171D01*
X00014802Y00031181D01*
X00011374Y00031181D01*
X00011374Y00031181D01*
X00011374Y00031181D01*
X00011373Y00031181D01*
X00011373Y00031181D01*
X00011373Y00031181D01*
X00011373Y00031181D01*
X00011373Y00031181D01*
X00011372Y00031181D01*
X00011372Y00031181D01*
X00011372Y00031181D01*
X00011372Y00031181D01*
X00011372Y00031181D01*
X00011371Y00031181D01*
X00011371Y00031181D01*
X00011371Y00031181D01*
X00011371Y00031181D01*
X00011371Y00031181D01*
X00011370Y00031181D01*
X00011370Y00031181D01*
X00011370Y00031181D01*
X00011314Y00031181D01*
X00011253Y00031187D01*
X00011193Y00031202D01*
X00011136Y00031226D01*
X00011084Y00031258D01*
X00011037Y00031299D01*
X00010998Y00031346D01*
X00010966Y00031398D01*
X00010943Y00031456D01*
X00010929Y00031515D01*
X00010924Y00031577D01*
X00010929Y00031638D01*
X00010944Y00031698D01*
X00010968Y00031755D01*
X00011000Y00031807D01*
X00011040Y00031854D01*
X00011087Y00031894D01*
X00011140Y00031926D01*
X00011197Y00031949D01*
X00011257Y00031964D01*
X00011318Y00031969D01*
X00012423Y00031969D01*
X00012423Y00035724D01*
X00002345Y00035724D01*
X00002345Y00031969D01*
X00003163Y00031969D01*
X00003224Y00031964D01*
X00003284Y00031949D01*
X00003341Y00031926D01*
X00003393Y00031894D01*
X00003440Y00031854D01*
X00003480Y00031807D01*
X00003513Y00031755D01*
X00003536Y00031698D01*
X00003551Y00031638D01*
X00003556Y00031577D01*
X00003552Y00031516D01*
X00003538Y00031456D01*
X00003515Y00031399D01*
X00003483Y00031346D01*
X00003443Y00031299D01*
X00003397Y00031258D01*
X00003345Y00031226D01*
X00003288Y00031202D01*
X00003228Y00031187D01*
X00003167Y00031181D01*
X00003115Y00031181D01*
X00003114Y00031181D01*
X00003114Y00031181D01*
X00003114Y00031181D01*
X00003114Y00031181D01*
X00003114Y00031181D01*
X00003113Y00031181D01*
X00003113Y00031181D01*
X00003113Y00031181D01*
X00003113Y00031181D01*
X00003113Y00031181D01*
X00003112Y00031181D01*
X00003112Y00031181D01*
X00003112Y00031181D01*
X00003112Y00031181D01*
X00003111Y00031181D01*
X00003111Y00031181D01*
X00003111Y00031181D01*
X00003111Y00031181D01*
X00003111Y00031181D01*
X00003110Y00031181D01*
X00000787Y00031181D01*
X00000664Y00031171D01*
X00000544Y00031142D01*
X00000429Y00031095D01*
X00000324Y00031030D01*
X00000230Y00030950D01*
X00000150Y00030856D01*
X00000085Y00030751D01*
X00000038Y00030637D01*
X00000009Y00030516D01*
X00000000Y00030393D01*
X00000000Y00022125D01*
X00000009Y00022002D01*
X00000038Y00021882D01*
X00000085Y00021768D01*
X00000150Y00021663D01*
X00000230Y00021569D01*
X00000324Y00021488D01*
X00000429Y00021424D01*
X00000544Y00021377D01*
X00000664Y00021348D01*
X00000787Y00021338D01*
X00002769Y00021338D01*
X00002815Y00021335D01*
X00002861Y00021327D01*
X00002906Y00021313D01*
X00002949Y00021294D01*
X00002989Y00021271D01*
X00003026Y00021242D01*
X00003060Y00021209D01*
X00003089Y00021173D01*
X00003114Y00021133D01*
X00003134Y00021091D01*
X00003149Y00021047D01*
X00003158Y00021001D01*
X00003162Y00020954D01*
X00003161Y00020908D01*
X00003153Y00020861D01*
X00003141Y00020816D01*
X00003123Y00020773D01*
X00003100Y00020732D01*
X00003073Y00020694D01*
X00003041Y00020660D01*
X00003000Y00020621D01*
X00002989Y00020611D01*
X00002977Y00020601D01*
X00002966Y00020591D01*
X00002953Y00020583D01*
X00002941Y00020574D01*
X00002928Y00020566D01*
X00002915Y00020559D01*
X00002902Y00020552D01*
X00002888Y00020546D01*
X00002874Y00020540D01*
X00002860Y00020534D01*
X00002846Y00020530D01*
X00002832Y00020525D01*
X00002817Y00020522D01*
X00002802Y00020518D01*
X00002787Y00020516D01*
X00002773Y00020514D01*
X00002758Y00020512D01*
X00002743Y00020512D01*
X00002728Y00020511D01*
X00000787Y00020511D01*
X00000664Y00020502D01*
X00000544Y00020473D01*
X00000429Y00020426D01*
X00000324Y00020361D01*
X00000230Y00020281D01*
X00000150Y00020187D01*
X00000085Y00020081D01*
X00000038Y00019967D01*
X00000009Y00019847D01*
X00000000Y00019724D01*
X00000000Y00011456D01*
X00000009Y00011333D01*
X00000038Y00011213D01*
X00000085Y00011099D01*
X00000150Y00010993D01*
X00000230Y00010899D01*
X00000324Y00010819D01*
X00000429Y00010755D01*
X00000544Y00010707D01*
X00000664Y00010678D01*
X00000787Y00010669D01*
X00002360Y00010669D01*
M02*