%MOIN*%
%OFA0B0*%
%FSLAX46Y46*%
%IPPOS*%
%LPD*%
%ADD10C,0.005905511811023622*%
%ADD21C,0.005905511811023622*%
%ADD22C,0.0047244094488188976*%
%ADD23C,0.005905511811023622*%
G01*
D10*
X0001348317Y0000904520D02*
X0001348317Y0000943890D01*
X0001361441Y0000915769D01*
X0001374564Y0000943890D01*
X0001374564Y0000904520D01*
X0001391437Y0000940140D02*
X0001393312Y0000942015D01*
X0001397061Y0000943890D01*
X0001406435Y0000943890D01*
X0001410185Y0000942015D01*
X0001412059Y0000940140D01*
X0001413934Y0000936391D01*
X0001413934Y0000932641D01*
X0001412059Y0000927017D01*
X0001389562Y0000904520D01*
X0001413934Y0000904520D01*
X0001327695Y0000860182D02*
X0001333319Y0000858307D01*
X0001335194Y0000856432D01*
X0001337069Y0000852683D01*
X0001337069Y0000847058D01*
X0001335194Y0000843309D01*
X0001333319Y0000841434D01*
X0001329570Y0000839559D01*
X0001314572Y0000839559D01*
X0001314572Y0000878929D01*
X0001327695Y0000878929D01*
X0001331444Y0000877055D01*
X0001333319Y0000875180D01*
X0001335194Y0000871430D01*
X0001335194Y0000867681D01*
X0001333319Y0000863931D01*
X0001331444Y0000862057D01*
X0001327695Y0000860182D01*
X0001314572Y0000860182D01*
X0001359566Y0000839559D02*
X0001355816Y0000841434D01*
X0001353942Y0000843309D01*
X0001352067Y0000847058D01*
X0001352067Y0000858307D01*
X0001353942Y0000862057D01*
X0001355816Y0000863931D01*
X0001359566Y0000865806D01*
X0001365190Y0000865806D01*
X0001368940Y0000863931D01*
X0001370815Y0000862057D01*
X0001372689Y0000858307D01*
X0001372689Y0000847058D01*
X0001370815Y0000843309D01*
X0001368940Y0000841434D01*
X0001365190Y0000839559D01*
X0001359566Y0000839559D01*
X0001395187Y0000839559D02*
X0001391437Y0000841434D01*
X0001389562Y0000845184D01*
X0001389562Y0000878929D01*
X0001404560Y0000865806D02*
X0001419558Y0000865806D01*
X0001410185Y0000878929D02*
X0001410185Y0000845184D01*
X0001412059Y0000841434D01*
X0001415809Y0000839559D01*
X0001419558Y0000839559D01*
X0001430807Y0000841434D02*
X0001434557Y0000839559D01*
X0001442056Y0000839559D01*
X0001445805Y0000841434D01*
X0001447680Y0000845184D01*
X0001447680Y0000847058D01*
X0001445805Y0000850808D01*
X0001442056Y0000852683D01*
X0001436431Y0000852683D01*
X0001432682Y0000854557D01*
X0001430807Y0000858307D01*
X0001430807Y0000860182D01*
X0001432682Y0000863931D01*
X0001436431Y0000865806D01*
X0001442056Y0000865806D01*
X0001445805Y0000863931D01*
X0000812148Y0000580370D02*
X0000819647Y0000580370D01*
X0000823397Y0000578496D01*
X0000827146Y0000574746D01*
X0000829021Y0000567247D01*
X0000829021Y0000554124D01*
X0000827146Y0000546625D01*
X0000823397Y0000542875D01*
X0000819647Y0000541000D01*
X0000812148Y0000541000D01*
X0000808399Y0000542875D01*
X0000804649Y0000546625D01*
X0000802774Y0000554124D01*
X0000802774Y0000567247D01*
X0000804649Y0000574746D01*
X0000808399Y0000578496D01*
X0000812148Y0000580370D01*
X0000845894Y0000567247D02*
X0000845894Y0000527877D01*
X0000845894Y0000565372D02*
X0000849644Y0000567247D01*
X0000857143Y0000567247D01*
X0000860892Y0000565372D01*
X0000862767Y0000563497D01*
X0000864642Y0000559748D01*
X0000864642Y0000548499D01*
X0000862767Y0000544750D01*
X0000860892Y0000542875D01*
X0000857143Y0000541000D01*
X0000849644Y0000541000D01*
X0000845894Y0000542875D01*
X0000896513Y0000542875D02*
X0000892763Y0000541000D01*
X0000885264Y0000541000D01*
X0000881515Y0000542875D01*
X0000879640Y0000546625D01*
X0000879640Y0000561623D01*
X0000881515Y0000565372D01*
X0000885264Y0000567247D01*
X0000892763Y0000567247D01*
X0000896513Y0000565372D01*
X0000898387Y0000561623D01*
X0000898387Y0000557873D01*
X0000879640Y0000554124D01*
X0000915260Y0000567247D02*
X0000915260Y0000541000D01*
X0000915260Y0000563497D02*
X0000917135Y0000565372D01*
X0000920885Y0000567247D01*
X0000926509Y0000567247D01*
X0000930258Y0000565372D01*
X0000932133Y0000561623D01*
X0000932133Y0000541000D01*
X0000980877Y0000541000D02*
X0000980877Y0000580370D01*
X0000995875Y0000580370D01*
X0000999625Y0000578496D01*
X0001001500Y0000576621D01*
X0001003374Y0000572871D01*
X0001003374Y0000567247D01*
X0001001500Y0000563497D01*
X0000999625Y0000561623D01*
X0000995875Y0000559748D01*
X0000980877Y0000559748D01*
X0001016498Y0000567247D02*
X0001025872Y0000541000D01*
X0001035245Y0000567247D02*
X0001025872Y0000541000D01*
X0001022122Y0000531626D01*
X0001020247Y0000529752D01*
X0001016498Y0000527877D01*
X0001050244Y0000541000D02*
X0001050244Y0000567247D01*
X0001050244Y0000559748D02*
X0001052118Y0000563497D01*
X0001053993Y0000565372D01*
X0001057743Y0000567247D01*
X0001061492Y0000567247D01*
X0001080240Y0000541000D02*
X0001076490Y0000542875D01*
X0001074615Y0000544750D01*
X0001072741Y0000548499D01*
X0001072741Y0000559748D01*
X0001074615Y0000563497D01*
X0001076490Y0000565372D01*
X0001080240Y0000567247D01*
X0001085864Y0000567247D01*
X0001089614Y0000565372D01*
X0001091488Y0000563497D01*
X0001093363Y0000559748D01*
X0001093363Y0000548499D01*
X0001091488Y0000544750D01*
X0001089614Y0000542875D01*
X0001085864Y0000541000D01*
X0001080240Y0000541000D01*
X0001121485Y0000580370D02*
X0001121485Y0000552249D01*
X0001119610Y0000546625D01*
X0001115860Y0000542875D01*
X0001110236Y0000541000D01*
X0001106486Y0000541000D01*
X0001155230Y0000542875D02*
X0001151481Y0000541000D01*
X0001143982Y0000541000D01*
X0001140232Y0000542875D01*
X0001138357Y0000546625D01*
X0001138357Y0000561623D01*
X0001140232Y0000565372D01*
X0001143982Y0000567247D01*
X0001151481Y0000567247D01*
X0001155230Y0000565372D01*
X0001157105Y0000561623D01*
X0001157105Y0000557873D01*
X0001138357Y0000554124D01*
X0001168354Y0000567247D02*
X0001183352Y0000567247D01*
X0001173978Y0000580370D02*
X0001173978Y0000546625D01*
X0001175853Y0000542875D01*
X0001179602Y0000541000D01*
X0001183352Y0000541000D01*
X0000857143Y0000476040D02*
X0000857143Y0000515410D01*
X0000872141Y0000515410D01*
X0000875890Y0000513535D01*
X0000877765Y0000511660D01*
X0000879640Y0000507911D01*
X0000879640Y0000502286D01*
X0000877765Y0000498537D01*
X0000875890Y0000496662D01*
X0000872141Y0000494787D01*
X0000857143Y0000494787D01*
X0000896513Y0000476040D02*
X0000896513Y0000502286D01*
X0000896513Y0000494787D02*
X0000898387Y0000498537D01*
X0000900262Y0000500412D01*
X0000904012Y0000502286D01*
X0000907761Y0000502286D01*
X0000920885Y0000476040D02*
X0000920885Y0000502286D01*
X0000920885Y0000515410D02*
X0000919010Y0000513535D01*
X0000920885Y0000511660D01*
X0000922759Y0000513535D01*
X0000920885Y0000515410D01*
X0000920885Y0000511660D01*
X0000939632Y0000502286D02*
X0000939632Y0000476040D01*
X0000939632Y0000498537D02*
X0000941507Y0000500412D01*
X0000945257Y0000502286D01*
X0000950881Y0000502286D01*
X0000954630Y0000500412D01*
X0000956505Y0000496662D01*
X0000956505Y0000476040D01*
X0000969629Y0000502286D02*
X0000984627Y0000502286D01*
X0000975253Y0000515410D02*
X0000975253Y0000481664D01*
X0000977128Y0000477914D01*
X0000980877Y0000476040D01*
X0000984627Y0000476040D01*
X0000997750Y0000476040D02*
X0000997750Y0000515410D01*
X0000997750Y0000496662D02*
X0001020247Y0000496662D01*
X0001020247Y0000476040D02*
X0001020247Y0000515410D01*
X0001053993Y0000477914D02*
X0001050244Y0000476040D01*
X0001042744Y0000476040D01*
X0001038995Y0000477914D01*
X0001037120Y0000481664D01*
X0001037120Y0000496662D01*
X0001038995Y0000500412D01*
X0001042744Y0000502286D01*
X0001050244Y0000502286D01*
X0001053993Y0000500412D01*
X0001055868Y0000496662D01*
X0001055868Y0000492913D01*
X0001037120Y0000489163D01*
X0001089614Y0000476040D02*
X0001089614Y0000496662D01*
X0001087739Y0000500412D01*
X0001083989Y0000502286D01*
X0001076490Y0000502286D01*
X0001072741Y0000500412D01*
X0001089614Y0000477914D02*
X0001085864Y0000476040D01*
X0001076490Y0000476040D01*
X0001072741Y0000477914D01*
X0001070866Y0000481664D01*
X0001070866Y0000485413D01*
X0001072741Y0000489163D01*
X0001076490Y0000491038D01*
X0001085864Y0000491038D01*
X0001089614Y0000492913D01*
X0001125234Y0000476040D02*
X0001125234Y0000515410D01*
X0001125234Y0000477914D02*
X0001121485Y0000476040D01*
X0001113986Y0000476040D01*
X0001110236Y0000477914D01*
X0001108361Y0000479789D01*
X0001106486Y0000483539D01*
X0001106486Y0000494787D01*
X0001108361Y0000498537D01*
X0001110236Y0000500412D01*
X0001113986Y0000502286D01*
X0001121485Y0000502286D01*
X0001125234Y0000500412D01*
X0000919947Y0000448574D02*
X0000916198Y0000450449D01*
X0000910573Y0000450449D01*
X0000904949Y0000448574D01*
X0000901200Y0000444825D01*
X0000899325Y0000441075D01*
X0000897450Y0000433576D01*
X0000897450Y0000427952D01*
X0000899325Y0000420453D01*
X0000901200Y0000416703D01*
X0000904949Y0000412954D01*
X0000910573Y0000411079D01*
X0000914323Y0000411079D01*
X0000919947Y0000412954D01*
X0000921822Y0000414829D01*
X0000921822Y0000427952D01*
X0000914323Y0000427952D01*
X0000953693Y0000412954D02*
X0000949944Y0000411079D01*
X0000942444Y0000411079D01*
X0000938695Y0000412954D01*
X0000936820Y0000416703D01*
X0000936820Y0000431701D01*
X0000938695Y0000435451D01*
X0000942444Y0000437326D01*
X0000949944Y0000437326D01*
X0000953693Y0000435451D01*
X0000955568Y0000431701D01*
X0000955568Y0000427952D01*
X0000936820Y0000424202D01*
X0000972441Y0000437326D02*
X0000972441Y0000411079D01*
X0000972441Y0000433576D02*
X0000974315Y0000435451D01*
X0000978065Y0000437326D01*
X0000983689Y0000437326D01*
X0000987439Y0000435451D01*
X0000989314Y0000431701D01*
X0000989314Y0000411079D01*
X0001004312Y0000450449D02*
X0001028684Y0000450449D01*
X0001015560Y0000435451D01*
X0001021185Y0000435451D01*
X0001024934Y0000433576D01*
X0001026809Y0000431701D01*
X0001028684Y0000427952D01*
X0001028684Y0000418578D01*
X0001026809Y0000414829D01*
X0001024934Y0000412954D01*
X0001021185Y0000411079D01*
X0001009936Y0000411079D01*
X0001006187Y0000412954D01*
X0001004312Y0000414829D01*
X0001045557Y0000414829D02*
X0001047431Y0000412954D01*
X0001045557Y0000411079D01*
X0001043682Y0000412954D01*
X0001045557Y0000414829D01*
X0001045557Y0000411079D01*
X0001084927Y0000411079D02*
X0001062429Y0000411079D01*
X0001073678Y0000411079D02*
X0001073678Y0000450449D01*
X0001069929Y0000444825D01*
X0001066179Y0000441075D01*
X0001062429Y0000439200D01*
G04 next file*
G04 #@! TF.GenerationSoftware,KiCad,Pcbnew,(5.1.12)-1*
G04 #@! TF.CreationDate,2022-03-26T22:13:32+08:00*
G04 #@! TF.ProjectId,Nozzle,4e6f7a7a-6c65-42e6-9b69-6361645f7063,0.5*
G04 #@! TF.SameCoordinates,Original*
G04 #@! TF.FileFunction,Legend,Top*
G04 #@! TF.FilePolarity,Positive*
G04 Gerber Fmt 4.6, Leading zero omitted, Abs format (unit mm)*
G04 Created by KiCad (PCBNEW (5.1.12)-1) date 2022-03-26 22:13:32*
G01*
G04 APERTURE LIST*
G04 APERTURE END LIST*
D21*
X0003210318Y0003179670D02*
X0003210318Y0003219040D01*
X0003232815Y0003179670D01*
X0003232815Y0003219040D01*
X0003247813Y0003219040D02*
X0003274060Y0003219040D01*
X0003257187Y0003179670D01*
X0003111318Y0003179670D02*
X0003111318Y0003219040D01*
X0003133815Y0003179670D01*
X0003133815Y0003219040D01*
X0003169436Y0003219040D02*
X0003161937Y0003219040D01*
X0003158187Y0003217165D01*
X0003156313Y0003215290D01*
X0003152563Y0003209666D01*
X0003150688Y0003202167D01*
X0003150688Y0003187169D01*
X0003152563Y0003183419D01*
X0003154438Y0003181544D01*
X0003158187Y0003179670D01*
X0003165686Y0003179670D01*
X0003169436Y0003181544D01*
X0003171311Y0003183419D01*
X0003173185Y0003187169D01*
X0003173185Y0003196542D01*
X0003171311Y0003200292D01*
X0003169436Y0003202167D01*
X0003165686Y0003204042D01*
X0003158187Y0003204042D01*
X0003154438Y0003202167D01*
X0003152563Y0003200292D01*
X0003150688Y0003196542D01*
X0003012318Y0003179670D02*
X0003012318Y0003219040D01*
X0003034815Y0003179670D01*
X0003034815Y0003219040D01*
X0003072311Y0003219040D02*
X0003053563Y0003219040D01*
X0003051688Y0003200292D01*
X0003053563Y0003202167D01*
X0003057313Y0003204042D01*
X0003066686Y0003204042D01*
X0003070436Y0003202167D01*
X0003072311Y0003200292D01*
X0003074185Y0003196542D01*
X0003074185Y0003187169D01*
X0003072311Y0003183419D01*
X0003070436Y0003181544D01*
X0003066686Y0003179670D01*
X0003057313Y0003179670D01*
X0003053563Y0003181544D01*
X0003051688Y0003183419D01*
X0002912318Y0003178670D02*
X0002912318Y0003218040D01*
X0002934815Y0003178670D01*
X0002934815Y0003218040D01*
X0002970436Y0003204916D02*
X0002970436Y0003178670D01*
X0002961062Y0003219914D02*
X0002951688Y0003191793D01*
X0002976060Y0003191793D01*
X0002812318Y0003179670D02*
X0002812318Y0003219040D01*
X0002834815Y0003179670D01*
X0002834815Y0003219040D01*
X0002849814Y0003219040D02*
X0002874185Y0003219040D01*
X0002861062Y0003204042D01*
X0002866686Y0003204042D01*
X0002870436Y0003202167D01*
X0002872311Y0003200292D01*
X0002874185Y0003196542D01*
X0002874185Y0003187169D01*
X0002872311Y0003183419D01*
X0002870436Y0003181544D01*
X0002866686Y0003179670D01*
X0002855438Y0003179670D01*
X0002851688Y0003181544D01*
X0002849814Y0003183419D01*
X0002714318Y0003179670D02*
X0002714318Y0003219040D01*
X0002736815Y0003179670D01*
X0002736815Y0003219040D01*
X0002753688Y0003215290D02*
X0002755563Y0003217165D01*
X0002759313Y0003219040D01*
X0002768686Y0003219040D01*
X0002772436Y0003217165D01*
X0002774311Y0003215290D01*
X0002776185Y0003211541D01*
X0002776185Y0003207791D01*
X0002774311Y0003202167D01*
X0002751814Y0003179670D01*
X0002776185Y0003179670D01*
X0002612318Y0003180670D02*
X0002612318Y0003220040D01*
X0002634815Y0003180670D01*
X0002634815Y0003220040D01*
X0002674185Y0003180670D02*
X0002651688Y0003180670D01*
X0002662937Y0003180670D02*
X0002662937Y0003220040D01*
X0002659187Y0003214415D01*
X0002655438Y0003210666D01*
X0002651688Y0003208791D01*
X0002511318Y0003180670D02*
X0002511318Y0003220040D01*
X0002533815Y0003180670D01*
X0002533815Y0003220040D01*
X0002560062Y0003220040D02*
X0002563812Y0003220040D01*
X0002567561Y0003218165D01*
X0002569436Y0003216290D01*
X0002571311Y0003212541D01*
X0002573185Y0003205042D01*
X0002573185Y0003195668D01*
X0002571311Y0003188169D01*
X0002569436Y0003184419D01*
X0002567561Y0003182544D01*
X0002563812Y0003180670D01*
X0002560062Y0003180670D01*
X0002556313Y0003182544D01*
X0002554438Y0003184419D01*
X0002552563Y0003188169D01*
X0002550688Y0003195668D01*
X0002550688Y0003205042D01*
X0002552563Y0003212541D01*
X0002554438Y0003216290D01*
X0002556313Y0003218165D01*
X0002560062Y0003220040D01*
X0003386443Y0003476670D02*
X0003386443Y0003516040D01*
X0003399567Y0003487918D01*
X0003412690Y0003516040D01*
X0003412690Y0003476670D01*
X0003429563Y0003512290D02*
X0003431438Y0003514165D01*
X0003435187Y0003516040D01*
X0003444561Y0003516040D01*
X0003448311Y0003514165D01*
X0003450185Y0003512290D01*
X0003452060Y0003508541D01*
X0003452060Y0003504791D01*
X0003450185Y0003499167D01*
X0003427688Y0003476670D01*
X0003452060Y0003476670D01*
D22*
X0002487952Y0003397480D02*
X0002487952Y0003449842D01*
X0002487952Y0003449842D02*
X0002540314Y0003449842D01*
X0002487952Y0003347480D02*
X0002590314Y0003347480D01*
X0002590314Y0003347480D02*
X0002590314Y0003449842D01*
X0002590314Y0003449842D02*
X0003292677Y0003449842D01*
X0003292677Y0003245118D02*
X0003292677Y0003449842D01*
X0002487952Y0003245118D02*
X0003292677Y0003245118D01*
X0002487952Y0003245118D02*
X0002487952Y0003347480D01*
D21*
X0002399191Y0003380040D02*
X0002399191Y0003351918D01*
X0002397316Y0003346294D01*
X0002393567Y0003342544D01*
X0002387942Y0003340670D01*
X0002384193Y0003340670D01*
X0002438561Y0003340670D02*
X0002416064Y0003340670D01*
X0002427313Y0003340670D02*
X0002427313Y0003380040D01*
X0002423563Y0003374415D01*
X0002419813Y0003370666D01*
X0002416064Y0003368791D01*
G04 next file*
G04 #@! TF.GenerationSoftware,KiCad,Pcbnew,(5.1.12)-1*
G04 #@! TF.CreationDate,2022-03-26T22:12:51+08:00*
G04 #@! TF.ProjectId,Nozzle,4e6f7a7a-6c65-42e6-9b69-6361645f7063,0.5*
G04 #@! TF.SameCoordinates,Original*
G04 #@! TF.FileFunction,Legend,Top*
G04 #@! TF.FilePolarity,Positive*
G04 Gerber Fmt 4.6, Leading zero omitted, Abs format (unit mm)*
G04 Created by KiCad (PCBNEW (5.1.12)-1) date 2022-03-26 22:12:51*
G01*
G04 APERTURE LIST*
G04 APERTURE END LIST*
G04 next file*
G04 #@! TF.GenerationSoftware,KiCad,Pcbnew,(5.1.12)-1*
G04 #@! TF.CreationDate,2022-03-26T22:12:51+08:00*
G04 #@! TF.ProjectId,Nozzle,4e6f7a7a-6c65-42e6-9b69-6361645f7063,0.5*
G04 #@! TF.SameCoordinates,Original*
G04 #@! TF.FileFunction,Legend,Top*
G04 #@! TF.FilePolarity,Positive*
G04 Gerber Fmt 4.6, Leading zero omitted, Abs format (unit mm)*
G04 Created by KiCad (PCBNEW (5.1.12)-1) date 2022-03-26 22:12:51*
G01*
G04 APERTURE LIST*
G04 APERTURE END LIST*
G04 next file*
G04 #@! TF.GenerationSoftware,KiCad,Pcbnew,(5.1.12)-1*
G04 #@! TF.CreationDate,2022-03-26T22:12:51+08:00*
G04 #@! TF.ProjectId,Nozzle,4e6f7a7a-6c65-42e6-9b69-6361645f7063,0.5*
G04 #@! TF.SameCoordinates,Original*
G04 #@! TF.FileFunction,Legend,Top*
G04 #@! TF.FilePolarity,Positive*
G04 Gerber Fmt 4.6, Leading zero omitted, Abs format (unit mm)*
G04 Created by KiCad (PCBNEW (5.1.12)-1) date 2022-03-26 22:12:51*
G01*
G04 APERTURE LIST*
G04 APERTURE END LIST*
G04 next file*
G04 #@! TF.GenerationSoftware,KiCad,Pcbnew,(5.1.12)-1*
G04 #@! TF.CreationDate,2022-03-26T22:19:29+08:00*
G04 #@! TF.ProjectId,Nozzle,4e6f7a7a-6c65-42e6-9b69-6361645f7063,0.5*
G04 #@! TF.SameCoordinates,Original*
G04 #@! TF.FileFunction,Legend,Top*
G04 #@! TF.FilePolarity,Positive*
G04 Gerber Fmt 4.6, Leading zero omitted, Abs format (unit mm)*
G04 Created by KiCad (PCBNEW (5.1.12)-1) date 2022-03-26 22:19:29*
G01*
G04 APERTURE LIST*
G04 APERTURE END LIST*
G04 next file*
G04 #@! TF.GenerationSoftware,KiCad,Pcbnew,(5.1.12)-1*
G04 #@! TF.CreationDate,2022-03-26T22:19:29+08:00*
G04 #@! TF.ProjectId,Nozzle,4e6f7a7a-6c65-42e6-9b69-6361645f7063,0.5*
G04 #@! TF.SameCoordinates,Original*
G04 #@! TF.FileFunction,Legend,Top*
G04 #@! TF.FilePolarity,Positive*
G04 Gerber Fmt 4.6, Leading zero omitted, Abs format (unit mm)*
G04 Created by KiCad (PCBNEW (5.1.12)-1) date 2022-03-26 22:19:29*
G01*
G04 APERTURE LIST*
G04 APERTURE END LIST*
G04 next file*
G04 #@! TF.GenerationSoftware,KiCad,Pcbnew,(5.1.12)-1*
G04 #@! TF.CreationDate,2022-03-26T22:23:47+08:00*
G04 #@! TF.ProjectId,Nozzle,4e6f7a7a-6c65-42e6-9b69-6361645f7063,0.5*
G04 #@! TF.SameCoordinates,Original*
G04 #@! TF.FileFunction,Legend,Top*
G04 #@! TF.FilePolarity,Positive*
G04 Gerber Fmt 4.6, Leading zero omitted, Abs format (unit mm)*
G04 Created by KiCad (PCBNEW (5.1.12)-1) date 2022-03-26 22:23:47*
G01*
G04 APERTURE LIST*
G04 APERTURE END LIST*
D23*
X0001348281Y0001967789D02*
X0001348281Y0002007159D01*
X0001361404Y0001979038D01*
X0001374528Y0002007159D01*
X0001374528Y0001967789D01*
X0001391401Y0002003410D02*
X0001393275Y0002005284D01*
X0001397025Y0002007159D01*
X0001406399Y0002007159D01*
X0001410148Y0002005284D01*
X0001412023Y0002003410D01*
X0001413898Y0001999660D01*
X0001413898Y0001995910D01*
X0001412023Y0001990286D01*
X0001389526Y0001967789D01*
X0001413898Y0001967789D01*
X0001327659Y0001923451D02*
X0001333283Y0001921576D01*
X0001335158Y0001919701D01*
X0001337032Y0001915952D01*
X0001337032Y0001910327D01*
X0001335158Y0001906578D01*
X0001333283Y0001904703D01*
X0001329533Y0001902828D01*
X0001314535Y0001902828D01*
X0001314535Y0001942198D01*
X0001327659Y0001942198D01*
X0001331408Y0001940324D01*
X0001333283Y0001938449D01*
X0001335158Y0001934699D01*
X0001335158Y0001930950D01*
X0001333283Y0001927200D01*
X0001331408Y0001925326D01*
X0001327659Y0001923451D01*
X0001314535Y0001923451D01*
X0001359530Y0001902828D02*
X0001355780Y0001904703D01*
X0001353905Y0001906578D01*
X0001352031Y0001910327D01*
X0001352031Y0001921576D01*
X0001353905Y0001925326D01*
X0001355780Y0001927200D01*
X0001359530Y0001929075D01*
X0001365154Y0001929075D01*
X0001368903Y0001927200D01*
X0001370778Y0001925326D01*
X0001372653Y0001921576D01*
X0001372653Y0001910327D01*
X0001370778Y0001906578D01*
X0001368903Y0001904703D01*
X0001365154Y0001902828D01*
X0001359530Y0001902828D01*
X0001395150Y0001902828D02*
X0001391401Y0001904703D01*
X0001389526Y0001908453D01*
X0001389526Y0001942198D01*
X0001404524Y0001929075D02*
X0001419522Y0001929075D01*
X0001410148Y0001942198D02*
X0001410148Y0001908453D01*
X0001412023Y0001904703D01*
X0001415773Y0001902828D01*
X0001419522Y0001902828D01*
X0001430771Y0001904703D02*
X0001434520Y0001902828D01*
X0001442019Y0001902828D01*
X0001445769Y0001904703D01*
X0001447644Y0001908453D01*
X0001447644Y0001910327D01*
X0001445769Y0001914077D01*
X0001442019Y0001915952D01*
X0001436395Y0001915952D01*
X0001432645Y0001917827D01*
X0001430771Y0001921576D01*
X0001430771Y0001923451D01*
X0001432645Y0001927200D01*
X0001436395Y0001929075D01*
X0001442019Y0001929075D01*
X0001445769Y0001927200D01*
X0000812112Y0001643639D02*
X0000819611Y0001643639D01*
X0000823361Y0001641765D01*
X0000827110Y0001638015D01*
X0000828985Y0001630516D01*
X0000828985Y0001617393D01*
X0000827110Y0001609894D01*
X0000823361Y0001606144D01*
X0000819611Y0001604269D01*
X0000812112Y0001604269D01*
X0000808362Y0001606144D01*
X0000804613Y0001609894D01*
X0000802738Y0001617393D01*
X0000802738Y0001630516D01*
X0000804613Y0001638015D01*
X0000808362Y0001641765D01*
X0000812112Y0001643639D01*
X0000845858Y0001630516D02*
X0000845858Y0001591146D01*
X0000845858Y0001628641D02*
X0000849607Y0001630516D01*
X0000857106Y0001630516D01*
X0000860856Y0001628641D01*
X0000862731Y0001626767D01*
X0000864605Y0001623017D01*
X0000864605Y0001611768D01*
X0000862731Y0001608019D01*
X0000860856Y0001606144D01*
X0000857106Y0001604269D01*
X0000849607Y0001604269D01*
X0000845858Y0001606144D01*
X0000896476Y0001606144D02*
X0000892727Y0001604269D01*
X0000885228Y0001604269D01*
X0000881478Y0001606144D01*
X0000879603Y0001609894D01*
X0000879603Y0001624892D01*
X0000881478Y0001628641D01*
X0000885228Y0001630516D01*
X0000892727Y0001630516D01*
X0000896476Y0001628641D01*
X0000898351Y0001624892D01*
X0000898351Y0001621142D01*
X0000879603Y0001617393D01*
X0000915224Y0001630516D02*
X0000915224Y0001604269D01*
X0000915224Y0001626767D02*
X0000917099Y0001628641D01*
X0000920848Y0001630516D01*
X0000926473Y0001630516D01*
X0000930222Y0001628641D01*
X0000932097Y0001624892D01*
X0000932097Y0001604269D01*
X0000980841Y0001604269D02*
X0000980841Y0001643639D01*
X0000995839Y0001643639D01*
X0000999588Y0001641765D01*
X0001001463Y0001639890D01*
X0001003338Y0001636140D01*
X0001003338Y0001630516D01*
X0001001463Y0001626767D01*
X0000999588Y0001624892D01*
X0000995839Y0001623017D01*
X0000980841Y0001623017D01*
X0001016461Y0001630516D02*
X0001025835Y0001604269D01*
X0001035209Y0001630516D02*
X0001025835Y0001604269D01*
X0001022086Y0001594895D01*
X0001020211Y0001593021D01*
X0001016461Y0001591146D01*
X0001050207Y0001604269D02*
X0001050207Y0001630516D01*
X0001050207Y0001623017D02*
X0001052082Y0001626767D01*
X0001053957Y0001628641D01*
X0001057706Y0001630516D01*
X0001061456Y0001630516D01*
X0001080203Y0001604269D02*
X0001076454Y0001606144D01*
X0001074579Y0001608019D01*
X0001072704Y0001611768D01*
X0001072704Y0001623017D01*
X0001074579Y0001626767D01*
X0001076454Y0001628641D01*
X0001080203Y0001630516D01*
X0001085828Y0001630516D01*
X0001089577Y0001628641D01*
X0001091452Y0001626767D01*
X0001093327Y0001623017D01*
X0001093327Y0001611768D01*
X0001091452Y0001608019D01*
X0001089577Y0001606144D01*
X0001085828Y0001604269D01*
X0001080203Y0001604269D01*
X0001121448Y0001643639D02*
X0001121448Y0001615518D01*
X0001119573Y0001609894D01*
X0001115824Y0001606144D01*
X0001110200Y0001604269D01*
X0001106450Y0001604269D01*
X0001155194Y0001606144D02*
X0001151445Y0001604269D01*
X0001143945Y0001604269D01*
X0001140196Y0001606144D01*
X0001138321Y0001609894D01*
X0001138321Y0001624892D01*
X0001140196Y0001628641D01*
X0001143945Y0001630516D01*
X0001151445Y0001630516D01*
X0001155194Y0001628641D01*
X0001157069Y0001624892D01*
X0001157069Y0001621142D01*
X0001138321Y0001617393D01*
X0001168317Y0001630516D02*
X0001183316Y0001630516D01*
X0001173942Y0001643639D02*
X0001173942Y0001609894D01*
X0001175816Y0001606144D01*
X0001179566Y0001604269D01*
X0001183316Y0001604269D01*
X0000857106Y0001539309D02*
X0000857106Y0001578679D01*
X0000872104Y0001578679D01*
X0000875854Y0001576804D01*
X0000877729Y0001574929D01*
X0000879603Y0001571180D01*
X0000879603Y0001565555D01*
X0000877729Y0001561806D01*
X0000875854Y0001559931D01*
X0000872104Y0001558056D01*
X0000857106Y0001558056D01*
X0000896476Y0001539309D02*
X0000896476Y0001565555D01*
X0000896476Y0001558056D02*
X0000898351Y0001561806D01*
X0000900226Y0001563681D01*
X0000903975Y0001565555D01*
X0000907725Y0001565555D01*
X0000920848Y0001539309D02*
X0000920848Y0001565555D01*
X0000920848Y0001578679D02*
X0000918974Y0001576804D01*
X0000920848Y0001574929D01*
X0000922723Y0001576804D01*
X0000920848Y0001578679D01*
X0000920848Y0001574929D01*
X0000939596Y0001565555D02*
X0000939596Y0001539309D01*
X0000939596Y0001561806D02*
X0000941471Y0001563681D01*
X0000945220Y0001565555D01*
X0000950845Y0001565555D01*
X0000954594Y0001563681D01*
X0000956469Y0001559931D01*
X0000956469Y0001539309D01*
X0000969592Y0001565555D02*
X0000984590Y0001565555D01*
X0000975217Y0001578679D02*
X0000975217Y0001544933D01*
X0000977091Y0001541183D01*
X0000980841Y0001539309D01*
X0000984590Y0001539309D01*
X0000997714Y0001539309D02*
X0000997714Y0001578679D01*
X0000997714Y0001559931D02*
X0001020211Y0001559931D01*
X0001020211Y0001539309D02*
X0001020211Y0001578679D01*
X0001053957Y0001541183D02*
X0001050207Y0001539309D01*
X0001042708Y0001539309D01*
X0001038959Y0001541183D01*
X0001037084Y0001544933D01*
X0001037084Y0001559931D01*
X0001038959Y0001563681D01*
X0001042708Y0001565555D01*
X0001050207Y0001565555D01*
X0001053957Y0001563681D01*
X0001055831Y0001559931D01*
X0001055831Y0001556182D01*
X0001037084Y0001552432D01*
X0001089577Y0001539309D02*
X0001089577Y0001559931D01*
X0001087702Y0001563681D01*
X0001083953Y0001565555D01*
X0001076454Y0001565555D01*
X0001072704Y0001563681D01*
X0001089577Y0001541183D02*
X0001085828Y0001539309D01*
X0001076454Y0001539309D01*
X0001072704Y0001541183D01*
X0001070830Y0001544933D01*
X0001070830Y0001548683D01*
X0001072704Y0001552432D01*
X0001076454Y0001554307D01*
X0001085828Y0001554307D01*
X0001089577Y0001556182D01*
X0001125198Y0001539309D02*
X0001125198Y0001578679D01*
X0001125198Y0001541183D02*
X0001121448Y0001539309D01*
X0001113949Y0001539309D01*
X0001110200Y0001541183D01*
X0001108325Y0001543058D01*
X0001106450Y0001546808D01*
X0001106450Y0001558056D01*
X0001108325Y0001561806D01*
X0001110200Y0001563681D01*
X0001113949Y0001565555D01*
X0001121448Y0001565555D01*
X0001125198Y0001563681D01*
X0000919911Y0001511843D02*
X0000916161Y0001513718D01*
X0000910537Y0001513718D01*
X0000904913Y0001511843D01*
X0000901163Y0001508094D01*
X0000899289Y0001504344D01*
X0000897414Y0001496845D01*
X0000897414Y0001491221D01*
X0000899289Y0001483722D01*
X0000901163Y0001479972D01*
X0000904913Y0001476223D01*
X0000910537Y0001474348D01*
X0000914287Y0001474348D01*
X0000919911Y0001476223D01*
X0000921786Y0001478098D01*
X0000921786Y0001491221D01*
X0000914287Y0001491221D01*
X0000953657Y0001476223D02*
X0000949907Y0001474348D01*
X0000942408Y0001474348D01*
X0000938659Y0001476223D01*
X0000936784Y0001479972D01*
X0000936784Y0001494970D01*
X0000938659Y0001498720D01*
X0000942408Y0001500595D01*
X0000949907Y0001500595D01*
X0000953657Y0001498720D01*
X0000955532Y0001494970D01*
X0000955532Y0001491221D01*
X0000936784Y0001487471D01*
X0000972404Y0001500595D02*
X0000972404Y0001474348D01*
X0000972404Y0001496845D02*
X0000974279Y0001498720D01*
X0000978029Y0001500595D01*
X0000983653Y0001500595D01*
X0000987402Y0001498720D01*
X0000989277Y0001494970D01*
X0000989277Y0001474348D01*
X0001004275Y0001513718D02*
X0001028647Y0001513718D01*
X0001015524Y0001498720D01*
X0001021148Y0001498720D01*
X0001024898Y0001496845D01*
X0001026773Y0001494970D01*
X0001028647Y0001491221D01*
X0001028647Y0001481847D01*
X0001026773Y0001478098D01*
X0001024898Y0001476223D01*
X0001021148Y0001474348D01*
X0001009900Y0001474348D01*
X0001006150Y0001476223D01*
X0001004275Y0001478098D01*
X0001045520Y0001478098D02*
X0001047395Y0001476223D01*
X0001045520Y0001474348D01*
X0001043645Y0001476223D01*
X0001045520Y0001478098D01*
X0001045520Y0001474348D01*
X0001084890Y0001474348D02*
X0001062393Y0001474348D01*
X0001073642Y0001474348D02*
X0001073642Y0001513718D01*
X0001069892Y0001508094D01*
X0001066143Y0001504344D01*
X0001062393Y0001502470D01*
M02*