%
M48
METRIC,000.000
T01C0.50
%
T01
X039599Y076761
X039599Y077761
X039599Y078761
X039599Y079761
X039599Y080761
X039599Y081761
X041347Y081855
X041347Y080855
X041347Y079855
X041347Y078855
X041347Y077855
X041347Y076855
X026675Y083943
X025675Y083943
X024675Y083943
X023675Y083943
X022675Y083943
X021675Y083943
X021503Y085904
X022503Y085904
X023503Y085904
X024503Y085904
X025503Y085904
X026503Y085904
X039599Y087761
X039599Y088761
X039599Y089761
X039599Y090761
X039599Y091761
X039599Y092761
X041347Y092395
X041347Y091395
X041347Y090395
X041347Y089395
X041347Y088395
X041347Y087395
X055520Y083790
X054520Y083790
X053520Y083790
X052520Y083790
X051520Y083790
X050520Y083790
X050349Y085290
X051349Y085290
X052349Y085290
X053349Y085290
X054349Y085290
X055349Y085290
M30