%MOIN*%
%OFA0B0*%
%FSLAX46Y46*%
%IPPOS*%
%LPD*%
%ADD10C,0.0047244094488188976*%
%ADD21C,0.0047244094488188976*%
%ADD22C,0.0047244094488188976*%
%ADD23C,0.0047244094488188976*%
G01*
D10*
X0001231544Y0003140606D02*
X0001230232Y0003139293D01*
X0001231544Y0003137981D01*
X0001232856Y0003139293D01*
X0001231544Y0003140606D01*
X0001231544Y0003137981D01*
X0001205297Y0003165540D02*
X0001218421Y0003165540D01*
X0001219733Y0003152417D01*
X0001218421Y0003153729D01*
X0001215796Y0003155042D01*
X0001209234Y0003155042D01*
X0001206610Y0003153729D01*
X0001205297Y0003152417D01*
X0001203985Y0003149792D01*
X0001203985Y0003143230D01*
X0001205297Y0003140606D01*
X0001206610Y0003139293D01*
X0001209234Y0003137981D01*
X0001215796Y0003137981D01*
X0001218421Y0003139293D01*
X0001219733Y0003140606D01*
X0001396291Y0003050606D02*
X0001394978Y0003049293D01*
X0001396291Y0003047981D01*
X0001397603Y0003049293D01*
X0001396291Y0003050606D01*
X0001396291Y0003047981D01*
X0001371356Y0003075540D02*
X0001376606Y0003075540D01*
X0001379230Y0003074228D01*
X0001380543Y0003072916D01*
X0001383167Y0003068979D01*
X0001384480Y0003063729D01*
X0001384480Y0003053230D01*
X0001383167Y0003050606D01*
X0001381855Y0003049293D01*
X0001379230Y0003047981D01*
X0001373981Y0003047981D01*
X0001371356Y0003049293D01*
X0001370044Y0003050606D01*
X0001368732Y0003053230D01*
X0001368732Y0003059792D01*
X0001370044Y0003062417D01*
X0001371356Y0003063729D01*
X0001373981Y0003065042D01*
X0001379230Y0003065042D01*
X0001381855Y0003063729D01*
X0001383167Y0003062417D01*
X0001384480Y0003059792D01*
X0001359545Y0003075540D02*
X0001342485Y0003075540D01*
X0001351671Y0003065042D01*
X0001347734Y0003065042D01*
X0001345110Y0003063729D01*
X0001343797Y0003062417D01*
X0001342485Y0003059792D01*
X0001342485Y0003053230D01*
X0001343797Y0003050606D01*
X0001345110Y0003049293D01*
X0001347734Y0003047981D01*
X0001355608Y0003047981D01*
X0001358233Y0003049293D01*
X0001359545Y0003050606D01*
X0001317551Y0003075540D02*
X0001330674Y0003075540D01*
X0001331986Y0003062417D01*
X0001330674Y0003063729D01*
X0001328049Y0003065042D01*
X0001321488Y0003065042D01*
X0001318863Y0003063729D01*
X0001317551Y0003062417D01*
X0001316238Y0003059792D01*
X0001316238Y0003053230D01*
X0001317551Y0003050606D01*
X0001318863Y0003049293D01*
X0001321488Y0003047981D01*
X0001328049Y0003047981D01*
X0001330674Y0003049293D01*
X0001331986Y0003050606D01*
X0000793791Y0003047106D02*
X0000792478Y0003045793D01*
X0000793791Y0003044481D01*
X0000795103Y0003045793D01*
X0000793791Y0003047106D01*
X0000793791Y0003044481D01*
X0000768856Y0003072040D02*
X0000774106Y0003072040D01*
X0000776730Y0003070728D01*
X0000778043Y0003069416D01*
X0000780667Y0003065479D01*
X0000781980Y0003060229D01*
X0000781980Y0003049730D01*
X0000780667Y0003047106D01*
X0000779355Y0003045793D01*
X0000776730Y0003044481D01*
X0000771481Y0003044481D01*
X0000768856Y0003045793D01*
X0000767544Y0003047106D01*
X0000766232Y0003049730D01*
X0000766232Y0003056292D01*
X0000767544Y0003058917D01*
X0000768856Y0003060229D01*
X0000771481Y0003061542D01*
X0000776730Y0003061542D01*
X0000779355Y0003060229D01*
X0000780667Y0003058917D01*
X0000781980Y0003056292D01*
X0000757045Y0003072040D02*
X0000739985Y0003072040D01*
X0000749171Y0003061542D01*
X0000745234Y0003061542D01*
X0000742610Y0003060229D01*
X0000741297Y0003058917D01*
X0000739985Y0003056292D01*
X0000739985Y0003049730D01*
X0000741297Y0003047106D01*
X0000742610Y0003045793D01*
X0000745234Y0003044481D01*
X0000753108Y0003044481D01*
X0000755733Y0003045793D01*
X0000757045Y0003047106D01*
X0000715051Y0003072040D02*
X0000728174Y0003072040D01*
X0000729486Y0003058917D01*
X0000728174Y0003060229D01*
X0000725549Y0003061542D01*
X0000718988Y0003061542D01*
X0000716363Y0003060229D01*
X0000715051Y0003058917D01*
X0000713738Y0003056292D01*
X0000713738Y0003049730D01*
X0000715051Y0003047106D01*
X0000716363Y0003045793D01*
X0000718988Y0003044481D01*
X0000725549Y0003044481D01*
X0000728174Y0003045793D01*
X0000729486Y0003047106D01*
X0000906667Y0003139606D02*
X0000905355Y0003138293D01*
X0000906667Y0003136981D01*
X0000907980Y0003138293D01*
X0000906667Y0003139606D01*
X0000906667Y0003136981D01*
X0000894856Y0003161916D02*
X0000893544Y0003163228D01*
X0000890919Y0003164540D01*
X0000884358Y0003164540D01*
X0000881733Y0003163228D01*
X0000880421Y0003161916D01*
X0000879108Y0003159291D01*
X0000879108Y0003156666D01*
X0000880421Y0003152729D01*
X0000896169Y0003136981D01*
X0000879108Y0003136981D01*
X0000854174Y0003164540D02*
X0000867297Y0003164540D01*
X0000868610Y0003151417D01*
X0000867297Y0003152729D01*
X0000864673Y0003154042D01*
X0000858111Y0003154042D01*
X0000855486Y0003152729D01*
X0000854174Y0003151417D01*
X0000852862Y0003148792D01*
X0000852862Y0003142230D01*
X0000854174Y0003139606D01*
X0000855486Y0003138293D01*
X0000858111Y0003136981D01*
X0000864673Y0003136981D01*
X0000867297Y0003138293D01*
X0000868610Y0003139606D01*
X0001094044Y0003136106D02*
X0001092732Y0003134793D01*
X0001094044Y0003133481D01*
X0001095356Y0003134793D01*
X0001094044Y0003136106D01*
X0001094044Y0003133481D01*
X0001069110Y0003151854D02*
X0001069110Y0003133481D01*
X0001075671Y0003162353D02*
X0001082233Y0003142667D01*
X0001065173Y0003142667D01*
X0001033544Y0003136106D02*
X0001032232Y0003134793D01*
X0001033544Y0003133481D01*
X0001034856Y0003134793D01*
X0001033544Y0003136106D01*
X0001033544Y0003133481D01*
X0001023045Y0003161040D02*
X0001005985Y0003161040D01*
X0001015171Y0003150541D01*
X0001011234Y0003150541D01*
X0001008610Y0003149229D01*
X0001007297Y0003147917D01*
X0001005985Y0003145292D01*
X0001005985Y0003138730D01*
X0001007297Y0003136106D01*
X0001008610Y0003134793D01*
X0001011234Y0003133481D01*
X0001019108Y0003133481D01*
X0001021733Y0003134793D01*
X0001023045Y0003136106D01*
G04 next file*
G04 #@! TF.GenerationSoftware,KiCad,Pcbnew,(5.1.12)-1*
G04 #@! TF.CreationDate,2022-03-29T21:33:58+08:00*
G04 #@! TF.ProjectId,Nozzle,4e6f7a7a-6c65-42e6-9b69-6361645f7063,Gen3.1b*
G04 #@! TF.SameCoordinates,Original*
G04 #@! TF.FileFunction,Legend,Bot*
G04 #@! TF.FilePolarity,Positive*
G04 Gerber Fmt 4.6, Leading zero omitted, Abs format (unit mm)*
G04 Created by KiCad (PCBNEW (5.1.12)-1) date 2022-03-29 21:33:58*
G01*
G04 APERTURE LIST*
G04 APERTURE END LIST*
D21*
X0001231544Y0003613047D02*
X0001230232Y0003611734D01*
X0001231544Y0003610422D01*
X0001232856Y0003611734D01*
X0001231544Y0003613047D01*
X0001231544Y0003610422D01*
X0001205297Y0003637981D02*
X0001218421Y0003637981D01*
X0001219733Y0003624858D01*
X0001218421Y0003626170D01*
X0001215796Y0003627482D01*
X0001209234Y0003627482D01*
X0001206610Y0003626170D01*
X0001205297Y0003624858D01*
X0001203985Y0003622233D01*
X0001203985Y0003615671D01*
X0001205297Y0003613047D01*
X0001206610Y0003611734D01*
X0001209234Y0003610422D01*
X0001215796Y0003610422D01*
X0001218421Y0003611734D01*
X0001219733Y0003613047D01*
X0001396291Y0003523047D02*
X0001394978Y0003521734D01*
X0001396291Y0003520422D01*
X0001397603Y0003521734D01*
X0001396291Y0003523047D01*
X0001396291Y0003520422D01*
X0001371356Y0003547981D02*
X0001376606Y0003547981D01*
X0001379230Y0003546669D01*
X0001380543Y0003545356D01*
X0001383167Y0003541419D01*
X0001384480Y0003536170D01*
X0001384480Y0003525671D01*
X0001383167Y0003523047D01*
X0001381855Y0003521734D01*
X0001379230Y0003520422D01*
X0001373981Y0003520422D01*
X0001371356Y0003521734D01*
X0001370044Y0003523047D01*
X0001368732Y0003525671D01*
X0001368732Y0003532233D01*
X0001370044Y0003534858D01*
X0001371356Y0003536170D01*
X0001373981Y0003537482D01*
X0001379230Y0003537482D01*
X0001381855Y0003536170D01*
X0001383167Y0003534858D01*
X0001384480Y0003532233D01*
X0001359545Y0003547981D02*
X0001342485Y0003547981D01*
X0001351671Y0003537482D01*
X0001347734Y0003537482D01*
X0001345110Y0003536170D01*
X0001343797Y0003534858D01*
X0001342485Y0003532233D01*
X0001342485Y0003525671D01*
X0001343797Y0003523047D01*
X0001345110Y0003521734D01*
X0001347734Y0003520422D01*
X0001355608Y0003520422D01*
X0001358233Y0003521734D01*
X0001359545Y0003523047D01*
X0001317551Y0003547981D02*
X0001330674Y0003547981D01*
X0001331986Y0003534858D01*
X0001330674Y0003536170D01*
X0001328049Y0003537482D01*
X0001321488Y0003537482D01*
X0001318863Y0003536170D01*
X0001317551Y0003534858D01*
X0001316238Y0003532233D01*
X0001316238Y0003525671D01*
X0001317551Y0003523047D01*
X0001318863Y0003521734D01*
X0001321488Y0003520422D01*
X0001328049Y0003520422D01*
X0001330674Y0003521734D01*
X0001331986Y0003523047D01*
X0000793791Y0003519547D02*
X0000792478Y0003518234D01*
X0000793791Y0003516922D01*
X0000795103Y0003518234D01*
X0000793791Y0003519547D01*
X0000793791Y0003516922D01*
X0000768856Y0003544481D02*
X0000774106Y0003544481D01*
X0000776730Y0003543169D01*
X0000778043Y0003541856D01*
X0000780667Y0003537919D01*
X0000781980Y0003532670D01*
X0000781980Y0003522171D01*
X0000780667Y0003519547D01*
X0000779355Y0003518234D01*
X0000776730Y0003516922D01*
X0000771481Y0003516922D01*
X0000768856Y0003518234D01*
X0000767544Y0003519547D01*
X0000766232Y0003522171D01*
X0000766232Y0003528733D01*
X0000767544Y0003531358D01*
X0000768856Y0003532670D01*
X0000771481Y0003533982D01*
X0000776730Y0003533982D01*
X0000779355Y0003532670D01*
X0000780667Y0003531358D01*
X0000781980Y0003528733D01*
X0000757045Y0003544481D02*
X0000739985Y0003544481D01*
X0000749171Y0003533982D01*
X0000745234Y0003533982D01*
X0000742610Y0003532670D01*
X0000741297Y0003531358D01*
X0000739985Y0003528733D01*
X0000739985Y0003522171D01*
X0000741297Y0003519547D01*
X0000742610Y0003518234D01*
X0000745234Y0003516922D01*
X0000753108Y0003516922D01*
X0000755733Y0003518234D01*
X0000757045Y0003519547D01*
X0000715051Y0003544481D02*
X0000728174Y0003544481D01*
X0000729486Y0003531358D01*
X0000728174Y0003532670D01*
X0000725549Y0003533982D01*
X0000718988Y0003533982D01*
X0000716363Y0003532670D01*
X0000715051Y0003531358D01*
X0000713738Y0003528733D01*
X0000713738Y0003522171D01*
X0000715051Y0003519547D01*
X0000716363Y0003518234D01*
X0000718988Y0003516922D01*
X0000725549Y0003516922D01*
X0000728174Y0003518234D01*
X0000729486Y0003519547D01*
X0000906667Y0003612047D02*
X0000905355Y0003610734D01*
X0000906667Y0003609422D01*
X0000907980Y0003610734D01*
X0000906667Y0003612047D01*
X0000906667Y0003609422D01*
X0000894856Y0003634356D02*
X0000893544Y0003635669D01*
X0000890919Y0003636981D01*
X0000884358Y0003636981D01*
X0000881733Y0003635669D01*
X0000880421Y0003634356D01*
X0000879108Y0003631732D01*
X0000879108Y0003629107D01*
X0000880421Y0003625170D01*
X0000896169Y0003609422D01*
X0000879108Y0003609422D01*
X0000854174Y0003636981D02*
X0000867297Y0003636981D01*
X0000868610Y0003623858D01*
X0000867297Y0003625170D01*
X0000864673Y0003626482D01*
X0000858111Y0003626482D01*
X0000855486Y0003625170D01*
X0000854174Y0003623858D01*
X0000852862Y0003621233D01*
X0000852862Y0003614671D01*
X0000854174Y0003612047D01*
X0000855486Y0003610734D01*
X0000858111Y0003609422D01*
X0000864673Y0003609422D01*
X0000867297Y0003610734D01*
X0000868610Y0003612047D01*
X0001094044Y0003608547D02*
X0001092732Y0003607234D01*
X0001094044Y0003605922D01*
X0001095356Y0003607234D01*
X0001094044Y0003608547D01*
X0001094044Y0003605922D01*
X0001069110Y0003624295D02*
X0001069110Y0003605922D01*
X0001075671Y0003634793D02*
X0001082233Y0003615108D01*
X0001065173Y0003615108D01*
X0001033544Y0003608547D02*
X0001032232Y0003607234D01*
X0001033544Y0003605922D01*
X0001034856Y0003607234D01*
X0001033544Y0003608547D01*
X0001033544Y0003605922D01*
X0001023045Y0003633481D02*
X0001005985Y0003633481D01*
X0001015171Y0003622982D01*
X0001011234Y0003622982D01*
X0001008610Y0003621670D01*
X0001007297Y0003620358D01*
X0001005985Y0003617733D01*
X0001005985Y0003611171D01*
X0001007297Y0003608547D01*
X0001008610Y0003607234D01*
X0001011234Y0003605922D01*
X0001019108Y0003605922D01*
X0001021733Y0003607234D01*
X0001023045Y0003608547D01*
G04 next file*
G04 #@! TF.GenerationSoftware,KiCad,Pcbnew,(5.1.12)-1*
G04 #@! TF.CreationDate,2022-03-29T21:33:58+08:00*
G04 #@! TF.ProjectId,Nozzle,4e6f7a7a-6c65-42e6-9b69-6361645f7063,Gen3.1b*
G04 #@! TF.SameCoordinates,Original*
G04 #@! TF.FileFunction,Legend,Bot*
G04 #@! TF.FilePolarity,Positive*
G04 Gerber Fmt 4.6, Leading zero omitted, Abs format (unit mm)*
G04 Created by KiCad (PCBNEW (5.1.12)-1) date 2022-03-29 21:33:58*
G01*
G04 APERTURE LIST*
G04 APERTURE END LIST*
D22*
X0002327827Y0003134544D02*
X0002326515Y0003133232D01*
X0002327827Y0003131920D01*
X0002329139Y0003133232D01*
X0002327827Y0003134544D01*
X0002327827Y0003131920D01*
X0002301580Y0003159479D02*
X0002314704Y0003159479D01*
X0002316016Y0003146355D01*
X0002314704Y0003147668D01*
X0002312079Y0003148980D01*
X0002305517Y0003148980D01*
X0002302893Y0003147668D01*
X0002301580Y0003146355D01*
X0002300268Y0003143731D01*
X0002300268Y0003137169D01*
X0002301580Y0003134544D01*
X0002302893Y0003133232D01*
X0002305517Y0003131920D01*
X0002312079Y0003131920D01*
X0002314704Y0003133232D01*
X0002316016Y0003134544D01*
X0002492574Y0003044544D02*
X0002491261Y0003043232D01*
X0002492574Y0003041920D01*
X0002493886Y0003043232D01*
X0002492574Y0003044544D01*
X0002492574Y0003041920D01*
X0002467639Y0003069479D02*
X0002472889Y0003069479D01*
X0002475513Y0003068166D01*
X0002476826Y0003066854D01*
X0002479450Y0003062917D01*
X0002480763Y0003057668D01*
X0002480763Y0003047169D01*
X0002479450Y0003044544D01*
X0002478138Y0003043232D01*
X0002475513Y0003041920D01*
X0002470264Y0003041920D01*
X0002467639Y0003043232D01*
X0002466327Y0003044544D01*
X0002465015Y0003047169D01*
X0002465015Y0003053731D01*
X0002466327Y0003056355D01*
X0002467639Y0003057668D01*
X0002470264Y0003058980D01*
X0002475513Y0003058980D01*
X0002478138Y0003057668D01*
X0002479450Y0003056355D01*
X0002480763Y0003053731D01*
X0002455828Y0003069479D02*
X0002438768Y0003069479D01*
X0002447954Y0003058980D01*
X0002444017Y0003058980D01*
X0002441393Y0003057668D01*
X0002440080Y0003056355D01*
X0002438768Y0003053731D01*
X0002438768Y0003047169D01*
X0002440080Y0003044544D01*
X0002441393Y0003043232D01*
X0002444017Y0003041920D01*
X0002451891Y0003041920D01*
X0002454516Y0003043232D01*
X0002455828Y0003044544D01*
X0002413834Y0003069479D02*
X0002426957Y0003069479D01*
X0002428269Y0003056355D01*
X0002426957Y0003057668D01*
X0002424332Y0003058980D01*
X0002417771Y0003058980D01*
X0002415146Y0003057668D01*
X0002413834Y0003056355D01*
X0002412521Y0003053731D01*
X0002412521Y0003047169D01*
X0002413834Y0003044544D01*
X0002415146Y0003043232D01*
X0002417771Y0003041920D01*
X0002424332Y0003041920D01*
X0002426957Y0003043232D01*
X0002428269Y0003044544D01*
X0001890074Y0003041044D02*
X0001888761Y0003039732D01*
X0001890074Y0003038420D01*
X0001891386Y0003039732D01*
X0001890074Y0003041044D01*
X0001890074Y0003038420D01*
X0001865139Y0003065979D02*
X0001870389Y0003065979D01*
X0001873013Y0003064666D01*
X0001874326Y0003063354D01*
X0001876950Y0003059417D01*
X0001878263Y0003054168D01*
X0001878263Y0003043669D01*
X0001876950Y0003041044D01*
X0001875638Y0003039732D01*
X0001873013Y0003038420D01*
X0001867764Y0003038420D01*
X0001865139Y0003039732D01*
X0001863827Y0003041044D01*
X0001862515Y0003043669D01*
X0001862515Y0003050231D01*
X0001863827Y0003052855D01*
X0001865139Y0003054168D01*
X0001867764Y0003055480D01*
X0001873013Y0003055480D01*
X0001875638Y0003054168D01*
X0001876950Y0003052855D01*
X0001878263Y0003050231D01*
X0001853328Y0003065979D02*
X0001836268Y0003065979D01*
X0001845454Y0003055480D01*
X0001841517Y0003055480D01*
X0001838893Y0003054168D01*
X0001837580Y0003052855D01*
X0001836268Y0003050231D01*
X0001836268Y0003043669D01*
X0001837580Y0003041044D01*
X0001838893Y0003039732D01*
X0001841517Y0003038420D01*
X0001849391Y0003038420D01*
X0001852016Y0003039732D01*
X0001853328Y0003041044D01*
X0001811334Y0003065979D02*
X0001824457Y0003065979D01*
X0001825769Y0003052855D01*
X0001824457Y0003054168D01*
X0001821832Y0003055480D01*
X0001815271Y0003055480D01*
X0001812646Y0003054168D01*
X0001811334Y0003052855D01*
X0001810021Y0003050231D01*
X0001810021Y0003043669D01*
X0001811334Y0003041044D01*
X0001812646Y0003039732D01*
X0001815271Y0003038420D01*
X0001821832Y0003038420D01*
X0001824457Y0003039732D01*
X0001825769Y0003041044D01*
X0002002950Y0003133544D02*
X0002001638Y0003132232D01*
X0002002950Y0003130920D01*
X0002004263Y0003132232D01*
X0002002950Y0003133544D01*
X0002002950Y0003130920D01*
X0001991139Y0003155854D02*
X0001989827Y0003157166D01*
X0001987202Y0003158479D01*
X0001980641Y0003158479D01*
X0001978016Y0003157166D01*
X0001976704Y0003155854D01*
X0001975391Y0003153229D01*
X0001975391Y0003150605D01*
X0001976704Y0003146668D01*
X0001992452Y0003130920D01*
X0001975391Y0003130920D01*
X0001950457Y0003158479D02*
X0001963580Y0003158479D01*
X0001964893Y0003145355D01*
X0001963580Y0003146668D01*
X0001960956Y0003147980D01*
X0001954394Y0003147980D01*
X0001951769Y0003146668D01*
X0001950457Y0003145355D01*
X0001949145Y0003142731D01*
X0001949145Y0003136169D01*
X0001950457Y0003133544D01*
X0001951769Y0003132232D01*
X0001954394Y0003130920D01*
X0001960956Y0003130920D01*
X0001963580Y0003132232D01*
X0001964893Y0003133544D01*
X0002190327Y0003130044D02*
X0002189015Y0003128732D01*
X0002190327Y0003127420D01*
X0002191639Y0003128732D01*
X0002190327Y0003130044D01*
X0002190327Y0003127420D01*
X0002165393Y0003145792D02*
X0002165393Y0003127420D01*
X0002171954Y0003156291D02*
X0002178516Y0003136606D01*
X0002161456Y0003136606D01*
X0002129827Y0003130044D02*
X0002128515Y0003128732D01*
X0002129827Y0003127420D01*
X0002131139Y0003128732D01*
X0002129827Y0003130044D01*
X0002129827Y0003127420D01*
X0002119328Y0003154979D02*
X0002102268Y0003154979D01*
X0002111454Y0003144480D01*
X0002107517Y0003144480D01*
X0002104893Y0003143168D01*
X0002103580Y0003141855D01*
X0002102268Y0003139231D01*
X0002102268Y0003132669D01*
X0002103580Y0003130044D01*
X0002104893Y0003128732D01*
X0002107517Y0003127420D01*
X0002115391Y0003127420D01*
X0002118016Y0003128732D01*
X0002119328Y0003130044D01*
G04 next file*
G04 #@! TF.GenerationSoftware,KiCad,Pcbnew,(5.1.12)-1*
G04 #@! TF.CreationDate,2022-03-29T21:33:58+08:00*
G04 #@! TF.ProjectId,Nozzle,4e6f7a7a-6c65-42e6-9b69-6361645f7063,Gen3.1b*
G04 #@! TF.SameCoordinates,Original*
G04 #@! TF.FileFunction,Legend,Bot*
G04 #@! TF.FilePolarity,Positive*
G04 Gerber Fmt 4.6, Leading zero omitted, Abs format (unit mm)*
G04 Created by KiCad (PCBNEW (5.1.12)-1) date 2022-03-29 21:33:58*
G01*
G04 APERTURE LIST*
G04 APERTURE END LIST*
D23*
X0002327827Y0003588875D02*
X0002326515Y0003587562D01*
X0002327827Y0003586250D01*
X0002329139Y0003587562D01*
X0002327827Y0003588875D01*
X0002327827Y0003586250D01*
X0002301580Y0003613809D02*
X0002314704Y0003613809D01*
X0002316016Y0003600686D01*
X0002314704Y0003601998D01*
X0002312079Y0003603310D01*
X0002305517Y0003603310D01*
X0002302893Y0003601998D01*
X0002301580Y0003600686D01*
X0002300268Y0003598061D01*
X0002300268Y0003591499D01*
X0002301580Y0003588875D01*
X0002302893Y0003587562D01*
X0002305517Y0003586250D01*
X0002312079Y0003586250D01*
X0002314704Y0003587562D01*
X0002316016Y0003588875D01*
X0002492574Y0003498875D02*
X0002491261Y0003497562D01*
X0002492574Y0003496250D01*
X0002493886Y0003497562D01*
X0002492574Y0003498875D01*
X0002492574Y0003496250D01*
X0002467639Y0003523809D02*
X0002472889Y0003523809D01*
X0002475513Y0003522497D01*
X0002476826Y0003521185D01*
X0002479450Y0003517247D01*
X0002480763Y0003511998D01*
X0002480763Y0003501499D01*
X0002479450Y0003498875D01*
X0002478138Y0003497562D01*
X0002475513Y0003496250D01*
X0002470264Y0003496250D01*
X0002467639Y0003497562D01*
X0002466327Y0003498875D01*
X0002465015Y0003501499D01*
X0002465015Y0003508061D01*
X0002466327Y0003510686D01*
X0002467639Y0003511998D01*
X0002470264Y0003513310D01*
X0002475513Y0003513310D01*
X0002478138Y0003511998D01*
X0002479450Y0003510686D01*
X0002480763Y0003508061D01*
X0002455828Y0003523809D02*
X0002438768Y0003523809D01*
X0002447954Y0003513310D01*
X0002444017Y0003513310D01*
X0002441393Y0003511998D01*
X0002440080Y0003510686D01*
X0002438768Y0003508061D01*
X0002438768Y0003501499D01*
X0002440080Y0003498875D01*
X0002441393Y0003497562D01*
X0002444017Y0003496250D01*
X0002451891Y0003496250D01*
X0002454516Y0003497562D01*
X0002455828Y0003498875D01*
X0002413834Y0003523809D02*
X0002426957Y0003523809D01*
X0002428269Y0003510686D01*
X0002426957Y0003511998D01*
X0002424332Y0003513310D01*
X0002417771Y0003513310D01*
X0002415146Y0003511998D01*
X0002413834Y0003510686D01*
X0002412521Y0003508061D01*
X0002412521Y0003501499D01*
X0002413834Y0003498875D01*
X0002415146Y0003497562D01*
X0002417771Y0003496250D01*
X0002424332Y0003496250D01*
X0002426957Y0003497562D01*
X0002428269Y0003498875D01*
X0001890074Y0003495375D02*
X0001888761Y0003494062D01*
X0001890074Y0003492750D01*
X0001891386Y0003494062D01*
X0001890074Y0003495375D01*
X0001890074Y0003492750D01*
X0001865139Y0003520309D02*
X0001870389Y0003520309D01*
X0001873013Y0003518997D01*
X0001874326Y0003517685D01*
X0001876950Y0003513747D01*
X0001878263Y0003508498D01*
X0001878263Y0003497999D01*
X0001876950Y0003495375D01*
X0001875638Y0003494062D01*
X0001873013Y0003492750D01*
X0001867764Y0003492750D01*
X0001865139Y0003494062D01*
X0001863827Y0003495375D01*
X0001862515Y0003497999D01*
X0001862515Y0003504561D01*
X0001863827Y0003507186D01*
X0001865139Y0003508498D01*
X0001867764Y0003509810D01*
X0001873013Y0003509810D01*
X0001875638Y0003508498D01*
X0001876950Y0003507186D01*
X0001878263Y0003504561D01*
X0001853328Y0003520309D02*
X0001836268Y0003520309D01*
X0001845454Y0003509810D01*
X0001841517Y0003509810D01*
X0001838893Y0003508498D01*
X0001837580Y0003507186D01*
X0001836268Y0003504561D01*
X0001836268Y0003497999D01*
X0001837580Y0003495375D01*
X0001838893Y0003494062D01*
X0001841517Y0003492750D01*
X0001849391Y0003492750D01*
X0001852016Y0003494062D01*
X0001853328Y0003495375D01*
X0001811334Y0003520309D02*
X0001824457Y0003520309D01*
X0001825769Y0003507186D01*
X0001824457Y0003508498D01*
X0001821832Y0003509810D01*
X0001815271Y0003509810D01*
X0001812646Y0003508498D01*
X0001811334Y0003507186D01*
X0001810021Y0003504561D01*
X0001810021Y0003497999D01*
X0001811334Y0003495375D01*
X0001812646Y0003494062D01*
X0001815271Y0003492750D01*
X0001821832Y0003492750D01*
X0001824457Y0003494062D01*
X0001825769Y0003495375D01*
X0002002950Y0003587875D02*
X0002001638Y0003586562D01*
X0002002950Y0003585250D01*
X0002004263Y0003586562D01*
X0002002950Y0003587875D01*
X0002002950Y0003585250D01*
X0001991139Y0003610185D02*
X0001989827Y0003611497D01*
X0001987202Y0003612809D01*
X0001980641Y0003612809D01*
X0001978016Y0003611497D01*
X0001976704Y0003610185D01*
X0001975391Y0003607560D01*
X0001975391Y0003604935D01*
X0001976704Y0003600998D01*
X0001992452Y0003585250D01*
X0001975391Y0003585250D01*
X0001950457Y0003612809D02*
X0001963580Y0003612809D01*
X0001964893Y0003599686D01*
X0001963580Y0003600998D01*
X0001960956Y0003602310D01*
X0001954394Y0003602310D01*
X0001951769Y0003600998D01*
X0001950457Y0003599686D01*
X0001949145Y0003597061D01*
X0001949145Y0003590499D01*
X0001950457Y0003587875D01*
X0001951769Y0003586562D01*
X0001954394Y0003585250D01*
X0001960956Y0003585250D01*
X0001963580Y0003586562D01*
X0001964893Y0003587875D01*
X0002190327Y0003584375D02*
X0002189015Y0003583062D01*
X0002190327Y0003581750D01*
X0002191639Y0003583062D01*
X0002190327Y0003584375D01*
X0002190327Y0003581750D01*
X0002165393Y0003600123D02*
X0002165393Y0003581750D01*
X0002171954Y0003610622D02*
X0002178516Y0003590936D01*
X0002161456Y0003590936D01*
X0002129827Y0003584375D02*
X0002128515Y0003583062D01*
X0002129827Y0003581750D01*
X0002131139Y0003583062D01*
X0002129827Y0003584375D01*
X0002129827Y0003581750D01*
X0002119328Y0003609309D02*
X0002102268Y0003609309D01*
X0002111454Y0003598810D01*
X0002107517Y0003598810D01*
X0002104893Y0003597498D01*
X0002103580Y0003596186D01*
X0002102268Y0003593561D01*
X0002102268Y0003586999D01*
X0002103580Y0003584375D01*
X0002104893Y0003583062D01*
X0002107517Y0003581750D01*
X0002115391Y0003581750D01*
X0002118016Y0003583062D01*
X0002119328Y0003584375D01*
M02*