%
M48
METRIC,000.000
T01C0.64
T02C0.25
T03C0.30
T04C0.40
T05C0.50
T06C0.64
%
T01
X017715Y078878
X020254Y078878
X032955Y078878
X035495Y078890
X017715Y090878
X020254Y090878
X032955Y090878
X035495Y090890
X016317Y088338
X018857Y093418
X021397Y088338
X023937Y093418
X026477Y088338
X029016Y093418
X031557Y088351
X034098Y093418
X036638Y088351
X045560Y078724
X048100Y078724
X060800Y078724
X063340Y078737
X044163Y076184
X046702Y081264
X049243Y076184
X051783Y081264
X054322Y076184
X056862Y081264
X059403Y076197
X061943Y081264
X064483Y076197
X045560Y090264
X048100Y090264
X060800Y090264
X063340Y090277
X044163Y087724
X046702Y092804
X049243Y087724
X051783Y092804
X054322Y087724
X056862Y092804
X059403Y087737
X061943Y092804
X064483Y087737
T02
X022819Y078878
X022819Y090878
X050665Y078724
X050665Y090264
T03
X025360Y078878
X025360Y090878
X053205Y078724
X053205Y090264
T04
X027900Y078890
X027900Y090890
X055745Y078737
X055745Y090277
T05
X030439Y078916
X030439Y090916
X058285Y078762
X058285Y090302
T06
X016317Y076338
X018857Y081418
X021397Y076338
X023937Y081418
X026477Y076338
X029016Y081418
X031557Y076351
X034098Y081418
X036638Y076351
M30