%MOIN*%
%OFA0B0*%
%FSLAX46Y46*%
%IPPOS*%
%LPD*%
%ADD10C,0.033464566929133861*%
%ADD11C,0.01*%
%ADD12C,0.0039370078740157488*%
%ADD23C,0.033464566929133861*%
%ADD24C,0.01*%
%ADD25C,0.0039370078740157488*%
%ADD26C,0.033464566929133861*%
%ADD27C,0.01*%
%ADD28C,0.0039370078740157488*%
%ADD29C,0.033464566929133861*%
%ADD30C,0.01*%
%ADD31C,0.0039370078740157488*%
G01*
D10*
X-0004370078Y0004409448D02*
X0001397421Y0003105948D03*
X0000797421Y0003105448D03*
X0001297421Y0003105448D03*
X0000697421Y0003105448D03*
D11*
X0001523220Y0002945433D02*
X0000567405Y0002945433D01*
X0000567405Y0003009142D01*
X0000604921Y0003009142D01*
X0000604921Y0003001755D01*
X0000606362Y0002994510D01*
X0000609189Y0002987685D01*
X0000613293Y0002981543D01*
X0000618516Y0002976320D01*
X0000624658Y0002972216D01*
X0000631482Y0002969389D01*
X0000638727Y0002967948D01*
X0000646114Y0002967948D01*
X0000653359Y0002969389D01*
X0000660184Y0002972216D01*
X0000666326Y0002976320D01*
X0000671549Y0002981543D01*
X0000675653Y0002987685D01*
X0000678480Y0002994510D01*
X0000679921Y0003001755D01*
X0000679921Y0003009142D01*
X0000804921Y0003009142D01*
X0000804921Y0003001755D01*
X0000806362Y0002994510D01*
X0000809189Y0002987685D01*
X0000813293Y0002981543D01*
X0000818516Y0002976320D01*
X0000824658Y0002972216D01*
X0000831482Y0002969389D01*
X0000838727Y0002967948D01*
X0000846114Y0002967948D01*
X0000853359Y0002969389D01*
X0000860184Y0002972216D01*
X0000866326Y0002976320D01*
X0000871549Y0002981543D01*
X0000875653Y0002987685D01*
X0000878480Y0002994510D01*
X0000879921Y0003001755D01*
X0000879921Y0003009142D01*
X0001004921Y0003009142D01*
X0001004921Y0003001755D01*
X0001006362Y0002994510D01*
X0001009189Y0002987685D01*
X0001013293Y0002981543D01*
X0001018516Y0002976320D01*
X0001024658Y0002972216D01*
X0001031482Y0002969389D01*
X0001038727Y0002967948D01*
X0001046114Y0002967948D01*
X0001053359Y0002969389D01*
X0001060184Y0002972216D01*
X0001066326Y0002976320D01*
X0001071549Y0002981543D01*
X0001075653Y0002987685D01*
X0001078480Y0002994510D01*
X0001079921Y0003001755D01*
X0001079921Y0003009142D01*
X0001079821Y0003009642D01*
X0001204921Y0003009642D01*
X0001204921Y0003002255D01*
X0001206362Y0002995010D01*
X0001209189Y0002988185D01*
X0001213293Y0002982043D01*
X0001218516Y0002976820D01*
X0001224658Y0002972716D01*
X0001231482Y0002969889D01*
X0001238727Y0002968448D01*
X0001246114Y0002968448D01*
X0001253359Y0002969889D01*
X0001260184Y0002972716D01*
X0001266326Y0002976820D01*
X0001271549Y0002982043D01*
X0001275653Y0002988185D01*
X0001278480Y0002995010D01*
X0001279921Y0003002255D01*
X0001279921Y0003009642D01*
X0001404921Y0003009642D01*
X0001404921Y0003002255D01*
X0001406362Y0002995010D01*
X0001409189Y0002988185D01*
X0001413293Y0002982043D01*
X0001418516Y0002976820D01*
X0001424658Y0002972716D01*
X0001431482Y0002969889D01*
X0001438727Y0002968448D01*
X0001446114Y0002968448D01*
X0001453359Y0002969889D01*
X0001460184Y0002972716D01*
X0001466326Y0002976820D01*
X0001471549Y0002982043D01*
X0001475653Y0002988185D01*
X0001478480Y0002995010D01*
X0001479921Y0003002255D01*
X0001479921Y0003009642D01*
X0001478480Y0003016887D01*
X0001475653Y0003023711D01*
X0001471549Y0003029853D01*
X0001466326Y0003035076D01*
X0001460184Y0003039180D01*
X0001453359Y0003042007D01*
X0001446114Y0003043448D01*
X0001438727Y0003043448D01*
X0001431482Y0003042007D01*
X0001424658Y0003039180D01*
X0001418516Y0003035076D01*
X0001413293Y0003029853D01*
X0001409189Y0003023711D01*
X0001406362Y0003016887D01*
X0001404921Y0003009642D01*
X0001279921Y0003009642D01*
X0001278480Y0003016887D01*
X0001275653Y0003023711D01*
X0001271549Y0003029853D01*
X0001266326Y0003035076D01*
X0001260184Y0003039180D01*
X0001253359Y0003042007D01*
X0001246114Y0003043448D01*
X0001238727Y0003043448D01*
X0001231482Y0003042007D01*
X0001224658Y0003039180D01*
X0001218516Y0003035076D01*
X0001213293Y0003029853D01*
X0001209189Y0003023711D01*
X0001206362Y0003016887D01*
X0001204921Y0003009642D01*
X0001079821Y0003009642D01*
X0001078480Y0003016387D01*
X0001075653Y0003023211D01*
X0001071549Y0003029353D01*
X0001066326Y0003034576D01*
X0001060184Y0003038680D01*
X0001053359Y0003041507D01*
X0001046114Y0003042948D01*
X0001038727Y0003042948D01*
X0001031482Y0003041507D01*
X0001024658Y0003038680D01*
X0001018516Y0003034576D01*
X0001013293Y0003029353D01*
X0001009189Y0003023211D01*
X0001006362Y0003016387D01*
X0001004921Y0003009142D01*
X0000879921Y0003009142D01*
X0000878480Y0003016387D01*
X0000875653Y0003023211D01*
X0000871549Y0003029353D01*
X0000866326Y0003034576D01*
X0000860184Y0003038680D01*
X0000853359Y0003041507D01*
X0000846114Y0003042948D01*
X0000838727Y0003042948D01*
X0000831482Y0003041507D01*
X0000824658Y0003038680D01*
X0000818516Y0003034576D01*
X0000813293Y0003029353D01*
X0000809189Y0003023211D01*
X0000806362Y0003016387D01*
X0000804921Y0003009142D01*
X0000679921Y0003009142D01*
X0000678480Y0003016387D01*
X0000675653Y0003023211D01*
X0000671549Y0003029353D01*
X0000666326Y0003034576D01*
X0000660184Y0003038680D01*
X0000653359Y0003041507D01*
X0000646114Y0003042948D01*
X0000638727Y0003042948D01*
X0000631482Y0003041507D01*
X0000624658Y0003038680D01*
X0000618516Y0003034576D01*
X0000613293Y0003029353D01*
X0000609189Y0003023211D01*
X0000606362Y0003016387D01*
X0000604921Y0003009142D01*
X0000567405Y0003009142D01*
X0000567405Y0003109559D01*
X0000655688Y0003109559D01*
X0000655688Y0003101338D01*
X0000657292Y0003093275D01*
X0000660438Y0003085681D01*
X0000665005Y0003078845D01*
X0000670818Y0003073033D01*
X0000677653Y0003068466D01*
X0000685248Y0003065320D01*
X0000693310Y0003063716D01*
X0000701531Y0003063716D01*
X0000709594Y0003065320D01*
X0000717188Y0003068466D01*
X0000724024Y0003073033D01*
X0000729836Y0003078845D01*
X0000734403Y0003085681D01*
X0000737549Y0003093275D01*
X0000739153Y0003101338D01*
X0000739153Y0003109559D01*
X0000755688Y0003109559D01*
X0000755688Y0003101338D01*
X0000757292Y0003093275D01*
X0000760438Y0003085681D01*
X0000765005Y0003078845D01*
X0000770818Y0003073033D01*
X0000777653Y0003068466D01*
X0000785248Y0003065320D01*
X0000793310Y0003063716D01*
X0000801531Y0003063716D01*
X0000809594Y0003065320D01*
X0000817188Y0003068466D01*
X0000824024Y0003073033D01*
X0000829836Y0003078845D01*
X0000834403Y0003085681D01*
X0000837549Y0003093275D01*
X0000839153Y0003101338D01*
X0000839153Y0003108395D01*
X0000868500Y0003108395D01*
X0000868500Y0003102501D01*
X0000869649Y0003096721D01*
X0000871905Y0003091275D01*
X0000875179Y0003086375D01*
X0000879347Y0003082207D01*
X0000884248Y0003078932D01*
X0000889693Y0003076677D01*
X0000895474Y0003075527D01*
X0000901368Y0003075527D01*
X0000907148Y0003076677D01*
X0000912594Y0003078932D01*
X0000917494Y0003082207D01*
X0000921662Y0003086375D01*
X0000924937Y0003091275D01*
X0000927192Y0003096721D01*
X0000928342Y0003102501D01*
X0000928342Y0003108395D01*
X0000928323Y0003108492D01*
X0000967515Y0003108492D01*
X0000967515Y0003102404D01*
X0000968703Y0003096434D01*
X0000971033Y0003090809D01*
X0000974415Y0003085747D01*
X0000978720Y0003081442D01*
X0000983782Y0003078060D01*
X0000989406Y0003075730D01*
X0000995377Y0003074543D01*
X0001001465Y0003074543D01*
X0001007436Y0003075730D01*
X0001013060Y0003078060D01*
X0001018122Y0003081442D01*
X0001022427Y0003085747D01*
X0001025809Y0003090809D01*
X0001028139Y0003096434D01*
X0001029326Y0003102404D01*
X0001029326Y0003108492D01*
X0001029188Y0003109186D01*
X0001065547Y0003109186D01*
X0001065547Y0003102711D01*
X0001066810Y0003096359D01*
X0001069288Y0003090377D01*
X0001072886Y0003084992D01*
X0001077465Y0003080413D01*
X0001082849Y0003076816D01*
X0001088832Y0003074338D01*
X0001095183Y0003073074D01*
X0001101659Y0003073074D01*
X0001108010Y0003074338D01*
X0001113992Y0003076816D01*
X0001119377Y0003080413D01*
X0001123956Y0003084992D01*
X0001127553Y0003090377D01*
X0001130031Y0003096359D01*
X0001131295Y0003102711D01*
X0001131295Y0003109186D01*
X0001131057Y0003110380D01*
X0001163578Y0003110380D01*
X0001163578Y0003103517D01*
X0001164917Y0003096785D01*
X0001167544Y0003090444D01*
X0001171357Y0003084737D01*
X0001176210Y0003079884D01*
X0001181917Y0003076071D01*
X0001188258Y0003073445D01*
X0001194989Y0003072106D01*
X0001201852Y0003072106D01*
X0001208584Y0003073445D01*
X0001214925Y0003076071D01*
X0001220632Y0003079884D01*
X0001225485Y0003084737D01*
X0001229298Y0003090444D01*
X0001231924Y0003096785D01*
X0001233263Y0003103517D01*
X0001233263Y0003109559D01*
X0001255688Y0003109559D01*
X0001255688Y0003101338D01*
X0001257292Y0003093275D01*
X0001260438Y0003085681D01*
X0001265005Y0003078845D01*
X0001270818Y0003073033D01*
X0001277653Y0003068466D01*
X0001285248Y0003065320D01*
X0001293310Y0003063716D01*
X0001301531Y0003063716D01*
X0001309594Y0003065320D01*
X0001317188Y0003068466D01*
X0001324024Y0003073033D01*
X0001329836Y0003078845D01*
X0001334403Y0003085681D01*
X0001337549Y0003093275D01*
X0001339153Y0003101338D01*
X0001339153Y0003109559D01*
X0001339054Y0003110059D01*
X0001355688Y0003110059D01*
X0001355688Y0003101838D01*
X0001357292Y0003093775D01*
X0001360438Y0003086181D01*
X0001365005Y0003079346D01*
X0001370818Y0003073533D01*
X0001377653Y0003068966D01*
X0001385248Y0003065820D01*
X0001393310Y0003064216D01*
X0001401531Y0003064216D01*
X0001409594Y0003065820D01*
X0001417188Y0003068966D01*
X0001424024Y0003073533D01*
X0001429836Y0003079346D01*
X0001434403Y0003086181D01*
X0001437549Y0003093775D01*
X0001439153Y0003101838D01*
X0001439153Y0003110059D01*
X0001437549Y0003118121D01*
X0001434403Y0003125716D01*
X0001429836Y0003132551D01*
X0001424024Y0003138364D01*
X0001417188Y0003142931D01*
X0001409594Y0003146077D01*
X0001401531Y0003147681D01*
X0001393310Y0003147681D01*
X0001385248Y0003146077D01*
X0001377653Y0003142931D01*
X0001370818Y0003138364D01*
X0001365005Y0003132551D01*
X0001360438Y0003125716D01*
X0001357292Y0003118121D01*
X0001355688Y0003110059D01*
X0001339054Y0003110059D01*
X0001337549Y0003117621D01*
X0001334403Y0003125216D01*
X0001329836Y0003132051D01*
X0001324024Y0003137864D01*
X0001317188Y0003142431D01*
X0001309594Y0003145577D01*
X0001301531Y0003147181D01*
X0001293310Y0003147181D01*
X0001285248Y0003145577D01*
X0001277653Y0003142431D01*
X0001270818Y0003137864D01*
X0001265005Y0003132051D01*
X0001260438Y0003125216D01*
X0001257292Y0003117621D01*
X0001255688Y0003109559D01*
X0001233263Y0003109559D01*
X0001233263Y0003110380D01*
X0001231924Y0003117112D01*
X0001229298Y0003123452D01*
X0001225485Y0003129159D01*
X0001220632Y0003134012D01*
X0001214925Y0003137825D01*
X0001208584Y0003140452D01*
X0001201852Y0003141791D01*
X0001194989Y0003141791D01*
X0001188258Y0003140452D01*
X0001181917Y0003137825D01*
X0001176210Y0003134012D01*
X0001171357Y0003129159D01*
X0001167544Y0003123452D01*
X0001164917Y0003117112D01*
X0001163578Y0003110380D01*
X0001131057Y0003110380D01*
X0001130031Y0003115537D01*
X0001127553Y0003121520D01*
X0001123956Y0003126904D01*
X0001119377Y0003131483D01*
X0001113992Y0003135081D01*
X0001108010Y0003137559D01*
X0001101659Y0003138822D01*
X0001095183Y0003138822D01*
X0001088832Y0003137559D01*
X0001082849Y0003135081D01*
X0001077465Y0003131483D01*
X0001072886Y0003126904D01*
X0001069288Y0003121520D01*
X0001066810Y0003115537D01*
X0001065547Y0003109186D01*
X0001029188Y0003109186D01*
X0001028139Y0003114463D01*
X0001025809Y0003120088D01*
X0001022427Y0003125149D01*
X0001018122Y0003129454D01*
X0001013060Y0003132836D01*
X0001007436Y0003135166D01*
X0001001465Y0003136354D01*
X0000995377Y0003136354D01*
X0000989406Y0003135166D01*
X0000983782Y0003132836D01*
X0000978720Y0003129454D01*
X0000974415Y0003125149D01*
X0000971033Y0003120088D01*
X0000968703Y0003114463D01*
X0000967515Y0003108492D01*
X0000928323Y0003108492D01*
X0000927192Y0003114176D01*
X0000924937Y0003119621D01*
X0000921662Y0003124522D01*
X0000917494Y0003128690D01*
X0000912594Y0003131964D01*
X0000907148Y0003134220D01*
X0000901368Y0003135370D01*
X0000895474Y0003135370D01*
X0000889693Y0003134220D01*
X0000884248Y0003131964D01*
X0000879347Y0003128690D01*
X0000875179Y0003124522D01*
X0000871905Y0003119621D01*
X0000869649Y0003114176D01*
X0000868500Y0003108395D01*
X0000839153Y0003108395D01*
X0000839153Y0003109559D01*
X0000837549Y0003117621D01*
X0000834403Y0003125216D01*
X0000829836Y0003132051D01*
X0000824024Y0003137864D01*
X0000817188Y0003142431D01*
X0000809594Y0003145577D01*
X0000801531Y0003147181D01*
X0000793310Y0003147181D01*
X0000785248Y0003145577D01*
X0000777653Y0003142431D01*
X0000770818Y0003137864D01*
X0000765005Y0003132051D01*
X0000760438Y0003125216D01*
X0000757292Y0003117621D01*
X0000755688Y0003109559D01*
X0000739153Y0003109559D01*
X0000737549Y0003117621D01*
X0000734403Y0003125216D01*
X0000729836Y0003132051D01*
X0000724024Y0003137864D01*
X0000717188Y0003142431D01*
X0000709594Y0003145577D01*
X0000701531Y0003147181D01*
X0000693310Y0003147181D01*
X0000685248Y0003145577D01*
X0000677653Y0003142431D01*
X0000670818Y0003137864D01*
X0000665005Y0003132051D01*
X0000660438Y0003125216D01*
X0000657292Y0003117621D01*
X0000655688Y0003109559D01*
X0000567405Y0003109559D01*
X0000567405Y0003209142D01*
X0000704921Y0003209142D01*
X0000704921Y0003201755D01*
X0000706362Y0003194510D01*
X0000709189Y0003187685D01*
X0000713293Y0003181543D01*
X0000718516Y0003176320D01*
X0000724658Y0003172216D01*
X0000731482Y0003169389D01*
X0000738727Y0003167948D01*
X0000746114Y0003167948D01*
X0000753359Y0003169389D01*
X0000760184Y0003172216D01*
X0000766326Y0003176320D01*
X0000771549Y0003181543D01*
X0000775653Y0003187685D01*
X0000778480Y0003194510D01*
X0000779921Y0003201755D01*
X0000779921Y0003209142D01*
X0000904921Y0003209142D01*
X0000904921Y0003201755D01*
X0000906362Y0003194510D01*
X0000909189Y0003187685D01*
X0000913293Y0003181543D01*
X0000918516Y0003176320D01*
X0000924658Y0003172216D01*
X0000931482Y0003169389D01*
X0000938727Y0003167948D01*
X0000946114Y0003167948D01*
X0000953359Y0003169389D01*
X0000960184Y0003172216D01*
X0000966326Y0003176320D01*
X0000971549Y0003181543D01*
X0000975653Y0003187685D01*
X0000978480Y0003194510D01*
X0000979921Y0003201755D01*
X0000979921Y0003209142D01*
X0001104921Y0003209142D01*
X0001104921Y0003201755D01*
X0001106362Y0003194510D01*
X0001109189Y0003187685D01*
X0001113293Y0003181543D01*
X0001118516Y0003176320D01*
X0001124658Y0003172216D01*
X0001131482Y0003169389D01*
X0001138727Y0003167948D01*
X0001146114Y0003167948D01*
X0001153359Y0003169389D01*
X0001160184Y0003172216D01*
X0001166326Y0003176320D01*
X0001171549Y0003181543D01*
X0001175653Y0003187685D01*
X0001178480Y0003194510D01*
X0001179921Y0003201755D01*
X0001179921Y0003209142D01*
X0001304921Y0003209142D01*
X0001304921Y0003201755D01*
X0001306362Y0003194510D01*
X0001309189Y0003187685D01*
X0001313293Y0003181543D01*
X0001318516Y0003176320D01*
X0001324658Y0003172216D01*
X0001331482Y0003169389D01*
X0001338727Y0003167948D01*
X0001346114Y0003167948D01*
X0001353359Y0003169389D01*
X0001360184Y0003172216D01*
X0001366326Y0003176320D01*
X0001371549Y0003181543D01*
X0001375653Y0003187685D01*
X0001378480Y0003194510D01*
X0001379921Y0003201755D01*
X0001379921Y0003209142D01*
X0001378480Y0003216387D01*
X0001375653Y0003223211D01*
X0001371549Y0003229353D01*
X0001366326Y0003234576D01*
X0001360184Y0003238680D01*
X0001353359Y0003241507D01*
X0001346114Y0003242948D01*
X0001338727Y0003242948D01*
X0001331482Y0003241507D01*
X0001324658Y0003238680D01*
X0001318516Y0003234576D01*
X0001313293Y0003229353D01*
X0001309189Y0003223211D01*
X0001306362Y0003216387D01*
X0001304921Y0003209142D01*
X0001179921Y0003209142D01*
X0001178480Y0003216387D01*
X0001175653Y0003223211D01*
X0001171549Y0003229353D01*
X0001166326Y0003234576D01*
X0001160184Y0003238680D01*
X0001153359Y0003241507D01*
X0001146114Y0003242948D01*
X0001138727Y0003242948D01*
X0001131482Y0003241507D01*
X0001124658Y0003238680D01*
X0001118516Y0003234576D01*
X0001113293Y0003229353D01*
X0001109189Y0003223211D01*
X0001106362Y0003216387D01*
X0001104921Y0003209142D01*
X0000979921Y0003209142D01*
X0000978480Y0003216387D01*
X0000975653Y0003223211D01*
X0000971549Y0003229353D01*
X0000966326Y0003234576D01*
X0000960184Y0003238680D01*
X0000953359Y0003241507D01*
X0000946114Y0003242948D01*
X0000938727Y0003242948D01*
X0000931482Y0003241507D01*
X0000924658Y0003238680D01*
X0000918516Y0003234576D01*
X0000913293Y0003229353D01*
X0000909189Y0003223211D01*
X0000906362Y0003216387D01*
X0000904921Y0003209142D01*
X0000779921Y0003209142D01*
X0000778480Y0003216387D01*
X0000775653Y0003223211D01*
X0000771549Y0003229353D01*
X0000766326Y0003234576D01*
X0000760184Y0003238680D01*
X0000753359Y0003241507D01*
X0000746114Y0003242948D01*
X0000738727Y0003242948D01*
X0000731482Y0003241507D01*
X0000724658Y0003238680D01*
X0000718516Y0003234576D01*
X0000713293Y0003229353D01*
X0000709189Y0003223211D01*
X0000706362Y0003216387D01*
X0000704921Y0003209142D01*
X0000567405Y0003209142D01*
X0000567405Y0003269054D01*
X0001523220Y0003269054D01*
X0001523220Y0002945433D01*
D12*
G36*
X0001523220Y0002945433D02*
G01*
X0000567405Y0002945433D01*
X0000567405Y0003009142D01*
X0000604921Y0003009142D01*
X0000604921Y0003001755D01*
X0000606362Y0002994510D01*
X0000609189Y0002987685D01*
X0000613293Y0002981543D01*
X0000618516Y0002976320D01*
X0000624658Y0002972216D01*
X0000631482Y0002969389D01*
X0000638727Y0002967948D01*
X0000646114Y0002967948D01*
X0000653359Y0002969389D01*
X0000660184Y0002972216D01*
X0000666326Y0002976320D01*
X0000671549Y0002981543D01*
X0000675653Y0002987685D01*
X0000678480Y0002994510D01*
X0000679921Y0003001755D01*
X0000679921Y0003009142D01*
X0000804921Y0003009142D01*
X0000804921Y0003001755D01*
X0000806362Y0002994510D01*
X0000809189Y0002987685D01*
X0000813293Y0002981543D01*
X0000818516Y0002976320D01*
X0000824658Y0002972216D01*
X0000831482Y0002969389D01*
X0000838727Y0002967948D01*
X0000846114Y0002967948D01*
X0000853359Y0002969389D01*
X0000860184Y0002972216D01*
X0000866326Y0002976320D01*
X0000871549Y0002981543D01*
X0000875653Y0002987685D01*
X0000878480Y0002994510D01*
X0000879921Y0003001755D01*
X0000879921Y0003009142D01*
X0001004921Y0003009142D01*
X0001004921Y0003001755D01*
X0001006362Y0002994510D01*
X0001009189Y0002987685D01*
X0001013293Y0002981543D01*
X0001018516Y0002976320D01*
X0001024658Y0002972216D01*
X0001031482Y0002969389D01*
X0001038727Y0002967948D01*
X0001046114Y0002967948D01*
X0001053359Y0002969389D01*
X0001060184Y0002972216D01*
X0001066326Y0002976320D01*
X0001071549Y0002981543D01*
X0001075653Y0002987685D01*
X0001078480Y0002994510D01*
X0001079921Y0003001755D01*
X0001079921Y0003009142D01*
X0001079821Y0003009642D01*
X0001204921Y0003009642D01*
X0001204921Y0003002255D01*
X0001206362Y0002995010D01*
X0001209189Y0002988185D01*
X0001213293Y0002982043D01*
X0001218516Y0002976820D01*
X0001224658Y0002972716D01*
X0001231482Y0002969889D01*
X0001238727Y0002968448D01*
X0001246114Y0002968448D01*
X0001253359Y0002969889D01*
X0001260184Y0002972716D01*
X0001266326Y0002976820D01*
X0001271549Y0002982043D01*
X0001275653Y0002988185D01*
X0001278480Y0002995010D01*
X0001279921Y0003002255D01*
X0001279921Y0003009642D01*
X0001404921Y0003009642D01*
X0001404921Y0003002255D01*
X0001406362Y0002995010D01*
X0001409189Y0002988185D01*
X0001413293Y0002982043D01*
X0001418516Y0002976820D01*
X0001424658Y0002972716D01*
X0001431482Y0002969889D01*
X0001438727Y0002968448D01*
X0001446114Y0002968448D01*
X0001453359Y0002969889D01*
X0001460184Y0002972716D01*
X0001466326Y0002976820D01*
X0001471549Y0002982043D01*
X0001475653Y0002988185D01*
X0001478480Y0002995010D01*
X0001479921Y0003002255D01*
X0001479921Y0003009642D01*
X0001478480Y0003016887D01*
X0001475653Y0003023711D01*
X0001471549Y0003029853D01*
X0001466326Y0003035076D01*
X0001460184Y0003039180D01*
X0001453359Y0003042007D01*
X0001446114Y0003043448D01*
X0001438727Y0003043448D01*
X0001431482Y0003042007D01*
X0001424658Y0003039180D01*
X0001418516Y0003035076D01*
X0001413293Y0003029853D01*
X0001409189Y0003023711D01*
X0001406362Y0003016887D01*
X0001404921Y0003009642D01*
X0001279921Y0003009642D01*
X0001278480Y0003016887D01*
X0001275653Y0003023711D01*
X0001271549Y0003029853D01*
X0001266326Y0003035076D01*
X0001260184Y0003039180D01*
X0001253359Y0003042007D01*
X0001246114Y0003043448D01*
X0001238727Y0003043448D01*
X0001231482Y0003042007D01*
X0001224658Y0003039180D01*
X0001218516Y0003035076D01*
X0001213293Y0003029853D01*
X0001209189Y0003023711D01*
X0001206362Y0003016887D01*
X0001204921Y0003009642D01*
X0001079821Y0003009642D01*
X0001078480Y0003016387D01*
X0001075653Y0003023211D01*
X0001071549Y0003029353D01*
X0001066326Y0003034576D01*
X0001060184Y0003038680D01*
X0001053359Y0003041507D01*
X0001046114Y0003042948D01*
X0001038727Y0003042948D01*
X0001031482Y0003041507D01*
X0001024658Y0003038680D01*
X0001018516Y0003034576D01*
X0001013293Y0003029353D01*
X0001009189Y0003023211D01*
X0001006362Y0003016387D01*
X0001004921Y0003009142D01*
X0000879921Y0003009142D01*
X0000878480Y0003016387D01*
X0000875653Y0003023211D01*
X0000871549Y0003029353D01*
X0000866326Y0003034576D01*
X0000860184Y0003038680D01*
X0000853359Y0003041507D01*
X0000846114Y0003042948D01*
X0000838727Y0003042948D01*
X0000831482Y0003041507D01*
X0000824658Y0003038680D01*
X0000818516Y0003034576D01*
X0000813293Y0003029353D01*
X0000809189Y0003023211D01*
X0000806362Y0003016387D01*
X0000804921Y0003009142D01*
X0000679921Y0003009142D01*
X0000678480Y0003016387D01*
X0000675653Y0003023211D01*
X0000671549Y0003029353D01*
X0000666326Y0003034576D01*
X0000660184Y0003038680D01*
X0000653359Y0003041507D01*
X0000646114Y0003042948D01*
X0000638727Y0003042948D01*
X0000631482Y0003041507D01*
X0000624658Y0003038680D01*
X0000618516Y0003034576D01*
X0000613293Y0003029353D01*
X0000609189Y0003023211D01*
X0000606362Y0003016387D01*
X0000604921Y0003009142D01*
X0000567405Y0003009142D01*
X0000567405Y0003109559D01*
X0000655688Y0003109559D01*
X0000655688Y0003101338D01*
X0000657292Y0003093275D01*
X0000660438Y0003085681D01*
X0000665005Y0003078845D01*
X0000670818Y0003073033D01*
X0000677653Y0003068466D01*
X0000685248Y0003065320D01*
X0000693310Y0003063716D01*
X0000701531Y0003063716D01*
X0000709594Y0003065320D01*
X0000717188Y0003068466D01*
X0000724024Y0003073033D01*
X0000729836Y0003078845D01*
X0000734403Y0003085681D01*
X0000737549Y0003093275D01*
X0000739153Y0003101338D01*
X0000739153Y0003109559D01*
X0000755688Y0003109559D01*
X0000755688Y0003101338D01*
X0000757292Y0003093275D01*
X0000760438Y0003085681D01*
X0000765005Y0003078845D01*
X0000770818Y0003073033D01*
X0000777653Y0003068466D01*
X0000785248Y0003065320D01*
X0000793310Y0003063716D01*
X0000801531Y0003063716D01*
X0000809594Y0003065320D01*
X0000817188Y0003068466D01*
X0000824024Y0003073033D01*
X0000829836Y0003078845D01*
X0000834403Y0003085681D01*
X0000837549Y0003093275D01*
X0000839153Y0003101338D01*
X0000839153Y0003108395D01*
X0000868500Y0003108395D01*
X0000868500Y0003102501D01*
X0000869649Y0003096721D01*
X0000871905Y0003091275D01*
X0000875179Y0003086375D01*
X0000879347Y0003082207D01*
X0000884248Y0003078932D01*
X0000889693Y0003076677D01*
X0000895474Y0003075527D01*
X0000901368Y0003075527D01*
X0000907148Y0003076677D01*
X0000912594Y0003078932D01*
X0000917494Y0003082207D01*
X0000921662Y0003086375D01*
X0000924937Y0003091275D01*
X0000927192Y0003096721D01*
X0000928342Y0003102501D01*
X0000928342Y0003108395D01*
X0000928323Y0003108492D01*
X0000967515Y0003108492D01*
X0000967515Y0003102404D01*
X0000968703Y0003096434D01*
X0000971033Y0003090809D01*
X0000974415Y0003085747D01*
X0000978720Y0003081442D01*
X0000983782Y0003078060D01*
X0000989406Y0003075730D01*
X0000995377Y0003074543D01*
X0001001465Y0003074543D01*
X0001007436Y0003075730D01*
X0001013060Y0003078060D01*
X0001018122Y0003081442D01*
X0001022427Y0003085747D01*
X0001025809Y0003090809D01*
X0001028139Y0003096434D01*
X0001029326Y0003102404D01*
X0001029326Y0003108492D01*
X0001029188Y0003109186D01*
X0001065547Y0003109186D01*
X0001065547Y0003102711D01*
X0001066810Y0003096359D01*
X0001069288Y0003090377D01*
X0001072886Y0003084992D01*
X0001077465Y0003080413D01*
X0001082849Y0003076816D01*
X0001088832Y0003074338D01*
X0001095183Y0003073074D01*
X0001101659Y0003073074D01*
X0001108010Y0003074338D01*
X0001113992Y0003076816D01*
X0001119377Y0003080413D01*
X0001123956Y0003084992D01*
X0001127553Y0003090377D01*
X0001130031Y0003096359D01*
X0001131295Y0003102711D01*
X0001131295Y0003109186D01*
X0001131057Y0003110380D01*
X0001163578Y0003110380D01*
X0001163578Y0003103517D01*
X0001164917Y0003096785D01*
X0001167544Y0003090444D01*
X0001171357Y0003084737D01*
X0001176210Y0003079884D01*
X0001181917Y0003076071D01*
X0001188258Y0003073445D01*
X0001194989Y0003072106D01*
X0001201852Y0003072106D01*
X0001208584Y0003073445D01*
X0001214925Y0003076071D01*
X0001220632Y0003079884D01*
X0001225485Y0003084737D01*
X0001229298Y0003090444D01*
X0001231924Y0003096785D01*
X0001233263Y0003103517D01*
X0001233263Y0003109559D01*
X0001255688Y0003109559D01*
X0001255688Y0003101338D01*
X0001257292Y0003093275D01*
X0001260438Y0003085681D01*
X0001265005Y0003078845D01*
X0001270818Y0003073033D01*
X0001277653Y0003068466D01*
X0001285248Y0003065320D01*
X0001293310Y0003063716D01*
X0001301531Y0003063716D01*
X0001309594Y0003065320D01*
X0001317188Y0003068466D01*
X0001324024Y0003073033D01*
X0001329836Y0003078845D01*
X0001334403Y0003085681D01*
X0001337549Y0003093275D01*
X0001339153Y0003101338D01*
X0001339153Y0003109559D01*
X0001339054Y0003110059D01*
X0001355688Y0003110059D01*
X0001355688Y0003101838D01*
X0001357292Y0003093775D01*
X0001360438Y0003086181D01*
X0001365005Y0003079346D01*
X0001370818Y0003073533D01*
X0001377653Y0003068966D01*
X0001385248Y0003065820D01*
X0001393310Y0003064216D01*
X0001401531Y0003064216D01*
X0001409594Y0003065820D01*
X0001417188Y0003068966D01*
X0001424024Y0003073533D01*
X0001429836Y0003079346D01*
X0001434403Y0003086181D01*
X0001437549Y0003093775D01*
X0001439153Y0003101838D01*
X0001439153Y0003110059D01*
X0001437549Y0003118121D01*
X0001434403Y0003125716D01*
X0001429836Y0003132551D01*
X0001424024Y0003138364D01*
X0001417188Y0003142931D01*
X0001409594Y0003146077D01*
X0001401531Y0003147681D01*
X0001393310Y0003147681D01*
X0001385248Y0003146077D01*
X0001377653Y0003142931D01*
X0001370818Y0003138364D01*
X0001365005Y0003132551D01*
X0001360438Y0003125716D01*
X0001357292Y0003118121D01*
X0001355688Y0003110059D01*
X0001339054Y0003110059D01*
X0001337549Y0003117621D01*
X0001334403Y0003125216D01*
X0001329836Y0003132051D01*
X0001324024Y0003137864D01*
X0001317188Y0003142431D01*
X0001309594Y0003145577D01*
X0001301531Y0003147181D01*
X0001293310Y0003147181D01*
X0001285248Y0003145577D01*
X0001277653Y0003142431D01*
X0001270818Y0003137864D01*
X0001265005Y0003132051D01*
X0001260438Y0003125216D01*
X0001257292Y0003117621D01*
X0001255688Y0003109559D01*
X0001233263Y0003109559D01*
X0001233263Y0003110380D01*
X0001231924Y0003117112D01*
X0001229298Y0003123452D01*
X0001225485Y0003129159D01*
X0001220632Y0003134012D01*
X0001214925Y0003137825D01*
X0001208584Y0003140452D01*
X0001201852Y0003141791D01*
X0001194989Y0003141791D01*
X0001188258Y0003140452D01*
X0001181917Y0003137825D01*
X0001176210Y0003134012D01*
X0001171357Y0003129159D01*
X0001167544Y0003123452D01*
X0001164917Y0003117112D01*
X0001163578Y0003110380D01*
X0001131057Y0003110380D01*
X0001130031Y0003115537D01*
X0001127553Y0003121520D01*
X0001123956Y0003126904D01*
X0001119377Y0003131483D01*
X0001113992Y0003135081D01*
X0001108010Y0003137559D01*
X0001101659Y0003138822D01*
X0001095183Y0003138822D01*
X0001088832Y0003137559D01*
X0001082849Y0003135081D01*
X0001077465Y0003131483D01*
X0001072886Y0003126904D01*
X0001069288Y0003121520D01*
X0001066810Y0003115537D01*
X0001065547Y0003109186D01*
X0001029188Y0003109186D01*
X0001028139Y0003114463D01*
X0001025809Y0003120088D01*
X0001022427Y0003125149D01*
X0001018122Y0003129454D01*
X0001013060Y0003132836D01*
X0001007436Y0003135166D01*
X0001001465Y0003136354D01*
X0000995377Y0003136354D01*
X0000989406Y0003135166D01*
X0000983782Y0003132836D01*
X0000978720Y0003129454D01*
X0000974415Y0003125149D01*
X0000971033Y0003120088D01*
X0000968703Y0003114463D01*
X0000967515Y0003108492D01*
X0000928323Y0003108492D01*
X0000927192Y0003114176D01*
X0000924937Y0003119621D01*
X0000921662Y0003124522D01*
X0000917494Y0003128690D01*
X0000912594Y0003131964D01*
X0000907148Y0003134220D01*
X0000901368Y0003135370D01*
X0000895474Y0003135370D01*
X0000889693Y0003134220D01*
X0000884248Y0003131964D01*
X0000879347Y0003128690D01*
X0000875179Y0003124522D01*
X0000871905Y0003119621D01*
X0000869649Y0003114176D01*
X0000868500Y0003108395D01*
X0000839153Y0003108395D01*
X0000839153Y0003109559D01*
X0000837549Y0003117621D01*
X0000834403Y0003125216D01*
X0000829836Y0003132051D01*
X0000824024Y0003137864D01*
X0000817188Y0003142431D01*
X0000809594Y0003145577D01*
X0000801531Y0003147181D01*
X0000793310Y0003147181D01*
X0000785248Y0003145577D01*
X0000777653Y0003142431D01*
X0000770818Y0003137864D01*
X0000765005Y0003132051D01*
X0000760438Y0003125216D01*
X0000757292Y0003117621D01*
X0000755688Y0003109559D01*
X0000739153Y0003109559D01*
X0000737549Y0003117621D01*
X0000734403Y0003125216D01*
X0000729836Y0003132051D01*
X0000724024Y0003137864D01*
X0000717188Y0003142431D01*
X0000709594Y0003145577D01*
X0000701531Y0003147181D01*
X0000693310Y0003147181D01*
X0000685248Y0003145577D01*
X0000677653Y0003142431D01*
X0000670818Y0003137864D01*
X0000665005Y0003132051D01*
X0000660438Y0003125216D01*
X0000657292Y0003117621D01*
X0000655688Y0003109559D01*
X0000567405Y0003109559D01*
X0000567405Y0003209142D01*
X0000704921Y0003209142D01*
X0000704921Y0003201755D01*
X0000706362Y0003194510D01*
X0000709189Y0003187685D01*
X0000713293Y0003181543D01*
X0000718516Y0003176320D01*
X0000724658Y0003172216D01*
X0000731482Y0003169389D01*
X0000738727Y0003167948D01*
X0000746114Y0003167948D01*
X0000753359Y0003169389D01*
X0000760184Y0003172216D01*
X0000766326Y0003176320D01*
X0000771549Y0003181543D01*
X0000775653Y0003187685D01*
X0000778480Y0003194510D01*
X0000779921Y0003201755D01*
X0000779921Y0003209142D01*
X0000904921Y0003209142D01*
X0000904921Y0003201755D01*
X0000906362Y0003194510D01*
X0000909189Y0003187685D01*
X0000913293Y0003181543D01*
X0000918516Y0003176320D01*
X0000924658Y0003172216D01*
X0000931482Y0003169389D01*
X0000938727Y0003167948D01*
X0000946114Y0003167948D01*
X0000953359Y0003169389D01*
X0000960184Y0003172216D01*
X0000966326Y0003176320D01*
X0000971549Y0003181543D01*
X0000975653Y0003187685D01*
X0000978480Y0003194510D01*
X0000979921Y0003201755D01*
X0000979921Y0003209142D01*
X0001104921Y0003209142D01*
X0001104921Y0003201755D01*
X0001106362Y0003194510D01*
X0001109189Y0003187685D01*
X0001113293Y0003181543D01*
X0001118516Y0003176320D01*
X0001124658Y0003172216D01*
X0001131482Y0003169389D01*
X0001138727Y0003167948D01*
X0001146114Y0003167948D01*
X0001153359Y0003169389D01*
X0001160184Y0003172216D01*
X0001166326Y0003176320D01*
X0001171549Y0003181543D01*
X0001175653Y0003187685D01*
X0001178480Y0003194510D01*
X0001179921Y0003201755D01*
X0001179921Y0003209142D01*
X0001304921Y0003209142D01*
X0001304921Y0003201755D01*
X0001306362Y0003194510D01*
X0001309189Y0003187685D01*
X0001313293Y0003181543D01*
X0001318516Y0003176320D01*
X0001324658Y0003172216D01*
X0001331482Y0003169389D01*
X0001338727Y0003167948D01*
X0001346114Y0003167948D01*
X0001353359Y0003169389D01*
X0001360184Y0003172216D01*
X0001366326Y0003176320D01*
X0001371549Y0003181543D01*
X0001375653Y0003187685D01*
X0001378480Y0003194510D01*
X0001379921Y0003201755D01*
X0001379921Y0003209142D01*
X0001378480Y0003216387D01*
X0001375653Y0003223211D01*
X0001371549Y0003229353D01*
X0001366326Y0003234576D01*
X0001360184Y0003238680D01*
X0001353359Y0003241507D01*
X0001346114Y0003242948D01*
X0001338727Y0003242948D01*
X0001331482Y0003241507D01*
X0001324658Y0003238680D01*
X0001318516Y0003234576D01*
X0001313293Y0003229353D01*
X0001309189Y0003223211D01*
X0001306362Y0003216387D01*
X0001304921Y0003209142D01*
X0001179921Y0003209142D01*
X0001178480Y0003216387D01*
X0001175653Y0003223211D01*
X0001171549Y0003229353D01*
X0001166326Y0003234576D01*
X0001160184Y0003238680D01*
X0001153359Y0003241507D01*
X0001146114Y0003242948D01*
X0001138727Y0003242948D01*
X0001131482Y0003241507D01*
X0001124658Y0003238680D01*
X0001118516Y0003234576D01*
X0001113293Y0003229353D01*
X0001109189Y0003223211D01*
X0001106362Y0003216387D01*
X0001104921Y0003209142D01*
X0000979921Y0003209142D01*
X0000978480Y0003216387D01*
X0000975653Y0003223211D01*
X0000971549Y0003229353D01*
X0000966326Y0003234576D01*
X0000960184Y0003238680D01*
X0000953359Y0003241507D01*
X0000946114Y0003242948D01*
X0000938727Y0003242948D01*
X0000931482Y0003241507D01*
X0000924658Y0003238680D01*
X0000918516Y0003234576D01*
X0000913293Y0003229353D01*
X0000909189Y0003223211D01*
X0000906362Y0003216387D01*
X0000904921Y0003209142D01*
X0000779921Y0003209142D01*
X0000778480Y0003216387D01*
X0000775653Y0003223211D01*
X0000771549Y0003229353D01*
X0000766326Y0003234576D01*
X0000760184Y0003238680D01*
X0000753359Y0003241507D01*
X0000746114Y0003242948D01*
X0000738727Y0003242948D01*
X0000731482Y0003241507D01*
X0000724658Y0003238680D01*
X0000718516Y0003234576D01*
X0000713293Y0003229353D01*
X0000709189Y0003223211D01*
X0000706362Y0003216387D01*
X0000704921Y0003209142D01*
X0000567405Y0003209142D01*
X0000567405Y0003269054D01*
X0001523220Y0003269054D01*
X0001523220Y0002945433D01*
G37*
G04 next file*
G04 #@! TF.GenerationSoftware,KiCad,Pcbnew,(5.1.12)-1*
G04 #@! TF.CreationDate,2022-03-29T21:33:58+08:00*
G04 #@! TF.ProjectId,Nozzle,4e6f7a7a-6c65-42e6-9b69-6361645f7063,Gen3.1b*
G04 #@! TF.SameCoordinates,Original*
G04 #@! TF.FileFunction,Copper,L2,Bot*
G04 #@! TF.FilePolarity,Positive*
G04 Gerber Fmt 4.6, Leading zero omitted, Abs format (unit mm)*
G04 Created by KiCad (PCBNEW (5.1.12)-1) date 2022-03-29 21:33:58*
G01*
G04 APERTURE LIST*
G04 #@! TA.AperFunction,ComponentPad*
G04 #@! TD*
G04 #@! TA.AperFunction,NonConductor*
G04 #@! TD*
G04 #@! TA.AperFunction,NonConductor*
G04 #@! TD*
G04 APERTURE END LIST*
D23*
X-0004370078Y0004881889D02*
X0001397421Y0003578389D03*
X0000797421Y0003577889D03*
X0001297421Y0003577889D03*
X0000697421Y0003577889D03*
D24*
X0001523220Y0003417874D02*
X0000567405Y0003417874D01*
X0000567405Y0003481583D01*
X0000604921Y0003481583D01*
X0000604921Y0003474196D01*
X0000606362Y0003466951D01*
X0000609189Y0003460126D01*
X0000613293Y0003453984D01*
X0000618516Y0003448761D01*
X0000624658Y0003444657D01*
X0000631482Y0003441830D01*
X0000638727Y0003440389D01*
X0000646114Y0003440389D01*
X0000653359Y0003441830D01*
X0000660184Y0003444657D01*
X0000666326Y0003448761D01*
X0000671549Y0003453984D01*
X0000675653Y0003460126D01*
X0000678480Y0003466951D01*
X0000679921Y0003474196D01*
X0000679921Y0003481583D01*
X0000804921Y0003481583D01*
X0000804921Y0003474196D01*
X0000806362Y0003466951D01*
X0000809189Y0003460126D01*
X0000813293Y0003453984D01*
X0000818516Y0003448761D01*
X0000824658Y0003444657D01*
X0000831482Y0003441830D01*
X0000838727Y0003440389D01*
X0000846114Y0003440389D01*
X0000853359Y0003441830D01*
X0000860184Y0003444657D01*
X0000866326Y0003448761D01*
X0000871549Y0003453984D01*
X0000875653Y0003460126D01*
X0000878480Y0003466951D01*
X0000879921Y0003474196D01*
X0000879921Y0003481583D01*
X0001004921Y0003481583D01*
X0001004921Y0003474196D01*
X0001006362Y0003466951D01*
X0001009189Y0003460126D01*
X0001013293Y0003453984D01*
X0001018516Y0003448761D01*
X0001024658Y0003444657D01*
X0001031482Y0003441830D01*
X0001038727Y0003440389D01*
X0001046114Y0003440389D01*
X0001053359Y0003441830D01*
X0001060184Y0003444657D01*
X0001066326Y0003448761D01*
X0001071549Y0003453984D01*
X0001075653Y0003460126D01*
X0001078480Y0003466951D01*
X0001079921Y0003474196D01*
X0001079921Y0003481583D01*
X0001079821Y0003482083D01*
X0001204921Y0003482083D01*
X0001204921Y0003474696D01*
X0001206362Y0003467451D01*
X0001209189Y0003460626D01*
X0001213293Y0003454484D01*
X0001218516Y0003449261D01*
X0001224658Y0003445157D01*
X0001231482Y0003442330D01*
X0001238727Y0003440889D01*
X0001246114Y0003440889D01*
X0001253359Y0003442330D01*
X0001260184Y0003445157D01*
X0001266326Y0003449261D01*
X0001271549Y0003454484D01*
X0001275653Y0003460626D01*
X0001278480Y0003467451D01*
X0001279921Y0003474696D01*
X0001279921Y0003482083D01*
X0001404921Y0003482083D01*
X0001404921Y0003474696D01*
X0001406362Y0003467451D01*
X0001409189Y0003460626D01*
X0001413293Y0003454484D01*
X0001418516Y0003449261D01*
X0001424658Y0003445157D01*
X0001431482Y0003442330D01*
X0001438727Y0003440889D01*
X0001446114Y0003440889D01*
X0001453359Y0003442330D01*
X0001460184Y0003445157D01*
X0001466326Y0003449261D01*
X0001471549Y0003454484D01*
X0001475653Y0003460626D01*
X0001478480Y0003467451D01*
X0001479921Y0003474696D01*
X0001479921Y0003482083D01*
X0001478480Y0003489328D01*
X0001475653Y0003496152D01*
X0001471549Y0003502294D01*
X0001466326Y0003507517D01*
X0001460184Y0003511621D01*
X0001453359Y0003514448D01*
X0001446114Y0003515889D01*
X0001438727Y0003515889D01*
X0001431482Y0003514448D01*
X0001424658Y0003511621D01*
X0001418516Y0003507517D01*
X0001413293Y0003502294D01*
X0001409189Y0003496152D01*
X0001406362Y0003489328D01*
X0001404921Y0003482083D01*
X0001279921Y0003482083D01*
X0001278480Y0003489328D01*
X0001275653Y0003496152D01*
X0001271549Y0003502294D01*
X0001266326Y0003507517D01*
X0001260184Y0003511621D01*
X0001253359Y0003514448D01*
X0001246114Y0003515889D01*
X0001238727Y0003515889D01*
X0001231482Y0003514448D01*
X0001224658Y0003511621D01*
X0001218516Y0003507517D01*
X0001213293Y0003502294D01*
X0001209189Y0003496152D01*
X0001206362Y0003489328D01*
X0001204921Y0003482083D01*
X0001079821Y0003482083D01*
X0001078480Y0003488828D01*
X0001075653Y0003495652D01*
X0001071549Y0003501794D01*
X0001066326Y0003507017D01*
X0001060184Y0003511121D01*
X0001053359Y0003513948D01*
X0001046114Y0003515389D01*
X0001038727Y0003515389D01*
X0001031482Y0003513948D01*
X0001024658Y0003511121D01*
X0001018516Y0003507017D01*
X0001013293Y0003501794D01*
X0001009189Y0003495652D01*
X0001006362Y0003488828D01*
X0001004921Y0003481583D01*
X0000879921Y0003481583D01*
X0000878480Y0003488828D01*
X0000875653Y0003495652D01*
X0000871549Y0003501794D01*
X0000866326Y0003507017D01*
X0000860184Y0003511121D01*
X0000853359Y0003513948D01*
X0000846114Y0003515389D01*
X0000838727Y0003515389D01*
X0000831482Y0003513948D01*
X0000824658Y0003511121D01*
X0000818516Y0003507017D01*
X0000813293Y0003501794D01*
X0000809189Y0003495652D01*
X0000806362Y0003488828D01*
X0000804921Y0003481583D01*
X0000679921Y0003481583D01*
X0000678480Y0003488828D01*
X0000675653Y0003495652D01*
X0000671549Y0003501794D01*
X0000666326Y0003507017D01*
X0000660184Y0003511121D01*
X0000653359Y0003513948D01*
X0000646114Y0003515389D01*
X0000638727Y0003515389D01*
X0000631482Y0003513948D01*
X0000624658Y0003511121D01*
X0000618516Y0003507017D01*
X0000613293Y0003501794D01*
X0000609189Y0003495652D01*
X0000606362Y0003488828D01*
X0000604921Y0003481583D01*
X0000567405Y0003481583D01*
X0000567405Y0003582000D01*
X0000655688Y0003582000D01*
X0000655688Y0003573779D01*
X0000657292Y0003565716D01*
X0000660438Y0003558122D01*
X0000665005Y0003551286D01*
X0000670818Y0003545474D01*
X0000677653Y0003540907D01*
X0000685248Y0003537761D01*
X0000693310Y0003536157D01*
X0000701531Y0003536157D01*
X0000709594Y0003537761D01*
X0000717188Y0003540907D01*
X0000724024Y0003545474D01*
X0000729836Y0003551286D01*
X0000734403Y0003558122D01*
X0000737549Y0003565716D01*
X0000739153Y0003573779D01*
X0000739153Y0003582000D01*
X0000755688Y0003582000D01*
X0000755688Y0003573779D01*
X0000757292Y0003565716D01*
X0000760438Y0003558122D01*
X0000765005Y0003551286D01*
X0000770818Y0003545474D01*
X0000777653Y0003540907D01*
X0000785248Y0003537761D01*
X0000793310Y0003536157D01*
X0000801531Y0003536157D01*
X0000809594Y0003537761D01*
X0000817188Y0003540907D01*
X0000824024Y0003545474D01*
X0000829836Y0003551286D01*
X0000834403Y0003558122D01*
X0000837549Y0003565716D01*
X0000839153Y0003573779D01*
X0000839153Y0003580836D01*
X0000868500Y0003580836D01*
X0000868500Y0003574942D01*
X0000869649Y0003569162D01*
X0000871905Y0003563716D01*
X0000875179Y0003558816D01*
X0000879347Y0003554648D01*
X0000884248Y0003551373D01*
X0000889693Y0003549118D01*
X0000895474Y0003547968D01*
X0000901368Y0003547968D01*
X0000907148Y0003549118D01*
X0000912594Y0003551373D01*
X0000917494Y0003554648D01*
X0000921662Y0003558816D01*
X0000924937Y0003563716D01*
X0000927192Y0003569162D01*
X0000928342Y0003574942D01*
X0000928342Y0003580836D01*
X0000928323Y0003580933D01*
X0000967515Y0003580933D01*
X0000967515Y0003574845D01*
X0000968703Y0003568874D01*
X0000971033Y0003563250D01*
X0000974415Y0003558188D01*
X0000978720Y0003553883D01*
X0000983782Y0003550501D01*
X0000989406Y0003548171D01*
X0000995377Y0003546984D01*
X0001001465Y0003546984D01*
X0001007436Y0003548171D01*
X0001013060Y0003550501D01*
X0001018122Y0003553883D01*
X0001022427Y0003558188D01*
X0001025809Y0003563250D01*
X0001028139Y0003568874D01*
X0001029326Y0003574845D01*
X0001029326Y0003580933D01*
X0001029188Y0003581627D01*
X0001065547Y0003581627D01*
X0001065547Y0003575151D01*
X0001066810Y0003568800D01*
X0001069288Y0003562818D01*
X0001072886Y0003557433D01*
X0001077465Y0003552854D01*
X0001082849Y0003549257D01*
X0001088832Y0003546779D01*
X0001095183Y0003545515D01*
X0001101659Y0003545515D01*
X0001108010Y0003546779D01*
X0001113992Y0003549257D01*
X0001119377Y0003552854D01*
X0001123956Y0003557433D01*
X0001127553Y0003562818D01*
X0001130031Y0003568800D01*
X0001131295Y0003575151D01*
X0001131295Y0003581627D01*
X0001131057Y0003582821D01*
X0001163578Y0003582821D01*
X0001163578Y0003575958D01*
X0001164917Y0003569226D01*
X0001167544Y0003562885D01*
X0001171357Y0003557178D01*
X0001176210Y0003552325D01*
X0001181917Y0003548512D01*
X0001188258Y0003545886D01*
X0001194989Y0003544547D01*
X0001201852Y0003544547D01*
X0001208584Y0003545886D01*
X0001214925Y0003548512D01*
X0001220632Y0003552325D01*
X0001225485Y0003557178D01*
X0001229298Y0003562885D01*
X0001231924Y0003569226D01*
X0001233263Y0003575958D01*
X0001233263Y0003582000D01*
X0001255688Y0003582000D01*
X0001255688Y0003573779D01*
X0001257292Y0003565716D01*
X0001260438Y0003558122D01*
X0001265005Y0003551286D01*
X0001270818Y0003545474D01*
X0001277653Y0003540907D01*
X0001285248Y0003537761D01*
X0001293310Y0003536157D01*
X0001301531Y0003536157D01*
X0001309594Y0003537761D01*
X0001317188Y0003540907D01*
X0001324024Y0003545474D01*
X0001329836Y0003551286D01*
X0001334403Y0003558122D01*
X0001337549Y0003565716D01*
X0001339153Y0003573779D01*
X0001339153Y0003582000D01*
X0001339054Y0003582500D01*
X0001355688Y0003582500D01*
X0001355688Y0003574279D01*
X0001357292Y0003566216D01*
X0001360438Y0003558622D01*
X0001365005Y0003551786D01*
X0001370818Y0003545974D01*
X0001377653Y0003541407D01*
X0001385248Y0003538261D01*
X0001393310Y0003536657D01*
X0001401531Y0003536657D01*
X0001409594Y0003538261D01*
X0001417188Y0003541407D01*
X0001424024Y0003545974D01*
X0001429836Y0003551786D01*
X0001434403Y0003558622D01*
X0001437549Y0003566216D01*
X0001439153Y0003574279D01*
X0001439153Y0003582500D01*
X0001437549Y0003590562D01*
X0001434403Y0003598157D01*
X0001429836Y0003604992D01*
X0001424024Y0003610805D01*
X0001417188Y0003615372D01*
X0001409594Y0003618518D01*
X0001401531Y0003620122D01*
X0001393310Y0003620122D01*
X0001385248Y0003618518D01*
X0001377653Y0003615372D01*
X0001370818Y0003610805D01*
X0001365005Y0003604992D01*
X0001360438Y0003598157D01*
X0001357292Y0003590562D01*
X0001355688Y0003582500D01*
X0001339054Y0003582500D01*
X0001337549Y0003590062D01*
X0001334403Y0003597657D01*
X0001329836Y0003604492D01*
X0001324024Y0003610305D01*
X0001317188Y0003614872D01*
X0001309594Y0003618018D01*
X0001301531Y0003619622D01*
X0001293310Y0003619622D01*
X0001285248Y0003618018D01*
X0001277653Y0003614872D01*
X0001270818Y0003610305D01*
X0001265005Y0003604492D01*
X0001260438Y0003597657D01*
X0001257292Y0003590062D01*
X0001255688Y0003582000D01*
X0001233263Y0003582000D01*
X0001233263Y0003582821D01*
X0001231924Y0003589552D01*
X0001229298Y0003595893D01*
X0001225485Y0003601600D01*
X0001220632Y0003606453D01*
X0001214925Y0003610266D01*
X0001208584Y0003612893D01*
X0001201852Y0003614232D01*
X0001194989Y0003614232D01*
X0001188258Y0003612893D01*
X0001181917Y0003610266D01*
X0001176210Y0003606453D01*
X0001171357Y0003601600D01*
X0001167544Y0003595893D01*
X0001164917Y0003589552D01*
X0001163578Y0003582821D01*
X0001131057Y0003582821D01*
X0001130031Y0003587978D01*
X0001127553Y0003593961D01*
X0001123956Y0003599345D01*
X0001119377Y0003603924D01*
X0001113992Y0003607522D01*
X0001108010Y0003610000D01*
X0001101659Y0003611263D01*
X0001095183Y0003611263D01*
X0001088832Y0003610000D01*
X0001082849Y0003607522D01*
X0001077465Y0003603924D01*
X0001072886Y0003599345D01*
X0001069288Y0003593961D01*
X0001066810Y0003587978D01*
X0001065547Y0003581627D01*
X0001029188Y0003581627D01*
X0001028139Y0003586904D01*
X0001025809Y0003592529D01*
X0001022427Y0003597590D01*
X0001018122Y0003601895D01*
X0001013060Y0003605277D01*
X0001007436Y0003607607D01*
X0001001465Y0003608795D01*
X0000995377Y0003608795D01*
X0000989406Y0003607607D01*
X0000983782Y0003605277D01*
X0000978720Y0003601895D01*
X0000974415Y0003597590D01*
X0000971033Y0003592529D01*
X0000968703Y0003586904D01*
X0000967515Y0003580933D01*
X0000928323Y0003580933D01*
X0000927192Y0003586617D01*
X0000924937Y0003592062D01*
X0000921662Y0003596963D01*
X0000917494Y0003601131D01*
X0000912594Y0003604405D01*
X0000907148Y0003606661D01*
X0000901368Y0003607810D01*
X0000895474Y0003607810D01*
X0000889693Y0003606661D01*
X0000884248Y0003604405D01*
X0000879347Y0003601131D01*
X0000875179Y0003596963D01*
X0000871905Y0003592062D01*
X0000869649Y0003586617D01*
X0000868500Y0003580836D01*
X0000839153Y0003580836D01*
X0000839153Y0003582000D01*
X0000837549Y0003590062D01*
X0000834403Y0003597657D01*
X0000829836Y0003604492D01*
X0000824024Y0003610305D01*
X0000817188Y0003614872D01*
X0000809594Y0003618018D01*
X0000801531Y0003619622D01*
X0000793310Y0003619622D01*
X0000785248Y0003618018D01*
X0000777653Y0003614872D01*
X0000770818Y0003610305D01*
X0000765005Y0003604492D01*
X0000760438Y0003597657D01*
X0000757292Y0003590062D01*
X0000755688Y0003582000D01*
X0000739153Y0003582000D01*
X0000737549Y0003590062D01*
X0000734403Y0003597657D01*
X0000729836Y0003604492D01*
X0000724024Y0003610305D01*
X0000717188Y0003614872D01*
X0000709594Y0003618018D01*
X0000701531Y0003619622D01*
X0000693310Y0003619622D01*
X0000685248Y0003618018D01*
X0000677653Y0003614872D01*
X0000670818Y0003610305D01*
X0000665005Y0003604492D01*
X0000660438Y0003597657D01*
X0000657292Y0003590062D01*
X0000655688Y0003582000D01*
X0000567405Y0003582000D01*
X0000567405Y0003681583D01*
X0000704921Y0003681583D01*
X0000704921Y0003674196D01*
X0000706362Y0003666951D01*
X0000709189Y0003660126D01*
X0000713293Y0003653984D01*
X0000718516Y0003648761D01*
X0000724658Y0003644657D01*
X0000731482Y0003641830D01*
X0000738727Y0003640389D01*
X0000746114Y0003640389D01*
X0000753359Y0003641830D01*
X0000760184Y0003644657D01*
X0000766326Y0003648761D01*
X0000771549Y0003653984D01*
X0000775653Y0003660126D01*
X0000778480Y0003666951D01*
X0000779921Y0003674196D01*
X0000779921Y0003681583D01*
X0000904921Y0003681583D01*
X0000904921Y0003674196D01*
X0000906362Y0003666951D01*
X0000909189Y0003660126D01*
X0000913293Y0003653984D01*
X0000918516Y0003648761D01*
X0000924658Y0003644657D01*
X0000931482Y0003641830D01*
X0000938727Y0003640389D01*
X0000946114Y0003640389D01*
X0000953359Y0003641830D01*
X0000960184Y0003644657D01*
X0000966326Y0003648761D01*
X0000971549Y0003653984D01*
X0000975653Y0003660126D01*
X0000978480Y0003666951D01*
X0000979921Y0003674196D01*
X0000979921Y0003681583D01*
X0001104921Y0003681583D01*
X0001104921Y0003674196D01*
X0001106362Y0003666951D01*
X0001109189Y0003660126D01*
X0001113293Y0003653984D01*
X0001118516Y0003648761D01*
X0001124658Y0003644657D01*
X0001131482Y0003641830D01*
X0001138727Y0003640389D01*
X0001146114Y0003640389D01*
X0001153359Y0003641830D01*
X0001160184Y0003644657D01*
X0001166326Y0003648761D01*
X0001171549Y0003653984D01*
X0001175653Y0003660126D01*
X0001178480Y0003666951D01*
X0001179921Y0003674196D01*
X0001179921Y0003681583D01*
X0001304921Y0003681583D01*
X0001304921Y0003674196D01*
X0001306362Y0003666951D01*
X0001309189Y0003660126D01*
X0001313293Y0003653984D01*
X0001318516Y0003648761D01*
X0001324658Y0003644657D01*
X0001331482Y0003641830D01*
X0001338727Y0003640389D01*
X0001346114Y0003640389D01*
X0001353359Y0003641830D01*
X0001360184Y0003644657D01*
X0001366326Y0003648761D01*
X0001371549Y0003653984D01*
X0001375653Y0003660126D01*
X0001378480Y0003666951D01*
X0001379921Y0003674196D01*
X0001379921Y0003681583D01*
X0001378480Y0003688828D01*
X0001375653Y0003695652D01*
X0001371549Y0003701794D01*
X0001366326Y0003707017D01*
X0001360184Y0003711121D01*
X0001353359Y0003713948D01*
X0001346114Y0003715389D01*
X0001338727Y0003715389D01*
X0001331482Y0003713948D01*
X0001324658Y0003711121D01*
X0001318516Y0003707017D01*
X0001313293Y0003701794D01*
X0001309189Y0003695652D01*
X0001306362Y0003688828D01*
X0001304921Y0003681583D01*
X0001179921Y0003681583D01*
X0001178480Y0003688828D01*
X0001175653Y0003695652D01*
X0001171549Y0003701794D01*
X0001166326Y0003707017D01*
X0001160184Y0003711121D01*
X0001153359Y0003713948D01*
X0001146114Y0003715389D01*
X0001138727Y0003715389D01*
X0001131482Y0003713948D01*
X0001124658Y0003711121D01*
X0001118516Y0003707017D01*
X0001113293Y0003701794D01*
X0001109189Y0003695652D01*
X0001106362Y0003688828D01*
X0001104921Y0003681583D01*
X0000979921Y0003681583D01*
X0000978480Y0003688828D01*
X0000975653Y0003695652D01*
X0000971549Y0003701794D01*
X0000966326Y0003707017D01*
X0000960184Y0003711121D01*
X0000953359Y0003713948D01*
X0000946114Y0003715389D01*
X0000938727Y0003715389D01*
X0000931482Y0003713948D01*
X0000924658Y0003711121D01*
X0000918516Y0003707017D01*
X0000913293Y0003701794D01*
X0000909189Y0003695652D01*
X0000906362Y0003688828D01*
X0000904921Y0003681583D01*
X0000779921Y0003681583D01*
X0000778480Y0003688828D01*
X0000775653Y0003695652D01*
X0000771549Y0003701794D01*
X0000766326Y0003707017D01*
X0000760184Y0003711121D01*
X0000753359Y0003713948D01*
X0000746114Y0003715389D01*
X0000738727Y0003715389D01*
X0000731482Y0003713948D01*
X0000724658Y0003711121D01*
X0000718516Y0003707017D01*
X0000713293Y0003701794D01*
X0000709189Y0003695652D01*
X0000706362Y0003688828D01*
X0000704921Y0003681583D01*
X0000567405Y0003681583D01*
X0000567405Y0003741495D01*
X0001523220Y0003741495D01*
X0001523220Y0003417874D01*
G04 #@! TA.AperFunction,NonConductor*
D25*
G36*
X0001523220Y0003417874D02*
G01*
X0000567405Y0003417874D01*
X0000567405Y0003481583D01*
X0000604921Y0003481583D01*
X0000604921Y0003474196D01*
X0000606362Y0003466951D01*
X0000609189Y0003460126D01*
X0000613293Y0003453984D01*
X0000618516Y0003448761D01*
X0000624658Y0003444657D01*
X0000631482Y0003441830D01*
X0000638727Y0003440389D01*
X0000646114Y0003440389D01*
X0000653359Y0003441830D01*
X0000660184Y0003444657D01*
X0000666326Y0003448761D01*
X0000671549Y0003453984D01*
X0000675653Y0003460126D01*
X0000678480Y0003466951D01*
X0000679921Y0003474196D01*
X0000679921Y0003481583D01*
X0000804921Y0003481583D01*
X0000804921Y0003474196D01*
X0000806362Y0003466951D01*
X0000809189Y0003460126D01*
X0000813293Y0003453984D01*
X0000818516Y0003448761D01*
X0000824658Y0003444657D01*
X0000831482Y0003441830D01*
X0000838727Y0003440389D01*
X0000846114Y0003440389D01*
X0000853359Y0003441830D01*
X0000860184Y0003444657D01*
X0000866326Y0003448761D01*
X0000871549Y0003453984D01*
X0000875653Y0003460126D01*
X0000878480Y0003466951D01*
X0000879921Y0003474196D01*
X0000879921Y0003481583D01*
X0001004921Y0003481583D01*
X0001004921Y0003474196D01*
X0001006362Y0003466951D01*
X0001009189Y0003460126D01*
X0001013293Y0003453984D01*
X0001018516Y0003448761D01*
X0001024658Y0003444657D01*
X0001031482Y0003441830D01*
X0001038727Y0003440389D01*
X0001046114Y0003440389D01*
X0001053359Y0003441830D01*
X0001060184Y0003444657D01*
X0001066326Y0003448761D01*
X0001071549Y0003453984D01*
X0001075653Y0003460126D01*
X0001078480Y0003466951D01*
X0001079921Y0003474196D01*
X0001079921Y0003481583D01*
X0001079821Y0003482083D01*
X0001204921Y0003482083D01*
X0001204921Y0003474696D01*
X0001206362Y0003467451D01*
X0001209189Y0003460626D01*
X0001213293Y0003454484D01*
X0001218516Y0003449261D01*
X0001224658Y0003445157D01*
X0001231482Y0003442330D01*
X0001238727Y0003440889D01*
X0001246114Y0003440889D01*
X0001253359Y0003442330D01*
X0001260184Y0003445157D01*
X0001266326Y0003449261D01*
X0001271549Y0003454484D01*
X0001275653Y0003460626D01*
X0001278480Y0003467451D01*
X0001279921Y0003474696D01*
X0001279921Y0003482083D01*
X0001404921Y0003482083D01*
X0001404921Y0003474696D01*
X0001406362Y0003467451D01*
X0001409189Y0003460626D01*
X0001413293Y0003454484D01*
X0001418516Y0003449261D01*
X0001424658Y0003445157D01*
X0001431482Y0003442330D01*
X0001438727Y0003440889D01*
X0001446114Y0003440889D01*
X0001453359Y0003442330D01*
X0001460184Y0003445157D01*
X0001466326Y0003449261D01*
X0001471549Y0003454484D01*
X0001475653Y0003460626D01*
X0001478480Y0003467451D01*
X0001479921Y0003474696D01*
X0001479921Y0003482083D01*
X0001478480Y0003489328D01*
X0001475653Y0003496152D01*
X0001471549Y0003502294D01*
X0001466326Y0003507517D01*
X0001460184Y0003511621D01*
X0001453359Y0003514448D01*
X0001446114Y0003515889D01*
X0001438727Y0003515889D01*
X0001431482Y0003514448D01*
X0001424658Y0003511621D01*
X0001418516Y0003507517D01*
X0001413293Y0003502294D01*
X0001409189Y0003496152D01*
X0001406362Y0003489328D01*
X0001404921Y0003482083D01*
X0001279921Y0003482083D01*
X0001278480Y0003489328D01*
X0001275653Y0003496152D01*
X0001271549Y0003502294D01*
X0001266326Y0003507517D01*
X0001260184Y0003511621D01*
X0001253359Y0003514448D01*
X0001246114Y0003515889D01*
X0001238727Y0003515889D01*
X0001231482Y0003514448D01*
X0001224658Y0003511621D01*
X0001218516Y0003507517D01*
X0001213293Y0003502294D01*
X0001209189Y0003496152D01*
X0001206362Y0003489328D01*
X0001204921Y0003482083D01*
X0001079821Y0003482083D01*
X0001078480Y0003488828D01*
X0001075653Y0003495652D01*
X0001071549Y0003501794D01*
X0001066326Y0003507017D01*
X0001060184Y0003511121D01*
X0001053359Y0003513948D01*
X0001046114Y0003515389D01*
X0001038727Y0003515389D01*
X0001031482Y0003513948D01*
X0001024658Y0003511121D01*
X0001018516Y0003507017D01*
X0001013293Y0003501794D01*
X0001009189Y0003495652D01*
X0001006362Y0003488828D01*
X0001004921Y0003481583D01*
X0000879921Y0003481583D01*
X0000878480Y0003488828D01*
X0000875653Y0003495652D01*
X0000871549Y0003501794D01*
X0000866326Y0003507017D01*
X0000860184Y0003511121D01*
X0000853359Y0003513948D01*
X0000846114Y0003515389D01*
X0000838727Y0003515389D01*
X0000831482Y0003513948D01*
X0000824658Y0003511121D01*
X0000818516Y0003507017D01*
X0000813293Y0003501794D01*
X0000809189Y0003495652D01*
X0000806362Y0003488828D01*
X0000804921Y0003481583D01*
X0000679921Y0003481583D01*
X0000678480Y0003488828D01*
X0000675653Y0003495652D01*
X0000671549Y0003501794D01*
X0000666326Y0003507017D01*
X0000660184Y0003511121D01*
X0000653359Y0003513948D01*
X0000646114Y0003515389D01*
X0000638727Y0003515389D01*
X0000631482Y0003513948D01*
X0000624658Y0003511121D01*
X0000618516Y0003507017D01*
X0000613293Y0003501794D01*
X0000609189Y0003495652D01*
X0000606362Y0003488828D01*
X0000604921Y0003481583D01*
X0000567405Y0003481583D01*
X0000567405Y0003582000D01*
X0000655688Y0003582000D01*
X0000655688Y0003573779D01*
X0000657292Y0003565716D01*
X0000660438Y0003558122D01*
X0000665005Y0003551286D01*
X0000670818Y0003545474D01*
X0000677653Y0003540907D01*
X0000685248Y0003537761D01*
X0000693310Y0003536157D01*
X0000701531Y0003536157D01*
X0000709594Y0003537761D01*
X0000717188Y0003540907D01*
X0000724024Y0003545474D01*
X0000729836Y0003551286D01*
X0000734403Y0003558122D01*
X0000737549Y0003565716D01*
X0000739153Y0003573779D01*
X0000739153Y0003582000D01*
X0000755688Y0003582000D01*
X0000755688Y0003573779D01*
X0000757292Y0003565716D01*
X0000760438Y0003558122D01*
X0000765005Y0003551286D01*
X0000770818Y0003545474D01*
X0000777653Y0003540907D01*
X0000785248Y0003537761D01*
X0000793310Y0003536157D01*
X0000801531Y0003536157D01*
X0000809594Y0003537761D01*
X0000817188Y0003540907D01*
X0000824024Y0003545474D01*
X0000829836Y0003551286D01*
X0000834403Y0003558122D01*
X0000837549Y0003565716D01*
X0000839153Y0003573779D01*
X0000839153Y0003580836D01*
X0000868500Y0003580836D01*
X0000868500Y0003574942D01*
X0000869649Y0003569162D01*
X0000871905Y0003563716D01*
X0000875179Y0003558816D01*
X0000879347Y0003554648D01*
X0000884248Y0003551373D01*
X0000889693Y0003549118D01*
X0000895474Y0003547968D01*
X0000901368Y0003547968D01*
X0000907148Y0003549118D01*
X0000912594Y0003551373D01*
X0000917494Y0003554648D01*
X0000921662Y0003558816D01*
X0000924937Y0003563716D01*
X0000927192Y0003569162D01*
X0000928342Y0003574942D01*
X0000928342Y0003580836D01*
X0000928323Y0003580933D01*
X0000967515Y0003580933D01*
X0000967515Y0003574845D01*
X0000968703Y0003568874D01*
X0000971033Y0003563250D01*
X0000974415Y0003558188D01*
X0000978720Y0003553883D01*
X0000983782Y0003550501D01*
X0000989406Y0003548171D01*
X0000995377Y0003546984D01*
X0001001465Y0003546984D01*
X0001007436Y0003548171D01*
X0001013060Y0003550501D01*
X0001018122Y0003553883D01*
X0001022427Y0003558188D01*
X0001025809Y0003563250D01*
X0001028139Y0003568874D01*
X0001029326Y0003574845D01*
X0001029326Y0003580933D01*
X0001029188Y0003581627D01*
X0001065547Y0003581627D01*
X0001065547Y0003575151D01*
X0001066810Y0003568800D01*
X0001069288Y0003562818D01*
X0001072886Y0003557433D01*
X0001077465Y0003552854D01*
X0001082849Y0003549257D01*
X0001088832Y0003546779D01*
X0001095183Y0003545515D01*
X0001101659Y0003545515D01*
X0001108010Y0003546779D01*
X0001113992Y0003549257D01*
X0001119377Y0003552854D01*
X0001123956Y0003557433D01*
X0001127553Y0003562818D01*
X0001130031Y0003568800D01*
X0001131295Y0003575151D01*
X0001131295Y0003581627D01*
X0001131057Y0003582821D01*
X0001163578Y0003582821D01*
X0001163578Y0003575958D01*
X0001164917Y0003569226D01*
X0001167544Y0003562885D01*
X0001171357Y0003557178D01*
X0001176210Y0003552325D01*
X0001181917Y0003548512D01*
X0001188258Y0003545886D01*
X0001194989Y0003544547D01*
X0001201852Y0003544547D01*
X0001208584Y0003545886D01*
X0001214925Y0003548512D01*
X0001220632Y0003552325D01*
X0001225485Y0003557178D01*
X0001229298Y0003562885D01*
X0001231924Y0003569226D01*
X0001233263Y0003575958D01*
X0001233263Y0003582000D01*
X0001255688Y0003582000D01*
X0001255688Y0003573779D01*
X0001257292Y0003565716D01*
X0001260438Y0003558122D01*
X0001265005Y0003551286D01*
X0001270818Y0003545474D01*
X0001277653Y0003540907D01*
X0001285248Y0003537761D01*
X0001293310Y0003536157D01*
X0001301531Y0003536157D01*
X0001309594Y0003537761D01*
X0001317188Y0003540907D01*
X0001324024Y0003545474D01*
X0001329836Y0003551286D01*
X0001334403Y0003558122D01*
X0001337549Y0003565716D01*
X0001339153Y0003573779D01*
X0001339153Y0003582000D01*
X0001339054Y0003582500D01*
X0001355688Y0003582500D01*
X0001355688Y0003574279D01*
X0001357292Y0003566216D01*
X0001360438Y0003558622D01*
X0001365005Y0003551786D01*
X0001370818Y0003545974D01*
X0001377653Y0003541407D01*
X0001385248Y0003538261D01*
X0001393310Y0003536657D01*
X0001401531Y0003536657D01*
X0001409594Y0003538261D01*
X0001417188Y0003541407D01*
X0001424024Y0003545974D01*
X0001429836Y0003551786D01*
X0001434403Y0003558622D01*
X0001437549Y0003566216D01*
X0001439153Y0003574279D01*
X0001439153Y0003582500D01*
X0001437549Y0003590562D01*
X0001434403Y0003598157D01*
X0001429836Y0003604992D01*
X0001424024Y0003610805D01*
X0001417188Y0003615372D01*
X0001409594Y0003618518D01*
X0001401531Y0003620122D01*
X0001393310Y0003620122D01*
X0001385248Y0003618518D01*
X0001377653Y0003615372D01*
X0001370818Y0003610805D01*
X0001365005Y0003604992D01*
X0001360438Y0003598157D01*
X0001357292Y0003590562D01*
X0001355688Y0003582500D01*
X0001339054Y0003582500D01*
X0001337549Y0003590062D01*
X0001334403Y0003597657D01*
X0001329836Y0003604492D01*
X0001324024Y0003610305D01*
X0001317188Y0003614872D01*
X0001309594Y0003618018D01*
X0001301531Y0003619622D01*
X0001293310Y0003619622D01*
X0001285248Y0003618018D01*
X0001277653Y0003614872D01*
X0001270818Y0003610305D01*
X0001265005Y0003604492D01*
X0001260438Y0003597657D01*
X0001257292Y0003590062D01*
X0001255688Y0003582000D01*
X0001233263Y0003582000D01*
X0001233263Y0003582821D01*
X0001231924Y0003589552D01*
X0001229298Y0003595893D01*
X0001225485Y0003601600D01*
X0001220632Y0003606453D01*
X0001214925Y0003610266D01*
X0001208584Y0003612893D01*
X0001201852Y0003614232D01*
X0001194989Y0003614232D01*
X0001188258Y0003612893D01*
X0001181917Y0003610266D01*
X0001176210Y0003606453D01*
X0001171357Y0003601600D01*
X0001167544Y0003595893D01*
X0001164917Y0003589552D01*
X0001163578Y0003582821D01*
X0001131057Y0003582821D01*
X0001130031Y0003587978D01*
X0001127553Y0003593961D01*
X0001123956Y0003599345D01*
X0001119377Y0003603924D01*
X0001113992Y0003607522D01*
X0001108010Y0003610000D01*
X0001101659Y0003611263D01*
X0001095183Y0003611263D01*
X0001088832Y0003610000D01*
X0001082849Y0003607522D01*
X0001077465Y0003603924D01*
X0001072886Y0003599345D01*
X0001069288Y0003593961D01*
X0001066810Y0003587978D01*
X0001065547Y0003581627D01*
X0001029188Y0003581627D01*
X0001028139Y0003586904D01*
X0001025809Y0003592529D01*
X0001022427Y0003597590D01*
X0001018122Y0003601895D01*
X0001013060Y0003605277D01*
X0001007436Y0003607607D01*
X0001001465Y0003608795D01*
X0000995377Y0003608795D01*
X0000989406Y0003607607D01*
X0000983782Y0003605277D01*
X0000978720Y0003601895D01*
X0000974415Y0003597590D01*
X0000971033Y0003592529D01*
X0000968703Y0003586904D01*
X0000967515Y0003580933D01*
X0000928323Y0003580933D01*
X0000927192Y0003586617D01*
X0000924937Y0003592062D01*
X0000921662Y0003596963D01*
X0000917494Y0003601131D01*
X0000912594Y0003604405D01*
X0000907148Y0003606661D01*
X0000901368Y0003607810D01*
X0000895474Y0003607810D01*
X0000889693Y0003606661D01*
X0000884248Y0003604405D01*
X0000879347Y0003601131D01*
X0000875179Y0003596963D01*
X0000871905Y0003592062D01*
X0000869649Y0003586617D01*
X0000868500Y0003580836D01*
X0000839153Y0003580836D01*
X0000839153Y0003582000D01*
X0000837549Y0003590062D01*
X0000834403Y0003597657D01*
X0000829836Y0003604492D01*
X0000824024Y0003610305D01*
X0000817188Y0003614872D01*
X0000809594Y0003618018D01*
X0000801531Y0003619622D01*
X0000793310Y0003619622D01*
X0000785248Y0003618018D01*
X0000777653Y0003614872D01*
X0000770818Y0003610305D01*
X0000765005Y0003604492D01*
X0000760438Y0003597657D01*
X0000757292Y0003590062D01*
X0000755688Y0003582000D01*
X0000739153Y0003582000D01*
X0000737549Y0003590062D01*
X0000734403Y0003597657D01*
X0000729836Y0003604492D01*
X0000724024Y0003610305D01*
X0000717188Y0003614872D01*
X0000709594Y0003618018D01*
X0000701531Y0003619622D01*
X0000693310Y0003619622D01*
X0000685248Y0003618018D01*
X0000677653Y0003614872D01*
X0000670818Y0003610305D01*
X0000665005Y0003604492D01*
X0000660438Y0003597657D01*
X0000657292Y0003590062D01*
X0000655688Y0003582000D01*
X0000567405Y0003582000D01*
X0000567405Y0003681583D01*
X0000704921Y0003681583D01*
X0000704921Y0003674196D01*
X0000706362Y0003666951D01*
X0000709189Y0003660126D01*
X0000713293Y0003653984D01*
X0000718516Y0003648761D01*
X0000724658Y0003644657D01*
X0000731482Y0003641830D01*
X0000738727Y0003640389D01*
X0000746114Y0003640389D01*
X0000753359Y0003641830D01*
X0000760184Y0003644657D01*
X0000766326Y0003648761D01*
X0000771549Y0003653984D01*
X0000775653Y0003660126D01*
X0000778480Y0003666951D01*
X0000779921Y0003674196D01*
X0000779921Y0003681583D01*
X0000904921Y0003681583D01*
X0000904921Y0003674196D01*
X0000906362Y0003666951D01*
X0000909189Y0003660126D01*
X0000913293Y0003653984D01*
X0000918516Y0003648761D01*
X0000924658Y0003644657D01*
X0000931482Y0003641830D01*
X0000938727Y0003640389D01*
X0000946114Y0003640389D01*
X0000953359Y0003641830D01*
X0000960184Y0003644657D01*
X0000966326Y0003648761D01*
X0000971549Y0003653984D01*
X0000975653Y0003660126D01*
X0000978480Y0003666951D01*
X0000979921Y0003674196D01*
X0000979921Y0003681583D01*
X0001104921Y0003681583D01*
X0001104921Y0003674196D01*
X0001106362Y0003666951D01*
X0001109189Y0003660126D01*
X0001113293Y0003653984D01*
X0001118516Y0003648761D01*
X0001124658Y0003644657D01*
X0001131482Y0003641830D01*
X0001138727Y0003640389D01*
X0001146114Y0003640389D01*
X0001153359Y0003641830D01*
X0001160184Y0003644657D01*
X0001166326Y0003648761D01*
X0001171549Y0003653984D01*
X0001175653Y0003660126D01*
X0001178480Y0003666951D01*
X0001179921Y0003674196D01*
X0001179921Y0003681583D01*
X0001304921Y0003681583D01*
X0001304921Y0003674196D01*
X0001306362Y0003666951D01*
X0001309189Y0003660126D01*
X0001313293Y0003653984D01*
X0001318516Y0003648761D01*
X0001324658Y0003644657D01*
X0001331482Y0003641830D01*
X0001338727Y0003640389D01*
X0001346114Y0003640389D01*
X0001353359Y0003641830D01*
X0001360184Y0003644657D01*
X0001366326Y0003648761D01*
X0001371549Y0003653984D01*
X0001375653Y0003660126D01*
X0001378480Y0003666951D01*
X0001379921Y0003674196D01*
X0001379921Y0003681583D01*
X0001378480Y0003688828D01*
X0001375653Y0003695652D01*
X0001371549Y0003701794D01*
X0001366326Y0003707017D01*
X0001360184Y0003711121D01*
X0001353359Y0003713948D01*
X0001346114Y0003715389D01*
X0001338727Y0003715389D01*
X0001331482Y0003713948D01*
X0001324658Y0003711121D01*
X0001318516Y0003707017D01*
X0001313293Y0003701794D01*
X0001309189Y0003695652D01*
X0001306362Y0003688828D01*
X0001304921Y0003681583D01*
X0001179921Y0003681583D01*
X0001178480Y0003688828D01*
X0001175653Y0003695652D01*
X0001171549Y0003701794D01*
X0001166326Y0003707017D01*
X0001160184Y0003711121D01*
X0001153359Y0003713948D01*
X0001146114Y0003715389D01*
X0001138727Y0003715389D01*
X0001131482Y0003713948D01*
X0001124658Y0003711121D01*
X0001118516Y0003707017D01*
X0001113293Y0003701794D01*
X0001109189Y0003695652D01*
X0001106362Y0003688828D01*
X0001104921Y0003681583D01*
X0000979921Y0003681583D01*
X0000978480Y0003688828D01*
X0000975653Y0003695652D01*
X0000971549Y0003701794D01*
X0000966326Y0003707017D01*
X0000960184Y0003711121D01*
X0000953359Y0003713948D01*
X0000946114Y0003715389D01*
X0000938727Y0003715389D01*
X0000931482Y0003713948D01*
X0000924658Y0003711121D01*
X0000918516Y0003707017D01*
X0000913293Y0003701794D01*
X0000909189Y0003695652D01*
X0000906362Y0003688828D01*
X0000904921Y0003681583D01*
X0000779921Y0003681583D01*
X0000778480Y0003688828D01*
X0000775653Y0003695652D01*
X0000771549Y0003701794D01*
X0000766326Y0003707017D01*
X0000760184Y0003711121D01*
X0000753359Y0003713948D01*
X0000746114Y0003715389D01*
X0000738727Y0003715389D01*
X0000731482Y0003713948D01*
X0000724658Y0003711121D01*
X0000718516Y0003707017D01*
X0000713293Y0003701794D01*
X0000709189Y0003695652D01*
X0000706362Y0003688828D01*
X0000704921Y0003681583D01*
X0000567405Y0003681583D01*
X0000567405Y0003741495D01*
X0001523220Y0003741495D01*
X0001523220Y0003417874D01*
G37*
G04 #@! TD.AperFunction*
G04 next file*
G04 #@! TF.GenerationSoftware,KiCad,Pcbnew,(5.1.12)-1*
G04 #@! TF.CreationDate,2022-03-29T21:33:58+08:00*
G04 #@! TF.ProjectId,Nozzle,4e6f7a7a-6c65-42e6-9b69-6361645f7063,Gen3.1b*
G04 #@! TF.SameCoordinates,Original*
G04 #@! TF.FileFunction,Copper,L2,Bot*
G04 #@! TF.FilePolarity,Positive*
G04 Gerber Fmt 4.6, Leading zero omitted, Abs format (unit mm)*
G04 Created by KiCad (PCBNEW (5.1.12)-1) date 2022-03-29 21:33:58*
G01*
G04 APERTURE LIST*
G04 #@! TA.AperFunction,ComponentPad*
G04 #@! TD*
G04 #@! TA.AperFunction,NonConductor*
G04 #@! TD*
G04 #@! TA.AperFunction,NonConductor*
G04 #@! TD*
G04 APERTURE END LIST*
D26*
X-0003273795Y0004403387D02*
X0002493704Y0003099887D03*
X0001893704Y0003099387D03*
X0002393704Y0003099387D03*
X0001793704Y0003099387D03*
D27*
X0002619503Y0002939371D02*
X0001663688Y0002939371D01*
X0001663688Y0003003080D01*
X0001701204Y0003003080D01*
X0001701204Y0002995693D01*
X0001702645Y0002988448D01*
X0001705472Y0002981624D01*
X0001709576Y0002975482D01*
X0001714799Y0002970259D01*
X0001720941Y0002966155D01*
X0001727765Y0002963328D01*
X0001735010Y0002961887D01*
X0001742397Y0002961887D01*
X0001749642Y0002963328D01*
X0001756467Y0002966155D01*
X0001762609Y0002970259D01*
X0001767832Y0002975482D01*
X0001771936Y0002981624D01*
X0001774763Y0002988448D01*
X0001776204Y0002995693D01*
X0001776204Y0003003080D01*
X0001901204Y0003003080D01*
X0001901204Y0002995693D01*
X0001902645Y0002988448D01*
X0001905472Y0002981624D01*
X0001909576Y0002975482D01*
X0001914799Y0002970259D01*
X0001920941Y0002966155D01*
X0001927765Y0002963328D01*
X0001935010Y0002961887D01*
X0001942397Y0002961887D01*
X0001949642Y0002963328D01*
X0001956467Y0002966155D01*
X0001962609Y0002970259D01*
X0001967832Y0002975482D01*
X0001971936Y0002981624D01*
X0001974763Y0002988448D01*
X0001976204Y0002995693D01*
X0001976204Y0003003080D01*
X0002101204Y0003003080D01*
X0002101204Y0002995693D01*
X0002102645Y0002988448D01*
X0002105472Y0002981624D01*
X0002109576Y0002975482D01*
X0002114799Y0002970259D01*
X0002120941Y0002966155D01*
X0002127765Y0002963328D01*
X0002135010Y0002961887D01*
X0002142397Y0002961887D01*
X0002149642Y0002963328D01*
X0002156467Y0002966155D01*
X0002162609Y0002970259D01*
X0002167832Y0002975482D01*
X0002171936Y0002981624D01*
X0002174763Y0002988448D01*
X0002176204Y0002995693D01*
X0002176204Y0003003080D01*
X0002176104Y0003003580D01*
X0002301204Y0003003580D01*
X0002301204Y0002996193D01*
X0002302645Y0002988948D01*
X0002305472Y0002982124D01*
X0002309576Y0002975982D01*
X0002314799Y0002970759D01*
X0002320941Y0002966655D01*
X0002327765Y0002963828D01*
X0002335010Y0002962387D01*
X0002342397Y0002962387D01*
X0002349642Y0002963828D01*
X0002356467Y0002966655D01*
X0002362609Y0002970759D01*
X0002367832Y0002975982D01*
X0002371936Y0002982124D01*
X0002374763Y0002988948D01*
X0002376204Y0002996193D01*
X0002376204Y0003003580D01*
X0002501204Y0003003580D01*
X0002501204Y0002996193D01*
X0002502645Y0002988948D01*
X0002505472Y0002982124D01*
X0002509576Y0002975982D01*
X0002514799Y0002970759D01*
X0002520941Y0002966655D01*
X0002527765Y0002963828D01*
X0002535010Y0002962387D01*
X0002542397Y0002962387D01*
X0002549642Y0002963828D01*
X0002556467Y0002966655D01*
X0002562609Y0002970759D01*
X0002567832Y0002975982D01*
X0002571936Y0002982124D01*
X0002574763Y0002988948D01*
X0002576204Y0002996193D01*
X0002576204Y0003003580D01*
X0002574763Y0003010825D01*
X0002571936Y0003017650D01*
X0002567832Y0003023792D01*
X0002562609Y0003029015D01*
X0002556467Y0003033119D01*
X0002549642Y0003035946D01*
X0002542397Y0003037387D01*
X0002535010Y0003037387D01*
X0002527765Y0003035946D01*
X0002520941Y0003033119D01*
X0002514799Y0003029015D01*
X0002509576Y0003023792D01*
X0002505472Y0003017650D01*
X0002502645Y0003010825D01*
X0002501204Y0003003580D01*
X0002376204Y0003003580D01*
X0002374763Y0003010825D01*
X0002371936Y0003017650D01*
X0002367832Y0003023792D01*
X0002362609Y0003029015D01*
X0002356467Y0003033119D01*
X0002349642Y0003035946D01*
X0002342397Y0003037387D01*
X0002335010Y0003037387D01*
X0002327765Y0003035946D01*
X0002320941Y0003033119D01*
X0002314799Y0003029015D01*
X0002309576Y0003023792D01*
X0002305472Y0003017650D01*
X0002302645Y0003010825D01*
X0002301204Y0003003580D01*
X0002176104Y0003003580D01*
X0002174763Y0003010325D01*
X0002171936Y0003017150D01*
X0002167832Y0003023292D01*
X0002162609Y0003028515D01*
X0002156467Y0003032619D01*
X0002149642Y0003035446D01*
X0002142397Y0003036887D01*
X0002135010Y0003036887D01*
X0002127765Y0003035446D01*
X0002120941Y0003032619D01*
X0002114799Y0003028515D01*
X0002109576Y0003023292D01*
X0002105472Y0003017150D01*
X0002102645Y0003010325D01*
X0002101204Y0003003080D01*
X0001976204Y0003003080D01*
X0001974763Y0003010325D01*
X0001971936Y0003017150D01*
X0001967832Y0003023292D01*
X0001962609Y0003028515D01*
X0001956467Y0003032619D01*
X0001949642Y0003035446D01*
X0001942397Y0003036887D01*
X0001935010Y0003036887D01*
X0001927765Y0003035446D01*
X0001920941Y0003032619D01*
X0001914799Y0003028515D01*
X0001909576Y0003023292D01*
X0001905472Y0003017150D01*
X0001902645Y0003010325D01*
X0001901204Y0003003080D01*
X0001776204Y0003003080D01*
X0001774763Y0003010325D01*
X0001771936Y0003017150D01*
X0001767832Y0003023292D01*
X0001762609Y0003028515D01*
X0001756467Y0003032619D01*
X0001749642Y0003035446D01*
X0001742397Y0003036887D01*
X0001735010Y0003036887D01*
X0001727765Y0003035446D01*
X0001720941Y0003032619D01*
X0001714799Y0003028515D01*
X0001709576Y0003023292D01*
X0001705472Y0003017150D01*
X0001702645Y0003010325D01*
X0001701204Y0003003080D01*
X0001663688Y0003003080D01*
X0001663688Y0003103497D01*
X0001751971Y0003103497D01*
X0001751971Y0003095277D01*
X0001753575Y0003087214D01*
X0001756721Y0003079619D01*
X0001761288Y0003072784D01*
X0001767101Y0003066971D01*
X0001773936Y0003062404D01*
X0001781531Y0003059258D01*
X0001789593Y0003057655D01*
X0001797814Y0003057655D01*
X0001805877Y0003059258D01*
X0001813471Y0003062404D01*
X0001820307Y0003066971D01*
X0001826119Y0003072784D01*
X0001830686Y0003079619D01*
X0001833832Y0003087214D01*
X0001835436Y0003095277D01*
X0001835436Y0003103497D01*
X0001851971Y0003103497D01*
X0001851971Y0003095277D01*
X0001853575Y0003087214D01*
X0001856721Y0003079619D01*
X0001861288Y0003072784D01*
X0001867101Y0003066971D01*
X0001873936Y0003062404D01*
X0001881531Y0003059258D01*
X0001889593Y0003057655D01*
X0001897814Y0003057655D01*
X0001905877Y0003059258D01*
X0001913471Y0003062404D01*
X0001920307Y0003066971D01*
X0001926119Y0003072784D01*
X0001930686Y0003079619D01*
X0001933832Y0003087214D01*
X0001935436Y0003095277D01*
X0001935436Y0003102334D01*
X0001964782Y0003102334D01*
X0001964782Y0003096440D01*
X0001965932Y0003090659D01*
X0001968188Y0003085214D01*
X0001971462Y0003080313D01*
X0001975630Y0003076145D01*
X0001980531Y0003072871D01*
X0001985976Y0003070615D01*
X0001991757Y0003069466D01*
X0001997651Y0003069466D01*
X0002003431Y0003070615D01*
X0002008877Y0003072871D01*
X0002013777Y0003076145D01*
X0002017945Y0003080313D01*
X0002021220Y0003085214D01*
X0002023475Y0003090659D01*
X0002024625Y0003096440D01*
X0002024625Y0003102334D01*
X0002024606Y0003102431D01*
X0002063798Y0003102431D01*
X0002063798Y0003096343D01*
X0002064986Y0003090372D01*
X0002067316Y0003084748D01*
X0002070698Y0003079686D01*
X0002075003Y0003075381D01*
X0002080065Y0003071999D01*
X0002085689Y0003069669D01*
X0002091660Y0003068481D01*
X0002097748Y0003068481D01*
X0002103719Y0003069669D01*
X0002109343Y0003071999D01*
X0002114405Y0003075381D01*
X0002118710Y0003079686D01*
X0002122092Y0003084748D01*
X0002124422Y0003090372D01*
X0002125609Y0003096343D01*
X0002125609Y0003102431D01*
X0002125471Y0003103125D01*
X0002161830Y0003103125D01*
X0002161830Y0003096649D01*
X0002163093Y0003090298D01*
X0002165571Y0003084315D01*
X0002169169Y0003078931D01*
X0002173748Y0003074352D01*
X0002179132Y0003070754D01*
X0002185115Y0003068276D01*
X0002191466Y0003067013D01*
X0002197942Y0003067013D01*
X0002204293Y0003068276D01*
X0002210275Y0003070754D01*
X0002215660Y0003074352D01*
X0002220239Y0003078931D01*
X0002223836Y0003084315D01*
X0002226314Y0003090298D01*
X0002227578Y0003096649D01*
X0002227578Y0003103125D01*
X0002227340Y0003104319D01*
X0002259861Y0003104319D01*
X0002259861Y0003097455D01*
X0002261200Y0003090724D01*
X0002263827Y0003084383D01*
X0002267640Y0003078676D01*
X0002272493Y0003073823D01*
X0002278200Y0003070010D01*
X0002284541Y0003067383D01*
X0002291272Y0003066044D01*
X0002298135Y0003066044D01*
X0002304867Y0003067383D01*
X0002311208Y0003070010D01*
X0002316915Y0003073823D01*
X0002321768Y0003078676D01*
X0002325581Y0003084383D01*
X0002328207Y0003090724D01*
X0002329546Y0003097455D01*
X0002329546Y0003103497D01*
X0002351971Y0003103497D01*
X0002351971Y0003095277D01*
X0002353575Y0003087214D01*
X0002356721Y0003079619D01*
X0002361288Y0003072784D01*
X0002367101Y0003066971D01*
X0002373936Y0003062404D01*
X0002381531Y0003059258D01*
X0002389593Y0003057655D01*
X0002397814Y0003057655D01*
X0002405877Y0003059258D01*
X0002413471Y0003062404D01*
X0002420307Y0003066971D01*
X0002426119Y0003072784D01*
X0002430686Y0003079619D01*
X0002433832Y0003087214D01*
X0002435436Y0003095277D01*
X0002435436Y0003103497D01*
X0002435337Y0003103997D01*
X0002451971Y0003103997D01*
X0002451971Y0003095777D01*
X0002453575Y0003087714D01*
X0002456721Y0003080119D01*
X0002461288Y0003073284D01*
X0002467101Y0003067471D01*
X0002473936Y0003062904D01*
X0002481531Y0003059758D01*
X0002489593Y0003058155D01*
X0002497814Y0003058155D01*
X0002505877Y0003059758D01*
X0002513471Y0003062904D01*
X0002520307Y0003067471D01*
X0002526119Y0003073284D01*
X0002530686Y0003080119D01*
X0002533832Y0003087714D01*
X0002535436Y0003095777D01*
X0002535436Y0003103997D01*
X0002533832Y0003112060D01*
X0002530686Y0003119654D01*
X0002526119Y0003126490D01*
X0002520307Y0003132302D01*
X0002513471Y0003136870D01*
X0002505877Y0003140015D01*
X0002497814Y0003141619D01*
X0002489593Y0003141619D01*
X0002481531Y0003140015D01*
X0002473936Y0003136870D01*
X0002467101Y0003132302D01*
X0002461288Y0003126490D01*
X0002456721Y0003119654D01*
X0002453575Y0003112060D01*
X0002451971Y0003103997D01*
X0002435337Y0003103997D01*
X0002433832Y0003111560D01*
X0002430686Y0003119154D01*
X0002426119Y0003125990D01*
X0002420307Y0003131802D01*
X0002413471Y0003136370D01*
X0002405877Y0003139515D01*
X0002397814Y0003141119D01*
X0002389593Y0003141119D01*
X0002381531Y0003139515D01*
X0002373936Y0003136370D01*
X0002367101Y0003131802D01*
X0002361288Y0003125990D01*
X0002356721Y0003119154D01*
X0002353575Y0003111560D01*
X0002351971Y0003103497D01*
X0002329546Y0003103497D01*
X0002329546Y0003104319D01*
X0002328207Y0003111050D01*
X0002325581Y0003117391D01*
X0002321768Y0003123098D01*
X0002316915Y0003127951D01*
X0002311208Y0003131764D01*
X0002304867Y0003134390D01*
X0002298135Y0003135729D01*
X0002291272Y0003135729D01*
X0002284541Y0003134390D01*
X0002278200Y0003131764D01*
X0002272493Y0003127951D01*
X0002267640Y0003123098D01*
X0002263827Y0003117391D01*
X0002261200Y0003111050D01*
X0002259861Y0003104319D01*
X0002227340Y0003104319D01*
X0002226314Y0003109476D01*
X0002223836Y0003115459D01*
X0002220239Y0003120843D01*
X0002215660Y0003125422D01*
X0002210275Y0003129019D01*
X0002204293Y0003131497D01*
X0002197942Y0003132761D01*
X0002191466Y0003132761D01*
X0002185115Y0003131497D01*
X0002179132Y0003129019D01*
X0002173748Y0003125422D01*
X0002169169Y0003120843D01*
X0002165571Y0003115459D01*
X0002163093Y0003109476D01*
X0002161830Y0003103125D01*
X0002125471Y0003103125D01*
X0002124422Y0003108402D01*
X0002122092Y0003114026D01*
X0002118710Y0003119088D01*
X0002114405Y0003123393D01*
X0002109343Y0003126775D01*
X0002103719Y0003129105D01*
X0002097748Y0003130292D01*
X0002091660Y0003130292D01*
X0002085689Y0003129105D01*
X0002080065Y0003126775D01*
X0002075003Y0003123393D01*
X0002070698Y0003119088D01*
X0002067316Y0003114026D01*
X0002064986Y0003108402D01*
X0002063798Y0003102431D01*
X0002024606Y0003102431D01*
X0002023475Y0003108115D01*
X0002021220Y0003113560D01*
X0002017945Y0003118461D01*
X0002013777Y0003122628D01*
X0002008877Y0003125903D01*
X0002003431Y0003128158D01*
X0001997651Y0003129308D01*
X0001991757Y0003129308D01*
X0001985976Y0003128158D01*
X0001980531Y0003125903D01*
X0001975630Y0003122628D01*
X0001971462Y0003118461D01*
X0001968188Y0003113560D01*
X0001965932Y0003108115D01*
X0001964782Y0003102334D01*
X0001935436Y0003102334D01*
X0001935436Y0003103497D01*
X0001933832Y0003111560D01*
X0001930686Y0003119154D01*
X0001926119Y0003125990D01*
X0001920307Y0003131802D01*
X0001913471Y0003136370D01*
X0001905877Y0003139515D01*
X0001897814Y0003141119D01*
X0001889593Y0003141119D01*
X0001881531Y0003139515D01*
X0001873936Y0003136370D01*
X0001867101Y0003131802D01*
X0001861288Y0003125990D01*
X0001856721Y0003119154D01*
X0001853575Y0003111560D01*
X0001851971Y0003103497D01*
X0001835436Y0003103497D01*
X0001833832Y0003111560D01*
X0001830686Y0003119154D01*
X0001826119Y0003125990D01*
X0001820307Y0003131802D01*
X0001813471Y0003136370D01*
X0001805877Y0003139515D01*
X0001797814Y0003141119D01*
X0001789593Y0003141119D01*
X0001781531Y0003139515D01*
X0001773936Y0003136370D01*
X0001767101Y0003131802D01*
X0001761288Y0003125990D01*
X0001756721Y0003119154D01*
X0001753575Y0003111560D01*
X0001751971Y0003103497D01*
X0001663688Y0003103497D01*
X0001663688Y0003203080D01*
X0001801204Y0003203080D01*
X0001801204Y0003195693D01*
X0001802645Y0003188448D01*
X0001805472Y0003181624D01*
X0001809576Y0003175482D01*
X0001814799Y0003170259D01*
X0001820941Y0003166155D01*
X0001827765Y0003163328D01*
X0001835010Y0003161887D01*
X0001842397Y0003161887D01*
X0001849642Y0003163328D01*
X0001856467Y0003166155D01*
X0001862609Y0003170259D01*
X0001867832Y0003175482D01*
X0001871936Y0003181624D01*
X0001874763Y0003188448D01*
X0001876204Y0003195693D01*
X0001876204Y0003203080D01*
X0002001204Y0003203080D01*
X0002001204Y0003195693D01*
X0002002645Y0003188448D01*
X0002005472Y0003181624D01*
X0002009576Y0003175482D01*
X0002014799Y0003170259D01*
X0002020941Y0003166155D01*
X0002027765Y0003163328D01*
X0002035010Y0003161887D01*
X0002042397Y0003161887D01*
X0002049642Y0003163328D01*
X0002056467Y0003166155D01*
X0002062609Y0003170259D01*
X0002067832Y0003175482D01*
X0002071936Y0003181624D01*
X0002074763Y0003188448D01*
X0002076204Y0003195693D01*
X0002076204Y0003203080D01*
X0002201204Y0003203080D01*
X0002201204Y0003195693D01*
X0002202645Y0003188448D01*
X0002205472Y0003181624D01*
X0002209576Y0003175482D01*
X0002214799Y0003170259D01*
X0002220941Y0003166155D01*
X0002227765Y0003163328D01*
X0002235010Y0003161887D01*
X0002242397Y0003161887D01*
X0002249642Y0003163328D01*
X0002256467Y0003166155D01*
X0002262609Y0003170259D01*
X0002267832Y0003175482D01*
X0002271936Y0003181624D01*
X0002274763Y0003188448D01*
X0002276204Y0003195693D01*
X0002276204Y0003203080D01*
X0002401204Y0003203080D01*
X0002401204Y0003195693D01*
X0002402645Y0003188448D01*
X0002405472Y0003181624D01*
X0002409576Y0003175482D01*
X0002414799Y0003170259D01*
X0002420941Y0003166155D01*
X0002427765Y0003163328D01*
X0002435010Y0003161887D01*
X0002442397Y0003161887D01*
X0002449642Y0003163328D01*
X0002456467Y0003166155D01*
X0002462609Y0003170259D01*
X0002467832Y0003175482D01*
X0002471936Y0003181624D01*
X0002474763Y0003188448D01*
X0002476204Y0003195693D01*
X0002476204Y0003203080D01*
X0002474763Y0003210325D01*
X0002471936Y0003217150D01*
X0002467832Y0003223292D01*
X0002462609Y0003228515D01*
X0002456467Y0003232619D01*
X0002449642Y0003235446D01*
X0002442397Y0003236887D01*
X0002435010Y0003236887D01*
X0002427765Y0003235446D01*
X0002420941Y0003232619D01*
X0002414799Y0003228515D01*
X0002409576Y0003223292D01*
X0002405472Y0003217150D01*
X0002402645Y0003210325D01*
X0002401204Y0003203080D01*
X0002276204Y0003203080D01*
X0002274763Y0003210325D01*
X0002271936Y0003217150D01*
X0002267832Y0003223292D01*
X0002262609Y0003228515D01*
X0002256467Y0003232619D01*
X0002249642Y0003235446D01*
X0002242397Y0003236887D01*
X0002235010Y0003236887D01*
X0002227765Y0003235446D01*
X0002220941Y0003232619D01*
X0002214799Y0003228515D01*
X0002209576Y0003223292D01*
X0002205472Y0003217150D01*
X0002202645Y0003210325D01*
X0002201204Y0003203080D01*
X0002076204Y0003203080D01*
X0002074763Y0003210325D01*
X0002071936Y0003217150D01*
X0002067832Y0003223292D01*
X0002062609Y0003228515D01*
X0002056467Y0003232619D01*
X0002049642Y0003235446D01*
X0002042397Y0003236887D01*
X0002035010Y0003236887D01*
X0002027765Y0003235446D01*
X0002020941Y0003232619D01*
X0002014799Y0003228515D01*
X0002009576Y0003223292D01*
X0002005472Y0003217150D01*
X0002002645Y0003210325D01*
X0002001204Y0003203080D01*
X0001876204Y0003203080D01*
X0001874763Y0003210325D01*
X0001871936Y0003217150D01*
X0001867832Y0003223292D01*
X0001862609Y0003228515D01*
X0001856467Y0003232619D01*
X0001849642Y0003235446D01*
X0001842397Y0003236887D01*
X0001835010Y0003236887D01*
X0001827765Y0003235446D01*
X0001820941Y0003232619D01*
X0001814799Y0003228515D01*
X0001809576Y0003223292D01*
X0001805472Y0003217150D01*
X0001802645Y0003210325D01*
X0001801204Y0003203080D01*
X0001663688Y0003203080D01*
X0001663688Y0003262993D01*
X0002619503Y0003262993D01*
X0002619503Y0002939371D01*
G04 #@! TA.AperFunction,NonConductor*
D28*
G36*
X0002619503Y0002939371D02*
G01*
X0001663688Y0002939371D01*
X0001663688Y0003003080D01*
X0001701204Y0003003080D01*
X0001701204Y0002995693D01*
X0001702645Y0002988448D01*
X0001705472Y0002981624D01*
X0001709576Y0002975482D01*
X0001714799Y0002970259D01*
X0001720941Y0002966155D01*
X0001727765Y0002963328D01*
X0001735010Y0002961887D01*
X0001742397Y0002961887D01*
X0001749642Y0002963328D01*
X0001756467Y0002966155D01*
X0001762609Y0002970259D01*
X0001767832Y0002975482D01*
X0001771936Y0002981624D01*
X0001774763Y0002988448D01*
X0001776204Y0002995693D01*
X0001776204Y0003003080D01*
X0001901204Y0003003080D01*
X0001901204Y0002995693D01*
X0001902645Y0002988448D01*
X0001905472Y0002981624D01*
X0001909576Y0002975482D01*
X0001914799Y0002970259D01*
X0001920941Y0002966155D01*
X0001927765Y0002963328D01*
X0001935010Y0002961887D01*
X0001942397Y0002961887D01*
X0001949642Y0002963328D01*
X0001956467Y0002966155D01*
X0001962609Y0002970259D01*
X0001967832Y0002975482D01*
X0001971936Y0002981624D01*
X0001974763Y0002988448D01*
X0001976204Y0002995693D01*
X0001976204Y0003003080D01*
X0002101204Y0003003080D01*
X0002101204Y0002995693D01*
X0002102645Y0002988448D01*
X0002105472Y0002981624D01*
X0002109576Y0002975482D01*
X0002114799Y0002970259D01*
X0002120941Y0002966155D01*
X0002127765Y0002963328D01*
X0002135010Y0002961887D01*
X0002142397Y0002961887D01*
X0002149642Y0002963328D01*
X0002156467Y0002966155D01*
X0002162609Y0002970259D01*
X0002167832Y0002975482D01*
X0002171936Y0002981624D01*
X0002174763Y0002988448D01*
X0002176204Y0002995693D01*
X0002176204Y0003003080D01*
X0002176104Y0003003580D01*
X0002301204Y0003003580D01*
X0002301204Y0002996193D01*
X0002302645Y0002988948D01*
X0002305472Y0002982124D01*
X0002309576Y0002975982D01*
X0002314799Y0002970759D01*
X0002320941Y0002966655D01*
X0002327765Y0002963828D01*
X0002335010Y0002962387D01*
X0002342397Y0002962387D01*
X0002349642Y0002963828D01*
X0002356467Y0002966655D01*
X0002362609Y0002970759D01*
X0002367832Y0002975982D01*
X0002371936Y0002982124D01*
X0002374763Y0002988948D01*
X0002376204Y0002996193D01*
X0002376204Y0003003580D01*
X0002501204Y0003003580D01*
X0002501204Y0002996193D01*
X0002502645Y0002988948D01*
X0002505472Y0002982124D01*
X0002509576Y0002975982D01*
X0002514799Y0002970759D01*
X0002520941Y0002966655D01*
X0002527765Y0002963828D01*
X0002535010Y0002962387D01*
X0002542397Y0002962387D01*
X0002549642Y0002963828D01*
X0002556467Y0002966655D01*
X0002562609Y0002970759D01*
X0002567832Y0002975982D01*
X0002571936Y0002982124D01*
X0002574763Y0002988948D01*
X0002576204Y0002996193D01*
X0002576204Y0003003580D01*
X0002574763Y0003010825D01*
X0002571936Y0003017650D01*
X0002567832Y0003023792D01*
X0002562609Y0003029015D01*
X0002556467Y0003033119D01*
X0002549642Y0003035946D01*
X0002542397Y0003037387D01*
X0002535010Y0003037387D01*
X0002527765Y0003035946D01*
X0002520941Y0003033119D01*
X0002514799Y0003029015D01*
X0002509576Y0003023792D01*
X0002505472Y0003017650D01*
X0002502645Y0003010825D01*
X0002501204Y0003003580D01*
X0002376204Y0003003580D01*
X0002374763Y0003010825D01*
X0002371936Y0003017650D01*
X0002367832Y0003023792D01*
X0002362609Y0003029015D01*
X0002356467Y0003033119D01*
X0002349642Y0003035946D01*
X0002342397Y0003037387D01*
X0002335010Y0003037387D01*
X0002327765Y0003035946D01*
X0002320941Y0003033119D01*
X0002314799Y0003029015D01*
X0002309576Y0003023792D01*
X0002305472Y0003017650D01*
X0002302645Y0003010825D01*
X0002301204Y0003003580D01*
X0002176104Y0003003580D01*
X0002174763Y0003010325D01*
X0002171936Y0003017150D01*
X0002167832Y0003023292D01*
X0002162609Y0003028515D01*
X0002156467Y0003032619D01*
X0002149642Y0003035446D01*
X0002142397Y0003036887D01*
X0002135010Y0003036887D01*
X0002127765Y0003035446D01*
X0002120941Y0003032619D01*
X0002114799Y0003028515D01*
X0002109576Y0003023292D01*
X0002105472Y0003017150D01*
X0002102645Y0003010325D01*
X0002101204Y0003003080D01*
X0001976204Y0003003080D01*
X0001974763Y0003010325D01*
X0001971936Y0003017150D01*
X0001967832Y0003023292D01*
X0001962609Y0003028515D01*
X0001956467Y0003032619D01*
X0001949642Y0003035446D01*
X0001942397Y0003036887D01*
X0001935010Y0003036887D01*
X0001927765Y0003035446D01*
X0001920941Y0003032619D01*
X0001914799Y0003028515D01*
X0001909576Y0003023292D01*
X0001905472Y0003017150D01*
X0001902645Y0003010325D01*
X0001901204Y0003003080D01*
X0001776204Y0003003080D01*
X0001774763Y0003010325D01*
X0001771936Y0003017150D01*
X0001767832Y0003023292D01*
X0001762609Y0003028515D01*
X0001756467Y0003032619D01*
X0001749642Y0003035446D01*
X0001742397Y0003036887D01*
X0001735010Y0003036887D01*
X0001727765Y0003035446D01*
X0001720941Y0003032619D01*
X0001714799Y0003028515D01*
X0001709576Y0003023292D01*
X0001705472Y0003017150D01*
X0001702645Y0003010325D01*
X0001701204Y0003003080D01*
X0001663688Y0003003080D01*
X0001663688Y0003103497D01*
X0001751971Y0003103497D01*
X0001751971Y0003095277D01*
X0001753575Y0003087214D01*
X0001756721Y0003079619D01*
X0001761288Y0003072784D01*
X0001767101Y0003066971D01*
X0001773936Y0003062404D01*
X0001781531Y0003059258D01*
X0001789593Y0003057655D01*
X0001797814Y0003057655D01*
X0001805877Y0003059258D01*
X0001813471Y0003062404D01*
X0001820307Y0003066971D01*
X0001826119Y0003072784D01*
X0001830686Y0003079619D01*
X0001833832Y0003087214D01*
X0001835436Y0003095277D01*
X0001835436Y0003103497D01*
X0001851971Y0003103497D01*
X0001851971Y0003095277D01*
X0001853575Y0003087214D01*
X0001856721Y0003079619D01*
X0001861288Y0003072784D01*
X0001867101Y0003066971D01*
X0001873936Y0003062404D01*
X0001881531Y0003059258D01*
X0001889593Y0003057655D01*
X0001897814Y0003057655D01*
X0001905877Y0003059258D01*
X0001913471Y0003062404D01*
X0001920307Y0003066971D01*
X0001926119Y0003072784D01*
X0001930686Y0003079619D01*
X0001933832Y0003087214D01*
X0001935436Y0003095277D01*
X0001935436Y0003102334D01*
X0001964782Y0003102334D01*
X0001964782Y0003096440D01*
X0001965932Y0003090659D01*
X0001968188Y0003085214D01*
X0001971462Y0003080313D01*
X0001975630Y0003076145D01*
X0001980531Y0003072871D01*
X0001985976Y0003070615D01*
X0001991757Y0003069466D01*
X0001997651Y0003069466D01*
X0002003431Y0003070615D01*
X0002008877Y0003072871D01*
X0002013777Y0003076145D01*
X0002017945Y0003080313D01*
X0002021220Y0003085214D01*
X0002023475Y0003090659D01*
X0002024625Y0003096440D01*
X0002024625Y0003102334D01*
X0002024606Y0003102431D01*
X0002063798Y0003102431D01*
X0002063798Y0003096343D01*
X0002064986Y0003090372D01*
X0002067316Y0003084748D01*
X0002070698Y0003079686D01*
X0002075003Y0003075381D01*
X0002080065Y0003071999D01*
X0002085689Y0003069669D01*
X0002091660Y0003068481D01*
X0002097748Y0003068481D01*
X0002103719Y0003069669D01*
X0002109343Y0003071999D01*
X0002114405Y0003075381D01*
X0002118710Y0003079686D01*
X0002122092Y0003084748D01*
X0002124422Y0003090372D01*
X0002125609Y0003096343D01*
X0002125609Y0003102431D01*
X0002125471Y0003103125D01*
X0002161830Y0003103125D01*
X0002161830Y0003096649D01*
X0002163093Y0003090298D01*
X0002165571Y0003084315D01*
X0002169169Y0003078931D01*
X0002173748Y0003074352D01*
X0002179132Y0003070754D01*
X0002185115Y0003068276D01*
X0002191466Y0003067013D01*
X0002197942Y0003067013D01*
X0002204293Y0003068276D01*
X0002210275Y0003070754D01*
X0002215660Y0003074352D01*
X0002220239Y0003078931D01*
X0002223836Y0003084315D01*
X0002226314Y0003090298D01*
X0002227578Y0003096649D01*
X0002227578Y0003103125D01*
X0002227340Y0003104319D01*
X0002259861Y0003104319D01*
X0002259861Y0003097455D01*
X0002261200Y0003090724D01*
X0002263827Y0003084383D01*
X0002267640Y0003078676D01*
X0002272493Y0003073823D01*
X0002278200Y0003070010D01*
X0002284541Y0003067383D01*
X0002291272Y0003066044D01*
X0002298135Y0003066044D01*
X0002304867Y0003067383D01*
X0002311208Y0003070010D01*
X0002316915Y0003073823D01*
X0002321768Y0003078676D01*
X0002325581Y0003084383D01*
X0002328207Y0003090724D01*
X0002329546Y0003097455D01*
X0002329546Y0003103497D01*
X0002351971Y0003103497D01*
X0002351971Y0003095277D01*
X0002353575Y0003087214D01*
X0002356721Y0003079619D01*
X0002361288Y0003072784D01*
X0002367101Y0003066971D01*
X0002373936Y0003062404D01*
X0002381531Y0003059258D01*
X0002389593Y0003057655D01*
X0002397814Y0003057655D01*
X0002405877Y0003059258D01*
X0002413471Y0003062404D01*
X0002420307Y0003066971D01*
X0002426119Y0003072784D01*
X0002430686Y0003079619D01*
X0002433832Y0003087214D01*
X0002435436Y0003095277D01*
X0002435436Y0003103497D01*
X0002435337Y0003103997D01*
X0002451971Y0003103997D01*
X0002451971Y0003095777D01*
X0002453575Y0003087714D01*
X0002456721Y0003080119D01*
X0002461288Y0003073284D01*
X0002467101Y0003067471D01*
X0002473936Y0003062904D01*
X0002481531Y0003059758D01*
X0002489593Y0003058155D01*
X0002497814Y0003058155D01*
X0002505877Y0003059758D01*
X0002513471Y0003062904D01*
X0002520307Y0003067471D01*
X0002526119Y0003073284D01*
X0002530686Y0003080119D01*
X0002533832Y0003087714D01*
X0002535436Y0003095777D01*
X0002535436Y0003103997D01*
X0002533832Y0003112060D01*
X0002530686Y0003119654D01*
X0002526119Y0003126490D01*
X0002520307Y0003132302D01*
X0002513471Y0003136870D01*
X0002505877Y0003140015D01*
X0002497814Y0003141619D01*
X0002489593Y0003141619D01*
X0002481531Y0003140015D01*
X0002473936Y0003136870D01*
X0002467101Y0003132302D01*
X0002461288Y0003126490D01*
X0002456721Y0003119654D01*
X0002453575Y0003112060D01*
X0002451971Y0003103997D01*
X0002435337Y0003103997D01*
X0002433832Y0003111560D01*
X0002430686Y0003119154D01*
X0002426119Y0003125990D01*
X0002420307Y0003131802D01*
X0002413471Y0003136370D01*
X0002405877Y0003139515D01*
X0002397814Y0003141119D01*
X0002389593Y0003141119D01*
X0002381531Y0003139515D01*
X0002373936Y0003136370D01*
X0002367101Y0003131802D01*
X0002361288Y0003125990D01*
X0002356721Y0003119154D01*
X0002353575Y0003111560D01*
X0002351971Y0003103497D01*
X0002329546Y0003103497D01*
X0002329546Y0003104319D01*
X0002328207Y0003111050D01*
X0002325581Y0003117391D01*
X0002321768Y0003123098D01*
X0002316915Y0003127951D01*
X0002311208Y0003131764D01*
X0002304867Y0003134390D01*
X0002298135Y0003135729D01*
X0002291272Y0003135729D01*
X0002284541Y0003134390D01*
X0002278200Y0003131764D01*
X0002272493Y0003127951D01*
X0002267640Y0003123098D01*
X0002263827Y0003117391D01*
X0002261200Y0003111050D01*
X0002259861Y0003104319D01*
X0002227340Y0003104319D01*
X0002226314Y0003109476D01*
X0002223836Y0003115459D01*
X0002220239Y0003120843D01*
X0002215660Y0003125422D01*
X0002210275Y0003129019D01*
X0002204293Y0003131497D01*
X0002197942Y0003132761D01*
X0002191466Y0003132761D01*
X0002185115Y0003131497D01*
X0002179132Y0003129019D01*
X0002173748Y0003125422D01*
X0002169169Y0003120843D01*
X0002165571Y0003115459D01*
X0002163093Y0003109476D01*
X0002161830Y0003103125D01*
X0002125471Y0003103125D01*
X0002124422Y0003108402D01*
X0002122092Y0003114026D01*
X0002118710Y0003119088D01*
X0002114405Y0003123393D01*
X0002109343Y0003126775D01*
X0002103719Y0003129105D01*
X0002097748Y0003130292D01*
X0002091660Y0003130292D01*
X0002085689Y0003129105D01*
X0002080065Y0003126775D01*
X0002075003Y0003123393D01*
X0002070698Y0003119088D01*
X0002067316Y0003114026D01*
X0002064986Y0003108402D01*
X0002063798Y0003102431D01*
X0002024606Y0003102431D01*
X0002023475Y0003108115D01*
X0002021220Y0003113560D01*
X0002017945Y0003118461D01*
X0002013777Y0003122628D01*
X0002008877Y0003125903D01*
X0002003431Y0003128158D01*
X0001997651Y0003129308D01*
X0001991757Y0003129308D01*
X0001985976Y0003128158D01*
X0001980531Y0003125903D01*
X0001975630Y0003122628D01*
X0001971462Y0003118461D01*
X0001968188Y0003113560D01*
X0001965932Y0003108115D01*
X0001964782Y0003102334D01*
X0001935436Y0003102334D01*
X0001935436Y0003103497D01*
X0001933832Y0003111560D01*
X0001930686Y0003119154D01*
X0001926119Y0003125990D01*
X0001920307Y0003131802D01*
X0001913471Y0003136370D01*
X0001905877Y0003139515D01*
X0001897814Y0003141119D01*
X0001889593Y0003141119D01*
X0001881531Y0003139515D01*
X0001873936Y0003136370D01*
X0001867101Y0003131802D01*
X0001861288Y0003125990D01*
X0001856721Y0003119154D01*
X0001853575Y0003111560D01*
X0001851971Y0003103497D01*
X0001835436Y0003103497D01*
X0001833832Y0003111560D01*
X0001830686Y0003119154D01*
X0001826119Y0003125990D01*
X0001820307Y0003131802D01*
X0001813471Y0003136370D01*
X0001805877Y0003139515D01*
X0001797814Y0003141119D01*
X0001789593Y0003141119D01*
X0001781531Y0003139515D01*
X0001773936Y0003136370D01*
X0001767101Y0003131802D01*
X0001761288Y0003125990D01*
X0001756721Y0003119154D01*
X0001753575Y0003111560D01*
X0001751971Y0003103497D01*
X0001663688Y0003103497D01*
X0001663688Y0003203080D01*
X0001801204Y0003203080D01*
X0001801204Y0003195693D01*
X0001802645Y0003188448D01*
X0001805472Y0003181624D01*
X0001809576Y0003175482D01*
X0001814799Y0003170259D01*
X0001820941Y0003166155D01*
X0001827765Y0003163328D01*
X0001835010Y0003161887D01*
X0001842397Y0003161887D01*
X0001849642Y0003163328D01*
X0001856467Y0003166155D01*
X0001862609Y0003170259D01*
X0001867832Y0003175482D01*
X0001871936Y0003181624D01*
X0001874763Y0003188448D01*
X0001876204Y0003195693D01*
X0001876204Y0003203080D01*
X0002001204Y0003203080D01*
X0002001204Y0003195693D01*
X0002002645Y0003188448D01*
X0002005472Y0003181624D01*
X0002009576Y0003175482D01*
X0002014799Y0003170259D01*
X0002020941Y0003166155D01*
X0002027765Y0003163328D01*
X0002035010Y0003161887D01*
X0002042397Y0003161887D01*
X0002049642Y0003163328D01*
X0002056467Y0003166155D01*
X0002062609Y0003170259D01*
X0002067832Y0003175482D01*
X0002071936Y0003181624D01*
X0002074763Y0003188448D01*
X0002076204Y0003195693D01*
X0002076204Y0003203080D01*
X0002201204Y0003203080D01*
X0002201204Y0003195693D01*
X0002202645Y0003188448D01*
X0002205472Y0003181624D01*
X0002209576Y0003175482D01*
X0002214799Y0003170259D01*
X0002220941Y0003166155D01*
X0002227765Y0003163328D01*
X0002235010Y0003161887D01*
X0002242397Y0003161887D01*
X0002249642Y0003163328D01*
X0002256467Y0003166155D01*
X0002262609Y0003170259D01*
X0002267832Y0003175482D01*
X0002271936Y0003181624D01*
X0002274763Y0003188448D01*
X0002276204Y0003195693D01*
X0002276204Y0003203080D01*
X0002401204Y0003203080D01*
X0002401204Y0003195693D01*
X0002402645Y0003188448D01*
X0002405472Y0003181624D01*
X0002409576Y0003175482D01*
X0002414799Y0003170259D01*
X0002420941Y0003166155D01*
X0002427765Y0003163328D01*
X0002435010Y0003161887D01*
X0002442397Y0003161887D01*
X0002449642Y0003163328D01*
X0002456467Y0003166155D01*
X0002462609Y0003170259D01*
X0002467832Y0003175482D01*
X0002471936Y0003181624D01*
X0002474763Y0003188448D01*
X0002476204Y0003195693D01*
X0002476204Y0003203080D01*
X0002474763Y0003210325D01*
X0002471936Y0003217150D01*
X0002467832Y0003223292D01*
X0002462609Y0003228515D01*
X0002456467Y0003232619D01*
X0002449642Y0003235446D01*
X0002442397Y0003236887D01*
X0002435010Y0003236887D01*
X0002427765Y0003235446D01*
X0002420941Y0003232619D01*
X0002414799Y0003228515D01*
X0002409576Y0003223292D01*
X0002405472Y0003217150D01*
X0002402645Y0003210325D01*
X0002401204Y0003203080D01*
X0002276204Y0003203080D01*
X0002274763Y0003210325D01*
X0002271936Y0003217150D01*
X0002267832Y0003223292D01*
X0002262609Y0003228515D01*
X0002256467Y0003232619D01*
X0002249642Y0003235446D01*
X0002242397Y0003236887D01*
X0002235010Y0003236887D01*
X0002227765Y0003235446D01*
X0002220941Y0003232619D01*
X0002214799Y0003228515D01*
X0002209576Y0003223292D01*
X0002205472Y0003217150D01*
X0002202645Y0003210325D01*
X0002201204Y0003203080D01*
X0002076204Y0003203080D01*
X0002074763Y0003210325D01*
X0002071936Y0003217150D01*
X0002067832Y0003223292D01*
X0002062609Y0003228515D01*
X0002056467Y0003232619D01*
X0002049642Y0003235446D01*
X0002042397Y0003236887D01*
X0002035010Y0003236887D01*
X0002027765Y0003235446D01*
X0002020941Y0003232619D01*
X0002014799Y0003228515D01*
X0002009576Y0003223292D01*
X0002005472Y0003217150D01*
X0002002645Y0003210325D01*
X0002001204Y0003203080D01*
X0001876204Y0003203080D01*
X0001874763Y0003210325D01*
X0001871936Y0003217150D01*
X0001867832Y0003223292D01*
X0001862609Y0003228515D01*
X0001856467Y0003232619D01*
X0001849642Y0003235446D01*
X0001842397Y0003236887D01*
X0001835010Y0003236887D01*
X0001827765Y0003235446D01*
X0001820941Y0003232619D01*
X0001814799Y0003228515D01*
X0001809576Y0003223292D01*
X0001805472Y0003217150D01*
X0001802645Y0003210325D01*
X0001801204Y0003203080D01*
X0001663688Y0003203080D01*
X0001663688Y0003262993D01*
X0002619503Y0003262993D01*
X0002619503Y0002939371D01*
G37*
G04 #@! TD.AperFunction*
G04 next file*
G04 #@! TF.GenerationSoftware,KiCad,Pcbnew,(5.1.12)-1*
G04 #@! TF.CreationDate,2022-03-29T21:33:58+08:00*
G04 #@! TF.ProjectId,Nozzle,4e6f7a7a-6c65-42e6-9b69-6361645f7063,Gen3.1b*
G04 #@! TF.SameCoordinates,Original*
G04 #@! TF.FileFunction,Copper,L2,Bot*
G04 #@! TF.FilePolarity,Positive*
G04 Gerber Fmt 4.6, Leading zero omitted, Abs format (unit mm)*
G04 Created by KiCad (PCBNEW (5.1.12)-1) date 2022-03-29 21:33:58*
G01*
G04 APERTURE LIST*
G04 #@! TA.AperFunction,ComponentPad*
G04 #@! TD*
G04 #@! TA.AperFunction,NonConductor*
G04 #@! TD*
G04 #@! TA.AperFunction,NonConductor*
G04 #@! TD*
G04 APERTURE END LIST*
D29*
X-0003273795Y0004857717D02*
X0002493704Y0003554217D03*
X0001893704Y0003553717D03*
X0002393704Y0003553717D03*
X0001793704Y0003553717D03*
D30*
X0002619503Y0003393702D02*
X0001663688Y0003393702D01*
X0001663688Y0003457411D01*
X0001701204Y0003457411D01*
X0001701204Y0003450024D01*
X0001702645Y0003442779D01*
X0001705472Y0003435954D01*
X0001709576Y0003429812D01*
X0001714799Y0003424589D01*
X0001720941Y0003420485D01*
X0001727765Y0003417658D01*
X0001735010Y0003416217D01*
X0001742397Y0003416217D01*
X0001749642Y0003417658D01*
X0001756467Y0003420485D01*
X0001762609Y0003424589D01*
X0001767832Y0003429812D01*
X0001771936Y0003435954D01*
X0001774763Y0003442779D01*
X0001776204Y0003450024D01*
X0001776204Y0003457411D01*
X0001901204Y0003457411D01*
X0001901204Y0003450024D01*
X0001902645Y0003442779D01*
X0001905472Y0003435954D01*
X0001909576Y0003429812D01*
X0001914799Y0003424589D01*
X0001920941Y0003420485D01*
X0001927765Y0003417658D01*
X0001935010Y0003416217D01*
X0001942397Y0003416217D01*
X0001949642Y0003417658D01*
X0001956467Y0003420485D01*
X0001962609Y0003424589D01*
X0001967832Y0003429812D01*
X0001971936Y0003435954D01*
X0001974763Y0003442779D01*
X0001976204Y0003450024D01*
X0001976204Y0003457411D01*
X0002101204Y0003457411D01*
X0002101204Y0003450024D01*
X0002102645Y0003442779D01*
X0002105472Y0003435954D01*
X0002109576Y0003429812D01*
X0002114799Y0003424589D01*
X0002120941Y0003420485D01*
X0002127765Y0003417658D01*
X0002135010Y0003416217D01*
X0002142397Y0003416217D01*
X0002149642Y0003417658D01*
X0002156467Y0003420485D01*
X0002162609Y0003424589D01*
X0002167832Y0003429812D01*
X0002171936Y0003435954D01*
X0002174763Y0003442779D01*
X0002176204Y0003450024D01*
X0002176204Y0003457411D01*
X0002176104Y0003457911D01*
X0002301204Y0003457911D01*
X0002301204Y0003450524D01*
X0002302645Y0003443279D01*
X0002305472Y0003436454D01*
X0002309576Y0003430312D01*
X0002314799Y0003425089D01*
X0002320941Y0003420985D01*
X0002327765Y0003418158D01*
X0002335010Y0003416717D01*
X0002342397Y0003416717D01*
X0002349642Y0003418158D01*
X0002356467Y0003420985D01*
X0002362609Y0003425089D01*
X0002367832Y0003430312D01*
X0002371936Y0003436454D01*
X0002374763Y0003443279D01*
X0002376204Y0003450524D01*
X0002376204Y0003457911D01*
X0002501204Y0003457911D01*
X0002501204Y0003450524D01*
X0002502645Y0003443279D01*
X0002505472Y0003436454D01*
X0002509576Y0003430312D01*
X0002514799Y0003425089D01*
X0002520941Y0003420985D01*
X0002527765Y0003418158D01*
X0002535010Y0003416717D01*
X0002542397Y0003416717D01*
X0002549642Y0003418158D01*
X0002556467Y0003420985D01*
X0002562609Y0003425089D01*
X0002567832Y0003430312D01*
X0002571936Y0003436454D01*
X0002574763Y0003443279D01*
X0002576204Y0003450524D01*
X0002576204Y0003457911D01*
X0002574763Y0003465156D01*
X0002571936Y0003471980D01*
X0002567832Y0003478122D01*
X0002562609Y0003483345D01*
X0002556467Y0003487449D01*
X0002549642Y0003490276D01*
X0002542397Y0003491717D01*
X0002535010Y0003491717D01*
X0002527765Y0003490276D01*
X0002520941Y0003487449D01*
X0002514799Y0003483345D01*
X0002509576Y0003478122D01*
X0002505472Y0003471980D01*
X0002502645Y0003465156D01*
X0002501204Y0003457911D01*
X0002376204Y0003457911D01*
X0002374763Y0003465156D01*
X0002371936Y0003471980D01*
X0002367832Y0003478122D01*
X0002362609Y0003483345D01*
X0002356467Y0003487449D01*
X0002349642Y0003490276D01*
X0002342397Y0003491717D01*
X0002335010Y0003491717D01*
X0002327765Y0003490276D01*
X0002320941Y0003487449D01*
X0002314799Y0003483345D01*
X0002309576Y0003478122D01*
X0002305472Y0003471980D01*
X0002302645Y0003465156D01*
X0002301204Y0003457911D01*
X0002176104Y0003457911D01*
X0002174763Y0003464656D01*
X0002171936Y0003471480D01*
X0002167832Y0003477622D01*
X0002162609Y0003482845D01*
X0002156467Y0003486949D01*
X0002149642Y0003489776D01*
X0002142397Y0003491217D01*
X0002135010Y0003491217D01*
X0002127765Y0003489776D01*
X0002120941Y0003486949D01*
X0002114799Y0003482845D01*
X0002109576Y0003477622D01*
X0002105472Y0003471480D01*
X0002102645Y0003464656D01*
X0002101204Y0003457411D01*
X0001976204Y0003457411D01*
X0001974763Y0003464656D01*
X0001971936Y0003471480D01*
X0001967832Y0003477622D01*
X0001962609Y0003482845D01*
X0001956467Y0003486949D01*
X0001949642Y0003489776D01*
X0001942397Y0003491217D01*
X0001935010Y0003491217D01*
X0001927765Y0003489776D01*
X0001920941Y0003486949D01*
X0001914799Y0003482845D01*
X0001909576Y0003477622D01*
X0001905472Y0003471480D01*
X0001902645Y0003464656D01*
X0001901204Y0003457411D01*
X0001776204Y0003457411D01*
X0001774763Y0003464656D01*
X0001771936Y0003471480D01*
X0001767832Y0003477622D01*
X0001762609Y0003482845D01*
X0001756467Y0003486949D01*
X0001749642Y0003489776D01*
X0001742397Y0003491217D01*
X0001735010Y0003491217D01*
X0001727765Y0003489776D01*
X0001720941Y0003486949D01*
X0001714799Y0003482845D01*
X0001709576Y0003477622D01*
X0001705472Y0003471480D01*
X0001702645Y0003464656D01*
X0001701204Y0003457411D01*
X0001663688Y0003457411D01*
X0001663688Y0003557828D01*
X0001751971Y0003557828D01*
X0001751971Y0003549607D01*
X0001753575Y0003541544D01*
X0001756721Y0003533950D01*
X0001761288Y0003527115D01*
X0001767101Y0003521302D01*
X0001773936Y0003516735D01*
X0001781531Y0003513589D01*
X0001789593Y0003511985D01*
X0001797814Y0003511985D01*
X0001805877Y0003513589D01*
X0001813471Y0003516735D01*
X0001820307Y0003521302D01*
X0001826119Y0003527115D01*
X0001830686Y0003533950D01*
X0001833832Y0003541544D01*
X0001835436Y0003549607D01*
X0001835436Y0003557828D01*
X0001851971Y0003557828D01*
X0001851971Y0003549607D01*
X0001853575Y0003541544D01*
X0001856721Y0003533950D01*
X0001861288Y0003527115D01*
X0001867101Y0003521302D01*
X0001873936Y0003516735D01*
X0001881531Y0003513589D01*
X0001889593Y0003511985D01*
X0001897814Y0003511985D01*
X0001905877Y0003513589D01*
X0001913471Y0003516735D01*
X0001920307Y0003521302D01*
X0001926119Y0003527115D01*
X0001930686Y0003533950D01*
X0001933832Y0003541544D01*
X0001935436Y0003549607D01*
X0001935436Y0003556664D01*
X0001964782Y0003556664D01*
X0001964782Y0003550770D01*
X0001965932Y0003544990D01*
X0001968188Y0003539544D01*
X0001971462Y0003534644D01*
X0001975630Y0003530476D01*
X0001980531Y0003527201D01*
X0001985976Y0003524946D01*
X0001991757Y0003523796D01*
X0001997651Y0003523796D01*
X0002003431Y0003524946D01*
X0002008877Y0003527201D01*
X0002013777Y0003530476D01*
X0002017945Y0003534644D01*
X0002021220Y0003539544D01*
X0002023475Y0003544990D01*
X0002024625Y0003550770D01*
X0002024625Y0003556664D01*
X0002024606Y0003556761D01*
X0002063798Y0003556761D01*
X0002063798Y0003550673D01*
X0002064986Y0003544702D01*
X0002067316Y0003539078D01*
X0002070698Y0003534016D01*
X0002075003Y0003529711D01*
X0002080065Y0003526329D01*
X0002085689Y0003523999D01*
X0002091660Y0003522812D01*
X0002097748Y0003522812D01*
X0002103719Y0003523999D01*
X0002109343Y0003526329D01*
X0002114405Y0003529711D01*
X0002118710Y0003534016D01*
X0002122092Y0003539078D01*
X0002124422Y0003544702D01*
X0002125609Y0003550673D01*
X0002125609Y0003556761D01*
X0002125471Y0003557455D01*
X0002161830Y0003557455D01*
X0002161830Y0003550980D01*
X0002163093Y0003544628D01*
X0002165571Y0003538646D01*
X0002169169Y0003533261D01*
X0002173748Y0003528682D01*
X0002179132Y0003525085D01*
X0002185115Y0003522607D01*
X0002191466Y0003521343D01*
X0002197942Y0003521343D01*
X0002204293Y0003522607D01*
X0002210275Y0003525085D01*
X0002215660Y0003528682D01*
X0002220239Y0003533261D01*
X0002223836Y0003538646D01*
X0002226314Y0003544628D01*
X0002227578Y0003550980D01*
X0002227578Y0003557455D01*
X0002227340Y0003558649D01*
X0002259861Y0003558649D01*
X0002259861Y0003551786D01*
X0002261200Y0003545054D01*
X0002263827Y0003538713D01*
X0002267640Y0003533006D01*
X0002272493Y0003528153D01*
X0002278200Y0003524340D01*
X0002284541Y0003521714D01*
X0002291272Y0003520375D01*
X0002298135Y0003520375D01*
X0002304867Y0003521714D01*
X0002311208Y0003524340D01*
X0002316915Y0003528153D01*
X0002321768Y0003533006D01*
X0002325581Y0003538713D01*
X0002328207Y0003545054D01*
X0002329546Y0003551786D01*
X0002329546Y0003557828D01*
X0002351971Y0003557828D01*
X0002351971Y0003549607D01*
X0002353575Y0003541544D01*
X0002356721Y0003533950D01*
X0002361288Y0003527115D01*
X0002367101Y0003521302D01*
X0002373936Y0003516735D01*
X0002381531Y0003513589D01*
X0002389593Y0003511985D01*
X0002397814Y0003511985D01*
X0002405877Y0003513589D01*
X0002413471Y0003516735D01*
X0002420307Y0003521302D01*
X0002426119Y0003527115D01*
X0002430686Y0003533950D01*
X0002433832Y0003541544D01*
X0002435436Y0003549607D01*
X0002435436Y0003557828D01*
X0002435337Y0003558328D01*
X0002451971Y0003558328D01*
X0002451971Y0003550107D01*
X0002453575Y0003542044D01*
X0002456721Y0003534450D01*
X0002461288Y0003527615D01*
X0002467101Y0003521802D01*
X0002473936Y0003517235D01*
X0002481531Y0003514089D01*
X0002489593Y0003512485D01*
X0002497814Y0003512485D01*
X0002505877Y0003514089D01*
X0002513471Y0003517235D01*
X0002520307Y0003521802D01*
X0002526119Y0003527615D01*
X0002530686Y0003534450D01*
X0002533832Y0003542044D01*
X0002535436Y0003550107D01*
X0002535436Y0003558328D01*
X0002533832Y0003566390D01*
X0002530686Y0003573985D01*
X0002526119Y0003580820D01*
X0002520307Y0003586633D01*
X0002513471Y0003591200D01*
X0002505877Y0003594346D01*
X0002497814Y0003595950D01*
X0002489593Y0003595950D01*
X0002481531Y0003594346D01*
X0002473936Y0003591200D01*
X0002467101Y0003586633D01*
X0002461288Y0003580820D01*
X0002456721Y0003573985D01*
X0002453575Y0003566390D01*
X0002451971Y0003558328D01*
X0002435337Y0003558328D01*
X0002433832Y0003565890D01*
X0002430686Y0003573485D01*
X0002426119Y0003580320D01*
X0002420307Y0003586133D01*
X0002413471Y0003590700D01*
X0002405877Y0003593846D01*
X0002397814Y0003595450D01*
X0002389593Y0003595450D01*
X0002381531Y0003593846D01*
X0002373936Y0003590700D01*
X0002367101Y0003586133D01*
X0002361288Y0003580320D01*
X0002356721Y0003573485D01*
X0002353575Y0003565890D01*
X0002351971Y0003557828D01*
X0002329546Y0003557828D01*
X0002329546Y0003558649D01*
X0002328207Y0003565380D01*
X0002325581Y0003571721D01*
X0002321768Y0003577428D01*
X0002316915Y0003582281D01*
X0002311208Y0003586094D01*
X0002304867Y0003588721D01*
X0002298135Y0003590060D01*
X0002291272Y0003590060D01*
X0002284541Y0003588721D01*
X0002278200Y0003586094D01*
X0002272493Y0003582281D01*
X0002267640Y0003577428D01*
X0002263827Y0003571721D01*
X0002261200Y0003565380D01*
X0002259861Y0003558649D01*
X0002227340Y0003558649D01*
X0002226314Y0003563806D01*
X0002223836Y0003569789D01*
X0002220239Y0003575173D01*
X0002215660Y0003579752D01*
X0002210275Y0003583350D01*
X0002204293Y0003585828D01*
X0002197942Y0003587091D01*
X0002191466Y0003587091D01*
X0002185115Y0003585828D01*
X0002179132Y0003583350D01*
X0002173748Y0003579752D01*
X0002169169Y0003575173D01*
X0002165571Y0003569789D01*
X0002163093Y0003563806D01*
X0002161830Y0003557455D01*
X0002125471Y0003557455D01*
X0002124422Y0003562732D01*
X0002122092Y0003568357D01*
X0002118710Y0003573418D01*
X0002114405Y0003577723D01*
X0002109343Y0003581105D01*
X0002103719Y0003583435D01*
X0002097748Y0003584623D01*
X0002091660Y0003584623D01*
X0002085689Y0003583435D01*
X0002080065Y0003581105D01*
X0002075003Y0003577723D01*
X0002070698Y0003573418D01*
X0002067316Y0003568357D01*
X0002064986Y0003562732D01*
X0002063798Y0003556761D01*
X0002024606Y0003556761D01*
X0002023475Y0003562445D01*
X0002021220Y0003567890D01*
X0002017945Y0003572791D01*
X0002013777Y0003576959D01*
X0002008877Y0003580233D01*
X0002003431Y0003582489D01*
X0001997651Y0003583639D01*
X0001991757Y0003583639D01*
X0001985976Y0003582489D01*
X0001980531Y0003580233D01*
X0001975630Y0003576959D01*
X0001971462Y0003572791D01*
X0001968188Y0003567890D01*
X0001965932Y0003562445D01*
X0001964782Y0003556664D01*
X0001935436Y0003556664D01*
X0001935436Y0003557828D01*
X0001933832Y0003565890D01*
X0001930686Y0003573485D01*
X0001926119Y0003580320D01*
X0001920307Y0003586133D01*
X0001913471Y0003590700D01*
X0001905877Y0003593846D01*
X0001897814Y0003595450D01*
X0001889593Y0003595450D01*
X0001881531Y0003593846D01*
X0001873936Y0003590700D01*
X0001867101Y0003586133D01*
X0001861288Y0003580320D01*
X0001856721Y0003573485D01*
X0001853575Y0003565890D01*
X0001851971Y0003557828D01*
X0001835436Y0003557828D01*
X0001833832Y0003565890D01*
X0001830686Y0003573485D01*
X0001826119Y0003580320D01*
X0001820307Y0003586133D01*
X0001813471Y0003590700D01*
X0001805877Y0003593846D01*
X0001797814Y0003595450D01*
X0001789593Y0003595450D01*
X0001781531Y0003593846D01*
X0001773936Y0003590700D01*
X0001767101Y0003586133D01*
X0001761288Y0003580320D01*
X0001756721Y0003573485D01*
X0001753575Y0003565890D01*
X0001751971Y0003557828D01*
X0001663688Y0003557828D01*
X0001663688Y0003657411D01*
X0001801204Y0003657411D01*
X0001801204Y0003650024D01*
X0001802645Y0003642779D01*
X0001805472Y0003635954D01*
X0001809576Y0003629812D01*
X0001814799Y0003624589D01*
X0001820941Y0003620485D01*
X0001827765Y0003617658D01*
X0001835010Y0003616217D01*
X0001842397Y0003616217D01*
X0001849642Y0003617658D01*
X0001856467Y0003620485D01*
X0001862609Y0003624589D01*
X0001867832Y0003629812D01*
X0001871936Y0003635954D01*
X0001874763Y0003642779D01*
X0001876204Y0003650024D01*
X0001876204Y0003657411D01*
X0002001204Y0003657411D01*
X0002001204Y0003650024D01*
X0002002645Y0003642779D01*
X0002005472Y0003635954D01*
X0002009576Y0003629812D01*
X0002014799Y0003624589D01*
X0002020941Y0003620485D01*
X0002027765Y0003617658D01*
X0002035010Y0003616217D01*
X0002042397Y0003616217D01*
X0002049642Y0003617658D01*
X0002056467Y0003620485D01*
X0002062609Y0003624589D01*
X0002067832Y0003629812D01*
X0002071936Y0003635954D01*
X0002074763Y0003642779D01*
X0002076204Y0003650024D01*
X0002076204Y0003657411D01*
X0002201204Y0003657411D01*
X0002201204Y0003650024D01*
X0002202645Y0003642779D01*
X0002205472Y0003635954D01*
X0002209576Y0003629812D01*
X0002214799Y0003624589D01*
X0002220941Y0003620485D01*
X0002227765Y0003617658D01*
X0002235010Y0003616217D01*
X0002242397Y0003616217D01*
X0002249642Y0003617658D01*
X0002256467Y0003620485D01*
X0002262609Y0003624589D01*
X0002267832Y0003629812D01*
X0002271936Y0003635954D01*
X0002274763Y0003642779D01*
X0002276204Y0003650024D01*
X0002276204Y0003657411D01*
X0002401204Y0003657411D01*
X0002401204Y0003650024D01*
X0002402645Y0003642779D01*
X0002405472Y0003635954D01*
X0002409576Y0003629812D01*
X0002414799Y0003624589D01*
X0002420941Y0003620485D01*
X0002427765Y0003617658D01*
X0002435010Y0003616217D01*
X0002442397Y0003616217D01*
X0002449642Y0003617658D01*
X0002456467Y0003620485D01*
X0002462609Y0003624589D01*
X0002467832Y0003629812D01*
X0002471936Y0003635954D01*
X0002474763Y0003642779D01*
X0002476204Y0003650024D01*
X0002476204Y0003657411D01*
X0002474763Y0003664656D01*
X0002471936Y0003671480D01*
X0002467832Y0003677622D01*
X0002462609Y0003682845D01*
X0002456467Y0003686949D01*
X0002449642Y0003689776D01*
X0002442397Y0003691217D01*
X0002435010Y0003691217D01*
X0002427765Y0003689776D01*
X0002420941Y0003686949D01*
X0002414799Y0003682845D01*
X0002409576Y0003677622D01*
X0002405472Y0003671480D01*
X0002402645Y0003664656D01*
X0002401204Y0003657411D01*
X0002276204Y0003657411D01*
X0002274763Y0003664656D01*
X0002271936Y0003671480D01*
X0002267832Y0003677622D01*
X0002262609Y0003682845D01*
X0002256467Y0003686949D01*
X0002249642Y0003689776D01*
X0002242397Y0003691217D01*
X0002235010Y0003691217D01*
X0002227765Y0003689776D01*
X0002220941Y0003686949D01*
X0002214799Y0003682845D01*
X0002209576Y0003677622D01*
X0002205472Y0003671480D01*
X0002202645Y0003664656D01*
X0002201204Y0003657411D01*
X0002076204Y0003657411D01*
X0002074763Y0003664656D01*
X0002071936Y0003671480D01*
X0002067832Y0003677622D01*
X0002062609Y0003682845D01*
X0002056467Y0003686949D01*
X0002049642Y0003689776D01*
X0002042397Y0003691217D01*
X0002035010Y0003691217D01*
X0002027765Y0003689776D01*
X0002020941Y0003686949D01*
X0002014799Y0003682845D01*
X0002009576Y0003677622D01*
X0002005472Y0003671480D01*
X0002002645Y0003664656D01*
X0002001204Y0003657411D01*
X0001876204Y0003657411D01*
X0001874763Y0003664656D01*
X0001871936Y0003671480D01*
X0001867832Y0003677622D01*
X0001862609Y0003682845D01*
X0001856467Y0003686949D01*
X0001849642Y0003689776D01*
X0001842397Y0003691217D01*
X0001835010Y0003691217D01*
X0001827765Y0003689776D01*
X0001820941Y0003686949D01*
X0001814799Y0003682845D01*
X0001809576Y0003677622D01*
X0001805472Y0003671480D01*
X0001802645Y0003664656D01*
X0001801204Y0003657411D01*
X0001663688Y0003657411D01*
X0001663688Y0003717323D01*
X0002619503Y0003717323D01*
X0002619503Y0003393702D01*
G04 #@! TA.AperFunction,NonConductor*
D31*
G36*
X0002619503Y0003393702D02*
G01*
X0001663688Y0003393702D01*
X0001663688Y0003457411D01*
X0001701204Y0003457411D01*
X0001701204Y0003450024D01*
X0001702645Y0003442779D01*
X0001705472Y0003435954D01*
X0001709576Y0003429812D01*
X0001714799Y0003424589D01*
X0001720941Y0003420485D01*
X0001727765Y0003417658D01*
X0001735010Y0003416217D01*
X0001742397Y0003416217D01*
X0001749642Y0003417658D01*
X0001756467Y0003420485D01*
X0001762609Y0003424589D01*
X0001767832Y0003429812D01*
X0001771936Y0003435954D01*
X0001774763Y0003442779D01*
X0001776204Y0003450024D01*
X0001776204Y0003457411D01*
X0001901204Y0003457411D01*
X0001901204Y0003450024D01*
X0001902645Y0003442779D01*
X0001905472Y0003435954D01*
X0001909576Y0003429812D01*
X0001914799Y0003424589D01*
X0001920941Y0003420485D01*
X0001927765Y0003417658D01*
X0001935010Y0003416217D01*
X0001942397Y0003416217D01*
X0001949642Y0003417658D01*
X0001956467Y0003420485D01*
X0001962609Y0003424589D01*
X0001967832Y0003429812D01*
X0001971936Y0003435954D01*
X0001974763Y0003442779D01*
X0001976204Y0003450024D01*
X0001976204Y0003457411D01*
X0002101204Y0003457411D01*
X0002101204Y0003450024D01*
X0002102645Y0003442779D01*
X0002105472Y0003435954D01*
X0002109576Y0003429812D01*
X0002114799Y0003424589D01*
X0002120941Y0003420485D01*
X0002127765Y0003417658D01*
X0002135010Y0003416217D01*
X0002142397Y0003416217D01*
X0002149642Y0003417658D01*
X0002156467Y0003420485D01*
X0002162609Y0003424589D01*
X0002167832Y0003429812D01*
X0002171936Y0003435954D01*
X0002174763Y0003442779D01*
X0002176204Y0003450024D01*
X0002176204Y0003457411D01*
X0002176104Y0003457911D01*
X0002301204Y0003457911D01*
X0002301204Y0003450524D01*
X0002302645Y0003443279D01*
X0002305472Y0003436454D01*
X0002309576Y0003430312D01*
X0002314799Y0003425089D01*
X0002320941Y0003420985D01*
X0002327765Y0003418158D01*
X0002335010Y0003416717D01*
X0002342397Y0003416717D01*
X0002349642Y0003418158D01*
X0002356467Y0003420985D01*
X0002362609Y0003425089D01*
X0002367832Y0003430312D01*
X0002371936Y0003436454D01*
X0002374763Y0003443279D01*
X0002376204Y0003450524D01*
X0002376204Y0003457911D01*
X0002501204Y0003457911D01*
X0002501204Y0003450524D01*
X0002502645Y0003443279D01*
X0002505472Y0003436454D01*
X0002509576Y0003430312D01*
X0002514799Y0003425089D01*
X0002520941Y0003420985D01*
X0002527765Y0003418158D01*
X0002535010Y0003416717D01*
X0002542397Y0003416717D01*
X0002549642Y0003418158D01*
X0002556467Y0003420985D01*
X0002562609Y0003425089D01*
X0002567832Y0003430312D01*
X0002571936Y0003436454D01*
X0002574763Y0003443279D01*
X0002576204Y0003450524D01*
X0002576204Y0003457911D01*
X0002574763Y0003465156D01*
X0002571936Y0003471980D01*
X0002567832Y0003478122D01*
X0002562609Y0003483345D01*
X0002556467Y0003487449D01*
X0002549642Y0003490276D01*
X0002542397Y0003491717D01*
X0002535010Y0003491717D01*
X0002527765Y0003490276D01*
X0002520941Y0003487449D01*
X0002514799Y0003483345D01*
X0002509576Y0003478122D01*
X0002505472Y0003471980D01*
X0002502645Y0003465156D01*
X0002501204Y0003457911D01*
X0002376204Y0003457911D01*
X0002374763Y0003465156D01*
X0002371936Y0003471980D01*
X0002367832Y0003478122D01*
X0002362609Y0003483345D01*
X0002356467Y0003487449D01*
X0002349642Y0003490276D01*
X0002342397Y0003491717D01*
X0002335010Y0003491717D01*
X0002327765Y0003490276D01*
X0002320941Y0003487449D01*
X0002314799Y0003483345D01*
X0002309576Y0003478122D01*
X0002305472Y0003471980D01*
X0002302645Y0003465156D01*
X0002301204Y0003457911D01*
X0002176104Y0003457911D01*
X0002174763Y0003464656D01*
X0002171936Y0003471480D01*
X0002167832Y0003477622D01*
X0002162609Y0003482845D01*
X0002156467Y0003486949D01*
X0002149642Y0003489776D01*
X0002142397Y0003491217D01*
X0002135010Y0003491217D01*
X0002127765Y0003489776D01*
X0002120941Y0003486949D01*
X0002114799Y0003482845D01*
X0002109576Y0003477622D01*
X0002105472Y0003471480D01*
X0002102645Y0003464656D01*
X0002101204Y0003457411D01*
X0001976204Y0003457411D01*
X0001974763Y0003464656D01*
X0001971936Y0003471480D01*
X0001967832Y0003477622D01*
X0001962609Y0003482845D01*
X0001956467Y0003486949D01*
X0001949642Y0003489776D01*
X0001942397Y0003491217D01*
X0001935010Y0003491217D01*
X0001927765Y0003489776D01*
X0001920941Y0003486949D01*
X0001914799Y0003482845D01*
X0001909576Y0003477622D01*
X0001905472Y0003471480D01*
X0001902645Y0003464656D01*
X0001901204Y0003457411D01*
X0001776204Y0003457411D01*
X0001774763Y0003464656D01*
X0001771936Y0003471480D01*
X0001767832Y0003477622D01*
X0001762609Y0003482845D01*
X0001756467Y0003486949D01*
X0001749642Y0003489776D01*
X0001742397Y0003491217D01*
X0001735010Y0003491217D01*
X0001727765Y0003489776D01*
X0001720941Y0003486949D01*
X0001714799Y0003482845D01*
X0001709576Y0003477622D01*
X0001705472Y0003471480D01*
X0001702645Y0003464656D01*
X0001701204Y0003457411D01*
X0001663688Y0003457411D01*
X0001663688Y0003557828D01*
X0001751971Y0003557828D01*
X0001751971Y0003549607D01*
X0001753575Y0003541544D01*
X0001756721Y0003533950D01*
X0001761288Y0003527115D01*
X0001767101Y0003521302D01*
X0001773936Y0003516735D01*
X0001781531Y0003513589D01*
X0001789593Y0003511985D01*
X0001797814Y0003511985D01*
X0001805877Y0003513589D01*
X0001813471Y0003516735D01*
X0001820307Y0003521302D01*
X0001826119Y0003527115D01*
X0001830686Y0003533950D01*
X0001833832Y0003541544D01*
X0001835436Y0003549607D01*
X0001835436Y0003557828D01*
X0001851971Y0003557828D01*
X0001851971Y0003549607D01*
X0001853575Y0003541544D01*
X0001856721Y0003533950D01*
X0001861288Y0003527115D01*
X0001867101Y0003521302D01*
X0001873936Y0003516735D01*
X0001881531Y0003513589D01*
X0001889593Y0003511985D01*
X0001897814Y0003511985D01*
X0001905877Y0003513589D01*
X0001913471Y0003516735D01*
X0001920307Y0003521302D01*
X0001926119Y0003527115D01*
X0001930686Y0003533950D01*
X0001933832Y0003541544D01*
X0001935436Y0003549607D01*
X0001935436Y0003556664D01*
X0001964782Y0003556664D01*
X0001964782Y0003550770D01*
X0001965932Y0003544990D01*
X0001968188Y0003539544D01*
X0001971462Y0003534644D01*
X0001975630Y0003530476D01*
X0001980531Y0003527201D01*
X0001985976Y0003524946D01*
X0001991757Y0003523796D01*
X0001997651Y0003523796D01*
X0002003431Y0003524946D01*
X0002008877Y0003527201D01*
X0002013777Y0003530476D01*
X0002017945Y0003534644D01*
X0002021220Y0003539544D01*
X0002023475Y0003544990D01*
X0002024625Y0003550770D01*
X0002024625Y0003556664D01*
X0002024606Y0003556761D01*
X0002063798Y0003556761D01*
X0002063798Y0003550673D01*
X0002064986Y0003544702D01*
X0002067316Y0003539078D01*
X0002070698Y0003534016D01*
X0002075003Y0003529711D01*
X0002080065Y0003526329D01*
X0002085689Y0003523999D01*
X0002091660Y0003522812D01*
X0002097748Y0003522812D01*
X0002103719Y0003523999D01*
X0002109343Y0003526329D01*
X0002114405Y0003529711D01*
X0002118710Y0003534016D01*
X0002122092Y0003539078D01*
X0002124422Y0003544702D01*
X0002125609Y0003550673D01*
X0002125609Y0003556761D01*
X0002125471Y0003557455D01*
X0002161830Y0003557455D01*
X0002161830Y0003550980D01*
X0002163093Y0003544628D01*
X0002165571Y0003538646D01*
X0002169169Y0003533261D01*
X0002173748Y0003528682D01*
X0002179132Y0003525085D01*
X0002185115Y0003522607D01*
X0002191466Y0003521343D01*
X0002197942Y0003521343D01*
X0002204293Y0003522607D01*
X0002210275Y0003525085D01*
X0002215660Y0003528682D01*
X0002220239Y0003533261D01*
X0002223836Y0003538646D01*
X0002226314Y0003544628D01*
X0002227578Y0003550980D01*
X0002227578Y0003557455D01*
X0002227340Y0003558649D01*
X0002259861Y0003558649D01*
X0002259861Y0003551786D01*
X0002261200Y0003545054D01*
X0002263827Y0003538713D01*
X0002267640Y0003533006D01*
X0002272493Y0003528153D01*
X0002278200Y0003524340D01*
X0002284541Y0003521714D01*
X0002291272Y0003520375D01*
X0002298135Y0003520375D01*
X0002304867Y0003521714D01*
X0002311208Y0003524340D01*
X0002316915Y0003528153D01*
X0002321768Y0003533006D01*
X0002325581Y0003538713D01*
X0002328207Y0003545054D01*
X0002329546Y0003551786D01*
X0002329546Y0003557828D01*
X0002351971Y0003557828D01*
X0002351971Y0003549607D01*
X0002353575Y0003541544D01*
X0002356721Y0003533950D01*
X0002361288Y0003527115D01*
X0002367101Y0003521302D01*
X0002373936Y0003516735D01*
X0002381531Y0003513589D01*
X0002389593Y0003511985D01*
X0002397814Y0003511985D01*
X0002405877Y0003513589D01*
X0002413471Y0003516735D01*
X0002420307Y0003521302D01*
X0002426119Y0003527115D01*
X0002430686Y0003533950D01*
X0002433832Y0003541544D01*
X0002435436Y0003549607D01*
X0002435436Y0003557828D01*
X0002435337Y0003558328D01*
X0002451971Y0003558328D01*
X0002451971Y0003550107D01*
X0002453575Y0003542044D01*
X0002456721Y0003534450D01*
X0002461288Y0003527615D01*
X0002467101Y0003521802D01*
X0002473936Y0003517235D01*
X0002481531Y0003514089D01*
X0002489593Y0003512485D01*
X0002497814Y0003512485D01*
X0002505877Y0003514089D01*
X0002513471Y0003517235D01*
X0002520307Y0003521802D01*
X0002526119Y0003527615D01*
X0002530686Y0003534450D01*
X0002533832Y0003542044D01*
X0002535436Y0003550107D01*
X0002535436Y0003558328D01*
X0002533832Y0003566390D01*
X0002530686Y0003573985D01*
X0002526119Y0003580820D01*
X0002520307Y0003586633D01*
X0002513471Y0003591200D01*
X0002505877Y0003594346D01*
X0002497814Y0003595950D01*
X0002489593Y0003595950D01*
X0002481531Y0003594346D01*
X0002473936Y0003591200D01*
X0002467101Y0003586633D01*
X0002461288Y0003580820D01*
X0002456721Y0003573985D01*
X0002453575Y0003566390D01*
X0002451971Y0003558328D01*
X0002435337Y0003558328D01*
X0002433832Y0003565890D01*
X0002430686Y0003573485D01*
X0002426119Y0003580320D01*
X0002420307Y0003586133D01*
X0002413471Y0003590700D01*
X0002405877Y0003593846D01*
X0002397814Y0003595450D01*
X0002389593Y0003595450D01*
X0002381531Y0003593846D01*
X0002373936Y0003590700D01*
X0002367101Y0003586133D01*
X0002361288Y0003580320D01*
X0002356721Y0003573485D01*
X0002353575Y0003565890D01*
X0002351971Y0003557828D01*
X0002329546Y0003557828D01*
X0002329546Y0003558649D01*
X0002328207Y0003565380D01*
X0002325581Y0003571721D01*
X0002321768Y0003577428D01*
X0002316915Y0003582281D01*
X0002311208Y0003586094D01*
X0002304867Y0003588721D01*
X0002298135Y0003590060D01*
X0002291272Y0003590060D01*
X0002284541Y0003588721D01*
X0002278200Y0003586094D01*
X0002272493Y0003582281D01*
X0002267640Y0003577428D01*
X0002263827Y0003571721D01*
X0002261200Y0003565380D01*
X0002259861Y0003558649D01*
X0002227340Y0003558649D01*
X0002226314Y0003563806D01*
X0002223836Y0003569789D01*
X0002220239Y0003575173D01*
X0002215660Y0003579752D01*
X0002210275Y0003583350D01*
X0002204293Y0003585828D01*
X0002197942Y0003587091D01*
X0002191466Y0003587091D01*
X0002185115Y0003585828D01*
X0002179132Y0003583350D01*
X0002173748Y0003579752D01*
X0002169169Y0003575173D01*
X0002165571Y0003569789D01*
X0002163093Y0003563806D01*
X0002161830Y0003557455D01*
X0002125471Y0003557455D01*
X0002124422Y0003562732D01*
X0002122092Y0003568357D01*
X0002118710Y0003573418D01*
X0002114405Y0003577723D01*
X0002109343Y0003581105D01*
X0002103719Y0003583435D01*
X0002097748Y0003584623D01*
X0002091660Y0003584623D01*
X0002085689Y0003583435D01*
X0002080065Y0003581105D01*
X0002075003Y0003577723D01*
X0002070698Y0003573418D01*
X0002067316Y0003568357D01*
X0002064986Y0003562732D01*
X0002063798Y0003556761D01*
X0002024606Y0003556761D01*
X0002023475Y0003562445D01*
X0002021220Y0003567890D01*
X0002017945Y0003572791D01*
X0002013777Y0003576959D01*
X0002008877Y0003580233D01*
X0002003431Y0003582489D01*
X0001997651Y0003583639D01*
X0001991757Y0003583639D01*
X0001985976Y0003582489D01*
X0001980531Y0003580233D01*
X0001975630Y0003576959D01*
X0001971462Y0003572791D01*
X0001968188Y0003567890D01*
X0001965932Y0003562445D01*
X0001964782Y0003556664D01*
X0001935436Y0003556664D01*
X0001935436Y0003557828D01*
X0001933832Y0003565890D01*
X0001930686Y0003573485D01*
X0001926119Y0003580320D01*
X0001920307Y0003586133D01*
X0001913471Y0003590700D01*
X0001905877Y0003593846D01*
X0001897814Y0003595450D01*
X0001889593Y0003595450D01*
X0001881531Y0003593846D01*
X0001873936Y0003590700D01*
X0001867101Y0003586133D01*
X0001861288Y0003580320D01*
X0001856721Y0003573485D01*
X0001853575Y0003565890D01*
X0001851971Y0003557828D01*
X0001835436Y0003557828D01*
X0001833832Y0003565890D01*
X0001830686Y0003573485D01*
X0001826119Y0003580320D01*
X0001820307Y0003586133D01*
X0001813471Y0003590700D01*
X0001805877Y0003593846D01*
X0001797814Y0003595450D01*
X0001789593Y0003595450D01*
X0001781531Y0003593846D01*
X0001773936Y0003590700D01*
X0001767101Y0003586133D01*
X0001761288Y0003580320D01*
X0001756721Y0003573485D01*
X0001753575Y0003565890D01*
X0001751971Y0003557828D01*
X0001663688Y0003557828D01*
X0001663688Y0003657411D01*
X0001801204Y0003657411D01*
X0001801204Y0003650024D01*
X0001802645Y0003642779D01*
X0001805472Y0003635954D01*
X0001809576Y0003629812D01*
X0001814799Y0003624589D01*
X0001820941Y0003620485D01*
X0001827765Y0003617658D01*
X0001835010Y0003616217D01*
X0001842397Y0003616217D01*
X0001849642Y0003617658D01*
X0001856467Y0003620485D01*
X0001862609Y0003624589D01*
X0001867832Y0003629812D01*
X0001871936Y0003635954D01*
X0001874763Y0003642779D01*
X0001876204Y0003650024D01*
X0001876204Y0003657411D01*
X0002001204Y0003657411D01*
X0002001204Y0003650024D01*
X0002002645Y0003642779D01*
X0002005472Y0003635954D01*
X0002009576Y0003629812D01*
X0002014799Y0003624589D01*
X0002020941Y0003620485D01*
X0002027765Y0003617658D01*
X0002035010Y0003616217D01*
X0002042397Y0003616217D01*
X0002049642Y0003617658D01*
X0002056467Y0003620485D01*
X0002062609Y0003624589D01*
X0002067832Y0003629812D01*
X0002071936Y0003635954D01*
X0002074763Y0003642779D01*
X0002076204Y0003650024D01*
X0002076204Y0003657411D01*
X0002201204Y0003657411D01*
X0002201204Y0003650024D01*
X0002202645Y0003642779D01*
X0002205472Y0003635954D01*
X0002209576Y0003629812D01*
X0002214799Y0003624589D01*
X0002220941Y0003620485D01*
X0002227765Y0003617658D01*
X0002235010Y0003616217D01*
X0002242397Y0003616217D01*
X0002249642Y0003617658D01*
X0002256467Y0003620485D01*
X0002262609Y0003624589D01*
X0002267832Y0003629812D01*
X0002271936Y0003635954D01*
X0002274763Y0003642779D01*
X0002276204Y0003650024D01*
X0002276204Y0003657411D01*
X0002401204Y0003657411D01*
X0002401204Y0003650024D01*
X0002402645Y0003642779D01*
X0002405472Y0003635954D01*
X0002409576Y0003629812D01*
X0002414799Y0003624589D01*
X0002420941Y0003620485D01*
X0002427765Y0003617658D01*
X0002435010Y0003616217D01*
X0002442397Y0003616217D01*
X0002449642Y0003617658D01*
X0002456467Y0003620485D01*
X0002462609Y0003624589D01*
X0002467832Y0003629812D01*
X0002471936Y0003635954D01*
X0002474763Y0003642779D01*
X0002476204Y0003650024D01*
X0002476204Y0003657411D01*
X0002474763Y0003664656D01*
X0002471936Y0003671480D01*
X0002467832Y0003677622D01*
X0002462609Y0003682845D01*
X0002456467Y0003686949D01*
X0002449642Y0003689776D01*
X0002442397Y0003691217D01*
X0002435010Y0003691217D01*
X0002427765Y0003689776D01*
X0002420941Y0003686949D01*
X0002414799Y0003682845D01*
X0002409576Y0003677622D01*
X0002405472Y0003671480D01*
X0002402645Y0003664656D01*
X0002401204Y0003657411D01*
X0002276204Y0003657411D01*
X0002274763Y0003664656D01*
X0002271936Y0003671480D01*
X0002267832Y0003677622D01*
X0002262609Y0003682845D01*
X0002256467Y0003686949D01*
X0002249642Y0003689776D01*
X0002242397Y0003691217D01*
X0002235010Y0003691217D01*
X0002227765Y0003689776D01*
X0002220941Y0003686949D01*
X0002214799Y0003682845D01*
X0002209576Y0003677622D01*
X0002205472Y0003671480D01*
X0002202645Y0003664656D01*
X0002201204Y0003657411D01*
X0002076204Y0003657411D01*
X0002074763Y0003664656D01*
X0002071936Y0003671480D01*
X0002067832Y0003677622D01*
X0002062609Y0003682845D01*
X0002056467Y0003686949D01*
X0002049642Y0003689776D01*
X0002042397Y0003691217D01*
X0002035010Y0003691217D01*
X0002027765Y0003689776D01*
X0002020941Y0003686949D01*
X0002014799Y0003682845D01*
X0002009576Y0003677622D01*
X0002005472Y0003671480D01*
X0002002645Y0003664656D01*
X0002001204Y0003657411D01*
X0001876204Y0003657411D01*
X0001874763Y0003664656D01*
X0001871936Y0003671480D01*
X0001867832Y0003677622D01*
X0001862609Y0003682845D01*
X0001856467Y0003686949D01*
X0001849642Y0003689776D01*
X0001842397Y0003691217D01*
X0001835010Y0003691217D01*
X0001827765Y0003689776D01*
X0001820941Y0003686949D01*
X0001814799Y0003682845D01*
X0001809576Y0003677622D01*
X0001805472Y0003671480D01*
X0001802645Y0003664656D01*
X0001801204Y0003657411D01*
X0001663688Y0003657411D01*
X0001663688Y0003717323D01*
X0002619503Y0003717323D01*
X0002619503Y0003393702D01*
G37*
G04 #@! TD.AperFunction*
M02*