%MOIN*%
%OFA0B0*%
%FSLAX46Y46*%
%IPPOS*%
%LPD*%
%ADD10C,0.005905511811023622*%
%ADD21C,0.005905511811023622*%
%ADD22C,0.005905511811023622*%
%ADD23C,0.005905511811023622*%
G01*
D10*
X0000569610Y0003225638D02*
X0000569610Y0003265008D01*
X0000578983Y0003265008D01*
X0000584608Y0003263133D01*
X0000588357Y0003259384D01*
X0000590232Y0003255634D01*
X0000592107Y0003248135D01*
X0000592107Y0003242511D01*
X0000590232Y0003235012D01*
X0000588357Y0003231262D01*
X0000584608Y0003227513D01*
X0000578983Y0003225638D01*
X0000569610Y0003225638D01*
G04 next file*
G04 #@! TF.GenerationSoftware,KiCad,Pcbnew,(5.1.12)-1*
G04 #@! TF.CreationDate,2022-03-29T21:33:58+08:00*
G04 #@! TF.ProjectId,Nozzle,4e6f7a7a-6c65-42e6-9b69-6361645f7063,Gen3.1b*
G04 #@! TF.SameCoordinates,Original*
G04 #@! TF.FileFunction,Legend,Top*
G04 #@! TF.FilePolarity,Positive*
G04 Gerber Fmt 4.6, Leading zero omitted, Abs format (unit mm)*
G04 Created by KiCad (PCBNEW (5.1.12)-1) date 2022-03-29 21:33:58*
G01*
G04 APERTURE LIST*
G04 APERTURE END LIST*
D21*
X0000569610Y0003698079D02*
X0000569610Y0003737449D01*
X0000578983Y0003737449D01*
X0000584608Y0003735574D01*
X0000588357Y0003731825D01*
X0000590232Y0003728075D01*
X0000592107Y0003720576D01*
X0000592107Y0003714952D01*
X0000590232Y0003707453D01*
X0000588357Y0003703703D01*
X0000584608Y0003699954D01*
X0000578983Y0003698079D01*
X0000569610Y0003698079D01*
G04 next file*
G04 #@! TF.GenerationSoftware,KiCad,Pcbnew,(5.1.12)-1*
G04 #@! TF.CreationDate,2022-03-29T21:33:58+08:00*
G04 #@! TF.ProjectId,Nozzle,4e6f7a7a-6c65-42e6-9b69-6361645f7063,Gen3.1b*
G04 #@! TF.SameCoordinates,Original*
G04 #@! TF.FileFunction,Legend,Top*
G04 #@! TF.FilePolarity,Positive*
G04 Gerber Fmt 4.6, Leading zero omitted, Abs format (unit mm)*
G04 Created by KiCad (PCBNEW (5.1.12)-1) date 2022-03-29 21:33:58*
G01*
G04 APERTURE LIST*
G04 APERTURE END LIST*
D22*
X0001665893Y0003219577D02*
X0001665893Y0003258947D01*
X0001675266Y0003258947D01*
X0001680891Y0003257072D01*
X0001684640Y0003253322D01*
X0001686515Y0003249573D01*
X0001688390Y0003242074D01*
X0001688390Y0003236449D01*
X0001686515Y0003228950D01*
X0001684640Y0003225201D01*
X0001680891Y0003221451D01*
X0001675266Y0003219577D01*
X0001665893Y0003219577D01*
G04 next file*
G04 #@! TF.GenerationSoftware,KiCad,Pcbnew,(5.1.12)-1*
G04 #@! TF.CreationDate,2022-03-29T21:33:58+08:00*
G04 #@! TF.ProjectId,Nozzle,4e6f7a7a-6c65-42e6-9b69-6361645f7063,Gen3.1b*
G04 #@! TF.SameCoordinates,Original*
G04 #@! TF.FileFunction,Legend,Top*
G04 #@! TF.FilePolarity,Positive*
G04 Gerber Fmt 4.6, Leading zero omitted, Abs format (unit mm)*
G04 Created by KiCad (PCBNEW (5.1.12)-1) date 2022-03-29 21:33:58*
G01*
G04 APERTURE LIST*
G04 APERTURE END LIST*
D23*
X0001665893Y0003673907D02*
X0001665893Y0003713277D01*
X0001675266Y0003713277D01*
X0001680891Y0003711402D01*
X0001684640Y0003707653D01*
X0001686515Y0003703903D01*
X0001688390Y0003696404D01*
X0001688390Y0003690780D01*
X0001686515Y0003683281D01*
X0001684640Y0003679531D01*
X0001680891Y0003675782D01*
X0001675266Y0003673907D01*
X0001665893Y0003673907D01*
M02*